ISO-10303-21;
HEADER;
/* Generated by software containing ST-Developer
 * from STEP Tools, Inc. (www.steptools.com) 
 */

FILE_DESCRIPTION(
/* description */ (''),
/* implementation_level */ '2;1');

FILE_NAME(
/* name */ 
'\\\\D-crew-srv\\\X2\30DC30EA30E530FC30E0\X0\ (e)\\DWG\\03 \X2\30DF30E430CF30E9\X0\\\
03 \X2\30D130CA30BD30CB30C330AF\X0\\\2018\\01 \X2\30B330F330C730F330B5\X0\ 
3D\X2\5316\X0\\\01 3D\\\X2\6A196E9654C103A6\X0\10 SIZE CODE G12.stp',
/* time_stamp */ '2018-06-21T10:18:40+09:00',
/* author */ ('HIDE'),
/* organization */ (''),
/* preprocessor_version */ 'ST-DEVELOPER v16.13',
/* originating_system */ 'Autodesk Inventor 2018',
/* authorisation */ '');

FILE_SCHEMA (('AUTOMOTIVE_DESIGN { 1 0 10303 214 3 1 1 }'));
ENDSEC;

DATA;
#10=MECHANICAL_DESIGN_GEOMETRIC_PRESENTATION_REPRESENTATION('',(#1066,#1067,
#1068,#1069,#1070,#1071,#1072,#1073,#1074,#1075,#1076,#1077,#1078,#1079,
#1080,#1085,#1081,#1107,#1108,#1109,#1110,#1111,#1112,#1113,#1114,#1115,
#1116,#1117,#1122,#1118,#1119,#1120,#1121,#1123,#1082,#1083,#1084,#1086,
#1087,#1088,#1089,#1090,#1091,#1092,#1093,#1094,#1095,#1096,#1097,#1098,
#1099,#1100,#1101,#1102,#1103,#1104,#1105,#1106),#2013);
#11=ITEM_DEFINED_TRANSFORMATION($,$,#1251,#1351);
#12=ITEM_DEFINED_TRANSFORMATION($,$,#1268,#1352);
#13=ITEM_DEFINED_TRANSFORMATION($,$,#1325,#1353);
#14=ITEM_DEFINED_TRANSFORMATION($,$,#1325,#1354);
#15=(
REPRESENTATION_RELATIONSHIP($,$,#2031,#2030)
REPRESENTATION_RELATIONSHIP_WITH_TRANSFORMATION(#11)
SHAPE_REPRESENTATION_RELATIONSHIP()
);
#16=(
REPRESENTATION_RELATIONSHIP($,$,#2032,#2030)
REPRESENTATION_RELATIONSHIP_WITH_TRANSFORMATION(#12)
SHAPE_REPRESENTATION_RELATIONSHIP()
);
#17=(
REPRESENTATION_RELATIONSHIP($,$,#2033,#2030)
REPRESENTATION_RELATIONSHIP_WITH_TRANSFORMATION(#13)
SHAPE_REPRESENTATION_RELATIONSHIP()
);
#18=(
REPRESENTATION_RELATIONSHIP($,$,#2033,#2030)
REPRESENTATION_RELATIONSHIP_WITH_TRANSFORMATION(#14)
SHAPE_REPRESENTATION_RELATIONSHIP()
);
#19=CONTEXT_DEPENDENT_SHAPE_REPRESENTATION(#15,#2026);
#20=CONTEXT_DEPENDENT_SHAPE_REPRESENTATION(#16,#2027);
#21=CONTEXT_DEPENDENT_SHAPE_REPRESENTATION(#17,#2028);
#22=CONTEXT_DEPENDENT_SHAPE_REPRESENTATION(#18,#2029);
#23=NEXT_ASSEMBLY_USAGE_OCCURRENCE(
'\X2\6A196E9654C130B130FC30B903A6\X0\10x11.52L SIDE CODE G12:1',
'\X2\6A196E9654C130B130FC30B903A6\X0\10x11.52L SIDE CODE G12:1',
'\X2\6A196E9654C130B130FC30B903A6\X0\10x11.52L SIDE CODE G12:1',#2035,#2036,
'\X2\6A196E9654C130B130FC30B903A6\X0\10x11.52L SIDE CODE G12:1');
#24=NEXT_ASSEMBLY_USAGE_OCCURRENCE(
'\X2\6A196E9654C15EA7724803A6\X0\10 SIZE CODE G12:1',
'\X2\6A196E9654C15EA7724803A6\X0\10 SIZE CODE G12:1',
'\X2\6A196E9654C15EA7724803A6\X0\10 SIZE CODE G12:1',#2035,#2037,
'\X2\6A196E9654C15EA7724803A6\X0\10 SIZE CODE G12:1');
#25=NEXT_ASSEMBLY_USAGE_OCCURRENCE(
'\X2\6A196E9654C130EA30FC30C97DDA03A6\X0\10 SIZE CODE G12:1',
'\X2\6A196E9654C130EA30FC30C97DDA03A6\X0\10 SIZE CODE G12:1',
'\X2\6A196E9654C130EA30FC30C97DDA03A6\X0\10 SIZE CODE G12:1',#2035,#2038,
'\X2\6A196E9654C130EA30FC30C97DDA03A6\X0\10 SIZE CODE G12:1');
#26=NEXT_ASSEMBLY_USAGE_OCCURRENCE(
'\X2\6A196E9654C130EA30FC30C97DDA03A6\X0\10 SIZE CODE G12:2',
'\X2\6A196E9654C130EA30FC30C97DDA03A6\X0\10 SIZE CODE G12:2',
'\X2\6A196E9654C130EA30FC30C97DDA03A6\X0\10 SIZE CODE G12:2',#2035,#2038,
'\X2\6A196E9654C130EA30FC30C97DDA03A6\X0\10 SIZE CODE G12:2');
#27=SPHERICAL_SURFACE('',#1344,0.65);
#28=SPHERICAL_SURFACE('',#1346,0.65);
#29=SHAPE_REPRESENTATION_RELATIONSHIP('SRR','None',#2031,#32);
#30=SHAPE_REPRESENTATION_RELATIONSHIP('SRR','None',#2032,#33);
#31=SHAPE_REPRESENTATION_RELATIONSHIP('SRR','None',#2033,#34);
#32=ADVANCED_BREP_SHAPE_REPRESENTATION('',(#35),#2010);
#33=ADVANCED_BREP_SHAPE_REPRESENTATION('',(#36),#2011);
#34=ADVANCED_BREP_SHAPE_REPRESENTATION('',(#37),#2012);
#35=MANIFOLD_SOLID_BREP('\X2\30BD30EA30C330C9\X0\1',#1185);
#36=MANIFOLD_SOLID_BREP('\X2\30BD30EA30C330C9\X0\1',#1186);
#37=MANIFOLD_SOLID_BREP('\X2\30BD30EA30C330C9\X0\1',#1187);
#38=CYLINDRICAL_SURFACE('',#1261,5.);
#39=CYLINDRICAL_SURFACE('',#1265,5.);
#40=CYLINDRICAL_SURFACE('',#1271,1.1);
#41=CYLINDRICAL_SURFACE('',#1278,1.1);
#42=CYLINDRICAL_SURFACE('',#1287,1.);
#43=CYLINDRICAL_SURFACE('',#1292,1.);
#44=CYLINDRICAL_SURFACE('',#1303,0.7);
#45=CYLINDRICAL_SURFACE('',#1305,0.7);
#46=CYLINDRICAL_SURFACE('',#1309,5.1);
#47=CYLINDRICAL_SURFACE('',#1319,5.1);
#48=CYLINDRICAL_SURFACE('',#1320,5.1);
#49=CYLINDRICAL_SURFACE('',#1321,5.1);
#50=CYLINDRICAL_SURFACE('',#1326,0.33);
#51=CYLINDRICAL_SURFACE('',#1348,0.65);
#52=FACE_BOUND('',#169,.T.);
#53=FACE_BOUND('',#171,.T.);
#54=FACE_BOUND('',#173,.T.);
#55=FACE_BOUND('',#175,.T.);
#56=FACE_BOUND('',#177,.T.);
#57=FACE_BOUND('',#183,.T.);
#58=FACE_BOUND('',#188,.T.);
#59=FACE_BOUND('',#202,.T.);
#60=FACE_BOUND('',#204,.T.);
#61=FACE_BOUND('',#211,.T.);
#62=FACE_BOUND('',#212,.T.);
#63=FACE_BOUND('',#234,.T.);
#64=CIRCLE('',#1258,4.5);
#65=CIRCLE('',#1259,5.);
#66=CIRCLE('',#1262,5.);
#67=CIRCLE('',#1264,5.);
#68=CIRCLE('',#1266,5.);
#69=CIRCLE('',#1272,1.1);
#70=CIRCLE('',#1273,1.1);
#71=CIRCLE('',#1275,0.7);
#72=CIRCLE('',#1279,1.1);
#73=CIRCLE('',#1280,1.1);
#74=CIRCLE('',#1282,0.7);
#75=CIRCLE('',#1285,1.);
#76=CIRCLE('',#1286,1.);
#77=CIRCLE('',#1288,1.);
#78=CIRCLE('',#1291,5.1);
#79=CIRCLE('',#1293,1.);
#80=CIRCLE('',#1295,5.1);
#81=CIRCLE('',#1299,5.1);
#82=CIRCLE('',#1302,5.1);
#83=CIRCLE('',#1304,0.7);
#84=CIRCLE('',#1306,0.7);
#85=CIRCLE('',#1310,5.1);
#86=CIRCLE('',#1314,5.1);
#87=CIRCLE('',#1315,5.1);
#88=CIRCLE('',#1316,5.1);
#89=CIRCLE('',#1327,0.33);
#90=CIRCLE('',#1328,0.33);
#91=CIRCLE('',#1330,0.25);
#92=CIRCLE('',#1332,0.588960949469488);
#93=CIRCLE('',#1334,0.65);
#94=CIRCLE('',#1336,0.65);
#95=CIRCLE('',#1338,0.25);
#96=CIRCLE('',#1342,0.647668896890996);
#97=CIRCLE('',#1345,0.65);
#98=CIRCLE('',#1347,0.65);
#99=CIRCLE('',#1349,0.65);
#100=TOROIDAL_SURFACE('',#1257,4.5,0.5);
#101=TOROIDAL_SURFACE('',#1263,6.08278571428572,1.25778571428572);
#102=FACE_OUTER_BOUND('',#163,.T.);
#103=FACE_OUTER_BOUND('',#164,.T.);
#104=FACE_OUTER_BOUND('',#165,.T.);
#105=FACE_OUTER_BOUND('',#166,.T.);
#106=FACE_OUTER_BOUND('',#167,.T.);
#107=FACE_OUTER_BOUND('',#168,.T.);
#108=FACE_OUTER_BOUND('',#170,.T.);
#109=FACE_OUTER_BOUND('',#172,.T.);
#110=FACE_OUTER_BOUND('',#174,.T.);
#111=FACE_OUTER_BOUND('',#176,.T.);
#112=FACE_OUTER_BOUND('',#178,.T.);
#113=FACE_OUTER_BOUND('',#179,.T.);
#114=FACE_OUTER_BOUND('',#180,.T.);
#115=FACE_OUTER_BOUND('',#181,.T.);
#116=FACE_OUTER_BOUND('',#182,.T.);
#117=FACE_OUTER_BOUND('',#184,.T.);
#118=FACE_OUTER_BOUND('',#185,.T.);
#119=FACE_OUTER_BOUND('',#186,.T.);
#120=FACE_OUTER_BOUND('',#187,.T.);
#121=FACE_OUTER_BOUND('',#189,.T.);
#122=FACE_OUTER_BOUND('',#190,.T.);
#123=FACE_OUTER_BOUND('',#191,.T.);
#124=FACE_OUTER_BOUND('',#192,.T.);
#125=FACE_OUTER_BOUND('',#193,.T.);
#126=FACE_OUTER_BOUND('',#194,.T.);
#127=FACE_OUTER_BOUND('',#195,.T.);
#128=FACE_OUTER_BOUND('',#196,.T.);
#129=FACE_OUTER_BOUND('',#197,.T.);
#130=FACE_OUTER_BOUND('',#198,.T.);
#131=FACE_OUTER_BOUND('',#199,.T.);
#132=FACE_OUTER_BOUND('',#200,.T.);
#133=FACE_OUTER_BOUND('',#201,.T.);
#134=FACE_OUTER_BOUND('',#203,.T.);
#135=FACE_OUTER_BOUND('',#205,.T.);
#136=FACE_OUTER_BOUND('',#206,.T.);
#137=FACE_OUTER_BOUND('',#207,.T.);
#138=FACE_OUTER_BOUND('',#208,.T.);
#139=FACE_OUTER_BOUND('',#209,.T.);
#140=FACE_OUTER_BOUND('',#210,.T.);
#141=FACE_OUTER_BOUND('',#213,.T.);
#142=FACE_OUTER_BOUND('',#214,.T.);
#143=FACE_OUTER_BOUND('',#215,.T.);
#144=FACE_OUTER_BOUND('',#216,.T.);
#145=FACE_OUTER_BOUND('',#217,.T.);
#146=FACE_OUTER_BOUND('',#218,.T.);
#147=FACE_OUTER_BOUND('',#219,.T.);
#148=FACE_OUTER_BOUND('',#220,.T.);
#149=FACE_OUTER_BOUND('',#221,.T.);
#150=FACE_OUTER_BOUND('',#222,.T.);
#151=FACE_OUTER_BOUND('',#223,.T.);
#152=FACE_OUTER_BOUND('',#224,.T.);
#153=FACE_OUTER_BOUND('',#225,.T.);
#154=FACE_OUTER_BOUND('',#226,.T.);
#155=FACE_OUTER_BOUND('',#227,.T.);
#156=FACE_OUTER_BOUND('',#228,.T.);
#157=FACE_OUTER_BOUND('',#229,.T.);
#158=FACE_OUTER_BOUND('',#230,.T.);
#159=FACE_OUTER_BOUND('',#231,.T.);
#160=FACE_OUTER_BOUND('',#232,.T.);
#161=FACE_OUTER_BOUND('',#233,.T.);
#162=FACE_OUTER_BOUND('',#235,.T.);
#163=EDGE_LOOP('',(#721,#722,#723,#724));
#164=EDGE_LOOP('',(#725,#726,#727,#728));
#165=EDGE_LOOP('',(#729,#730,#731,#732));
#166=EDGE_LOOP('',(#733,#734,#735,#736));
#167=EDGE_LOOP('',(#737,#738,#739,#740));
#168=EDGE_LOOP('',(#741));
#169=EDGE_LOOP('',(#742));
#170=EDGE_LOOP('',(#743));
#171=EDGE_LOOP('',(#744,#745,#746,#747));
#172=EDGE_LOOP('',(#748));
#173=EDGE_LOOP('',(#749));
#174=EDGE_LOOP('',(#750));
#175=EDGE_LOOP('',(#751));
#176=EDGE_LOOP('',(#752));
#177=EDGE_LOOP('',(#753));
#178=EDGE_LOOP('',(#754));
#179=EDGE_LOOP('',(#755,#756,#757,#758));
#180=EDGE_LOOP('',(#759,#760,#761,#762));
#181=EDGE_LOOP('',(#763,#764,#765,#766));
#182=EDGE_LOOP('',(#767,#768,#769,#770));
#183=EDGE_LOOP('',(#771));
#184=EDGE_LOOP('',(#772,#773,#774,#775));
#185=EDGE_LOOP('',(#776,#777,#778,#779));
#186=EDGE_LOOP('',(#780,#781,#782,#783));
#187=EDGE_LOOP('',(#784,#785,#786,#787));
#188=EDGE_LOOP('',(#788));
#189=EDGE_LOOP('',(#789,#790,#791,#792,#793,#794,#795,#796,#797,#798,#799,
#800));
#190=EDGE_LOOP('',(#801,#802,#803,#804,#805,#806,#807,#808,#809,#810,#811,
#812,#813,#814,#815,#816));
#191=EDGE_LOOP('',(#817,#818,#819,#820));
#192=EDGE_LOOP('',(#821,#822,#823,#824,#825,#826,#827,#828));
#193=EDGE_LOOP('',(#829,#830,#831,#832,#833,#834));
#194=EDGE_LOOP('',(#835,#836,#837,#838));
#195=EDGE_LOOP('',(#839,#840,#841,#842,#843,#844));
#196=EDGE_LOOP('',(#845,#846,#847,#848,#849,#850,#851,#852));
#197=EDGE_LOOP('',(#853,#854,#855,#856));
#198=EDGE_LOOP('',(#857,#858,#859,#860,#861,#862));
#199=EDGE_LOOP('',(#863,#864,#865,#866));
#200=EDGE_LOOP('',(#867,#868,#869,#870,#871,#872));
#201=EDGE_LOOP('',(#873));
#202=EDGE_LOOP('',(#874));
#203=EDGE_LOOP('',(#875));
#204=EDGE_LOOP('',(#876));
#205=EDGE_LOOP('',(#877,#878,#879,#880));
#206=EDGE_LOOP('',(#881,#882,#883,#884));
#207=EDGE_LOOP('',(#885,#886,#887,#888));
#208=EDGE_LOOP('',(#889,#890,#891,#892));
#209=EDGE_LOOP('',(#893,#894,#895,#896));
#210=EDGE_LOOP('',(#897,#898,#899,#900,#901,#902,#903,#904,#905,#906,#907,
#908,#909,#910,#911,#912));
#211=EDGE_LOOP('',(#913));
#212=EDGE_LOOP('',(#914));
#213=EDGE_LOOP('',(#915,#916,#917,#918));
#214=EDGE_LOOP('',(#919,#920,#921,#922));
#215=EDGE_LOOP('',(#923,#924,#925,#926));
#216=EDGE_LOOP('',(#927,#928,#929,#930));
#217=EDGE_LOOP('',(#931,#932,#933,#934));
#218=EDGE_LOOP('',(#935,#936,#937,#938));
#219=EDGE_LOOP('',(#939,#940,#941,#942));
#220=EDGE_LOOP('',(#943,#944,#945,#946,#947,#948,#949,#950,#951,#952,#953,
#954));
#221=EDGE_LOOP('',(#955,#956,#957,#958));
#222=EDGE_LOOP('',(#959,#960,#961,#962,#963,#964,#965,#966,#967));
#223=EDGE_LOOP('',(#968,#969,#970,#971,#972,#973,#974,#975));
#224=EDGE_LOOP('',(#976,#977,#978));
#225=EDGE_LOOP('',(#979,#980,#981));
#226=EDGE_LOOP('',(#982,#983,#984,#985,#986,#987,#988,#989,#990));
#227=EDGE_LOOP('',(#991,#992,#993,#994));
#228=EDGE_LOOP('',(#995,#996,#997,#998));
#229=EDGE_LOOP('',(#999,#1000,#1001,#1002));
#230=EDGE_LOOP('',(#1003,#1004,#1005,#1006));
#231=EDGE_LOOP('',(#1007,#1008));
#232=EDGE_LOOP('',(#1009,#1010,#1011,#1012));
#233=EDGE_LOOP('',(#1013,#1014,#1015,#1016,#1017,#1018,#1019,#1020));
#234=EDGE_LOOP('',(#1021));
#235=EDGE_LOOP('',(#1022));
#236=LINE('',#1685,#351);
#237=LINE('',#1687,#352);
#238=LINE('',#1689,#353);
#239=LINE('',#1690,#354);
#240=LINE('',#1693,#355);
#241=LINE('',#1695,#356);
#242=LINE('',#1696,#357);
#243=LINE('',#1699,#358);
#244=LINE('',#1701,#359);
#245=LINE('',#1702,#360);
#246=LINE('',#1704,#361);
#247=LINE('',#1705,#362);
#248=LINE('',#1727,#363);
#249=LINE('',#1729,#364);
#250=LINE('',#1731,#365);
#251=LINE('',#1732,#366);
#252=LINE('',#1736,#367);
#253=LINE('',#1738,#368);
#254=LINE('',#1740,#369);
#255=LINE('',#1741,#370);
#256=LINE('',#1746,#371);
#257=LINE('',#1752,#372);
#258=LINE('',#1754,#373);
#259=LINE('',#1756,#374);
#260=LINE('',#1757,#375);
#261=LINE('',#1761,#376);
#262=LINE('',#1763,#377);
#263=LINE('',#1765,#378);
#264=LINE('',#1766,#379);
#265=LINE('',#1771,#380);
#266=LINE('',#1776,#381);
#267=LINE('',#1778,#382);
#268=LINE('',#1780,#383);
#269=LINE('',#1782,#384);
#270=LINE('',#1784,#385);
#271=LINE('',#1786,#386);
#272=LINE('',#1788,#387);
#273=LINE('',#1790,#388);
#274=LINE('',#1791,#389);
#275=LINE('',#1794,#390);
#276=LINE('',#1798,#391);
#277=LINE('',#1799,#392);
#278=LINE('',#1801,#393);
#279=LINE('',#1803,#394);
#280=LINE('',#1806,#395);
#281=LINE('',#1811,#396);
#282=LINE('',#1812,#397);
#283=LINE('',#1815,#398);
#284=LINE('',#1817,#399);
#285=LINE('',#1819,#400);
#286=LINE('',#1821,#401);
#287=LINE('',#1823,#402);
#288=LINE('',#1824,#403);
#289=LINE('',#1827,#404);
#290=LINE('',#1829,#405);
#291=LINE('',#1832,#406);
#292=LINE('',#1837,#407);
#293=LINE('',#1838,#408);
#294=LINE('',#1841,#409);
#295=LINE('',#1843,#410);
#296=LINE('',#1847,#411);
#297=LINE('',#1848,#412);
#298=LINE('',#1851,#413);
#299=LINE('',#1853,#414);
#300=LINE('',#1855,#415);
#301=LINE('',#1857,#416);
#302=LINE('',#1858,#417);
#303=LINE('',#1860,#418);
#304=LINE('',#1863,#419);
#305=LINE('',#1866,#420);
#306=LINE('',#1868,#421);
#307=LINE('',#1871,#422);
#308=LINE('',#1874,#423);
#309=LINE('',#1883,#424);
#310=LINE('',#1884,#425);
#311=LINE('',#1887,#426);
#312=LINE('',#1888,#427);
#313=LINE('',#1891,#428);
#314=LINE('',#1894,#429);
#315=LINE('',#1897,#430);
#316=LINE('',#1898,#431);
#317=LINE('',#1901,#432);
#318=LINE('',#1905,#433);
#319=LINE('',#1907,#434);
#320=LINE('',#1909,#435);
#321=LINE('',#1912,#436);
#322=LINE('',#1915,#437);
#323=LINE('',#1917,#438);
#324=LINE('',#1919,#439);
#325=LINE('',#1922,#440);
#326=LINE('',#1924,#441);
#327=LINE('',#1926,#442);
#328=LINE('',#1934,#443);
#329=LINE('',#1937,#444);
#330=LINE('',#1940,#445);
#331=LINE('',#1942,#446);
#332=LINE('',#1944,#447);
#333=LINE('',#1948,#448);
#334=LINE('',#1950,#449);
#335=LINE('',#1952,#450);
#336=LINE('',#1953,#451);
#337=LINE('',#1956,#452);
#338=LINE('',#1958,#453);
#339=LINE('',#1960,#454);
#340=LINE('',#1964,#455);
#341=LINE('',#1965,#456);
#342=LINE('',#1971,#457);
#343=LINE('',#1974,#458);
#344=LINE('',#1976,#459);
#345=LINE('',#1978,#460);
#346=LINE('',#1980,#461);
#347=LINE('',#1983,#462);
#348=LINE('',#1985,#463);
#349=LINE('',#1986,#464);
#350=LINE('',#1988,#465);
#351=VECTOR('',#1361,10.);
#352=VECTOR('',#1362,10.);
#353=VECTOR('',#1363,10.);
#354=VECTOR('',#1364,10.);
#355=VECTOR('',#1367,10.);
#356=VECTOR('',#1368,10.);
#357=VECTOR('',#1369,10.);
#358=VECTOR('',#1372,10.);
#359=VECTOR('',#1373,10.);
#360=VECTOR('',#1374,10.);
#361=VECTOR('',#1377,10.);
#362=VECTOR('',#1378,10.);
#363=VECTOR('',#1407,10.);
#364=VECTOR('',#1408,10.);
#365=VECTOR('',#1409,10.);
#366=VECTOR('',#1410,10.);
#367=VECTOR('',#1413,10.);
#368=VECTOR('',#1414,10.);
#369=VECTOR('',#1415,10.);
#370=VECTOR('',#1416,10.);
#371=VECTOR('',#1425,10.);
#372=VECTOR('',#1430,10.);
#373=VECTOR('',#1431,10.);
#374=VECTOR('',#1432,10.);
#375=VECTOR('',#1433,10.);
#376=VECTOR('',#1436,10.);
#377=VECTOR('',#1437,10.);
#378=VECTOR('',#1438,10.);
#379=VECTOR('',#1439,10.);
#380=VECTOR('',#1448,10.);
#381=VECTOR('',#1453,10.);
#382=VECTOR('',#1454,10.);
#383=VECTOR('',#1455,10.);
#384=VECTOR('',#1456,10.);
#385=VECTOR('',#1457,10.);
#386=VECTOR('',#1458,10.);
#387=VECTOR('',#1459,10.);
#388=VECTOR('',#1460,10.);
#389=VECTOR('',#1461,10.);
#390=VECTOR('',#1464,10.);
#391=VECTOR('',#1467,10.);
#392=VECTOR('',#1468,10.);
#393=VECTOR('',#1469,10.);
#394=VECTOR('',#1470,10.);
#395=VECTOR('',#1473,10.);
#396=VECTOR('',#1478,10.);
#397=VECTOR('',#1479,10.);
#398=VECTOR('',#1482,10.);
#399=VECTOR('',#1483,10.);
#400=VECTOR('',#1484,10.);
#401=VECTOR('',#1485,10.);
#402=VECTOR('',#1486,10.);
#403=VECTOR('',#1487,10.);
#404=VECTOR('',#1490,10.);
#405=VECTOR('',#1491,10.);
#406=VECTOR('',#1494,10.);
#407=VECTOR('',#1499,10.);
#408=VECTOR('',#1500,10.);
#409=VECTOR('',#1503,10.);
#410=VECTOR('',#1504,10.);
#411=VECTOR('',#1507,10.);
#412=VECTOR('',#1508,10.);
#413=VECTOR('',#1511,10.);
#414=VECTOR('',#1512,10.);
#415=VECTOR('',#1513,10.);
#416=VECTOR('',#1514,10.);
#417=VECTOR('',#1515,10.);
#418=VECTOR('',#1518,10.);
#419=VECTOR('',#1521,10.);
#420=VECTOR('',#1524,10.);
#421=VECTOR('',#1527,10.);
#422=VECTOR('',#1530,10.);
#423=VECTOR('',#1533,10.);
#424=VECTOR('',#1544,10.);
#425=VECTOR('',#1545,10.);
#426=VECTOR('',#1548,10.);
#427=VECTOR('',#1549,10.);
#428=VECTOR('',#1552,10.);
#429=VECTOR('',#1557,10.);
#430=VECTOR('',#1560,10.);
#431=VECTOR('',#1561,10.);
#432=VECTOR('',#1564,10.);
#433=VECTOR('',#1567,10.);
#434=VECTOR('',#1568,10.);
#435=VECTOR('',#1569,10.);
#436=VECTOR('',#1572,10.);
#437=VECTOR('',#1577,10.);
#438=VECTOR('',#1580,10.);
#439=VECTOR('',#1583,10.);
#440=VECTOR('',#1588,10.);
#441=VECTOR('',#1591,10.);
#442=VECTOR('',#1594,10.);
#443=VECTOR('',#1603,10.);
#444=VECTOR('',#1606,10.);
#445=VECTOR('',#1609,10.);
#446=VECTOR('',#1610,10.);
#447=VECTOR('',#1611,10.);
#448=VECTOR('',#1614,10.);
#449=VECTOR('',#1615,10.);
#450=VECTOR('',#1616,10.);
#451=VECTOR('',#1617,10.);
#452=VECTOR('',#1620,10.);
#453=VECTOR('',#1621,10.);
#454=VECTOR('',#1622,10.);
#455=VECTOR('',#1625,10.);
#456=VECTOR('',#1626,10.);
#457=VECTOR('',#1635,10.);
#458=VECTOR('',#1638,10.);
#459=VECTOR('',#1639,10.);
#460=VECTOR('',#1640,10.);
#461=VECTOR('',#1641,10.);
#462=VECTOR('',#1644,10.);
#463=VECTOR('',#1647,10.);
#464=VECTOR('',#1648,10.);
#465=VECTOR('',#1651,10.);
#466=VERTEX_POINT('',#1683);
#467=VERTEX_POINT('',#1684);
#468=VERTEX_POINT('',#1686);
#469=VERTEX_POINT('',#1688);
#470=VERTEX_POINT('',#1692);
#471=VERTEX_POINT('',#1694);
#472=VERTEX_POINT('',#1698);
#473=VERTEX_POINT('',#1700);
#474=VERTEX_POINT('',#1708);
#475=VERTEX_POINT('',#1710);
#476=VERTEX_POINT('',#1714);
#477=VERTEX_POINT('',#1717);
#478=VERTEX_POINT('',#1720);
#479=VERTEX_POINT('',#1725);
#480=VERTEX_POINT('',#1726);
#481=VERTEX_POINT('',#1728);
#482=VERTEX_POINT('',#1730);
#483=VERTEX_POINT('',#1734);
#484=VERTEX_POINT('',#1735);
#485=VERTEX_POINT('',#1737);
#486=VERTEX_POINT('',#1739);
#487=VERTEX_POINT('',#1747);
#488=VERTEX_POINT('',#1750);
#489=VERTEX_POINT('',#1751);
#490=VERTEX_POINT('',#1753);
#491=VERTEX_POINT('',#1755);
#492=VERTEX_POINT('',#1759);
#493=VERTEX_POINT('',#1760);
#494=VERTEX_POINT('',#1762);
#495=VERTEX_POINT('',#1764);
#496=VERTEX_POINT('',#1772);
#497=VERTEX_POINT('',#1775);
#498=VERTEX_POINT('',#1777);
#499=VERTEX_POINT('',#1779);
#500=VERTEX_POINT('',#1781);
#501=VERTEX_POINT('',#1783);
#502=VERTEX_POINT('',#1785);
#503=VERTEX_POINT('',#1787);
#504=VERTEX_POINT('',#1789);
#505=VERTEX_POINT('',#1793);
#506=VERTEX_POINT('',#1795);
#507=VERTEX_POINT('',#1797);
#508=VERTEX_POINT('',#1800);
#509=VERTEX_POINT('',#1802);
#510=VERTEX_POINT('',#1804);
#511=VERTEX_POINT('',#1808);
#512=VERTEX_POINT('',#1809);
#513=VERTEX_POINT('',#1814);
#514=VERTEX_POINT('',#1816);
#515=VERTEX_POINT('',#1818);
#516=VERTEX_POINT('',#1820);
#517=VERTEX_POINT('',#1822);
#518=VERTEX_POINT('',#1826);
#519=VERTEX_POINT('',#1828);
#520=VERTEX_POINT('',#1830);
#521=VERTEX_POINT('',#1834);
#522=VERTEX_POINT('',#1835);
#523=VERTEX_POINT('',#1840);
#524=VERTEX_POINT('',#1842);
#525=VERTEX_POINT('',#1844);
#526=VERTEX_POINT('',#1846);
#527=VERTEX_POINT('',#1850);
#528=VERTEX_POINT('',#1852);
#529=VERTEX_POINT('',#1854);
#530=VERTEX_POINT('',#1856);
#531=VERTEX_POINT('',#1862);
#532=VERTEX_POINT('',#1864);
#533=VERTEX_POINT('',#1870);
#534=VERTEX_POINT('',#1872);
#535=VERTEX_POINT('',#1876);
#536=VERTEX_POINT('',#1879);
#537=VERTEX_POINT('',#1882);
#538=VERTEX_POINT('',#1886);
#539=VERTEX_POINT('',#1890);
#540=VERTEX_POINT('',#1896);
#541=VERTEX_POINT('',#1900);
#542=VERTEX_POINT('',#1902);
#543=VERTEX_POINT('',#1904);
#544=VERTEX_POINT('',#1906);
#545=VERTEX_POINT('',#1908);
#546=VERTEX_POINT('',#1910);
#547=VERTEX_POINT('',#1930);
#548=VERTEX_POINT('',#1931);
#549=VERTEX_POINT('',#1933);
#550=VERTEX_POINT('',#1935);
#551=VERTEX_POINT('',#1939);
#552=VERTEX_POINT('',#1941);
#553=VERTEX_POINT('',#1943);
#554=VERTEX_POINT('',#1945);
#555=VERTEX_POINT('',#1947);
#556=VERTEX_POINT('',#1949);
#557=VERTEX_POINT('',#1951);
#558=VERTEX_POINT('',#1955);
#559=VERTEX_POINT('',#1957);
#560=VERTEX_POINT('',#1959);
#561=VERTEX_POINT('',#1961);
#562=VERTEX_POINT('',#1963);
#563=VERTEX_POINT('',#1969);
#564=VERTEX_POINT('',#1973);
#565=VERTEX_POINT('',#1975);
#566=VERTEX_POINT('',#1977);
#567=VERTEX_POINT('',#1979);
#568=VERTEX_POINT('',#1981);
#569=VERTEX_POINT('',#1997);
#570=EDGE_CURVE('',#466,#467,#236,.T.);
#571=EDGE_CURVE('',#466,#468,#237,.T.);
#572=EDGE_CURVE('',#469,#468,#238,.T.);
#573=EDGE_CURVE('',#467,#469,#239,.T.);
#574=EDGE_CURVE('',#467,#470,#240,.T.);
#575=EDGE_CURVE('',#471,#469,#241,.T.);
#576=EDGE_CURVE('',#470,#471,#242,.T.);
#577=EDGE_CURVE('',#470,#472,#243,.T.);
#578=EDGE_CURVE('',#473,#471,#244,.T.);
#579=EDGE_CURVE('',#472,#473,#245,.T.);
#580=EDGE_CURVE('',#472,#466,#246,.T.);
#581=EDGE_CURVE('',#468,#473,#247,.T.);
#582=EDGE_CURVE('',#474,#474,#64,.T.);
#583=EDGE_CURVE('',#475,#475,#65,.T.);
#584=EDGE_CURVE('',#476,#476,#66,.T.);
#585=EDGE_CURVE('',#477,#477,#67,.T.);
#586=EDGE_CURVE('',#478,#478,#68,.T.);
#587=EDGE_CURVE('',#479,#480,#248,.T.);
#588=EDGE_CURVE('',#479,#481,#249,.T.);
#589=EDGE_CURVE('',#481,#482,#250,.T.);
#590=EDGE_CURVE('',#480,#482,#251,.T.);
#591=EDGE_CURVE('',#483,#484,#252,.T.);
#592=EDGE_CURVE('',#485,#483,#253,.T.);
#593=EDGE_CURVE('',#485,#486,#254,.T.);
#594=EDGE_CURVE('',#484,#486,#255,.T.);
#595=EDGE_CURVE('',#486,#481,#69,.T.);
#596=EDGE_CURVE('',#484,#479,#70,.T.);
#597=EDGE_CURVE('',#482,#485,#256,.T.);
#598=EDGE_CURVE('',#487,#487,#71,.T.);
#599=EDGE_CURVE('',#488,#489,#257,.T.);
#600=EDGE_CURVE('',#490,#488,#258,.T.);
#601=EDGE_CURVE('',#490,#491,#259,.T.);
#602=EDGE_CURVE('',#489,#491,#260,.T.);
#603=EDGE_CURVE('',#492,#493,#261,.T.);
#604=EDGE_CURVE('',#492,#494,#262,.T.);
#605=EDGE_CURVE('',#494,#495,#263,.T.);
#606=EDGE_CURVE('',#493,#495,#264,.T.);
#607=EDGE_CURVE('',#491,#494,#72,.T.);
#608=EDGE_CURVE('',#489,#492,#73,.T.);
#609=EDGE_CURVE('',#495,#490,#265,.T.);
#610=EDGE_CURVE('',#496,#496,#74,.T.);
#611=EDGE_CURVE('',#497,#488,#266,.T.);
#612=EDGE_CURVE('',#498,#497,#267,.T.);
#613=EDGE_CURVE('',#498,#499,#268,.T.);
#614=EDGE_CURVE('',#499,#500,#269,.T.);
#615=EDGE_CURVE('',#500,#501,#270,.T.);
#616=EDGE_CURVE('',#501,#502,#271,.T.);
#617=EDGE_CURVE('',#502,#503,#272,.T.);
#618=EDGE_CURVE('',#504,#503,#273,.T.);
#619=EDGE_CURVE('',#493,#504,#274,.T.);
#620=EDGE_CURVE('',#480,#505,#275,.T.);
#621=EDGE_CURVE('',#506,#505,#75,.T.);
#622=EDGE_CURVE('',#506,#507,#276,.T.);
#623=EDGE_CURVE('',#497,#507,#277,.T.);
#624=EDGE_CURVE('',#508,#504,#278,.T.);
#625=EDGE_CURVE('',#508,#509,#279,.T.);
#626=EDGE_CURVE('',#510,#509,#76,.T.);
#627=EDGE_CURVE('',#510,#483,#280,.T.);
#628=EDGE_CURVE('',#511,#512,#77,.T.);
#629=EDGE_CURVE('',#512,#506,#281,.T.);
#630=EDGE_CURVE('',#505,#511,#282,.T.);
#631=EDGE_CURVE('',#513,#512,#283,.T.);
#632=EDGE_CURVE('',#513,#514,#284,.T.);
#633=EDGE_CURVE('',#514,#515,#285,.T.);
#634=EDGE_CURVE('',#515,#516,#286,.T.);
#635=EDGE_CURVE('',#516,#517,#287,.T.);
#636=EDGE_CURVE('',#507,#517,#288,.T.);
#637=EDGE_CURVE('',#511,#518,#289,.T.);
#638=EDGE_CURVE('',#518,#519,#290,.T.);
#639=EDGE_CURVE('',#519,#520,#78,.T.);
#640=EDGE_CURVE('',#520,#513,#291,.T.);
#641=EDGE_CURVE('',#521,#522,#79,.T.);
#642=EDGE_CURVE('',#522,#510,#292,.T.);
#643=EDGE_CURVE('',#509,#521,#293,.T.);
#644=EDGE_CURVE('',#521,#523,#294,.T.);
#645=EDGE_CURVE('',#523,#524,#295,.T.);
#646=EDGE_CURVE('',#524,#525,#80,.T.);
#647=EDGE_CURVE('',#525,#526,#296,.T.);
#648=EDGE_CURVE('',#526,#522,#297,.T.);
#649=EDGE_CURVE('',#527,#508,#298,.T.);
#650=EDGE_CURVE('',#527,#528,#299,.T.);
#651=EDGE_CURVE('',#528,#529,#300,.T.);
#652=EDGE_CURVE('',#529,#530,#301,.T.);
#653=EDGE_CURVE('',#530,#523,#302,.T.);
#654=EDGE_CURVE('',#517,#498,#303,.T.);
#655=EDGE_CURVE('',#531,#516,#304,.T.);
#656=EDGE_CURVE('',#532,#531,#81,.T.);
#657=EDGE_CURVE('',#499,#532,#305,.T.);
#658=EDGE_CURVE('',#503,#527,#306,.T.);
#659=EDGE_CURVE('',#533,#502,#307,.T.);
#660=EDGE_CURVE('',#534,#533,#82,.T.);
#661=EDGE_CURVE('',#528,#534,#308,.T.);
#662=EDGE_CURVE('',#535,#535,#83,.T.);
#663=EDGE_CURVE('',#536,#536,#84,.T.);
#664=EDGE_CURVE('',#537,#532,#309,.T.);
#665=EDGE_CURVE('',#537,#500,#310,.T.);
#666=EDGE_CURVE('',#534,#538,#311,.T.);
#667=EDGE_CURVE('',#538,#529,#312,.T.);
#668=EDGE_CURVE('',#533,#539,#313,.T.);
#669=EDGE_CURVE('',#539,#538,#85,.T.);
#670=EDGE_CURVE('',#501,#539,#314,.T.);
#671=EDGE_CURVE('',#515,#540,#315,.T.);
#672=EDGE_CURVE('',#540,#531,#316,.T.);
#673=EDGE_CURVE('',#541,#514,#317,.T.);
#674=EDGE_CURVE('',#542,#541,#86,.T.);
#675=EDGE_CURVE('',#543,#542,#318,.T.);
#676=EDGE_CURVE('',#544,#543,#319,.T.);
#677=EDGE_CURVE('',#545,#544,#320,.T.);
#678=EDGE_CURVE('',#546,#545,#87,.T.);
#679=EDGE_CURVE('',#530,#546,#321,.T.);
#680=EDGE_CURVE('',#540,#537,#88,.T.);
#681=EDGE_CURVE('',#520,#541,#322,.T.);
#682=EDGE_CURVE('',#546,#524,#323,.T.);
#683=EDGE_CURVE('',#519,#542,#324,.T.);
#684=EDGE_CURVE('',#545,#525,#325,.T.);
#685=EDGE_CURVE('',#526,#544,#326,.T.);
#686=EDGE_CURVE('',#543,#518,#327,.T.);
#687=EDGE_CURVE('',#547,#548,#89,.T.);
#688=EDGE_CURVE('',#548,#549,#328,.T.);
#689=EDGE_CURVE('',#549,#550,#90,.T.);
#690=EDGE_CURVE('',#550,#547,#329,.T.);
#691=EDGE_CURVE('',#547,#551,#330,.T.);
#692=EDGE_CURVE('',#551,#552,#331,.T.);
#693=EDGE_CURVE('',#553,#552,#332,.T.);
#694=EDGE_CURVE('',#554,#553,#91,.T.);
#695=EDGE_CURVE('',#554,#555,#333,.T.);
#696=EDGE_CURVE('',#555,#556,#334,.T.);
#697=EDGE_CURVE('',#556,#557,#335,.T.);
#698=EDGE_CURVE('',#557,#548,#336,.T.);
#699=EDGE_CURVE('',#558,#550,#337,.T.);
#700=EDGE_CURVE('',#558,#559,#338,.T.);
#701=EDGE_CURVE('',#560,#559,#339,.T.);
#702=EDGE_CURVE('',#561,#560,#92,.T.);
#703=EDGE_CURVE('',#562,#561,#340,.T.);
#704=EDGE_CURVE('',#562,#551,#341,.T.);
#705=EDGE_CURVE('',#552,#562,#93,.T.);
#706=EDGE_CURVE('',#559,#563,#94,.T.);
#707=EDGE_CURVE('',#563,#558,#342,.T.);
#708=EDGE_CURVE('',#549,#564,#343,.T.);
#709=EDGE_CURVE('',#564,#565,#344,.T.);
#710=EDGE_CURVE('',#565,#566,#345,.T.);
#711=EDGE_CURVE('',#566,#567,#346,.T.);
#712=EDGE_CURVE('',#568,#567,#95,.T.);
#713=EDGE_CURVE('',#563,#568,#347,.T.);
#714=EDGE_CURVE('',#557,#564,#348,.T.);
#715=EDGE_CURVE('',#565,#556,#349,.T.);
#716=EDGE_CURVE('',#566,#555,#350,.T.);
#717=EDGE_CURVE('',#567,#554,#96,.T.);
#718=EDGE_CURVE('',#560,#561,#97,.T.);
#719=EDGE_CURVE('',#553,#568,#98,.T.);
#720=EDGE_CURVE('',#569,#569,#99,.T.);
#721=ORIENTED_EDGE('',*,*,#570,.F.);
#722=ORIENTED_EDGE('',*,*,#571,.T.);
#723=ORIENTED_EDGE('',*,*,#572,.F.);
#724=ORIENTED_EDGE('',*,*,#573,.F.);
#725=ORIENTED_EDGE('',*,*,#574,.F.);
#726=ORIENTED_EDGE('',*,*,#573,.T.);
#727=ORIENTED_EDGE('',*,*,#575,.F.);
#728=ORIENTED_EDGE('',*,*,#576,.F.);
#729=ORIENTED_EDGE('',*,*,#577,.F.);
#730=ORIENTED_EDGE('',*,*,#576,.T.);
#731=ORIENTED_EDGE('',*,*,#578,.F.);
#732=ORIENTED_EDGE('',*,*,#579,.F.);
#733=ORIENTED_EDGE('',*,*,#580,.F.);
#734=ORIENTED_EDGE('',*,*,#579,.T.);
#735=ORIENTED_EDGE('',*,*,#581,.F.);
#736=ORIENTED_EDGE('',*,*,#571,.F.);
#737=ORIENTED_EDGE('',*,*,#581,.T.);
#738=ORIENTED_EDGE('',*,*,#578,.T.);
#739=ORIENTED_EDGE('',*,*,#575,.T.);
#740=ORIENTED_EDGE('',*,*,#572,.T.);
#741=ORIENTED_EDGE('',*,*,#582,.T.);
#742=ORIENTED_EDGE('',*,*,#583,.T.);
#743=ORIENTED_EDGE('',*,*,#582,.F.);
#744=ORIENTED_EDGE('',*,*,#570,.T.);
#745=ORIENTED_EDGE('',*,*,#574,.T.);
#746=ORIENTED_EDGE('',*,*,#577,.T.);
#747=ORIENTED_EDGE('',*,*,#580,.T.);
#748=ORIENTED_EDGE('',*,*,#584,.F.);
#749=ORIENTED_EDGE('',*,*,#583,.F.);
#750=ORIENTED_EDGE('',*,*,#584,.T.);
#751=ORIENTED_EDGE('',*,*,#585,.F.);
#752=ORIENTED_EDGE('',*,*,#585,.T.);
#753=ORIENTED_EDGE('',*,*,#586,.F.);
#754=ORIENTED_EDGE('',*,*,#586,.T.);
#755=ORIENTED_EDGE('',*,*,#587,.F.);
#756=ORIENTED_EDGE('',*,*,#588,.T.);
#757=ORIENTED_EDGE('',*,*,#589,.T.);
#758=ORIENTED_EDGE('',*,*,#590,.F.);
#759=ORIENTED_EDGE('',*,*,#591,.F.);
#760=ORIENTED_EDGE('',*,*,#592,.F.);
#761=ORIENTED_EDGE('',*,*,#593,.T.);
#762=ORIENTED_EDGE('',*,*,#594,.F.);
#763=ORIENTED_EDGE('',*,*,#594,.T.);
#764=ORIENTED_EDGE('',*,*,#595,.T.);
#765=ORIENTED_EDGE('',*,*,#588,.F.);
#766=ORIENTED_EDGE('',*,*,#596,.F.);
#767=ORIENTED_EDGE('',*,*,#595,.F.);
#768=ORIENTED_EDGE('',*,*,#593,.F.);
#769=ORIENTED_EDGE('',*,*,#597,.F.);
#770=ORIENTED_EDGE('',*,*,#589,.F.);
#771=ORIENTED_EDGE('',*,*,#598,.F.);
#772=ORIENTED_EDGE('',*,*,#599,.F.);
#773=ORIENTED_EDGE('',*,*,#600,.F.);
#774=ORIENTED_EDGE('',*,*,#601,.T.);
#775=ORIENTED_EDGE('',*,*,#602,.F.);
#776=ORIENTED_EDGE('',*,*,#603,.F.);
#777=ORIENTED_EDGE('',*,*,#604,.T.);
#778=ORIENTED_EDGE('',*,*,#605,.T.);
#779=ORIENTED_EDGE('',*,*,#606,.F.);
#780=ORIENTED_EDGE('',*,*,#602,.T.);
#781=ORIENTED_EDGE('',*,*,#607,.T.);
#782=ORIENTED_EDGE('',*,*,#604,.F.);
#783=ORIENTED_EDGE('',*,*,#608,.F.);
#784=ORIENTED_EDGE('',*,*,#607,.F.);
#785=ORIENTED_EDGE('',*,*,#601,.F.);
#786=ORIENTED_EDGE('',*,*,#609,.F.);
#787=ORIENTED_EDGE('',*,*,#605,.F.);
#788=ORIENTED_EDGE('',*,*,#610,.F.);
#789=ORIENTED_EDGE('',*,*,#606,.T.);
#790=ORIENTED_EDGE('',*,*,#609,.T.);
#791=ORIENTED_EDGE('',*,*,#600,.T.);
#792=ORIENTED_EDGE('',*,*,#611,.F.);
#793=ORIENTED_EDGE('',*,*,#612,.F.);
#794=ORIENTED_EDGE('',*,*,#613,.T.);
#795=ORIENTED_EDGE('',*,*,#614,.T.);
#796=ORIENTED_EDGE('',*,*,#615,.T.);
#797=ORIENTED_EDGE('',*,*,#616,.T.);
#798=ORIENTED_EDGE('',*,*,#617,.T.);
#799=ORIENTED_EDGE('',*,*,#618,.F.);
#800=ORIENTED_EDGE('',*,*,#619,.F.);
#801=ORIENTED_EDGE('',*,*,#591,.T.);
#802=ORIENTED_EDGE('',*,*,#596,.T.);
#803=ORIENTED_EDGE('',*,*,#587,.T.);
#804=ORIENTED_EDGE('',*,*,#620,.T.);
#805=ORIENTED_EDGE('',*,*,#621,.F.);
#806=ORIENTED_EDGE('',*,*,#622,.T.);
#807=ORIENTED_EDGE('',*,*,#623,.F.);
#808=ORIENTED_EDGE('',*,*,#611,.T.);
#809=ORIENTED_EDGE('',*,*,#599,.T.);
#810=ORIENTED_EDGE('',*,*,#608,.T.);
#811=ORIENTED_EDGE('',*,*,#603,.T.);
#812=ORIENTED_EDGE('',*,*,#619,.T.);
#813=ORIENTED_EDGE('',*,*,#624,.F.);
#814=ORIENTED_EDGE('',*,*,#625,.T.);
#815=ORIENTED_EDGE('',*,*,#626,.F.);
#816=ORIENTED_EDGE('',*,*,#627,.T.);
#817=ORIENTED_EDGE('',*,*,#628,.T.);
#818=ORIENTED_EDGE('',*,*,#629,.T.);
#819=ORIENTED_EDGE('',*,*,#621,.T.);
#820=ORIENTED_EDGE('',*,*,#630,.T.);
#821=ORIENTED_EDGE('',*,*,#629,.F.);
#822=ORIENTED_EDGE('',*,*,#631,.F.);
#823=ORIENTED_EDGE('',*,*,#632,.T.);
#824=ORIENTED_EDGE('',*,*,#633,.T.);
#825=ORIENTED_EDGE('',*,*,#634,.T.);
#826=ORIENTED_EDGE('',*,*,#635,.T.);
#827=ORIENTED_EDGE('',*,*,#636,.F.);
#828=ORIENTED_EDGE('',*,*,#622,.F.);
#829=ORIENTED_EDGE('',*,*,#628,.F.);
#830=ORIENTED_EDGE('',*,*,#637,.T.);
#831=ORIENTED_EDGE('',*,*,#638,.T.);
#832=ORIENTED_EDGE('',*,*,#639,.T.);
#833=ORIENTED_EDGE('',*,*,#640,.T.);
#834=ORIENTED_EDGE('',*,*,#631,.T.);
#835=ORIENTED_EDGE('',*,*,#641,.T.);
#836=ORIENTED_EDGE('',*,*,#642,.T.);
#837=ORIENTED_EDGE('',*,*,#626,.T.);
#838=ORIENTED_EDGE('',*,*,#643,.T.);
#839=ORIENTED_EDGE('',*,*,#641,.F.);
#840=ORIENTED_EDGE('',*,*,#644,.T.);
#841=ORIENTED_EDGE('',*,*,#645,.T.);
#842=ORIENTED_EDGE('',*,*,#646,.T.);
#843=ORIENTED_EDGE('',*,*,#647,.T.);
#844=ORIENTED_EDGE('',*,*,#648,.T.);
#845=ORIENTED_EDGE('',*,*,#643,.F.);
#846=ORIENTED_EDGE('',*,*,#625,.F.);
#847=ORIENTED_EDGE('',*,*,#649,.F.);
#848=ORIENTED_EDGE('',*,*,#650,.T.);
#849=ORIENTED_EDGE('',*,*,#651,.T.);
#850=ORIENTED_EDGE('',*,*,#652,.T.);
#851=ORIENTED_EDGE('',*,*,#653,.T.);
#852=ORIENTED_EDGE('',*,*,#644,.F.);
#853=ORIENTED_EDGE('',*,*,#654,.T.);
#854=ORIENTED_EDGE('',*,*,#612,.T.);
#855=ORIENTED_EDGE('',*,*,#623,.T.);
#856=ORIENTED_EDGE('',*,*,#636,.T.);
#857=ORIENTED_EDGE('',*,*,#654,.F.);
#858=ORIENTED_EDGE('',*,*,#635,.F.);
#859=ORIENTED_EDGE('',*,*,#655,.F.);
#860=ORIENTED_EDGE('',*,*,#656,.F.);
#861=ORIENTED_EDGE('',*,*,#657,.F.);
#862=ORIENTED_EDGE('',*,*,#613,.F.);
#863=ORIENTED_EDGE('',*,*,#658,.T.);
#864=ORIENTED_EDGE('',*,*,#649,.T.);
#865=ORIENTED_EDGE('',*,*,#624,.T.);
#866=ORIENTED_EDGE('',*,*,#618,.T.);
#867=ORIENTED_EDGE('',*,*,#658,.F.);
#868=ORIENTED_EDGE('',*,*,#617,.F.);
#869=ORIENTED_EDGE('',*,*,#659,.F.);
#870=ORIENTED_EDGE('',*,*,#660,.F.);
#871=ORIENTED_EDGE('',*,*,#661,.F.);
#872=ORIENTED_EDGE('',*,*,#650,.F.);
#873=ORIENTED_EDGE('',*,*,#598,.T.);
#874=ORIENTED_EDGE('',*,*,#662,.F.);
#875=ORIENTED_EDGE('',*,*,#610,.T.);
#876=ORIENTED_EDGE('',*,*,#663,.F.);
#877=ORIENTED_EDGE('',*,*,#657,.T.);
#878=ORIENTED_EDGE('',*,*,#664,.F.);
#879=ORIENTED_EDGE('',*,*,#665,.T.);
#880=ORIENTED_EDGE('',*,*,#614,.F.);
#881=ORIENTED_EDGE('',*,*,#661,.T.);
#882=ORIENTED_EDGE('',*,*,#666,.T.);
#883=ORIENTED_EDGE('',*,*,#667,.T.);
#884=ORIENTED_EDGE('',*,*,#651,.F.);
#885=ORIENTED_EDGE('',*,*,#660,.T.);
#886=ORIENTED_EDGE('',*,*,#668,.T.);
#887=ORIENTED_EDGE('',*,*,#669,.T.);
#888=ORIENTED_EDGE('',*,*,#666,.F.);
#889=ORIENTED_EDGE('',*,*,#659,.T.);
#890=ORIENTED_EDGE('',*,*,#616,.F.);
#891=ORIENTED_EDGE('',*,*,#670,.T.);
#892=ORIENTED_EDGE('',*,*,#668,.F.);
#893=ORIENTED_EDGE('',*,*,#655,.T.);
#894=ORIENTED_EDGE('',*,*,#634,.F.);
#895=ORIENTED_EDGE('',*,*,#671,.T.);
#896=ORIENTED_EDGE('',*,*,#672,.T.);
#897=ORIENTED_EDGE('',*,*,#673,.F.);
#898=ORIENTED_EDGE('',*,*,#674,.F.);
#899=ORIENTED_EDGE('',*,*,#675,.F.);
#900=ORIENTED_EDGE('',*,*,#676,.F.);
#901=ORIENTED_EDGE('',*,*,#677,.F.);
#902=ORIENTED_EDGE('',*,*,#678,.F.);
#903=ORIENTED_EDGE('',*,*,#679,.F.);
#904=ORIENTED_EDGE('',*,*,#652,.F.);
#905=ORIENTED_EDGE('',*,*,#667,.F.);
#906=ORIENTED_EDGE('',*,*,#669,.F.);
#907=ORIENTED_EDGE('',*,*,#670,.F.);
#908=ORIENTED_EDGE('',*,*,#615,.F.);
#909=ORIENTED_EDGE('',*,*,#665,.F.);
#910=ORIENTED_EDGE('',*,*,#680,.F.);
#911=ORIENTED_EDGE('',*,*,#671,.F.);
#912=ORIENTED_EDGE('',*,*,#633,.F.);
#913=ORIENTED_EDGE('',*,*,#662,.T.);
#914=ORIENTED_EDGE('',*,*,#663,.T.);
#915=ORIENTED_EDGE('',*,*,#681,.T.);
#916=ORIENTED_EDGE('',*,*,#673,.T.);
#917=ORIENTED_EDGE('',*,*,#632,.F.);
#918=ORIENTED_EDGE('',*,*,#640,.F.);
#919=ORIENTED_EDGE('',*,*,#682,.T.);
#920=ORIENTED_EDGE('',*,*,#645,.F.);
#921=ORIENTED_EDGE('',*,*,#653,.F.);
#922=ORIENTED_EDGE('',*,*,#679,.T.);
#923=ORIENTED_EDGE('',*,*,#681,.F.);
#924=ORIENTED_EDGE('',*,*,#639,.F.);
#925=ORIENTED_EDGE('',*,*,#683,.T.);
#926=ORIENTED_EDGE('',*,*,#674,.T.);
#927=ORIENTED_EDGE('',*,*,#656,.T.);
#928=ORIENTED_EDGE('',*,*,#672,.F.);
#929=ORIENTED_EDGE('',*,*,#680,.T.);
#930=ORIENTED_EDGE('',*,*,#664,.T.);
#931=ORIENTED_EDGE('',*,*,#682,.F.);
#932=ORIENTED_EDGE('',*,*,#678,.T.);
#933=ORIENTED_EDGE('',*,*,#684,.T.);
#934=ORIENTED_EDGE('',*,*,#646,.F.);
#935=ORIENTED_EDGE('',*,*,#684,.F.);
#936=ORIENTED_EDGE('',*,*,#677,.T.);
#937=ORIENTED_EDGE('',*,*,#685,.F.);
#938=ORIENTED_EDGE('',*,*,#647,.F.);
#939=ORIENTED_EDGE('',*,*,#683,.F.);
#940=ORIENTED_EDGE('',*,*,#638,.F.);
#941=ORIENTED_EDGE('',*,*,#686,.F.);
#942=ORIENTED_EDGE('',*,*,#675,.T.);
#943=ORIENTED_EDGE('',*,*,#592,.T.);
#944=ORIENTED_EDGE('',*,*,#627,.F.);
#945=ORIENTED_EDGE('',*,*,#642,.F.);
#946=ORIENTED_EDGE('',*,*,#648,.F.);
#947=ORIENTED_EDGE('',*,*,#685,.T.);
#948=ORIENTED_EDGE('',*,*,#676,.T.);
#949=ORIENTED_EDGE('',*,*,#686,.T.);
#950=ORIENTED_EDGE('',*,*,#637,.F.);
#951=ORIENTED_EDGE('',*,*,#630,.F.);
#952=ORIENTED_EDGE('',*,*,#620,.F.);
#953=ORIENTED_EDGE('',*,*,#590,.T.);
#954=ORIENTED_EDGE('',*,*,#597,.T.);
#955=ORIENTED_EDGE('',*,*,#687,.T.);
#956=ORIENTED_EDGE('',*,*,#688,.T.);
#957=ORIENTED_EDGE('',*,*,#689,.T.);
#958=ORIENTED_EDGE('',*,*,#690,.T.);
#959=ORIENTED_EDGE('',*,*,#687,.F.);
#960=ORIENTED_EDGE('',*,*,#691,.T.);
#961=ORIENTED_EDGE('',*,*,#692,.T.);
#962=ORIENTED_EDGE('',*,*,#693,.F.);
#963=ORIENTED_EDGE('',*,*,#694,.F.);
#964=ORIENTED_EDGE('',*,*,#695,.T.);
#965=ORIENTED_EDGE('',*,*,#696,.T.);
#966=ORIENTED_EDGE('',*,*,#697,.T.);
#967=ORIENTED_EDGE('',*,*,#698,.T.);
#968=ORIENTED_EDGE('',*,*,#690,.F.);
#969=ORIENTED_EDGE('',*,*,#699,.F.);
#970=ORIENTED_EDGE('',*,*,#700,.T.);
#971=ORIENTED_EDGE('',*,*,#701,.F.);
#972=ORIENTED_EDGE('',*,*,#702,.F.);
#973=ORIENTED_EDGE('',*,*,#703,.F.);
#974=ORIENTED_EDGE('',*,*,#704,.T.);
#975=ORIENTED_EDGE('',*,*,#691,.F.);
#976=ORIENTED_EDGE('',*,*,#705,.F.);
#977=ORIENTED_EDGE('',*,*,#692,.F.);
#978=ORIENTED_EDGE('',*,*,#704,.F.);
#979=ORIENTED_EDGE('',*,*,#706,.F.);
#980=ORIENTED_EDGE('',*,*,#700,.F.);
#981=ORIENTED_EDGE('',*,*,#707,.F.);
#982=ORIENTED_EDGE('',*,*,#689,.F.);
#983=ORIENTED_EDGE('',*,*,#708,.T.);
#984=ORIENTED_EDGE('',*,*,#709,.T.);
#985=ORIENTED_EDGE('',*,*,#710,.T.);
#986=ORIENTED_EDGE('',*,*,#711,.T.);
#987=ORIENTED_EDGE('',*,*,#712,.F.);
#988=ORIENTED_EDGE('',*,*,#713,.F.);
#989=ORIENTED_EDGE('',*,*,#707,.T.);
#990=ORIENTED_EDGE('',*,*,#699,.T.);
#991=ORIENTED_EDGE('',*,*,#714,.F.);
#992=ORIENTED_EDGE('',*,*,#697,.F.);
#993=ORIENTED_EDGE('',*,*,#715,.F.);
#994=ORIENTED_EDGE('',*,*,#709,.F.);
#995=ORIENTED_EDGE('',*,*,#715,.T.);
#996=ORIENTED_EDGE('',*,*,#696,.F.);
#997=ORIENTED_EDGE('',*,*,#716,.F.);
#998=ORIENTED_EDGE('',*,*,#710,.F.);
#999=ORIENTED_EDGE('',*,*,#717,.F.);
#1000=ORIENTED_EDGE('',*,*,#711,.F.);
#1001=ORIENTED_EDGE('',*,*,#716,.T.);
#1002=ORIENTED_EDGE('',*,*,#695,.F.);
#1003=ORIENTED_EDGE('',*,*,#688,.F.);
#1004=ORIENTED_EDGE('',*,*,#698,.F.);
#1005=ORIENTED_EDGE('',*,*,#714,.T.);
#1006=ORIENTED_EDGE('',*,*,#708,.F.);
#1007=ORIENTED_EDGE('',*,*,#702,.T.);
#1008=ORIENTED_EDGE('',*,*,#718,.T.);
#1009=ORIENTED_EDGE('',*,*,#712,.T.);
#1010=ORIENTED_EDGE('',*,*,#717,.T.);
#1011=ORIENTED_EDGE('',*,*,#694,.T.);
#1012=ORIENTED_EDGE('',*,*,#719,.T.);
#1013=ORIENTED_EDGE('',*,*,#713,.T.);
#1014=ORIENTED_EDGE('',*,*,#719,.F.);
#1015=ORIENTED_EDGE('',*,*,#693,.T.);
#1016=ORIENTED_EDGE('',*,*,#705,.T.);
#1017=ORIENTED_EDGE('',*,*,#703,.T.);
#1018=ORIENTED_EDGE('',*,*,#718,.F.);
#1019=ORIENTED_EDGE('',*,*,#701,.T.);
#1020=ORIENTED_EDGE('',*,*,#706,.T.);
#1021=ORIENTED_EDGE('',*,*,#720,.T.);
#1022=ORIENTED_EDGE('',*,*,#720,.F.);
#1023=PLANE('',#1252);
#1024=PLANE('',#1253);
#1025=PLANE('',#1254);
#1026=PLANE('',#1255);
#1027=PLANE('',#1256);
#1028=PLANE('',#1260);
#1029=PLANE('',#1267);
#1030=PLANE('',#1269);
#1031=PLANE('',#1270);
#1032=PLANE('',#1274);
#1033=PLANE('',#1276);
#1034=PLANE('',#1277);
#1035=PLANE('',#1281);
#1036=PLANE('',#1283);
#1037=PLANE('',#1284);
#1038=PLANE('',#1289);
#1039=PLANE('',#1290);
#1040=PLANE('',#1294);
#1041=PLANE('',#1296);
#1042=PLANE('',#1297);
#1043=PLANE('',#1298);
#1044=PLANE('',#1300);
#1045=PLANE('',#1301);
#1046=PLANE('',#1307);
#1047=PLANE('',#1308);
#1048=PLANE('',#1311);
#1049=PLANE('',#1312);
#1050=PLANE('',#1313);
#1051=PLANE('',#1317);
#1052=PLANE('',#1318);
#1053=PLANE('',#1322);
#1054=PLANE('',#1323);
#1055=PLANE('',#1324);
#1056=PLANE('',#1329);
#1057=PLANE('',#1331);
#1058=PLANE('',#1333);
#1059=PLANE('',#1335);
#1060=PLANE('',#1337);
#1061=PLANE('',#1339);
#1062=PLANE('',#1340);
#1063=PLANE('',#1341);
#1064=PLANE('',#1343);
#1065=PLANE('',#1350);
#1066=STYLED_ITEM('',(#1223),#1124);
#1067=STYLED_ITEM('',(#1223),#1125);
#1068=STYLED_ITEM('',(#1223),#1126);
#1069=STYLED_ITEM('',(#1223),#1127);
#1070=STYLED_ITEM('',(#1223),#1128);
#1071=STYLED_ITEM('',(#1222),#35);
#1072=STYLED_ITEM('',(#1224),#1135);
#1073=STYLED_ITEM('',(#1224),#1136);
#1074=STYLED_ITEM('',(#1224),#1137);
#1075=STYLED_ITEM('',(#1224),#1138);
#1076=STYLED_ITEM('',(#1224),#1139);
#1077=STYLED_ITEM('',(#1224),#1140);
#1078=STYLED_ITEM('',(#1224),#1141);
#1079=STYLED_ITEM('',(#1224),#1142);
#1080=STYLED_ITEM('',(#1224),#1143);
#1081=STYLED_ITEM('',(#1224),#1144);
#1082=STYLED_ITEM('',(#1224),#1145);
#1083=STYLED_ITEM('',(#1224),#1146);
#1084=STYLED_ITEM('',(#1224),#1147);
#1085=STYLED_ITEM('',(#1224),#1148);
#1086=STYLED_ITEM('',(#1224),#1149);
#1087=STYLED_ITEM('',(#1224),#1150);
#1088=STYLED_ITEM('',(#1224),#1151);
#1089=STYLED_ITEM('',(#1224),#1152);
#1090=STYLED_ITEM('',(#1224),#1153);
#1091=STYLED_ITEM('',(#1224),#1154);
#1092=STYLED_ITEM('',(#1224),#1155);
#1093=STYLED_ITEM('',(#1224),#1156);
#1094=STYLED_ITEM('',(#1224),#1157);
#1095=STYLED_ITEM('',(#1224),#1158);
#1096=STYLED_ITEM('',(#1224),#1159);
#1097=STYLED_ITEM('',(#1224),#1160);
#1098=STYLED_ITEM('',(#1224),#1161);
#1099=STYLED_ITEM('',(#1224),#1162);
#1100=STYLED_ITEM('',(#1224),#1163);
#1101=STYLED_ITEM('',(#1224),#1164);
#1102=STYLED_ITEM('',(#1224),#1165);
#1103=STYLED_ITEM('',(#1224),#1166);
#1104=STYLED_ITEM('',(#1224),#1167);
#1105=STYLED_ITEM('',(#1224),#1168);
#1106=STYLED_ITEM('',(#1224),#1169);
#1107=STYLED_ITEM('',(#1224),#1170);
#1108=STYLED_ITEM('',(#1222),#36);
#1109=STYLED_ITEM('',(#1225),#1171);
#1110=STYLED_ITEM('',(#1225),#1172);
#1111=STYLED_ITEM('',(#1225),#1173);
#1112=STYLED_ITEM('',(#1225),#1174);
#1113=STYLED_ITEM('',(#1225),#1175);
#1114=STYLED_ITEM('',(#1225),#1176);
#1115=STYLED_ITEM('',(#1225),#1177);
#1116=STYLED_ITEM('',(#1225),#1178);
#1117=STYLED_ITEM('',(#1225),#1179);
#1118=STYLED_ITEM('',(#1225),#1180);
#1119=STYLED_ITEM('',(#1225),#1181);
#1120=STYLED_ITEM('',(#1225),#1182);
#1121=STYLED_ITEM('',(#1225),#1183);
#1122=STYLED_ITEM('',(#1225),#1184);
#1123=STYLED_ITEM('',(#1222),#37);
#1124=ADVANCED_FACE('',(#102),#1023,.T.);
#1125=ADVANCED_FACE('',(#103),#1024,.T.);
#1126=ADVANCED_FACE('',(#104),#1025,.T.);
#1127=ADVANCED_FACE('',(#105),#1026,.T.);
#1128=ADVANCED_FACE('',(#106),#1027,.T.);
#1129=ADVANCED_FACE('',(#107,#52),#100,.T.);
#1130=ADVANCED_FACE('',(#108,#53),#1028,.T.);
#1131=ADVANCED_FACE('',(#109,#54),#38,.T.);
#1132=ADVANCED_FACE('',(#110,#55),#101,.F.);
#1133=ADVANCED_FACE('',(#111,#56),#39,.T.);
#1134=ADVANCED_FACE('',(#112),#1029,.T.);
#1135=ADVANCED_FACE('',(#113),#1030,.F.);
#1136=ADVANCED_FACE('',(#114),#1031,.F.);
#1137=ADVANCED_FACE('',(#115),#40,.F.);
#1138=ADVANCED_FACE('',(#116,#57),#1032,.T.);
#1139=ADVANCED_FACE('',(#117),#1033,.F.);
#1140=ADVANCED_FACE('',(#118),#1034,.F.);
#1141=ADVANCED_FACE('',(#119),#41,.F.);
#1142=ADVANCED_FACE('',(#120,#58),#1035,.T.);
#1143=ADVANCED_FACE('',(#121),#1036,.T.);
#1144=ADVANCED_FACE('',(#122),#1037,.T.);
#1145=ADVANCED_FACE('',(#123),#42,.T.);
#1146=ADVANCED_FACE('',(#124),#1038,.T.);
#1147=ADVANCED_FACE('',(#125),#1039,.T.);
#1148=ADVANCED_FACE('',(#126),#43,.T.);
#1149=ADVANCED_FACE('',(#127),#1040,.T.);
#1150=ADVANCED_FACE('',(#128),#1041,.T.);
#1151=ADVANCED_FACE('',(#129),#1042,.T.);
#1152=ADVANCED_FACE('',(#130),#1043,.F.);
#1153=ADVANCED_FACE('',(#131),#1044,.T.);
#1154=ADVANCED_FACE('',(#132),#1045,.T.);
#1155=ADVANCED_FACE('',(#133,#59),#44,.F.);
#1156=ADVANCED_FACE('',(#134,#60),#45,.F.);
#1157=ADVANCED_FACE('',(#135),#1046,.F.);
#1158=ADVANCED_FACE('',(#136),#1047,.F.);
#1159=ADVANCED_FACE('',(#137),#46,.F.);
#1160=ADVANCED_FACE('',(#138),#1048,.F.);
#1161=ADVANCED_FACE('',(#139),#1049,.F.);
#1162=ADVANCED_FACE('',(#140,#61,#62),#1050,.F.);
#1163=ADVANCED_FACE('',(#141),#1051,.F.);
#1164=ADVANCED_FACE('',(#142),#1052,.F.);
#1165=ADVANCED_FACE('',(#143),#47,.F.);
#1166=ADVANCED_FACE('',(#144),#48,.F.);
#1167=ADVANCED_FACE('',(#145),#49,.F.);
#1168=ADVANCED_FACE('',(#146),#1053,.F.);
#1169=ADVANCED_FACE('',(#147),#1054,.F.);
#1170=ADVANCED_FACE('',(#148),#1055,.T.);
#1171=ADVANCED_FACE('',(#149),#50,.T.);
#1172=ADVANCED_FACE('',(#150),#1056,.T.);
#1173=ADVANCED_FACE('',(#151),#1057,.T.);
#1174=ADVANCED_FACE('',(#152),#1058,.T.);
#1175=ADVANCED_FACE('',(#153),#1059,.T.);
#1176=ADVANCED_FACE('',(#154),#1060,.T.);
#1177=ADVANCED_FACE('',(#155),#1061,.T.);
#1178=ADVANCED_FACE('',(#156),#1062,.T.);
#1179=ADVANCED_FACE('',(#157),#1063,.T.);
#1180=ADVANCED_FACE('',(#158),#1064,.T.);
#1181=ADVANCED_FACE('',(#159),#27,.T.);
#1182=ADVANCED_FACE('',(#160),#28,.T.);
#1183=ADVANCED_FACE('',(#161,#63),#51,.T.);
#1184=ADVANCED_FACE('',(#162),#1065,.T.);
#1185=CLOSED_SHELL('',(#1124,#1125,#1126,#1127,#1128,#1129,#1130,#1131,
#1132,#1133,#1134));
#1186=CLOSED_SHELL('',(#1135,#1136,#1137,#1138,#1139,#1140,#1141,#1142,
#1143,#1144,#1145,#1146,#1147,#1148,#1149,#1150,#1151,#1152,#1153,#1154,
#1155,#1156,#1157,#1158,#1159,#1160,#1161,#1162,#1163,#1164,#1165,#1166,
#1167,#1168,#1169,#1170));
#1187=CLOSED_SHELL('',(#1171,#1172,#1173,#1174,#1175,#1176,#1177,#1178,
#1179,#1180,#1181,#1182,#1183,#1184));
#1188=DERIVED_UNIT_ELEMENT(#1194,0.);
#1189=DERIVED_UNIT_ELEMENT(#2015,0.);
#1190=DERIVED_UNIT_ELEMENT(#1194,0.);
#1191=DERIVED_UNIT_ELEMENT(#2015,0.);
#1192=DERIVED_UNIT_ELEMENT(#1194,0.);
#1193=DERIVED_UNIT_ELEMENT(#2015,0.);
#1194=(
MASS_UNIT()
NAMED_UNIT(*)
SI_UNIT($,.GRAM.)
);
#1195=DERIVED_UNIT((#1188,#1189));
#1196=DERIVED_UNIT((#1190,#1191));
#1197=DERIVED_UNIT((#1192,#1193));
#1198=MEASURE_REPRESENTATION_ITEM('density measure',
POSITIVE_RATIO_MEASURE(1.),#1195);
#1199=MEASURE_REPRESENTATION_ITEM('density measure',
POSITIVE_RATIO_MEASURE(1.),#1196);
#1200=MEASURE_REPRESENTATION_ITEM('density measure',
POSITIVE_RATIO_MEASURE(1.),#1197);
#1201=PROPERTY_DEFINITION_REPRESENTATION(#1216,#1207);
#1202=PROPERTY_DEFINITION_REPRESENTATION(#1217,#1208);
#1203=PROPERTY_DEFINITION_REPRESENTATION(#1218,#1209);
#1204=PROPERTY_DEFINITION_REPRESENTATION(#1219,#1210);
#1205=PROPERTY_DEFINITION_REPRESENTATION(#1220,#1211);
#1206=PROPERTY_DEFINITION_REPRESENTATION(#1221,#1212);
#1207=REPRESENTATION('material name',(#1213),#2010);
#1208=REPRESENTATION('density',(#1198),#2010);
#1209=REPRESENTATION('material name',(#1214),#2011);
#1210=REPRESENTATION('density',(#1199),#2011);
#1211=REPRESENTATION('material name',(#1215),#2012);
#1212=REPRESENTATION('density',(#1200),#2012);
#1213=DESCRIPTIVE_REPRESENTATION_ITEM('\X2\4E00822C\X0\','\X2\4E00822C\X0\');
#1214=DESCRIPTIVE_REPRESENTATION_ITEM('\X2\4E00822C\X0\','\X2\4E00822C\X0\');
#1215=DESCRIPTIVE_REPRESENTATION_ITEM('\X2\4E00822C\X0\','\X2\4E00822C\X0\');
#1216=PROPERTY_DEFINITION('material property','material name',#2036);
#1217=PROPERTY_DEFINITION('material property','density of part',#2036);
#1218=PROPERTY_DEFINITION('material property','material name',#2037);
#1219=PROPERTY_DEFINITION('material property','density of part',#2037);
#1220=PROPERTY_DEFINITION('material property','material name',#2038);
#1221=PROPERTY_DEFINITION('material property','density of part',#2038);
#1222=PRESENTATION_STYLE_ASSIGNMENT((#1226));
#1223=PRESENTATION_STYLE_ASSIGNMENT((#1227));
#1224=PRESENTATION_STYLE_ASSIGNMENT((#1228));
#1225=PRESENTATION_STYLE_ASSIGNMENT((#1229));
#1226=SURFACE_STYLE_USAGE(.BOTH.,#1230);
#1227=SURFACE_STYLE_USAGE(.BOTH.,#1231);
#1228=SURFACE_STYLE_USAGE(.BOTH.,#1232);
#1229=SURFACE_STYLE_USAGE(.BOTH.,#1233);
#1230=SURFACE_SIDE_STYLE('',(#1234));
#1231=SURFACE_SIDE_STYLE('',(#1235));
#1232=SURFACE_SIDE_STYLE('',(#1236));
#1233=SURFACE_SIDE_STYLE('',(#1237));
#1234=SURFACE_STYLE_FILL_AREA(#1238);
#1235=SURFACE_STYLE_FILL_AREA(#1239);
#1236=SURFACE_STYLE_FILL_AREA(#1240);
#1237=SURFACE_STYLE_FILL_AREA(#1241);
#1238=FILL_AREA_STYLE('',(#1242));
#1239=FILL_AREA_STYLE('',(#1243));
#1240=FILL_AREA_STYLE('',(#1244));
#1241=FILL_AREA_STYLE('',(#1245));
#1242=FILL_AREA_STYLE_COLOUR('',#1246);
#1243=FILL_AREA_STYLE_COLOUR('',#1247);
#1244=FILL_AREA_STYLE_COLOUR('',#1248);
#1245=FILL_AREA_STYLE_COLOUR('',#1249);
#1246=COLOUR_RGB('',0.749019607843137,0.749019607843137,0.749019607843137);
#1247=COLOUR_RGB('',0.,0.,0.);
#1248=COLOUR_RGB('',0.0196078431372549,0.0196078431372549,0.0196078431372549);
#1249=COLOUR_RGB('',1.,0.996078431372549,0.964705882352941);
#1250=AXIS2_PLACEMENT_3D('placement',#1680,#1355,#1356);
#1251=AXIS2_PLACEMENT_3D('placement',#1681,#1357,#1358);
#1252=AXIS2_PLACEMENT_3D('',#1682,#1359,#1360);
#1253=AXIS2_PLACEMENT_3D('',#1691,#1365,#1366);
#1254=AXIS2_PLACEMENT_3D('',#1697,#1370,#1371);
#1255=AXIS2_PLACEMENT_3D('',#1703,#1375,#1376);
#1256=AXIS2_PLACEMENT_3D('',#1706,#1379,#1380);
#1257=AXIS2_PLACEMENT_3D('',#1707,#1381,#1382);
#1258=AXIS2_PLACEMENT_3D('',#1709,#1383,#1384);
#1259=AXIS2_PLACEMENT_3D('',#1711,#1385,#1386);
#1260=AXIS2_PLACEMENT_3D('',#1712,#1387,#1388);
#1261=AXIS2_PLACEMENT_3D('',#1713,#1389,#1390);
#1262=AXIS2_PLACEMENT_3D('',#1715,#1391,#1392);
#1263=AXIS2_PLACEMENT_3D('',#1716,#1393,#1394);
#1264=AXIS2_PLACEMENT_3D('',#1718,#1395,#1396);
#1265=AXIS2_PLACEMENT_3D('',#1719,#1397,#1398);
#1266=AXIS2_PLACEMENT_3D('',#1721,#1399,#1400);
#1267=AXIS2_PLACEMENT_3D('',#1722,#1401,#1402);
#1268=AXIS2_PLACEMENT_3D('placement',#1723,#1403,#1404);
#1269=AXIS2_PLACEMENT_3D('',#1724,#1405,#1406);
#1270=AXIS2_PLACEMENT_3D('',#1733,#1411,#1412);
#1271=AXIS2_PLACEMENT_3D('',#1742,#1417,#1418);
#1272=AXIS2_PLACEMENT_3D('',#1743,#1419,#1420);
#1273=AXIS2_PLACEMENT_3D('',#1744,#1421,#1422);
#1274=AXIS2_PLACEMENT_3D('',#1745,#1423,#1424);
#1275=AXIS2_PLACEMENT_3D('',#1748,#1426,#1427);
#1276=AXIS2_PLACEMENT_3D('',#1749,#1428,#1429);
#1277=AXIS2_PLACEMENT_3D('',#1758,#1434,#1435);
#1278=AXIS2_PLACEMENT_3D('',#1767,#1440,#1441);
#1279=AXIS2_PLACEMENT_3D('',#1768,#1442,#1443);
#1280=AXIS2_PLACEMENT_3D('',#1769,#1444,#1445);
#1281=AXIS2_PLACEMENT_3D('',#1770,#1446,#1447);
#1282=AXIS2_PLACEMENT_3D('',#1773,#1449,#1450);
#1283=AXIS2_PLACEMENT_3D('',#1774,#1451,#1452);
#1284=AXIS2_PLACEMENT_3D('',#1792,#1462,#1463);
#1285=AXIS2_PLACEMENT_3D('',#1796,#1465,#1466);
#1286=AXIS2_PLACEMENT_3D('',#1805,#1471,#1472);
#1287=AXIS2_PLACEMENT_3D('',#1807,#1474,#1475);
#1288=AXIS2_PLACEMENT_3D('',#1810,#1476,#1477);
#1289=AXIS2_PLACEMENT_3D('',#1813,#1480,#1481);
#1290=AXIS2_PLACEMENT_3D('',#1825,#1488,#1489);
#1291=AXIS2_PLACEMENT_3D('',#1831,#1492,#1493);
#1292=AXIS2_PLACEMENT_3D('',#1833,#1495,#1496);
#1293=AXIS2_PLACEMENT_3D('',#1836,#1497,#1498);
#1294=AXIS2_PLACEMENT_3D('',#1839,#1501,#1502);
#1295=AXIS2_PLACEMENT_3D('',#1845,#1505,#1506);
#1296=AXIS2_PLACEMENT_3D('',#1849,#1509,#1510);
#1297=AXIS2_PLACEMENT_3D('',#1859,#1516,#1517);
#1298=AXIS2_PLACEMENT_3D('',#1861,#1519,#1520);
#1299=AXIS2_PLACEMENT_3D('',#1865,#1522,#1523);
#1300=AXIS2_PLACEMENT_3D('',#1867,#1525,#1526);
#1301=AXIS2_PLACEMENT_3D('',#1869,#1528,#1529);
#1302=AXIS2_PLACEMENT_3D('',#1873,#1531,#1532);
#1303=AXIS2_PLACEMENT_3D('',#1875,#1534,#1535);
#1304=AXIS2_PLACEMENT_3D('',#1877,#1536,#1537);
#1305=AXIS2_PLACEMENT_3D('',#1878,#1538,#1539);
#1306=AXIS2_PLACEMENT_3D('',#1880,#1540,#1541);
#1307=AXIS2_PLACEMENT_3D('',#1881,#1542,#1543);
#1308=AXIS2_PLACEMENT_3D('',#1885,#1546,#1547);
#1309=AXIS2_PLACEMENT_3D('',#1889,#1550,#1551);
#1310=AXIS2_PLACEMENT_3D('',#1892,#1553,#1554);
#1311=AXIS2_PLACEMENT_3D('',#1893,#1555,#1556);
#1312=AXIS2_PLACEMENT_3D('',#1895,#1558,#1559);
#1313=AXIS2_PLACEMENT_3D('',#1899,#1562,#1563);
#1314=AXIS2_PLACEMENT_3D('',#1903,#1565,#1566);
#1315=AXIS2_PLACEMENT_3D('',#1911,#1570,#1571);
#1316=AXIS2_PLACEMENT_3D('',#1913,#1573,#1574);
#1317=AXIS2_PLACEMENT_3D('',#1914,#1575,#1576);
#1318=AXIS2_PLACEMENT_3D('',#1916,#1578,#1579);
#1319=AXIS2_PLACEMENT_3D('',#1918,#1581,#1582);
#1320=AXIS2_PLACEMENT_3D('',#1920,#1584,#1585);
#1321=AXIS2_PLACEMENT_3D('',#1921,#1586,#1587);
#1322=AXIS2_PLACEMENT_3D('',#1923,#1589,#1590);
#1323=AXIS2_PLACEMENT_3D('',#1925,#1592,#1593);
#1324=AXIS2_PLACEMENT_3D('',#1927,#1595,#1596);
#1325=AXIS2_PLACEMENT_3D('placement',#1928,#1597,#1598);
#1326=AXIS2_PLACEMENT_3D('',#1929,#1599,#1600);
#1327=AXIS2_PLACEMENT_3D('',#1932,#1601,#1602);
#1328=AXIS2_PLACEMENT_3D('',#1936,#1604,#1605);
#1329=AXIS2_PLACEMENT_3D('',#1938,#1607,#1608);
#1330=AXIS2_PLACEMENT_3D('',#1946,#1612,#1613);
#1331=AXIS2_PLACEMENT_3D('',#1954,#1618,#1619);
#1332=AXIS2_PLACEMENT_3D('',#1962,#1623,#1624);
#1333=AXIS2_PLACEMENT_3D('',#1966,#1627,#1628);
#1334=AXIS2_PLACEMENT_3D('',#1967,#1629,#1630);
#1335=AXIS2_PLACEMENT_3D('',#1968,#1631,#1632);
#1336=AXIS2_PLACEMENT_3D('',#1970,#1633,#1634);
#1337=AXIS2_PLACEMENT_3D('',#1972,#1636,#1637);
#1338=AXIS2_PLACEMENT_3D('',#1982,#1642,#1643);
#1339=AXIS2_PLACEMENT_3D('',#1984,#1645,#1646);
#1340=AXIS2_PLACEMENT_3D('',#1987,#1649,#1650);
#1341=AXIS2_PLACEMENT_3D('',#1989,#1652,#1653);
#1342=AXIS2_PLACEMENT_3D('',#1990,#1654,#1655);
#1343=AXIS2_PLACEMENT_3D('',#1991,#1656,#1657);
#1344=AXIS2_PLACEMENT_3D('',#1992,#1658,#1659);
#1345=AXIS2_PLACEMENT_3D('',#1993,#1660,#1661);
#1346=AXIS2_PLACEMENT_3D('',#1994,#1662,#1663);
#1347=AXIS2_PLACEMENT_3D('',#1995,#1664,#1665);
#1348=AXIS2_PLACEMENT_3D('',#1996,#1666,#1667);
#1349=AXIS2_PLACEMENT_3D('',#1998,#1668,#1669);
#1350=AXIS2_PLACEMENT_3D('',#1999,#1670,#1671);
#1351=AXIS2_PLACEMENT_3D('',#2000,#1672,#1673);
#1352=AXIS2_PLACEMENT_3D('',#2001,#1674,#1675);
#1353=AXIS2_PLACEMENT_3D('',#2002,#1676,#1677);
#1354=AXIS2_PLACEMENT_3D('',#2003,#1678,#1679);
#1355=DIRECTION('axis',(0.,0.,1.));
#1356=DIRECTION('refdir',(1.,0.,0.));
#1357=DIRECTION('axis',(0.,0.,1.));
#1358=DIRECTION('refdir',(1.,0.,0.));
#1359=DIRECTION('center_axis',(1.,0.,-5.55111512312578E-17));
#1360=DIRECTION('ref_axis',(-5.55111512312578E-17,-1.6049416203227E-32,
-1.));
#1361=DIRECTION('',(5.55111512312578E-17,1.6049416203227E-32,1.));
#1362=DIRECTION('',(0.,1.,0.));
#1363=DIRECTION('',(-5.55111512312578E-17,-1.6049416203227E-32,-1.));
#1364=DIRECTION('',(0.,1.,0.));
#1365=DIRECTION('center_axis',(0.,0.,1.));
#1366=DIRECTION('ref_axis',(1.,2.89120579329468E-16,0.));
#1367=DIRECTION('',(-1.,-2.89120579329468E-16,0.));
#1368=DIRECTION('',(1.,2.89120579329468E-16,0.));
#1369=DIRECTION('',(0.,1.,0.));
#1370=DIRECTION('center_axis',(-1.,0.,2.22044604925031E-16));
#1371=DIRECTION('ref_axis',(2.22044604925031E-16,6.41976648129079E-32,1.));
#1372=DIRECTION('',(-2.22044604925031E-16,-6.41976648129079E-32,-1.));
#1373=DIRECTION('',(2.22044604925031E-16,6.41976648129079E-32,1.));
#1374=DIRECTION('',(0.,1.,0.));
#1375=DIRECTION('center_axis',(0.,0.,-1.));
#1376=DIRECTION('ref_axis',(-1.,-2.89120579329468E-16,0.));
#1377=DIRECTION('',(1.,2.89120579329468E-16,0.));
#1378=DIRECTION('',(-1.,-2.89120579329468E-16,0.));
#1379=DIRECTION('center_axis',(0.,1.,0.));
#1380=DIRECTION('ref_axis',(0.,0.,1.));
#1381=DIRECTION('center_axis',(2.89120579329468E-16,-1.,0.));
#1382=DIRECTION('ref_axis',(0.,0.,-1.));
#1383=DIRECTION('center_axis',(2.89120579329468E-16,-1.,0.));
#1384=DIRECTION('ref_axis',(-1.,-2.89120579329468E-16,1.22464679914735E-16));
#1385=DIRECTION('center_axis',(-2.89120579329468E-16,1.,0.));
#1386=DIRECTION('ref_axis',(-1.,-2.91433543964104E-16,1.22464679914735E-16));
#1387=DIRECTION('center_axis',(-2.89120579329468E-16,1.,0.));
#1388=DIRECTION('ref_axis',(0.,0.,1.));
#1389=DIRECTION('center_axis',(2.89120579329468E-16,-1.,0.));
#1390=DIRECTION('ref_axis',(1.,0.,0.));
#1391=DIRECTION('center_axis',(2.89120579329468E-16,-1.,0.));
#1392=DIRECTION('ref_axis',(1.,2.89120579329468E-16,0.));
#1393=DIRECTION('center_axis',(2.89120579329468E-16,-1.,0.));
#1394=DIRECTION('ref_axis',(0.,0.,-1.));
#1395=DIRECTION('center_axis',(2.89120579329468E-16,-1.,0.));
#1396=DIRECTION('ref_axis',(1.,2.89120579329468E-16,0.));
#1397=DIRECTION('center_axis',(2.89120579329468E-16,-1.,0.));
#1398=DIRECTION('ref_axis',(1.,0.,0.));
#1399=DIRECTION('center_axis',(2.89120579329468E-16,-1.,0.));
#1400=DIRECTION('ref_axis',(1.,2.89120579329468E-16,0.));
#1401=DIRECTION('center_axis',(2.89120579329468E-16,-1.,0.));
#1402=DIRECTION('ref_axis',(0.,0.,-1.));
#1403=DIRECTION('axis',(0.,0.,1.));
#1404=DIRECTION('refdir',(1.,0.,0.));
#1405=DIRECTION('center_axis',(-3.37893964016352E-16,0.,-1.));
#1406=DIRECTION('ref_axis',(-1.,0.,3.37893964016352E-16));
#1407=DIRECTION('',(-1.,0.,3.37893964016352E-16));
#1408=DIRECTION('',(0.,1.,0.));
#1409=DIRECTION('',(-1.,0.,3.37893964016352E-16));
#1410=DIRECTION('',(0.,1.,0.));
#1411=DIRECTION('center_axis',(3.37893964016352E-16,0.,1.));
#1412=DIRECTION('ref_axis',(1.,0.,-3.37893964016352E-16));
#1413=DIRECTION('',(1.,0.,-3.37893964016352E-16));
#1414=DIRECTION('',(0.,-1.,0.));
#1415=DIRECTION('',(1.,0.,-3.37893964016352E-16));
#1416=DIRECTION('',(0.,1.,0.));
#1417=DIRECTION('center_axis',(0.,1.,0.));
#1418=DIRECTION('ref_axis',(1.,0.,0.));
#1419=DIRECTION('center_axis',(0.,1.,0.));
#1420=DIRECTION('ref_axis',(1.,0.,0.));
#1421=DIRECTION('center_axis',(0.,1.,0.));
#1422=DIRECTION('ref_axis',(1.,0.,0.));
#1423=DIRECTION('center_axis',(0.,-1.,0.));
#1424=DIRECTION('ref_axis',(0.,0.,-1.));
#1425=DIRECTION('',(3.23365929502473E-16,0.,1.));
#1426=DIRECTION('center_axis',(0.,-1.,0.));
#1427=DIRECTION('ref_axis',(1.,0.,0.));
#1428=DIRECTION('center_axis',(-1.93082265152201E-16,0.,-1.));
#1429=DIRECTION('ref_axis',(-1.,0.,1.93082265152201E-16));
#1430=DIRECTION('',(-1.,0.,1.93082265152201E-16));
#1431=DIRECTION('',(0.,-1.,0.));
#1432=DIRECTION('',(-1.,0.,1.93082265152201E-16));
#1433=DIRECTION('',(0.,1.,0.));
#1434=DIRECTION('center_axis',(4.82705662880503E-17,0.,1.));
#1435=DIRECTION('ref_axis',(1.,0.,-4.82705662880503E-17));
#1436=DIRECTION('',(1.,0.,-4.82705662880503E-17));
#1437=DIRECTION('',(0.,1.,0.));
#1438=DIRECTION('',(1.,0.,-4.82705662880503E-17));
#1439=DIRECTION('',(0.,1.,0.));
#1440=DIRECTION('center_axis',(0.,1.,0.));
#1441=DIRECTION('ref_axis',(1.,0.,0.));
#1442=DIRECTION('center_axis',(0.,1.,0.));
#1443=DIRECTION('ref_axis',(1.,0.,0.));
#1444=DIRECTION('center_axis',(0.,1.,0.));
#1445=DIRECTION('ref_axis',(1.,0.,0.));
#1446=DIRECTION('center_axis',(0.,-1.,0.));
#1447=DIRECTION('ref_axis',(0.,0.,-1.));
#1448=DIRECTION('',(-1.07788643167491E-16,0.,-1.));
#1449=DIRECTION('center_axis',(0.,-1.,0.));
#1450=DIRECTION('ref_axis',(1.,0.,0.));
#1451=DIRECTION('center_axis',(1.,0.,-1.07788643167491E-16));
#1452=DIRECTION('ref_axis',(-1.07788643167491E-16,0.,-1.));
#1453=DIRECTION('',(1.07788643167491E-16,0.,1.));
#1454=DIRECTION('',(0.,-1.,0.));
#1455=DIRECTION('',(1.07788643167491E-16,0.,1.));
#1456=DIRECTION('',(0.,-1.,0.));
#1457=DIRECTION('',(1.07788643167491E-16,0.,1.));
#1458=DIRECTION('',(0.,1.,0.));
#1459=DIRECTION('',(1.07788643167491E-16,0.,1.));
#1460=DIRECTION('',(0.,1.,0.));
#1461=DIRECTION('',(1.07788643167491E-16,0.,1.));
#1462=DIRECTION('center_axis',(0.,-1.,0.));
#1463=DIRECTION('ref_axis',(0.,0.,-1.));
#1464=DIRECTION('',(-3.23365929502473E-16,0.,-1.));
#1465=DIRECTION('center_axis',(0.,1.,0.));
#1466=DIRECTION('ref_axis',(-0.707106781186548,0.,-0.707106781186547));
#1467=DIRECTION('',(1.,0.,-1.07788643167491E-16));
#1468=DIRECTION('',(-0.707106781186547,0.,-0.707106781186548));
#1469=DIRECTION('',(0.707106781186548,0.,-0.707106781186547));
#1470=DIRECTION('',(-1.,0.,1.07788643167491E-16));
#1471=DIRECTION('center_axis',(0.,1.,0.));
#1472=DIRECTION('ref_axis',(-0.707106781186547,0.,0.707106781186548));
#1473=DIRECTION('',(-3.23365929502473E-16,0.,-1.));
#1474=DIRECTION('center_axis',(0.,1.,0.));
#1475=DIRECTION('ref_axis',(-0.707106781186548,0.,-0.707106781186547));
#1476=DIRECTION('center_axis',(0.,-1.,0.));
#1477=DIRECTION('ref_axis',(-0.707106781186548,0.,-0.707106781186547));
#1478=DIRECTION('',(0.,-1.,0.));
#1479=DIRECTION('',(0.,1.,0.));
#1480=DIRECTION('center_axis',(-1.07788643167491E-16,0.,-1.));
#1481=DIRECTION('ref_axis',(-1.,0.,1.07788643167491E-16));
#1482=DIRECTION('',(-1.,0.,1.07788643167491E-16));
#1483=DIRECTION('',(0.,-1.,0.));
#1484=DIRECTION('',(1.,0.,-1.07788643167491E-16));
#1485=DIRECTION('',(0.,1.,0.));
#1486=DIRECTION('',(1.,0.,-1.07788643167491E-16));
#1487=DIRECTION('',(0.,1.,0.));
#1488=DIRECTION('center_axis',(0.,1.,0.));
#1489=DIRECTION('ref_axis',(0.,0.,1.));
#1490=DIRECTION('',(3.23365929502473E-16,0.,1.));
#1491=DIRECTION('',(1.,0.,0.));
#1492=DIRECTION('center_axis',(0.,-1.,0.));
#1493=DIRECTION('ref_axis',(-1.,0.,0.));
#1494=DIRECTION('',(-1.88630125543109E-16,0.,-1.));
#1495=DIRECTION('center_axis',(0.,1.,0.));
#1496=DIRECTION('ref_axis',(-0.707106781186547,0.,0.707106781186548));
#1497=DIRECTION('center_axis',(0.,-1.,0.));
#1498=DIRECTION('ref_axis',(-0.707106781186547,0.,0.707106781186548));
#1499=DIRECTION('',(0.,-1.,0.));
#1500=DIRECTION('',(0.,1.,0.));
#1501=DIRECTION('center_axis',(0.,1.,0.));
#1502=DIRECTION('ref_axis',(0.,0.,1.));
#1503=DIRECTION('',(1.,0.,-1.07788643167491E-16));
#1504=DIRECTION('',(-1.88630125543109E-16,0.,-1.));
#1505=DIRECTION('center_axis',(0.,-1.,0.));
#1506=DIRECTION('ref_axis',(-1.,0.,0.));
#1507=DIRECTION('',(-1.,0.,1.07788643167491E-16));
#1508=DIRECTION('',(3.23365929502473E-16,0.,1.));
#1509=DIRECTION('center_axis',(1.07788643167491E-16,0.,1.));
#1510=DIRECTION('ref_axis',(1.,0.,-1.07788643167491E-16));
#1511=DIRECTION('',(0.,-1.,0.));
#1512=DIRECTION('',(-1.,0.,1.07788643167491E-16));
#1513=DIRECTION('',(0.,-1.,0.));
#1514=DIRECTION('',(-1.,0.,1.07788643167491E-16));
#1515=DIRECTION('',(0.,1.,0.));
#1516=DIRECTION('center_axis',(0.707106781186548,0.,-0.707106781186547));
#1517=DIRECTION('ref_axis',(-0.707106781186547,0.,-0.707106781186548));
#1518=DIRECTION('',(0.707106781186547,0.,0.707106781186548));
#1519=DIRECTION('center_axis',(0.,-1.,0.));
#1520=DIRECTION('ref_axis',(0.,0.,-1.));
#1521=DIRECTION('',(-2.69471607918727E-17,0.,-1.));
#1522=DIRECTION('center_axis',(0.,1.,0.));
#1523=DIRECTION('ref_axis',(-1.,0.,0.));
#1524=DIRECTION('',(-1.,0.,0.));
#1525=DIRECTION('center_axis',(0.707106781186547,0.,0.707106781186548));
#1526=DIRECTION('ref_axis',(0.707106781186548,0.,-0.707106781186547));
#1527=DIRECTION('',(-0.707106781186548,0.,0.707106781186547));
#1528=DIRECTION('center_axis',(0.,1.,0.));
#1529=DIRECTION('ref_axis',(0.,0.,1.));
#1530=DIRECTION('',(1.,0.,-1.07788643167491E-16));
#1531=DIRECTION('center_axis',(0.,1.,0.));
#1532=DIRECTION('ref_axis',(-1.,0.,0.));
#1533=DIRECTION('',(-2.69471607918727E-17,0.,-1.));
#1534=DIRECTION('center_axis',(0.,1.,0.));
#1535=DIRECTION('ref_axis',(1.,0.,0.));
#1536=DIRECTION('center_axis',(0.,-1.,0.));
#1537=DIRECTION('ref_axis',(1.,0.,0.));
#1538=DIRECTION('center_axis',(0.,1.,0.));
#1539=DIRECTION('ref_axis',(1.,0.,0.));
#1540=DIRECTION('center_axis',(0.,-1.,0.));
#1541=DIRECTION('ref_axis',(1.,0.,0.));
#1542=DIRECTION('center_axis',(0.,0.,-1.));
#1543=DIRECTION('ref_axis',(1.,0.,0.));
#1544=DIRECTION('',(0.,1.,0.));
#1545=DIRECTION('',(1.,0.,0.));
#1546=DIRECTION('center_axis',(1.,0.,-2.69471607918727E-17));
#1547=DIRECTION('ref_axis',(2.69471607918727E-17,0.,1.));
#1548=DIRECTION('',(0.,-1.,0.));
#1549=DIRECTION('',(2.69471607918727E-17,0.,1.));
#1550=DIRECTION('center_axis',(0.,-1.,0.));
#1551=DIRECTION('ref_axis',(-1.,0.,0.));
#1552=DIRECTION('',(0.,-1.,0.));
#1553=DIRECTION('center_axis',(0.,-1.,0.));
#1554=DIRECTION('ref_axis',(-1.,0.,0.));
#1555=DIRECTION('center_axis',(1.07788643167491E-16,0.,1.));
#1556=DIRECTION('ref_axis',(-1.,0.,1.07788643167491E-16));
#1557=DIRECTION('',(-1.,0.,1.07788643167491E-16));
#1558=DIRECTION('center_axis',(1.,0.,-2.69471607918727E-17));
#1559=DIRECTION('ref_axis',(2.69471607918727E-17,0.,1.));
#1560=DIRECTION('',(2.69471607918727E-17,0.,1.));
#1561=DIRECTION('',(0.,1.,0.));
#1562=DIRECTION('center_axis',(0.,-1.,0.));
#1563=DIRECTION('ref_axis',(0.,0.,-1.));
#1564=DIRECTION('',(-1.88630125543109E-16,0.,-1.));
#1565=DIRECTION('center_axis',(0.,-1.,0.));
#1566=DIRECTION('ref_axis',(-1.,0.,0.));
#1567=DIRECTION('',(1.,0.,0.));
#1568=DIRECTION('',(-3.23365929502473E-16,0.,-1.));
#1569=DIRECTION('',(-1.,0.,1.07788643167491E-16));
#1570=DIRECTION('center_axis',(0.,-1.,0.));
#1571=DIRECTION('ref_axis',(-1.,0.,0.));
#1572=DIRECTION('',(-1.88630125543109E-16,0.,-1.));
#1573=DIRECTION('center_axis',(0.,-1.,0.));
#1574=DIRECTION('ref_axis',(-1.,0.,0.));
#1575=DIRECTION('center_axis',(-1.,0.,1.88630125543109E-16));
#1576=DIRECTION('ref_axis',(-1.88630125543109E-16,0.,-1.));
#1577=DIRECTION('',(0.,-1.,0.));
#1578=DIRECTION('center_axis',(-1.,0.,1.88630125543109E-16));
#1579=DIRECTION('ref_axis',(-1.88630125543109E-16,0.,-1.));
#1580=DIRECTION('',(0.,1.,0.));
#1581=DIRECTION('center_axis',(0.,-1.,0.));
#1582=DIRECTION('ref_axis',(-1.,0.,0.));
#1583=DIRECTION('',(0.,-1.,0.));
#1584=DIRECTION('center_axis',(0.,-1.,0.));
#1585=DIRECTION('ref_axis',(-1.,0.,0.));
#1586=DIRECTION('center_axis',(0.,-1.,0.));
#1587=DIRECTION('ref_axis',(-1.,0.,0.));
#1588=DIRECTION('',(0.,1.,0.));
#1589=DIRECTION('center_axis',(1.07788643167491E-16,0.,1.));
#1590=DIRECTION('ref_axis',(-1.,0.,1.07788643167491E-16));
#1591=DIRECTION('',(0.,-1.,0.));
#1592=DIRECTION('center_axis',(0.,0.,-1.));
#1593=DIRECTION('ref_axis',(1.,0.,0.));
#1594=DIRECTION('',(0.,1.,0.));
#1595=DIRECTION('center_axis',(-1.,0.,3.23365929502473E-16));
#1596=DIRECTION('ref_axis',(3.23365929502473E-16,0.,1.));
#1597=DIRECTION('axis',(0.,0.,1.));
#1598=DIRECTION('refdir',(1.,0.,0.));
#1599=DIRECTION('center_axis',(0.,0.,1.));
#1600=DIRECTION('ref_axis',(0.707106781186547,-0.707106781186547,0.));
#1601=DIRECTION('center_axis',(0.,0.,-1.));
#1602=DIRECTION('ref_axis',(0.707106781186547,-0.707106781186547,0.));
#1603=DIRECTION('',(0.,0.,-1.));
#1604=DIRECTION('center_axis',(0.,0.,1.));
#1605=DIRECTION('ref_axis',(0.707106781186547,-0.707106781186547,0.));
#1606=DIRECTION('',(0.,0.,1.));
#1607=DIRECTION('center_axis',(0.,0.,1.));
#1608=DIRECTION('ref_axis',(1.,0.,0.));
#1609=DIRECTION('',(-3.70074341541719E-16,1.,0.));
#1610=DIRECTION('',(-1.,-4.20539024479226E-16,0.));
#1611=DIRECTION('',(0.,1.,0.));
#1612=DIRECTION('center_axis',(0.,0.,1.));
#1613=DIRECTION('ref_axis',(0.,1.,0.));
#1614=DIRECTION('',(5.33761069531327E-16,-1.,0.));
#1615=DIRECTION('',(-1.,-6.12899146086443E-16,0.));
#1616=DIRECTION('',(0.,-1.,0.));
#1617=DIRECTION('',(1.,0.,0.));
#1618=DIRECTION('center_axis',(1.,3.70074341541719E-16,0.));
#1619=DIRECTION('ref_axis',(-3.70074341541719E-16,1.,0.));
#1620=DIRECTION('',(3.70074341541719E-16,-1.,0.));
#1621=DIRECTION('',(0.,0.,1.));
#1622=DIRECTION('',(0.,1.,0.));
#1623=DIRECTION('center_axis',(1.,3.70074341541719E-16,0.));
#1624=DIRECTION('ref_axis',(0.,0.,1.));
#1625=DIRECTION('',(0.,-1.,0.));
#1626=DIRECTION('',(0.,0.,1.));
#1627=DIRECTION('center_axis',(-4.20539024479226E-16,1.,0.));
#1628=DIRECTION('ref_axis',(-1.,-4.20539024479226E-16,0.));
#1629=DIRECTION('center_axis',(-4.20539024479226E-16,1.,0.));
#1630=DIRECTION('ref_axis',(1.,0.,0.));
#1631=DIRECTION('center_axis',(-4.20539024479226E-16,1.,0.));
#1632=DIRECTION('ref_axis',(-1.,-4.20539024479226E-16,0.));
#1633=DIRECTION('center_axis',(-4.20539024479226E-16,1.,0.));
#1634=DIRECTION('ref_axis',(1.,0.,0.));
#1635=DIRECTION('',(1.,4.20539024479226E-16,0.));
#1636=DIRECTION('center_axis',(0.,0.,-1.));
#1637=DIRECTION('ref_axis',(-1.,0.,0.));
#1638=DIRECTION('',(-1.,0.,0.));
#1639=DIRECTION('',(0.,1.,0.));
#1640=DIRECTION('',(1.,6.12899146086443E-16,0.));
#1641=DIRECTION('',(-5.33761069531327E-16,1.,0.));
#1642=DIRECTION('center_axis',(0.,0.,-1.));
#1643=DIRECTION('ref_axis',(0.,-1.,0.));
#1644=DIRECTION('',(0.,-1.,0.));
#1645=DIRECTION('center_axis',(-1.,0.,0.));
#1646=DIRECTION('ref_axis',(0.,-1.,0.));
#1647=DIRECTION('',(0.,0.,-1.));
#1648=DIRECTION('',(0.,0.,1.));
#1649=DIRECTION('center_axis',(-6.12899146086443E-16,1.,0.));
#1650=DIRECTION('ref_axis',(-1.,-6.12899146086443E-16,0.));
#1651=DIRECTION('',(0.,0.,1.));
#1652=DIRECTION('center_axis',(-1.,-5.33761069531327E-16,0.));
#1653=DIRECTION('ref_axis',(5.33761069531327E-16,-1.,0.));
#1654=DIRECTION('center_axis',(-1.,-5.33761069531327E-16,0.));
#1655=DIRECTION('ref_axis',(0.,0.,-1.));
#1656=DIRECTION('center_axis',(0.,-1.,0.));
#1657=DIRECTION('ref_axis',(1.,0.,0.));
#1658=DIRECTION('center_axis',(0.,1.,-6.12323399573677E-17));
#1659=DIRECTION('ref_axis',(0.,0.,-1.));
#1660=DIRECTION('center_axis',(0.,-1.,0.));
#1661=DIRECTION('ref_axis',(1.,0.,0.));
#1662=DIRECTION('center_axis',(0.,1.,-6.12323399573677E-17));
#1663=DIRECTION('ref_axis',(0.,0.,-1.));
#1664=DIRECTION('center_axis',(0.,-1.,0.));
#1665=DIRECTION('ref_axis',(1.,0.,0.));
#1666=DIRECTION('center_axis',(0.,-1.,0.));
#1667=DIRECTION('ref_axis',(1.,0.,0.));
#1668=DIRECTION('center_axis',(0.,-1.,0.));
#1669=DIRECTION('ref_axis',(1.,0.,0.));
#1670=DIRECTION('center_axis',(0.,1.,0.));
#1671=DIRECTION('ref_axis',(0.,0.,1.));
#1672=DIRECTION('',(0.,0.,1.));
#1673=DIRECTION('',(1.,0.,0.));
#1674=DIRECTION('',(0.,0.,1.));
#1675=DIRECTION('',(1.,0.,0.));
#1676=DIRECTION('',(-3.42113882891801E-49,2.38821211146231E-50,1.));
#1677=DIRECTION('',(1.,-1.57038407166385E-17,3.42113882891801E-49));
#1678=DIRECTION('',(7.51975404762761E-32,-3.01149496783035E-16,-1.));
#1679=DIRECTION('',(-1.,-2.49701697261851E-16,0.));
#1680=CARTESIAN_POINT('',(0.,0.,0.));
#1681=CARTESIAN_POINT('',(0.,0.,0.));
#1682=CARTESIAN_POINT('Origin',(-2.,11.52,2.5));
#1683=CARTESIAN_POINT('',(-2.,11.52,-2.5));
#1684=CARTESIAN_POINT('',(-2.,11.52,2.5));
#1685=CARTESIAN_POINT('',(-2.,11.52,1.25));
#1686=CARTESIAN_POINT('',(-2.,11.521,-2.5));
#1687=CARTESIAN_POINT('',(-2.,11.52,-2.5));
#1688=CARTESIAN_POINT('',(-2.,11.521,2.5));
#1689=CARTESIAN_POINT('',(-2.,11.521,-2.5));
#1690=CARTESIAN_POINT('',(-2.,11.52,2.5));
#1691=CARTESIAN_POINT('Origin',(-3.2,11.52,2.5));
#1692=CARTESIAN_POINT('',(-3.2,11.52,2.5));
#1693=CARTESIAN_POINT('',(0.899999999999999,11.52,2.5));
#1694=CARTESIAN_POINT('',(-3.2,11.521,2.5));
#1695=CARTESIAN_POINT('',(-2.,11.521,2.5));
#1696=CARTESIAN_POINT('',(-3.2,11.52,2.5));
#1697=CARTESIAN_POINT('Origin',(-3.2,11.52,-2.5));
#1698=CARTESIAN_POINT('',(-3.2,11.52,-2.5));
#1699=CARTESIAN_POINT('',(-3.2,11.52,-1.25));
#1700=CARTESIAN_POINT('',(-3.2,11.521,-2.5));
#1701=CARTESIAN_POINT('',(-3.2,11.521,2.5));
#1702=CARTESIAN_POINT('',(-3.2,11.52,-2.5));
#1703=CARTESIAN_POINT('Origin',(-2.,11.52,-2.5));
#1704=CARTESIAN_POINT('',(1.5,11.52,-2.5));
#1705=CARTESIAN_POINT('',(-3.2,11.521,-2.5));
#1706=CARTESIAN_POINT('Origin',(-2.6,11.521,-2.77555756156289E-16));
#1707=CARTESIAN_POINT('Origin',(-3.18610878421074E-15,11.02,0.));
#1708=CARTESIAN_POINT('',(4.5,11.52,0.));
#1709=CARTESIAN_POINT('Origin',(-3.33066907387547E-15,11.52,0.));
#1710=CARTESIAN_POINT('',(5.,11.02,-1.22464679914735E-15));
#1711=CARTESIAN_POINT('Origin',(-3.18610878421074E-15,11.02,0.));
#1712=CARTESIAN_POINT('Origin',(5.,11.52,0.));
#1713=CARTESIAN_POINT('Origin',(-2.00071440895992E-15,6.92,0.));
#1714=CARTESIAN_POINT('',(5.,2.32,0.));
#1715=CARTESIAN_POINT('Origin',(-6.70759744044365E-16,2.32,0.));
#1716=CARTESIAN_POINT('Origin',(-4.85722573273505E-16,1.68,0.));
#1717=CARTESIAN_POINT('',(5.,1.04,0.));
#1718=CARTESIAN_POINT('Origin',(-3.00685402502646E-16,1.04,0.));
#1719=CARTESIAN_POINT('Origin',(-1.50342701251323E-16,0.519999999999999,
0.));
#1720=CARTESIAN_POINT('',(5.,0.,0.));
#1721=CARTESIAN_POINT('Origin',(4.17953546959036E-31,-1.44560289664734E-15,
0.));
#1722=CARTESIAN_POINT('Origin',(0.,0.,0.));
#1723=CARTESIAN_POINT('',(0.,0.,0.));
#1724=CARTESIAN_POINT('Origin',(-2.275,0.,-1.1));
#1725=CARTESIAN_POINT('',(-2.275,0.,-1.1));
#1726=CARTESIAN_POINT('',(-5.15,0.,-1.1));
#1727=CARTESIAN_POINT('',(-1.1375,0.,-1.1));
#1728=CARTESIAN_POINT('',(-2.275,0.33,-1.1));
#1729=CARTESIAN_POINT('',(-2.275,0.,-1.1));
#1730=CARTESIAN_POINT('',(-5.15,0.33,-1.1));
#1731=CARTESIAN_POINT('',(-5.15,0.33,-1.1));
#1732=CARTESIAN_POINT('',(-5.15,0.,-1.1));
#1733=CARTESIAN_POINT('Origin',(-5.15,0.,1.1));
#1734=CARTESIAN_POINT('',(-5.15,0.,1.1));
#1735=CARTESIAN_POINT('',(-2.275,0.,1.1));
#1736=CARTESIAN_POINT('',(-2.575,0.,1.1));
#1737=CARTESIAN_POINT('',(-5.15,0.33,1.1));
#1738=CARTESIAN_POINT('',(-5.15,0.,1.1));
#1739=CARTESIAN_POINT('',(-2.275,0.33,1.1));
#1740=CARTESIAN_POINT('',(-2.275,0.33,1.1));
#1741=CARTESIAN_POINT('',(-2.275,0.,1.1));
#1742=CARTESIAN_POINT('Origin',(-2.275,0.,0.));
#1743=CARTESIAN_POINT('Origin',(-2.275,0.33,0.));
#1744=CARTESIAN_POINT('Origin',(-2.275,0.,0.));
#1745=CARTESIAN_POINT('Origin',(-2.275,0.33,1.74307268243111E-17));
#1746=CARTESIAN_POINT('',(-5.15,0.33,-2.575));
#1747=CARTESIAN_POINT('',(-1.575,0.33,8.57252759403147E-17));
#1748=CARTESIAN_POINT('Origin',(-2.275,0.329999999999999,0.));
#1749=CARTESIAN_POINT('Origin',(5.15,0.,-1.1));
#1750=CARTESIAN_POINT('',(5.15,0.,-1.1));
#1751=CARTESIAN_POINT('',(2.275,0.,-1.1));
#1752=CARTESIAN_POINT('',(2.575,0.,-1.1));
#1753=CARTESIAN_POINT('',(5.15,0.33,-1.1));
#1754=CARTESIAN_POINT('',(5.15,0.,-1.1));
#1755=CARTESIAN_POINT('',(2.275,0.33,-1.1));
#1756=CARTESIAN_POINT('',(2.275,0.33,-1.1));
#1757=CARTESIAN_POINT('',(2.275,0.,-1.1));
#1758=CARTESIAN_POINT('Origin',(2.275,0.,1.1));
#1759=CARTESIAN_POINT('',(2.275,0.,1.1));
#1760=CARTESIAN_POINT('',(5.15,0.,1.1));
#1761=CARTESIAN_POINT('',(1.1375,0.,1.1));
#1762=CARTESIAN_POINT('',(2.275,0.33,1.1));
#1763=CARTESIAN_POINT('',(2.275,0.,1.1));
#1764=CARTESIAN_POINT('',(5.15,0.33,1.1));
#1765=CARTESIAN_POINT('',(5.15,0.33,1.1));
#1766=CARTESIAN_POINT('',(5.15,0.,1.1));
#1767=CARTESIAN_POINT('Origin',(2.275,0.,0.));
#1768=CARTESIAN_POINT('Origin',(2.275,0.33,0.));
#1769=CARTESIAN_POINT('Origin',(2.275,0.,0.));
#1770=CARTESIAN_POINT('Origin',(2.275,0.33,7.57434343807926E-18));
#1771=CARTESIAN_POINT('',(5.15,0.33,2.575));
#1772=CARTESIAN_POINT('',(2.975,0.33,8.57252759403147E-17));
#1773=CARTESIAN_POINT('Origin',(2.275,0.329999999999999,0.));
#1774=CARTESIAN_POINT('Origin',(5.15,0.,5.15));
#1775=CARTESIAN_POINT('',(5.15,0.,-2.95));
#1776=CARTESIAN_POINT('',(5.15,0.,-5.15));
#1777=CARTESIAN_POINT('',(5.15,1.08,-2.95));
#1778=CARTESIAN_POINT('',(5.15,0.,-2.95));
#1779=CARTESIAN_POINT('',(5.15,1.08,-1.5));
#1780=CARTESIAN_POINT('',(5.15,1.08,0.603818161347918));
#1781=CARTESIAN_POINT('',(5.15,0.98,-1.5));
#1782=CARTESIAN_POINT('',(5.15,0.84,-1.5));
#1783=CARTESIAN_POINT('',(5.15,0.98,1.5));
#1784=CARTESIAN_POINT('',(5.15,0.98,2.575));
#1785=CARTESIAN_POINT('',(5.15,1.08,1.5));
#1786=CARTESIAN_POINT('',(5.15,0.84,1.5));
#1787=CARTESIAN_POINT('',(5.15,1.08,2.95));
#1788=CARTESIAN_POINT('',(5.15,1.08,4.54618183865208));
#1789=CARTESIAN_POINT('',(5.15,0.,2.95));
#1790=CARTESIAN_POINT('',(5.15,0.,2.95));
#1791=CARTESIAN_POINT('',(5.15,0.,-5.15));
#1792=CARTESIAN_POINT('Origin',(0.,0.,-1.21262223563427E-15));
#1793=CARTESIAN_POINT('',(-5.15,0.,-4.15));
#1794=CARTESIAN_POINT('',(-5.15,0.,5.15));
#1795=CARTESIAN_POINT('',(-4.15,0.,-5.15));
#1796=CARTESIAN_POINT('Origin',(-4.15,0.,-4.15));
#1797=CARTESIAN_POINT('',(2.95,0.,-5.15));
#1798=CARTESIAN_POINT('',(-5.15,0.,-5.15));
#1799=CARTESIAN_POINT('',(4.05,0.,-4.05));
#1800=CARTESIAN_POINT('',(2.95,0.,5.15));
#1801=CARTESIAN_POINT('',(4.05,0.,4.05));
#1802=CARTESIAN_POINT('',(-4.15,0.,5.15));
#1803=CARTESIAN_POINT('',(5.15,0.,5.15));
#1804=CARTESIAN_POINT('',(-5.15,0.,4.15));
#1805=CARTESIAN_POINT('Origin',(-4.15,0.,4.15));
#1806=CARTESIAN_POINT('',(-5.15,0.,5.15));
#1807=CARTESIAN_POINT('Origin',(-4.15,0.,-4.15));
#1808=CARTESIAN_POINT('',(-5.15,1.68,-4.15));
#1809=CARTESIAN_POINT('',(-4.15,1.68,-5.15));
#1810=CARTESIAN_POINT('Origin',(-4.15,1.68,-4.15));
#1811=CARTESIAN_POINT('',(-4.15,0.,-5.15));
#1812=CARTESIAN_POINT('',(-5.15,0.,-4.15));
#1813=CARTESIAN_POINT('Origin',(5.15,0.,-5.15));
#1814=CARTESIAN_POINT('',(-1.5,1.68,-5.15));
#1815=CARTESIAN_POINT('',(-5.15,1.68,-5.15));
#1816=CARTESIAN_POINT('',(-1.5,0.98,-5.15));
#1817=CARTESIAN_POINT('',(-1.5,0.84,-5.15));
#1818=CARTESIAN_POINT('',(1.5,0.98,-5.15));
#1819=CARTESIAN_POINT('',(2.575,0.98,-5.15));
#1820=CARTESIAN_POINT('',(1.5,1.08,-5.15));
#1821=CARTESIAN_POINT('',(1.5,0.84,-5.15));
#1822=CARTESIAN_POINT('',(2.95,1.08,-5.15));
#1823=CARTESIAN_POINT('',(4.54618183865208,1.08,-5.15));
#1824=CARTESIAN_POINT('',(2.95,0.,-5.15));
#1825=CARTESIAN_POINT('Origin',(0.,1.68,-1.11022302462516E-15));
#1826=CARTESIAN_POINT('',(-5.15,1.68,-1.5));
#1827=CARTESIAN_POINT('',(-5.15,1.68,5.15));
#1828=CARTESIAN_POINT('',(-4.87442304278158,1.68,-1.5));
#1829=CARTESIAN_POINT('',(-2.575,1.68,-1.5));
#1830=CARTESIAN_POINT('',(-1.5,1.68,-4.87442304278158));
#1831=CARTESIAN_POINT('Origin',(0.,1.68,0.));
#1832=CARTESIAN_POINT('',(-1.5,1.68,2.575));
#1833=CARTESIAN_POINT('Origin',(-4.15,0.,4.15));
#1834=CARTESIAN_POINT('',(-4.15,1.68,5.15));
#1835=CARTESIAN_POINT('',(-5.15,1.68,4.15));
#1836=CARTESIAN_POINT('Origin',(-4.15,1.68,4.15));
#1837=CARTESIAN_POINT('',(-5.15,0.,4.15));
#1838=CARTESIAN_POINT('',(-4.15,0.,5.15));
#1839=CARTESIAN_POINT('Origin',(0.,1.68,-1.11022302462516E-15));
#1840=CARTESIAN_POINT('',(-1.5,1.68,5.15));
#1841=CARTESIAN_POINT('',(5.15,1.68,5.15));
#1842=CARTESIAN_POINT('',(-1.5,1.68,4.87442304278158));
#1843=CARTESIAN_POINT('',(-1.5,1.68,2.575));
#1844=CARTESIAN_POINT('',(-4.87442304278158,1.68,1.5));
#1845=CARTESIAN_POINT('Origin',(0.,1.68,0.));
#1846=CARTESIAN_POINT('',(-5.15,1.68,1.5));
#1847=CARTESIAN_POINT('',(2.575,1.68,1.5));
#1848=CARTESIAN_POINT('',(-5.15,1.68,5.15));
#1849=CARTESIAN_POINT('Origin',(-5.15,0.,5.15));
#1850=CARTESIAN_POINT('',(2.95,1.08,5.15));
#1851=CARTESIAN_POINT('',(2.95,0.,5.15));
#1852=CARTESIAN_POINT('',(1.5,1.08,5.15));
#1853=CARTESIAN_POINT('',(-0.603818161347918,1.08,5.15));
#1854=CARTESIAN_POINT('',(1.5,0.98,5.15));
#1855=CARTESIAN_POINT('',(1.5,0.84,5.15));
#1856=CARTESIAN_POINT('',(-1.5,0.98,5.15));
#1857=CARTESIAN_POINT('',(-2.575,0.98,5.15));
#1858=CARTESIAN_POINT('',(-1.5,0.84,5.15));
#1859=CARTESIAN_POINT('Origin',(4.05,0.,-4.05));
#1860=CARTESIAN_POINT('',(4.05,1.08,-4.05));
#1861=CARTESIAN_POINT('Origin',(3.94236367730416,1.08,-3.94236367730416));
#1862=CARTESIAN_POINT('',(1.5,1.08,-4.87442304278158));
#1863=CARTESIAN_POINT('',(1.5,1.08,-4.54618183865208));
#1864=CARTESIAN_POINT('',(4.87442304278158,1.08,-1.5));
#1865=CARTESIAN_POINT('Origin',(0.,1.08,0.));
#1866=CARTESIAN_POINT('',(-0.603818161347919,1.08,-1.5));
#1867=CARTESIAN_POINT('Origin',(4.05,0.,4.05));
#1868=CARTESIAN_POINT('',(4.05,1.08,4.05));
#1869=CARTESIAN_POINT('Origin',(3.94236367730416,1.08,3.94236367730416));
#1870=CARTESIAN_POINT('',(4.87442304278158,1.08,1.5));
#1871=CARTESIAN_POINT('',(4.54618183865208,1.08,1.5));
#1872=CARTESIAN_POINT('',(1.5,1.08,4.87442304278158));
#1873=CARTESIAN_POINT('Origin',(0.,1.08,0.));
#1874=CARTESIAN_POINT('',(1.5,1.08,-0.603818161347919));
#1875=CARTESIAN_POINT('Origin',(-2.275,-13.6829601377075,0.));
#1876=CARTESIAN_POINT('',(-1.575,0.98,0.));
#1877=CARTESIAN_POINT('Origin',(-2.275,0.980000000000001,0.));
#1878=CARTESIAN_POINT('Origin',(2.275,-13.6829601377075,0.));
#1879=CARTESIAN_POINT('',(2.975,0.98,0.));
#1880=CARTESIAN_POINT('Origin',(2.275,0.980000000000001,0.));
#1881=CARTESIAN_POINT('Origin',(-5.15,1.68,-1.5));
#1882=CARTESIAN_POINT('',(4.87442304278158,0.98,-1.5));
#1883=CARTESIAN_POINT('',(4.87442304278158,1.68,-1.5));
#1884=CARTESIAN_POINT('',(5.15,0.98,-1.5));
#1885=CARTESIAN_POINT('Origin',(1.5,1.68,-5.15));
#1886=CARTESIAN_POINT('',(1.5,0.98,4.87442304278158));
#1887=CARTESIAN_POINT('',(1.5,1.68,4.87442304278158));
#1888=CARTESIAN_POINT('',(1.5,0.98,5.15));
#1889=CARTESIAN_POINT('Origin',(0.,1.68,0.));
#1890=CARTESIAN_POINT('',(4.87442304278158,0.98,1.5));
#1891=CARTESIAN_POINT('',(4.87442304278158,1.68,1.5));
#1892=CARTESIAN_POINT('Origin',(0.,0.98,0.));
#1893=CARTESIAN_POINT('Origin',(5.15,1.68,1.5));
#1894=CARTESIAN_POINT('',(-5.15,0.98,1.5));
#1895=CARTESIAN_POINT('Origin',(1.5,1.68,-5.15));
#1896=CARTESIAN_POINT('',(1.5,0.98,-4.87442304278158));
#1897=CARTESIAN_POINT('',(1.5,0.98,5.15));
#1898=CARTESIAN_POINT('',(1.5,1.68,-4.87442304278158));
#1899=CARTESIAN_POINT('Origin',(2.77555756156289E-16,0.98,-1.11022302462516E-15));
#1900=CARTESIAN_POINT('',(-1.5,0.98,-4.87442304278158));
#1901=CARTESIAN_POINT('',(-1.5,0.98,-5.15));
#1902=CARTESIAN_POINT('',(-4.87442304278158,0.98,-1.5));
#1903=CARTESIAN_POINT('Origin',(0.,0.98,0.));
#1904=CARTESIAN_POINT('',(-5.15,0.98,-1.5));
#1905=CARTESIAN_POINT('',(5.15,0.98,-1.5));
#1906=CARTESIAN_POINT('',(-5.15,0.98,1.5));
#1907=CARTESIAN_POINT('',(-5.15,0.98,-2.575));
#1908=CARTESIAN_POINT('',(-4.87442304278158,0.98,1.5));
#1909=CARTESIAN_POINT('',(-5.15,0.98,1.5));
#1910=CARTESIAN_POINT('',(-1.5,0.98,4.87442304278158));
#1911=CARTESIAN_POINT('Origin',(0.,0.98,0.));
#1912=CARTESIAN_POINT('',(-1.5,0.98,-5.15));
#1913=CARTESIAN_POINT('Origin',(0.,0.98,0.));
#1914=CARTESIAN_POINT('Origin',(-1.5,1.68,5.15));
#1915=CARTESIAN_POINT('',(-1.5,1.68,-4.87442304278158));
#1916=CARTESIAN_POINT('Origin',(-1.5,1.68,5.15));
#1917=CARTESIAN_POINT('',(-1.5,1.68,4.87442304278158));
#1918=CARTESIAN_POINT('Origin',(0.,1.68,0.));
#1919=CARTESIAN_POINT('',(-4.87442304278158,1.68,-1.5));
#1920=CARTESIAN_POINT('Origin',(0.,1.68,0.));
#1921=CARTESIAN_POINT('Origin',(0.,1.68,0.));
#1922=CARTESIAN_POINT('',(-4.87442304278158,1.68,1.5));
#1923=CARTESIAN_POINT('Origin',(5.15,1.68,1.5));
#1924=CARTESIAN_POINT('',(-5.15,0.84,1.5));
#1925=CARTESIAN_POINT('Origin',(-5.15,1.68,-1.5));
#1926=CARTESIAN_POINT('',(-5.15,0.84,-1.5));
#1927=CARTESIAN_POINT('Origin',(-5.15,0.,-5.15));
#1928=CARTESIAN_POINT('',(0.,0.,0.));
#1929=CARTESIAN_POINT('Origin',(-0.0550000000000003,3.46944695195361E-16,
0.));
#1930=CARTESIAN_POINT('',(0.275,4.85722573273506E-16,0.6));
#1931=CARTESIAN_POINT('',(-0.0550000000000006,-0.33,0.6));
#1932=CARTESIAN_POINT('Origin',(-0.0550000000000003,3.46944695195361E-16,
0.6));
#1933=CARTESIAN_POINT('',(-0.0550000000000006,-0.33,-0.6));
#1934=CARTESIAN_POINT('',(-0.0550000000000003,-0.33,0.));
#1935=CARTESIAN_POINT('',(0.275,4.85722573273506E-16,-0.6));
#1936=CARTESIAN_POINT('Origin',(-0.0550000000000003,3.46944695195361E-16,
-0.6));
#1937=CARTESIAN_POINT('',(0.275,4.69069227904129E-16,0.));
#1938=CARTESIAN_POINT('Origin',(-1.10411,0.0491100000000015,0.6));
#1939=CARTESIAN_POINT('',(0.274999999999999,1.17,0.6));
#1940=CARTESIAN_POINT('',(0.275,-0.33,0.6));
#1941=CARTESIAN_POINT('',(0.25,1.17,0.6));
#1942=CARTESIAN_POINT('',(0.274999999999999,1.17,0.6));
#1943=CARTESIAN_POINT('',(0.25,0.65,0.6));
#1944=CARTESIAN_POINT('',(0.25,1.325,0.6));
#1945=CARTESIAN_POINT('',(-0.0550000000000004,0.406125032034856,0.6));
#1946=CARTESIAN_POINT('Origin',(5.20417042793042E-17,0.65,0.6));
#1947=CARTESIAN_POINT('',(-0.055,4.85722573273506E-15,0.6));
#1948=CARTESIAN_POINT('',(-0.0550000000000008,1.17,0.6));
#1949=CARTESIAN_POINT('',(-3.225,2.91433543964104E-15,0.6));
#1950=CARTESIAN_POINT('',(-0.0550000000000002,4.85722573273506E-15,0.6));
#1951=CARTESIAN_POINT('',(-3.225,-0.33,0.6));
#1952=CARTESIAN_POINT('',(-3.225,2.91433543964104E-15,0.6));
#1953=CARTESIAN_POINT('',(-3.225,-0.33,0.6));
#1954=CARTESIAN_POINT('Origin',(0.275,-0.33,0.));
#1955=CARTESIAN_POINT('',(0.274999999999999,1.17,-0.6));
#1956=CARTESIAN_POINT('',(0.275,-0.33,-0.6));
#1957=CARTESIAN_POINT('',(0.274999999999999,1.17,-0.588960949469488));
#1958=CARTESIAN_POINT('',(0.274999999999999,1.17,0.));
#1959=CARTESIAN_POINT('',(0.274999999999999,0.65,-0.588960949469488));
#1960=CARTESIAN_POINT('',(0.274999999999999,1.325,-0.588960949469488));
#1961=CARTESIAN_POINT('',(0.274999999999999,0.65,0.588960949469488));
#1962=CARTESIAN_POINT('Origin',(0.274999999999999,0.65,0.));
#1963=CARTESIAN_POINT('',(0.274999999999999,1.17,0.588960949469488));
#1964=CARTESIAN_POINT('',(0.274999999999999,1.325,0.588960949469488));
#1965=CARTESIAN_POINT('',(0.274999999999999,1.17,0.));
#1966=CARTESIAN_POINT('Origin',(0.274999999999999,1.17,0.));
#1967=CARTESIAN_POINT('Origin',(0.,1.17,0.));
#1968=CARTESIAN_POINT('Origin',(0.274999999999999,1.17,0.));
#1969=CARTESIAN_POINT('',(0.25,1.17,-0.6));
#1970=CARTESIAN_POINT('Origin',(0.,1.17,0.));
#1971=CARTESIAN_POINT('',(0.274999999999999,1.17,-0.6));
#1972=CARTESIAN_POINT('Origin',(-1.10411,0.0491100000000015,-0.6));
#1973=CARTESIAN_POINT('',(-3.225,-0.33,-0.6));
#1974=CARTESIAN_POINT('',(-3.225,-0.33,-0.6));
#1975=CARTESIAN_POINT('',(-3.225,2.91433543964104E-15,-0.6));
#1976=CARTESIAN_POINT('',(-3.225,2.91433543964104E-15,-0.6));
#1977=CARTESIAN_POINT('',(-0.055,4.85722573273506E-15,-0.6));
#1978=CARTESIAN_POINT('',(-0.0550000000000002,4.85722573273506E-15,-0.6));
#1979=CARTESIAN_POINT('',(-0.0550000000000004,0.406125032034856,-0.6));
#1980=CARTESIAN_POINT('',(-0.0550000000000008,1.17,-0.6));
#1981=CARTESIAN_POINT('',(0.25,0.65,-0.6));
#1982=CARTESIAN_POINT('Origin',(5.20417042793042E-17,0.65,-0.6));
#1983=CARTESIAN_POINT('',(0.25,1.325,-0.6));
#1984=CARTESIAN_POINT('Origin',(-3.225,2.91433543964104E-15,0.));
#1985=CARTESIAN_POINT('',(-3.225,-0.33,0.));
#1986=CARTESIAN_POINT('',(-3.225,2.91433543964104E-15,0.));
#1987=CARTESIAN_POINT('Origin',(-0.0550000000000002,4.85722573273506E-15,
0.));
#1988=CARTESIAN_POINT('',(-0.0550000000000002,4.85722573273506E-15,0.));
#1989=CARTESIAN_POINT('Origin',(-0.0550000000000008,1.17,0.));
#1990=CARTESIAN_POINT('Origin',(-0.0550000000000005,0.65,0.));
#1991=CARTESIAN_POINT('Origin',(-3.225,-0.33,0.));
#1992=CARTESIAN_POINT('Origin',(5.20417042793042E-17,0.65,0.));
#1993=CARTESIAN_POINT('Origin',(0.,0.65,0.));
#1994=CARTESIAN_POINT('Origin',(5.20417042793042E-17,0.65,0.));
#1995=CARTESIAN_POINT('Origin',(0.,0.65,0.));
#1996=CARTESIAN_POINT('Origin',(0.,1.325,0.));
#1997=CARTESIAN_POINT('',(0.65,2.,0.));
#1998=CARTESIAN_POINT('Origin',(0.,2.,0.));
#1999=CARTESIAN_POINT('Origin',(0.65,2.,0.));
#2000=CARTESIAN_POINT('',(0.,0.,0.));
#2001=CARTESIAN_POINT('',(0.,-0.98,0.));
#2002=CARTESIAN_POINT('',(-2.275,-0.650000000000005,-1.54074395550979E-32));
#2003=CARTESIAN_POINT('',(2.275,-0.650000000000005,-2.77555756156289E-16));
#2004=UNCERTAINTY_MEASURE_WITH_UNIT(LENGTH_MEASURE(0.01),#2014,
'DISTANCE_ACCURACY_VALUE',
'Maximum model space distance between geometric entities at asserted c
onnectivities');
#2005=UNCERTAINTY_MEASURE_WITH_UNIT(LENGTH_MEASURE(0.01),#2014,
'DISTANCE_ACCURACY_VALUE',
'Maximum model space distance between geometric entities at asserted c
onnectivities');
#2006=UNCERTAINTY_MEASURE_WITH_UNIT(LENGTH_MEASURE(0.01),#2014,
'DISTANCE_ACCURACY_VALUE',
'Maximum model space distance between geometric entities at asserted c
onnectivities');
#2007=UNCERTAINTY_MEASURE_WITH_UNIT(LENGTH_MEASURE(0.01),#2014,
'DISTANCE_ACCURACY_VALUE',
'Maximum model space distance between geometric entities at asserted c
onnectivities');
#2008=UNCERTAINTY_MEASURE_WITH_UNIT(LENGTH_MEASURE(0.01),#2014,
'DISTANCE_ACCURACY_VALUE',
'Maximum model space distance between geometric entities at asserted c
onnectivities');
#2009=(
GEOMETRIC_REPRESENTATION_CONTEXT(3)
GLOBAL_UNCERTAINTY_ASSIGNED_CONTEXT((#2004))
GLOBAL_UNIT_ASSIGNED_CONTEXT((#2014,#2017,#2016))
REPRESENTATION_CONTEXT('','3D')
);
#2010=(
GEOMETRIC_REPRESENTATION_CONTEXT(3)
GLOBAL_UNCERTAINTY_ASSIGNED_CONTEXT((#2005))
GLOBAL_UNIT_ASSIGNED_CONTEXT((#2014,#2017,#2016))
REPRESENTATION_CONTEXT('','3D')
);
#2011=(
GEOMETRIC_REPRESENTATION_CONTEXT(3)
GLOBAL_UNCERTAINTY_ASSIGNED_CONTEXT((#2006))
GLOBAL_UNIT_ASSIGNED_CONTEXT((#2014,#2017,#2016))
REPRESENTATION_CONTEXT('','3D')
);
#2012=(
GEOMETRIC_REPRESENTATION_CONTEXT(3)
GLOBAL_UNCERTAINTY_ASSIGNED_CONTEXT((#2007))
GLOBAL_UNIT_ASSIGNED_CONTEXT((#2014,#2017,#2016))
REPRESENTATION_CONTEXT('','3D')
);
#2013=(
GEOMETRIC_REPRESENTATION_CONTEXT(3)
GLOBAL_UNCERTAINTY_ASSIGNED_CONTEXT((#2008))
GLOBAL_UNIT_ASSIGNED_CONTEXT((#2014,#2017,#2016))
REPRESENTATION_CONTEXT('','3D')
);
#2014=(
LENGTH_UNIT()
NAMED_UNIT(*)
SI_UNIT(.MILLI.,.METRE.)
);
#2015=(
LENGTH_UNIT()
NAMED_UNIT(*)
SI_UNIT(.CENTI.,.METRE.)
);
#2016=(
NAMED_UNIT(*)
SI_UNIT($,.STERADIAN.)
SOLID_ANGLE_UNIT()
);
#2017=(
NAMED_UNIT(*)
PLANE_ANGLE_UNIT()
SI_UNIT($,.RADIAN.)
);
#2018=SHAPE_DEFINITION_REPRESENTATION(#2022,#2030);
#2019=SHAPE_DEFINITION_REPRESENTATION(#2023,#2031);
#2020=SHAPE_DEFINITION_REPRESENTATION(#2024,#2032);
#2021=SHAPE_DEFINITION_REPRESENTATION(#2025,#2033);
#2022=PRODUCT_DEFINITION_SHAPE('',$,#2035);
#2023=PRODUCT_DEFINITION_SHAPE('',$,#2036);
#2024=PRODUCT_DEFINITION_SHAPE('',$,#2037);
#2025=PRODUCT_DEFINITION_SHAPE('',$,#2038);
#2026=PRODUCT_DEFINITION_SHAPE($,$,#23);
#2027=PRODUCT_DEFINITION_SHAPE($,$,#24);
#2028=PRODUCT_DEFINITION_SHAPE($,$,#25);
#2029=PRODUCT_DEFINITION_SHAPE($,$,#26);
#2030=SHAPE_REPRESENTATION('',(#1250,#1351,#1352,#1353,#1354),#2009);
#2031=SHAPE_REPRESENTATION('',(#1251),#2010);
#2032=SHAPE_REPRESENTATION('',(#1268),#2011);
#2033=SHAPE_REPRESENTATION('',(#1325),#2012);
#2034=PRODUCT_DEFINITION_CONTEXT('part definition',#2048,'design');
#2035=PRODUCT_DEFINITION('\X2\6A196E9654C103A6\X0\10 SIZE CODE G12',
'\X2\6A196E9654C103A6\X0\10 SIZE CODE G12',#2039,#2034);
#2036=PRODUCT_DEFINITION('\X2\6A196E9654C130B130FC30B903A6\X0\10x11.52
L SIDE CODE G12','\X2\6A196E9654C130B130FC30B903A6\X0\10x11.52L SIDE C
ODE G12',#2040,#2034);
#2037=PRODUCT_DEFINITION('\X2\6A196E9654C15EA7724803A6\X0\10 SIZE CODE
 G12','\X2\6A196E9654C15EA7724803A6\X0\10 SIZE CODE G12',#2041,#2034);
#2038=PRODUCT_DEFINITION('\X2\6A196E9654C130EA30FC30C97DDA03A6\X0\10 S
IZE CODE G12','\X2\6A196E9654C130EA30FC30C97DDA03A6\X0\10 SIZE CODE G1
2',#2042,#2034);
#2039=PRODUCT_DEFINITION_FORMATION('',$,#2050);
#2040=PRODUCT_DEFINITION_FORMATION('',$,#2051);
#2041=PRODUCT_DEFINITION_FORMATION('',$,#2052);
#2042=PRODUCT_DEFINITION_FORMATION('',$,#2053);
#2043=PRODUCT_RELATED_PRODUCT_CATEGORY('\X2\6A196E9654C103A6\X0\10 SIZ
E CODE G12','\X2\6A196E9654C103A6\X0\10 SIZE CODE G12',(#2050));
#2044=PRODUCT_RELATED_PRODUCT_CATEGORY(
'\X2\6A196E9654C130B130FC30B903A6\X0\10x11.52L SIDE CODE G12',
'\X2\6A196E9654C130B130FC30B903A6\X0\10x11.52L SIDE CODE G12',(#2051));
#2045=PRODUCT_RELATED_PRODUCT_CATEGORY(
'\X2\6A196E9654C15EA7724803A6\X0\10 SIZE CODE G12',
'\X2\6A196E9654C15EA7724803A6\X0\10 SIZE CODE G12',(#2052));
#2046=PRODUCT_RELATED_PRODUCT_CATEGORY(
'\X2\6A196E9654C130EA30FC30C97DDA03A6\X0\10 SIZE CODE G12',
'\X2\6A196E9654C130EA30FC30C97DDA03A6\X0\10 SIZE CODE G12',(#2053));
#2047=APPLICATION_PROTOCOL_DEFINITION('international standard',
'automotive_design',2009,#2048);
#2048=APPLICATION_CONTEXT(
'Core Data for Automotive Mechanical Design Process');
#2049=PRODUCT_CONTEXT('part definition',#2048,'mechanical');
#2050=PRODUCT('\X2\6A196E9654C103A6\X0\10 SIZE CODE G12',
'\X2\6A196E9654C103A6\X0\10 SIZE CODE G12',$,(#2049));
#2051=PRODUCT('\X2\6A196E9654C130B130FC30B903A6\X0\10x11.52L SIDE CODE
 G12','\X2\6A196E9654C130B130FC30B903A6\X0\10x11.52L SIDE CODE G12',$,(#2049));
#2052=PRODUCT('\X2\6A196E9654C15EA7724803A6\X0\10 SIZE CODE G12',
'\X2\6A196E9654C15EA7724803A6\X0\10 SIZE CODE G12',$,(#2049));
#2053=PRODUCT('\X2\6A196E9654C130EA30FC30C97DDA03A6\X0\10 SIZE CODE G1
2','\X2\6A196E9654C130EA30FC30C97DDA03A6\X0\10 SIZE CODE G12',$,(#2049));
ENDSEC;
END-ISO-10303-21;
