G04 ================== begin FILE IDENTIFICATION RECORD ==================*
G04 Layout Name:  LAY-89129_C.brd*
G04 Film Name:    L1_PS.art*
G04 File Format:  Gerber RS274X*
G04 File Origin:  Cadence Allegro 17.4-S037*
G04 Origin Date:  Wed Jun 12 20:14:21 2024*
G04 *
G04 Layer:  BOARD GEOMETRY/DESIGN_OUTLINE*
G04 Layer:  VIA CLASS/TOP*
G04 Layer:  PIN/TOP*
G04 Layer:  PACKAGE GEOMETRY/SHORT_LAYER_TOP*
G04 Layer:  ETCH/TOP*
G04 Layer:  DRAWING FORMAT/FILM_TITLE_BLOCK*
G04 *
G04 Offset:    (0.00 0.00)*
G04 Mirror:    No*
G04 Mode:      Positive*
G04 Rotation:  0*
G04 FullContactRelief:  No*
G04 UndefLineWidth:     8.00*
G04 ================== end FILE IDENTIFICATION RECORD ====================*
%FSLAX55Y55*MOIN*%
%IR0*IPPOS*OFA0.00000B0.00000*MIA0B0*SFA1.00000B1.00000*%
%ADD49O,.043X.102*%
%AMMACRO59*
4,1,22,0.0,-.0175,
-.015,-.00875,
-.015,.0025,
-.014772,.005105,
-.014095,.00763,
-.01299,.01,
-.011491,.012142,
-.009642,.013991,
-.0075,.01549,
-.00513,.016595,
-.002605,.017272,
0.0,.0175,
.002605,.017272,
.00513,.016595,
.0075,.01549,
.009642,.013991,
.011491,.012142,
.01299,.01,
.014095,.00763,
.014772,.005105,
.015,.0025,
.015,-.00875,
0.0,-.0175,
0.0*
%
%ADD59MACRO59*%
%AMMACRO36*
4,1,22,-.0175,0.0,
-.00875,.015,
.0025,.015,
.005105,.014772,
.00763,.014095,
.01,.01299,
.012142,.011491,
.013991,.009642,
.01549,.0075,
.016595,.00513,
.017272,.002605,
.0175,0.0,
.017272,-.002605,
.016595,-.00513,
.01549,-.0075,
.013991,-.009642,
.012142,-.011491,
.01,-.01299,
.00763,-.014095,
.005105,-.014772,
.0025,-.015,
-.00875,-.015,
-.0175,0.0,
0.0*
%
%ADD36MACRO36*%
%AMMACRO58*
4,1,22,.015,.0184,
.015,-.00341,
.014772,-.006015,
.014094,-.00854,
.012989,-.01091,
.011489,-.013051,
.009639,-.0149,
.007497,-.016399,
.005127,-.017503,
.002602,-.01818,
-.000003,-.018407,
-.002608,-.018178,
-.005133,-.017501,
-.007503,-.016396,
-.009644,-.014896,
-.011493,-.013046,
-.012992,-.010904,
-.014096,-.008534,
-.014773,-.006009,
-.015,-.00341,
-.015,.0184,
0.0,.00965,
.015,.0184,
0.0*
%
%ADD58MACRO58*%
%AMMACRO37*
4,1,22,.0184,-.015,
-.00341,-.015,
-.006015,-.014772,
-.00854,-.014094,
-.01091,-.012989,
-.013051,-.011489,
-.0149,-.009639,
-.016399,-.007497,
-.017503,-.005127,
-.01818,-.002602,
-.018407,.000003,
-.018178,.002608,
-.017501,.005133,
-.016396,.007503,
-.014896,.009644,
-.013046,.011493,
-.010904,.012992,
-.008534,.014096,
-.006009,.014773,
-.00341,.015,
.0184,.015,
.00965,0.0,
.0184,-.015,
0.0*
%
%ADD37MACRO37*%
%ADD27R,.029X.11*%
%AMMACRO41*
4,1,8,-.01427,.016,
.01057,.016,
.01427,.016,
.0235,0.0,
.01427,-.016,
.00924,-.016,
-.01426,-.016,
-.0235,0.0,
-.01427,.016,
0.0*
%
%ADD41MACRO41*%
%AMMACRO38*
4,1,13,-.02184,.016,
-.024356,.01277,
-.026273,.009153,
-.027533,.005258,
-.028097,.001203,
-.027949,-.002889,
-.027092,-.006892,
-.025554,-.010686,
-.023379,-.014155,
-.02183,-.016,
.02812,-.016,
.01888,0.0,
.02812,.016,
-.02184,.016,
0.0*
%
%ADD38MACRO38*%
%ADD34C,.01*%
%AMMACRO32*
4,1,8,-.016,-.01427,
-.016,.01057,
-.016,.01427,
0.0,.0235,
.016,.01427,
.016,.00924,
.016,-.01426,
0.0,-.0235,
-.016,-.01427,
0.0*
%
%ADD32MACRO32*%
%AMMACRO30*
4,1,13,-.016,-.02184,
-.01277,-.024356,
-.009153,-.026273,
-.005258,-.027533,
-.001203,-.028097,
.002889,-.027949,
.006892,-.027092,
.010686,-.025554,
.014155,-.023379,
.016,-.02183,
.016,.02812,
0.0,.01888,
-.016,.02812,
-.016,-.02184,
0.0*
%
%ADD30MACRO30*%
%ADD42R,.042X.126*%
%ADD10C,.02*%
%ADD45C,.03*%
%ADD24R,.102X.095*%
%ADD18C,.04*%
%ADD17C,.06*%
%ADD19C,.025*%
%ADD11C,.065*%
%ADD43C,.084*%
%ADD16C,.066*%
%ADD52R,.087X.147*%
%ADD20R,.06X.06*%
%ADD12R,.065X.065*%
%ADD50R,.084X.084*%
%ADD15R,.066X.066*%
%AMMACRO56*
4,1,22,0.0,.0175,
.015,.00875,
.015,-.0025,
.014772,-.005105,
.014095,-.00763,
.01299,-.01,
.011491,-.012142,
.009642,-.013991,
.0075,-.01549,
.00513,-.016595,
.002605,-.017272,
0.0,-.0175,
-.002605,-.017272,
-.00513,-.016595,
-.0075,-.01549,
-.009642,-.013991,
-.011491,-.012142,
-.01299,-.01,
-.014095,-.00763,
-.014772,-.005105,
-.015,-.0025,
-.015,.00875,
0.0,.0175,
0.0*
%
%ADD56MACRO56*%
%ADD55R,.033X.031*%
%ADD14O,.06X.035*%
%AMMACRO57*
4,1,22,-.015,-.0184,
-.015,.00341,
-.014772,.006015,
-.014094,.00854,
-.012989,.01091,
-.011489,.013051,
-.009639,.0149,
-.007497,.016399,
-.005127,.017503,
-.002602,.01818,
.000003,.018407,
.002608,.018178,
.005133,.017501,
.007503,.016396,
.009644,.014896,
.011493,.013046,
.012992,.010904,
.014096,.008534,
.014773,.006009,
.015,.00341,
.015,-.0184,
0.0,-.00965,
-.015,-.0184,
0.0*
%
%ADD57MACRO57*%
%ADD26R,.035X.031*%
%ADD13O,.035X.06*%
%ADD35R,.031X.035*%
%ADD53R,.025X.033*%
%ADD46R,.012X.028*%
%ADD25O,.045X.035*%
%ADD22O,.063X.035*%
%AMMACRO31*
4,1,13,.016,.02184,
.01277,.024356,
.009153,.026273,
.005258,.027533,
.001203,.028097,
-.002889,.027949,
-.006892,.027092,
-.010686,.025554,
-.014155,.023379,
-.016,.02183,
-.016,-.02812,
0.0,-.01888,
.016,-.02812,
.016,.02184,
0.0*
%
%ADD31MACRO31*%
%ADD28O,.035X.045*%
%ADD21O,.035X.063*%
%ADD47O,.043X.083*%
%AMMACRO40*
4,1,13,.02184,-.016,
.024356,-.01277,
.026273,-.009153,
.027533,-.005258,
.028097,-.001203,
.027949,.002889,
.027092,.006892,
.025554,.010686,
.023379,.014155,
.02183,.016,
-.02812,.016,
-.01888,0.0,
-.02812,-.016,
.02184,-.016,
0.0*
%
%ADD40MACRO40*%
%ADD29R,.032X.039*%
%ADD44R,.039X.032*%
%ADD33C,.236*%
%ADD23R,.175X.155*%
%ADD54R,.051X.059*%
%ADD39R,.425X.429*%
%ADD48R,.039X.028*%
%ADD51R,.087X.047*%
%ADD60C,.01575*%
%ADD61C,.01988*%
%ADD62C,.008*%
%ADD63C,.006*%
%ADD64C,.0045*%
%ADD69C,.03608*%
%ADD68C,.08108*%
%ADD67C,.08208*%
%ADD66C,.07608*%
%ADD65R,.1772X.07878*%
G75*
%LPD*%
G75*
G36*
G01X-297723Y70178D02*
X-275675D01*
Y48130D01*
X-297723D01*
Y70178D01*
G37*
G36*
G01Y46728D02*
X-275896D01*
Y24902D01*
X-297723D01*
Y46728D01*
G37*
G36*
G01Y93186D02*
X-275896D01*
Y71580D01*
X-297723D01*
Y93186D01*
G37*
G36*
G01Y116634D02*
X-275896D01*
Y94587D01*
X-297723D01*
Y116634D01*
G37*
G36*
G01Y139642D02*
X-275896D01*
Y118036D01*
X-297723D01*
Y139642D01*
G37*
G36*
G01Y186319D02*
X-275675D01*
Y164272D01*
X-297723D01*
Y186319D01*
G37*
G36*
G01Y162870D02*
X-275896D01*
Y141044D01*
X-297723D01*
Y162870D01*
G37*
G36*
G01X-274274Y70178D02*
X-252447D01*
Y48130D01*
X-274274D01*
Y70178D01*
G37*
G36*
G01X-251046D02*
X-229219D01*
Y48130D01*
X-251046D01*
Y70178D01*
G37*
G36*
G01X-274494Y46728D02*
X-252447D01*
Y24902D01*
X-274494D01*
Y46728D01*
G37*
G36*
G01X-251046D02*
X-229219D01*
Y24902D01*
X-251046D01*
Y46728D01*
G37*
G36*
G01X-274494Y93186D02*
X-252447D01*
Y71580D01*
X-274494D01*
Y93186D01*
G37*
G36*
G01X-251046D02*
X-229219D01*
Y71580D01*
X-251046D01*
Y93186D01*
G37*
G36*
G01X-274494Y116634D02*
X-252447D01*
Y94587D01*
X-274494D01*
Y116634D01*
G37*
G36*
G01X-251046D02*
X-229219D01*
Y94587D01*
X-251046D01*
Y116634D01*
G37*
G36*
G01X-274494Y139642D02*
X-252447D01*
Y118036D01*
X-274494D01*
Y139642D01*
G37*
G36*
G01X-251046D02*
X-229219D01*
Y118036D01*
X-251046D01*
Y139642D01*
G37*
G36*
G01X-251266Y186319D02*
X-229219D01*
Y164272D01*
X-251266D01*
Y186319D01*
G37*
G36*
G01X-274494Y163091D02*
X-252447D01*
Y141044D01*
X-274494D01*
Y163091D01*
G37*
G36*
G01X-251046Y162870D02*
X-229219D01*
Y141044D01*
X-251046D01*
Y162870D01*
G37*
G36*
G01X-274274Y186319D02*
X-252668D01*
Y164492D01*
X-274274D01*
Y186319D01*
G37*
G36*
G01X-227818Y70178D02*
X-205990D01*
Y48130D01*
X-227818D01*
Y70178D01*
G37*
G36*
G01Y46728D02*
X-205990D01*
Y24902D01*
X-227818D01*
Y46728D01*
G37*
G36*
G01Y93186D02*
X-205990D01*
Y71580D01*
X-227818D01*
Y93186D01*
G37*
G36*
G01Y116634D02*
X-205990D01*
Y94587D01*
X-227818D01*
Y116634D01*
G37*
G36*
G01Y139642D02*
X-205990D01*
Y118036D01*
X-227818D01*
Y139642D01*
G37*
G36*
G01Y186319D02*
X-205990D01*
Y164272D01*
X-227818D01*
Y186319D01*
G37*
G36*
G01Y162870D02*
X-205990D01*
Y141044D01*
X-227818D01*
Y162870D01*
G37*
G36*
G01X-204588Y70178D02*
X-182762D01*
Y48130D01*
X-204588D01*
Y70178D01*
G37*
G36*
G01Y46728D02*
X-182762D01*
Y24902D01*
X-204588D01*
Y46728D01*
G37*
G36*
G01Y93186D02*
X-182762D01*
Y71580D01*
X-204588D01*
Y93186D01*
G37*
G36*
G01Y116634D02*
X-182762D01*
Y94587D01*
X-204588D01*
Y116634D01*
G37*
G36*
G01Y139642D02*
X-182723D01*
Y118036D01*
X-204588D01*
Y139642D01*
G37*
G36*
G01Y186319D02*
X-182762D01*
Y164272D01*
X-204588D01*
Y186319D01*
G37*
G36*
G01Y162870D02*
X-182762D01*
Y141044D01*
X-204588D01*
Y162870D01*
G37*
G36*
G01X-181360Y70178D02*
X-159534D01*
Y48130D01*
X-181360D01*
Y70178D01*
G37*
G36*
G01X-158132D02*
X-136305D01*
Y48130D01*
X-158132D01*
Y70178D01*
G37*
G36*
G01X-181360Y46728D02*
X-159534D01*
Y24902D01*
X-181360D01*
Y46728D01*
G37*
G36*
G01X-158132D02*
X-136305D01*
Y24902D01*
X-158132D01*
Y46728D01*
G37*
G36*
G01X-181360Y93186D02*
X-159534D01*
Y71580D01*
X-181360D01*
Y93186D01*
G37*
G36*
G01X-158132D02*
X-136305D01*
Y71580D01*
X-158132D01*
Y93186D01*
G37*
G36*
G01X-181360Y116634D02*
X-159534D01*
Y94587D01*
X-181360D01*
Y116634D01*
G37*
G36*
G01X-158132D02*
X-136305D01*
Y94587D01*
X-158132D01*
Y116634D01*
G37*
G36*
G01X-181322Y139642D02*
X-159534D01*
Y118036D01*
X-181322D01*
Y139642D01*
G37*
G36*
G01X-158132D02*
X-136305D01*
Y118036D01*
X-158132D01*
Y139642D01*
G37*
G36*
G01X-181360Y186319D02*
X-159534D01*
Y164272D01*
X-181360D01*
Y186319D01*
G37*
G36*
G01X-158132D02*
X-136305D01*
Y164272D01*
X-158132D01*
Y186319D01*
G37*
G36*
G01X-158353Y162870D02*
X-136305D01*
Y141044D01*
X-158353D01*
Y162870D01*
G37*
G36*
G01X-181360D02*
X-159754D01*
Y141044D01*
X-181360D01*
Y162870D01*
G37*
G36*
G01X340067Y218721D02*
X397114D01*
G02X397535Y217952I0J-500D01*
G03X395568Y211221I10536J-6732D01*
G03X408071Y198718I12503J0D01*
G03X414802Y200685I-1J12503D01*
G02X415571Y200264I269J-421D01*
G01Y10957D01*
G02X414802Y10536I-500J0D01*
G03X408071Y12502I-6730J-10536D01*
G03X395568Y0I0J-12503D01*
G03X397535Y-6731I12503J1D01*
G02X397114Y-7500I-421J-269D01*
G01X364857D01*
G02X364695Y-6527I0J500D01*
G03X373209Y5395I-4090J11922D01*
G03X348001I-12604J0D01*
G03X356515Y-6527I12604J0D01*
G02X356353Y-7500I-162J-473D01*
G01X188518D01*
G02X188356Y-6527I0J500D01*
G03X196870Y5395I-4090J11922D01*
G03X171662I-12604J0D01*
G03X180176Y-6527I12604J0D01*
G02X180014Y-7500I-162J-473D01*
G01X10957D01*
G02X10536Y-6731I0J500D01*
G03X12502Y0I-10536J6730D01*
G03X0Y12502I-12502J0D01*
G03X-6731Y10536I-1J-12502D01*
G02X-7500Y10957I-269J421D01*
G01Y82820D01*
X-5336Y82813D01*
X-5262Y82738D01*
G03X-2321Y81496I2941J2861D01*
G03X1554Y84248I0J4104D01*
G01X1612Y84416D01*
X22356D01*
G02X22709Y83562I0J-500D01*
G01X18750Y79603D01*
G03X18156Y78170I1433J-1434D01*
G01Y73543D01*
X6818Y62205D01*
X6723Y62200D01*
G03X4075Y59400I156J-2800D01*
G03X5347Y57052I2803J0D01*
G02X5431Y56283I-273J-419D01*
G03X4852Y54866I1447J-1418D01*
G01Y54740D01*
X4789Y54669D01*
G03X4075Y52800I2089J-1869D01*
G03X5061Y50665I2804J0D01*
G02X5160Y50020I-325J-380D01*
G03X4852Y48946I1719J-1074D01*
G01Y48125D01*
X4789Y48054D01*
G03X4075Y46185I2089J-1869D01*
G03X9683I2804J0D01*
G03X9061Y47946I-2804J0D01*
G01X8920Y48121D01*
X24232Y63434D01*
X24949D01*
G03X26382Y64027I1J2026D01*
G01X27012Y64658D01*
X29500D01*
G03X31054Y65184I2J2554D01*
G01X36323D01*
G02X36754Y64431I0J-500D01*
G03X36474Y63402I1746J-1028D01*
G01Y59765D01*
G03X36075Y59009I2027J-1553D01*
G01X36018Y58838D01*
X33405D01*
G03X31972Y58244I1J-2027D01*
G01X25218Y51490D01*
X25123Y51485D01*
G03X22475Y48685I156J-2800D01*
G03X25279Y45881I2804J0D01*
G03X28079Y48529I0J2804D01*
G01X28084Y48624D01*
X34244Y54784D01*
X36018D01*
X36075Y54613D01*
G03X38500Y52858I2425J798D01*
G03X40591Y53945I1J2553D01*
G02X41474Y53818I409J-287D01*
G01Y52779D01*
G03X42067Y51346I2026J-1D01*
G01X45674Y47739D01*
X45679Y47644D01*
G03X48479Y44996I2800J156D01*
G03X50596Y45961I0J2805D01*
G02X51474Y45634I378J-327D01*
G01Y34041D01*
X38169Y20736D01*
X35002D01*
G03X31783Y22514I-3219J-2025D01*
G03X27979Y18710I0J-3804D01*
G03X30814Y15032I3803J0D01*
G01X31000Y14982D01*
Y12438D01*
X30814Y12388D01*
G03X27979Y8710I968J-3678D01*
G03X31783Y4906I3804J0D01*
G03X34931Y6574I0J3805D01*
G01X35005Y6684D01*
X35509D01*
G03X36942Y7277I1J2026D01*
G01X57316Y27651D01*
G03X57910Y29084I-1432J1433D01*
G01Y46946D01*
X58491Y47527D01*
G02X59289Y47403I354J-353D01*
G03X59756Y46747I2494J1281D01*
G01Y42021D01*
X59754Y42001D01*
G03X59729Y41685I2029J-319D01*
G03X60902Y39830I2053J0D01*
G03X60880Y39685I481J-147D01*
G03X61383Y39182I503J0D01*
G01X62183D01*
G03X62686Y39685I0J503D01*
G03X62664Y39830I-503J-2D01*
G03X63164Y40164I-879J1857D01*
G02X64000Y39800I336J-370D01*
G01X68351D01*
X68389Y39595D01*
G03X68883Y39182I494J89D01*
G01X69683D01*
G03X70177Y39595I0J502D01*
G01X70215Y39800D01*
X75600D01*
Y45452D01*
G02X76203Y45942I500J1D01*
G03X76783Y45881I582J2743D01*
G03X79587Y48685I0J2804D01*
G03X76939Y51485I-2804J0D01*
G01X76844Y51490D01*
X75600Y52734D01*
Y53500D01*
X75526D01*
Y53855D01*
X75573Y53921D01*
G03X76054Y55411I-2072J1492D01*
G01Y58211D01*
G03X73500Y60764I-2553J0D01*
G03X71409Y59677I-1J-2553D01*
G02X70591I-409J287D01*
G03X68500Y60764I-2090J-1466D01*
G03X66409Y59677I-1J-2553D01*
G02X65591I-409J287D01*
G03X63500Y60764I-2090J-1466D01*
G03X61409Y59677I-1J-2553D01*
G02X60591I-409J287D01*
G03X58500Y60764I-2090J-1466D01*
G03X56409Y59677I-1J-2553D01*
G02X55591I-409J287D01*
G03X53500Y60764I-2090J-1466D01*
G03X50946Y58211I0J-2554D01*
G01Y55411D01*
G03X51474Y53857I2554J1D01*
G01Y49966D01*
G02X50596Y49639I-500J0D01*
G03X48635Y50600I-2117J-1839D01*
G01X48540Y50605D01*
X45526Y53618D01*
Y53855D01*
X45573Y53921D01*
G03X46054Y55411I-2072J1492D01*
G01Y58211D01*
G03X45526Y59765I-2554J-1D01*
G01Y64185D01*
G03X45491Y64565I-2026J5D01*
G02X45982Y65158I491J93D01*
G01X48283D01*
G03Y69212I0J2027D01*
G01X45538D01*
X45511Y69431D01*
G03X45486Y69586I-2011J-245D01*
G02X45977Y70184I490J98D01*
G01X48283D01*
G03Y74238I0J2027D01*
G01X31054D01*
G03X29500Y74764I-1552J-2028D01*
G01X26700D01*
G03X25210Y74284I0J-2553D01*
G01X25144Y74238D01*
X24224D01*
G03X23009Y73833I1J-2027D01*
G02X22210Y74233I-299J400D01*
G01Y77331D01*
X25063Y80184D01*
X25146D01*
G03X26700Y79658I1552J2028D01*
G01X29500D01*
G03X32054Y82211I0J2554D01*
G03X30966Y84302I-2553J0D01*
G02Y85120I287J409D01*
G03X32054Y87211I-1465J2091D01*
G03X29500Y89764I-2553J0D01*
G01X29239D01*
X29192Y89784D01*
G03X28100Y90006I-1092J-2573D01*
G01X1579D01*
G03X-1170Y89539I-1J-8321D01*
G03X-2321Y89704I-1152J-3939D01*
G03X-5246Y88479I0J-4105D01*
G01X-5319Y88404D01*
X-7500Y88411D01*
Y92820D01*
X-5336Y92813D01*
X-5262Y92738D01*
G03X-2321Y91496I2941J2861D01*
G03X1554Y94248I0J4104D01*
G01X1612Y94416D01*
X28100D01*
G03X29192Y94638I0J2795D01*
G01X29239Y94658D01*
X29500D01*
G03Y99764I0J2553D01*
G01X29239D01*
X29192Y99784D01*
G03X28100Y100006I-1092J-2573D01*
G01X1565D01*
G03X-1174Y99541I-2J-8288D01*
G03X-2321Y99704I-1145J-3941D01*
G03X-5246Y98479I0J-4105D01*
G01X-5319Y98404D01*
X-7500Y98411D01*
Y98900D01*
X-20088D01*
G03X-25124I-2518J-3242D01*
G01X-29484D01*
G02X-29984Y99402I0J500D01*
G03X-32056Y101460I-2050J8D01*
G01X-32956D01*
G03X-35028Y99402I-22J-2050D01*
G02X-35528Y98900I-500J-2D01*
G01X-36810D01*
Y100610D01*
G03X-37033Y101702I-2796J-2D01*
G01X-37052Y101749D01*
Y101860D01*
G03X-39606Y104414I-2554J0D01*
G03X-41829Y103116I0J-2553D01*
G02X-42488Y102915I-435J246D01*
G03X-44324I-918J-1833D01*
G02X-44983Y103116I-224J447D01*
G03X-47206Y104414I-2223J-1255D01*
G03X-49760Y101860I0J-2554D01*
G01Y101749D01*
X-49779Y101702D01*
G03X-50002Y100610I2573J-1094D01*
G01Y98900D01*
X-52774D01*
X-52811Y98912D01*
G03X-53456Y99009I-623J-1953D01*
G01X-53457Y99008D01*
X-54355D01*
X-54356Y99009D01*
G03X-55001Y98912I-22J-2050D01*
G01X-55038Y98900D01*
X-60274D01*
X-60311Y98912D01*
G03X-60956Y99009I-623J-1953D01*
G01X-60957Y99008D01*
X-61855D01*
X-61856Y99009D01*
G03X-62501Y98912I-22J-2050D01*
G01X-62538Y98900D01*
X-64200D01*
Y112200D01*
X-50002D01*
Y110610D01*
G03X-49779Y109518I2796J2D01*
G01X-49760Y109471D01*
Y109360D01*
G03X-47206Y106806I2554J0D01*
G03X-44983Y108104I0J2553D01*
G02X-44324Y108305I435J-246D01*
G03X-42488I918J1833D01*
G02X-41829Y108104I224J-447D01*
G03X-39606Y106806I2223J1255D01*
G03X-37052Y109360I0J2554D01*
G01Y109471D01*
X-37033Y109518D01*
G03X-36810Y110610I-2573J1094D01*
G01Y112200D01*
X-35526D01*
G02X-35026Y111722I0J-500D01*
G03X-32956Y109760I2048J88D01*
G01X-32056D01*
G03X-29986Y111722I22J2050D01*
G02X-29486Y112200I500J-22D01*
G01X-24815D01*
G03X-20397I2209J3460D01*
G01X-7500D01*
Y112820D01*
X-5336Y112813D01*
X-5262Y112738D01*
G03X-2321Y111496I2941J2861D01*
G03X-1923Y111515I4J4104D01*
G03X14579Y105804I16502J20986D01*
G01X24569D01*
G03X26700Y104658I2131J1408D01*
G01X26961D01*
X27008Y104638D01*
G03X28100Y104416I1092J2573D01*
G03X29192Y104638I0J2795D01*
G01X29239Y104658D01*
X29500D01*
G03Y109764I0J2553D01*
G01X29429D01*
G03X24747Y111396I-4684J-5905D01*
G01X14579D01*
G02X1781Y115718I-1J21105D01*
G03X-2321Y119704I-4102J-118D01*
G03X-5246Y118479I0J-4105D01*
G01X-5319Y118404D01*
X-7500Y118411D01*
Y122820D01*
X-5336Y122813D01*
X-5262Y122738D01*
G03X-2321Y121496I2941J2861D01*
G03X-1959Y121512I0J4103D01*
G03X17494Y114596I19452J23899D01*
G01X21057D01*
X21075Y114593D01*
G03X23449Y114416I2376J15864D01*
G01X28100D01*
G03X29192Y114638I0J2795D01*
G01X29239Y114658D01*
X29500D01*
G03X32054Y117211I0J2554D01*
G03X30966Y119302I-2553J0D01*
G02Y120120I287J409D01*
G03X30990Y120138I-1519J2051D01*
G01X31056Y120184D01*
X31976D01*
G03X32537Y120264I-3J2027D01*
G01X32571Y120274D01*
X32779D01*
G03X34212Y120867I1J2026D01*
G01X35212Y121867D01*
G03X35806Y123300I-1433J1434D01*
G01Y132400D01*
G03X35681Y133101I-2028J0D01*
G02X36150Y133774I469J173D01*
G01X46398D01*
G03X47831Y134367I1J2026D01*
G01X49933Y136469D01*
G03X50526Y137902I-1433J1432D01*
G01Y139657D01*
G03X51054Y141211I-2026J1555D01*
G01Y144011D01*
G03X48500Y146564I-2553J0D01*
G03X46409Y145477I-1J-2553D01*
G02X45591I-409J287D01*
G03X43500Y146564I-2090J-1466D01*
G03X41409Y145477I-1J-2553D01*
G02X40591I-409J287D01*
G03X38500Y146564I-2090J-1466D01*
G03X36075Y144809I0J-2553D01*
G01X36018Y144638D01*
X34628D01*
X28148Y151118D01*
G03X26715Y151712I-1434J-1433D01*
G01X23122D01*
X21801Y153033D01*
G03X20368Y153626I-1432J-1433D01*
G01X16217D01*
G03X14279Y154404I-1938J-2025D01*
G03X11475Y151600I0J-2804D01*
G03X13610Y148877I2804J0D01*
G01X13800Y148830D01*
Y147870D01*
X13610Y147823D01*
G03X11475Y145100I669J-2723D01*
G03X14279Y142296I2804J0D01*
G03X14495Y142304I4J2804D01*
G01X14610Y142313D01*
X14868Y142055D01*
X14218Y141405D01*
X14123Y141400D01*
G03X11475Y138600I156J-2800D01*
G03X11813Y137265I2804J0D01*
G02X11374Y136526I-439J-239D01*
G01X10818D01*
X10284Y137061D01*
X10279Y137156D01*
G03X7479Y139804I-2800J-156D01*
G03X4675Y137000I0J-2804D01*
G03X7323Y134200I2804J0D01*
G01X7418Y134195D01*
X8546Y133067D01*
G03X9979Y132474I1432J1433D01*
G01X17779D01*
G03X19212Y133067I1J2026D01*
G01X22718Y136574D01*
X26740D01*
X27695Y135618D01*
G02X27342Y134764I-353J-354D01*
G01X26700D01*
G03Y129658I0J-2553D01*
G01X29500D01*
G03X30966Y130120I1J2553D01*
G02X31752Y129711I286J-410D01*
G01Y124312D01*
X31564Y124264D01*
G03X31504Y124247I522J-1958D01*
G01X31470Y124238D01*
X31056D01*
X30990Y124284D01*
G03X29500Y124764I-1490J-2073D01*
G01X26700D01*
G03X24146Y122211I0J-2554D01*
G03X24581Y120786I2554J1D01*
G02X24167Y120006I-414J-280D01*
G01X23450D01*
G02X21736Y120149I9J10450D01*
G03X21277Y120186I-453J-2758D01*
G01X17494D01*
G02X1782Y125678I1J25224D01*
G03X-2321Y129704I-4103J-78D01*
G03X-5246Y128479I0J-4105D01*
G01X-5319Y128404D01*
X-7500Y128411D01*
Y164044D01*
G02X-6731Y164465I500J0D01*
G03X0Y162498I6732J10536D01*
G03Y187504I0J12503D01*
G03X-6731Y185537I1J-12503D01*
G02X-7500Y185958I-269J421D01*
G01Y218721D01*
X291082D01*
Y189888D01*
X293055Y187914D01*
G02X292879Y187488I-177J-176D01*
G01X292596D01*
Y183482D01*
X292600D01*
Y180488D01*
X292596D01*
Y176482D01*
X294533D01*
G03X296598Y175432I2064J1504D01*
G03X298645Y176458I1J2553D01*
G01X302002D01*
G03X302694Y176217I1094J2028D01*
G01X302900Y176180D01*
Y173613D01*
X296198Y166912D01*
Y153718D01*
G02X295738Y153220I-500J0D01*
G03X294467Y152633I162J-2020D01*
G01X274458Y132624D01*
X268328D01*
G03X267233Y132900I-1093J-2027D01*
G01X266373D01*
X266375Y132904D01*
X265160D01*
Y136253D01*
G03X265486Y136900I-477J646D01*
G01Y140400D01*
G03X264683Y141204I-804J0D01*
G01X261583D01*
G03X260780Y140400I0J-803D01*
G01Y136900D01*
G03X261106Y136253I803J-1D01*
G01Y131493D01*
X261089Y131449D01*
G03X261234Y129451I2141J-849D01*
G02X260801Y128702I-433J-249D01*
G01X199052D01*
Y131800D01*
G03X196250Y134602I-2802J0D01*
G03X195127Y134367I0J-2801D01*
G02X194426Y134825I-201J458D01*
G01Y136553D01*
G03X194754Y137200I-476J648D01*
G01Y140700D01*
G03X193950Y141504I-804J0D01*
G01X190850D01*
G03X190046Y140700I0J-804D01*
G01Y137200D01*
G03X190374Y136553I804J1D01*
G01Y132693D01*
X190356Y132649D01*
G03X192497Y129496I2141J-849D01*
G01X193448D01*
Y127950D01*
G03X194269Y125969I2802J1D01*
G01X194319Y125919D01*
G03X194478Y125772I1980J1982D01*
G02X194492Y125405I-163J-190D01*
G01X192398Y123312D01*
Y110288D01*
X195074Y107612D01*
X194915Y107436D01*
G03X193935Y104887I2825J-2549D01*
G03X201543I3804J0D01*
G03X201054Y106753I-3805J0D01*
G02X201489Y107498I435J245D01*
G01X203989D01*
G02X204424Y106753I0J-500D01*
G03X203935Y104887I3316J-1866D01*
G03X211543I3804J0D01*
G03X211491Y105513I-3804J-1D01*
G02X212338Y105949I493J82D01*
G01X213978Y104308D01*
X213992Y104230D01*
G03X217082Y101140I3747J657D01*
G01X217160Y101126D01*
X220388Y97898D01*
X238176D01*
G02X238530Y97045I0J-500D01*
G01X238382Y96897D01*
Y79073D01*
X239499Y77956D01*
G02X239348Y77145I-354J-354D01*
G03X238504Y76566I1136J-2561D01*
G01X233272Y71334D01*
G02X232599Y71303I-353J353D01*
G03X232085Y71488I-513J-618D01*
G01X226085D01*
G03X225282Y70685I0J-803D01*
G01Y64685D01*
G03X226085Y63882I803J0D01*
G01X232085D01*
G03X232888Y64646I0J804D01*
G01X232899Y64884D01*
X233585D01*
G03X235566Y65704I1J2801D01*
G01X241645Y71784D01*
X247282D01*
Y64385D01*
G03X247465Y63387I2801J-2D01*
G01X247482Y63344D01*
Y63081D01*
X247457Y63030D01*
G03X247380Y62685I726J-343D01*
G01Y50085D01*
G03X248183Y49282I803J0D01*
G01X252383D01*
G03X252849Y49430I1J803D01*
G02X253492Y49376I290J-407D01*
G01X255085Y47784D01*
X258581D01*
X261284Y50487D01*
Y71024D01*
G02X260802Y71524I18J500D01*
G01Y86098D01*
X265688D01*
X266398Y85388D01*
Y79288D01*
X266800Y78887D01*
Y76713D01*
X265782Y75695D01*
Y63997D01*
X265282Y63497D01*
Y48173D01*
X267071Y46384D01*
X272895D01*
X273538Y47026D01*
G02X274375Y46801I354J-353D01*
G03X277083Y44716I2708J716D01*
G03X279884Y47517I0J2801D01*
G01Y49689D01*
X279909Y49740D01*
G03X279986Y50085I-726J343D01*
G01Y62298D01*
X297112D01*
X299702Y64888D01*
Y75012D01*
X297012Y77702D01*
X287158D01*
G02X286714Y78431I0J500D01*
G03X286804Y78800I-714J370D01*
G01Y84800D01*
G03X286000Y85604I-804J0D01*
G01X280000D01*
G03X279693Y85542I3J-803D01*
G02X279002Y86004I-191J462D01*
G01Y101299D01*
G03X281543Y104887I-1263J3588D01*
G03X277739Y108691I-3804J0D01*
G03X277024Y108623I1J-3804D01*
G01X276894Y108598D01*
X275626Y109865D01*
Y110897D01*
G02X276314Y111360I500J-1D01*
G03X277739Y111083I1425J3527D01*
G03Y118691I0J3804D01*
G03X276314Y118414I0J-3804D01*
G02X275626Y118877I-188J464D01*
G01Y120083D01*
G03X275033Y121516I-2026J1D01*
G01X269010Y127539D01*
Y128570D01*
X275297D01*
G03X276730Y129164I-1J2027D01*
G01X296739Y149174D01*
X301144D01*
G02X301623Y148530I0J-500D01*
G03X301590Y148300I770J-228D01*
G01Y144800D01*
G03X302393Y143996I804J0D01*
G01X305493D01*
G03X306189Y144398I0J804D01*
G01X306261Y144524D01*
X307252D01*
X307278Y144518D01*
G03X307700Y144474I420J1982D01*
G03X309726Y146500I0J2026D01*
G03X309133Y147933I-2026J1D01*
G01X309083Y147983D01*
G03X307650Y148576I-1432J-1433D01*
G01X306261D01*
X306189Y148702D01*
G03X306141Y148776I-697J-400D01*
G01X306092Y148842D01*
Y149174D01*
X312600D01*
G03X314033Y149767I1J2026D01*
G01X321233Y156967D01*
G03X321826Y158400I-1433J1432D01*
G01Y159713D01*
X325787Y163674D01*
X331627D01*
G02X332019Y162863I0J-500D01*
G03X331196Y160500I2981J-2363D01*
G03X331264Y159785I3804J1D01*
G01X331289Y159655D01*
X328561Y156926D01*
X324600D01*
G03X323167Y156333I-1J-2026D01*
G01X320285Y153451D01*
G03X319692Y152018I1433J-1432D01*
G01Y150561D01*
G03X319664Y150540I1518J-2053D01*
G01X317814D01*
G03X316381Y149947I-1J-2026D01*
G01X313867Y147433D01*
G03X313274Y146000I1433J-1432D01*
G01Y144100D01*
G03X317326I2026J0D01*
G01Y145161D01*
X318653Y146488D01*
X319664D01*
G03X319716Y146449I1558J2023D01*
G01Y144579D01*
G03X318664Y142514I1501J-2065D01*
G03X319692Y140467I2554J1D01*
G01Y132926D01*
X306867D01*
G03X306763Y132924I-13J-2026D01*
G01X305735D01*
X305681Y132951D01*
G03X304638Y133200I-1042J-2054D01*
G01X303778D01*
X303780Y133204D01*
X302573D01*
X302563Y133443D01*
G03X302270Y134415I-2025J-80D01*
G01Y136253D01*
G03X302596Y136900I-477J646D01*
G01Y140400D01*
G03X301793Y141204I-804J0D01*
G01X298693D01*
G03X297890Y140400I0J-803D01*
G01Y136900D01*
G03X298216Y136253I803J-1D01*
G01Y133657D01*
G03X298479Y132659I2027J0D01*
G01X298512Y132602D01*
Y131793D01*
X298494Y131749D01*
G03X300635Y128596I2141J-849D01*
G01X302362D01*
Y119926D01*
X300967Y118532D01*
G03X300661Y118139I1434J-1432D01*
G02X299942Y117988I-429J257D01*
G03X297739Y118691I-2203J-3100D01*
G03Y111083I0J-3804D01*
G03X299626Y111584I0J3804D01*
G02X300374Y111150I248J-434D01*
G01Y110387D01*
X298584Y108598D01*
X298454Y108623D01*
G03X297739Y108691I-716J-3736D01*
G03X301543Y104887I0J-3804D01*
G03X301475Y105602I-3804J-1D01*
G01X301450Y105732D01*
X303833Y108115D01*
G03X304426Y109548I-1433J1432D01*
G01Y111629D01*
G02X305253Y112008I500J0D01*
G03X307739Y111083I2486J2878D01*
G03Y118691I0J3804D01*
G03X307010Y118621I-3J-3804D01*
G02X306414Y119111I-96J491D01*
G01Y128870D01*
X306864D01*
G03X306968Y128873I-6J2027D01*
G01X306974Y128874D01*
X330000D01*
G03X330881Y129075I1J2026D01*
G01X330933Y129100D01*
X351191D01*
X351258Y128954D01*
G03X352943Y127780I1841J846D01*
G02X353174Y127530I-19J-250D01*
G01Y118456D01*
X352581Y117864D01*
G03X351988Y116431I1433J-1432D01*
G01Y115305D01*
X351526D01*
X351491Y115514D01*
G03X347739Y118691I-3752J-627D01*
G03Y111083I0J-3804D01*
G03X351052Y113018I0J3804D01*
G02X351988Y112772I436J-245D01*
G01Y108612D01*
G03X352581Y107179I2026J-1D01*
G01X354028Y105732D01*
X354003Y105602D01*
G03X353935Y104887I3736J-716D01*
G03X356623Y101250I3805J0D01*
G01X356727Y101219D01*
X356832Y101193D01*
G03X357739Y101083I908J3694D01*
G03X358646Y101193I-1J3804D01*
G01X358676Y101200D01*
X366802D01*
X366832Y101193D01*
G03X367739Y101083I908J3694D01*
G03X368646Y101193I-1J3804D01*
G01X368676Y101200D01*
X371500D01*
Y104316D01*
X371503Y104334D01*
G03X371543Y104887I-3764J550D01*
G03X371503Y105440I-3804J3D01*
G01X371500Y105458D01*
Y114316D01*
X371503Y114334D01*
G03X371543Y114887I-3764J550D01*
G03X371503Y115440I-3804J3D01*
G01X371500Y115458D01*
Y128900D01*
X370742D01*
Y140467D01*
G03X371770Y142514I-1526J2048D01*
G03X370718Y144579I-2553J0D01*
G01Y146449D01*
G03X370770Y146488I-1506J2062D01*
G01X374114D01*
G03X375547Y147081I1J2026D01*
G01X380003Y151537D01*
G02X380856Y151184I353J-354D01*
G01Y147483D01*
G03X380580Y146388I2028J-1093D01*
G01Y143973D01*
X380576Y143972D01*
Y142385D01*
G03X380826Y141342I2304J1D01*
G01X380854Y141288D01*
Y140159D01*
G03X380856Y140055I2026J-13D01*
G01Y136200D01*
G03X384910I2027J0D01*
G01Y140156D01*
G03X384907Y140260I-2027J-6D01*
G01X384906Y140266D01*
Y141288D01*
X384934Y141342D01*
G03X385184Y142385I-2054J1044D01*
G01Y143245D01*
X385186Y143243D01*
Y146388D01*
G03X384910Y147483I-2304J2D01*
G01Y151600D01*
G03X384678Y152541I-2027J-1D01*
G02X385120Y153274I443J233D01*
G01X389800D01*
G03X391233Y153867I1J2026D01*
G01X394155Y156789D01*
X394285Y156764D01*
G03X395000Y156696I716J3736D01*
G03X395715Y156764I-1J3804D01*
G01X395845Y156789D01*
X400190Y152444D01*
Y149244D01*
G03X400193Y149140I2027J6D01*
G01X400194Y149134D01*
Y148112D01*
X400166Y148058D01*
G03X399916Y147015I2054J-1044D01*
G01Y146155D01*
X399914Y146157D01*
Y143012D01*
G03X403066Y140871I2303J0D01*
G01X403110Y140888D01*
X406500D01*
G03Y144942I0J2027D01*
G01X404520D01*
Y145427D01*
X404524Y145428D01*
Y147015D01*
G03X404274Y148058I-2304J-1D01*
G01X404246Y148112D01*
Y149241D01*
G03X404244Y149345I-2026J13D01*
G01Y153283D01*
G03X403650Y154716I-2027J-1D01*
G01X398711Y159655D01*
X398736Y159785D01*
G03X398804Y160500I-3736J716D01*
G03X391196I-3804J0D01*
G03X391264Y159785I3804J1D01*
G01X391289Y159655D01*
X388961Y157326D01*
X388373D01*
G02X387981Y158137I0J500D01*
G03X388804Y160500I-2981J2363D01*
G03X385000Y164304I-3804J0D01*
G03X382087Y162947I0J-3805D01*
G02X381351Y162915I-383J322D01*
G01X378433Y165833D01*
G03X377000Y166426I-1432J-1433D01*
G01X373500D01*
G03X372067Y165833I-1J-2026D01*
G01X368867Y162633D01*
G02X368105Y162697I-354J353D01*
G03X365000Y164304I-3105J-2196D01*
G03X361196Y160500I0J-3804D01*
G03X361264Y159785I3804J1D01*
G01X361289Y159655D01*
X358961Y157326D01*
X358373D01*
G02X357981Y158137I0J500D01*
G03X358804Y160500I-2981J2363D01*
G03X355000Y164304I-3804J0D01*
G03X354285Y164236I1J-3804D01*
G01X354155Y164211D01*
X351233Y167133D01*
G03X349800Y167726I-1432J-1433D01*
G01X331047D01*
G02X330693Y168580I0J500D01*
G01X334097Y171984D01*
X338695D01*
X340984Y174273D01*
Y180097D01*
X339195Y181886D01*
X338286D01*
Y182002D01*
X334280D01*
Y181886D01*
X330512D01*
X330451Y181925D01*
G03X330183Y182002I-267J-425D01*
G01X329383D01*
G03X329115Y181925I-1J-502D01*
G01X329054Y181886D01*
X323901D01*
G02X323547Y182740I0J500D01*
G01X323780Y182973D01*
Y190099D01*
X323782Y190114D01*
G03X323800Y190402I-2283J287D01*
G01Y191831D01*
X326036D01*
G03X326840Y192635I0J804D01*
G01Y195435D01*
G03X326036Y196239I-804J0D01*
G01X323811D01*
X323795Y196472D01*
G03X323775Y196663I-2297J-144D01*
G01X323772Y196681D01*
Y196950D01*
X325051D01*
G03X325855Y197754I0J804D01*
G01Y201080D01*
X328082D01*
Y191273D01*
X330371Y188984D01*
X336195D01*
X338484Y191273D01*
Y193273D01*
X345484Y200273D01*
Y212097D01*
X339714Y217867D01*
G02X340067Y218721I353J354D01*
G37*
G36*
G01X198700Y126500D02*
X263600D01*
X272074Y118026D01*
Y109026D01*
G03X272096Y108763I1526J-5D01*
G01X272100Y108742D01*
Y105400D01*
X274359Y103141D01*
X274377Y103107D01*
G03X275959Y101525I3362J1780D01*
G01X275993Y101507D01*
X276800Y100700D01*
Y79200D01*
X276000Y78400D01*
X270400D01*
X268600Y80200D01*
Y86300D01*
X266600Y88300D01*
X261500D01*
X261200Y88600D01*
Y96300D01*
X257400Y100100D01*
X221300D01*
X220158Y101242D01*
G02X220190Y101978I354J353D01*
G03X221543Y104887I-2451J2909D01*
G03X217739Y108691I-3804J0D01*
G03X214830Y107338I0J-3804D01*
G02X214094Y107306I-383J322D01*
G01X211700Y109700D01*
X196100D01*
X194600Y111200D01*
Y122400D01*
X198700Y126500D01*
G37*
G36*
G01X242083Y97485D02*
X256815D01*
X258600Y95700D01*
Y77188D01*
X258480D01*
Y73182D01*
X258600D01*
Y70888D01*
X258480D01*
Y66882D01*
X258600D01*
Y64778D01*
G02X259083Y64278I-17J-500D01*
G01Y51399D01*
X257669Y49985D01*
X255997D01*
X254583Y51399D01*
Y75985D01*
X252083Y78485D01*
X250994D01*
X250922Y78614D01*
G03X250483Y78872I-439J-244D01*
G01X249683D01*
G03X249244Y78614I0J-502D01*
G01X249172Y78485D01*
X246586D01*
Y78588D01*
X242580D01*
Y78485D01*
X242083D01*
X240583Y79985D01*
Y95985D01*
X242083Y97485D01*
G37*
G36*
G01X267983Y74783D02*
X268700Y75500D01*
X296100D01*
X297500Y74100D01*
Y65800D01*
X296200Y64500D01*
X273683D01*
X272483Y63300D01*
Y49085D01*
X271983Y48585D01*
X267983D01*
X267483Y49085D01*
Y62585D01*
X267983Y63085D01*
Y74783D01*
G37*
G36*
G01X263183Y86085D02*
X265183D01*
X266183Y85085D01*
Y76096D01*
X265782Y75695D01*
Y66684D01*
X265683Y66585D01*
Y63898D01*
X265282Y63497D01*
Y50085D01*
X261683D01*
Y64085D01*
X262183Y64585D01*
Y85085D01*
X263183Y86085D01*
G37*
G36*
G01X318721Y163405D02*
G03X318274Y162326I1079J-1079D01*
G01Y159274D01*
X312685Y153685D01*
X299600D01*
X298400Y154885D01*
Y166000D01*
X303800Y171400D01*
X313498D01*
X316783Y174685D01*
Y178685D01*
X317783Y179685D01*
X338283D01*
X338783Y179185D01*
Y175185D01*
X337783Y174185D01*
X333185D01*
X326226Y167226D01*
X323174D01*
G03X322095Y166779I0J-1526D01*
G01X318721Y163405D01*
G37*
G36*
G01X302984Y201080D02*
X305331D01*
Y197754D01*
G03X306135Y196950I804J0D01*
G01X307415D01*
Y196681D01*
X307412Y196662D01*
G03X307391Y196472I2275J-348D01*
G01X307375Y196239D01*
X305150D01*
G03X304346Y195435I0J-804D01*
G01Y192635D01*
G03X305150Y191831I804J0D01*
G01X305379D01*
G02X305831Y191117I0J-500D01*
G03X305560Y189916I2531J-1202D01*
G01Y188900D01*
X302984D01*
Y201080D01*
G37*
G36*
G01X294283Y218720D02*
X301418D01*
Y210185D01*
X300783D01*
Y201024D01*
X300748Y200965D01*
G03X300634Y200554I690J-413D01*
G01Y197754D01*
G03X300748Y197343I804J2D01*
G01X300783Y197284D01*
Y190283D01*
X299500Y189000D01*
X295083D01*
X293283Y190800D01*
Y217720D01*
X294283Y218720D01*
G37*
G36*
G01X319457Y189900D02*
X320879D01*
X321579Y189200D01*
Y183885D01*
X320379Y182685D01*
X317283D01*
X315350Y180365D01*
X314582Y179597D01*
Y175597D01*
X314170Y175185D01*
X311283D01*
X310783Y175685D01*
Y183000D01*
X317241Y189458D01*
X318383D01*
G03X319457Y189900I0J1526D01*
G37*
G36*
G01X329768Y218720D02*
X335748D01*
X343283Y211185D01*
Y201185D01*
X336283Y194185D01*
Y192185D01*
X335283Y191185D01*
X331283D01*
X330283Y192185D01*
Y197155D01*
G03X330552Y197754I-535J600D01*
G01Y200554D01*
G03X330283Y201153I-804J-1D01*
G01Y209185D01*
X329768Y209700D01*
Y218720D01*
G37*
%LPC*%
G75*
G36*
G01X208160Y200157D02*
Y206657D01*
G02X208963Y207460I803J0D01*
G01X215463D01*
G02X216266Y206657I0J-803D01*
G01Y200157D01*
G02X215463Y199354I-803J0D01*
G01X208963D01*
G02X208160Y200157I0J803D01*
G37*
G36*
G01X118160D02*
Y206657D01*
G02X118963Y207460I803J0D01*
G01X125463D01*
G02X126266Y206657I0J-803D01*
G01Y200157D01*
G02X125463Y199354I-803J0D01*
G01X118963D01*
G02X118160Y200157I0J803D01*
G37*
G36*
G01X12160D02*
Y206657D01*
G02X12963Y207460I803J0D01*
G01X19463D01*
G02X20266Y206657I0J-803D01*
G01Y200157D01*
G02X19463Y199354I-803J0D01*
G01X12963D01*
G02X12160Y200157I0J803D01*
G37*
G36*
G01X115480Y179185D02*
Y185185D01*
G02X116283Y185988I803J0D01*
G01X122283D01*
G02X123086Y185185I0J-803D01*
G01Y179185D01*
G02X122283Y178382I-803J0D01*
G01X116283D01*
G02X115480Y179185I0J803D01*
G37*
G36*
G01X39980Y185685D02*
Y191685D01*
G02X40783Y192488I803J0D01*
G01X46783D01*
G02X47586Y191685I0J-803D01*
G01Y185685D01*
G02X46783Y184882I-803J0D01*
G01X40783D01*
G02X39980Y185685I0J803D01*
G37*
G36*
G01X-6424Y144385D02*
Y150985D01*
G02X-5621Y151788I803J0D01*
G01X979D01*
G02X1782Y150985I0J-803D01*
G01Y144385D01*
G02X979Y143582I-803J0D01*
G01X-5621D01*
G02X-6424Y144385I0J803D01*
G37*
G36*
G01X183936Y101887D02*
Y107887D01*
G02X184739Y108690I803J0D01*
G01X190739D01*
G02X191542Y107887I0J-803D01*
G01Y101887D01*
G02X190739Y101084I-803J0D01*
G01X184739D01*
G02X183936Y101887I0J803D01*
G37*
G36*
G01X-6424Y72300D02*
Y78900D01*
G02X-5621Y79704I803J1D01*
G01X979D01*
G02X1782Y78900I-1J-804D01*
G01Y72300D01*
G02X979Y71496I-803J-1D01*
G01X-5621D01*
G02X-6424Y72300I1J804D01*
G37*
G36*
G01X27980Y-4290D02*
Y1710D01*
G02X28783Y2514I803J1D01*
G01X34783D01*
G02X35586Y1710I-1J-804D01*
G01Y-4290D01*
G02X34783Y-5094I-803J-1D01*
G01X28783D01*
G02X27980Y-4290I1J804D01*
G37*
G36*
G01X383780Y7087D02*
Y7088D01*
X383783D01*
G02X383895Y7087I-2J-6503D01*
G02X390286Y585I-112J-6502D01*
G02X383780Y7087I-6502J0D01*
G37*
G36*
G01X389576Y12450D02*
Y15550D01*
G02X390380Y16354I804J0D01*
G01X393680D01*
G02X394327Y16026I-1J-804D01*
G01X396579D01*
G02Y11974I0J-2026D01*
G01X394327D01*
G02X393680Y11646I-648J476D01*
G01X390380D01*
G02X389576Y12450I0J804D01*
G37*
G36*
G01X14476Y23502D02*
X14479D01*
X14591D01*
G02X20982Y17000I-112J-6502D01*
G02X14476Y23502I-6502J0D01*
G37*
G36*
G01X389876Y22550D02*
Y25650D01*
G02X390680Y26454I804J0D01*
G01X393980D01*
G02X394627Y26126I-1J-804D01*
G01X396779D01*
G02Y22074I0J-2026D01*
G01X394627D01*
G02X393980Y21746I-648J476D01*
G01X390680D01*
G02X389876Y22550I0J804D01*
G37*
G36*
G01X387732Y69988D02*
G03X388060Y69995I160J192D01*
G02X389428Y70526I1367J-1495D01*
G01X404100D01*
G02Y66474I0J-2026D01*
G01X397600D01*
Y65591D01*
X397623Y65541D01*
G02X397806Y64700I-1844J-842D01*
G02X397623Y63859I-2027J1D01*
G01X397600Y63809D01*
Y63326D01*
X404100D01*
G02Y59274I0J-2026D01*
G01X397600D01*
Y54726D01*
X398874D01*
G02X400207Y54226I0J-2027D01*
G01X401100D01*
G02Y50174I0J-2026D01*
G01X399374D01*
G02X398107Y50619I0J2026D01*
G01X398038Y50674D01*
X397600D01*
Y49991D01*
X397623Y49941D01*
G02X397806Y49100I-1844J-842D01*
G02X397623Y48259I-2027J1D01*
G01X397600Y48209D01*
Y46726D01*
X399900D01*
G02Y42674I0J-2026D01*
G01X398350D01*
G03X397881Y42001I0J-500D01*
G02X398006Y41300I-1903J-701D01*
G02X397600Y40084I-2027J1D01*
G01Y38300D01*
X388169D01*
G03X387672Y37746I0J-500D01*
G02X387683Y37550I-1793J-199D01*
G02X384075I-1804J0D01*
G02X384086Y37746I1804J-3D01*
G03X383589Y38300I-497J54D01*
G01X382700D01*
Y69100D01*
X384837D01*
X384900Y69259D01*
G02X386579Y70404I1679J-659D01*
G02X387732Y69988I1J-1804D01*
G37*
G36*
G01X389476Y79550D02*
Y82650D01*
G02X390280Y83454I804J0D01*
G01X393580D01*
G02X394227Y83126I-1J-804D01*
G01X396070D01*
X396106Y83137D01*
G02X396700Y83226I594J-1938D01*
G02X398726Y81200I0J-2026D01*
G02X398133Y79767I-2026J-1D01*
G01X398033Y79667D01*
G02X396600Y79074I-1432J1433D01*
G01X394227D01*
G02X393580Y78746I-648J476D01*
G01X390280D01*
G02X389476Y79550I0J804D01*
G37*
G36*
G01X215922Y81785D02*
G02X214446Y84100I1077J2315D01*
G02X215498Y86165I2553J0D01*
G01Y88102D01*
X219502D01*
Y86902D01*
X227170D01*
G02X229151Y86081I-1J-2802D01*
G01X231066Y84166D01*
G02X231886Y82185I-1981J-1980D01*
G01Y80258D01*
G02X232889Y77685I-2801J-2574D01*
G02X225281I-3804J0D01*
G02X226222Y80189I3804J-1D01*
G01X226284Y80260D01*
Y81025D01*
X226010Y81298D01*
X217500D01*
G02X215922Y81785I1J2802D01*
G37*
G36*
G01X264480Y144800D02*
Y148300D01*
G02X265283Y149104I803J1D01*
G01X268383D01*
G02X269079Y148702I0J-804D01*
G01X269151Y148576D01*
X270450D01*
G02X271883Y147983I1J-2026D01*
G01X272033Y147833D01*
G02X272626Y146400I-1433J-1432D01*
G02X270600Y144374I-2026J0D01*
G02X269877Y144507I-1J2026D01*
G01X269833Y144524D01*
X269151D01*
X269079Y144398D01*
G02X268383Y143996I-696J402D01*
G01X265283D01*
G02X264480Y144800I1J804D01*
G37*
G36*
G01X193746Y145100D02*
Y148600D01*
G02X194550Y149404I804J0D01*
G01X197650D01*
G02X198346Y149002I0J-804D01*
G01X198418Y148876D01*
X201050D01*
G02X202483Y148283I1J-2026D01*
G01X202633Y148133D01*
G02X203226Y146700I-1433J-1432D01*
G02X201200Y144674I-2026J0D01*
G02X200477Y144807I-1J2026D01*
G01X200433Y144824D01*
X198418D01*
X198346Y144698D01*
G02X197650Y144296I-696J402D01*
G01X194550D01*
G02X193746Y145100I0J804D01*
G37*
G36*
G01X214746D02*
Y148600D01*
G02X215550Y149404I804J0D01*
G01X218650D01*
G02X219346Y149002I0J-804D01*
G01X219418Y148876D01*
X220633D01*
X220677Y148893D01*
G02X221400Y149026I722J-1893D01*
G02X223426Y147000I0J-2026D01*
G02X222833Y145567I-2026J-1D01*
G01X222683Y145417D01*
G02X221250Y144824I-1432J1433D01*
G01X219418D01*
X219346Y144698D01*
G02X218650Y144296I-696J402D01*
G01X215550D01*
G02X214746Y145100I0J804D01*
G37*
G36*
G01X276Y204102D02*
X279D01*
X391D01*
G02X6782Y197600I-112J-6502D01*
G02X276Y204102I-6502J0D01*
G37*
G36*
G01X338998Y95412D02*
X341288Y97702D01*
X357712D01*
X360302Y95112D01*
Y83788D01*
X359068Y82555D01*
G03X359422Y81702I354J-353D01*
G01X363612D01*
X367802Y77512D01*
Y66588D01*
X365980Y64767D01*
X367160Y63586D01*
X374024D01*
G02X376826Y60785I1J-2801D01*
G02X375806Y58624I-2801J1D01*
G03X375713Y57953I318J-386D01*
G02X376078Y56785I-1689J-1169D01*
G02X376053Y56469I-2054J3D01*
G01X376050Y56449D01*
Y55648D01*
X376854Y54845D01*
G02X377448Y53412I-1433J-1434D01*
G01Y50637D01*
G02X377925Y45496I-1563J-2738D01*
G01X371650D01*
G02X371434Y45872I0J250D01*
G01X372605Y47900D01*
X371566Y49700D01*
X369400D01*
X368361Y47900D01*
X369532Y45872D01*
G02X369316Y45496I-216J-126D01*
G01X366102D01*
Y29188D01*
X363512Y26598D01*
X351988D01*
X349198Y29388D01*
Y40598D01*
X334012D01*
X329212Y35798D01*
X314998D01*
Y53612D01*
X316488Y55102D01*
X326612D01*
X331812Y49902D01*
X339278D01*
G03X339632Y50755I0J500D01*
G01X339098Y51288D01*
Y62712D01*
X340821Y64434D01*
G03X340731Y65212I-354J353D01*
G02X340352Y65895I424J682D01*
G01Y70595D01*
G02X340361Y70720I803J5D01*
G03X339868Y71298I-494J78D01*
G01X332312D01*
X328612Y67598D01*
X314398D01*
Y85412D01*
X315888Y86902D01*
X326012D01*
X331212Y81702D01*
X340078D01*
G03X340432Y82555I0J500D01*
G01X338998Y83988D01*
Y95412D01*
G37*
G36*
G01X383531Y83126D02*
G02X384178Y83454I648J-476D01*
G01X387478D01*
G02X388282Y82650I0J-804D01*
G01Y79550D01*
G02X387880Y78854I-804J0D01*
G03X387755Y78091I250J-433D01*
G02X388204Y76900I-1355J-1191D01*
G02X384596I-1804J0D01*
G02X384936Y77954I1804J0D01*
G03X384530Y78746I-406J292D01*
G01X384178D01*
G02X383531Y79074I1J804D01*
G01X381700D01*
G02X380267Y79667I-1J2026D01*
G01X380167Y79767D01*
G02X379574Y81200I1433J1432D01*
G02X381600Y83226I2026J0D01*
G02X382194Y83137I0J-2027D01*
G01X382230Y83126D01*
X383531D01*
G37*
G36*
G01X384202Y26371D02*
Y31100D01*
G02X388254I2026J0D01*
G01Y26371D01*
X388356Y26296D01*
G02X388682Y25650I-477J-646D01*
G01Y22550D01*
G02X387878Y21746I-804J0D01*
G01X384578D01*
G02X383774Y22550I0J804D01*
G01Y23121D01*
X383399D01*
X383324Y23020D01*
G02X381879Y22296I-1445J1080D01*
G02Y25904I0J1804D01*
G02X383324Y25180I0J-1804D01*
G01X383399Y25079D01*
X383774D01*
Y25650D01*
G02X384100Y26296I803J0D01*
G01X384202Y26371D01*
G37*
G36*
G01X382367Y17767D02*
G02X381774Y19200I1433J1432D01*
G02X383800Y21226I2026J0D01*
G02X385233Y20633I1J-2026D01*
G01X387361Y18505D01*
G02X387954Y17072I-1433J-1432D01*
G01Y16271D01*
X388056Y16196D01*
G02X388382Y15550I-477J-646D01*
G01Y12450D01*
G02X387578Y11646I-804J0D01*
G01X384278D01*
G02X383474Y12450I0J804D01*
G01Y12531D01*
G03X382589Y12849I-500J-1D01*
G02X381200Y12196I-1389J1151D01*
G02Y15804I0J1804D01*
G02X382589Y15151I0J-1804D01*
G03X383474Y15469I385J319D01*
G01Y15550D01*
G02X383692Y16100I803J0D01*
G01X383858Y16276D01*
X382367Y17767D01*
G37*
G36*
G01X77980Y190185D02*
G02X78783Y190988I803J0D01*
G01X84783D01*
G02X85586Y190185I0J-803D01*
G01Y184185D01*
G02X85102Y183447I-803J-1D01*
G03X84946Y182635I198J-459D01*
G01X87984Y179597D01*
Y156773D01*
X86951Y155740D01*
G03X87305Y154886I354J-354D01*
G01X89781D01*
X91728Y152939D01*
G03X92582Y153293I354J354D01*
G01Y164097D01*
X95371Y166886D01*
X107371D01*
X108582Y168097D01*
Y174097D01*
X111871Y177386D01*
X121695D01*
X124334Y174747D01*
X125788Y176202D01*
X133612D01*
X136502Y173312D01*
Y164188D01*
X135902Y163588D01*
Y159502D01*
X136286D01*
Y155498D01*
X135902D01*
Y152912D01*
X136802Y152012D01*
Y147402D01*
X149912D01*
X152402Y144912D01*
Y131373D01*
G03X153255Y131020I500J1D01*
G01X179568Y157333D01*
G02X181001Y157926I1432J-1433D01*
G01X222300D01*
G02X223733Y157333I1J-2026D01*
G01X230233Y150833D01*
G02X230826Y149400I-1433J-1432D01*
G01Y134200D01*
G02X230233Y132767I-2026J-1D01*
G01X227633Y130167D01*
G02X226200Y129574I-1432J1433D01*
G01X222800D01*
G02X221969Y129752I-1J2026D01*
G01X221921Y129774D01*
X219836D01*
X219830Y129773D01*
G02X219726Y129770I-110J2024D01*
G01X218597D01*
X218543Y129743D01*
G02X217500Y129494I-1042J2054D01*
G01X215913D01*
X215912Y129496D01*
X213497D01*
G02X211356Y132649I0J2304D01*
G01X211374Y132693D01*
Y136553D01*
G02X211046Y137200I476J648D01*
G01Y140700D01*
G02X211850Y141504I804J0D01*
G01X214950D01*
G02X215754Y140700I0J-804D01*
G01Y137200D01*
G02X215426Y136553I-804J1D01*
G01Y134104D01*
X217438D01*
X217442Y134101D01*
X217509Y134100D01*
G02X218543Y133851I-8J-2303D01*
G01X218597Y133824D01*
X219625D01*
G02X219729Y133826I91J-2024D01*
G01X222600D01*
G02X223431Y133648I1J-2026D01*
G01X223479Y133626D01*
X225361D01*
X226774Y135039D01*
Y148561D01*
X221461Y153874D01*
X181840D01*
X152285Y124318D01*
G02X150852Y123724I-1434J1433D01*
G01X146894D01*
G03X146531Y122880I0J-500D01*
G02X147302Y120951I-2031J-1930D01*
G01Y116438D01*
G02X146904Y114999I-2802J0D01*
G01Y104059D01*
G02X146526Y103684I-2401J2042D01*
G01Y102300D01*
G02X145933Y100867I-2026J-1D01*
G01X144833Y99767D01*
G02X143801Y99213I-1434J1433D01*
G01X143600Y99173D01*
Y98113D01*
X149412Y92302D01*
X178798D01*
Y95312D01*
X181488Y98002D01*
X209512D01*
X213802Y93712D01*
Y70812D01*
X232302Y52312D01*
Y32502D01*
X239212D01*
X240902Y30812D01*
Y16988D01*
X239212Y15298D01*
X232688D01*
X232687Y15300D01*
X230713D01*
X230712Y15298D01*
X225888D01*
X224198Y16988D01*
Y23598D01*
X217788D01*
X215698Y25688D01*
Y37312D01*
X217888Y39502D01*
X218382D01*
G03X218558Y39928I-1J250D01*
G01X213998Y44488D01*
Y46278D01*
G03X213145Y46632I-500J0D01*
G01X211412Y44898D01*
X179188D01*
X176198Y47888D01*
Y56399D01*
G03X175345Y56753I-500J0D01*
G01X165780Y47188D01*
Y25569D01*
X135410Y-4802D01*
X61867D01*
X55098Y1967D01*
Y9354D01*
X48963D01*
G02X48160Y10157I0J803D01*
G01Y16657D01*
G02X48963Y17460I803J0D01*
G01X55098D01*
Y18512D01*
X57888Y21302D01*
X66712D01*
X69902Y18112D01*
Y17585D01*
G03X70600Y17126I500J0D01*
G02X72213Y17461I1614J-3719D01*
G02X76267Y13407I0J-4054D01*
G02X75709Y11355I-4054J0D01*
G03X76140Y10602I431J-253D01*
G01X78286D01*
G03X78717Y11355I0J500D01*
G02X78159Y13407I3496J2052D01*
G02X86267I4054J0D01*
G02X85709Y11355I-4054J0D01*
G03X86140Y10602I431J-253D01*
G01X88286D01*
G03X88717Y11355I0J500D01*
G02X88159Y13407I3496J2052D01*
G02X96267I4054J0D01*
G02X95709Y11355I-4054J0D01*
G03X96140Y10602I431J-253D01*
G01X118286D01*
G03X118717Y11355I0J500D01*
G02X118159Y13407I3496J2052D01*
G02X126267I4054J0D01*
G01Y13390D01*
G03X127120Y13034I500J-2D01*
G01X128582Y14495D01*
Y24238D01*
G03X127951Y24720I-500J-1D01*
G02X127283Y24632I-665J2465D01*
G01X126283D01*
G02X124729Y25158I-2J2554D01*
G01X122622D01*
X121216Y23752D01*
G02X119783Y23158I-1434J1433D01*
G01X115669D01*
X115649Y23156D01*
G02X115333Y23131I-319J2029D01*
G02X113478Y24304I0J2053D01*
G02X113333Y24282I-147J481D01*
G02X113188Y24304I2J503D01*
G02X111333Y23131I-1855J880D01*
G02X111017Y23156I3J2054D01*
G01X110997Y23158D01*
X106771D01*
G02X104833Y22381I-1938J2028D01*
G02Y27989I0J2804D01*
G02X106771Y27212I0J-2805D01*
G01X109306D01*
Y30167D01*
X109181Y30239D01*
G02X108780Y30935I402J695D01*
G01Y34035D01*
G02X109181Y34731I803J1D01*
G01X109306Y34803D01*
Y37567D01*
X109181Y37639D01*
G02X109082Y37707I404J694D01*
G03X108757Y37695I-155J-196D01*
G02X107383Y37158I-1374J1489D01*
G01X105438D01*
G02X103500Y36381I-1938J2028D01*
G02X101008Y37900I0J2804D01*
G01X99600D01*
Y39429D01*
G03X98746Y39783I-500J0D01*
G01X98088Y39124D01*
X98083Y39029D01*
G02X95283Y36381I-2800J156D01*
G02X92791Y37900I0J2804D01*
G01X90275D01*
G02X87783Y36381I-2492J1285D01*
G02X84983Y39029I0J2804D01*
G01X84978Y39124D01*
X82067Y42035D01*
G02X81474Y43468I1433J1432D01*
G01Y53857D01*
G02X80946Y55411I2026J1555D01*
G01Y58211D01*
G02X83500Y60764I2554J-1D01*
G02X85591Y59677I1J-2553D01*
G03X86409I409J287D01*
G02X88500Y60764I2090J-1466D01*
G02X90591Y59677I1J-2553D01*
G03X91409I409J287D01*
G02X93500Y60764I2090J-1466D01*
G02X95591Y59677I1J-2553D01*
G03X96409I409J287D01*
G02X98500Y60764I2090J-1466D01*
G02X100591Y59677I1J-2553D01*
G03X101409I409J287D01*
G02X103500Y60764I2090J-1466D01*
G02X106054Y58211I1J-2553D01*
G01Y55411D01*
G02X105526Y53857I-2554J1D01*
G01Y49001D01*
G03X106380Y48648I500J0D01*
G01X111874Y54141D01*
Y64729D01*
X111702Y64786D01*
G02X109946Y67211I797J2426D01*
G02X111034Y69302I2553J0D01*
G03X110907Y70184I-287J409D01*
G01X80350D01*
X78533Y68367D01*
G02X77100Y67774I-1432J1433D01*
G02X75074Y69800I0J2026D01*
G02X75667Y71233I2026J1D01*
G01X78078Y73644D01*
G02X79511Y74238I1434J-1433D01*
G01X110907D01*
G03X111034Y75120I-160J473D01*
G02Y79302I1465J2091D01*
G03Y80120I-287J409D01*
G02Y84302I1465J2091D01*
G03Y85120I-287J409D01*
G02Y89302I1465J2091D01*
G03Y90120I-287J409D01*
G02Y94302I1465J2091D01*
G03Y95120I-287J409D01*
G02Y99302I1465J2091D01*
G03Y100120I-287J409D01*
G02Y104302I1465J2091D01*
G03Y105120I-287J409D01*
G02X109946Y107211I1465J2091D01*
G02X112500Y109764I2554J-1D01*
G01X115300D01*
G02X116790Y109284I0J-2553D01*
G01X116856Y109238D01*
X117300D01*
Y115184D01*
X116856D01*
X116790Y115138D01*
G02X115300Y114658I-1490J2073D01*
G01X112500D01*
G02X109946Y117211I-1J2553D01*
G02X111034Y119302I2553J0D01*
G03Y120120I-287J409D01*
G02Y124302I1465J2091D01*
G03Y125120I-287J409D01*
G02Y129302I1465J2091D01*
G03Y130120I-287J409D01*
G02X109946Y132211I1465J2091D01*
G02X111908Y134695I2553J0D01*
G01X112100Y134741D01*
Y140584D01*
X105982D01*
X105925Y140413D01*
G02X103500Y138658I-2425J798D01*
G02X103069Y138694I-4J2553D01*
G03X102484Y138201I-85J-493D01*
G01Y132773D01*
X100152Y130440D01*
X96828D01*
X94582Y132687D01*
Y146886D01*
X102503D01*
G03X103069Y146528I481J135D01*
G02X103500Y146564I427J-2517D01*
G02X103918Y146530I3J-2553D01*
G03X104500Y147023I82J493D01*
G01Y152484D01*
X92484D01*
Y138773D01*
X90695Y136984D01*
X86371D01*
X84499Y138856D01*
X84350Y138803D01*
G02X83500Y138658I-848J2408D01*
G02X80946Y141211I-1J2553D01*
G01Y144011D01*
G02X81582Y145696I2554J-1D01*
G01Y152484D01*
X67484D01*
Y138886D01*
X70698D01*
Y142611D01*
G02X70926Y143717I2802J-1D01*
G01X70946Y143765D01*
Y144011D01*
G02X76054I2554J0D01*
G01Y143765D01*
X76074Y143717D01*
G02X76302Y142611I-2574J-1107D01*
G01Y139280D01*
X78984Y136597D01*
Y123273D01*
X76195Y120484D01*
X64371D01*
X60582Y124273D01*
Y134570D01*
G03X59842Y135009I-500J0D01*
G02X58500Y134666I-1343J2459D01*
G02X55698Y137468I0J2802D01*
G01Y142611D01*
G02X55926Y143717I2802J-1D01*
G01X55946Y143765D01*
Y144011D01*
G02X56444Y145525I2554J-1D01*
G01X56571Y145698D01*
X55082Y147187D01*
Y165216D01*
X55088Y165221D01*
Y178522D01*
X59452Y182886D01*
X77753D01*
G03X78148Y183693I0J500D01*
G02X77980Y184185I635J492D01*
G01Y190185D01*
G37*
G54D69*
X246083Y91985D03*
G54D68*
X36213Y203407D03*
X26213D03*
X76213D03*
X66213D03*
X56213D03*
X106213D03*
X96213D03*
X86213D03*
X132213D03*
X162213D03*
X152213D03*
X142213D03*
X192213D03*
X182213D03*
X172213D03*
X222213D03*
X252213D03*
X242213D03*
X232213D03*
X282213D03*
X272213D03*
X262213D03*
G54D67*
X-2321Y135600D03*
G54D66*
X287739Y104887D03*
X307739D03*
X317739D03*
X327739D03*
X337739D03*
X347739D03*
X187739Y114887D03*
X287739D03*
X317739D03*
X327739D03*
X337739D03*
X377739D03*
X33783Y188685D03*
X227739Y104887D03*
X237739D03*
X247739D03*
X257739D03*
X267739D03*
X207739Y114887D03*
X217739D03*
X227739D03*
X237739D03*
X247739D03*
X257739D03*
X267739D03*
G54D65*
X323400Y-115D03*
X374384Y206235D03*
%LPD*%
G75*
G36*
G01X140800Y95700D02*
X142900D01*
X148500Y90100D01*
X177500D01*
X178300Y89300D01*
Y80500D01*
X177809Y80010D01*
X175992D01*
G03X173690Y77708I0J-2302D01*
G03X174000Y76555I2302J1D01*
G01Y58521D01*
X163579Y48100D01*
Y26481D01*
X134498Y-2600D01*
X62779D01*
X57300Y2879D01*
Y17600D01*
X58800Y19100D01*
X65800D01*
X67700Y17200D01*
Y11900D01*
X71200Y8400D01*
X125600D01*
X130783Y13583D01*
Y29185D01*
X131283Y29685D01*
X138783D01*
X139783Y28685D01*
Y24185D01*
X140783Y23185D01*
X144283D01*
X145283Y24185D01*
Y29185D01*
X145783Y29685D01*
X149783D01*
X150783Y30685D01*
Y53185D01*
X149283Y54685D01*
X146283D01*
X145783Y55185D01*
Y70600D01*
X146500Y71317D01*
Y82468D01*
X140283Y88685D01*
Y95183D01*
X140800Y95700D01*
G37*
G36*
G01X65283Y122685D02*
X62783Y125185D01*
Y134685D01*
X64783Y136685D01*
X75783D01*
X76783Y135685D01*
Y124185D01*
X75283Y122685D01*
X65283D01*
G37*
G36*
G01X58197Y152185D02*
X64369D01*
X65283Y151271D01*
Y139685D01*
X64783Y139185D01*
X62283D01*
X61783Y139685D01*
Y145685D01*
X60783Y146685D01*
X58697D01*
X57283Y148099D01*
Y151271D01*
X58197Y152185D01*
G37*
G36*
G01X83783Y180685D02*
X85783Y178685D01*
Y157685D01*
X82783Y154685D01*
X57283D01*
Y164185D01*
X57289Y164190D01*
Y177610D01*
X60364Y180685D01*
X83783D01*
G37*
G36*
G01X100283Y144685D02*
Y133685D01*
X99240Y132642D01*
X97740D01*
X96783Y133599D01*
Y144685D01*
X100283D01*
G37*
G36*
G01X123283Y172685D02*
Y159599D01*
X118369Y154685D01*
X94783D01*
Y163185D01*
X96283Y164685D01*
X108283D01*
X110783Y167185D01*
Y173185D01*
X112783Y175185D01*
X120783D01*
X123283Y172685D01*
G37*
G36*
G01X84283Y152685D02*
X88869D01*
X90283Y151271D01*
Y139685D01*
X89783Y139185D01*
X87283D01*
X86783Y139685D01*
Y145685D01*
X85783Y146685D01*
X84283D01*
X83783Y147185D01*
Y152185D01*
X84283Y152685D01*
G37*
G36*
G01X143534Y78000D02*
X144298D01*
Y72229D01*
X143582Y71512D01*
Y54273D01*
X145371Y52484D01*
X148371D01*
X148582Y52273D01*
Y51489D01*
X125833D01*
G03X125029Y50685I0J-804D01*
G01Y47212D01*
X122283D01*
G03X120850Y46618I1J-2027D01*
G01X117800Y43568D01*
G03X117206Y42135I1433J-1434D01*
G01Y38503D01*
X117081Y38431D01*
G03X116680Y37735I402J-695D01*
G01Y34635D01*
G03X117483Y33832I803J0D01*
G01X120983D01*
G03X121786Y34635I0J803D01*
G01Y37735D01*
G03X121385Y38431I-803J1D01*
G01X121260Y38503D01*
Y41296D01*
X123122Y43158D01*
X125029D01*
Y39685D01*
G03X125833Y38881I804J0D01*
G01X130256D01*
Y33021D01*
X130254Y33001D01*
G03X130229Y32685I2029J-319D01*
G03X130332Y32042I2054J-1D01*
G01X130380Y31896D01*
X129212Y30728D01*
G02X128786Y30904I-176J177D01*
G01Y31188D01*
X124780D01*
Y29250D01*
G03X124729Y29212I1500J-2067D01*
G01X121783D01*
G03X120350Y28618I1J-2027D01*
G01X118944Y27212D01*
X115669D01*
X115649Y27214D01*
G03X115333Y27239I-319J-2029D01*
G03X114148Y26863I0J-2055D01*
G02X113360Y27271I-288J408D01*
G01Y30167D01*
X113485Y30239D01*
G03X113886Y30935I-402J695D01*
G01Y34035D01*
G03X113485Y34731I-803J1D01*
G01X113360Y34803D01*
Y37567D01*
X113485Y37639D01*
G03X113886Y38335I-402J695D01*
G01Y41435D01*
G03X113083Y42238I-803J0D01*
G01X109410D01*
Y45946D01*
X115333Y51869D01*
G03X115926Y53302I-1433J1432D01*
G01Y64729D01*
X116098Y64786D01*
G03X117854Y67211I-797J2426D01*
G03X116766Y69302I-2553J0D01*
G02Y70120I287J409D01*
G03Y74302I-1465J2091D01*
G02X116893Y75184I287J409D01*
G01X122229D01*
X122248Y75182D01*
G03X122333Y75171I302J2003D01*
G03X124283Y74381I1951J2014D01*
G03X127087Y77185I0J2804D01*
G03X127074Y77452I-2804J-3D01*
G02X127572Y78000I498J48D01*
G01X128994D01*
G02X129492Y77452I0J-500D01*
G03X129479Y77185I2791J-270D01*
G03X135087I2804J0D01*
G03X135074Y77452I-2804J-3D01*
G02X135572Y78000I498J48D01*
G01X137102D01*
X137978Y77124D01*
X137983Y77029D01*
G03X140783Y74381I2800J156D01*
G03X143587Y77185I0J2804D01*
G03X143539Y77704I-2804J2D01*
G01X143534Y77727D01*
Y78000D01*
G37*
G36*
G01X130400Y141379D02*
Y145000D01*
X130600Y145200D01*
X149000D01*
X150200Y144000D01*
Y129000D01*
X148600Y127400D01*
X138400D01*
X137600Y128200D01*
Y133800D01*
X136511Y134889D01*
X136495Y134959D01*
G03X136087Y135691I-1486J-349D01*
G01X130400Y141379D01*
G37*
G36*
G01X132700Y174000D02*
X134300Y172400D01*
Y165100D01*
X133700Y164500D01*
Y152000D01*
X134600Y151100D01*
Y148200D01*
X133900Y147500D01*
X127300D01*
X125700Y149100D01*
Y173000D01*
X126700Y174000D01*
X132700D01*
G37*
G36*
G01X182159Y78100D02*
X182700D01*
X183400Y77400D01*
Y72785D01*
X183294Y72711D01*
G03X183082Y72300I291J-410D01*
G01Y71500D01*
G03X183294Y71089I503J-1D01*
G01X183400Y71015D01*
Y68815D01*
X183294Y68741D01*
G03X183082Y68330I291J-410D01*
G01Y67530D01*
G03X183294Y67119I503J-1D01*
G01X183400Y67045D01*
Y60500D01*
X185500Y58400D01*
X207800D01*
X212100Y54100D01*
Y48700D01*
X210500Y47100D01*
X180100D01*
X178400Y48800D01*
Y73900D01*
X180600Y76100D01*
Y76441D01*
X180663Y76512D01*
G03X181116Y77636I-1347J1196D01*
G02X181356Y77876I250J-10D01*
G03X182105Y78073I-73J1800D01*
G01X182159Y78100D01*
G37*
G36*
G01X187145Y69956D02*
G02X186976Y70390I0J250D01*
G03X187638Y71900I-1391J1510D01*
G03X185602Y73954I-2054J0D01*
G01Y78312D01*
X184391Y79522D01*
X184561Y79699D01*
G03X185201Y81253I-1661J1593D01*
G01X185205Y81498D01*
X192312D01*
X192826Y82013D01*
G02X193680Y81659I354J-354D01*
G01Y81635D01*
G03X194483Y80832I803J0D01*
G01X197985D01*
G03X198630Y81158I-1J803D01*
G01X199685D01*
G03X199936Y81174I-3J2027D01*
G02X200498Y80678I62J-496D01*
G01Y69800D01*
X198482D01*
X198438Y69817D01*
G03X197701Y69956I-738J-1887D01*
G01X187145D01*
G37*
G36*
G01X182400Y95800D02*
X208600D01*
X211600Y92800D01*
Y69900D01*
X230100Y51400D01*
Y30488D01*
X229468D01*
G03X229252Y30113I0J-250D01*
G01X230100Y28645D01*
Y27525D01*
X229252Y26057D01*
G03X229468Y25682I216J-125D01*
G01X230100D01*
Y17800D01*
X229800Y17500D01*
X226800D01*
X226400Y17900D01*
Y25682D01*
X227134D01*
G03X227350Y26057I0J250D01*
G01X226502Y27526D01*
Y28644D01*
X227350Y30113D01*
G03X227134Y30488I-216J125D01*
G01X226502D01*
Y35112D01*
X226400Y35213D01*
Y36400D01*
X224600Y38200D01*
X223413D01*
X222112Y39502D01*
X222099D01*
X216200Y45400D01*
Y54000D01*
X202700Y67500D01*
Y85000D01*
X199600Y88100D01*
X195800D01*
X191400Y83700D01*
X181800D01*
X181000Y84500D01*
Y94400D01*
X182400Y95800D01*
G37*
G36*
G01X217900Y26600D02*
Y36400D01*
X218800Y37300D01*
X221200D01*
X224300Y34200D01*
Y27200D01*
X222900Y25800D01*
X218700D01*
X217900Y26600D01*
G37*
G36*
G01X232600Y29700D02*
X233200Y30300D01*
X238300D01*
X238700Y29900D01*
Y17900D01*
X238300Y17500D01*
X233600D01*
X232600Y18500D01*
Y29700D01*
G37*
G36*
G01X283933Y42135D02*
X284933Y41135D01*
Y135D01*
X283933Y-865D01*
X243433D01*
X242433Y135D01*
Y41135D01*
X243433Y42135D01*
X283933D01*
G37*
G36*
G01X360300Y47700D02*
X363900Y44100D01*
Y30100D01*
X362600Y28800D01*
X352900D01*
X351400Y30300D01*
Y42200D01*
X350800Y42800D01*
X333100D01*
X328300Y38000D01*
X317200D01*
Y52700D01*
X317400Y52900D01*
X325700D01*
X330900Y47700D01*
X360300D01*
G37*
G36*
G01X316800Y84700D02*
X325100D01*
X330300Y79500D01*
X362700D01*
X365600Y76600D01*
Y67500D01*
X363600Y65500D01*
X359455D01*
X355082Y69872D01*
G03X353852Y70512I-1628J-1627D01*
G01X353774Y70526D01*
X350800Y73500D01*
X331400D01*
X327700Y69800D01*
X316600D01*
Y84500D01*
X316800Y84700D01*
G37*
G36*
G01X358200Y52000D02*
X357600Y51400D01*
X342100D01*
X341300Y52200D01*
Y61800D01*
X342300Y62800D01*
X355645D01*
X357673Y60773D01*
G03X358200Y60378I1630J1625D01*
G01Y52000D01*
G37*
G36*
G01X342000Y84100D02*
X341200Y84900D01*
Y94500D01*
X342200Y95500D01*
X356800D01*
X358100Y94200D01*
Y84700D01*
X357500Y84100D01*
X342000D01*
G37*
%LPC*%
G75*
G36*
G01X125029Y59521D02*
G02X124482Y61185I2254J1663D01*
G01Y69685D01*
G02X130084I2801J0D01*
G01Y67489D01*
X133733D01*
G02X134537Y66685I0J-804D01*
G01Y55685D01*
G02X133733Y54881I-804J0D01*
G01X125833D01*
G02X125029Y55685I0J804D01*
G01Y59521D01*
G37*
%LPD*%
G75*
G54D10*
G01X-61406Y100759D02*
Y105900D01*
G01Y110459D02*
Y105900D01*
G01X385462Y-243315D02*
Y-343315D01*
X-14538D01*
G01D02*
Y-243315D01*
X385462D01*
G01X28100Y77211D02*
X33283D01*
G01X28100Y127211D02*
X21283D01*
G01X61783Y37685D02*
Y33185D01*
G01X69283Y37685D02*
Y33185D01*
G01X48500Y56811D02*
Y63468D01*
G01X73500Y142611D02*
Y136902D01*
X71283Y134685D01*
G01X53500Y142611D02*
Y137468D01*
G01X58500Y142611D02*
Y137468D01*
G01X68500Y142611D02*
Y150685D01*
G01X78500Y142611D02*
Y145441D01*
X76181Y147760D01*
G01X62283Y150685D02*
X63500Y149468D01*
Y142611D01*
G01X78500Y56811D02*
Y63468D01*
G01X98500Y137761D02*
Y134261D01*
G01X88500Y142611D02*
Y150568D01*
G01X94283Y150685D02*
X93500Y149902D01*
Y142611D01*
G01X98500D02*
Y137761D01*
G01X127283Y61185D02*
Y69685D01*
G01X113900Y112211D02*
X107809D01*
G01X129900Y110100D02*
X127990D01*
X127090Y109200D01*
G01X136283Y163300D02*
X139300D01*
G01X147283Y61185D02*
Y69685D01*
G01X142283Y61185D02*
Y69685D01*
G01X137283Y61185D02*
Y69685D01*
G01X137200Y101200D02*
Y103000D01*
X139200Y105000D01*
X140300D01*
G01X137783Y89711D02*
X141783D01*
G01X137783Y97211D02*
X139089D01*
X142000Y94300D01*
G01X144500Y116438D02*
Y120951D01*
G01X142125Y123523D02*
X141502Y122900D01*
X141500D01*
X140813Y122213D01*
X138100D01*
G01X138283Y157500D02*
X141800D01*
G01X185584Y71900D02*
X188600D01*
G01X229085Y77685D02*
Y82185D01*
X227170Y84100D01*
X217500D01*
G01X196250Y131800D02*
Y127950D01*
X196300Y127900D01*
G01X234075Y22668D02*
Y19168D01*
G01X237575Y22668D02*
Y19168D01*
G01X250083Y68485D02*
Y64385D01*
X250283Y64185D01*
Y56385D01*
G01X244583Y74585D02*
X240485D01*
X233585Y67685D01*
X229085D01*
G01X250083Y76370D02*
Y68485D01*
G01X244583Y74585D02*
X248298D01*
X250083Y76370D01*
G01X277083Y56385D02*
Y47517D01*
G01X308362Y187092D02*
Y189916D01*
X308983Y190537D01*
G01X366000Y60785D02*
X374024D01*
G01X359900Y62400D02*
X364385D01*
X366000Y60785D01*
G01X345505Y68245D02*
X353455D01*
X359300Y62400D01*
X359900D01*
X-133156Y105159D03*
X-61406Y105900D03*
X-53906D03*
X11479Y75400D03*
X7279Y79000D03*
X12579Y79800D03*
X16979Y79400D03*
X15779Y75700D03*
X6079Y73800D03*
X2679Y100700D03*
X4279Y104900D03*
X8079Y104000D03*
X12379Y103700D03*
X16779D03*
X14479Y100800D03*
X9879Y100700D03*
X6179Y100800D03*
X3779Y93600D03*
X8679Y93800D03*
X13379D03*
X17979D03*
X15479Y90700D03*
X10679D03*
X5879D03*
X4779Y83400D03*
X8679Y83500D03*
X13479Y83400D03*
X17579Y83500D03*
X7579Y115800D03*
X11779Y114400D03*
X16521Y114248D03*
X5079Y124900D03*
X8579Y123200D03*
X12879Y121700D03*
X17779Y121200D03*
X5679Y129300D03*
X9479Y127200D03*
X12379Y130100D03*
X14279Y125400D03*
X17679Y129100D03*
X14066Y111750D03*
X19429Y112299D03*
X8866Y112458D03*
X4179Y114900D03*
X33283Y77211D03*
X48500Y63468D03*
X43500Y64185D03*
X48283Y72211D03*
X43500Y69185D03*
X48283Y67185D03*
X22479Y93900D03*
X20479Y90800D03*
X23250Y102211D03*
X21400Y83600D03*
X21283Y127211D03*
X23250Y112211D03*
X20479Y123800D03*
X23283Y142185D03*
X22283Y149685D03*
X25100Y145685D03*
X69283Y33185D03*
X61783D03*
X78500Y63468D03*
X77100Y69800D03*
X66583Y96994D03*
X71583D03*
X61583D03*
Y101994D03*
X71583D03*
X66583D03*
X61583Y91994D03*
X71583D03*
X66583D03*
X71283Y134685D03*
X71783Y130185D03*
Y125685D03*
X67783D03*
Y130185D03*
X53500Y137468D03*
X58500D03*
X68500Y150685D03*
X72000Y151385D03*
X76181Y151460D03*
Y147760D03*
X72000Y147685D03*
X75283Y167685D03*
X62283Y150685D03*
X58283D03*
X60283Y147785D03*
X53183Y193785D03*
Y188785D03*
X75283Y171685D03*
X107383Y39185D03*
X98500Y51185D03*
X94800D03*
X83500D03*
X88500D03*
X103500D03*
X107809Y112211D03*
X82283Y134685D03*
X84783Y130685D03*
Y125685D03*
X98500Y137761D03*
Y134261D03*
X88500Y150568D03*
X84783Y151685D03*
Y148185D03*
X94283Y150685D03*
X98783Y151685D03*
X102783D03*
Y148185D03*
X98783D03*
X79283Y167685D03*
X93783Y189185D03*
Y183685D03*
X88783D03*
Y189185D03*
X79283Y171685D03*
X121783Y27185D03*
X132283Y25685D03*
X137283D03*
X126783Y36685D03*
X127283Y69685D03*
X137283D03*
X133283D03*
X120283Y77211D03*
X127090Y109200D03*
X118800Y87211D03*
X132283Y82211D03*
X128783Y97211D03*
X128683Y89711D03*
X114783Y165685D03*
X118783D03*
Y161685D03*
X114783D03*
X134400Y196300D03*
X126900Y168500D03*
Y172100D03*
X131400Y168600D03*
X131300Y172200D03*
X114900Y203000D03*
X159383Y13785D03*
X147283Y25685D03*
X142283Y36685D03*
X147283D03*
X142283Y25685D03*
X147283Y69685D03*
X142283D03*
X142000Y94300D03*
X141783Y89711D03*
X151011Y87917D03*
X155600Y87700D03*
X140300Y105000D03*
X139800Y132400D03*
X144200Y129000D03*
X139900Y128500D03*
X144000Y132600D03*
X148000D03*
X147900Y128900D03*
X144500Y120951D03*
X142125Y123523D03*
X139300Y163300D03*
X141800Y157500D03*
X148800Y181100D03*
X170500Y49200D03*
X188600Y71900D03*
X175992Y77708D03*
X191783Y86685D03*
X192783Y90322D03*
Y94259D03*
X188846D03*
Y90322D03*
X170283Y127585D03*
X173783D03*
X186783Y153085D03*
X170938Y185790D03*
X167438D03*
X222675Y32068D03*
X218975Y32168D03*
X219075Y35768D03*
X197700Y67930D03*
X222183Y89685D03*
X199900Y83400D03*
X222800Y131600D03*
X196300Y127900D03*
X201200Y146700D03*
X221400Y147000D03*
X237575Y19168D03*
X234075D03*
X227679Y20600D03*
X253433Y20635D03*
X248433D03*
Y15635D03*
X253433D03*
X243433Y10635D03*
X248433D03*
X253433D03*
X243433Y5635D03*
X248433D03*
X253433D03*
X243433Y635D03*
X248433D03*
X253433D03*
X243433Y15635D03*
X237575Y22668D03*
X234075D03*
X226079Y39400D03*
X226179Y43000D03*
X227679Y24100D03*
X243433Y25635D03*
X248433D03*
X253433D03*
X243433Y30635D03*
X248433D03*
X253433D03*
X243433Y35635D03*
X248433D03*
X253433D03*
X248433Y40635D03*
X253433D03*
X243433D03*
X225683Y89685D03*
X246083Y87985D03*
Y91985D03*
Y95985D03*
X242083Y87985D03*
Y91985D03*
Y95985D03*
X232283Y160685D03*
X263433Y20635D03*
X273433D03*
X278433D03*
X283433D03*
X278433Y15635D03*
X273433D03*
X283433Y10635D03*
X278433D03*
X273433D03*
X283433Y5635D03*
X278433D03*
X273433D03*
X283433Y635D03*
X278433D03*
X273433D03*
X283433Y15635D03*
X268433Y20635D03*
X258433D03*
Y15635D03*
X263433D03*
X258433Y10635D03*
X263433D03*
X258433Y5635D03*
X263433D03*
X258433Y635D03*
X263433D03*
X268433Y15635D03*
Y10635D03*
Y5635D03*
Y635D03*
X277083Y47517D03*
X273433Y35635D03*
X278433Y40635D03*
X273433D03*
X283433Y25635D03*
X278433D03*
X273433D03*
X283433Y30635D03*
X278433D03*
X273433D03*
X283433Y35635D03*
X278433D03*
X283433Y40635D03*
X268433D03*
X258433Y25635D03*
X263433D03*
X258433Y30635D03*
X263433D03*
X258433Y35635D03*
X263433D03*
X258433Y40635D03*
X263433D03*
X268433Y25635D03*
Y30635D03*
Y35635D03*
X263783Y79485D03*
Y83485D03*
X278700Y126900D03*
X270600Y146400D03*
X280700Y181500D03*
X290908Y71592D03*
X294508D03*
X290908Y67992D03*
X294508D03*
X307700Y146500D03*
X312300Y183900D03*
Y180400D03*
X306179Y173500D03*
X299783Y171791D03*
X302248Y174277D03*
X295783Y171791D03*
X286783Y178485D03*
Y185985D03*
X303782Y190185D03*
X308362Y187092D03*
X333200Y20800D03*
X336900Y92800D03*
X336700Y138500D03*
X328900Y132625D03*
X321718D03*
X340100Y135000D03*
X326000Y138662D03*
X315300Y144100D03*
X329783Y176185D03*
X322783Y176685D03*
X320283Y170685D03*
X314783D03*
X356508Y30692D03*
X360608Y30792D03*
X362208Y37892D03*
Y34392D03*
X356408Y73392D03*
X352808D03*
X356408Y76992D03*
X352808D03*
X356600Y52400D03*
X353100Y55900D03*
X356600D03*
X353100Y52400D03*
X356500Y85100D03*
Y88600D03*
X353000Y85100D03*
Y88600D03*
X359500Y129900D03*
X353100Y129800D03*
X348200Y134700D03*
X343600Y138900D03*
X351783Y198685D03*
X347283D03*
X383800Y19200D03*
X396579Y14000D03*
X381200D03*
X386228Y31100D03*
X399900Y44700D03*
X395779Y49100D03*
X396779Y24100D03*
X395979Y41300D03*
X385879Y37550D03*
X381879Y24100D03*
X386400Y76900D03*
X395779Y64700D03*
X395379Y57000D03*
X385879Y60900D03*
X386000Y53250D03*
X386579Y68600D03*
X396700Y81200D03*
X381600D03*
X382883Y136200D03*
Y151600D03*
X407979Y35700D03*
X405079Y30500D03*
X412079Y29500D03*
X408779Y24300D03*
X404100Y61300D03*
X401100Y52200D03*
X404100Y68500D03*
X406500Y142915D03*
G54D20*
X31783Y-1290D03*
X43783Y188685D03*
X81783Y187185D03*
X119283Y182185D03*
X187739Y104887D03*
X209085Y51650D03*
X229085Y67685D03*
X283000Y81800D03*
X325000Y160500D03*
G54D11*
X-107528Y110610D03*
Y100610D03*
Y120610D03*
X-83906Y110610D03*
Y100610D03*
Y120610D03*
X46213Y203407D03*
X36213D03*
X26213D03*
X72213Y13407D03*
X62213D03*
X76213Y203407D03*
X66213D03*
X56213D03*
X102213Y13407D03*
X92213D03*
X82213D03*
X106213Y203407D03*
X96213D03*
X86213D03*
X122213Y13407D03*
X112213D03*
X132213Y203407D03*
X162213D03*
X152213D03*
X142213D03*
X192213D03*
X182213D03*
X172213D03*
X222213D03*
X252213D03*
X242213D03*
X232213D03*
X282213D03*
X272213D03*
X262213D03*
G54D21*
X38500Y56811D03*
X48500D03*
X43500D03*
X38500Y142611D03*
X48500D03*
X43500D03*
X78500Y56811D03*
X73500D03*
X68500D03*
X63500D03*
X58500D03*
X53500D03*
X78500Y142611D03*
X73500D03*
X68500D03*
X63500D03*
X58500D03*
X53500D03*
X103500Y56811D03*
X98500D03*
X93500D03*
X88500D03*
X83500D03*
X103500Y142611D03*
X98500D03*
X93500D03*
X88500D03*
X83500D03*
G54D12*
X-107528Y90610D03*
X-83906D03*
X16213Y203407D03*
X52213Y13407D03*
X122213Y203407D03*
X212213D03*
G54D30*
X144500Y106562D03*
X138100Y112337D03*
G54D40*
X233239Y28085D03*
X375421Y47900D03*
G54D31*
X144500Y116438D03*
X138100Y122213D03*
G54D22*
X28100Y67211D03*
Y72211D03*
Y77211D03*
Y82211D03*
Y87211D03*
Y92211D03*
Y97211D03*
Y102211D03*
Y107211D03*
Y132211D03*
Y112211D03*
Y117211D03*
Y122211D03*
Y127211D03*
X113900Y67211D03*
Y72211D03*
Y77211D03*
Y82211D03*
Y87211D03*
Y92211D03*
Y97211D03*
Y102211D03*
Y107211D03*
Y132211D03*
Y112211D03*
Y117211D03*
Y122211D03*
Y127211D03*
G54D13*
X-75156Y93159D03*
X-67556D03*
X-75126Y110629D03*
X-67526D03*
X-75156Y100559D03*
X-67556D03*
X-75156Y118010D03*
X-67556D03*
X-47206Y83110D03*
X-39606D03*
X-47206Y100610D03*
X-39606D03*
X-47206Y110610D03*
X-39606D03*
X-47206Y93110D03*
X-39606D03*
X-47206Y128110D03*
X-39606D03*
X-47206Y118110D03*
X-39606D03*
G54D23*
X66583Y96994D03*
G54D14*
X-53906Y100759D03*
Y93159D03*
X-61406Y100759D03*
Y93159D03*
Y118059D03*
Y110459D03*
X-53906Y118159D03*
Y110559D03*
X-32506Y90710D03*
Y83110D03*
Y108010D03*
Y103210D03*
Y95610D03*
Y128110D03*
Y120510D03*
Y115610D03*
G54D50*
X338400Y-115D03*
X359384Y206235D03*
G54D32*
X144500Y111500D03*
X138100Y117275D03*
G54D41*
X228301Y28085D03*
X370483Y47900D03*
G54D60*
G01X-107528Y100610D02*
X-108331D01*
X-109445Y101724D01*
X-126021D01*
G03X-127525Y101096I1J-2117D01*
G01X-128309Y100305D01*
G03X-128421Y100033I274J-272D01*
G01Y18613D01*
G02X-130006Y17028I-1585J0D01*
G01X-304022D01*
G02X-305597Y18603I0J1575D01*
G01Y192619D01*
G02X-304022Y194193I1575J-1D01*
G01X-130006D01*
G02X-128431Y192619I0J-1575D01*
G01Y103589D01*
X-130793Y101227D01*
Y20965D01*
G02X-132368Y19390I-1575J0D01*
G01X-301660D01*
G02X-303234Y20965I1J1575D01*
G01Y190256D01*
G02X-301660Y191831I1574J1D01*
G01X-132368D01*
G02X-130793Y190256I0J-1575D01*
G01Y104427D01*
X-130868Y104352D01*
Y104211D01*
X-133156Y101923D01*
Y23327D01*
G02X-134730Y21753I-1574J0D01*
G01X-299297D01*
G02X-300872Y23327I-1J1574D01*
G01Y187894D01*
G02X-299297Y189469I1575J0D01*
G01X-134730D01*
G02X-133156Y187894I-1J-1575D01*
G01Y105159D01*
G54D51*
X345505Y36345D03*
Y45400D03*
Y68245D03*
Y77300D03*
Y54455D03*
Y86355D03*
G54D33*
X184266Y5395D03*
X360605D03*
G54D15*
X-22606Y75659D03*
X-2321Y75600D03*
Y147685D03*
G54D24*
X62783Y159435D03*
Y187035D03*
X100783Y159435D03*
Y187035D03*
G54D42*
X250283Y56385D03*
X256983D03*
X263683D03*
X270383D03*
X277083D03*
G54D61*
G01X-107528Y100610D02*
X-83906D01*
G01X-107528Y90610D02*
X-83906D01*
G01X-107528Y120610D02*
X-83906D01*
G01X-107528Y110610D02*
X-83906D01*
G01Y100610D02*
X-78457D01*
X-78406Y100559D01*
X-75156D01*
G01Y93159D02*
Y100559D01*
G01Y118010D02*
Y110659D01*
X-75126Y110629D01*
G01X-83906Y110610D02*
X-78395D01*
X-78376Y110629D01*
X-75126D01*
G01X-39606Y83110D02*
X-32506D01*
G01X-39606Y100610D02*
Y93110D01*
G01D02*
G02X-33570Y95610I6036J-6036D01*
G01X-32506D01*
G01X-47206Y93110D02*
Y83110D01*
G01X-67556Y93159D02*
Y100559D01*
G01X-61406Y93159D02*
X-67556D01*
G01X-61406D02*
X-53906D01*
G01X-47206Y93110D02*
X-53857D01*
X-53906Y93159D01*
G01X-47206Y93110D02*
Y100610D01*
G01X-53906Y110559D02*
Y105900D01*
G01D02*
Y100759D01*
G01X-39606Y110610D02*
Y118110D01*
G01X-32506Y115610D02*
X-33570D01*
G02X-39606Y118110I0J8536D01*
G01Y128110D02*
X-32506D01*
G01X-67556Y118010D02*
Y110659D01*
X-67526Y110629D01*
G01X-61406Y118059D02*
X-67507D01*
X-67556Y118010D01*
G01X-53906Y118159D02*
X-61306D01*
X-61406Y118059D01*
G01X-47206Y118110D02*
X-53857D01*
X-53906Y118159D01*
G01X-47206Y110610D02*
Y118110D01*
G01D02*
Y128110D01*
G01X-22606Y85659D02*
X-2321Y85600D01*
G01X-32506Y83110D02*
X-28536D01*
G03X-22606Y85659I0J8172D01*
G01Y95659D02*
X-2321Y95600D01*
G01X-32506Y90710D02*
Y95610D01*
G01X-22606Y95659D02*
X-27957D01*
X-28006Y95610D01*
X-32506D01*
G01Y120510D02*
Y115610D01*
G01X-22606Y115659D02*
X-2321Y115600D01*
G01X-32506Y115610D02*
X-28012D01*
X-27963Y115659D01*
X-22606D01*
G01Y125659D02*
X-2321Y125600D01*
G01X-32506Y128110D02*
X-28536D01*
G02X-22606Y125659I0J-8399D01*
G01X28100Y87211D02*
X1579D01*
G03X-2321Y85600I0J-5526D01*
G01X20079Y97211D02*
X1565D01*
G03X-2319Y95602I0J-5493D01*
G01X-2321Y95600D01*
G01Y115600D02*
G03X14579Y108600I16900J16901D01*
G01X19979D01*
G01X28100Y117211D02*
X23450D01*
G02X21277Y117391I3J13245D01*
G01X17494D01*
G02X-2319Y125598I0J28019D01*
G01X-2321Y125600D01*
G01X28100Y97211D02*
X20079D01*
G01X19979Y108600D02*
X24747D01*
G02X28100Y107211I0J-4741D01*
G01X23250Y102211D02*
X28100D01*
G01Y112211D02*
X23250D01*
G54D25*
X126783Y33185D03*
Y27185D03*
X217500Y90100D03*
Y84100D03*
X244583Y74585D03*
Y80585D03*
X328900Y148514D03*
Y142514D03*
X321718Y148514D03*
Y142514D03*
X343717Y148514D03*
Y142514D03*
X336500D03*
Y148514D03*
X336283Y184000D03*
Y178000D03*
X368716Y142514D03*
Y148514D03*
X362217Y148510D03*
Y142510D03*
G54D52*
X321095Y45400D03*
Y77300D03*
G54D16*
X-22606Y105659D03*
Y95659D03*
Y85659D03*
Y135659D03*
Y125659D03*
Y115659D03*
X-2321Y105600D03*
Y95600D03*
Y85600D03*
Y135600D03*
Y125600D03*
Y115600D03*
G54D43*
X308400Y-115D03*
X389384Y206235D03*
G54D34*
G01X-14538Y-323315D02*
X385462D01*
G01X-14538Y-293315D02*
Y-273315D01*
X385462D01*
G01X35462Y-343315D02*
Y-323315D01*
G01X132283Y28685D02*
Y25685D01*
G01X126783Y33185D02*
Y36685D01*
G01X132283Y149450D02*
Y143150D01*
G01X160962Y-343315D02*
Y-323315D01*
G01X160462Y-273315D02*
Y-243315D01*
G01X137283Y28685D02*
Y25685D01*
G01X147283Y28685D02*
Y25685D01*
G01X142283Y28685D02*
Y25685D01*
G01X179316Y77708D02*
X175992D01*
G01X181284D02*
Y74450D01*
X181584Y74150D01*
Y71900D01*
G01D02*
Y67930D01*
G01X177400Y80400D02*
X178124Y79676D01*
X179316D01*
G01X181284D02*
X182900Y81292D01*
Y86000D01*
G01X210462Y-343315D02*
Y-323315D01*
G01X303782Y194035D02*
Y190185D01*
G01X308983Y190537D02*
X309687Y191241D01*
Y194035D01*
G01X310672Y199154D02*
Y197300D01*
X309687Y196315D01*
Y194035D01*
G01X321499D02*
Y190402D01*
X319782Y188685D01*
G01D02*
X318282D01*
X315895Y186298D01*
Y185486D01*
G01X320514Y199154D02*
Y197304D01*
X321499Y196319D01*
Y194035D01*
X179316Y77708D03*
X181284D03*
X179316Y79676D03*
X181284D03*
G54D62*
G01X-309796Y204036D02*
X-98217D01*
G02X-95717Y201536I0J-2500D01*
G01Y192885D01*
Y190385D01*
X-93217D01*
X-15000D01*
X-12500D01*
Y192885D01*
Y221221D01*
G02X-10000Y223721I2500J0D01*
G01X418071D01*
G02X420571Y221221I0J-2500D01*
G01Y-10000D01*
G02X418071Y-12500I-2500J0D01*
G01X-10000D01*
G02X-12500Y-10000I0J2500D01*
G01Y18336D01*
Y20836D01*
X-15000D01*
X-93217D01*
X-95717D01*
Y18336D01*
Y9685D01*
G02X-98217Y7185I-2500J0D01*
G01X-309796D01*
G02X-312296Y9685I0J2500D01*
G01Y201536D01*
G02X-309796Y204036I2500J0D01*
G54D44*
X313005Y177000D03*
X318439D03*
G54D53*
X315895Y185486D03*
X324675D03*
G54D35*
X192400Y138950D03*
X196100Y146850D03*
X199800Y138950D03*
X220800D03*
X213400D03*
X217100Y146850D03*
X270533Y138650D03*
X263133D03*
X266833Y146550D03*
X307643Y138650D03*
X300243D03*
X303943Y146550D03*
G54D26*
X111333Y32485D03*
Y39885D03*
X119233Y36185D03*
X188333Y79485D03*
Y86885D03*
X196233Y83185D03*
G54D17*
X14479Y17000D03*
X-1621Y19200D03*
X279Y197600D03*
X979Y211400D03*
X31783Y8710D03*
Y18710D03*
X33783Y188685D03*
X81783Y177185D03*
X119283Y172185D03*
X157500Y81880D03*
X197739Y104887D03*
X187739Y114887D03*
X197739D03*
X219085Y51650D03*
X207739Y104887D03*
X217739D03*
X207739Y114887D03*
X217739D03*
X229085Y77685D03*
X255400Y86730D03*
X227739Y104887D03*
X237739D03*
X247739D03*
X227739Y114887D03*
X237739D03*
X247739D03*
X283000Y71800D03*
X273000D03*
Y81800D03*
X257739Y104887D03*
X267739D03*
X277739D03*
X257739Y114887D03*
X267739D03*
X277739D03*
X287739Y104887D03*
X297739D03*
X307739D03*
X287739Y114887D03*
X297739D03*
X307739D03*
X302638Y162608D03*
X317739Y104887D03*
X327739D03*
X337739D03*
X317739Y114887D03*
X327739D03*
X337739D03*
X335000Y160500D03*
X347739Y104887D03*
X357739D03*
X367739D03*
X347739Y114887D03*
X357739D03*
X367739D03*
X345000Y160500D03*
X355000D03*
X365000D03*
X383783Y585D03*
X377739Y104887D03*
Y114887D03*
X375000Y160500D03*
X385000D03*
X395000D03*
G54D63*
G01X-11188Y-333815D02*
X-11815Y-334015D01*
X-12285Y-334515D01*
X-12598Y-335115D01*
X-12833Y-335915D01*
X-12911Y-336815D01*
X-12833Y-337715D01*
X-12598Y-338515D01*
X-12285Y-339115D01*
X-11815Y-339615D01*
X-11188Y-339815D01*
X-10561Y-339615D01*
X-10091Y-339115D01*
X-9778Y-338515D01*
X-9543Y-337715D01*
X-9465Y-336815D01*
X-9543Y-335915D01*
X-9778Y-335115D01*
X-10091Y-334515D01*
X-10561Y-334015D01*
X-11188Y-333815D01*
G01X-3948Y-339815D02*
Y-333815D01*
X-6846Y-338115D01*
X-2930D01*
G01X-11013Y-330782D02*
X-10546Y-331115D01*
X-10021Y-331315D01*
X-9555D01*
X-9088Y-331115D01*
X-8738Y-330782D01*
X-8563Y-330315D01*
X-8680Y-329848D01*
X-8971Y-329448D01*
X-9496Y-329182D01*
X-10196Y-329048D01*
X-10605Y-328782D01*
X-10780Y-328315D01*
X-10663Y-327848D01*
X-10371Y-327515D01*
X-9963Y-327315D01*
X-9555D01*
X-9146Y-327448D01*
X-8796Y-327782D01*
G01X-6213Y-331315D02*
Y-327315D01*
G01X-3763D02*
Y-331315D01*
G01Y-329315D02*
X-6213D01*
G01X979Y-331315D02*
X-1355D01*
Y-327315D01*
X979D01*
G01X45Y-329248D02*
X-1355D01*
G01X5779Y-331315D02*
X3445D01*
Y-327315D01*
X5779D01*
G01X4845Y-329248D02*
X3445D01*
G01X9412Y-327315D02*
Y-331315D01*
G01X8070Y-327315D02*
X10754D01*
G01X-11246Y-270315D02*
X-9788Y-266315D01*
X-8330Y-270315D01*
G01X-8855Y-268915D02*
X-10721D01*
G01X-6271Y-266315D02*
Y-269182D01*
X-6038Y-269782D01*
X-5571Y-270182D01*
X-4988Y-270315D01*
X-4405Y-270182D01*
X-3938Y-269782D01*
X-3705Y-269182D01*
Y-266315D01*
G01X-1413Y-269782D02*
X-946Y-270115D01*
X-421Y-270315D01*
X45D01*
X512Y-270115D01*
X862Y-269782D01*
X1037Y-269315D01*
X920Y-268848D01*
X629Y-268448D01*
X104Y-268182D01*
X-596Y-268048D01*
X-1005Y-267782D01*
X-1180Y-267315D01*
X-1063Y-266848D01*
X-771Y-266515D01*
X-363Y-266315D01*
X45D01*
X454Y-266448D01*
X804Y-266782D01*
G01X4612Y-266315D02*
Y-270315D01*
G01X3270Y-266315D02*
X5954D01*
G01X8712D02*
X10112D01*
G01X9412D02*
Y-270315D01*
G01X8712D02*
X10112D01*
G01X12870D02*
Y-266315D01*
X15554Y-270315D01*
Y-266315D01*
G01X19012Y-270448D02*
X18895Y-270382D01*
Y-270248D01*
X19012Y-270182D01*
X19129Y-270248D01*
Y-270382D01*
X19012Y-270448D01*
G01X28612Y-266315D02*
Y-270315D01*
G01X27270Y-266315D02*
X29954D01*
G01X34579Y-270315D02*
X32245D01*
Y-266315D01*
X34579D01*
G01X33645Y-268248D02*
X32245D01*
G01X36987Y-270315D02*
X39437Y-266315D01*
G01X36987D02*
X39437Y-270315D01*
G01X41554D02*
X43012Y-266315D01*
X44470Y-270315D01*
G01X43945Y-268915D02*
X42079D01*
G01X46587Y-269782D02*
X47054Y-270115D01*
X47579Y-270315D01*
X48045D01*
X48512Y-270115D01*
X48862Y-269782D01*
X49037Y-269315D01*
X48920Y-268848D01*
X48629Y-268448D01*
X48104Y-268182D01*
X47404Y-268048D01*
X46995Y-267782D01*
X46820Y-267315D01*
X46937Y-266848D01*
X47229Y-266515D01*
X47637Y-266315D01*
X48045D01*
X48454Y-266448D01*
X48804Y-266782D01*
G01X57295Y-270315D02*
X57412Y-269448D01*
X57587Y-268715D01*
X57820Y-268048D01*
X58112Y-267315D01*
X58579Y-266315D01*
X56245D01*
G01X62212Y-270315D02*
X62620Y-270248D01*
X63087Y-270048D01*
X63379Y-269715D01*
X63495Y-269248D01*
X63379Y-268782D01*
X63029Y-268382D01*
X62504Y-268182D01*
X61920D01*
X61570Y-268048D01*
X61279Y-267715D01*
X61162Y-267248D01*
X61337Y-266782D01*
X61745Y-266448D01*
X62212Y-266315D01*
X62679Y-266448D01*
X63087Y-266782D01*
X63262Y-267248D01*
X63145Y-267715D01*
X62854Y-268048D01*
X62504Y-268182D01*
X61920D01*
X61395Y-268382D01*
X61045Y-268782D01*
X60929Y-269248D01*
X61045Y-269715D01*
X61337Y-270048D01*
X61804Y-270248D01*
X62212Y-270315D01*
G01X66895D02*
X67012Y-269448D01*
X67187Y-268715D01*
X67420Y-268048D01*
X67712Y-267315D01*
X68179Y-266315D01*
X65845D01*
G01X70529Y-269515D02*
X70879Y-269982D01*
X71345Y-270248D01*
X71870Y-270315D01*
X72337Y-270248D01*
X72804Y-269915D01*
X73095Y-269515D01*
X73154Y-269115D01*
X73037Y-268648D01*
X72629Y-268315D01*
X72220Y-268182D01*
X71695D01*
G01X72220D02*
X72570Y-267982D01*
X72862Y-267648D01*
X72979Y-267248D01*
X72862Y-266848D01*
X72570Y-266515D01*
X72045Y-266315D01*
X71520Y-266382D01*
X70995Y-266648D01*
G01X75329Y-269715D02*
X75679Y-270048D01*
X76087Y-270248D01*
X76612Y-270315D01*
X77137Y-270182D01*
X77545Y-269915D01*
X77837Y-269448D01*
X77895Y-268915D01*
X77779Y-268382D01*
X77487Y-268048D01*
X77079Y-267782D01*
X76670Y-267715D01*
X76262Y-267782D01*
X75737Y-268048D01*
X75912Y-266315D01*
X77487D01*
G01X84929D02*
Y-269182D01*
X85162Y-269782D01*
X85629Y-270182D01*
X86212Y-270315D01*
X86795Y-270182D01*
X87262Y-269782D01*
X87495Y-269182D01*
Y-266315D01*
G01X89787Y-269782D02*
X90254Y-270115D01*
X90779Y-270315D01*
X91245D01*
X91712Y-270115D01*
X92062Y-269782D01*
X92237Y-269315D01*
X92120Y-268848D01*
X91829Y-268448D01*
X91304Y-268182D01*
X90604Y-268048D01*
X90195Y-267782D01*
X90020Y-267315D01*
X90137Y-266848D01*
X90429Y-266515D01*
X90837Y-266315D01*
X91245D01*
X91654Y-266448D01*
X92004Y-266782D01*
G01X94354Y-270315D02*
X95812Y-266315D01*
X97270Y-270315D01*
G01X96745Y-268915D02*
X94879D01*
G01X-10896Y-261648D02*
X-10488Y-261182D01*
X-10138Y-260915D01*
X-9671Y-260782D01*
X-9263Y-260915D01*
X-8971Y-261182D01*
X-8738Y-261582D01*
X-8680Y-262048D01*
X-8738Y-262448D01*
X-8971Y-262848D01*
X-9321Y-263182D01*
X-9730Y-263315D01*
X-10196Y-263182D01*
X-10605Y-262782D01*
X-10838Y-262182D01*
X-10896Y-261515D01*
X-10780Y-260648D01*
X-10605Y-260182D01*
X-10313Y-259715D01*
X-9905Y-259382D01*
X-9496Y-259315D01*
X-9088Y-259448D01*
X-8796Y-259782D01*
G01X-6271Y-262715D02*
X-5921Y-263048D01*
X-5513Y-263248D01*
X-4988Y-263315D01*
X-4463Y-263182D01*
X-4055Y-262915D01*
X-3763Y-262448D01*
X-3705Y-261915D01*
X-3821Y-261382D01*
X-4113Y-261048D01*
X-4521Y-260782D01*
X-4930Y-260715D01*
X-5338Y-260782D01*
X-5863Y-261048D01*
X-5688Y-259315D01*
X-4113D01*
G01X-188D02*
X-655Y-259448D01*
X-1005Y-259782D01*
X-1238Y-260182D01*
X-1413Y-260715D01*
X-1471Y-261315D01*
X-1413Y-261915D01*
X-1238Y-262448D01*
X-1005Y-262848D01*
X-655Y-263182D01*
X-188Y-263315D01*
X279Y-263182D01*
X629Y-262848D01*
X862Y-262448D01*
X1037Y-261915D01*
X1095Y-261315D01*
X1037Y-260715D01*
X862Y-260182D01*
X629Y-259782D01*
X279Y-259448D01*
X-188Y-259315D01*
G01X4612Y-263315D02*
Y-259315D01*
X3912Y-260115D01*
G01Y-263315D02*
X5312D01*
G01X12462Y-259315D02*
X13279Y-263315D01*
X14212Y-259315D01*
X15145Y-263315D01*
X15962Y-259315D01*
G01X18312D02*
X19712D01*
G01X19012D02*
Y-263315D01*
G01X18312D02*
X19712D01*
G01X22645Y-259315D02*
Y-263315D01*
X24979D01*
G01X27445Y-259315D02*
Y-263315D01*
X29779D01*
G01X32712Y-259315D02*
X34112D01*
G01X33412D02*
Y-263315D01*
G01X32712D02*
X34112D01*
G01X36754D02*
X38212Y-259315D01*
X39670Y-263315D01*
G01X39145Y-261915D02*
X37279D01*
G01X41495Y-263315D02*
Y-259315D01*
X43012Y-262648D01*
X44529Y-259315D01*
Y-263315D01*
G01X53895Y-259648D02*
X53545Y-259448D01*
X53137Y-259315D01*
X52670D01*
X52145Y-259515D01*
X51737Y-259848D01*
X51445Y-260248D01*
X51212Y-260915D01*
X51154Y-261515D01*
X51270Y-262115D01*
X51445Y-262515D01*
X51795Y-262915D01*
X52204Y-263182D01*
X52612Y-263315D01*
X53020D01*
X53429Y-263182D01*
X53779Y-262982D01*
X54070Y-262715D01*
G01X55954Y-263315D02*
X57412Y-259315D01*
X58870Y-263315D01*
G01X58345Y-261915D02*
X56479D01*
G01X60870Y-263315D02*
Y-259315D01*
X63554Y-263315D01*
Y-259315D01*
G01X65670Y-263315D02*
Y-259315D01*
X68354Y-263315D01*
Y-259315D01*
G01X71812Y-263315D02*
X71345Y-263248D01*
X70937Y-262982D01*
X70587Y-262582D01*
X70354Y-262115D01*
X70237Y-261582D01*
Y-261048D01*
X70354Y-260515D01*
X70587Y-260048D01*
X70937Y-259648D01*
X71345Y-259382D01*
X71812Y-259315D01*
X72279Y-259382D01*
X72687Y-259648D01*
X73037Y-260048D01*
X73270Y-260515D01*
X73387Y-261048D01*
Y-261582D01*
X73270Y-262115D01*
X73037Y-262582D01*
X72687Y-262982D01*
X72279Y-263248D01*
X71812Y-263315D01*
G01X75270D02*
Y-259315D01*
X77954Y-263315D01*
Y-259315D01*
G01X84929Y-263315D02*
Y-259315D01*
X86095D01*
X86562Y-259515D01*
X86912Y-259782D01*
X87204Y-260182D01*
X87437Y-260648D01*
X87495Y-261315D01*
X87437Y-261982D01*
X87204Y-262448D01*
X86912Y-262848D01*
X86562Y-263115D01*
X86095Y-263315D01*
X84929D01*
G01X89845D02*
Y-259315D01*
X91304D01*
X91770Y-259515D01*
X92062Y-259782D01*
X92179Y-260315D01*
X92062Y-260848D01*
X91712Y-261182D01*
X91304Y-261382D01*
X89845D01*
G01X91304D02*
X92179Y-263315D01*
G01X95112Y-259315D02*
X96512D01*
G01X95812D02*
Y-263315D01*
G01X95112D02*
X96512D01*
G01X99154Y-259315D02*
X100612Y-263315D01*
X102070Y-259315D01*
G01X106579Y-263315D02*
X104245D01*
Y-259315D01*
X106579D01*
G01X105645Y-261248D02*
X104245D01*
G01X113262Y-259315D02*
X114079Y-263315D01*
X115012Y-259315D01*
X115945Y-263315D01*
X116762Y-259315D01*
G01X120979Y-263315D02*
X118645D01*
Y-259315D01*
X120979D01*
G01X120045Y-261248D02*
X118645D01*
G01X123387Y-262782D02*
X123854Y-263115D01*
X124379Y-263315D01*
X124845D01*
X125312Y-263115D01*
X125662Y-262782D01*
X125837Y-262315D01*
X125720Y-261848D01*
X125429Y-261448D01*
X124904Y-261182D01*
X124204Y-261048D01*
X123795Y-260782D01*
X123620Y-260315D01*
X123737Y-259848D01*
X124029Y-259515D01*
X124437Y-259315D01*
X124845D01*
X125254Y-259448D01*
X125604Y-259782D01*
G01X129412Y-259315D02*
Y-263315D01*
G01X128070Y-259315D02*
X130754D01*
G01X-10885Y-254315D02*
Y-246815D01*
X-6591Y-254315D01*
Y-246815D01*
G01X-3198Y-254315D02*
X722Y-246815D01*
G01X-3198D02*
X722Y-254315D01*
G01X4395D02*
Y-246815D01*
X6635D01*
X7382Y-247190D01*
X7942Y-248065D01*
X8129Y-249065D01*
X7942Y-250065D01*
X7475Y-250815D01*
X6635Y-251190D01*
X4395D01*
G01X19302Y-253315D02*
X20049Y-253940D01*
X20889Y-254315D01*
X21635D01*
X22382Y-253940D01*
X22942Y-253315D01*
X23222Y-252440D01*
X23035Y-251565D01*
X22569Y-250815D01*
X21729Y-250315D01*
X20609Y-250065D01*
X19955Y-249565D01*
X19675Y-248690D01*
X19862Y-247815D01*
X20329Y-247190D01*
X20982Y-246815D01*
X21635D01*
X22289Y-247065D01*
X22849Y-247690D01*
G01X30629Y-254315D02*
X26895D01*
Y-246815D01*
X30629D01*
G01X29135Y-250440D02*
X26895D01*
G01X33835Y-254315D02*
Y-246815D01*
X36262Y-253065D01*
X38689Y-246815D01*
Y-254315D01*
G01X42642Y-246815D02*
X44882D01*
G01X43762D02*
Y-254315D01*
G01X42642D02*
X44882D01*
G01X53315Y-247440D02*
X52755Y-247065D01*
X52102Y-246815D01*
X51355D01*
X50515Y-247190D01*
X49862Y-247815D01*
X49395Y-248565D01*
X49022Y-249815D01*
X48929Y-250940D01*
X49115Y-252065D01*
X49395Y-252815D01*
X49955Y-253565D01*
X50609Y-254065D01*
X51262Y-254315D01*
X51915D01*
X52569Y-254065D01*
X53129Y-253690D01*
X53595Y-253190D01*
G01X58762Y-254315D02*
X58015Y-254190D01*
X57362Y-253690D01*
X56802Y-252940D01*
X56429Y-252065D01*
X56242Y-251065D01*
Y-250065D01*
X56429Y-249065D01*
X56802Y-248190D01*
X57362Y-247440D01*
X58015Y-246940D01*
X58762Y-246815D01*
X59509Y-246940D01*
X60162Y-247440D01*
X60722Y-248190D01*
X61095Y-249065D01*
X61282Y-250065D01*
Y-251065D01*
X61095Y-252065D01*
X60722Y-252940D01*
X60162Y-253690D01*
X59509Y-254190D01*
X58762Y-254315D01*
G01X64115D02*
Y-246815D01*
X68409Y-254315D01*
Y-246815D01*
G01X71709Y-254315D02*
Y-246815D01*
X73575D01*
X74322Y-247190D01*
X74882Y-247690D01*
X75349Y-248440D01*
X75722Y-249315D01*
X75815Y-250565D01*
X75722Y-251815D01*
X75349Y-252690D01*
X74882Y-253440D01*
X74322Y-253940D01*
X73575Y-254315D01*
X71709D01*
G01X79209Y-246815D02*
Y-252190D01*
X79582Y-253315D01*
X80329Y-254065D01*
X81262Y-254315D01*
X82195Y-254065D01*
X82942Y-253315D01*
X83315Y-252190D01*
Y-246815D01*
G01X90815Y-247440D02*
X90255Y-247065D01*
X89602Y-246815D01*
X88855D01*
X88015Y-247190D01*
X87362Y-247815D01*
X86895Y-248565D01*
X86522Y-249815D01*
X86429Y-250940D01*
X86615Y-252065D01*
X86895Y-252815D01*
X87455Y-253565D01*
X88109Y-254065D01*
X88762Y-254315D01*
X89415D01*
X90069Y-254065D01*
X90629Y-253690D01*
X91095Y-253190D01*
G01X96262Y-246815D02*
Y-254315D01*
G01X94115Y-246815D02*
X98409D01*
G01X103762Y-254315D02*
X103015Y-254190D01*
X102362Y-253690D01*
X101802Y-252940D01*
X101429Y-252065D01*
X101242Y-251065D01*
Y-250065D01*
X101429Y-249065D01*
X101802Y-248190D01*
X102362Y-247440D01*
X103015Y-246940D01*
X103762Y-246815D01*
X104509Y-246940D01*
X105162Y-247440D01*
X105722Y-248190D01*
X106095Y-249065D01*
X106282Y-250065D01*
Y-251065D01*
X106095Y-252065D01*
X105722Y-252940D01*
X105162Y-253690D01*
X104509Y-254190D01*
X103762Y-254315D01*
G01X109395D02*
Y-246815D01*
X111729D01*
X112475Y-247190D01*
X112942Y-247690D01*
X113129Y-248690D01*
X112942Y-249690D01*
X112382Y-250315D01*
X111729Y-250690D01*
X109395D01*
G01X111729D02*
X113129Y-254315D01*
G01X116802Y-253315D02*
X117549Y-253940D01*
X118389Y-254315D01*
X119135D01*
X119882Y-253940D01*
X120442Y-253315D01*
X120722Y-252440D01*
X120535Y-251565D01*
X120069Y-250815D01*
X119229Y-250315D01*
X118109Y-250065D01*
X117455Y-249565D01*
X117175Y-248690D01*
X117362Y-247815D01*
X117829Y-247190D01*
X118482Y-246815D01*
X119135D01*
X119789Y-247065D01*
X120349Y-247690D01*
G01X7312Y-339815D02*
X6685Y-339715D01*
X6137Y-339315D01*
X5667Y-338715D01*
X5354Y-338015D01*
X5197Y-337215D01*
Y-336415D01*
X5354Y-335615D01*
X5667Y-334915D01*
X6137Y-334315D01*
X6685Y-333915D01*
X7312Y-333815D01*
X7939Y-333915D01*
X8487Y-334315D01*
X8957Y-334915D01*
X9270Y-335615D01*
X9427Y-336415D01*
Y-337215D01*
X9270Y-338015D01*
X8957Y-338715D01*
X8487Y-339315D01*
X7939Y-339715D01*
X7312Y-339815D01*
G01X12124D02*
Y-333815D01*
X15100D01*
G01X14004Y-336715D02*
X12124D01*
G01X26212Y-339815D02*
Y-333815D01*
X25272Y-335015D01*
G01Y-339815D02*
X27152D01*
G01X32512Y-333815D02*
X31885Y-334015D01*
X31415Y-334515D01*
X31102Y-335115D01*
X30867Y-335915D01*
X30789Y-336815D01*
X30867Y-337715D01*
X31102Y-338515D01*
X31415Y-339115D01*
X31885Y-339615D01*
X32512Y-339815D01*
X33139Y-339615D01*
X33609Y-339115D01*
X33922Y-338515D01*
X34157Y-337715D01*
X34235Y-336815D01*
X34157Y-335915D01*
X33922Y-335115D01*
X33609Y-334515D01*
X33139Y-334015D01*
X32512Y-333815D01*
G01X-5130Y-320315D02*
Y-316315D01*
X-2446Y-320315D01*
Y-316315D01*
G01X-213Y-320315D02*
X2237Y-316315D01*
G01X-213D02*
X2237Y-320315D01*
G01X4645D02*
Y-316315D01*
X6045D01*
X6512Y-316515D01*
X6862Y-316982D01*
X6979Y-317515D01*
X6862Y-318048D01*
X6570Y-318448D01*
X6045Y-318648D01*
X4645D01*
G01X10612Y-320448D02*
X10495Y-320382D01*
Y-320248D01*
X10612Y-320182D01*
X10729Y-320248D01*
Y-320382D01*
X10612Y-320448D01*
G01X-3788Y-312315D02*
X-4255Y-312248D01*
X-4663Y-311982D01*
X-5013Y-311582D01*
X-5246Y-311115D01*
X-5363Y-310582D01*
Y-310048D01*
X-5246Y-309515D01*
X-5013Y-309048D01*
X-4663Y-308648D01*
X-4255Y-308382D01*
X-3788Y-308315D01*
X-3321Y-308382D01*
X-2913Y-308648D01*
X-2563Y-309048D01*
X-2330Y-309515D01*
X-2213Y-310048D01*
Y-310582D01*
X-2330Y-311115D01*
X-2563Y-311582D01*
X-2913Y-311982D01*
X-3321Y-312248D01*
X-3788Y-312315D01*
G01X-155D02*
Y-308315D01*
X1304D01*
X1770Y-308515D01*
X2062Y-308782D01*
X2179Y-309315D01*
X2062Y-309848D01*
X1712Y-310182D01*
X1304Y-310382D01*
X-155D01*
G01X1304D02*
X2179Y-312315D01*
G01X9912Y-308315D02*
X11312D01*
G01X10612D02*
Y-312315D01*
G01X9912D02*
X11312D01*
G01X14070D02*
Y-308315D01*
X16754Y-312315D01*
Y-308315D01*
G01X23845Y-312315D02*
Y-308315D01*
X25245D01*
X25712Y-308515D01*
X26062Y-308982D01*
X26179Y-309515D01*
X26062Y-310048D01*
X25770Y-310448D01*
X25245Y-310648D01*
X23845D01*
G01X28354Y-312315D02*
X29812Y-308315D01*
X31270Y-312315D01*
G01X30745Y-310915D02*
X28879D01*
G01X33445Y-312315D02*
Y-308315D01*
X34904D01*
X35370Y-308515D01*
X35662Y-308782D01*
X35779Y-309315D01*
X35662Y-309848D01*
X35312Y-310182D01*
X34904Y-310382D01*
X33445D01*
G01X34904D02*
X35779Y-312315D01*
G01X39412Y-308315D02*
Y-312315D01*
G01X38070Y-308315D02*
X40754D01*
G01X47262D02*
X48079Y-312315D01*
X49012Y-308315D01*
X49945Y-312315D01*
X50762Y-308315D01*
G01X53112D02*
X54512D01*
G01X53812D02*
Y-312315D01*
G01X53112D02*
X54512D01*
G01X58612Y-308315D02*
Y-312315D01*
G01X57270Y-308315D02*
X59954D01*
G01X62187Y-312315D02*
Y-308315D01*
G01X64637D02*
Y-312315D01*
G01Y-310315D02*
X62187D01*
G01X68212Y-312315D02*
X67745Y-312248D01*
X67337Y-311982D01*
X66987Y-311582D01*
X66754Y-311115D01*
X66637Y-310582D01*
Y-310048D01*
X66754Y-309515D01*
X66987Y-309048D01*
X67337Y-308648D01*
X67745Y-308382D01*
X68212Y-308315D01*
X68679Y-308382D01*
X69087Y-308648D01*
X69437Y-309048D01*
X69670Y-309515D01*
X69787Y-310048D01*
Y-310582D01*
X69670Y-311115D01*
X69437Y-311582D01*
X69087Y-311982D01*
X68679Y-312248D01*
X68212Y-312315D01*
G01X71729Y-308315D02*
Y-311182D01*
X71962Y-311782D01*
X72429Y-312182D01*
X73012Y-312315D01*
X73595Y-312182D01*
X74062Y-311782D01*
X74295Y-311182D01*
Y-308315D01*
G01X77812D02*
Y-312315D01*
G01X76470Y-308315D02*
X79154D01*
G01X87412D02*
Y-312315D01*
G01X86070Y-308315D02*
X88754D01*
G01X90987Y-312315D02*
Y-308315D01*
G01X93437D02*
Y-312315D01*
G01Y-310315D02*
X90987D01*
G01X98179Y-312315D02*
X95845D01*
Y-308315D01*
X98179D01*
G01X97245Y-310248D02*
X95845D01*
G01X107895Y-308648D02*
X107545Y-308448D01*
X107137Y-308315D01*
X106670D01*
X106145Y-308515D01*
X105737Y-308848D01*
X105445Y-309248D01*
X105212Y-309915D01*
X105154Y-310515D01*
X105270Y-311115D01*
X105445Y-311515D01*
X105795Y-311915D01*
X106204Y-312182D01*
X106612Y-312315D01*
X107020D01*
X107429Y-312182D01*
X107779Y-311982D01*
X108070Y-311715D01*
G01X111412Y-312315D02*
X110945Y-312248D01*
X110537Y-311982D01*
X110187Y-311582D01*
X109954Y-311115D01*
X109837Y-310582D01*
Y-310048D01*
X109954Y-309515D01*
X110187Y-309048D01*
X110537Y-308648D01*
X110945Y-308382D01*
X111412Y-308315D01*
X111879Y-308382D01*
X112287Y-308648D01*
X112637Y-309048D01*
X112870Y-309515D01*
X112987Y-310048D01*
Y-310582D01*
X112870Y-311115D01*
X112637Y-311582D01*
X112287Y-311982D01*
X111879Y-312248D01*
X111412Y-312315D01*
G01X114870D02*
Y-308315D01*
X117554Y-312315D01*
Y-308315D01*
G01X119787Y-311782D02*
X120254Y-312115D01*
X120779Y-312315D01*
X121245D01*
X121712Y-312115D01*
X122062Y-311782D01*
X122237Y-311315D01*
X122120Y-310848D01*
X121829Y-310448D01*
X121304Y-310182D01*
X120604Y-310048D01*
X120195Y-309782D01*
X120020Y-309315D01*
X120137Y-308848D01*
X120429Y-308515D01*
X120837Y-308315D01*
X121245D01*
X121654Y-308448D01*
X122004Y-308782D01*
G01X126979Y-312315D02*
X124645D01*
Y-308315D01*
X126979D01*
G01X126045Y-310248D02*
X124645D01*
G01X129270Y-312315D02*
Y-308315D01*
X131954Y-312315D01*
Y-308315D01*
G01X135412D02*
Y-312315D01*
G01X134070Y-308315D02*
X136754D01*
G01X145012Y-312315D02*
X144545Y-312248D01*
X144137Y-311982D01*
X143787Y-311582D01*
X143554Y-311115D01*
X143437Y-310582D01*
Y-310048D01*
X143554Y-309515D01*
X143787Y-309048D01*
X144137Y-308648D01*
X144545Y-308382D01*
X145012Y-308315D01*
X145479Y-308382D01*
X145887Y-308648D01*
X146237Y-309048D01*
X146470Y-309515D01*
X146587Y-310048D01*
Y-310582D01*
X146470Y-311115D01*
X146237Y-311582D01*
X145887Y-311982D01*
X145479Y-312248D01*
X145012Y-312315D01*
G01X148704D02*
Y-308315D01*
X150920D01*
G01X150104Y-310248D02*
X148704D01*
G01X-4955Y-304315D02*
Y-300315D01*
X-3555D01*
X-3088Y-300515D01*
X-2738Y-300982D01*
X-2621Y-301515D01*
X-2738Y-302048D01*
X-3030Y-302448D01*
X-3555Y-302648D01*
X-4955D01*
G01X-155Y-304315D02*
Y-300315D01*
X1304D01*
X1770Y-300515D01*
X2062Y-300782D01*
X2179Y-301315D01*
X2062Y-301848D01*
X1712Y-302182D01*
X1304Y-302382D01*
X-155D01*
G01X1304D02*
X2179Y-304315D01*
G01X5812D02*
X5345Y-304248D01*
X4937Y-303982D01*
X4587Y-303582D01*
X4354Y-303115D01*
X4237Y-302582D01*
Y-302048D01*
X4354Y-301515D01*
X4587Y-301048D01*
X4937Y-300648D01*
X5345Y-300382D01*
X5812Y-300315D01*
X6279Y-300382D01*
X6687Y-300648D01*
X7037Y-301048D01*
X7270Y-301515D01*
X7387Y-302048D01*
Y-302582D01*
X7270Y-303115D01*
X7037Y-303582D01*
X6687Y-303982D01*
X6279Y-304248D01*
X5812Y-304315D01*
G01X11895Y-300648D02*
X11545Y-300448D01*
X11137Y-300315D01*
X10670D01*
X10145Y-300515D01*
X9737Y-300848D01*
X9445Y-301248D01*
X9212Y-301915D01*
X9154Y-302515D01*
X9270Y-303115D01*
X9445Y-303515D01*
X9795Y-303915D01*
X10204Y-304182D01*
X10612Y-304315D01*
X11020D01*
X11429Y-304182D01*
X11779Y-303982D01*
X12070Y-303715D01*
G01X14129Y-300315D02*
Y-303182D01*
X14362Y-303782D01*
X14829Y-304182D01*
X15412Y-304315D01*
X15995Y-304182D01*
X16462Y-303782D01*
X16695Y-303182D01*
Y-300315D01*
G01X19045Y-304315D02*
Y-300315D01*
X20504D01*
X20970Y-300515D01*
X21262Y-300782D01*
X21379Y-301315D01*
X21262Y-301848D01*
X20912Y-302182D01*
X20504Y-302382D01*
X19045D01*
G01X20504D02*
X21379Y-304315D01*
G01X26179D02*
X23845D01*
Y-300315D01*
X26179D01*
G01X25245Y-302248D02*
X23845D01*
G01X28295Y-304315D02*
Y-300315D01*
X29812Y-303648D01*
X31329Y-300315D01*
Y-304315D01*
G01X35779D02*
X33445D01*
Y-300315D01*
X35779D01*
G01X34845Y-302248D02*
X33445D01*
G01X38070Y-304315D02*
Y-300315D01*
X40754Y-304315D01*
Y-300315D01*
G01X44212D02*
Y-304315D01*
G01X42870Y-300315D02*
X45554D01*
G01X53812Y-304315D02*
X53345Y-304248D01*
X52937Y-303982D01*
X52587Y-303582D01*
X52354Y-303115D01*
X52237Y-302582D01*
Y-302048D01*
X52354Y-301515D01*
X52587Y-301048D01*
X52937Y-300648D01*
X53345Y-300382D01*
X53812Y-300315D01*
X54279Y-300382D01*
X54687Y-300648D01*
X55037Y-301048D01*
X55270Y-301515D01*
X55387Y-302048D01*
Y-302582D01*
X55270Y-303115D01*
X55037Y-303582D01*
X54687Y-303982D01*
X54279Y-304248D01*
X53812Y-304315D01*
G01X57445D02*
Y-300315D01*
X58904D01*
X59370Y-300515D01*
X59662Y-300782D01*
X59779Y-301315D01*
X59662Y-301848D01*
X59312Y-302182D01*
X58904Y-302382D01*
X57445D01*
G01X58904D02*
X59779Y-304315D01*
G01X66695D02*
Y-300315D01*
X68212Y-303648D01*
X69729Y-300315D01*
Y-304315D01*
G01X71554D02*
X73012Y-300315D01*
X74470Y-304315D01*
G01X73945Y-302915D02*
X72079D01*
G01X76470Y-304315D02*
Y-300315D01*
X79154Y-304315D01*
Y-300315D01*
G01X81329D02*
Y-303182D01*
X81562Y-303782D01*
X82029Y-304182D01*
X82612Y-304315D01*
X83195Y-304182D01*
X83662Y-303782D01*
X83895Y-303182D01*
Y-300315D01*
G01X86304Y-304315D02*
Y-300315D01*
X88520D01*
G01X87704Y-302248D02*
X86304D01*
G01X90754Y-304315D02*
X92212Y-300315D01*
X93670Y-304315D01*
G01X93145Y-302915D02*
X91279D01*
G01X98295Y-300648D02*
X97945Y-300448D01*
X97537Y-300315D01*
X97070D01*
X96545Y-300515D01*
X96137Y-300848D01*
X95845Y-301248D01*
X95612Y-301915D01*
X95554Y-302515D01*
X95670Y-303115D01*
X95845Y-303515D01*
X96195Y-303915D01*
X96604Y-304182D01*
X97012Y-304315D01*
X97420D01*
X97829Y-304182D01*
X98179Y-303982D01*
X98470Y-303715D01*
G01X101812Y-300315D02*
Y-304315D01*
G01X100470Y-300315D02*
X103154D01*
G01X105329D02*
Y-303182D01*
X105562Y-303782D01*
X106029Y-304182D01*
X106612Y-304315D01*
X107195Y-304182D01*
X107662Y-303782D01*
X107895Y-303182D01*
Y-300315D01*
G01X110245Y-304315D02*
Y-300315D01*
X111704D01*
X112170Y-300515D01*
X112462Y-300782D01*
X112579Y-301315D01*
X112462Y-301848D01*
X112112Y-302182D01*
X111704Y-302382D01*
X110245D01*
G01X111704D02*
X112579Y-304315D01*
G01X117379D02*
X115045D01*
Y-300315D01*
X117379D01*
G01X116445Y-302248D02*
X115045D01*
G01X125112Y-300315D02*
X126512D01*
G01X125812D02*
Y-304315D01*
G01X125112D02*
X126512D01*
G01X129270D02*
Y-300315D01*
X131954Y-304315D01*
Y-300315D01*
G01X138462D02*
X139279Y-304315D01*
X140212Y-300315D01*
X141145Y-304315D01*
X141962Y-300315D01*
G01X143787Y-304315D02*
Y-300315D01*
G01X146237D02*
Y-304315D01*
G01Y-302315D02*
X143787D01*
G01X149812Y-304315D02*
X149345Y-304248D01*
X148937Y-303982D01*
X148587Y-303582D01*
X148354Y-303115D01*
X148237Y-302582D01*
Y-302048D01*
X148354Y-301515D01*
X148587Y-301048D01*
X148937Y-300648D01*
X149345Y-300382D01*
X149812Y-300315D01*
X150279Y-300382D01*
X150687Y-300648D01*
X151037Y-301048D01*
X151270Y-301515D01*
X151387Y-302048D01*
Y-302582D01*
X151270Y-303115D01*
X151037Y-303582D01*
X150687Y-303982D01*
X150279Y-304248D01*
X149812Y-304315D01*
G01X153445Y-300315D02*
Y-304315D01*
X155779D01*
G01X160579D02*
X158245D01*
Y-300315D01*
X160579D01*
G01X159645Y-302248D02*
X158245D01*
G01X-3321Y-294182D02*
X-3088Y-293982D01*
X-2913Y-293648D01*
X-2796Y-293182D01*
X-2913Y-292782D01*
X-3146Y-292515D01*
X-3555Y-292315D01*
X-5130D01*
Y-296315D01*
X-3205D01*
X-2796Y-296048D01*
X-2563Y-295648D01*
X-2446Y-295182D01*
X-2563Y-294715D01*
X-2913Y-294315D01*
X-3321Y-294182D01*
X-5130D01*
G01X2179Y-296315D02*
X-155D01*
Y-292315D01*
X2179D01*
G01X1245Y-294248D02*
X-155D01*
G01X9329Y-292315D02*
Y-295182D01*
X9562Y-295782D01*
X10029Y-296182D01*
X10612Y-296315D01*
X11195Y-296182D01*
X11662Y-295782D01*
X11895Y-295182D01*
Y-292315D01*
G01X14187Y-295782D02*
X14654Y-296115D01*
X15179Y-296315D01*
X15645D01*
X16112Y-296115D01*
X16462Y-295782D01*
X16637Y-295315D01*
X16520Y-294848D01*
X16229Y-294448D01*
X15704Y-294182D01*
X15004Y-294048D01*
X14595Y-293782D01*
X14420Y-293315D01*
X14537Y-292848D01*
X14829Y-292515D01*
X15237Y-292315D01*
X15645D01*
X16054Y-292448D01*
X16404Y-292782D01*
G01X21379Y-296315D02*
X19045D01*
Y-292315D01*
X21379D01*
G01X20445Y-294248D02*
X19045D01*
G01X23729Y-296315D02*
Y-292315D01*
X24895D01*
X25362Y-292515D01*
X25712Y-292782D01*
X26004Y-293182D01*
X26237Y-293648D01*
X26295Y-294315D01*
X26237Y-294982D01*
X26004Y-295448D01*
X25712Y-295848D01*
X25362Y-296115D01*
X24895Y-296315D01*
X23729D01*
G01X33504D02*
Y-292315D01*
X35720D01*
G01X34904Y-294248D02*
X33504D01*
G01X39412Y-296315D02*
X38945Y-296248D01*
X38537Y-295982D01*
X38187Y-295582D01*
X37954Y-295115D01*
X37837Y-294582D01*
Y-294048D01*
X37954Y-293515D01*
X38187Y-293048D01*
X38537Y-292648D01*
X38945Y-292382D01*
X39412Y-292315D01*
X39879Y-292382D01*
X40287Y-292648D01*
X40637Y-293048D01*
X40870Y-293515D01*
X40987Y-294048D01*
Y-294582D01*
X40870Y-295115D01*
X40637Y-295582D01*
X40287Y-295982D01*
X39879Y-296248D01*
X39412Y-296315D01*
G01X43045D02*
Y-292315D01*
X44504D01*
X44970Y-292515D01*
X45262Y-292782D01*
X45379Y-293315D01*
X45262Y-293848D01*
X44912Y-294182D01*
X44504Y-294382D01*
X43045D01*
G01X44504D02*
X45379Y-296315D01*
G01X54979D02*
X52645D01*
Y-292315D01*
X54979D01*
G01X54045Y-294248D02*
X52645D01*
G01X57270Y-296315D02*
Y-292315D01*
X59954Y-296315D01*
Y-292315D01*
G01X63762Y-294315D02*
X64929D01*
Y-295515D01*
X64579Y-295915D01*
X64170Y-296182D01*
X63587Y-296315D01*
X63004Y-296182D01*
X62595Y-295915D01*
X62245Y-295515D01*
X62012Y-295048D01*
X61895Y-294515D01*
Y-294048D01*
X62012Y-293648D01*
X62245Y-293182D01*
X62595Y-292782D01*
X62945Y-292515D01*
X63412Y-292315D01*
X63820D01*
X64287Y-292448D01*
X64637Y-292715D01*
G01X67512Y-292315D02*
X68912D01*
G01X68212D02*
Y-296315D01*
G01X67512D02*
X68912D01*
G01X71670D02*
Y-292315D01*
X74354Y-296315D01*
Y-292315D01*
G01X78979Y-296315D02*
X76645D01*
Y-292315D01*
X78979D01*
G01X78045Y-294248D02*
X76645D01*
G01X83779Y-296315D02*
X81445D01*
Y-292315D01*
X83779D01*
G01X82845Y-294248D02*
X81445D01*
G01X86245Y-296315D02*
Y-292315D01*
X87704D01*
X88170Y-292515D01*
X88462Y-292782D01*
X88579Y-293315D01*
X88462Y-293848D01*
X88112Y-294182D01*
X87704Y-294382D01*
X86245D01*
G01X87704D02*
X88579Y-296315D01*
G01X91512Y-292315D02*
X92912D01*
G01X92212D02*
Y-296315D01*
G01X91512D02*
X92912D01*
G01X95670D02*
Y-292315D01*
X98354Y-296315D01*
Y-292315D01*
G01X102162Y-294315D02*
X103329D01*
Y-295515D01*
X102979Y-295915D01*
X102570Y-296182D01*
X101987Y-296315D01*
X101404Y-296182D01*
X100995Y-295915D01*
X100645Y-295515D01*
X100412Y-295048D01*
X100295Y-294515D01*
Y-294048D01*
X100412Y-293648D01*
X100645Y-293182D01*
X100995Y-292782D01*
X101345Y-292515D01*
X101812Y-292315D01*
X102220D01*
X102687Y-292448D01*
X103037Y-292715D01*
G01X110129Y-296315D02*
Y-292315D01*
X111295D01*
X111762Y-292515D01*
X112112Y-292782D01*
X112404Y-293182D01*
X112637Y-293648D01*
X112695Y-294315D01*
X112637Y-294982D01*
X112404Y-295448D01*
X112112Y-295848D01*
X111762Y-296115D01*
X111295Y-296315D01*
X110129D01*
G01X117379D02*
X115045D01*
Y-292315D01*
X117379D01*
G01X116445Y-294248D02*
X115045D01*
G01X119787Y-295782D02*
X120254Y-296115D01*
X120779Y-296315D01*
X121245D01*
X121712Y-296115D01*
X122062Y-295782D01*
X122237Y-295315D01*
X122120Y-294848D01*
X121829Y-294448D01*
X121304Y-294182D01*
X120604Y-294048D01*
X120195Y-293782D01*
X120020Y-293315D01*
X120137Y-292848D01*
X120429Y-292515D01*
X120837Y-292315D01*
X121245D01*
X121654Y-292448D01*
X122004Y-292782D01*
G01X125112Y-292315D02*
X126512D01*
G01X125812D02*
Y-296315D01*
G01X125112D02*
X126512D01*
G01X130962Y-294315D02*
X132129D01*
Y-295515D01*
X131779Y-295915D01*
X131370Y-296182D01*
X130787Y-296315D01*
X130204Y-296182D01*
X129795Y-295915D01*
X129445Y-295515D01*
X129212Y-295048D01*
X129095Y-294515D01*
Y-294048D01*
X129212Y-293648D01*
X129445Y-293182D01*
X129795Y-292782D01*
X130145Y-292515D01*
X130612Y-292315D01*
X131020D01*
X131487Y-292448D01*
X131837Y-292715D01*
G01X134070Y-296315D02*
Y-292315D01*
X136754Y-296315D01*
Y-292315D01*
G01X-4955Y-288315D02*
Y-284315D01*
X-3555D01*
X-3088Y-284515D01*
X-2738Y-284982D01*
X-2621Y-285515D01*
X-2738Y-286048D01*
X-3030Y-286448D01*
X-3555Y-286648D01*
X-4955D01*
G01X-155Y-288315D02*
Y-284315D01*
X1304D01*
X1770Y-284515D01*
X2062Y-284782D01*
X2179Y-285315D01*
X2062Y-285848D01*
X1712Y-286182D01*
X1304Y-286382D01*
X-155D01*
G01X1304D02*
X2179Y-288315D01*
G01X5812D02*
X5345Y-288248D01*
X4937Y-287982D01*
X4587Y-287582D01*
X4354Y-287115D01*
X4237Y-286582D01*
Y-286048D01*
X4354Y-285515D01*
X4587Y-285048D01*
X4937Y-284648D01*
X5345Y-284382D01*
X5812Y-284315D01*
X6279Y-284382D01*
X6687Y-284648D01*
X7037Y-285048D01*
X7270Y-285515D01*
X7387Y-286048D01*
Y-286582D01*
X7270Y-287115D01*
X7037Y-287582D01*
X6687Y-287982D01*
X6279Y-288248D01*
X5812Y-288315D01*
G01X9445D02*
Y-284315D01*
X10845D01*
X11312Y-284515D01*
X11662Y-284982D01*
X11779Y-285515D01*
X11662Y-286048D01*
X11370Y-286448D01*
X10845Y-286648D01*
X9445D01*
G01X14245Y-288315D02*
Y-284315D01*
X15704D01*
X16170Y-284515D01*
X16462Y-284782D01*
X16579Y-285315D01*
X16462Y-285848D01*
X16112Y-286182D01*
X15704Y-286382D01*
X14245D01*
G01X15704D02*
X16579Y-288315D01*
G01X19512Y-284315D02*
X20912D01*
G01X20212D02*
Y-288315D01*
G01X19512D02*
X20912D01*
G01X26179D02*
X23845D01*
Y-284315D01*
X26179D01*
G01X25245Y-286248D02*
X23845D01*
G01X29812Y-284315D02*
Y-288315D01*
G01X28470Y-284315D02*
X31154D01*
G01X33154Y-288315D02*
X34612Y-284315D01*
X36070Y-288315D01*
G01X35545Y-286915D02*
X33679D01*
G01X38245Y-288315D02*
Y-284315D01*
X39704D01*
X40170Y-284515D01*
X40462Y-284782D01*
X40579Y-285315D01*
X40462Y-285848D01*
X40112Y-286182D01*
X39704Y-286382D01*
X38245D01*
G01X39704D02*
X40579Y-288315D01*
G01X44212D02*
Y-286515D01*
X43045Y-284315D01*
G01X45379D02*
X44212Y-286515D01*
G01X53812Y-284315D02*
Y-288315D01*
G01X52470Y-284315D02*
X55154D01*
G01X58612Y-288315D02*
X58145Y-288248D01*
X57737Y-287982D01*
X57387Y-287582D01*
X57154Y-287115D01*
X57037Y-286582D01*
Y-286048D01*
X57154Y-285515D01*
X57387Y-285048D01*
X57737Y-284648D01*
X58145Y-284382D01*
X58612Y-284315D01*
X59079Y-284382D01*
X59487Y-284648D01*
X59837Y-285048D01*
X60070Y-285515D01*
X60187Y-286048D01*
Y-286582D01*
X60070Y-287115D01*
X59837Y-287582D01*
X59487Y-287982D01*
X59079Y-288248D01*
X58612Y-288315D01*
G01X66870D02*
Y-284315D01*
X69554Y-288315D01*
Y-284315D01*
G01X71787Y-288315D02*
X74237Y-284315D01*
G01X71787D02*
X74237Y-288315D01*
G01X76645D02*
Y-284315D01*
X78045D01*
X78512Y-284515D01*
X78862Y-284982D01*
X78979Y-285515D01*
X78862Y-286048D01*
X78570Y-286448D01*
X78045Y-286648D01*
X76645D01*
G01X85954Y-288315D02*
X87412Y-284315D01*
X88870Y-288315D01*
G01X88345Y-286915D02*
X86479D01*
G01X90870Y-288315D02*
Y-284315D01*
X93554Y-288315D01*
Y-284315D01*
G01X95729Y-288315D02*
Y-284315D01*
X96895D01*
X97362Y-284515D01*
X97712Y-284782D01*
X98004Y-285182D01*
X98237Y-285648D01*
X98295Y-286315D01*
X98237Y-286982D01*
X98004Y-287448D01*
X97712Y-287848D01*
X97362Y-288115D01*
X96895Y-288315D01*
X95729D01*
G01X105387Y-287782D02*
X105854Y-288115D01*
X106379Y-288315D01*
X106845D01*
X107312Y-288115D01*
X107662Y-287782D01*
X107837Y-287315D01*
X107720Y-286848D01*
X107429Y-286448D01*
X106904Y-286182D01*
X106204Y-286048D01*
X105795Y-285782D01*
X105620Y-285315D01*
X105737Y-284848D01*
X106029Y-284515D01*
X106437Y-284315D01*
X106845D01*
X107254Y-284448D01*
X107604Y-284782D01*
G01X110187Y-288315D02*
Y-284315D01*
G01X112637D02*
Y-288315D01*
G01Y-286315D02*
X110187D01*
G01X114754Y-288315D02*
X116212Y-284315D01*
X117670Y-288315D01*
G01X117145Y-286915D02*
X115279D01*
G01X119845Y-284315D02*
Y-288315D01*
X122179D01*
G01X124645Y-284315D02*
Y-288315D01*
X126979D01*
G01X134070D02*
Y-284315D01*
X136754Y-288315D01*
Y-284315D01*
G01X140212Y-288315D02*
X139745Y-288248D01*
X139337Y-287982D01*
X138987Y-287582D01*
X138754Y-287115D01*
X138637Y-286582D01*
Y-286048D01*
X138754Y-285515D01*
X138987Y-285048D01*
X139337Y-284648D01*
X139745Y-284382D01*
X140212Y-284315D01*
X140679Y-284382D01*
X141087Y-284648D01*
X141437Y-285048D01*
X141670Y-285515D01*
X141787Y-286048D01*
Y-286582D01*
X141670Y-287115D01*
X141437Y-287582D01*
X141087Y-287982D01*
X140679Y-288248D01*
X140212Y-288315D01*
G01X145012Y-284315D02*
Y-288315D01*
G01X143670Y-284315D02*
X146354D01*
G01X-3788Y-276315D02*
Y-280315D01*
G01X-5130Y-276315D02*
X-2446D01*
G01X-213Y-280315D02*
Y-276315D01*
G01X2237D02*
Y-280315D01*
G01Y-278315D02*
X-213D01*
G01X5112Y-276315D02*
X6512D01*
G01X5812D02*
Y-280315D01*
G01X5112D02*
X6512D01*
G01X9387Y-279782D02*
X9854Y-280115D01*
X10379Y-280315D01*
X10845D01*
X11312Y-280115D01*
X11662Y-279782D01*
X11837Y-279315D01*
X11720Y-278848D01*
X11429Y-278448D01*
X10904Y-278182D01*
X10204Y-278048D01*
X9795Y-277782D01*
X9620Y-277315D01*
X9737Y-276848D01*
X10029Y-276515D01*
X10437Y-276315D01*
X10845D01*
X11254Y-276448D01*
X11604Y-276782D01*
G01X18929Y-280315D02*
Y-276315D01*
X20095D01*
X20562Y-276515D01*
X20912Y-276782D01*
X21204Y-277182D01*
X21437Y-277648D01*
X21495Y-278315D01*
X21437Y-278982D01*
X21204Y-279448D01*
X20912Y-279848D01*
X20562Y-280115D01*
X20095Y-280315D01*
X18929D01*
G01X25012D02*
X24545Y-280248D01*
X24137Y-279982D01*
X23787Y-279582D01*
X23554Y-279115D01*
X23437Y-278582D01*
Y-278048D01*
X23554Y-277515D01*
X23787Y-277048D01*
X24137Y-276648D01*
X24545Y-276382D01*
X25012Y-276315D01*
X25479Y-276382D01*
X25887Y-276648D01*
X26237Y-277048D01*
X26470Y-277515D01*
X26587Y-278048D01*
Y-278582D01*
X26470Y-279115D01*
X26237Y-279582D01*
X25887Y-279982D01*
X25479Y-280248D01*
X25012Y-280315D01*
G01X31095Y-276648D02*
X30745Y-276448D01*
X30337Y-276315D01*
X29870D01*
X29345Y-276515D01*
X28937Y-276848D01*
X28645Y-277248D01*
X28412Y-277915D01*
X28354Y-278515D01*
X28470Y-279115D01*
X28645Y-279515D01*
X28995Y-279915D01*
X29404Y-280182D01*
X29812Y-280315D01*
X30220D01*
X30629Y-280182D01*
X30979Y-279982D01*
X31270Y-279715D01*
G01X33329Y-276315D02*
Y-279182D01*
X33562Y-279782D01*
X34029Y-280182D01*
X34612Y-280315D01*
X35195Y-280182D01*
X35662Y-279782D01*
X35895Y-279182D01*
Y-276315D01*
G01X37895Y-280315D02*
Y-276315D01*
X39412Y-279648D01*
X40929Y-276315D01*
Y-280315D01*
G01X45379D02*
X43045D01*
Y-276315D01*
X45379D01*
G01X44445Y-278248D02*
X43045D01*
G01X47670Y-280315D02*
Y-276315D01*
X50354Y-280315D01*
Y-276315D01*
G01X53812D02*
Y-280315D01*
G01X52470Y-276315D02*
X55154D01*
G01X64695Y-276648D02*
X64345Y-276448D01*
X63937Y-276315D01*
X63470D01*
X62945Y-276515D01*
X62537Y-276848D01*
X62245Y-277248D01*
X62012Y-277915D01*
X61954Y-278515D01*
X62070Y-279115D01*
X62245Y-279515D01*
X62595Y-279915D01*
X63004Y-280182D01*
X63412Y-280315D01*
X63820D01*
X64229Y-280182D01*
X64579Y-279982D01*
X64870Y-279715D01*
G01X68212Y-280315D02*
X67745Y-280248D01*
X67337Y-279982D01*
X66987Y-279582D01*
X66754Y-279115D01*
X66637Y-278582D01*
Y-278048D01*
X66754Y-277515D01*
X66987Y-277048D01*
X67337Y-276648D01*
X67745Y-276382D01*
X68212Y-276315D01*
X68679Y-276382D01*
X69087Y-276648D01*
X69437Y-277048D01*
X69670Y-277515D01*
X69787Y-278048D01*
Y-278582D01*
X69670Y-279115D01*
X69437Y-279582D01*
X69087Y-279982D01*
X68679Y-280248D01*
X68212Y-280315D01*
G01X71670D02*
Y-276315D01*
X74354Y-280315D01*
Y-276315D01*
G01X77812D02*
Y-280315D01*
G01X76470Y-276315D02*
X79154D01*
G01X81154Y-280315D02*
X82612Y-276315D01*
X84070Y-280315D01*
G01X83545Y-278915D02*
X81679D01*
G01X86712Y-276315D02*
X88112D01*
G01X87412D02*
Y-280315D01*
G01X86712D02*
X88112D01*
G01X90870D02*
Y-276315D01*
X93554Y-280315D01*
Y-276315D01*
G01X95787Y-279782D02*
X96254Y-280115D01*
X96779Y-280315D01*
X97245D01*
X97712Y-280115D01*
X98062Y-279782D01*
X98237Y-279315D01*
X98120Y-278848D01*
X97829Y-278448D01*
X97304Y-278182D01*
X96604Y-278048D01*
X96195Y-277782D01*
X96020Y-277315D01*
X96137Y-276848D01*
X96429Y-276515D01*
X96837Y-276315D01*
X97245D01*
X97654Y-276448D01*
X98004Y-276782D01*
G01X105912Y-276315D02*
X107312D01*
G01X106612D02*
Y-280315D01*
G01X105912D02*
X107312D01*
G01X110070D02*
Y-276315D01*
X112754Y-280315D01*
Y-276315D01*
G01X115104Y-280315D02*
Y-276315D01*
X117320D01*
G01X116504Y-278248D02*
X115104D01*
G01X121012Y-280315D02*
X120545Y-280248D01*
X120137Y-279982D01*
X119787Y-279582D01*
X119554Y-279115D01*
X119437Y-278582D01*
Y-278048D01*
X119554Y-277515D01*
X119787Y-277048D01*
X120137Y-276648D01*
X120545Y-276382D01*
X121012Y-276315D01*
X121479Y-276382D01*
X121887Y-276648D01*
X122237Y-277048D01*
X122470Y-277515D01*
X122587Y-278048D01*
Y-278582D01*
X122470Y-279115D01*
X122237Y-279582D01*
X121887Y-279982D01*
X121479Y-280248D01*
X121012Y-280315D01*
G01X124645D02*
Y-276315D01*
X126104D01*
X126570Y-276515D01*
X126862Y-276782D01*
X126979Y-277315D01*
X126862Y-277848D01*
X126512Y-278182D01*
X126104Y-278382D01*
X124645D01*
G01X126104D02*
X126979Y-280315D01*
G01X129095D02*
Y-276315D01*
X130612Y-279648D01*
X132129Y-276315D01*
Y-280315D01*
G01X133954D02*
X135412Y-276315D01*
X136870Y-280315D01*
G01X136345Y-278915D02*
X134479D01*
G01X140212Y-276315D02*
Y-280315D01*
G01X138870Y-276315D02*
X141554D01*
G01X144312D02*
X145712D01*
G01X145012D02*
Y-280315D01*
G01X144312D02*
X145712D01*
G01X149812D02*
X149345Y-280248D01*
X148937Y-279982D01*
X148587Y-279582D01*
X148354Y-279115D01*
X148237Y-278582D01*
Y-278048D01*
X148354Y-277515D01*
X148587Y-277048D01*
X148937Y-276648D01*
X149345Y-276382D01*
X149812Y-276315D01*
X150279Y-276382D01*
X150687Y-276648D01*
X151037Y-277048D01*
X151270Y-277515D01*
X151387Y-278048D01*
Y-278582D01*
X151270Y-279115D01*
X151037Y-279582D01*
X150687Y-279982D01*
X150279Y-280248D01*
X149812Y-280315D01*
G01X153270D02*
Y-276315D01*
X155954Y-280315D01*
Y-276315D01*
G01X42245Y-333815D02*
Y-339815D01*
X45379D01*
G01X50112D02*
Y-333815D01*
X49172Y-335015D01*
G01Y-339815D02*
X51052D01*
G01X54062Y-341815D02*
X58762D01*
G01X61145Y-339815D02*
Y-333815D01*
X63025D01*
X63652Y-334115D01*
X64122Y-334815D01*
X64279Y-335615D01*
X64122Y-336415D01*
X63730Y-337015D01*
X63025Y-337315D01*
X61145D01*
G01X67367Y-339015D02*
X67994Y-339515D01*
X68699Y-339815D01*
X69325D01*
X69952Y-339515D01*
X70422Y-339015D01*
X70657Y-338315D01*
X70500Y-337615D01*
X70109Y-337015D01*
X69404Y-336615D01*
X68464Y-336415D01*
X67915Y-336015D01*
X67680Y-335315D01*
X67837Y-334615D01*
X68229Y-334115D01*
X68777Y-333815D01*
X69325D01*
X69874Y-334015D01*
X70344Y-334515D01*
G01X39104Y-331315D02*
Y-327315D01*
X41320D01*
G01X40504Y-329248D02*
X39104D01*
G01X44312Y-327315D02*
X45712D01*
G01X45012D02*
Y-331315D01*
G01X44312D02*
X45712D01*
G01X48645Y-327315D02*
Y-331315D01*
X50979D01*
G01X53095D02*
Y-327315D01*
X54612Y-330648D01*
X56129Y-327315D01*
Y-331315D01*
G01X163929D02*
Y-327315D01*
X165095D01*
X165562Y-327515D01*
X165912Y-327782D01*
X166204Y-328182D01*
X166437Y-328648D01*
X166495Y-329315D01*
X166437Y-329982D01*
X166204Y-330448D01*
X165912Y-330848D01*
X165562Y-331115D01*
X165095Y-331315D01*
X163929D01*
G01X168554D02*
X170012Y-327315D01*
X171470Y-331315D01*
G01X170945Y-329915D02*
X169079D01*
G01X174812Y-327315D02*
Y-331315D01*
G01X173470Y-327315D02*
X176154D01*
G01X180779Y-331315D02*
X178445D01*
Y-327315D01*
X180779D01*
G01X179845Y-329248D02*
X178445D01*
G01X163870Y-251315D02*
Y-247315D01*
X166554Y-251315D01*
Y-247315D01*
G01X168554Y-251315D02*
X170012Y-247315D01*
X171470Y-251315D01*
G01X170945Y-249915D02*
X169079D01*
G01X173295Y-251315D02*
Y-247315D01*
X174812Y-250648D01*
X176329Y-247315D01*
Y-251315D01*
G01X180779D02*
X178445D01*
Y-247315D01*
X180779D01*
G01X179845Y-249248D02*
X178445D01*
G01X167212Y-335315D02*
X166745Y-335448D01*
X166395Y-335782D01*
X166162Y-336182D01*
X165987Y-336715D01*
X165929Y-337315D01*
X165987Y-337915D01*
X166162Y-338448D01*
X166395Y-338848D01*
X166745Y-339182D01*
X167212Y-339315D01*
X167679Y-339182D01*
X168029Y-338848D01*
X168262Y-338448D01*
X168437Y-337915D01*
X168495Y-337315D01*
X168437Y-336715D01*
X168262Y-336182D01*
X168029Y-335782D01*
X167679Y-335448D01*
X167212Y-335315D01*
G01X170904Y-337648D02*
X171312Y-337182D01*
X171662Y-336915D01*
X172129Y-336782D01*
X172537Y-336915D01*
X172829Y-337182D01*
X173062Y-337582D01*
X173120Y-338048D01*
X173062Y-338448D01*
X172829Y-338848D01*
X172479Y-339182D01*
X172070Y-339315D01*
X171604Y-339182D01*
X171195Y-338782D01*
X170962Y-338182D01*
X170904Y-337515D01*
X171020Y-336648D01*
X171195Y-336182D01*
X171487Y-335715D01*
X171895Y-335382D01*
X172304Y-335315D01*
X172712Y-335448D01*
X173004Y-335782D01*
G01X176054Y-337982D02*
X177570D01*
G01X181612Y-339315D02*
Y-335315D01*
X180912Y-336115D01*
G01Y-339315D02*
X182312D01*
G01X185304Y-335982D02*
X185654Y-335582D01*
X186062Y-335382D01*
X186529Y-335315D01*
X187112Y-335448D01*
X187520Y-335782D01*
X187637Y-336182D01*
X187579Y-336582D01*
X187345Y-336915D01*
X186179Y-337582D01*
X185654Y-338048D01*
X185304Y-338715D01*
X185187Y-339315D01*
X187637D01*
G01X190454Y-337982D02*
X191970D01*
G01X194904Y-335982D02*
X195254Y-335582D01*
X195662Y-335382D01*
X196129Y-335315D01*
X196712Y-335448D01*
X197120Y-335782D01*
X197237Y-336182D01*
X197179Y-336582D01*
X196945Y-336915D01*
X195779Y-337582D01*
X195254Y-338048D01*
X194904Y-338715D01*
X194787Y-339315D01*
X197237D01*
G01X201512D02*
Y-335315D01*
X199354Y-338182D01*
X202270D01*
G01X173462Y-317148D02*
X176962D01*
G01X178262D02*
X181762D01*
G01X183062D02*
X186562D01*
G01X195695Y-312148D02*
X195345Y-311948D01*
X194937Y-311815D01*
X194470D01*
X193945Y-312015D01*
X193537Y-312348D01*
X193245Y-312748D01*
X193012Y-313415D01*
X192954Y-314015D01*
X193070Y-314615D01*
X193245Y-315015D01*
X193595Y-315415D01*
X194004Y-315682D01*
X194412Y-315815D01*
X194820D01*
X195229Y-315682D01*
X195579Y-315482D01*
X195870Y-315215D01*
G01X199212Y-315815D02*
X198745Y-315748D01*
X198337Y-315482D01*
X197987Y-315082D01*
X197754Y-314615D01*
X197637Y-314082D01*
Y-313548D01*
X197754Y-313015D01*
X197987Y-312548D01*
X198337Y-312148D01*
X198745Y-311882D01*
X199212Y-311815D01*
X199679Y-311882D01*
X200087Y-312148D01*
X200437Y-312548D01*
X200670Y-313015D01*
X200787Y-313548D01*
Y-314082D01*
X200670Y-314615D01*
X200437Y-315082D01*
X200087Y-315482D01*
X199679Y-315748D01*
X199212Y-315815D01*
G01X202495D02*
Y-311815D01*
X204012Y-315148D01*
X205529Y-311815D01*
Y-315815D01*
G01X207645D02*
Y-311815D01*
X209045D01*
X209512Y-312015D01*
X209862Y-312482D01*
X209979Y-313015D01*
X209862Y-313548D01*
X209570Y-313948D01*
X209045Y-314148D01*
X207645D01*
G01X212154Y-315815D02*
X213612Y-311815D01*
X215070Y-315815D01*
G01X214545Y-314415D02*
X212679D01*
G01X217070Y-315815D02*
Y-311815D01*
X219754Y-315815D01*
Y-311815D01*
G01X223212Y-315815D02*
Y-314015D01*
X222045Y-311815D01*
G01X224379D02*
X223212Y-314015D01*
G01X234095Y-312148D02*
X233745Y-311948D01*
X233337Y-311815D01*
X232870D01*
X232345Y-312015D01*
X231937Y-312348D01*
X231645Y-312748D01*
X231412Y-313415D01*
X231354Y-314015D01*
X231470Y-314615D01*
X231645Y-315015D01*
X231995Y-315415D01*
X232404Y-315682D01*
X232812Y-315815D01*
X233220D01*
X233629Y-315682D01*
X233979Y-315482D01*
X234270Y-315215D01*
G01X237612Y-315815D02*
X237145Y-315748D01*
X236737Y-315482D01*
X236387Y-315082D01*
X236154Y-314615D01*
X236037Y-314082D01*
Y-313548D01*
X236154Y-313015D01*
X236387Y-312548D01*
X236737Y-312148D01*
X237145Y-311882D01*
X237612Y-311815D01*
X238079Y-311882D01*
X238487Y-312148D01*
X238837Y-312548D01*
X239070Y-313015D01*
X239187Y-313548D01*
Y-314082D01*
X239070Y-314615D01*
X238837Y-315082D01*
X238487Y-315482D01*
X238079Y-315748D01*
X237612Y-315815D01*
G01X241070D02*
Y-311815D01*
X243754Y-315815D01*
Y-311815D01*
G01X246104Y-315815D02*
Y-311815D01*
X248320D01*
G01X247504Y-313748D02*
X246104D01*
G01X251312Y-311815D02*
X252712D01*
G01X252012D02*
Y-315815D01*
G01X251312D02*
X252712D01*
G01X255529D02*
Y-311815D01*
X256695D01*
X257162Y-312015D01*
X257512Y-312282D01*
X257804Y-312682D01*
X258037Y-313148D01*
X258095Y-313815D01*
X258037Y-314482D01*
X257804Y-314948D01*
X257512Y-315348D01*
X257162Y-315615D01*
X256695Y-315815D01*
X255529D01*
G01X262779D02*
X260445D01*
Y-311815D01*
X262779D01*
G01X261845Y-313748D02*
X260445D01*
G01X265070Y-315815D02*
Y-311815D01*
X267754Y-315815D01*
Y-311815D01*
G01X271212D02*
Y-315815D01*
G01X269870Y-311815D02*
X272554D01*
G01X275312D02*
X276712D01*
G01X276012D02*
Y-315815D01*
G01X275312D02*
X276712D01*
G01X279354D02*
X280812Y-311815D01*
X282270Y-315815D01*
G01X281745Y-314415D02*
X279879D01*
G01X284445Y-311815D02*
Y-315815D01*
X286779D01*
G01X178167Y-300315D02*
X181457Y-294015D01*
G01X178167D02*
X181457Y-300315D01*
G01X173462Y-300648D02*
X176962D01*
G01X178262D02*
X181762D01*
G01X183062D02*
X186562D01*
G01X195695Y-295648D02*
X195345Y-295448D01*
X194937Y-295315D01*
X194470D01*
X193945Y-295515D01*
X193537Y-295848D01*
X193245Y-296248D01*
X193012Y-296915D01*
X192954Y-297515D01*
X193070Y-298115D01*
X193245Y-298515D01*
X193595Y-298915D01*
X194004Y-299182D01*
X194412Y-299315D01*
X194820D01*
X195229Y-299182D01*
X195579Y-298982D01*
X195870Y-298715D01*
G01X199212Y-299315D02*
X198745Y-299248D01*
X198337Y-298982D01*
X197987Y-298582D01*
X197754Y-298115D01*
X197637Y-297582D01*
Y-297048D01*
X197754Y-296515D01*
X197987Y-296048D01*
X198337Y-295648D01*
X198745Y-295382D01*
X199212Y-295315D01*
X199679Y-295382D01*
X200087Y-295648D01*
X200437Y-296048D01*
X200670Y-296515D01*
X200787Y-297048D01*
Y-297582D01*
X200670Y-298115D01*
X200437Y-298582D01*
X200087Y-298982D01*
X199679Y-299248D01*
X199212Y-299315D01*
G01X202495D02*
Y-295315D01*
X204012Y-298648D01*
X205529Y-295315D01*
Y-299315D01*
G01X207645D02*
Y-295315D01*
X209045D01*
X209512Y-295515D01*
X209862Y-295982D01*
X209979Y-296515D01*
X209862Y-297048D01*
X209570Y-297448D01*
X209045Y-297648D01*
X207645D01*
G01X212154Y-299315D02*
X213612Y-295315D01*
X215070Y-299315D01*
G01X214545Y-297915D02*
X212679D01*
G01X217070Y-299315D02*
Y-295315D01*
X219754Y-299315D01*
Y-295315D01*
G01X223212Y-299315D02*
Y-297515D01*
X222045Y-295315D01*
G01X224379D02*
X223212Y-297515D01*
G01X232112Y-295315D02*
X233512D01*
G01X232812D02*
Y-299315D01*
G01X232112D02*
X233512D01*
G01X236270D02*
Y-295315D01*
X238954Y-299315D01*
Y-295315D01*
G01X242412D02*
Y-299315D01*
G01X241070Y-295315D02*
X243754D01*
G01X248379Y-299315D02*
X246045D01*
Y-295315D01*
X248379D01*
G01X247445Y-297248D02*
X246045D01*
G01X250845Y-299315D02*
Y-295315D01*
X252304D01*
X252770Y-295515D01*
X253062Y-295782D01*
X253179Y-296315D01*
X253062Y-296848D01*
X252712Y-297182D01*
X252304Y-297382D01*
X250845D01*
G01X252304D02*
X253179Y-299315D01*
G01X255470D02*
Y-295315D01*
X258154Y-299315D01*
Y-295315D01*
G01X260154Y-299315D02*
X261612Y-295315D01*
X263070Y-299315D01*
G01X262545Y-297915D02*
X260679D01*
G01X265245Y-295315D02*
Y-299315D01*
X267579D01*
G01X173462Y-284648D02*
X176962D01*
G01X178262D02*
X181762D01*
G01X183062D02*
X186562D01*
G01X195695Y-279648D02*
X195345Y-279448D01*
X194937Y-279315D01*
X194470D01*
X193945Y-279515D01*
X193537Y-279848D01*
X193245Y-280248D01*
X193012Y-280915D01*
X192954Y-281515D01*
X193070Y-282115D01*
X193245Y-282515D01*
X193595Y-282915D01*
X194004Y-283182D01*
X194412Y-283315D01*
X194820D01*
X195229Y-283182D01*
X195579Y-282982D01*
X195870Y-282715D01*
G01X199212Y-283315D02*
X198745Y-283248D01*
X198337Y-282982D01*
X197987Y-282582D01*
X197754Y-282115D01*
X197637Y-281582D01*
Y-281048D01*
X197754Y-280515D01*
X197987Y-280048D01*
X198337Y-279648D01*
X198745Y-279382D01*
X199212Y-279315D01*
X199679Y-279382D01*
X200087Y-279648D01*
X200437Y-280048D01*
X200670Y-280515D01*
X200787Y-281048D01*
Y-281582D01*
X200670Y-282115D01*
X200437Y-282582D01*
X200087Y-282982D01*
X199679Y-283248D01*
X199212Y-283315D01*
G01X202495D02*
Y-279315D01*
X204012Y-282648D01*
X205529Y-279315D01*
Y-283315D01*
G01X207645D02*
Y-279315D01*
X209045D01*
X209512Y-279515D01*
X209862Y-279982D01*
X209979Y-280515D01*
X209862Y-281048D01*
X209570Y-281448D01*
X209045Y-281648D01*
X207645D01*
G01X212154Y-283315D02*
X213612Y-279315D01*
X215070Y-283315D01*
G01X214545Y-281915D02*
X212679D01*
G01X217070Y-283315D02*
Y-279315D01*
X219754Y-283315D01*
Y-279315D01*
G01X223212Y-283315D02*
Y-281515D01*
X222045Y-279315D01*
G01X224379D02*
X223212Y-281515D01*
G01X231645Y-283315D02*
Y-279315D01*
X233045D01*
X233512Y-279515D01*
X233862Y-279982D01*
X233979Y-280515D01*
X233862Y-281048D01*
X233570Y-281448D01*
X233045Y-281648D01*
X231645D01*
G01X236329Y-279315D02*
Y-282182D01*
X236562Y-282782D01*
X237029Y-283182D01*
X237612Y-283315D01*
X238195Y-283182D01*
X238662Y-282782D01*
X238895Y-282182D01*
Y-279315D01*
G01X242879Y-281182D02*
X243112Y-280982D01*
X243287Y-280648D01*
X243404Y-280182D01*
X243287Y-279782D01*
X243054Y-279515D01*
X242645Y-279315D01*
X241070D01*
Y-283315D01*
X242995D01*
X243404Y-283048D01*
X243637Y-282648D01*
X243754Y-282182D01*
X243637Y-281715D01*
X243287Y-281315D01*
X242879Y-281182D01*
X241070D01*
G01X246045Y-279315D02*
Y-283315D01*
X248379D01*
G01X251312Y-279315D02*
X252712D01*
G01X252012D02*
Y-283315D01*
G01X251312D02*
X252712D01*
G01X258095Y-279648D02*
X257745Y-279448D01*
X257337Y-279315D01*
X256870D01*
X256345Y-279515D01*
X255937Y-279848D01*
X255645Y-280248D01*
X255412Y-280915D01*
X255354Y-281515D01*
X255470Y-282115D01*
X255645Y-282515D01*
X255995Y-282915D01*
X256404Y-283182D01*
X256812Y-283315D01*
X257220D01*
X257629Y-283182D01*
X257979Y-282982D01*
X258270Y-282715D01*
G01X213870Y-331315D02*
Y-327315D01*
X216554Y-331315D01*
Y-327315D01*
G01X218729D02*
Y-330182D01*
X218962Y-330782D01*
X219429Y-331182D01*
X220012Y-331315D01*
X220595Y-331182D01*
X221062Y-330782D01*
X221295Y-330182D01*
Y-327315D01*
G01X223295Y-331315D02*
Y-327315D01*
X224812Y-330648D01*
X226329Y-327315D01*
Y-331315D01*
G01X230079Y-329182D02*
X230312Y-328982D01*
X230487Y-328648D01*
X230604Y-328182D01*
X230487Y-327782D01*
X230254Y-327515D01*
X229845Y-327315D01*
X228270D01*
Y-331315D01*
X230195D01*
X230604Y-331048D01*
X230837Y-330648D01*
X230954Y-330182D01*
X230837Y-329715D01*
X230487Y-329315D01*
X230079Y-329182D01*
X228270D01*
G01X235579Y-331315D02*
X233245D01*
Y-327315D01*
X235579D01*
G01X234645Y-329248D02*
X233245D01*
G01X238045Y-331315D02*
Y-327315D01*
X239504D01*
X239970Y-327515D01*
X240262Y-327782D01*
X240379Y-328315D01*
X240262Y-328848D01*
X239912Y-329182D01*
X239504Y-329382D01*
X238045D01*
G01X239504D02*
X240379Y-331315D01*
G01X248812Y-338515D02*
Y-332215D01*
X247872Y-333475D01*
G01Y-338515D02*
X249752D01*
G01X254955D02*
X255112Y-337150D01*
X255347Y-335995D01*
X255660Y-334945D01*
X256052Y-333790D01*
X256679Y-332215D01*
X253545D01*
G01X261412D02*
X260785Y-332425D01*
X260315Y-332950D01*
X260002Y-333580D01*
X259767Y-334420D01*
X259689Y-335365D01*
X259767Y-336310D01*
X260002Y-337150D01*
X260315Y-337780D01*
X260785Y-338305D01*
X261412Y-338515D01*
X262039Y-338305D01*
X262509Y-337780D01*
X262822Y-337150D01*
X263057Y-336310D01*
X263135Y-335365D01*
X263057Y-334420D01*
X262822Y-333580D01*
X262509Y-332950D01*
X262039Y-332425D01*
X261412Y-332215D01*
G01X266694Y-336415D02*
X268730D01*
G01X274012Y-338515D02*
X274560Y-338410D01*
X275187Y-338095D01*
X275579Y-337570D01*
X275735Y-336835D01*
X275579Y-336100D01*
X275109Y-335470D01*
X274404Y-335155D01*
X273620D01*
X273150Y-334945D01*
X272759Y-334420D01*
X272602Y-333685D01*
X272837Y-332950D01*
X273385Y-332425D01*
X274012Y-332215D01*
X274639Y-332425D01*
X275187Y-332950D01*
X275422Y-333685D01*
X275265Y-334420D01*
X274874Y-334945D01*
X274404Y-335155D01*
X273620D01*
X272915Y-335470D01*
X272445Y-336100D01*
X272289Y-336835D01*
X272445Y-337570D01*
X272837Y-338095D01*
X273464Y-338410D01*
X274012Y-338515D01*
G01X278980Y-337780D02*
X279529Y-338305D01*
X280155Y-338515D01*
X280782Y-338305D01*
X281330Y-337675D01*
X281722Y-336730D01*
X281879Y-335785D01*
Y-334630D01*
X281722Y-333685D01*
X281330Y-332845D01*
X280860Y-332425D01*
X280312Y-332215D01*
X279685Y-332425D01*
X279215Y-332845D01*
X278902Y-333475D01*
X278745Y-334315D01*
X278902Y-335050D01*
X279294Y-335785D01*
X279764Y-336205D01*
X280312Y-336310D01*
X280939Y-336100D01*
X281409Y-335575D01*
X281879Y-334630D01*
G01X286612Y-338515D02*
Y-332215D01*
X285672Y-333475D01*
G01Y-338515D02*
X287552D01*
G01X291424Y-333265D02*
X291894Y-332635D01*
X292442Y-332320D01*
X293069Y-332215D01*
X293852Y-332425D01*
X294400Y-332950D01*
X294557Y-333580D01*
X294479Y-334210D01*
X294165Y-334735D01*
X292599Y-335785D01*
X291894Y-336520D01*
X291424Y-337570D01*
X291267Y-338515D01*
X294557D01*
G01X297880Y-337780D02*
X298429Y-338305D01*
X299055Y-338515D01*
X299682Y-338305D01*
X300230Y-337675D01*
X300622Y-336730D01*
X300779Y-335785D01*
Y-334630D01*
X300622Y-333685D01*
X300230Y-332845D01*
X299760Y-332425D01*
X299212Y-332215D01*
X298585Y-332425D01*
X298115Y-332845D01*
X297802Y-333475D01*
X297645Y-334315D01*
X297802Y-335050D01*
X298194Y-335785D01*
X298664Y-336205D01*
X299212Y-336310D01*
X299839Y-336100D01*
X300309Y-335575D01*
X300779Y-334630D01*
G01X341745Y-338515D02*
Y-332215D01*
X343704D01*
X344330Y-332530D01*
X344722Y-332950D01*
X344879Y-333790D01*
X344722Y-334630D01*
X344252Y-335155D01*
X343704Y-335470D01*
X341745D01*
G01X343704D02*
X344879Y-338515D01*
G01X351179D02*
X348045D01*
Y-332215D01*
X351179D01*
G01X349925Y-335260D02*
X348045D01*
G01X353954Y-332215D02*
X355912Y-338515D01*
X357870Y-332215D01*
G01X370235Y-332740D02*
X369765Y-332425D01*
X369217Y-332215D01*
X368590D01*
X367885Y-332530D01*
X367337Y-333055D01*
X366945Y-333685D01*
X366632Y-334735D01*
X366554Y-335680D01*
X366710Y-336625D01*
X366945Y-337255D01*
X367415Y-337885D01*
X367964Y-338305D01*
X368512Y-338515D01*
X369060D01*
X369609Y-338305D01*
X370079Y-337990D01*
X370470Y-337570D01*
G01X239995Y-261415D02*
Y-255115D01*
X241875D01*
X242502Y-255430D01*
X242972Y-256165D01*
X243129Y-257005D01*
X242972Y-257845D01*
X242580Y-258475D01*
X241875Y-258790D01*
X239995D01*
G01X246060Y-261415D02*
Y-255115D01*
X249664Y-261415D01*
Y-255115D01*
G01X255729Y-261415D02*
X252595D01*
Y-255115D01*
X255729D01*
G01X254475Y-258160D02*
X252595D01*
G01X258504Y-255115D02*
X260462Y-261415D01*
X262420Y-255115D01*
G01X266605Y-261415D02*
X266762Y-260050D01*
X266997Y-258895D01*
X267310Y-257845D01*
X267702Y-256690D01*
X268329Y-255115D01*
X265195D01*
G01X271574Y-256165D02*
X272044Y-255535D01*
X272592Y-255220D01*
X273219Y-255115D01*
X274002Y-255325D01*
X274550Y-255850D01*
X274707Y-256480D01*
X274629Y-257110D01*
X274315Y-257635D01*
X272749Y-258685D01*
X272044Y-259420D01*
X271574Y-260470D01*
X271417Y-261415D01*
X274707D01*
G01X277874Y-256165D02*
X278344Y-255535D01*
X278892Y-255220D01*
X279519Y-255115D01*
X280302Y-255325D01*
X280850Y-255850D01*
X281007Y-256480D01*
X280929Y-257110D01*
X280615Y-257635D01*
X279049Y-258685D01*
X278344Y-259420D01*
X277874Y-260470D01*
X277717Y-261415D01*
X281007D01*
G01X285662Y-255115D02*
X285035Y-255325D01*
X284565Y-255850D01*
X284252Y-256480D01*
X284017Y-257320D01*
X283939Y-258265D01*
X284017Y-259210D01*
X284252Y-260050D01*
X284565Y-260680D01*
X285035Y-261205D01*
X285662Y-261415D01*
X286289Y-261205D01*
X286759Y-260680D01*
X287072Y-260050D01*
X287307Y-259210D01*
X287385Y-258265D01*
X287307Y-257320D01*
X287072Y-256480D01*
X286759Y-255850D01*
X286289Y-255325D01*
X285662Y-255115D01*
G01X292589Y-258055D02*
X292902Y-257740D01*
X293137Y-257215D01*
X293294Y-256480D01*
X293137Y-255850D01*
X292824Y-255430D01*
X292275Y-255115D01*
X290160D01*
Y-261415D01*
X292745D01*
X293294Y-260995D01*
X293607Y-260365D01*
X293764Y-259630D01*
X293607Y-258895D01*
X293137Y-258265D01*
X292589Y-258055D01*
X290160D01*
G01X296695Y-261415D02*
Y-255115D01*
X298575D01*
X299202Y-255430D01*
X299672Y-256165D01*
X299829Y-257005D01*
X299672Y-257845D01*
X299280Y-258475D01*
X298575Y-258790D01*
X296695D01*
G01X304562Y-261415D02*
Y-255115D01*
X303622Y-256375D01*
G01Y-261415D02*
X305502D01*
G54D54*
X340933Y205185D03*
X348633D03*
G54D18*
X6879Y46185D03*
Y52800D03*
Y59400D03*
X7479Y137000D03*
X14279Y138600D03*
Y151600D03*
Y145100D03*
X48479Y47800D03*
X25279Y48685D03*
X76783D03*
X61783D03*
X69283D03*
X87783Y39185D03*
Y46185D03*
X103500Y39185D03*
X94800Y46185D03*
X104833Y25185D03*
X103500Y46185D03*
X95283Y39185D03*
X124283Y77185D03*
X132283D03*
X124283Y89711D03*
Y97211D03*
Y105185D03*
Y112685D03*
Y122211D03*
Y132211D03*
X132283D03*
Y122211D03*
X124283Y142611D03*
X140783Y77185D03*
G54D45*
X303098Y178485D03*
Y185485D03*
G54D27*
X127283Y45185D03*
X132283D03*
X137283D03*
X127283Y61185D03*
X132283D03*
X137283D03*
X142283Y45185D03*
X147283D03*
X142283Y61185D03*
X147283D03*
G54D36*
X196250Y131797D03*
X217250D03*
X266983Y130597D03*
X304388Y130897D03*
G54D64*
G01X28100Y67211D02*
X26700D01*
X24949Y65460D01*
X23393D01*
X6879Y48946D01*
Y46185D01*
G01Y59400D02*
X20183Y72704D01*
Y78170D01*
X24224Y82211D01*
X28100D01*
G01X6879Y52800D02*
Y54866D01*
X24224Y72211D01*
X28100D01*
G01Y122211D02*
X31976D01*
X32065Y122300D01*
X32779D01*
X33779Y123300D01*
Y132400D01*
X27579Y138600D01*
X21879D01*
X17779Y134500D01*
X9979D01*
X7479Y137000D01*
G01X23283Y142185D02*
X17864D01*
X14279Y138600D01*
G01Y151600D02*
X20368D01*
X22283Y149685D01*
G01X14279Y145100D02*
X22789D01*
X23374Y145685D01*
X25100D01*
G01X58500Y56811D02*
Y50402D01*
X55883Y47785D01*
Y29084D01*
X35509Y8710D01*
X31783D01*
G01X53500Y56811D02*
Y33202D01*
X39008Y18710D01*
X31783D01*
G01X48479Y47800D02*
X43500Y52779D01*
Y56811D01*
G01X38500D02*
X33405D01*
X25279Y48685D01*
G01X43500Y64185D02*
Y56811D01*
G01X48283Y72211D02*
X28100D01*
G01X43500Y69185D02*
X39553D01*
X37579Y67211D01*
X28100D01*
G01X38500Y56811D02*
Y63402D01*
X42283Y67185D01*
X48283D01*
G01X48500Y142611D02*
Y137902D01*
X46398Y135800D01*
X33600D01*
X27215Y142185D01*
X23283D01*
G01X22283Y149685D02*
X26715D01*
X33789Y142611D01*
X38500D01*
G01X25100Y145685D02*
X27316D01*
X34816Y138185D01*
X42737D01*
X43500Y138948D01*
Y142611D01*
G01X73500Y56811D02*
Y51968D01*
X76783Y48685D01*
G01X61783D02*
Y41685D01*
G01Y48685D02*
Y51468D01*
X63500Y53185D01*
Y56811D01*
G01X69283Y48685D02*
Y41685D01*
G01Y48685D02*
Y52148D01*
X68500Y52931D01*
Y56811D01*
G01X98500Y51185D02*
Y42402D01*
X95283Y39185D01*
G01X94800Y51185D02*
Y46185D01*
G01X111333Y25185D02*
X104833D01*
G01X87783Y39185D02*
X83500Y43468D01*
Y51185D01*
G01X87783Y46185D02*
X88500Y46902D01*
Y51185D01*
G01X103500Y39185D02*
X107383D01*
G01X103500Y51185D02*
Y46185D01*
G01X98500Y56811D02*
Y51185D01*
G01X94800D02*
X93500Y52485D01*
Y56811D01*
G01X83500Y51185D02*
Y56811D01*
G01X88500Y51185D02*
Y56811D01*
G01X77100Y69800D02*
X79511Y72211D01*
X113900D01*
G01X103500Y56811D02*
Y51185D01*
G01Y142611D02*
X124283D01*
G01X121783Y27185D02*
X119783Y25185D01*
X115333D01*
G01X126783Y27185D02*
X121783D01*
G01X111333Y32485D02*
Y25185D01*
G01Y39885D02*
Y32485D01*
G01X119233Y36185D02*
Y42135D01*
X122283Y45185D01*
X127283D01*
G01X132283Y32685D02*
Y45185D01*
G01X113900Y67211D02*
Y53302D01*
X107383Y46785D01*
Y39185D01*
G01X132283Y82211D02*
Y77185D01*
G01X120283Y77211D02*
X113900D01*
G01X120283D02*
X122527D01*
X122553Y77185D01*
X124283D01*
G01Y105185D02*
X131385D01*
X133400Y107200D01*
X137874D01*
X142174Y111500D01*
X144500D01*
G01X128683Y89711D02*
X124283D01*
G01D02*
X121783Y92211D01*
X113900D01*
G01X124283Y97211D02*
X128783D01*
G01X113900D02*
X124283D01*
G01Y105185D02*
X121309Y102211D01*
X113900D01*
G01X124283Y112685D02*
X118809Y107211D01*
X113900D01*
G01X118800Y87211D02*
X113900D01*
G01X140783Y77185D02*
X132268Y85700D01*
X122700D01*
X121189Y87211D01*
X118800D01*
G01X113900Y82211D02*
X132283D01*
G01X133783Y97211D02*
X128783D01*
G01X133783Y89711D02*
X128683D01*
G01X138100Y117275D02*
X133602D01*
X133600Y117273D01*
X133173D01*
X128585Y112685D01*
X124283D01*
G01X113900Y122211D02*
X124283D01*
G01X113900Y132211D02*
X124283D01*
G01X132283D02*
X127283Y127211D01*
X113900D01*
G01X132283Y122211D02*
X127283Y117211D01*
X113900D01*
G01X222800Y131600D02*
X226200D01*
X228800Y134200D01*
Y149400D01*
X222300Y155900D01*
X181001D01*
X150852Y125751D01*
X137449D01*
X135008Y128192D01*
Y134612D01*
X127009Y142611D01*
X124283D01*
G01X138100Y112337D02*
X136463Y110700D01*
X134500D01*
X133900Y110100D01*
G01X142283Y36685D02*
Y32685D01*
G01Y45185D02*
Y36685D01*
G01X137283Y45185D02*
Y32685D01*
G01X147283Y45185D02*
Y36685D01*
G01D02*
Y32685D01*
G01X141200Y101200D02*
X143400D01*
X144500Y102300D01*
Y106562D01*
G01X185584Y67930D02*
X197700D01*
G01X192400Y131800D02*
Y138950D01*
G01X199900Y83400D02*
X199685Y83185D01*
X196233D01*
G01X222800Y131600D02*
X222600Y131800D01*
X219729D01*
X219726Y131797D01*
X217253D01*
X217250Y131800D01*
G01X213400Y138950D02*
Y131800D01*
G01X201200Y146700D02*
X201050Y146850D01*
X196100D01*
G01X217100D02*
X221250D01*
X221400Y147000D01*
G01X266983Y130600D02*
Y126700D01*
X273600Y120083D01*
Y109026D01*
X277739Y104887D01*
G01X266983Y130600D02*
X266986Y130597D01*
X275297D01*
X295900Y151200D01*
X312600D01*
X319800Y158400D01*
Y162326D01*
X323174Y165700D01*
X349800D01*
X355000Y160500D01*
G01X263133Y130600D02*
Y138650D01*
G01X270600Y146400D02*
X270450Y146550D01*
X266833D01*
G01X304388Y130900D02*
Y119087D01*
X302400Y117099D01*
Y109548D01*
X297739Y104887D01*
G01X365000Y160500D02*
X359800Y155300D01*
X335900D01*
X333000Y152400D01*
Y133900D01*
X330000Y130900D01*
X306867D01*
X306864Y130897D01*
X304391D01*
X304388Y130900D01*
G01X300243Y138650D02*
Y133657D01*
X300538Y133362D01*
Y130900D01*
G01X303943Y146550D02*
X307650D01*
X307700Y146500D01*
G01X296598Y185485D02*
X303098D01*
G01X296598Y178485D02*
X303098D01*
G01Y185485D02*
Y183605D01*
X303718Y182985D01*
X306770D01*
X315683Y191898D01*
Y195285D01*
X314483Y196485D01*
X313283D01*
X312640Y197128D01*
Y199154D01*
G01X303098Y178485D02*
Y181045D01*
X303738Y181685D01*
X307309D01*
X316609Y190985D01*
X318383D01*
X319530Y192132D01*
Y194035D01*
G01X328900Y142514D02*
Y132625D01*
G01X321718Y142514D02*
Y132625D01*
G01X336500Y148514D02*
X337000D01*
X340100Y145414D01*
Y135000D01*
G01X336700Y138500D02*
X336500Y138700D01*
Y142514D01*
G01X326000Y138662D02*
Y140388D01*
X324900Y141488D01*
Y147500D01*
X325914Y148514D01*
X328900D01*
G01X335000Y160500D02*
X329400Y154900D01*
X324600D01*
X321718Y152018D01*
Y148514D01*
G01D02*
X317814D01*
X315300Y146000D01*
Y144100D01*
G01X385000Y160500D02*
X380900D01*
X377000Y164400D01*
X373500D01*
X368800Y159700D01*
Y156800D01*
X365700Y153700D01*
X338500D01*
X336500Y151700D01*
Y148514D01*
G01X328900D02*
Y150990D01*
X334610Y156700D01*
X341200D01*
X345000Y160500D01*
G01X365545Y47900D02*
Y54355D01*
X366000Y54810D01*
Y56785D01*
G01X362217Y142510D02*
X361717D01*
X355200Y135993D01*
Y117617D01*
X354014Y116431D01*
Y108612D01*
X357739Y104887D01*
G01X359500Y129900D02*
X365700Y136100D01*
Y145998D01*
X368216Y148514D01*
X368716D01*
G01X362217Y148510D02*
X361717D01*
X353100Y139893D01*
Y129800D01*
G01X343717Y148514D02*
X347285D01*
X348200Y147599D01*
Y134700D01*
G01X368716Y142514D02*
Y119590D01*
X367739Y118613D01*
Y114887D01*
G01X343600Y138900D02*
X343717Y139017D01*
Y142514D01*
G01X375000Y160500D02*
X367100Y152600D01*
X345327D01*
X343717Y150990D01*
Y148514D01*
G01X395000Y160500D02*
X389800Y155300D01*
X380900D01*
X374114Y148514D01*
X368716D01*
G01X383800Y19200D02*
X385928Y17072D01*
Y14000D01*
G01X392030D02*
X396579D01*
G01X386228Y24100D02*
Y31100D01*
G01X399900Y44700D02*
X386552D01*
X385428Y43576D01*
Y41300D01*
G01X374024Y56785D02*
Y54809D01*
X375421Y53412D01*
Y47900D01*
G01X392330Y24100D02*
X396779D01*
G01X395979Y41300D02*
X391530D01*
G01X404100Y61300D02*
X389828D01*
X385528Y57000D01*
X385428D01*
G01X391530Y49100D02*
X395779D01*
G01X401100Y52200D02*
X399374D01*
X398874Y52700D01*
X389128D01*
X385528Y49100D01*
X385428D01*
G01X391630Y64700D02*
X395779D01*
G01X404100Y68500D02*
X389428D01*
X385628Y64700D01*
X385528D01*
G01X395379Y57000D02*
X391530D01*
G01X396700Y81200D02*
X396600Y81100D01*
X391930D01*
G01X385828D02*
X381700D01*
X381600Y81200D01*
G01X382883Y136200D02*
Y140156D01*
X382880Y140159D01*
Y142632D01*
X382883Y142635D01*
G01Y146485D02*
Y151600D01*
G01X402217Y146765D02*
X402220Y146768D01*
Y149241D01*
X402217Y149244D01*
Y153283D01*
X395000Y160500D01*
G01X402217Y142915D02*
X406500D01*
G54D28*
X132283Y157500D03*
X138283D03*
X176900Y86000D03*
X182900D03*
X262483Y68885D03*
X256483D03*
X262483Y75185D03*
X256483D03*
X290598Y178485D03*
X296598D03*
X290598Y185485D03*
X296598D03*
G54D46*
X311656Y194035D03*
X309687D03*
X307719D03*
X305750D03*
X303782D03*
X306735Y199154D03*
X308703D03*
X310672D03*
X312640D03*
X327404Y194035D03*
X325436D03*
X323467D03*
X321499D03*
X319530D03*
X317562D03*
X313624D03*
X314609Y199154D03*
X316577D03*
X318546D03*
X320514D03*
X322483D03*
X324451D03*
G54D55*
X385928Y14000D03*
X392030D03*
X385428Y41300D03*
X391530D03*
X385428Y49100D03*
X391530D03*
X386228Y24100D03*
X392330D03*
X385428Y57000D03*
X391530D03*
X385528Y64700D03*
X391630D03*
X385828Y81100D03*
X391930D03*
G54D19*
X20079Y101211D03*
Y97211D03*
X19979Y104600D03*
Y108600D03*
X69283Y37685D03*
Y41685D03*
X61783Y37685D03*
Y41685D03*
X115333Y25185D03*
X111333D03*
X132283Y32685D03*
Y28685D03*
X137283Y32685D03*
Y28685D03*
X133783Y97211D03*
Y89711D03*
X137200Y101200D03*
X129900Y110100D03*
X133900D03*
X136283Y163300D03*
X132283D03*
X147283Y32685D03*
Y28685D03*
X142283Y32685D03*
Y28685D03*
X137783Y97211D03*
Y89711D03*
X141200Y101200D03*
X181584Y67930D03*
X185584D03*
X181584Y71900D03*
X185584D03*
X250083Y76370D03*
Y68485D03*
X246083D03*
X250083Y80370D03*
X329783Y179500D03*
Y183500D03*
X366000Y60785D03*
Y56785D03*
X359900Y66400D03*
Y62400D03*
X374024Y60785D03*
Y56785D03*
G54D37*
X192838Y131800D03*
X213838D03*
X263571Y130600D03*
X300976Y130900D03*
G54D29*
X132283Y149450D03*
Y143150D03*
G54D47*
X298585Y195650D03*
X332601D03*
G54D56*
X382880Y142635D03*
G54D38*
X223363Y28085D03*
X365545Y47900D03*
G54D48*
X303388Y199154D03*
X327798D03*
G54D39*
X263683Y20635D03*
G54D57*
X382883Y146047D03*
G54D58*
X402217Y143353D03*
G54D49*
X298585Y216752D03*
X332601D03*
G54D59*
X402220Y146765D03*
M02*
