G04 ================== begin FILE IDENTIFICATION RECORD ==================*
G04 Layout Name:  LAY-89129_C.brd*
G04 Film Name:    L3_INT_1.art*
G04 File Format:  Gerber RS274X*
G04 File Origin:  Cadence Allegro 17.4-S037*
G04 Origin Date:  Wed Jun 12 20:14:21 2024*
G04 *
G04 Layer:  BOARD GEOMETRY/DESIGN_OUTLINE*
G04 Layer:  VIA CLASS/L3_INT_1*
G04 Layer:  PIN/L3_INT_1*
G04 Layer:  ETCH/L3_INT_1*
G04 Layer:  DRAWING FORMAT/FILM_TITLE_BLOCK*
G04 *
G04 Offset:    (0.00 0.00)*
G04 Mirror:    No*
G04 Mode:      Positive*
G04 Rotation:  0*
G04 FullContactRelief:  No*
G04 UndefLineWidth:     8.00*
G04 ================== end FILE IDENTIFICATION RECORD ====================*
%FSLAX55Y55*MOIN*%
%IR0*IPPOS*OFA0.00000B0.00000*MIA0B0*SFA1.00000B1.00000*%
%ADD15O,.043X.102*%
%ADD11C,.02*%
%ADD10C,.06*%
%ADD13C,.065*%
%ADD16C,.084*%
%ADD12C,.066*%
%ADD14O,.043X.083*%
%ADD17C,.01*%
%ADD18C,.008*%
%ADD19C,.006*%
%ADD23C,.03008*%
%ADD20C,.07008*%
%ADD21C,.07508*%
%ADD24C,.09408*%
%ADD22C,.07608*%
G75*
%LPD*%
G75*
G36*
G01X-7500Y10957D02*
Y139298D01*
X-5201D01*
G02X-4866Y138427I0J-500D01*
G03X-6125Y135600I2544J-2827D01*
G03X1483I3804J0D01*
G03X224Y138427I-3803J0D01*
G02X559Y139298I335J371D01*
G01X5152D01*
X11967Y132484D01*
X62781D01*
X63228Y132931D01*
G02X64082Y132577I354J-354D01*
G01Y124273D01*
X66371Y121984D01*
X89597D01*
X93202Y125588D01*
Y130578D01*
G02X94055Y130932I500J0D01*
G01X94588Y130398D01*
X97628D01*
G02X97982Y129545I0J-500D01*
G01X91698Y123262D01*
Y27612D01*
X85688Y21602D01*
X77688D01*
X74698Y18612D01*
Y17169D01*
G02X73965Y16727I-500J0D01*
G03X72213Y17161I-1752J-3319D01*
G03Y9653I0J-3754D01*
G03X73965Y10087I0J3753D01*
G02X74698Y9645I233J-442D01*
G01Y-912D01*
X80433Y-6646D01*
G02X80080Y-7500I-353J-354D01*
G01X10957D01*
G02X10536Y-6731I0J500D01*
G03X12502Y0I-10536J6730D01*
G03X0Y12502I-12502J0D01*
G03X-6731Y10536I-1J-12502D01*
G02X-7500Y10957I-269J421D01*
G37*
G36*
G01X-8217Y150904D02*
X-5121Y154000D01*
X26379D01*
X28194Y152185D01*
X63783D01*
X64082Y151886D01*
Y136898D01*
X61869Y134685D01*
X12879D01*
X6064Y141500D01*
X-6117D01*
X-8217Y143600D01*
Y150904D01*
G37*
G36*
G01X368812Y82202D02*
X359622D01*
G02X359268Y83055I0J500D01*
G01X359902Y83688D01*
Y89288D01*
X360913Y90300D01*
X357612Y93602D01*
X338172D01*
G03X335628I-1272J-801D01*
G01X335188D01*
X321188Y79602D01*
X308922D01*
G02X308568Y80455I0J500D01*
G01X314802Y86688D01*
Y101711D01*
G02X315606Y102107I500J-1D01*
G03X317739Y101383I2133J2780D01*
G03Y108391I0J3504D01*
G03X315606Y107667I0J-3504D01*
G02X314802Y108063I-304J397D01*
G01Y111711D01*
G02X315606Y112107I500J-1D01*
G03X317739Y111383I2133J2780D01*
G03Y118391I0J3504D01*
G03X315606Y117667I0J-3504D01*
G02X314802Y118063I-304J397D01*
G01Y142096D01*
G02X315301Y142596I500J0D01*
G03Y145604I-1J1504D01*
G02X314802Y146104I1J500D01*
G01Y163512D01*
X308112Y170202D01*
X281888D01*
X275898Y164212D01*
Y117869D01*
G03Y111905I1842J-2982D01*
G01Y107869D01*
G03Y101905I1842J-2982D01*
G01Y85006D01*
G02X275099Y84606I-500J0D01*
G03X273000Y85304I-2099J-2807D01*
G03X269496Y81800I0J-3504D01*
G03X269827Y80314I3504J1D01*
G02X269375Y79602I-453J-212D01*
G01X265282D01*
G03X262284I-1499J-117D01*
G01X245914D01*
X242170Y83345D01*
G02X242524Y84198I354J353D01*
G01X252977D01*
G03X255399Y83226I2422J2532D01*
G01X255400D01*
G03X258904Y86730I0J3504D01*
G03X256568Y90034I-3505J0D01*
G01X256402Y90092D01*
Y100972D01*
G02X257006Y101461I500J0D01*
G03X257739Y101383I735J3426D01*
G03Y108391I0J3504D01*
G03X257006Y108313I2J-3504D01*
G02X256402Y108802I-104J489D01*
G01Y110972D01*
G02X257006Y111461I500J0D01*
G03X257739Y111383I735J3426D01*
G03Y118391I0J3504D01*
G03X257006Y118313I2J-3504D01*
G02X256402Y118802I-104J489D01*
G01Y185597D01*
X243034Y198965D01*
G02X243249Y199799I353J354D01*
G03X245967Y203407I-1036J3608D01*
G03X238459I-3754J0D01*
G01Y203405D01*
G03X238909Y201624I3754J1D01*
G02X238470Y200886I-440J-238D01*
G01X235956D01*
G02X235517Y201624I1J500D01*
G03X235967Y203405I-3304J1782D01*
G01Y203407D01*
G03X228459I-3754J0D01*
G01Y203405D01*
G03X228909Y201624I3754J1D01*
G02X228470Y200886I-440J-238D01*
G01X225956D01*
G02X225517Y201624I1J500D01*
G03X225967Y203405I-3304J1782D01*
G01Y203407D01*
G03X218459I-3754J0D01*
G01Y203405D01*
G03X218909Y201624I3754J1D01*
G02X218470Y200886I-440J-238D01*
G01X215956D01*
G02X215517Y201624I1J500D01*
G03X215967Y203405I-3304J1782D01*
G01Y203407D01*
G03X208459I-3754J0D01*
G01Y203405D01*
G03X208909Y201624I3754J1D01*
G02X208470Y200886I-440J-238D01*
G01X195956D01*
G02X195517Y201624I1J500D01*
G03X195967Y203405I-3304J1782D01*
G01Y203407D01*
G03X188459I-3754J0D01*
G01Y203405D01*
G03X188909Y201624I3754J1D01*
G02X188470Y200886I-440J-238D01*
G01X185956D01*
G02X185517Y201624I1J500D01*
G03X185967Y203405I-3304J1782D01*
G01Y203407D01*
G03X178459I-3754J0D01*
G01Y203405D01*
G03X178909Y201624I3754J1D01*
G02X178470Y200886I-440J-238D01*
G01X175956D01*
G02X175517Y201624I1J500D01*
G03X175967Y203405I-3304J1782D01*
G01Y203407D01*
G03X168459I-3754J0D01*
G01Y203405D01*
G03X168909Y201624I3754J1D01*
G02X168470Y200886I-440J-238D01*
G01X165956D01*
G02X165517Y201624I1J500D01*
G03X165967Y203405I-3304J1782D01*
G01Y203407D01*
G03X158459I-3754J0D01*
G01Y203405D01*
G03X158909Y201624I3754J1D01*
G02X158470Y200886I-440J-238D01*
G01X155956D01*
G02X155517Y201624I1J500D01*
G03X155967Y203405I-3304J1782D01*
G01Y203407D01*
G03X148459I-3754J0D01*
G01Y203405D01*
G03X148909Y201624I3754J1D01*
G02X148470Y200886I-440J-238D01*
G01X145956D01*
G02X145517Y201624I1J500D01*
G03X145967Y203405I-3304J1782D01*
G01Y203407D01*
G03X138459I-3754J0D01*
G01Y203405D01*
G03X138909Y201624I3754J1D01*
G02X138470Y200886I-440J-238D01*
G01X135956D01*
G02X135517Y201624I1J500D01*
G03X135967Y203405I-3304J1782D01*
G01Y203407D01*
G03X128459I-3754J0D01*
G01Y203405D01*
G03X128909Y201624I3754J1D01*
G02X128470Y200886I-440J-238D01*
G01X125956D01*
G02X125517Y201624I1J500D01*
G03X125967Y203405I-3304J1782D01*
G01Y203407D01*
G03X118459I-3754J0D01*
G01Y203405D01*
G03X118909Y201624I3754J1D01*
G02X118470Y200886I-440J-238D01*
G01X109956D01*
G02X109517Y201624I1J500D01*
G03X109967Y203405I-3304J1782D01*
G01Y203407D01*
G03X102459I-3754J0D01*
G01Y203405D01*
G03X102909Y201624I3754J1D01*
G02X102470Y200886I-440J-238D01*
G01X99956D01*
G02X99517Y201624I1J500D01*
G03X99967Y203405I-3304J1782D01*
G01Y203407D01*
G03X92459I-3754J0D01*
G01Y203405D01*
G03X92909Y201624I3754J1D01*
G02X92470Y200886I-440J-238D01*
G01X89956D01*
G02X89517Y201624I1J500D01*
G03X89967Y203405I-3304J1782D01*
G01Y203407D01*
G03X82459I-3754J0D01*
G01Y203405D01*
G03X82909Y201624I3754J1D01*
G02X82470Y200886I-440J-238D01*
G01X79956D01*
G02X79517Y201624I1J500D01*
G03X79967Y203405I-3304J1782D01*
G01Y203407D01*
G03X72459I-3754J0D01*
G01Y203405D01*
G03X72909Y201624I3754J1D01*
G02X72470Y200886I-440J-238D01*
G01X69956D01*
G02X69517Y201624I1J500D01*
G03X69967Y203405I-3304J1782D01*
G01Y203407D01*
G03X62459I-3754J0D01*
G01Y203405D01*
G03X62909Y201624I3754J1D01*
G02X62470Y200886I-440J-238D01*
G01X59956D01*
G02X59517Y201624I1J500D01*
G03X59967Y203405I-3304J1782D01*
G01Y203407D01*
G03X52459I-3754J0D01*
G01Y203405D01*
G03X52909Y201624I3754J1D01*
G02X52470Y200886I-440J-238D01*
G01X43371D01*
X38582Y196097D01*
Y195206D01*
G02X37728Y194853I-500J1D01*
G01X36195Y196386D01*
X28871D01*
X26082Y193597D01*
Y177273D01*
X31371Y171984D01*
X46371D01*
X63115Y155240D01*
G02X62762Y154386I-354J-354D01*
G01X29106D01*
X27291Y156202D01*
X-6033D01*
X-6646Y155588D01*
G02X-7500Y155941I-354J353D01*
G01Y164044D01*
G02X-6731Y164465I500J0D01*
G03X0Y162498I6732J10536D01*
G03Y187504I0J12503D01*
G03X-6731Y185537I1J-12503D01*
G02X-7500Y185958I-269J421D01*
G01Y218721D01*
X291082D01*
Y188984D01*
X301195D01*
X302984Y190773D01*
Y207984D01*
X328082D01*
Y191273D01*
X330371Y188984D01*
X336195D01*
X338484Y191273D01*
Y193273D01*
X345484Y200273D01*
Y212097D01*
X339714Y217867D01*
G02X340067Y218721I353J354D01*
G01X397114D01*
G02X397535Y217952I0J-500D01*
G03X395568Y211221I10536J-6732D01*
G03X408071Y198718I12503J0D01*
G03X414802Y200685I-1J12503D01*
G02X415571Y200264I269J-421D01*
G01Y73102D01*
X395012D01*
X386262Y81852D01*
X382963D01*
X382890Y81973D01*
G03X381600Y82704I-1290J-773D01*
G03X380096Y81200I0J-1504D01*
G03X380598Y80078I1505J0D01*
G01Y52812D01*
X373055Y45268D01*
G02X372202Y45622I-353J354D01*
G01Y78812D01*
X368812Y82202D01*
G37*
G36*
G01X231243Y114891D02*
G03X231100Y115884I-3505J2D01*
G01Y158801D01*
G02X231770Y159271I500J0D01*
G03X232282Y159181I512J1414D01*
G01X232283D01*
G03Y162189I0J1504D01*
G01X232282D01*
G03X231770Y162099I0J-1504D01*
G02X231100Y162569I-170J470D01*
G01Y167900D01*
X220100Y178900D01*
X87068D01*
X84783Y181185D01*
X63783D01*
X59783Y185185D01*
X41283D01*
X40783Y185685D01*
Y195185D01*
X44283Y198685D01*
X240200D01*
X254200Y184685D01*
Y90022D01*
G03X251928Y87200I1200J-3292D01*
G01X251917Y87117D01*
X251200Y86400D01*
X240600D01*
X231100Y95900D01*
Y103890D01*
G03X231243Y104883I-3362J991D01*
G01Y104891D01*
G03X231100Y105884I-3505J2D01*
G01Y113890D01*
G03X231243Y114883I-3362J991D01*
G01Y114891D01*
G37*
G36*
G01X86519Y124185D02*
G02X86086Y124934I1J500D01*
G03X86287Y125685I-1302J751D01*
G03X83279I-1504J0D01*
G03X83480Y124934I1503J0D01*
G02X83047Y124185I-434J-249D01*
G01X67283D01*
X66283Y125185D01*
Y155185D01*
X47283Y174185D01*
X32283D01*
X28283Y178185D01*
Y192685D01*
X29783Y194185D01*
X35283D01*
X37283Y192185D01*
Y185685D01*
X40283Y182685D01*
X59170D01*
X62871Y178984D01*
X77995D01*
G02X78468Y178321I0J-500D01*
G03X78279Y177186I3315J-1135D01*
G01Y177185D01*
G03X81783Y173681I3504J0D01*
G03X85224Y176526I0J3503D01*
G02X86069Y176786I491J-94D01*
G01X86156Y176698D01*
X88201D01*
X91000Y173900D01*
Y126500D01*
X88685Y124185D01*
X86519D01*
G37*
G36*
G01X181498Y121400D02*
X199600D01*
X202283Y118717D01*
Y87685D01*
X207283Y82685D01*
X207379D01*
X231682Y58382D01*
Y15818D01*
X239815Y7685D01*
X326100D01*
X326208Y7792D01*
X338892D01*
X354000Y22900D01*
Y32800D01*
X355100Y33900D01*
Y34000D01*
X360200Y39100D01*
X370000D01*
X382800Y51900D01*
Y79650D01*
X385350D01*
X394100Y70900D01*
X414979D01*
Y11314D01*
G02X414233Y10879I-500J0D01*
G03X408071Y12502I-6160J-10879D01*
G03X395568Y0I0J-12503D01*
G03X397474Y-6635I12502J0D01*
G02X397050Y-7400I-424J-265D01*
G01X364179D01*
G02X364039Y-6420I0J500D01*
G03X372909Y5395I-3434J11815D01*
G03X348301I-12304J0D01*
G03X357171Y-6420I12304J0D01*
G02X357031Y-7400I-140J-480D01*
G01X187840D01*
G02X187700Y-6420I0J500D01*
G03X196570Y5395I-3434J11815D01*
G03X171962I-12304J0D01*
G03X180832Y-6420I12304J0D01*
G02X180692Y-7400I-140J-480D01*
G01X84300D01*
X76900Y0D01*
Y17700D01*
X78600Y19400D01*
X85000D01*
X85900Y18500D01*
Y5700D01*
X87800Y3800D01*
X127800D01*
X131100Y7100D01*
Y13100D01*
X134100Y16100D01*
X157500D01*
X160900Y19500D01*
Y59400D01*
X180283Y78783D01*
Y120185D01*
X181498Y121400D01*
G37*
G36*
G01X146550Y175000D02*
X216000D01*
X228200Y162800D01*
Y118891D01*
G02X227705Y118391I-500J0D01*
G03Y111383I34J-3504D01*
G02X228200Y110883I-5J-500D01*
G01Y108891D01*
G02X227705Y108391I-500J0D01*
G03Y101383I34J-3504D01*
G02X228200Y100883I-5J-500D01*
G01Y94202D01*
X245002Y77400D01*
X322100D01*
X336100Y91400D01*
X336349D01*
X336390Y91385D01*
G03X336900Y91296I510J1415D01*
G03X337410Y91385I0J1504D01*
G01X337451Y91400D01*
X356700D01*
X357700Y90400D01*
Y84600D01*
X356500Y83400D01*
X350300D01*
X348900Y82000D01*
Y61800D01*
X350400Y60300D01*
X355700D01*
X357800Y58200D01*
Y52000D01*
X356800Y51000D01*
X337600D01*
X327850Y60750D01*
X232427D01*
X229725Y63453D01*
G02X229954Y64291I353J354D01*
G03X232589Y67685I-868J3394D01*
G03X229085Y71189I-3504J0D01*
G03X225691Y68554I0J-3503D01*
G02X224853Y68325I-484J124D01*
G01X208291Y84886D01*
X208195D01*
X204600Y88481D01*
Y101876D01*
G02X205430Y102252I500J0D01*
G03X207739Y101383I2310J2635D01*
G03Y108391I0J3504D01*
G03X205430Y107522I1J-3504D01*
G02X204600Y107898I-330J376D01*
G01Y111876D01*
G02X205430Y112252I500J0D01*
G03X207739Y111383I2310J2635D01*
G03Y118391I0J3504D01*
G03X205430Y117522I1J-3504D01*
G02X204600Y117898I-330J376D01*
G01Y120500D01*
X200400Y124700D01*
X183500D01*
X180600Y127600D01*
Y134100D01*
X177800Y136900D01*
X138900D01*
X136100Y134100D01*
Y70614D01*
G03Y68756I1184J-929D01*
G01Y36400D01*
X127400Y27700D01*
Y11000D01*
X123400Y7000D01*
X90300D01*
X88200Y9100D01*
Y21000D01*
X93900Y26700D01*
Y49221D01*
G02X94500Y49711I500J0D01*
G03X94800Y49681I299J1474D01*
G03Y52689I0J1504D01*
G03X94500Y52659I-1J-1504D01*
G02X93900Y53149I-100J490D01*
G01Y122350D01*
X146550Y175000D01*
G37*
G36*
G01X123065Y174000D02*
X133100D01*
X134600Y172500D01*
Y167150D01*
X100050Y132600D01*
X95500D01*
X93900Y134200D01*
Y148684D01*
G02X94371Y149184I500J1D01*
G03Y152186I-88J1501D01*
G02X93900Y152686I29J499D01*
G01Y162300D01*
X105600Y174000D01*
X115501D01*
G02X115973Y173336I0J-500D01*
G03X115779Y172185I3310J-1150D01*
G03X122787I3504J0D01*
G03X122593Y173336I-3504J1D01*
G02X123065Y174000I472J164D01*
G37*
G36*
G01X139875Y134525D02*
X173375D01*
X177000Y130900D01*
Y79647D01*
G02X176373Y79163I-500J0D01*
G03X175992Y79212I-381J-1455D01*
G03X174488Y77708I0J-1504D01*
G03X174826Y76758I1504J0D01*
G01X174969Y76583D01*
X158698Y60312D01*
Y60099D01*
X158200Y59600D01*
Y19913D01*
X156987Y18700D01*
X132583D01*
X130000Y21284D01*
Y27187D01*
X138302Y35488D01*
Y68578D01*
G03X138787Y69685I-1019J1106D01*
G03X138302Y70792I-1504J1D01*
G01Y103669D01*
G02X139175Y104001I500J0D01*
G03X140300Y103496I1124J999D01*
G03Y106504I0J1504D01*
G03X139175Y105999I-1J-1504D01*
G02X138302Y106331I-373J332D01*
G01Y132951D01*
X139875Y134525D01*
G37*
G36*
G01X356778Y39998D02*
G02X357132Y39145I0J-500D01*
G01X352898Y34912D01*
Y34812D01*
X351798Y33712D01*
Y23812D01*
X337980Y9994D01*
X325302D01*
X325194Y9886D01*
X240727D01*
X237068Y13545D01*
G02X237422Y14398I354J353D01*
G01X240612D01*
X243802Y17588D01*
Y24177D01*
G03Y27093I-369J1458D01*
G01Y29177D01*
G03Y32093I-369J1458D01*
G01Y34177D01*
G03Y37093I-369J1458D01*
G01Y39177D01*
G03X244795Y39998I-369J1458D01*
G01X247071D01*
G03X249795I1362J636D01*
G01X252071D01*
G03X254795I1362J636D01*
G01X257071D01*
G03X259795I1362J636D01*
G01X262071D01*
G03X264795I1362J636D01*
G01X267071D01*
G03X269795I1362J636D01*
G01X272071D01*
G03X274795I1362J636D01*
G01X277071D01*
G03X279795I1362J636D01*
G01X282071D01*
G03X284795I1362J636D01*
G01X356778D01*
G37*
G36*
G01X353400Y80000D02*
X367900D01*
X370000Y77900D01*
Y45600D01*
X366600Y42200D01*
X242300D01*
X241600Y41500D01*
Y18500D01*
X239700Y16600D01*
X234013D01*
X233884Y16730D01*
Y57884D01*
X234549Y58548D01*
X326938D01*
X336688Y48798D01*
X357712D01*
X360002Y51088D01*
Y59112D01*
X360000Y59113D01*
Y60600D01*
X357000Y63600D01*
X353000D01*
X351102Y65498D01*
Y77702D01*
X353400Y80000D01*
G37*
G36*
G01X282800Y168000D02*
X307200D01*
X312600Y162600D01*
Y87600D01*
X305100Y80100D01*
X280900D01*
X278100Y82900D01*
Y101396D01*
X278309Y101430D01*
G03Y108344I-570J3457D01*
G01X278100Y108378D01*
Y111396D01*
X278309Y111430D01*
G03Y118344I-570J3457D01*
G01X278100Y118378D01*
Y124899D01*
G02X278625Y125398I500J0D01*
G03X278700Y125396I78J1502D01*
G03Y128404I0J1504D01*
G03X278625Y128402I3J-1504D01*
G02X278100Y128901I-25J499D01*
G01Y163300D01*
X282800Y168000D01*
G37*
G36*
G01X293283Y191185D02*
Y217720D01*
X294283Y218720D01*
X335748D01*
X343283Y211185D01*
Y201185D01*
X336283Y194185D01*
Y192185D01*
X335283Y191185D01*
X331283D01*
X330283Y192185D01*
Y209185D01*
X329283Y210185D01*
X300783D01*
Y191685D01*
X300283Y191185D01*
X293283D01*
G37*
%LPC*%
G75*
G36*
G01X311567Y182587D02*
G02X310796Y183900I733J1313D01*
G02X313804I1504J0D01*
G02X313033Y182587I-1504J0D01*
G03Y181713I243J-437D01*
G02X313804Y180400I-733J-1313D01*
G02X310796I-1504J0D01*
G02X311567Y181713I1504J0D01*
G03Y182587I-243J437D01*
G37*
G36*
G01X167438Y184286D02*
G02Y187294I0J1504D01*
G02X168751Y186523I0J-1504D01*
G03X169625I437J243D01*
G02X170938Y187294I1313J-733D01*
G02Y184286I0J-1504D01*
G02X169625Y185057I0J1504D01*
G03X168751I-437J-243D01*
G02X167438Y184286I-1313J733D01*
G37*
G36*
G01X83279Y151685D02*
G02X86287I1504J0D01*
G02X85516Y150372I-1504J0D01*
G03Y149498I243J-437D01*
G02X86287Y148185I-733J-1313D01*
G02X83279I-1504J0D01*
G02X84050Y149498I1504J0D01*
G03Y150372I-243J437D01*
G02X83279Y151685I733J1313D01*
G37*
G36*
G01X226946Y22787D02*
G02X226175Y24100I733J1313D01*
G02X229183I1504J0D01*
G02X228412Y22787I-1504J0D01*
G03Y21913I243J-437D01*
G02X229183Y20600I-733J-1313D01*
G02X226175I-1504J0D01*
G02X226946Y21913I1504J0D01*
G03Y22787I-243J437D01*
G37*
G36*
G01X223496Y88952D02*
G02X222183Y88181I-1313J733D01*
G02Y91189I0J1504D01*
G02X223496Y90418I0J-1504D01*
G03X224370I437J243D01*
G02X225683Y91189I1313J-733D01*
G02Y88181I0J-1504D01*
G02X224370Y88952I0J1504D01*
G03X223496I-437J-243D01*
G37*
G36*
G01X98050Y150372D02*
G02X97279Y151685I733J1313D01*
G02X100287I1504J0D01*
G02X99516Y150372I-1504J0D01*
G03Y149498I243J-437D01*
G02X100287Y148185I-733J-1313D01*
G02X97279I-1504J0D01*
G02X98050Y149498I1504J0D01*
G03Y150372I-243J437D01*
G37*
G36*
G01X102050D02*
G02X101279Y151685I733J1313D01*
G02X104287I1504J0D01*
G02X103516Y150372I-1504J0D01*
G03Y149498I243J-437D01*
G02X104287Y148185I-733J-1313D01*
G02X101279I-1504J0D01*
G02X102050Y149498I1504J0D01*
G03Y150372I-243J437D01*
G37*
G36*
G01X171596Y126852D02*
G02X170283Y126081I-1313J733D01*
G02Y129089I0J1504D01*
G02X171596Y128318I0J-1504D01*
G03X172470I437J243D01*
G02X173783Y129089I1313J-733D01*
G02Y126081I0J-1504D01*
G02X172470Y126852I0J1504D01*
G03X171596I-437J-243D01*
G37*
G54D23*
X43500Y64185D03*
X48283Y72211D03*
X43500Y69185D03*
X48283Y67185D03*
X77100Y69800D03*
X83500Y51185D03*
X88500D03*
X25100Y145685D03*
X22283Y149685D03*
X23283Y142185D03*
X58500Y137468D03*
X53500D03*
X396700Y81200D03*
X336700Y138500D03*
X328900Y132625D03*
X321718D03*
X340100Y135000D03*
X359500Y129900D03*
X353100Y129800D03*
X348200Y134700D03*
X382883Y136200D03*
X270600Y146400D03*
X326000Y138662D03*
X343600Y138900D03*
X382883Y151600D03*
X406500Y142915D03*
X308362Y187092D03*
X329783Y176185D03*
X322783Y176685D03*
X320283Y170685D03*
X314783D03*
X53183Y193785D03*
Y188785D03*
X148800Y181100D03*
X134400Y196300D03*
X88783Y189185D03*
Y183685D03*
X93783D03*
Y189185D03*
X246083Y91985D03*
X79283Y171685D03*
Y167685D03*
X75283Y171685D03*
Y167685D03*
X88500Y150568D03*
X72000Y147685D03*
X76181Y147760D03*
Y151460D03*
X72000Y151385D03*
X68500Y150685D03*
X84783Y130685D03*
X82283Y134685D03*
X159383Y13785D03*
X243433Y5635D03*
X248433D03*
X253433D03*
X243433Y635D03*
X248433D03*
X253433D03*
X283433Y5635D03*
X278433D03*
X273433D03*
X283433Y635D03*
X278433D03*
X273433D03*
X258433Y5635D03*
X263433D03*
X258433Y635D03*
X263433D03*
X268433Y5635D03*
Y635D03*
X383800Y19200D03*
X396579Y14000D03*
X170500Y49200D03*
X226079Y39400D03*
X226179Y43000D03*
X386228Y31100D03*
X399900Y44700D03*
X395779Y49100D03*
X396779Y24100D03*
X395979Y41300D03*
X407979Y35700D03*
X405079Y30500D03*
X412079Y29500D03*
X408779Y24300D03*
X188600Y71900D03*
X197700Y67930D03*
X395779Y64700D03*
X395379Y57000D03*
X404100Y61300D03*
X401100Y52200D03*
X404100Y68500D03*
X191783Y86685D03*
X192783Y90322D03*
Y94259D03*
X188846D03*
Y90322D03*
X199900Y83400D03*
X107383Y39185D03*
X121783Y27185D03*
X126783Y36685D03*
X98500Y51185D03*
X103500D03*
X127283Y69685D03*
X133283D03*
X120283Y77211D03*
X127090Y109200D03*
X118800Y87211D03*
X132283Y82211D03*
X128783Y97211D03*
X128683Y89711D03*
X107809Y112211D03*
X222800Y131600D03*
X196300Y127900D03*
X139300Y163300D03*
X141800Y157500D03*
X186783Y153085D03*
X201200Y146700D03*
X221400Y147000D03*
X114783Y165685D03*
X118783D03*
Y161685D03*
X114783D03*
X142283Y36685D03*
X147283D03*
X142283Y25685D03*
Y69685D03*
X277083Y47517D03*
X307700Y146500D03*
G54D20*
X31783Y-1290D03*
Y8710D03*
Y18710D03*
X267739Y104887D03*
X327739D03*
X337739D03*
X347739D03*
X357739D03*
X367739D03*
X267739Y114887D03*
X327739D03*
X337739D03*
X347739D03*
X357739D03*
X367739D03*
X377739D03*
X335000Y160500D03*
X345000D03*
X355000D03*
X365000D03*
X375000D03*
X385000D03*
X395000D03*
X247739Y114887D03*
X237739D03*
X247739Y104887D03*
X237739D03*
X209085Y51650D03*
X219085D03*
X187739Y104887D03*
X197739D03*
X187739Y114887D03*
X197739D03*
X229085Y77685D03*
X217739Y104887D03*
Y114887D03*
X287739Y104887D03*
X297739D03*
X307739D03*
X287739Y114887D03*
X297739D03*
X307739D03*
G54D21*
X62213Y13407D03*
X52213D03*
X16213Y203407D03*
X36213D03*
X26213D03*
X252213D03*
X282213D03*
X272213D03*
X262213D03*
X102213Y13407D03*
X122213D03*
X112213D03*
G54D24*
X308400Y-115D03*
X338400D03*
G54D22*
X-2321Y75600D03*
Y95600D03*
Y85600D03*
Y125600D03*
Y115600D03*
%LPD*%
G75*
G54D10*
X-1621Y19200D03*
X979Y211400D03*
X43783Y188685D03*
X33783D03*
X81783Y187185D03*
X119283Y182185D03*
X157500Y81880D03*
X283000Y71800D03*
X273000D03*
X283000Y81800D03*
X302638Y162608D03*
X325000Y160500D03*
X377739Y104887D03*
G54D11*
G01X385462Y-243315D02*
Y-343315D01*
X-14538D01*
G01D02*
Y-243315D01*
X385462D01*
G01X386579Y68600D02*
Y64100D01*
X385879Y63400D01*
Y60900D01*
X11479Y75400D03*
X7279Y79000D03*
X12579Y79800D03*
X16979Y79400D03*
X15779Y75700D03*
X6079Y73800D03*
X2679Y100700D03*
X4279Y104900D03*
X8079Y104000D03*
X12379Y103700D03*
X16779D03*
X14479Y100800D03*
X9879Y100700D03*
X6179Y100800D03*
X3779Y93600D03*
X8679Y93800D03*
X13379D03*
X17979D03*
X15479Y90700D03*
X10679D03*
X5879D03*
X4779Y83400D03*
X8679Y83500D03*
X13479Y83400D03*
X17579Y83500D03*
X7579Y115800D03*
X11779Y114400D03*
X16521Y114248D03*
X5079Y124900D03*
X8579Y123200D03*
X12879Y121700D03*
X17779Y121200D03*
X5679Y129300D03*
X9479Y127200D03*
X12379Y130100D03*
X14279Y125400D03*
X17679Y129100D03*
X14066Y111750D03*
X19429Y112299D03*
X8866Y112458D03*
X4179Y114900D03*
X33283Y77211D03*
X48500Y63468D03*
X22479Y93900D03*
X20479Y90800D03*
X23250Y102211D03*
X21400Y83600D03*
X21283Y127211D03*
X23250Y112211D03*
X20479Y123800D03*
X69283Y33185D03*
X61783D03*
X78500Y63468D03*
X66583Y96994D03*
X71583D03*
X61583D03*
Y101994D03*
X71583D03*
X66583D03*
X61583Y91994D03*
X71583D03*
X66583D03*
X71283Y134685D03*
X71783Y130185D03*
Y125685D03*
X67783D03*
Y130185D03*
X62283Y150685D03*
X58283D03*
X60283Y147785D03*
X98500Y137761D03*
Y134261D03*
X132283Y25685D03*
X137283D03*
X126900Y168500D03*
Y172100D03*
X131400Y168600D03*
X131300Y172200D03*
X114900Y203000D03*
X147283Y25685D03*
Y69685D03*
X142000Y94300D03*
X141783Y89711D03*
X151011Y87917D03*
X155600Y87700D03*
X139800Y132400D03*
X144200Y129000D03*
X139900Y128500D03*
X144000Y132600D03*
X148000D03*
X147900Y128900D03*
X144500Y120951D03*
X142125Y123523D03*
X222675Y32068D03*
X218975Y32168D03*
X219075Y35768D03*
X237575Y19168D03*
X234075D03*
X253433Y20635D03*
X248433D03*
Y15635D03*
X253433D03*
X243433Y10635D03*
X248433D03*
X253433D03*
X243433Y15635D03*
X237575Y22668D03*
X234075D03*
X248433Y25635D03*
X253433D03*
X248433Y30635D03*
X253433D03*
X248433Y35635D03*
X253433D03*
X246083Y87985D03*
Y95985D03*
X242083Y87985D03*
Y91985D03*
Y95985D03*
X263433Y20635D03*
X273433D03*
X278433D03*
X283433D03*
X278433Y15635D03*
X273433D03*
X283433Y10635D03*
X278433D03*
X273433D03*
X283433Y15635D03*
X268433Y20635D03*
X258433D03*
Y15635D03*
X263433D03*
X258433Y10635D03*
X263433D03*
X268433Y15635D03*
Y10635D03*
X273433Y35635D03*
X283433Y25635D03*
X278433D03*
X273433D03*
X283433Y30635D03*
X278433D03*
X273433D03*
X283433Y35635D03*
X278433D03*
X258433Y25635D03*
X263433D03*
X258433Y30635D03*
X263433D03*
X258433Y35635D03*
X263433D03*
X268433Y25635D03*
Y30635D03*
Y35635D03*
X263783Y83485D03*
X280700Y181500D03*
X290908Y71592D03*
X294508D03*
X290908Y67992D03*
X294508D03*
X306179Y173500D03*
X299783Y171791D03*
X302248Y174277D03*
X295783Y171791D03*
X286783Y178485D03*
Y185985D03*
X303782Y190185D03*
X333200Y20800D03*
X356508Y30692D03*
X360608Y30792D03*
X362208Y37892D03*
Y34392D03*
X356408Y73392D03*
X352808D03*
X356408Y76992D03*
X352808D03*
X356600Y52400D03*
X353100Y55900D03*
X356600D03*
X353100Y52400D03*
X356500Y85100D03*
Y88600D03*
X353000Y85100D03*
Y88600D03*
X351783Y198685D03*
X347283D03*
X381200Y14000D03*
X385879Y37550D03*
X381879Y24100D03*
X386400Y76900D03*
X385879Y60900D03*
X386000Y53250D03*
X386579Y68600D03*
G54D12*
X-2321Y105600D03*
Y147685D03*
G54D13*
X46213Y203407D03*
X92213Y13407D03*
X82213D03*
G54D14*
X298585Y195650D03*
X332601D03*
G54D15*
X298585Y216752D03*
X332601D03*
G54D16*
X359384Y206235D03*
X389384D03*
G54D17*
G01X-14538Y-323315D02*
X385462D01*
G01X-14538Y-293315D02*
Y-273315D01*
X385462D01*
G01X35462Y-343315D02*
Y-323315D01*
G01X160962Y-343315D02*
Y-323315D01*
G01X160462Y-273315D02*
Y-243315D01*
G01X210462Y-343315D02*
Y-323315D01*
G54D18*
G01X-309796Y204036D02*
X-98217D01*
G02X-95717Y201536I0J-2500D01*
G01Y192885D01*
Y190385D01*
X-93217D01*
X-15000D01*
X-12500D01*
Y192885D01*
Y221221D01*
G02X-10000Y223721I2500J0D01*
G01X418071D01*
G02X420571Y221221I0J-2500D01*
G01Y-10000D01*
G02X418071Y-12500I-2500J0D01*
G01X-10000D01*
G02X-12500Y-10000I0J2500D01*
G01Y18336D01*
Y20836D01*
X-15000D01*
X-93217D01*
X-95717D01*
Y18336D01*
Y9685D01*
G02X-98217Y7185I-2500J0D01*
G01X-309796D01*
G02X-312296Y9685I0J2500D01*
G01Y201536D01*
G02X-309796Y204036I2500J0D01*
G54D19*
G01X-11188Y-333815D02*
X-11815Y-334015D01*
X-12285Y-334515D01*
X-12598Y-335115D01*
X-12833Y-335915D01*
X-12911Y-336815D01*
X-12833Y-337715D01*
X-12598Y-338515D01*
X-12285Y-339115D01*
X-11815Y-339615D01*
X-11188Y-339815D01*
X-10561Y-339615D01*
X-10091Y-339115D01*
X-9778Y-338515D01*
X-9543Y-337715D01*
X-9465Y-336815D01*
X-9543Y-335915D01*
X-9778Y-335115D01*
X-10091Y-334515D01*
X-10561Y-334015D01*
X-11188Y-333815D01*
G01X-6376Y-337315D02*
X-5828Y-336615D01*
X-5358Y-336215D01*
X-4731Y-336015D01*
X-4183Y-336215D01*
X-3791Y-336615D01*
X-3478Y-337215D01*
X-3400Y-337915D01*
X-3478Y-338515D01*
X-3791Y-339115D01*
X-4261Y-339615D01*
X-4810Y-339815D01*
X-5436Y-339615D01*
X-5985Y-339015D01*
X-6298Y-338115D01*
X-6376Y-337115D01*
X-6220Y-335815D01*
X-5985Y-335115D01*
X-5593Y-334415D01*
X-5045Y-333915D01*
X-4496Y-333815D01*
X-3948Y-334015D01*
X-3556Y-334515D01*
G01X-11013Y-330782D02*
X-10546Y-331115D01*
X-10021Y-331315D01*
X-9555D01*
X-9088Y-331115D01*
X-8738Y-330782D01*
X-8563Y-330315D01*
X-8680Y-329848D01*
X-8971Y-329448D01*
X-9496Y-329182D01*
X-10196Y-329048D01*
X-10605Y-328782D01*
X-10780Y-328315D01*
X-10663Y-327848D01*
X-10371Y-327515D01*
X-9963Y-327315D01*
X-9555D01*
X-9146Y-327448D01*
X-8796Y-327782D01*
G01X-6213Y-331315D02*
Y-327315D01*
G01X-3763D02*
Y-331315D01*
G01Y-329315D02*
X-6213D01*
G01X979Y-331315D02*
X-1355D01*
Y-327315D01*
X979D01*
G01X45Y-329248D02*
X-1355D01*
G01X5779Y-331315D02*
X3445D01*
Y-327315D01*
X5779D01*
G01X4845Y-329248D02*
X3445D01*
G01X9412Y-327315D02*
Y-331315D01*
G01X8070Y-327315D02*
X10754D01*
G01X-11246Y-270315D02*
X-9788Y-266315D01*
X-8330Y-270315D01*
G01X-8855Y-268915D02*
X-10721D01*
G01X-6271Y-266315D02*
Y-269182D01*
X-6038Y-269782D01*
X-5571Y-270182D01*
X-4988Y-270315D01*
X-4405Y-270182D01*
X-3938Y-269782D01*
X-3705Y-269182D01*
Y-266315D01*
G01X-1413Y-269782D02*
X-946Y-270115D01*
X-421Y-270315D01*
X45D01*
X512Y-270115D01*
X862Y-269782D01*
X1037Y-269315D01*
X920Y-268848D01*
X629Y-268448D01*
X104Y-268182D01*
X-596Y-268048D01*
X-1005Y-267782D01*
X-1180Y-267315D01*
X-1063Y-266848D01*
X-771Y-266515D01*
X-363Y-266315D01*
X45D01*
X454Y-266448D01*
X804Y-266782D01*
G01X4612Y-266315D02*
Y-270315D01*
G01X3270Y-266315D02*
X5954D01*
G01X8712D02*
X10112D01*
G01X9412D02*
Y-270315D01*
G01X8712D02*
X10112D01*
G01X12870D02*
Y-266315D01*
X15554Y-270315D01*
Y-266315D01*
G01X19012Y-270448D02*
X18895Y-270382D01*
Y-270248D01*
X19012Y-270182D01*
X19129Y-270248D01*
Y-270382D01*
X19012Y-270448D01*
G01X28612Y-266315D02*
Y-270315D01*
G01X27270Y-266315D02*
X29954D01*
G01X34579Y-270315D02*
X32245D01*
Y-266315D01*
X34579D01*
G01X33645Y-268248D02*
X32245D01*
G01X36987Y-270315D02*
X39437Y-266315D01*
G01X36987D02*
X39437Y-270315D01*
G01X41554D02*
X43012Y-266315D01*
X44470Y-270315D01*
G01X43945Y-268915D02*
X42079D01*
G01X46587Y-269782D02*
X47054Y-270115D01*
X47579Y-270315D01*
X48045D01*
X48512Y-270115D01*
X48862Y-269782D01*
X49037Y-269315D01*
X48920Y-268848D01*
X48629Y-268448D01*
X48104Y-268182D01*
X47404Y-268048D01*
X46995Y-267782D01*
X46820Y-267315D01*
X46937Y-266848D01*
X47229Y-266515D01*
X47637Y-266315D01*
X48045D01*
X48454Y-266448D01*
X48804Y-266782D01*
G01X57295Y-270315D02*
X57412Y-269448D01*
X57587Y-268715D01*
X57820Y-268048D01*
X58112Y-267315D01*
X58579Y-266315D01*
X56245D01*
G01X62212Y-270315D02*
X62620Y-270248D01*
X63087Y-270048D01*
X63379Y-269715D01*
X63495Y-269248D01*
X63379Y-268782D01*
X63029Y-268382D01*
X62504Y-268182D01*
X61920D01*
X61570Y-268048D01*
X61279Y-267715D01*
X61162Y-267248D01*
X61337Y-266782D01*
X61745Y-266448D01*
X62212Y-266315D01*
X62679Y-266448D01*
X63087Y-266782D01*
X63262Y-267248D01*
X63145Y-267715D01*
X62854Y-268048D01*
X62504Y-268182D01*
X61920D01*
X61395Y-268382D01*
X61045Y-268782D01*
X60929Y-269248D01*
X61045Y-269715D01*
X61337Y-270048D01*
X61804Y-270248D01*
X62212Y-270315D01*
G01X66895D02*
X67012Y-269448D01*
X67187Y-268715D01*
X67420Y-268048D01*
X67712Y-267315D01*
X68179Y-266315D01*
X65845D01*
G01X70529Y-269515D02*
X70879Y-269982D01*
X71345Y-270248D01*
X71870Y-270315D01*
X72337Y-270248D01*
X72804Y-269915D01*
X73095Y-269515D01*
X73154Y-269115D01*
X73037Y-268648D01*
X72629Y-268315D01*
X72220Y-268182D01*
X71695D01*
G01X72220D02*
X72570Y-267982D01*
X72862Y-267648D01*
X72979Y-267248D01*
X72862Y-266848D01*
X72570Y-266515D01*
X72045Y-266315D01*
X71520Y-266382D01*
X70995Y-266648D01*
G01X75329Y-269715D02*
X75679Y-270048D01*
X76087Y-270248D01*
X76612Y-270315D01*
X77137Y-270182D01*
X77545Y-269915D01*
X77837Y-269448D01*
X77895Y-268915D01*
X77779Y-268382D01*
X77487Y-268048D01*
X77079Y-267782D01*
X76670Y-267715D01*
X76262Y-267782D01*
X75737Y-268048D01*
X75912Y-266315D01*
X77487D01*
G01X84929D02*
Y-269182D01*
X85162Y-269782D01*
X85629Y-270182D01*
X86212Y-270315D01*
X86795Y-270182D01*
X87262Y-269782D01*
X87495Y-269182D01*
Y-266315D01*
G01X89787Y-269782D02*
X90254Y-270115D01*
X90779Y-270315D01*
X91245D01*
X91712Y-270115D01*
X92062Y-269782D01*
X92237Y-269315D01*
X92120Y-268848D01*
X91829Y-268448D01*
X91304Y-268182D01*
X90604Y-268048D01*
X90195Y-267782D01*
X90020Y-267315D01*
X90137Y-266848D01*
X90429Y-266515D01*
X90837Y-266315D01*
X91245D01*
X91654Y-266448D01*
X92004Y-266782D01*
G01X94354Y-270315D02*
X95812Y-266315D01*
X97270Y-270315D01*
G01X96745Y-268915D02*
X94879D01*
G01X-10896Y-261648D02*
X-10488Y-261182D01*
X-10138Y-260915D01*
X-9671Y-260782D01*
X-9263Y-260915D01*
X-8971Y-261182D01*
X-8738Y-261582D01*
X-8680Y-262048D01*
X-8738Y-262448D01*
X-8971Y-262848D01*
X-9321Y-263182D01*
X-9730Y-263315D01*
X-10196Y-263182D01*
X-10605Y-262782D01*
X-10838Y-262182D01*
X-10896Y-261515D01*
X-10780Y-260648D01*
X-10605Y-260182D01*
X-10313Y-259715D01*
X-9905Y-259382D01*
X-9496Y-259315D01*
X-9088Y-259448D01*
X-8796Y-259782D01*
G01X-6271Y-262715D02*
X-5921Y-263048D01*
X-5513Y-263248D01*
X-4988Y-263315D01*
X-4463Y-263182D01*
X-4055Y-262915D01*
X-3763Y-262448D01*
X-3705Y-261915D01*
X-3821Y-261382D01*
X-4113Y-261048D01*
X-4521Y-260782D01*
X-4930Y-260715D01*
X-5338Y-260782D01*
X-5863Y-261048D01*
X-5688Y-259315D01*
X-4113D01*
G01X-188D02*
X-655Y-259448D01*
X-1005Y-259782D01*
X-1238Y-260182D01*
X-1413Y-260715D01*
X-1471Y-261315D01*
X-1413Y-261915D01*
X-1238Y-262448D01*
X-1005Y-262848D01*
X-655Y-263182D01*
X-188Y-263315D01*
X279Y-263182D01*
X629Y-262848D01*
X862Y-262448D01*
X1037Y-261915D01*
X1095Y-261315D01*
X1037Y-260715D01*
X862Y-260182D01*
X629Y-259782D01*
X279Y-259448D01*
X-188Y-259315D01*
G01X4612Y-263315D02*
Y-259315D01*
X3912Y-260115D01*
G01Y-263315D02*
X5312D01*
G01X12462Y-259315D02*
X13279Y-263315D01*
X14212Y-259315D01*
X15145Y-263315D01*
X15962Y-259315D01*
G01X18312D02*
X19712D01*
G01X19012D02*
Y-263315D01*
G01X18312D02*
X19712D01*
G01X22645Y-259315D02*
Y-263315D01*
X24979D01*
G01X27445Y-259315D02*
Y-263315D01*
X29779D01*
G01X32712Y-259315D02*
X34112D01*
G01X33412D02*
Y-263315D01*
G01X32712D02*
X34112D01*
G01X36754D02*
X38212Y-259315D01*
X39670Y-263315D01*
G01X39145Y-261915D02*
X37279D01*
G01X41495Y-263315D02*
Y-259315D01*
X43012Y-262648D01*
X44529Y-259315D01*
Y-263315D01*
G01X53895Y-259648D02*
X53545Y-259448D01*
X53137Y-259315D01*
X52670D01*
X52145Y-259515D01*
X51737Y-259848D01*
X51445Y-260248D01*
X51212Y-260915D01*
X51154Y-261515D01*
X51270Y-262115D01*
X51445Y-262515D01*
X51795Y-262915D01*
X52204Y-263182D01*
X52612Y-263315D01*
X53020D01*
X53429Y-263182D01*
X53779Y-262982D01*
X54070Y-262715D01*
G01X55954Y-263315D02*
X57412Y-259315D01*
X58870Y-263315D01*
G01X58345Y-261915D02*
X56479D01*
G01X60870Y-263315D02*
Y-259315D01*
X63554Y-263315D01*
Y-259315D01*
G01X65670Y-263315D02*
Y-259315D01*
X68354Y-263315D01*
Y-259315D01*
G01X71812Y-263315D02*
X71345Y-263248D01*
X70937Y-262982D01*
X70587Y-262582D01*
X70354Y-262115D01*
X70237Y-261582D01*
Y-261048D01*
X70354Y-260515D01*
X70587Y-260048D01*
X70937Y-259648D01*
X71345Y-259382D01*
X71812Y-259315D01*
X72279Y-259382D01*
X72687Y-259648D01*
X73037Y-260048D01*
X73270Y-260515D01*
X73387Y-261048D01*
Y-261582D01*
X73270Y-262115D01*
X73037Y-262582D01*
X72687Y-262982D01*
X72279Y-263248D01*
X71812Y-263315D01*
G01X75270D02*
Y-259315D01*
X77954Y-263315D01*
Y-259315D01*
G01X84929Y-263315D02*
Y-259315D01*
X86095D01*
X86562Y-259515D01*
X86912Y-259782D01*
X87204Y-260182D01*
X87437Y-260648D01*
X87495Y-261315D01*
X87437Y-261982D01*
X87204Y-262448D01*
X86912Y-262848D01*
X86562Y-263115D01*
X86095Y-263315D01*
X84929D01*
G01X89845D02*
Y-259315D01*
X91304D01*
X91770Y-259515D01*
X92062Y-259782D01*
X92179Y-260315D01*
X92062Y-260848D01*
X91712Y-261182D01*
X91304Y-261382D01*
X89845D01*
G01X91304D02*
X92179Y-263315D01*
G01X95112Y-259315D02*
X96512D01*
G01X95812D02*
Y-263315D01*
G01X95112D02*
X96512D01*
G01X99154Y-259315D02*
X100612Y-263315D01*
X102070Y-259315D01*
G01X106579Y-263315D02*
X104245D01*
Y-259315D01*
X106579D01*
G01X105645Y-261248D02*
X104245D01*
G01X113262Y-259315D02*
X114079Y-263315D01*
X115012Y-259315D01*
X115945Y-263315D01*
X116762Y-259315D01*
G01X120979Y-263315D02*
X118645D01*
Y-259315D01*
X120979D01*
G01X120045Y-261248D02*
X118645D01*
G01X123387Y-262782D02*
X123854Y-263115D01*
X124379Y-263315D01*
X124845D01*
X125312Y-263115D01*
X125662Y-262782D01*
X125837Y-262315D01*
X125720Y-261848D01*
X125429Y-261448D01*
X124904Y-261182D01*
X124204Y-261048D01*
X123795Y-260782D01*
X123620Y-260315D01*
X123737Y-259848D01*
X124029Y-259515D01*
X124437Y-259315D01*
X124845D01*
X125254Y-259448D01*
X125604Y-259782D01*
G01X129412Y-259315D02*
Y-263315D01*
G01X128070Y-259315D02*
X130754D01*
G01X-10885Y-254315D02*
Y-246815D01*
X-6591Y-254315D01*
Y-246815D01*
G01X-3198Y-254315D02*
X722Y-246815D01*
G01X-3198D02*
X722Y-254315D01*
G01X4395D02*
Y-246815D01*
X6635D01*
X7382Y-247190D01*
X7942Y-248065D01*
X8129Y-249065D01*
X7942Y-250065D01*
X7475Y-250815D01*
X6635Y-251190D01*
X4395D01*
G01X19302Y-253315D02*
X20049Y-253940D01*
X20889Y-254315D01*
X21635D01*
X22382Y-253940D01*
X22942Y-253315D01*
X23222Y-252440D01*
X23035Y-251565D01*
X22569Y-250815D01*
X21729Y-250315D01*
X20609Y-250065D01*
X19955Y-249565D01*
X19675Y-248690D01*
X19862Y-247815D01*
X20329Y-247190D01*
X20982Y-246815D01*
X21635D01*
X22289Y-247065D01*
X22849Y-247690D01*
G01X30629Y-254315D02*
X26895D01*
Y-246815D01*
X30629D01*
G01X29135Y-250440D02*
X26895D01*
G01X33835Y-254315D02*
Y-246815D01*
X36262Y-253065D01*
X38689Y-246815D01*
Y-254315D01*
G01X42642Y-246815D02*
X44882D01*
G01X43762D02*
Y-254315D01*
G01X42642D02*
X44882D01*
G01X53315Y-247440D02*
X52755Y-247065D01*
X52102Y-246815D01*
X51355D01*
X50515Y-247190D01*
X49862Y-247815D01*
X49395Y-248565D01*
X49022Y-249815D01*
X48929Y-250940D01*
X49115Y-252065D01*
X49395Y-252815D01*
X49955Y-253565D01*
X50609Y-254065D01*
X51262Y-254315D01*
X51915D01*
X52569Y-254065D01*
X53129Y-253690D01*
X53595Y-253190D01*
G01X58762Y-254315D02*
X58015Y-254190D01*
X57362Y-253690D01*
X56802Y-252940D01*
X56429Y-252065D01*
X56242Y-251065D01*
Y-250065D01*
X56429Y-249065D01*
X56802Y-248190D01*
X57362Y-247440D01*
X58015Y-246940D01*
X58762Y-246815D01*
X59509Y-246940D01*
X60162Y-247440D01*
X60722Y-248190D01*
X61095Y-249065D01*
X61282Y-250065D01*
Y-251065D01*
X61095Y-252065D01*
X60722Y-252940D01*
X60162Y-253690D01*
X59509Y-254190D01*
X58762Y-254315D01*
G01X64115D02*
Y-246815D01*
X68409Y-254315D01*
Y-246815D01*
G01X71709Y-254315D02*
Y-246815D01*
X73575D01*
X74322Y-247190D01*
X74882Y-247690D01*
X75349Y-248440D01*
X75722Y-249315D01*
X75815Y-250565D01*
X75722Y-251815D01*
X75349Y-252690D01*
X74882Y-253440D01*
X74322Y-253940D01*
X73575Y-254315D01*
X71709D01*
G01X79209Y-246815D02*
Y-252190D01*
X79582Y-253315D01*
X80329Y-254065D01*
X81262Y-254315D01*
X82195Y-254065D01*
X82942Y-253315D01*
X83315Y-252190D01*
Y-246815D01*
G01X90815Y-247440D02*
X90255Y-247065D01*
X89602Y-246815D01*
X88855D01*
X88015Y-247190D01*
X87362Y-247815D01*
X86895Y-248565D01*
X86522Y-249815D01*
X86429Y-250940D01*
X86615Y-252065D01*
X86895Y-252815D01*
X87455Y-253565D01*
X88109Y-254065D01*
X88762Y-254315D01*
X89415D01*
X90069Y-254065D01*
X90629Y-253690D01*
X91095Y-253190D01*
G01X96262Y-246815D02*
Y-254315D01*
G01X94115Y-246815D02*
X98409D01*
G01X103762Y-254315D02*
X103015Y-254190D01*
X102362Y-253690D01*
X101802Y-252940D01*
X101429Y-252065D01*
X101242Y-251065D01*
Y-250065D01*
X101429Y-249065D01*
X101802Y-248190D01*
X102362Y-247440D01*
X103015Y-246940D01*
X103762Y-246815D01*
X104509Y-246940D01*
X105162Y-247440D01*
X105722Y-248190D01*
X106095Y-249065D01*
X106282Y-250065D01*
Y-251065D01*
X106095Y-252065D01*
X105722Y-252940D01*
X105162Y-253690D01*
X104509Y-254190D01*
X103762Y-254315D01*
G01X109395D02*
Y-246815D01*
X111729D01*
X112475Y-247190D01*
X112942Y-247690D01*
X113129Y-248690D01*
X112942Y-249690D01*
X112382Y-250315D01*
X111729Y-250690D01*
X109395D01*
G01X111729D02*
X113129Y-254315D01*
G01X116802Y-253315D02*
X117549Y-253940D01*
X118389Y-254315D01*
X119135D01*
X119882Y-253940D01*
X120442Y-253315D01*
X120722Y-252440D01*
X120535Y-251565D01*
X120069Y-250815D01*
X119229Y-250315D01*
X118109Y-250065D01*
X117455Y-249565D01*
X117175Y-248690D01*
X117362Y-247815D01*
X117829Y-247190D01*
X118482Y-246815D01*
X119135D01*
X119789Y-247065D01*
X120349Y-247690D01*
G01X7312Y-339815D02*
X6685Y-339715D01*
X6137Y-339315D01*
X5667Y-338715D01*
X5354Y-338015D01*
X5197Y-337215D01*
Y-336415D01*
X5354Y-335615D01*
X5667Y-334915D01*
X6137Y-334315D01*
X6685Y-333915D01*
X7312Y-333815D01*
X7939Y-333915D01*
X8487Y-334315D01*
X8957Y-334915D01*
X9270Y-335615D01*
X9427Y-336415D01*
Y-337215D01*
X9270Y-338015D01*
X8957Y-338715D01*
X8487Y-339315D01*
X7939Y-339715D01*
X7312Y-339815D01*
G01X12124D02*
Y-333815D01*
X15100D01*
G01X14004Y-336715D02*
X12124D01*
G01X26212Y-339815D02*
Y-333815D01*
X25272Y-335015D01*
G01Y-339815D02*
X27152D01*
G01X32512Y-333815D02*
X31885Y-334015D01*
X31415Y-334515D01*
X31102Y-335115D01*
X30867Y-335915D01*
X30789Y-336815D01*
X30867Y-337715D01*
X31102Y-338515D01*
X31415Y-339115D01*
X31885Y-339615D01*
X32512Y-339815D01*
X33139Y-339615D01*
X33609Y-339115D01*
X33922Y-338515D01*
X34157Y-337715D01*
X34235Y-336815D01*
X34157Y-335915D01*
X33922Y-335115D01*
X33609Y-334515D01*
X33139Y-334015D01*
X32512Y-333815D01*
G01X-5130Y-320315D02*
Y-316315D01*
X-2446Y-320315D01*
Y-316315D01*
G01X-213Y-320315D02*
X2237Y-316315D01*
G01X-213D02*
X2237Y-320315D01*
G01X4645D02*
Y-316315D01*
X6045D01*
X6512Y-316515D01*
X6862Y-316982D01*
X6979Y-317515D01*
X6862Y-318048D01*
X6570Y-318448D01*
X6045Y-318648D01*
X4645D01*
G01X10612Y-320448D02*
X10495Y-320382D01*
Y-320248D01*
X10612Y-320182D01*
X10729Y-320248D01*
Y-320382D01*
X10612Y-320448D01*
G01X-3788Y-312315D02*
X-4255Y-312248D01*
X-4663Y-311982D01*
X-5013Y-311582D01*
X-5246Y-311115D01*
X-5363Y-310582D01*
Y-310048D01*
X-5246Y-309515D01*
X-5013Y-309048D01*
X-4663Y-308648D01*
X-4255Y-308382D01*
X-3788Y-308315D01*
X-3321Y-308382D01*
X-2913Y-308648D01*
X-2563Y-309048D01*
X-2330Y-309515D01*
X-2213Y-310048D01*
Y-310582D01*
X-2330Y-311115D01*
X-2563Y-311582D01*
X-2913Y-311982D01*
X-3321Y-312248D01*
X-3788Y-312315D01*
G01X-155D02*
Y-308315D01*
X1304D01*
X1770Y-308515D01*
X2062Y-308782D01*
X2179Y-309315D01*
X2062Y-309848D01*
X1712Y-310182D01*
X1304Y-310382D01*
X-155D01*
G01X1304D02*
X2179Y-312315D01*
G01X9912Y-308315D02*
X11312D01*
G01X10612D02*
Y-312315D01*
G01X9912D02*
X11312D01*
G01X14070D02*
Y-308315D01*
X16754Y-312315D01*
Y-308315D01*
G01X23845Y-312315D02*
Y-308315D01*
X25245D01*
X25712Y-308515D01*
X26062Y-308982D01*
X26179Y-309515D01*
X26062Y-310048D01*
X25770Y-310448D01*
X25245Y-310648D01*
X23845D01*
G01X28354Y-312315D02*
X29812Y-308315D01*
X31270Y-312315D01*
G01X30745Y-310915D02*
X28879D01*
G01X33445Y-312315D02*
Y-308315D01*
X34904D01*
X35370Y-308515D01*
X35662Y-308782D01*
X35779Y-309315D01*
X35662Y-309848D01*
X35312Y-310182D01*
X34904Y-310382D01*
X33445D01*
G01X34904D02*
X35779Y-312315D01*
G01X39412Y-308315D02*
Y-312315D01*
G01X38070Y-308315D02*
X40754D01*
G01X47262D02*
X48079Y-312315D01*
X49012Y-308315D01*
X49945Y-312315D01*
X50762Y-308315D01*
G01X53112D02*
X54512D01*
G01X53812D02*
Y-312315D01*
G01X53112D02*
X54512D01*
G01X58612Y-308315D02*
Y-312315D01*
G01X57270Y-308315D02*
X59954D01*
G01X62187Y-312315D02*
Y-308315D01*
G01X64637D02*
Y-312315D01*
G01Y-310315D02*
X62187D01*
G01X68212Y-312315D02*
X67745Y-312248D01*
X67337Y-311982D01*
X66987Y-311582D01*
X66754Y-311115D01*
X66637Y-310582D01*
Y-310048D01*
X66754Y-309515D01*
X66987Y-309048D01*
X67337Y-308648D01*
X67745Y-308382D01*
X68212Y-308315D01*
X68679Y-308382D01*
X69087Y-308648D01*
X69437Y-309048D01*
X69670Y-309515D01*
X69787Y-310048D01*
Y-310582D01*
X69670Y-311115D01*
X69437Y-311582D01*
X69087Y-311982D01*
X68679Y-312248D01*
X68212Y-312315D01*
G01X71729Y-308315D02*
Y-311182D01*
X71962Y-311782D01*
X72429Y-312182D01*
X73012Y-312315D01*
X73595Y-312182D01*
X74062Y-311782D01*
X74295Y-311182D01*
Y-308315D01*
G01X77812D02*
Y-312315D01*
G01X76470Y-308315D02*
X79154D01*
G01X87412D02*
Y-312315D01*
G01X86070Y-308315D02*
X88754D01*
G01X90987Y-312315D02*
Y-308315D01*
G01X93437D02*
Y-312315D01*
G01Y-310315D02*
X90987D01*
G01X98179Y-312315D02*
X95845D01*
Y-308315D01*
X98179D01*
G01X97245Y-310248D02*
X95845D01*
G01X107895Y-308648D02*
X107545Y-308448D01*
X107137Y-308315D01*
X106670D01*
X106145Y-308515D01*
X105737Y-308848D01*
X105445Y-309248D01*
X105212Y-309915D01*
X105154Y-310515D01*
X105270Y-311115D01*
X105445Y-311515D01*
X105795Y-311915D01*
X106204Y-312182D01*
X106612Y-312315D01*
X107020D01*
X107429Y-312182D01*
X107779Y-311982D01*
X108070Y-311715D01*
G01X111412Y-312315D02*
X110945Y-312248D01*
X110537Y-311982D01*
X110187Y-311582D01*
X109954Y-311115D01*
X109837Y-310582D01*
Y-310048D01*
X109954Y-309515D01*
X110187Y-309048D01*
X110537Y-308648D01*
X110945Y-308382D01*
X111412Y-308315D01*
X111879Y-308382D01*
X112287Y-308648D01*
X112637Y-309048D01*
X112870Y-309515D01*
X112987Y-310048D01*
Y-310582D01*
X112870Y-311115D01*
X112637Y-311582D01*
X112287Y-311982D01*
X111879Y-312248D01*
X111412Y-312315D01*
G01X114870D02*
Y-308315D01*
X117554Y-312315D01*
Y-308315D01*
G01X119787Y-311782D02*
X120254Y-312115D01*
X120779Y-312315D01*
X121245D01*
X121712Y-312115D01*
X122062Y-311782D01*
X122237Y-311315D01*
X122120Y-310848D01*
X121829Y-310448D01*
X121304Y-310182D01*
X120604Y-310048D01*
X120195Y-309782D01*
X120020Y-309315D01*
X120137Y-308848D01*
X120429Y-308515D01*
X120837Y-308315D01*
X121245D01*
X121654Y-308448D01*
X122004Y-308782D01*
G01X126979Y-312315D02*
X124645D01*
Y-308315D01*
X126979D01*
G01X126045Y-310248D02*
X124645D01*
G01X129270Y-312315D02*
Y-308315D01*
X131954Y-312315D01*
Y-308315D01*
G01X135412D02*
Y-312315D01*
G01X134070Y-308315D02*
X136754D01*
G01X145012Y-312315D02*
X144545Y-312248D01*
X144137Y-311982D01*
X143787Y-311582D01*
X143554Y-311115D01*
X143437Y-310582D01*
Y-310048D01*
X143554Y-309515D01*
X143787Y-309048D01*
X144137Y-308648D01*
X144545Y-308382D01*
X145012Y-308315D01*
X145479Y-308382D01*
X145887Y-308648D01*
X146237Y-309048D01*
X146470Y-309515D01*
X146587Y-310048D01*
Y-310582D01*
X146470Y-311115D01*
X146237Y-311582D01*
X145887Y-311982D01*
X145479Y-312248D01*
X145012Y-312315D01*
G01X148704D02*
Y-308315D01*
X150920D01*
G01X150104Y-310248D02*
X148704D01*
G01X-4955Y-304315D02*
Y-300315D01*
X-3555D01*
X-3088Y-300515D01*
X-2738Y-300982D01*
X-2621Y-301515D01*
X-2738Y-302048D01*
X-3030Y-302448D01*
X-3555Y-302648D01*
X-4955D01*
G01X-155Y-304315D02*
Y-300315D01*
X1304D01*
X1770Y-300515D01*
X2062Y-300782D01*
X2179Y-301315D01*
X2062Y-301848D01*
X1712Y-302182D01*
X1304Y-302382D01*
X-155D01*
G01X1304D02*
X2179Y-304315D01*
G01X5812D02*
X5345Y-304248D01*
X4937Y-303982D01*
X4587Y-303582D01*
X4354Y-303115D01*
X4237Y-302582D01*
Y-302048D01*
X4354Y-301515D01*
X4587Y-301048D01*
X4937Y-300648D01*
X5345Y-300382D01*
X5812Y-300315D01*
X6279Y-300382D01*
X6687Y-300648D01*
X7037Y-301048D01*
X7270Y-301515D01*
X7387Y-302048D01*
Y-302582D01*
X7270Y-303115D01*
X7037Y-303582D01*
X6687Y-303982D01*
X6279Y-304248D01*
X5812Y-304315D01*
G01X11895Y-300648D02*
X11545Y-300448D01*
X11137Y-300315D01*
X10670D01*
X10145Y-300515D01*
X9737Y-300848D01*
X9445Y-301248D01*
X9212Y-301915D01*
X9154Y-302515D01*
X9270Y-303115D01*
X9445Y-303515D01*
X9795Y-303915D01*
X10204Y-304182D01*
X10612Y-304315D01*
X11020D01*
X11429Y-304182D01*
X11779Y-303982D01*
X12070Y-303715D01*
G01X14129Y-300315D02*
Y-303182D01*
X14362Y-303782D01*
X14829Y-304182D01*
X15412Y-304315D01*
X15995Y-304182D01*
X16462Y-303782D01*
X16695Y-303182D01*
Y-300315D01*
G01X19045Y-304315D02*
Y-300315D01*
X20504D01*
X20970Y-300515D01*
X21262Y-300782D01*
X21379Y-301315D01*
X21262Y-301848D01*
X20912Y-302182D01*
X20504Y-302382D01*
X19045D01*
G01X20504D02*
X21379Y-304315D01*
G01X26179D02*
X23845D01*
Y-300315D01*
X26179D01*
G01X25245Y-302248D02*
X23845D01*
G01X28295Y-304315D02*
Y-300315D01*
X29812Y-303648D01*
X31329Y-300315D01*
Y-304315D01*
G01X35779D02*
X33445D01*
Y-300315D01*
X35779D01*
G01X34845Y-302248D02*
X33445D01*
G01X38070Y-304315D02*
Y-300315D01*
X40754Y-304315D01*
Y-300315D01*
G01X44212D02*
Y-304315D01*
G01X42870Y-300315D02*
X45554D01*
G01X53812Y-304315D02*
X53345Y-304248D01*
X52937Y-303982D01*
X52587Y-303582D01*
X52354Y-303115D01*
X52237Y-302582D01*
Y-302048D01*
X52354Y-301515D01*
X52587Y-301048D01*
X52937Y-300648D01*
X53345Y-300382D01*
X53812Y-300315D01*
X54279Y-300382D01*
X54687Y-300648D01*
X55037Y-301048D01*
X55270Y-301515D01*
X55387Y-302048D01*
Y-302582D01*
X55270Y-303115D01*
X55037Y-303582D01*
X54687Y-303982D01*
X54279Y-304248D01*
X53812Y-304315D01*
G01X57445D02*
Y-300315D01*
X58904D01*
X59370Y-300515D01*
X59662Y-300782D01*
X59779Y-301315D01*
X59662Y-301848D01*
X59312Y-302182D01*
X58904Y-302382D01*
X57445D01*
G01X58904D02*
X59779Y-304315D01*
G01X66695D02*
Y-300315D01*
X68212Y-303648D01*
X69729Y-300315D01*
Y-304315D01*
G01X71554D02*
X73012Y-300315D01*
X74470Y-304315D01*
G01X73945Y-302915D02*
X72079D01*
G01X76470Y-304315D02*
Y-300315D01*
X79154Y-304315D01*
Y-300315D01*
G01X81329D02*
Y-303182D01*
X81562Y-303782D01*
X82029Y-304182D01*
X82612Y-304315D01*
X83195Y-304182D01*
X83662Y-303782D01*
X83895Y-303182D01*
Y-300315D01*
G01X86304Y-304315D02*
Y-300315D01*
X88520D01*
G01X87704Y-302248D02*
X86304D01*
G01X90754Y-304315D02*
X92212Y-300315D01*
X93670Y-304315D01*
G01X93145Y-302915D02*
X91279D01*
G01X98295Y-300648D02*
X97945Y-300448D01*
X97537Y-300315D01*
X97070D01*
X96545Y-300515D01*
X96137Y-300848D01*
X95845Y-301248D01*
X95612Y-301915D01*
X95554Y-302515D01*
X95670Y-303115D01*
X95845Y-303515D01*
X96195Y-303915D01*
X96604Y-304182D01*
X97012Y-304315D01*
X97420D01*
X97829Y-304182D01*
X98179Y-303982D01*
X98470Y-303715D01*
G01X101812Y-300315D02*
Y-304315D01*
G01X100470Y-300315D02*
X103154D01*
G01X105329D02*
Y-303182D01*
X105562Y-303782D01*
X106029Y-304182D01*
X106612Y-304315D01*
X107195Y-304182D01*
X107662Y-303782D01*
X107895Y-303182D01*
Y-300315D01*
G01X110245Y-304315D02*
Y-300315D01*
X111704D01*
X112170Y-300515D01*
X112462Y-300782D01*
X112579Y-301315D01*
X112462Y-301848D01*
X112112Y-302182D01*
X111704Y-302382D01*
X110245D01*
G01X111704D02*
X112579Y-304315D01*
G01X117379D02*
X115045D01*
Y-300315D01*
X117379D01*
G01X116445Y-302248D02*
X115045D01*
G01X125112Y-300315D02*
X126512D01*
G01X125812D02*
Y-304315D01*
G01X125112D02*
X126512D01*
G01X129270D02*
Y-300315D01*
X131954Y-304315D01*
Y-300315D01*
G01X138462D02*
X139279Y-304315D01*
X140212Y-300315D01*
X141145Y-304315D01*
X141962Y-300315D01*
G01X143787Y-304315D02*
Y-300315D01*
G01X146237D02*
Y-304315D01*
G01Y-302315D02*
X143787D01*
G01X149812Y-304315D02*
X149345Y-304248D01*
X148937Y-303982D01*
X148587Y-303582D01*
X148354Y-303115D01*
X148237Y-302582D01*
Y-302048D01*
X148354Y-301515D01*
X148587Y-301048D01*
X148937Y-300648D01*
X149345Y-300382D01*
X149812Y-300315D01*
X150279Y-300382D01*
X150687Y-300648D01*
X151037Y-301048D01*
X151270Y-301515D01*
X151387Y-302048D01*
Y-302582D01*
X151270Y-303115D01*
X151037Y-303582D01*
X150687Y-303982D01*
X150279Y-304248D01*
X149812Y-304315D01*
G01X153445Y-300315D02*
Y-304315D01*
X155779D01*
G01X160579D02*
X158245D01*
Y-300315D01*
X160579D01*
G01X159645Y-302248D02*
X158245D01*
G01X-3321Y-294182D02*
X-3088Y-293982D01*
X-2913Y-293648D01*
X-2796Y-293182D01*
X-2913Y-292782D01*
X-3146Y-292515D01*
X-3555Y-292315D01*
X-5130D01*
Y-296315D01*
X-3205D01*
X-2796Y-296048D01*
X-2563Y-295648D01*
X-2446Y-295182D01*
X-2563Y-294715D01*
X-2913Y-294315D01*
X-3321Y-294182D01*
X-5130D01*
G01X2179Y-296315D02*
X-155D01*
Y-292315D01*
X2179D01*
G01X1245Y-294248D02*
X-155D01*
G01X9329Y-292315D02*
Y-295182D01*
X9562Y-295782D01*
X10029Y-296182D01*
X10612Y-296315D01*
X11195Y-296182D01*
X11662Y-295782D01*
X11895Y-295182D01*
Y-292315D01*
G01X14187Y-295782D02*
X14654Y-296115D01*
X15179Y-296315D01*
X15645D01*
X16112Y-296115D01*
X16462Y-295782D01*
X16637Y-295315D01*
X16520Y-294848D01*
X16229Y-294448D01*
X15704Y-294182D01*
X15004Y-294048D01*
X14595Y-293782D01*
X14420Y-293315D01*
X14537Y-292848D01*
X14829Y-292515D01*
X15237Y-292315D01*
X15645D01*
X16054Y-292448D01*
X16404Y-292782D01*
G01X21379Y-296315D02*
X19045D01*
Y-292315D01*
X21379D01*
G01X20445Y-294248D02*
X19045D01*
G01X23729Y-296315D02*
Y-292315D01*
X24895D01*
X25362Y-292515D01*
X25712Y-292782D01*
X26004Y-293182D01*
X26237Y-293648D01*
X26295Y-294315D01*
X26237Y-294982D01*
X26004Y-295448D01*
X25712Y-295848D01*
X25362Y-296115D01*
X24895Y-296315D01*
X23729D01*
G01X33504D02*
Y-292315D01*
X35720D01*
G01X34904Y-294248D02*
X33504D01*
G01X39412Y-296315D02*
X38945Y-296248D01*
X38537Y-295982D01*
X38187Y-295582D01*
X37954Y-295115D01*
X37837Y-294582D01*
Y-294048D01*
X37954Y-293515D01*
X38187Y-293048D01*
X38537Y-292648D01*
X38945Y-292382D01*
X39412Y-292315D01*
X39879Y-292382D01*
X40287Y-292648D01*
X40637Y-293048D01*
X40870Y-293515D01*
X40987Y-294048D01*
Y-294582D01*
X40870Y-295115D01*
X40637Y-295582D01*
X40287Y-295982D01*
X39879Y-296248D01*
X39412Y-296315D01*
G01X43045D02*
Y-292315D01*
X44504D01*
X44970Y-292515D01*
X45262Y-292782D01*
X45379Y-293315D01*
X45262Y-293848D01*
X44912Y-294182D01*
X44504Y-294382D01*
X43045D01*
G01X44504D02*
X45379Y-296315D01*
G01X54979D02*
X52645D01*
Y-292315D01*
X54979D01*
G01X54045Y-294248D02*
X52645D01*
G01X57270Y-296315D02*
Y-292315D01*
X59954Y-296315D01*
Y-292315D01*
G01X63762Y-294315D02*
X64929D01*
Y-295515D01*
X64579Y-295915D01*
X64170Y-296182D01*
X63587Y-296315D01*
X63004Y-296182D01*
X62595Y-295915D01*
X62245Y-295515D01*
X62012Y-295048D01*
X61895Y-294515D01*
Y-294048D01*
X62012Y-293648D01*
X62245Y-293182D01*
X62595Y-292782D01*
X62945Y-292515D01*
X63412Y-292315D01*
X63820D01*
X64287Y-292448D01*
X64637Y-292715D01*
G01X67512Y-292315D02*
X68912D01*
G01X68212D02*
Y-296315D01*
G01X67512D02*
X68912D01*
G01X71670D02*
Y-292315D01*
X74354Y-296315D01*
Y-292315D01*
G01X78979Y-296315D02*
X76645D01*
Y-292315D01*
X78979D01*
G01X78045Y-294248D02*
X76645D01*
G01X83779Y-296315D02*
X81445D01*
Y-292315D01*
X83779D01*
G01X82845Y-294248D02*
X81445D01*
G01X86245Y-296315D02*
Y-292315D01*
X87704D01*
X88170Y-292515D01*
X88462Y-292782D01*
X88579Y-293315D01*
X88462Y-293848D01*
X88112Y-294182D01*
X87704Y-294382D01*
X86245D01*
G01X87704D02*
X88579Y-296315D01*
G01X91512Y-292315D02*
X92912D01*
G01X92212D02*
Y-296315D01*
G01X91512D02*
X92912D01*
G01X95670D02*
Y-292315D01*
X98354Y-296315D01*
Y-292315D01*
G01X102162Y-294315D02*
X103329D01*
Y-295515D01*
X102979Y-295915D01*
X102570Y-296182D01*
X101987Y-296315D01*
X101404Y-296182D01*
X100995Y-295915D01*
X100645Y-295515D01*
X100412Y-295048D01*
X100295Y-294515D01*
Y-294048D01*
X100412Y-293648D01*
X100645Y-293182D01*
X100995Y-292782D01*
X101345Y-292515D01*
X101812Y-292315D01*
X102220D01*
X102687Y-292448D01*
X103037Y-292715D01*
G01X110129Y-296315D02*
Y-292315D01*
X111295D01*
X111762Y-292515D01*
X112112Y-292782D01*
X112404Y-293182D01*
X112637Y-293648D01*
X112695Y-294315D01*
X112637Y-294982D01*
X112404Y-295448D01*
X112112Y-295848D01*
X111762Y-296115D01*
X111295Y-296315D01*
X110129D01*
G01X117379D02*
X115045D01*
Y-292315D01*
X117379D01*
G01X116445Y-294248D02*
X115045D01*
G01X119787Y-295782D02*
X120254Y-296115D01*
X120779Y-296315D01*
X121245D01*
X121712Y-296115D01*
X122062Y-295782D01*
X122237Y-295315D01*
X122120Y-294848D01*
X121829Y-294448D01*
X121304Y-294182D01*
X120604Y-294048D01*
X120195Y-293782D01*
X120020Y-293315D01*
X120137Y-292848D01*
X120429Y-292515D01*
X120837Y-292315D01*
X121245D01*
X121654Y-292448D01*
X122004Y-292782D01*
G01X125112Y-292315D02*
X126512D01*
G01X125812D02*
Y-296315D01*
G01X125112D02*
X126512D01*
G01X130962Y-294315D02*
X132129D01*
Y-295515D01*
X131779Y-295915D01*
X131370Y-296182D01*
X130787Y-296315D01*
X130204Y-296182D01*
X129795Y-295915D01*
X129445Y-295515D01*
X129212Y-295048D01*
X129095Y-294515D01*
Y-294048D01*
X129212Y-293648D01*
X129445Y-293182D01*
X129795Y-292782D01*
X130145Y-292515D01*
X130612Y-292315D01*
X131020D01*
X131487Y-292448D01*
X131837Y-292715D01*
G01X134070Y-296315D02*
Y-292315D01*
X136754Y-296315D01*
Y-292315D01*
G01X-4955Y-288315D02*
Y-284315D01*
X-3555D01*
X-3088Y-284515D01*
X-2738Y-284982D01*
X-2621Y-285515D01*
X-2738Y-286048D01*
X-3030Y-286448D01*
X-3555Y-286648D01*
X-4955D01*
G01X-155Y-288315D02*
Y-284315D01*
X1304D01*
X1770Y-284515D01*
X2062Y-284782D01*
X2179Y-285315D01*
X2062Y-285848D01*
X1712Y-286182D01*
X1304Y-286382D01*
X-155D01*
G01X1304D02*
X2179Y-288315D01*
G01X5812D02*
X5345Y-288248D01*
X4937Y-287982D01*
X4587Y-287582D01*
X4354Y-287115D01*
X4237Y-286582D01*
Y-286048D01*
X4354Y-285515D01*
X4587Y-285048D01*
X4937Y-284648D01*
X5345Y-284382D01*
X5812Y-284315D01*
X6279Y-284382D01*
X6687Y-284648D01*
X7037Y-285048D01*
X7270Y-285515D01*
X7387Y-286048D01*
Y-286582D01*
X7270Y-287115D01*
X7037Y-287582D01*
X6687Y-287982D01*
X6279Y-288248D01*
X5812Y-288315D01*
G01X9445D02*
Y-284315D01*
X10845D01*
X11312Y-284515D01*
X11662Y-284982D01*
X11779Y-285515D01*
X11662Y-286048D01*
X11370Y-286448D01*
X10845Y-286648D01*
X9445D01*
G01X14245Y-288315D02*
Y-284315D01*
X15704D01*
X16170Y-284515D01*
X16462Y-284782D01*
X16579Y-285315D01*
X16462Y-285848D01*
X16112Y-286182D01*
X15704Y-286382D01*
X14245D01*
G01X15704D02*
X16579Y-288315D01*
G01X19512Y-284315D02*
X20912D01*
G01X20212D02*
Y-288315D01*
G01X19512D02*
X20912D01*
G01X26179D02*
X23845D01*
Y-284315D01*
X26179D01*
G01X25245Y-286248D02*
X23845D01*
G01X29812Y-284315D02*
Y-288315D01*
G01X28470Y-284315D02*
X31154D01*
G01X33154Y-288315D02*
X34612Y-284315D01*
X36070Y-288315D01*
G01X35545Y-286915D02*
X33679D01*
G01X38245Y-288315D02*
Y-284315D01*
X39704D01*
X40170Y-284515D01*
X40462Y-284782D01*
X40579Y-285315D01*
X40462Y-285848D01*
X40112Y-286182D01*
X39704Y-286382D01*
X38245D01*
G01X39704D02*
X40579Y-288315D01*
G01X44212D02*
Y-286515D01*
X43045Y-284315D01*
G01X45379D02*
X44212Y-286515D01*
G01X53812Y-284315D02*
Y-288315D01*
G01X52470Y-284315D02*
X55154D01*
G01X58612Y-288315D02*
X58145Y-288248D01*
X57737Y-287982D01*
X57387Y-287582D01*
X57154Y-287115D01*
X57037Y-286582D01*
Y-286048D01*
X57154Y-285515D01*
X57387Y-285048D01*
X57737Y-284648D01*
X58145Y-284382D01*
X58612Y-284315D01*
X59079Y-284382D01*
X59487Y-284648D01*
X59837Y-285048D01*
X60070Y-285515D01*
X60187Y-286048D01*
Y-286582D01*
X60070Y-287115D01*
X59837Y-287582D01*
X59487Y-287982D01*
X59079Y-288248D01*
X58612Y-288315D01*
G01X66870D02*
Y-284315D01*
X69554Y-288315D01*
Y-284315D01*
G01X71787Y-288315D02*
X74237Y-284315D01*
G01X71787D02*
X74237Y-288315D01*
G01X76645D02*
Y-284315D01*
X78045D01*
X78512Y-284515D01*
X78862Y-284982D01*
X78979Y-285515D01*
X78862Y-286048D01*
X78570Y-286448D01*
X78045Y-286648D01*
X76645D01*
G01X85954Y-288315D02*
X87412Y-284315D01*
X88870Y-288315D01*
G01X88345Y-286915D02*
X86479D01*
G01X90870Y-288315D02*
Y-284315D01*
X93554Y-288315D01*
Y-284315D01*
G01X95729Y-288315D02*
Y-284315D01*
X96895D01*
X97362Y-284515D01*
X97712Y-284782D01*
X98004Y-285182D01*
X98237Y-285648D01*
X98295Y-286315D01*
X98237Y-286982D01*
X98004Y-287448D01*
X97712Y-287848D01*
X97362Y-288115D01*
X96895Y-288315D01*
X95729D01*
G01X105387Y-287782D02*
X105854Y-288115D01*
X106379Y-288315D01*
X106845D01*
X107312Y-288115D01*
X107662Y-287782D01*
X107837Y-287315D01*
X107720Y-286848D01*
X107429Y-286448D01*
X106904Y-286182D01*
X106204Y-286048D01*
X105795Y-285782D01*
X105620Y-285315D01*
X105737Y-284848D01*
X106029Y-284515D01*
X106437Y-284315D01*
X106845D01*
X107254Y-284448D01*
X107604Y-284782D01*
G01X110187Y-288315D02*
Y-284315D01*
G01X112637D02*
Y-288315D01*
G01Y-286315D02*
X110187D01*
G01X114754Y-288315D02*
X116212Y-284315D01*
X117670Y-288315D01*
G01X117145Y-286915D02*
X115279D01*
G01X119845Y-284315D02*
Y-288315D01*
X122179D01*
G01X124645Y-284315D02*
Y-288315D01*
X126979D01*
G01X134070D02*
Y-284315D01*
X136754Y-288315D01*
Y-284315D01*
G01X140212Y-288315D02*
X139745Y-288248D01*
X139337Y-287982D01*
X138987Y-287582D01*
X138754Y-287115D01*
X138637Y-286582D01*
Y-286048D01*
X138754Y-285515D01*
X138987Y-285048D01*
X139337Y-284648D01*
X139745Y-284382D01*
X140212Y-284315D01*
X140679Y-284382D01*
X141087Y-284648D01*
X141437Y-285048D01*
X141670Y-285515D01*
X141787Y-286048D01*
Y-286582D01*
X141670Y-287115D01*
X141437Y-287582D01*
X141087Y-287982D01*
X140679Y-288248D01*
X140212Y-288315D01*
G01X145012Y-284315D02*
Y-288315D01*
G01X143670Y-284315D02*
X146354D01*
G01X-3788Y-276315D02*
Y-280315D01*
G01X-5130Y-276315D02*
X-2446D01*
G01X-213Y-280315D02*
Y-276315D01*
G01X2237D02*
Y-280315D01*
G01Y-278315D02*
X-213D01*
G01X5112Y-276315D02*
X6512D01*
G01X5812D02*
Y-280315D01*
G01X5112D02*
X6512D01*
G01X9387Y-279782D02*
X9854Y-280115D01*
X10379Y-280315D01*
X10845D01*
X11312Y-280115D01*
X11662Y-279782D01*
X11837Y-279315D01*
X11720Y-278848D01*
X11429Y-278448D01*
X10904Y-278182D01*
X10204Y-278048D01*
X9795Y-277782D01*
X9620Y-277315D01*
X9737Y-276848D01*
X10029Y-276515D01*
X10437Y-276315D01*
X10845D01*
X11254Y-276448D01*
X11604Y-276782D01*
G01X18929Y-280315D02*
Y-276315D01*
X20095D01*
X20562Y-276515D01*
X20912Y-276782D01*
X21204Y-277182D01*
X21437Y-277648D01*
X21495Y-278315D01*
X21437Y-278982D01*
X21204Y-279448D01*
X20912Y-279848D01*
X20562Y-280115D01*
X20095Y-280315D01*
X18929D01*
G01X25012D02*
X24545Y-280248D01*
X24137Y-279982D01*
X23787Y-279582D01*
X23554Y-279115D01*
X23437Y-278582D01*
Y-278048D01*
X23554Y-277515D01*
X23787Y-277048D01*
X24137Y-276648D01*
X24545Y-276382D01*
X25012Y-276315D01*
X25479Y-276382D01*
X25887Y-276648D01*
X26237Y-277048D01*
X26470Y-277515D01*
X26587Y-278048D01*
Y-278582D01*
X26470Y-279115D01*
X26237Y-279582D01*
X25887Y-279982D01*
X25479Y-280248D01*
X25012Y-280315D01*
G01X31095Y-276648D02*
X30745Y-276448D01*
X30337Y-276315D01*
X29870D01*
X29345Y-276515D01*
X28937Y-276848D01*
X28645Y-277248D01*
X28412Y-277915D01*
X28354Y-278515D01*
X28470Y-279115D01*
X28645Y-279515D01*
X28995Y-279915D01*
X29404Y-280182D01*
X29812Y-280315D01*
X30220D01*
X30629Y-280182D01*
X30979Y-279982D01*
X31270Y-279715D01*
G01X33329Y-276315D02*
Y-279182D01*
X33562Y-279782D01*
X34029Y-280182D01*
X34612Y-280315D01*
X35195Y-280182D01*
X35662Y-279782D01*
X35895Y-279182D01*
Y-276315D01*
G01X37895Y-280315D02*
Y-276315D01*
X39412Y-279648D01*
X40929Y-276315D01*
Y-280315D01*
G01X45379D02*
X43045D01*
Y-276315D01*
X45379D01*
G01X44445Y-278248D02*
X43045D01*
G01X47670Y-280315D02*
Y-276315D01*
X50354Y-280315D01*
Y-276315D01*
G01X53812D02*
Y-280315D01*
G01X52470Y-276315D02*
X55154D01*
G01X64695Y-276648D02*
X64345Y-276448D01*
X63937Y-276315D01*
X63470D01*
X62945Y-276515D01*
X62537Y-276848D01*
X62245Y-277248D01*
X62012Y-277915D01*
X61954Y-278515D01*
X62070Y-279115D01*
X62245Y-279515D01*
X62595Y-279915D01*
X63004Y-280182D01*
X63412Y-280315D01*
X63820D01*
X64229Y-280182D01*
X64579Y-279982D01*
X64870Y-279715D01*
G01X68212Y-280315D02*
X67745Y-280248D01*
X67337Y-279982D01*
X66987Y-279582D01*
X66754Y-279115D01*
X66637Y-278582D01*
Y-278048D01*
X66754Y-277515D01*
X66987Y-277048D01*
X67337Y-276648D01*
X67745Y-276382D01*
X68212Y-276315D01*
X68679Y-276382D01*
X69087Y-276648D01*
X69437Y-277048D01*
X69670Y-277515D01*
X69787Y-278048D01*
Y-278582D01*
X69670Y-279115D01*
X69437Y-279582D01*
X69087Y-279982D01*
X68679Y-280248D01*
X68212Y-280315D01*
G01X71670D02*
Y-276315D01*
X74354Y-280315D01*
Y-276315D01*
G01X77812D02*
Y-280315D01*
G01X76470Y-276315D02*
X79154D01*
G01X81154Y-280315D02*
X82612Y-276315D01*
X84070Y-280315D01*
G01X83545Y-278915D02*
X81679D01*
G01X86712Y-276315D02*
X88112D01*
G01X87412D02*
Y-280315D01*
G01X86712D02*
X88112D01*
G01X90870D02*
Y-276315D01*
X93554Y-280315D01*
Y-276315D01*
G01X95787Y-279782D02*
X96254Y-280115D01*
X96779Y-280315D01*
X97245D01*
X97712Y-280115D01*
X98062Y-279782D01*
X98237Y-279315D01*
X98120Y-278848D01*
X97829Y-278448D01*
X97304Y-278182D01*
X96604Y-278048D01*
X96195Y-277782D01*
X96020Y-277315D01*
X96137Y-276848D01*
X96429Y-276515D01*
X96837Y-276315D01*
X97245D01*
X97654Y-276448D01*
X98004Y-276782D01*
G01X105912Y-276315D02*
X107312D01*
G01X106612D02*
Y-280315D01*
G01X105912D02*
X107312D01*
G01X110070D02*
Y-276315D01*
X112754Y-280315D01*
Y-276315D01*
G01X115104Y-280315D02*
Y-276315D01*
X117320D01*
G01X116504Y-278248D02*
X115104D01*
G01X121012Y-280315D02*
X120545Y-280248D01*
X120137Y-279982D01*
X119787Y-279582D01*
X119554Y-279115D01*
X119437Y-278582D01*
Y-278048D01*
X119554Y-277515D01*
X119787Y-277048D01*
X120137Y-276648D01*
X120545Y-276382D01*
X121012Y-276315D01*
X121479Y-276382D01*
X121887Y-276648D01*
X122237Y-277048D01*
X122470Y-277515D01*
X122587Y-278048D01*
Y-278582D01*
X122470Y-279115D01*
X122237Y-279582D01*
X121887Y-279982D01*
X121479Y-280248D01*
X121012Y-280315D01*
G01X124645D02*
Y-276315D01*
X126104D01*
X126570Y-276515D01*
X126862Y-276782D01*
X126979Y-277315D01*
X126862Y-277848D01*
X126512Y-278182D01*
X126104Y-278382D01*
X124645D01*
G01X126104D02*
X126979Y-280315D01*
G01X129095D02*
Y-276315D01*
X130612Y-279648D01*
X132129Y-276315D01*
Y-280315D01*
G01X133954D02*
X135412Y-276315D01*
X136870Y-280315D01*
G01X136345Y-278915D02*
X134479D01*
G01X140212Y-276315D02*
Y-280315D01*
G01X138870Y-276315D02*
X141554D01*
G01X144312D02*
X145712D01*
G01X145012D02*
Y-280315D01*
G01X144312D02*
X145712D01*
G01X149812D02*
X149345Y-280248D01*
X148937Y-279982D01*
X148587Y-279582D01*
X148354Y-279115D01*
X148237Y-278582D01*
Y-278048D01*
X148354Y-277515D01*
X148587Y-277048D01*
X148937Y-276648D01*
X149345Y-276382D01*
X149812Y-276315D01*
X150279Y-276382D01*
X150687Y-276648D01*
X151037Y-277048D01*
X151270Y-277515D01*
X151387Y-278048D01*
Y-278582D01*
X151270Y-279115D01*
X151037Y-279582D01*
X150687Y-279982D01*
X150279Y-280248D01*
X149812Y-280315D01*
G01X153270D02*
Y-276315D01*
X155954Y-280315D01*
Y-276315D01*
G01X40245Y-333815D02*
Y-339815D01*
X43379D01*
G01X46389Y-338615D02*
X46859Y-339315D01*
X47485Y-339715D01*
X48190Y-339815D01*
X48817Y-339715D01*
X49444Y-339215D01*
X49835Y-338615D01*
X49914Y-338015D01*
X49757Y-337315D01*
X49209Y-336815D01*
X48660Y-336615D01*
X47955D01*
G01X48660D02*
X49130Y-336315D01*
X49522Y-335815D01*
X49679Y-335215D01*
X49522Y-334615D01*
X49130Y-334115D01*
X48425Y-333815D01*
X47720Y-333915D01*
X47015Y-334315D01*
G01X52062Y-341815D02*
X56762D01*
G01X59772Y-333815D02*
X61652D01*
G01X60712D02*
Y-339815D01*
G01X59772D02*
X61652D01*
G01X65210D02*
Y-333815D01*
X68814Y-339815D01*
Y-333815D01*
G01X73312D02*
Y-339815D01*
G01X71510Y-333815D02*
X75114D01*
G01X77262Y-341815D02*
X81962D01*
G01X85912Y-339815D02*
Y-333815D01*
X84972Y-335015D01*
G01Y-339815D02*
X86852D01*
G01X39104Y-331315D02*
Y-327315D01*
X41320D01*
G01X40504Y-329248D02*
X39104D01*
G01X44312Y-327315D02*
X45712D01*
G01X45012D02*
Y-331315D01*
G01X44312D02*
X45712D01*
G01X48645Y-327315D02*
Y-331315D01*
X50979D01*
G01X53095D02*
Y-327315D01*
X54612Y-330648D01*
X56129Y-327315D01*
Y-331315D01*
G01X163929D02*
Y-327315D01*
X165095D01*
X165562Y-327515D01*
X165912Y-327782D01*
X166204Y-328182D01*
X166437Y-328648D01*
X166495Y-329315D01*
X166437Y-329982D01*
X166204Y-330448D01*
X165912Y-330848D01*
X165562Y-331115D01*
X165095Y-331315D01*
X163929D01*
G01X168554D02*
X170012Y-327315D01*
X171470Y-331315D01*
G01X170945Y-329915D02*
X169079D01*
G01X174812Y-327315D02*
Y-331315D01*
G01X173470Y-327315D02*
X176154D01*
G01X180779Y-331315D02*
X178445D01*
Y-327315D01*
X180779D01*
G01X179845Y-329248D02*
X178445D01*
G01X163870Y-251315D02*
Y-247315D01*
X166554Y-251315D01*
Y-247315D01*
G01X168554Y-251315D02*
X170012Y-247315D01*
X171470Y-251315D01*
G01X170945Y-249915D02*
X169079D01*
G01X173295Y-251315D02*
Y-247315D01*
X174812Y-250648D01*
X176329Y-247315D01*
Y-251315D01*
G01X180779D02*
X178445D01*
Y-247315D01*
X180779D01*
G01X179845Y-249248D02*
X178445D01*
G01X167212Y-335315D02*
X166745Y-335448D01*
X166395Y-335782D01*
X166162Y-336182D01*
X165987Y-336715D01*
X165929Y-337315D01*
X165987Y-337915D01*
X166162Y-338448D01*
X166395Y-338848D01*
X166745Y-339182D01*
X167212Y-339315D01*
X167679Y-339182D01*
X168029Y-338848D01*
X168262Y-338448D01*
X168437Y-337915D01*
X168495Y-337315D01*
X168437Y-336715D01*
X168262Y-336182D01*
X168029Y-335782D01*
X167679Y-335448D01*
X167212Y-335315D01*
G01X170904Y-337648D02*
X171312Y-337182D01*
X171662Y-336915D01*
X172129Y-336782D01*
X172537Y-336915D01*
X172829Y-337182D01*
X173062Y-337582D01*
X173120Y-338048D01*
X173062Y-338448D01*
X172829Y-338848D01*
X172479Y-339182D01*
X172070Y-339315D01*
X171604Y-339182D01*
X171195Y-338782D01*
X170962Y-338182D01*
X170904Y-337515D01*
X171020Y-336648D01*
X171195Y-336182D01*
X171487Y-335715D01*
X171895Y-335382D01*
X172304Y-335315D01*
X172712Y-335448D01*
X173004Y-335782D01*
G01X176054Y-337982D02*
X177570D01*
G01X181612Y-339315D02*
Y-335315D01*
X180912Y-336115D01*
G01Y-339315D02*
X182312D01*
G01X185304Y-335982D02*
X185654Y-335582D01*
X186062Y-335382D01*
X186529Y-335315D01*
X187112Y-335448D01*
X187520Y-335782D01*
X187637Y-336182D01*
X187579Y-336582D01*
X187345Y-336915D01*
X186179Y-337582D01*
X185654Y-338048D01*
X185304Y-338715D01*
X185187Y-339315D01*
X187637D01*
G01X190454Y-337982D02*
X191970D01*
G01X194904Y-335982D02*
X195254Y-335582D01*
X195662Y-335382D01*
X196129Y-335315D01*
X196712Y-335448D01*
X197120Y-335782D01*
X197237Y-336182D01*
X197179Y-336582D01*
X196945Y-336915D01*
X195779Y-337582D01*
X195254Y-338048D01*
X194904Y-338715D01*
X194787Y-339315D01*
X197237D01*
G01X201512D02*
Y-335315D01*
X199354Y-338182D01*
X202270D01*
G01X173462Y-317148D02*
X176962D01*
G01X178262D02*
X181762D01*
G01X183062D02*
X186562D01*
G01X195695Y-312148D02*
X195345Y-311948D01*
X194937Y-311815D01*
X194470D01*
X193945Y-312015D01*
X193537Y-312348D01*
X193245Y-312748D01*
X193012Y-313415D01*
X192954Y-314015D01*
X193070Y-314615D01*
X193245Y-315015D01*
X193595Y-315415D01*
X194004Y-315682D01*
X194412Y-315815D01*
X194820D01*
X195229Y-315682D01*
X195579Y-315482D01*
X195870Y-315215D01*
G01X199212Y-315815D02*
X198745Y-315748D01*
X198337Y-315482D01*
X197987Y-315082D01*
X197754Y-314615D01*
X197637Y-314082D01*
Y-313548D01*
X197754Y-313015D01*
X197987Y-312548D01*
X198337Y-312148D01*
X198745Y-311882D01*
X199212Y-311815D01*
X199679Y-311882D01*
X200087Y-312148D01*
X200437Y-312548D01*
X200670Y-313015D01*
X200787Y-313548D01*
Y-314082D01*
X200670Y-314615D01*
X200437Y-315082D01*
X200087Y-315482D01*
X199679Y-315748D01*
X199212Y-315815D01*
G01X202495D02*
Y-311815D01*
X204012Y-315148D01*
X205529Y-311815D01*
Y-315815D01*
G01X207645D02*
Y-311815D01*
X209045D01*
X209512Y-312015D01*
X209862Y-312482D01*
X209979Y-313015D01*
X209862Y-313548D01*
X209570Y-313948D01*
X209045Y-314148D01*
X207645D01*
G01X212154Y-315815D02*
X213612Y-311815D01*
X215070Y-315815D01*
G01X214545Y-314415D02*
X212679D01*
G01X217070Y-315815D02*
Y-311815D01*
X219754Y-315815D01*
Y-311815D01*
G01X223212Y-315815D02*
Y-314015D01*
X222045Y-311815D01*
G01X224379D02*
X223212Y-314015D01*
G01X234095Y-312148D02*
X233745Y-311948D01*
X233337Y-311815D01*
X232870D01*
X232345Y-312015D01*
X231937Y-312348D01*
X231645Y-312748D01*
X231412Y-313415D01*
X231354Y-314015D01*
X231470Y-314615D01*
X231645Y-315015D01*
X231995Y-315415D01*
X232404Y-315682D01*
X232812Y-315815D01*
X233220D01*
X233629Y-315682D01*
X233979Y-315482D01*
X234270Y-315215D01*
G01X237612Y-315815D02*
X237145Y-315748D01*
X236737Y-315482D01*
X236387Y-315082D01*
X236154Y-314615D01*
X236037Y-314082D01*
Y-313548D01*
X236154Y-313015D01*
X236387Y-312548D01*
X236737Y-312148D01*
X237145Y-311882D01*
X237612Y-311815D01*
X238079Y-311882D01*
X238487Y-312148D01*
X238837Y-312548D01*
X239070Y-313015D01*
X239187Y-313548D01*
Y-314082D01*
X239070Y-314615D01*
X238837Y-315082D01*
X238487Y-315482D01*
X238079Y-315748D01*
X237612Y-315815D01*
G01X241070D02*
Y-311815D01*
X243754Y-315815D01*
Y-311815D01*
G01X246104Y-315815D02*
Y-311815D01*
X248320D01*
G01X247504Y-313748D02*
X246104D01*
G01X251312Y-311815D02*
X252712D01*
G01X252012D02*
Y-315815D01*
G01X251312D02*
X252712D01*
G01X255529D02*
Y-311815D01*
X256695D01*
X257162Y-312015D01*
X257512Y-312282D01*
X257804Y-312682D01*
X258037Y-313148D01*
X258095Y-313815D01*
X258037Y-314482D01*
X257804Y-314948D01*
X257512Y-315348D01*
X257162Y-315615D01*
X256695Y-315815D01*
X255529D01*
G01X262779D02*
X260445D01*
Y-311815D01*
X262779D01*
G01X261845Y-313748D02*
X260445D01*
G01X265070Y-315815D02*
Y-311815D01*
X267754Y-315815D01*
Y-311815D01*
G01X271212D02*
Y-315815D01*
G01X269870Y-311815D02*
X272554D01*
G01X275312D02*
X276712D01*
G01X276012D02*
Y-315815D01*
G01X275312D02*
X276712D01*
G01X279354D02*
X280812Y-311815D01*
X282270Y-315815D01*
G01X281745Y-314415D02*
X279879D01*
G01X284445Y-311815D02*
Y-315815D01*
X286779D01*
G01X178167Y-300315D02*
X181457Y-294015D01*
G01X178167D02*
X181457Y-300315D01*
G01X173462Y-300648D02*
X176962D01*
G01X178262D02*
X181762D01*
G01X183062D02*
X186562D01*
G01X195695Y-295648D02*
X195345Y-295448D01*
X194937Y-295315D01*
X194470D01*
X193945Y-295515D01*
X193537Y-295848D01*
X193245Y-296248D01*
X193012Y-296915D01*
X192954Y-297515D01*
X193070Y-298115D01*
X193245Y-298515D01*
X193595Y-298915D01*
X194004Y-299182D01*
X194412Y-299315D01*
X194820D01*
X195229Y-299182D01*
X195579Y-298982D01*
X195870Y-298715D01*
G01X199212Y-299315D02*
X198745Y-299248D01*
X198337Y-298982D01*
X197987Y-298582D01*
X197754Y-298115D01*
X197637Y-297582D01*
Y-297048D01*
X197754Y-296515D01*
X197987Y-296048D01*
X198337Y-295648D01*
X198745Y-295382D01*
X199212Y-295315D01*
X199679Y-295382D01*
X200087Y-295648D01*
X200437Y-296048D01*
X200670Y-296515D01*
X200787Y-297048D01*
Y-297582D01*
X200670Y-298115D01*
X200437Y-298582D01*
X200087Y-298982D01*
X199679Y-299248D01*
X199212Y-299315D01*
G01X202495D02*
Y-295315D01*
X204012Y-298648D01*
X205529Y-295315D01*
Y-299315D01*
G01X207645D02*
Y-295315D01*
X209045D01*
X209512Y-295515D01*
X209862Y-295982D01*
X209979Y-296515D01*
X209862Y-297048D01*
X209570Y-297448D01*
X209045Y-297648D01*
X207645D01*
G01X212154Y-299315D02*
X213612Y-295315D01*
X215070Y-299315D01*
G01X214545Y-297915D02*
X212679D01*
G01X217070Y-299315D02*
Y-295315D01*
X219754Y-299315D01*
Y-295315D01*
G01X223212Y-299315D02*
Y-297515D01*
X222045Y-295315D01*
G01X224379D02*
X223212Y-297515D01*
G01X232112Y-295315D02*
X233512D01*
G01X232812D02*
Y-299315D01*
G01X232112D02*
X233512D01*
G01X236270D02*
Y-295315D01*
X238954Y-299315D01*
Y-295315D01*
G01X242412D02*
Y-299315D01*
G01X241070Y-295315D02*
X243754D01*
G01X248379Y-299315D02*
X246045D01*
Y-295315D01*
X248379D01*
G01X247445Y-297248D02*
X246045D01*
G01X250845Y-299315D02*
Y-295315D01*
X252304D01*
X252770Y-295515D01*
X253062Y-295782D01*
X253179Y-296315D01*
X253062Y-296848D01*
X252712Y-297182D01*
X252304Y-297382D01*
X250845D01*
G01X252304D02*
X253179Y-299315D01*
G01X255470D02*
Y-295315D01*
X258154Y-299315D01*
Y-295315D01*
G01X260154Y-299315D02*
X261612Y-295315D01*
X263070Y-299315D01*
G01X262545Y-297915D02*
X260679D01*
G01X265245Y-295315D02*
Y-299315D01*
X267579D01*
G01X173462Y-284648D02*
X176962D01*
G01X178262D02*
X181762D01*
G01X183062D02*
X186562D01*
G01X195695Y-279648D02*
X195345Y-279448D01*
X194937Y-279315D01*
X194470D01*
X193945Y-279515D01*
X193537Y-279848D01*
X193245Y-280248D01*
X193012Y-280915D01*
X192954Y-281515D01*
X193070Y-282115D01*
X193245Y-282515D01*
X193595Y-282915D01*
X194004Y-283182D01*
X194412Y-283315D01*
X194820D01*
X195229Y-283182D01*
X195579Y-282982D01*
X195870Y-282715D01*
G01X199212Y-283315D02*
X198745Y-283248D01*
X198337Y-282982D01*
X197987Y-282582D01*
X197754Y-282115D01*
X197637Y-281582D01*
Y-281048D01*
X197754Y-280515D01*
X197987Y-280048D01*
X198337Y-279648D01*
X198745Y-279382D01*
X199212Y-279315D01*
X199679Y-279382D01*
X200087Y-279648D01*
X200437Y-280048D01*
X200670Y-280515D01*
X200787Y-281048D01*
Y-281582D01*
X200670Y-282115D01*
X200437Y-282582D01*
X200087Y-282982D01*
X199679Y-283248D01*
X199212Y-283315D01*
G01X202495D02*
Y-279315D01*
X204012Y-282648D01*
X205529Y-279315D01*
Y-283315D01*
G01X207645D02*
Y-279315D01*
X209045D01*
X209512Y-279515D01*
X209862Y-279982D01*
X209979Y-280515D01*
X209862Y-281048D01*
X209570Y-281448D01*
X209045Y-281648D01*
X207645D01*
G01X212154Y-283315D02*
X213612Y-279315D01*
X215070Y-283315D01*
G01X214545Y-281915D02*
X212679D01*
G01X217070Y-283315D02*
Y-279315D01*
X219754Y-283315D01*
Y-279315D01*
G01X223212Y-283315D02*
Y-281515D01*
X222045Y-279315D01*
G01X224379D02*
X223212Y-281515D01*
G01X231645Y-283315D02*
Y-279315D01*
X233045D01*
X233512Y-279515D01*
X233862Y-279982D01*
X233979Y-280515D01*
X233862Y-281048D01*
X233570Y-281448D01*
X233045Y-281648D01*
X231645D01*
G01X236329Y-279315D02*
Y-282182D01*
X236562Y-282782D01*
X237029Y-283182D01*
X237612Y-283315D01*
X238195Y-283182D01*
X238662Y-282782D01*
X238895Y-282182D01*
Y-279315D01*
G01X242879Y-281182D02*
X243112Y-280982D01*
X243287Y-280648D01*
X243404Y-280182D01*
X243287Y-279782D01*
X243054Y-279515D01*
X242645Y-279315D01*
X241070D01*
Y-283315D01*
X242995D01*
X243404Y-283048D01*
X243637Y-282648D01*
X243754Y-282182D01*
X243637Y-281715D01*
X243287Y-281315D01*
X242879Y-281182D01*
X241070D01*
G01X246045Y-279315D02*
Y-283315D01*
X248379D01*
G01X251312Y-279315D02*
X252712D01*
G01X252012D02*
Y-283315D01*
G01X251312D02*
X252712D01*
G01X258095Y-279648D02*
X257745Y-279448D01*
X257337Y-279315D01*
X256870D01*
X256345Y-279515D01*
X255937Y-279848D01*
X255645Y-280248D01*
X255412Y-280915D01*
X255354Y-281515D01*
X255470Y-282115D01*
X255645Y-282515D01*
X255995Y-282915D01*
X256404Y-283182D01*
X256812Y-283315D01*
X257220D01*
X257629Y-283182D01*
X257979Y-282982D01*
X258270Y-282715D01*
G01X213870Y-331315D02*
Y-327315D01*
X216554Y-331315D01*
Y-327315D01*
G01X218729D02*
Y-330182D01*
X218962Y-330782D01*
X219429Y-331182D01*
X220012Y-331315D01*
X220595Y-331182D01*
X221062Y-330782D01*
X221295Y-330182D01*
Y-327315D01*
G01X223295Y-331315D02*
Y-327315D01*
X224812Y-330648D01*
X226329Y-327315D01*
Y-331315D01*
G01X230079Y-329182D02*
X230312Y-328982D01*
X230487Y-328648D01*
X230604Y-328182D01*
X230487Y-327782D01*
X230254Y-327515D01*
X229845Y-327315D01*
X228270D01*
Y-331315D01*
X230195D01*
X230604Y-331048D01*
X230837Y-330648D01*
X230954Y-330182D01*
X230837Y-329715D01*
X230487Y-329315D01*
X230079Y-329182D01*
X228270D01*
G01X235579Y-331315D02*
X233245D01*
Y-327315D01*
X235579D01*
G01X234645Y-329248D02*
X233245D01*
G01X238045Y-331315D02*
Y-327315D01*
X239504D01*
X239970Y-327515D01*
X240262Y-327782D01*
X240379Y-328315D01*
X240262Y-328848D01*
X239912Y-329182D01*
X239504Y-329382D01*
X238045D01*
G01X239504D02*
X240379Y-331315D01*
G01X248812Y-338515D02*
Y-332215D01*
X247872Y-333475D01*
G01Y-338515D02*
X249752D01*
G01X254955D02*
X255112Y-337150D01*
X255347Y-335995D01*
X255660Y-334945D01*
X256052Y-333790D01*
X256679Y-332215D01*
X253545D01*
G01X261412D02*
X260785Y-332425D01*
X260315Y-332950D01*
X260002Y-333580D01*
X259767Y-334420D01*
X259689Y-335365D01*
X259767Y-336310D01*
X260002Y-337150D01*
X260315Y-337780D01*
X260785Y-338305D01*
X261412Y-338515D01*
X262039Y-338305D01*
X262509Y-337780D01*
X262822Y-337150D01*
X263057Y-336310D01*
X263135Y-335365D01*
X263057Y-334420D01*
X262822Y-333580D01*
X262509Y-332950D01*
X262039Y-332425D01*
X261412Y-332215D01*
G01X266694Y-336415D02*
X268730D01*
G01X274012Y-338515D02*
X274560Y-338410D01*
X275187Y-338095D01*
X275579Y-337570D01*
X275735Y-336835D01*
X275579Y-336100D01*
X275109Y-335470D01*
X274404Y-335155D01*
X273620D01*
X273150Y-334945D01*
X272759Y-334420D01*
X272602Y-333685D01*
X272837Y-332950D01*
X273385Y-332425D01*
X274012Y-332215D01*
X274639Y-332425D01*
X275187Y-332950D01*
X275422Y-333685D01*
X275265Y-334420D01*
X274874Y-334945D01*
X274404Y-335155D01*
X273620D01*
X272915Y-335470D01*
X272445Y-336100D01*
X272289Y-336835D01*
X272445Y-337570D01*
X272837Y-338095D01*
X273464Y-338410D01*
X274012Y-338515D01*
G01X278980Y-337780D02*
X279529Y-338305D01*
X280155Y-338515D01*
X280782Y-338305D01*
X281330Y-337675D01*
X281722Y-336730D01*
X281879Y-335785D01*
Y-334630D01*
X281722Y-333685D01*
X281330Y-332845D01*
X280860Y-332425D01*
X280312Y-332215D01*
X279685Y-332425D01*
X279215Y-332845D01*
X278902Y-333475D01*
X278745Y-334315D01*
X278902Y-335050D01*
X279294Y-335785D01*
X279764Y-336205D01*
X280312Y-336310D01*
X280939Y-336100D01*
X281409Y-335575D01*
X281879Y-334630D01*
G01X286612Y-338515D02*
Y-332215D01*
X285672Y-333475D01*
G01Y-338515D02*
X287552D01*
G01X291424Y-333265D02*
X291894Y-332635D01*
X292442Y-332320D01*
X293069Y-332215D01*
X293852Y-332425D01*
X294400Y-332950D01*
X294557Y-333580D01*
X294479Y-334210D01*
X294165Y-334735D01*
X292599Y-335785D01*
X291894Y-336520D01*
X291424Y-337570D01*
X291267Y-338515D01*
X294557D01*
G01X297880Y-337780D02*
X298429Y-338305D01*
X299055Y-338515D01*
X299682Y-338305D01*
X300230Y-337675D01*
X300622Y-336730D01*
X300779Y-335785D01*
Y-334630D01*
X300622Y-333685D01*
X300230Y-332845D01*
X299760Y-332425D01*
X299212Y-332215D01*
X298585Y-332425D01*
X298115Y-332845D01*
X297802Y-333475D01*
X297645Y-334315D01*
X297802Y-335050D01*
X298194Y-335785D01*
X298664Y-336205D01*
X299212Y-336310D01*
X299839Y-336100D01*
X300309Y-335575D01*
X300779Y-334630D01*
G01X341745Y-338515D02*
Y-332215D01*
X343704D01*
X344330Y-332530D01*
X344722Y-332950D01*
X344879Y-333790D01*
X344722Y-334630D01*
X344252Y-335155D01*
X343704Y-335470D01*
X341745D01*
G01X343704D02*
X344879Y-338515D01*
G01X351179D02*
X348045D01*
Y-332215D01*
X351179D01*
G01X349925Y-335260D02*
X348045D01*
G01X353954Y-332215D02*
X355912Y-338515D01*
X357870Y-332215D01*
G01X370235Y-332740D02*
X369765Y-332425D01*
X369217Y-332215D01*
X368590D01*
X367885Y-332530D01*
X367337Y-333055D01*
X366945Y-333685D01*
X366632Y-334735D01*
X366554Y-335680D01*
X366710Y-336625D01*
X366945Y-337255D01*
X367415Y-337885D01*
X367964Y-338305D01*
X368512Y-338515D01*
X369060D01*
X369609Y-338305D01*
X370079Y-337990D01*
X370470Y-337570D01*
G01X239995Y-261415D02*
Y-255115D01*
X241875D01*
X242502Y-255430D01*
X242972Y-256165D01*
X243129Y-257005D01*
X242972Y-257845D01*
X242580Y-258475D01*
X241875Y-258790D01*
X239995D01*
G01X246060Y-261415D02*
Y-255115D01*
X249664Y-261415D01*
Y-255115D01*
G01X255729Y-261415D02*
X252595D01*
Y-255115D01*
X255729D01*
G01X254475Y-258160D02*
X252595D01*
G01X258504Y-255115D02*
X260462Y-261415D01*
X262420Y-255115D01*
G01X266605Y-261415D02*
X266762Y-260050D01*
X266997Y-258895D01*
X267310Y-257845D01*
X267702Y-256690D01*
X268329Y-255115D01*
X265195D01*
G01X271574Y-256165D02*
X272044Y-255535D01*
X272592Y-255220D01*
X273219Y-255115D01*
X274002Y-255325D01*
X274550Y-255850D01*
X274707Y-256480D01*
X274629Y-257110D01*
X274315Y-257635D01*
X272749Y-258685D01*
X272044Y-259420D01*
X271574Y-260470D01*
X271417Y-261415D01*
X274707D01*
G01X277874Y-256165D02*
X278344Y-255535D01*
X278892Y-255220D01*
X279519Y-255115D01*
X280302Y-255325D01*
X280850Y-255850D01*
X281007Y-256480D01*
X280929Y-257110D01*
X280615Y-257635D01*
X279049Y-258685D01*
X278344Y-259420D01*
X277874Y-260470D01*
X277717Y-261415D01*
X281007D01*
G01X285662Y-255115D02*
X285035Y-255325D01*
X284565Y-255850D01*
X284252Y-256480D01*
X284017Y-257320D01*
X283939Y-258265D01*
X284017Y-259210D01*
X284252Y-260050D01*
X284565Y-260680D01*
X285035Y-261205D01*
X285662Y-261415D01*
X286289Y-261205D01*
X286759Y-260680D01*
X287072Y-260050D01*
X287307Y-259210D01*
X287385Y-258265D01*
X287307Y-257320D01*
X287072Y-256480D01*
X286759Y-255850D01*
X286289Y-255325D01*
X285662Y-255115D01*
G01X292589Y-258055D02*
X292902Y-257740D01*
X293137Y-257215D01*
X293294Y-256480D01*
X293137Y-255850D01*
X292824Y-255430D01*
X292275Y-255115D01*
X290160D01*
Y-261415D01*
X292745D01*
X293294Y-260995D01*
X293607Y-260365D01*
X293764Y-259630D01*
X293607Y-258895D01*
X293137Y-258265D01*
X292589Y-258055D01*
X290160D01*
G01X296695Y-261415D02*
Y-255115D01*
X298575D01*
X299202Y-255430D01*
X299672Y-256165D01*
X299829Y-257005D01*
X299672Y-257845D01*
X299280Y-258475D01*
X298575Y-258790D01*
X296695D01*
G01X304562Y-261415D02*
Y-255115D01*
X303622Y-256375D01*
G01Y-261415D02*
X305502D01*
M02*
