G04 ================== begin FILE IDENTIFICATION RECORD ==================*
G04 Layout Name:  LAY-89129_C.brd*
G04 Film Name:    L4_SS.art*
G04 File Format:  Gerber RS274X*
G04 File Origin:  Cadence Allegro 17.4-S037*
G04 Origin Date:  Wed Jun 12 20:14:21 2024*
G04 *
G04 Layer:  BOARD GEOMETRY/DESIGN_OUTLINE*
G04 Layer:  VIA CLASS/BOTTOM*
G04 Layer:  PIN/BOTTOM*
G04 Layer:  PACKAGE GEOMETRY/SHORT_LAYER_BOTTOM*
G04 Layer:  ETCH/BOTTOM*
G04 Layer:  DRAWING FORMAT/FILM_TITLE_BLOCK*
G04 *
G04 Offset:    (0.00 0.00)*
G04 Mirror:    No*
G04 Mode:      Positive*
G04 Rotation:  0*
G04 FullContactRelief:  No*
G04 UndefLineWidth:     8.00*
G04 ================== end FILE IDENTIFICATION RECORD ====================*
%FSLAX55Y55*MOIN*%
%IR0*IPPOS*OFA0.00000B0.00000*MIA0B0*SFA1.00000B1.00000*%
%ADD24O,.043X.102*%
%ADD10C,.02*%
%ADD15C,.06*%
%ADD19C,.025*%
%ADD11C,.065*%
%ADD22C,.084*%
%ADD14C,.066*%
%ADD16R,.06X.06*%
%ADD12R,.065X.065*%
%ADD25R,.084X.084*%
%ADD13R,.066X.066*%
%ADD28R,.035X.031*%
%ADD27O,.035X.06*%
%ADD18R,.018X.02*%
%ADD26O,.045X.035*%
%ADD17O,.035X.045*%
%ADD23O,.043X.083*%
%ADD21C,.236*%
%ADD20R,.051X.059*%
%ADD29C,.01*%
%ADD30C,.01575*%
%ADD31C,.008*%
%ADD32C,.006*%
%ADD33C,.0045*%
%ADD37C,.03608*%
%ADD36C,.08108*%
%ADD38C,.08208*%
%ADD35C,.07608*%
%ADD39R,.99104X.12204*%
%ADD34O,.05906X.09906*%
G75*
%LPD*%
G75*
G36*
G01X117367Y144733D02*
G03X116774Y143301I1433J-1432D01*
G01Y87211D01*
G03X117509Y85649I2027J0D01*
G02X117544Y84910I-318J-385D01*
G01X113867Y81233D01*
G03X113274Y79801I1433J-1432D01*
G01Y63824D01*
X102067Y52618D01*
G03X101614Y51926I1433J-1433D01*
G02X100795Y51756I-465J183D01*
G01X99933Y52618D01*
G03X98500Y53212I-1434J-1433D01*
G03X97016Y52565I1J-2027D01*
G02X96284I-366J341D01*
G03X94800Y53212I-1485J-1380D01*
G03X92774Y51185I0J-2026D01*
G03X92780Y51017I2026J-12D01*
G02X91929Y50622I-498J-41D01*
G01X89933Y52618D01*
G03X88500Y53212I-1434J-1433D01*
G03X86614Y51926I0J-2026D01*
G02X85795Y51756I-465J183D01*
G01X84933Y52618D01*
G03X83500Y53212I-1434J-1433D01*
G03X81474Y51185I0J-2026D01*
G03X82067Y49752I2026J-1D01*
G01X91067Y40752D01*
G03X92500Y40158I1434J1433D01*
G01X104901D01*
G02X105392Y39565I0J-500D01*
G03X105356Y39185I1991J-380D01*
G03X107383Y37158I2027J0D01*
G01X135576D01*
X140967Y31767D01*
G03X142399Y31174I1432J1433D01*
G01X147901D01*
G03X149333Y31767I0J2026D01*
G01X152633Y35067D01*
G03X153226Y36499I-1433J1432D01*
G01Y43582D01*
X169533Y59888D01*
G03X170126Y61320I-1433J1432D01*
G01Y125533D01*
G02X170365Y125783I250J0D01*
G03X172087Y127585I-82J1802D01*
G03X171729Y128664I-1805J0D01*
G01X173939Y130874D01*
X185254D01*
G02X185607Y130020I-1J-500D01*
G01X184798Y129212D01*
Y121512D01*
X181398Y118112D01*
Y111388D01*
X182988Y109798D01*
X200812D01*
X202902Y111888D01*
Y127412D01*
X200293Y130020D01*
G02X200646Y130874I354J354D01*
G01X218221D01*
X220652Y128442D01*
G03X222085Y127848I1434J1433D01*
G01X224675D01*
G03X226108Y128442I-1J2027D01*
G01X228539Y130874D01*
X316002D01*
G03X317363Y131400I-1J2026D01*
G01X320077D01*
X322074Y129404D01*
Y117130D01*
X322063Y117094D01*
G03X321974Y116500I1938J-594D01*
G01Y115384D01*
X321516D01*
X321478Y115588D01*
G03X317739Y118691I-3739J-701D01*
G03Y111083I0J-3804D01*
G03X321040Y112996I0J3805D01*
G02X321974Y112748I434J-248D01*
G01Y107026D01*
G02X321040Y106778I-500J0D01*
G03X317739Y108691I-3301J-1892D01*
G03X313935Y104887I0J-3804D01*
G01Y104600D01*
X311543D01*
Y104887D01*
G03X303935I-3804J0D01*
G01Y104600D01*
X301543D01*
Y104887D01*
G03X293935I-3804J0D01*
G01Y104600D01*
X291543D01*
Y104887D01*
G03X283935I-3804J0D01*
G01Y104600D01*
X281543D01*
Y104887D01*
G03X273935I-3804J0D01*
G01Y104600D01*
X271543D01*
Y104887D01*
G03X263935I-3804J0D01*
G01Y104600D01*
X261543D01*
Y104887D01*
G03X253935I-3804J0D01*
G01Y104600D01*
X251543D01*
Y104887D01*
G03X243935I-3804J0D01*
G01Y104600D01*
X241543D01*
Y104887D01*
G03X233935I-3804J0D01*
G01Y104600D01*
X231543D01*
Y104887D01*
G03X223935I-3804J0D01*
G01Y104600D01*
X221543D01*
Y104887D01*
G03X213935I-3804J0D01*
G01Y104600D01*
X211543D01*
Y104887D01*
G03X203935I-3804J0D01*
G01Y104600D01*
X201543D01*
Y104887D01*
G03X193935I-3804J0D01*
G03X194800Y102472I3804J0D01*
G01Y97702D01*
X181988D01*
X176498Y92212D01*
Y31388D01*
X191188Y16698D01*
X230012D01*
X231711Y18397D01*
G02X232500Y18288I353J-354D01*
G03X234075Y17364I1575J880D01*
G03X235445Y17995I0J1803D01*
G02X236205I380J-326D01*
G03X237575Y17364I1370J1172D01*
G03X239379Y19168I0J1804D01*
G03X238748Y20538I-1803J0D01*
G02Y21298I326J380D01*
G03X239379Y22668I-1172J1370D01*
G03X237575Y24472I-1804J0D01*
G03X236205Y23841I0J-1803D01*
G02X235445I-380J326D01*
G03X234318Y24456I-1371J-1172D01*
G01X234102Y24485D01*
Y55212D01*
X229312Y60002D01*
X216088D01*
X212498Y56412D01*
Y55454D01*
X206085D01*
G03X205282Y54652I0J-803D01*
G01Y50738D01*
G02X204428Y50385I-500J1D01*
G01X197302Y57512D01*
Y65406D01*
G02X197781Y65905I500J0D01*
G03X199726Y67930I-82J2025D01*
G01Y81125D01*
G02X199968Y81375I250J0D01*
G03X201926Y83400I-68J2025D01*
G01Y90761D01*
X203399Y92234D01*
X240279D01*
Y91984D01*
G03X241187Y90419I1804J1D01*
G02Y89551I-248J-434D01*
G03X240279Y87985I896J-1566D01*
G03X242083Y86181I1804J0D01*
G03X243649Y87089I0J1804D01*
G02X244517I434J-248D01*
G03X246083Y86181I1566J896D01*
G03Y89789I0J1804D01*
G03X244517Y88881I0J-1804D01*
G02X243649I-434J248D01*
G03X242979Y89551I-1566J-896D01*
G02Y90419I248J434D01*
G03X243887Y91984I-896J1566D01*
G01Y92234D01*
X246799D01*
G03X248231Y92827I0J2026D01*
G01X249577Y94174D01*
X372761D01*
X379574Y87361D01*
Y81200D01*
G03X381600Y79174I2026J0D01*
G01X381601D01*
G03X382865Y79617I0J2026D01*
G02X383678Y79227I313J-390D01*
G01Y77562D01*
G03X383598Y76900I2722J-665D01*
G03X384200Y75166I2802J1D01*
G01Y70079D01*
G03X383778Y68601I2379J-1479D01*
G01Y65600D01*
X382800D01*
Y54012D01*
X382098Y53310D01*
G03X381278Y51330I1981J-1980D01*
G01Y49097D01*
G03X381505Y47994I2801J2D01*
G01X381526Y47946D01*
Y47850D01*
G03X382800Y45640I2554J0D01*
G01Y32400D01*
X384202Y30998D01*
X384211Y30908D01*
G03X386228Y29074I2017J192D01*
G01X386229D01*
G03X387661Y29667I0J2026D01*
G01X388594Y30600D01*
X398200D01*
X405500Y37900D01*
X407974D01*
Y37504D01*
G03Y33896I5J-1804D01*
G01Y31239D01*
X398061Y21326D01*
X389472D01*
G02X389110Y22171I1J500D01*
G03X389240Y22318I-2032J1928D01*
G02X389911Y22411I386J-318D01*
G03X391079Y22046I1169J1689D01*
G03X391395Y22071I-3J2054D01*
G01X391415Y22074D01*
X396779D01*
G03Y26126I0J2026D01*
G01X391415D01*
X391395Y26129D01*
G03X391079Y26154I-319J-2029D01*
G03X389911Y25789I1J-2054D01*
G02X389240Y25882I-285J411D01*
G03X387079Y26902I-2162J-1781D01*
G01X381879D01*
G03Y21298I0J-2802D01*
G01X382721D01*
Y20920D01*
X382617Y20846D01*
G03X381774Y19202I1184J-1645D01*
G01Y19200D01*
G03X383119Y17291I2027J0D01*
G01X383285Y17056D01*
X383226Y16895D01*
G03X383151Y16802I1950J-1649D01*
G01X381200D01*
G03Y11198I0J-2802D01*
G01X383151D01*
G03X385179Y10196I2028J1551D01*
G03X387404Y11498I-1J2554D01*
G01X390554D01*
G03X392779Y10196I2226J1252D01*
G03X395155Y11815I0J2553D01*
G01X395218Y11974D01*
X396579D01*
G03Y16026I0J2026D01*
G01X395218D01*
X395155Y16185D01*
G03X394992Y16524I-2377J-934D01*
G02X395425Y17274I433J250D01*
G01X398901D01*
G03X400333Y17867I0J2026D01*
G01X411433Y28967D01*
G03X412026Y30399I-1433J1432D01*
G01Y110401D01*
G03X411433Y111833I-2026J0D01*
G01X392472Y130793D01*
Y141197D01*
X392598Y141269D01*
G03X393000Y141965I-402J696D01*
G01Y145065D01*
G03X392198Y145868I-803J0D01*
G01X389726D01*
Y152401D01*
G03X389133Y153833I-2026J0D01*
G01X386636Y156330D01*
G02X386758Y157127I353J354D01*
G03X388804Y160500I-1757J3373D01*
G03X381196I-3804J0D01*
G03X382250Y157872I3803J0D01*
G02X381889Y157026I-361J-346D01*
G01X381339D01*
X378711Y159655D01*
X378736Y159785D01*
G03X378804Y160500I-3736J716D01*
G03X375000Y156696I-3804J0D01*
G03X375715Y156764I-1J3804D01*
G01X375845Y156789D01*
X379067Y153567D01*
G03X380500Y152974I1432J1433D01*
G01X380510D01*
G02X380981Y152301I2J-500D01*
G03X380856Y151600I1903J-701D01*
G03X380872Y151353I2027J7D01*
G01X380874Y151338D01*
Y150457D01*
X380868Y150430D01*
G03X380820Y150020I1978J-439D01*
G03X380292Y149265I276J-755D01*
G01Y146165D01*
G03X381094Y145362I803J0D01*
G01X384597D01*
G03X384952Y145445I-1J803D01*
G02X385674Y144997I222J-448D01*
G01Y138711D01*
X385462Y138500D01*
X376972D01*
Y141697D01*
X377098Y141769D01*
G03X377500Y142465I-402J696D01*
G01Y145565D01*
G03X376698Y146368I-803J0D01*
G01X373196D01*
G03X372392Y145565I0J-804D01*
G01Y142465D01*
G03X372794Y141769I804J0D01*
G01X372920Y141697D01*
Y138500D01*
X368466D01*
X354033Y152933D01*
G03X352601Y153526I-1432J-1433D01*
G01X205549D01*
G03X204117Y152933I0J-2026D01*
G01X203667Y152483D01*
G03X203137Y151552I1433J-1432D01*
G01X203120Y151486D01*
X199767Y148133D01*
G03X199180Y146857I1433J-1432D01*
G01X199162Y146626D01*
X141099D01*
G03X139667Y146033I0J-2026D01*
G01X130267Y136633D01*
G03X129674Y135201I1433J-1432D01*
G01Y100967D01*
X128180Y99474D01*
G02X127326Y99827I-354J353D01*
G01Y107412D01*
G03Y110988I-235J1788D01*
G01Y138461D01*
X141033Y152167D01*
G03X141626Y153599I-1433J1432D01*
G01Y158781D01*
X144112Y161266D01*
G03X144567Y161963I-1433J1433D01*
G03X144856Y163005I-1738J1043D01*
G01Y184135D01*
G03X144262Y185568I-2027J-1D01*
G01X144251Y185579D01*
X144243Y185588D01*
G03X144112Y185733I-1567J-1284D01*
G01X140526Y189319D01*
Y197121D01*
G03X139932Y198554I-2027J-1D01*
G01X136131Y202355D01*
X136162Y202490D01*
G03X136267Y203406I-3949J917D01*
G01Y203407D01*
G03X132213Y199353I-4054J0D01*
G01X132214D01*
G03X133130Y199458I-1J4054D01*
G01X133265Y199489D01*
X136472Y196282D01*
Y193220D01*
G02X135619Y192867I-500J1D01*
G01X127600Y200886D01*
Y211474D01*
X218000D01*
Y199400D01*
X221596D01*
G03X222213Y199353I616J4007D01*
G03X222830Y199400I1J4054D01*
G01X231596D01*
G03X232213Y199353I616J4007D01*
G03X232830Y199400I1J4054D01*
G01X241596D01*
G03X242213Y199353I616J4007D01*
G03X242830Y199400I1J4054D01*
G01X251596D01*
G03X252210Y199353I616J4007D01*
G01X252213D01*
G03Y207461I0J4054D01*
G03X252112Y207460I-10J-4054D01*
G02X251600Y207959I-12J500D01*
G01Y218721D01*
X295632D01*
Y213802D01*
G03X301538I2953J0D01*
G01Y218721D01*
X329648D01*
Y213802D01*
G03X335554I2953J0D01*
G01Y218721D01*
X397114D01*
G02X397535Y217952I0J-500D01*
G03X395568Y211221I10536J-6732D01*
G03X408071Y198718I12503J0D01*
G03X414802Y200685I-1J12503D01*
G02X415571Y200264I269J-421D01*
G01Y10957D01*
G02X414802Y10536I-500J0D01*
G03X408073Y12502I-6730J-10536D01*
G01X408071D01*
G03X395568Y0I0J-12503D01*
G03X397535Y-6731I12503J1D01*
G02X397114Y-7500I-421J-269D01*
G01X364857D01*
G02X364695Y-6527I0J500D01*
G03X373209Y5395I-4090J11922D01*
G03X348001I-12604J0D01*
G03X356515Y-6527I12604J0D01*
G02X356353Y-7500I-162J-473D01*
G01X188518D01*
G02X188356Y-6527I0J500D01*
G03X196870Y5395I-4090J11922D01*
G03X171662I-12604J0D01*
G03X180176Y-6527I12604J0D01*
G02X180014Y-7500I-162J-473D01*
G01X10957D01*
G02X10536Y-6731I0J500D01*
G03X12502Y-2I-10536J6730D01*
G01Y0D01*
G03X0Y12502I-12502J0D01*
G01X-2D01*
G03X-6731Y10536I1J-12502D01*
G02X-7500Y10957I-269J421D01*
G01Y164044D01*
G02X-6731Y164465I500J0D01*
G03X0Y162498I6732J10536D01*
G03Y187504I0J12503D01*
G03X-6731Y185537I1J-12503D01*
G02X-7500Y185958I-269J421D01*
G01Y218721D01*
X18228D01*
G02X18581Y217867I-1J-500D01*
G01X10146Y209433D01*
G03X9552Y208000I1433J-1434D01*
G01Y200000D01*
G03X10146Y198567I2027J1D01*
G01X11246Y197467D01*
G03X12678Y196874I1432J1433D01*
G01X15040D01*
X17802Y194111D01*
Y157650D01*
G03X18396Y156217I2027J1D01*
G01X20256Y154357D01*
Y149685D01*
G03X21256Y147938I2026J0D01*
G01Y142185D01*
G03X25310I2027J0D01*
G01Y143659D01*
X25509Y143700D01*
G03X27126Y145685I-410J1985D01*
G01Y146572D01*
G03X27726Y148011I-1426J1439D01*
G01Y154980D01*
G03X27133Y156412I-2026J0D01*
G01X24264Y159280D01*
Y199090D01*
G02X24923Y199564I500J0D01*
G03X26213Y199353I1291J3843D01*
G03X30267Y203407I0J4054D01*
G03X28240Y206918I-4054J0D01*
G01Y209274D01*
X28839Y209874D01*
X55800D01*
Y207446D01*
X55589Y207413D01*
G03X52159Y203407I624J-4006D01*
G03X54186Y199896I4054J0D01*
G01Y176770D01*
X48350Y170934D01*
G03X47756Y169501I1433J-1434D01*
G01Y153740D01*
X42067Y148051D01*
G03X41474Y146619I1433J-1432D01*
G01Y69185D01*
G03X42759Y67299I2027J0D01*
G02X42929Y66480I-183J-465D01*
G01X42067Y65618D01*
G03X41474Y64186I1433J-1432D01*
G01Y64185D01*
G03X43500Y62158I2027J0D01*
G03X44933Y62752I-1J2027D01*
G01X47493Y65312D01*
X47640Y65263D01*
G03X48283Y65158I644J1922D01*
G03X49716Y65752I-1J2027D01*
G01X51716Y67752D01*
G03X52310Y69185I-1433J1434D01*
G01Y144346D01*
X54659Y146695D01*
X57871Y143484D01*
X64738D01*
X67028Y145773D01*
Y153316D01*
X67484Y153773D01*
Y154182D01*
X67786D01*
Y158484D01*
X78781D01*
X80228Y159931D01*
G02X81082Y159578I354J-354D01*
G01Y145773D01*
X83371Y143484D01*
X90695D01*
X92984Y145773D01*
Y157484D01*
X122695D01*
X125484Y160273D01*
Y166386D01*
G02X126183Y166845I500J0D01*
G03X126900Y166696I718J1655D01*
G03X128704Y168500I0J1804D01*
G03X128026Y169909I-1803J0D01*
G02Y170691I312J391D01*
G03X128704Y172100I-1125J1409D01*
G03X126900Y173904I-1804J0D01*
G03X125830Y173552I1J-1804D01*
G01X125657Y173425D01*
X121695Y177386D01*
X93600D01*
Y177500D01*
X88200D01*
Y190800D01*
X98056D01*
G03X99298Y190374I1243J1600D01*
G01X119461D01*
X132512Y177322D01*
Y174391D01*
G02X131858Y173916I-500J0D01*
G03X131303Y174004I-557J-1716D01*
G01X131300D01*
G03X129496Y172200I0J-1804D01*
G03X130214Y170759I1805J0D01*
G02X130236Y169978I-301J-399D01*
G03X129596Y168600I1164J-1378D01*
G03X131400Y166796I1804J0D01*
G03X131880Y166861I0J1805D01*
G02X132512Y166379I132J-482D01*
G01Y159878D01*
X117367Y144733D01*
G37*
G36*
G01X70342Y180685D02*
X84283D01*
X85783Y179185D01*
Y168685D01*
X78783Y161685D01*
Y161599D01*
X77869Y160685D01*
X68697D01*
X67786Y161597D01*
Y164688D01*
X67783D01*
Y178126D01*
X70342Y180685D01*
G37*
G36*
G01X64179Y168300D02*
X65283Y167196D01*
Y154685D01*
X64826Y154228D01*
Y146685D01*
X63826Y145685D01*
X58783D01*
X57283Y147185D01*
Y166604D01*
X58979Y168300D01*
X64179D01*
G37*
G36*
G01X94464Y175185D02*
X120783D01*
X123283Y172685D01*
Y161185D01*
X121783Y159685D01*
X93783D01*
X92786Y160683D01*
Y163688D01*
X92783D01*
Y173504D01*
X94464Y175185D01*
G37*
G36*
G01X86511Y166300D02*
X89879D01*
X90567Y165612D01*
Y163488D01*
X90582Y163473D01*
Y159773D01*
X90783Y159572D01*
Y157188D01*
X90780D01*
Y153182D01*
X90783D01*
Y146685D01*
X89783Y145685D01*
X84283D01*
X83283Y146685D01*
Y163072D01*
X86511Y166300D01*
G37*
G36*
G01X141739Y137874D02*
X163100D01*
Y128427D01*
X163097Y128408D01*
G03X163074Y128100I2003J-304D01*
G01Y62539D01*
X148261Y47726D01*
X114600D01*
G02X114247Y48580I0J500D01*
G01X121233Y55566D01*
G03X121826Y56999I-1433J1432D01*
G01Y68761D01*
X123678Y70612D01*
G02X124524Y70172I354J-353D01*
G03X124482Y69685I2759J-483D01*
G01Y66913D01*
X124351Y66842D01*
G03X123930Y66135I383J-707D01*
G01Y60235D01*
G03X124733Y59432I803J0D01*
G01X129833D01*
G03X130603Y60004I0J804D01*
G01X130656Y60182D01*
X132086D01*
Y66188D01*
X130656D01*
X130603Y66366D01*
G03X130215Y66842I-770J-231D01*
G01X130084Y66913D01*
Y69685D01*
G03X127283Y72486I-2801J0D01*
G03X126614Y72406I-4J-2802D01*
G02X126051Y73120I-119J485D01*
G03X126276Y74050I-1801J928D01*
G01Y84145D01*
G02X127130Y84498I500J0D01*
G01X130850Y80778D01*
G03X132283Y80184I1434J1433D01*
G03X134310Y82211I0J2027D01*
G03X133716Y83644I-2027J-1D01*
G01X129945Y87415D01*
G02X129979Y88153I354J353D01*
G03X130116Y88278I-1296J1558D01*
G01X135333Y93495D01*
G03X135926Y94928I-1433J1432D01*
G01Y132061D01*
X141739Y137874D01*
G37*
G36*
G01X182900Y95500D02*
X193900D01*
X195100Y94300D01*
Y56600D01*
X204800Y46900D01*
X213500D01*
X214700Y48100D01*
Y55500D01*
X217000Y57800D01*
X228400D01*
X231900Y54300D01*
Y21700D01*
X229100Y18900D01*
X192100D01*
X178700Y32300D01*
Y91300D01*
X182900Y95500D01*
G37*
G36*
G01X200700Y126500D02*
Y112800D01*
X199900Y112000D01*
X183900D01*
X183600Y112300D01*
Y117200D01*
X187000Y120600D01*
Y128300D01*
X188700Y130000D01*
X197200D01*
X200700Y126500D01*
G37*
G36*
G01X345466Y126600D02*
X365434D01*
X369974Y122061D01*
Y118826D01*
G02X369272Y118368I-500J0D01*
G03X367739Y118691I-1534J-3481D01*
G03Y111083I0J-3804D01*
G03X369272Y111406I-1J3804D01*
G02X369974Y110948I202J-458D01*
G01Y109987D01*
X368584Y108598D01*
X368454Y108623D01*
G03X367739Y108691I-716J-3736D01*
G03X371543Y104887I0J-3804D01*
G03X371475Y105602I-3804J-1D01*
G01X371450Y105732D01*
X373433Y107715D01*
G03X374026Y109148I-1433J1432D01*
G01Y112023D01*
G02X374900Y112355I500J0D01*
G03X377739Y111083I2839J2532D01*
G03X381543Y114887I0J3804D01*
G03X379766Y118106I-3804J0D01*
G01Y119161D01*
G03X379172Y120594I-2027J-1D01*
G01X376446Y123320D01*
G02X376799Y124174I353J354D01*
G01X384217D01*
X396652Y111738D01*
Y83226D01*
X392555D01*
G03X391961Y83137I0J-2027D01*
G01X391925Y83126D01*
X390815D01*
X390795Y83129D01*
G03X390479Y83154I-319J-2029D01*
G03X389311Y82789I1J-2054D01*
G02X388640Y82882I-285J411D01*
G03X386479Y83902I-2162J-1781D01*
G03X384483Y83066I0J-2801D01*
G02X383626Y83416I-357J350D01*
G01Y88200D01*
G03X383033Y89633I-2026J1D01*
G01X375033Y97633D01*
G03X373600Y98226I-1432J-1433D01*
G01X344099D01*
G02X343746Y99080I0J500D01*
G01X344333Y99667D01*
G03X344926Y101100I-1433J1432D01*
G01Y101257D01*
G02X345695Y101679I500J0D01*
G03X347739Y101083I2044J3207D01*
G03Y108691I0J3804D01*
G03X345695Y108095I0J-3803D01*
G02X344926Y108517I-269J422D01*
G01Y111257D01*
G02X345695Y111679I500J0D01*
G03X347739Y111083I2044J3207D01*
G03Y118691I0J3804D01*
G03X345695Y118095I0J-3803D01*
G02X344926Y118517I-269J422D01*
G01Y126061D01*
X345466Y126600D01*
G37*
%LPC*%
G75*
G36*
G01X265180Y56488D02*
X265198D01*
Y58482D01*
X265180D01*
Y62488D01*
X265198D01*
Y75012D01*
X267688Y77502D01*
X270976D01*
G03X271211Y78443I0J500D01*
G02X269196Y81800I1789J3357D01*
G02X276804I3804J0D01*
G02X274789Y78443I-3804J0D01*
G03X275024Y77502I235J-441D01*
G01X278970D01*
G03X279365Y78308I0J500D01*
G02X279196Y78800I635J493D01*
G01Y84800D01*
G02X280000Y85604I804J0D01*
G01X286000D01*
G02X286804Y84800I0J-804D01*
G01Y78800D01*
G02X286635Y78308I-804J1D01*
G03X287030Y77502I395J-306D01*
G01X298412D01*
X302102Y73812D01*
Y61588D01*
X294612Y54098D01*
X280302D01*
Y50434D01*
G02X279884Y48963I-2802J1D01*
G01Y47517D01*
G02X274282I-2801J0D01*
G01Y50017D01*
G02X274311Y50423I2801J4D01*
G03X273463Y50850I-495J73D01*
G01X272812Y50198D01*
X267388D01*
X265198Y52388D01*
Y52482D01*
X265180D01*
Y56488D01*
G37*
G36*
G01X309378Y175598D02*
X303488D01*
X301398Y177688D01*
Y186612D01*
X306388Y191602D01*
X313012D01*
X316102Y188512D01*
Y182322D01*
G03X316955Y181968I500J0D01*
G01X317788Y182802D01*
X337812D01*
X340202Y180412D01*
Y170888D01*
X334612Y165298D01*
X318312D01*
X309812Y156798D01*
X296988D01*
X294198Y159588D01*
Y169412D01*
X296688Y171902D01*
X297982D01*
G02X301584I1801J-111D01*
G01X306888D01*
X309732Y174745D01*
G03X309378Y175598I-354J353D01*
G37*
G36*
G01X208160Y200157D02*
Y206657D01*
G02X208963Y207460I803J0D01*
G01X215463D01*
G02X216266Y206657I0J-803D01*
G01Y200157D01*
G02X215463Y199354I-803J0D01*
G01X208963D01*
G02X208160Y200157I0J803D01*
G37*
G36*
G01X115480Y179185D02*
Y185185D01*
G02X116283Y185988I803J0D01*
G01X122283D01*
G02X123086Y185185I0J-803D01*
G01Y179185D01*
G02X122283Y178382I-803J0D01*
G01X116283D01*
G02X115480Y179185I0J803D01*
G37*
G36*
G01X39980Y185685D02*
Y191685D01*
G02X40783Y192488I803J0D01*
G01X46783D01*
G02X47586Y191685I0J-803D01*
G01Y185685D01*
G02X46783Y184882I-803J0D01*
G01X40783D01*
G02X39980Y185685I0J803D01*
G37*
G36*
G01X-6424Y144385D02*
Y150985D01*
G02X-5621Y151788I803J0D01*
G01X979D01*
G02X1782Y150985I0J-803D01*
G01Y144385D01*
G02X979Y143582I-803J0D01*
G01X-5621D01*
G02X-6424Y144385I0J803D01*
G37*
G36*
G01X183936Y101887D02*
Y107887D01*
G02X184739Y108690I803J0D01*
G01X190739D01*
G02X191542Y107887I0J-803D01*
G01Y101887D01*
G02X190739Y101084I-803J0D01*
G01X184739D01*
G02X183936Y101887I0J803D01*
G37*
G36*
G01X225282Y64685D02*
Y70685D01*
G02X226085Y71488I803J0D01*
G01X232085D01*
G02X232888Y70685I0J-803D01*
G01Y64685D01*
G02X232085Y63882I-803J0D01*
G01X226085D01*
G02X225282Y64685I0J803D01*
G37*
G36*
G01X-6424Y72300D02*
Y78900D01*
G02X-5621Y79704I803J1D01*
G01X979D01*
G02X1782Y78900I-1J-804D01*
G01Y72300D01*
G02X979Y71496I-803J-1D01*
G01X-5621D01*
G02X-6424Y72300I1J804D01*
G37*
G36*
G01X48160Y10157D02*
Y16657D01*
G02X48963Y17460I803J0D01*
G01X55463D01*
G02X56266Y16657I0J-803D01*
G01Y10157D01*
G02X55463Y9354I-803J0D01*
G01X48963D01*
G02X48160Y10157I0J803D01*
G37*
G36*
G01X377280Y585D02*
G02X383783Y7088I6503J0D01*
G01X384026D01*
Y7083D01*
G02X377280Y585I-243J-6498D01*
G37*
G36*
G01X14367Y23502D02*
X14722D01*
Y23498D01*
G02X7976Y17000I-243J-6498D01*
G02X14367Y23502I6503J0D01*
G37*
G36*
G01X78806Y5300D02*
G02X78212Y3867I-2027J1D01*
G01X76412Y2067D01*
G02X74980Y1474I-1432J1433D01*
G01X37412D01*
X35586Y-352D01*
Y-4290D01*
G02X34783Y-5094I-803J-1D01*
G01X28783D01*
G02X27980Y-4290I1J804D01*
G01Y1710D01*
G02X28783Y2514I803J1D01*
G01X32721D01*
X35140Y4933D01*
G02X36572Y5526I1432J-1433D01*
G01X74140D01*
X74752Y6139D01*
Y9335D01*
G03X74029Y9782I-500J0D01*
G02X72215Y9353I-1815J3625D01*
G01X72213D01*
G02Y17461I0J4054D01*
G01X72219D01*
G02X72618Y17441I-3J-4054D01*
G03X73021Y18292I50J497D01*
G01X70467Y20846D01*
G02X69874Y22278I1433J1432D01*
G01Y64601D01*
G02X70467Y66033I2026J0D01*
G01X75667Y71233D01*
G02X77099Y71826I1432J-1433D01*
G01X77100D01*
G02X79126Y69800I0J-2026D01*
G01Y69799D01*
G02X78533Y68367I-2026J0D01*
G01X73926Y63761D01*
Y23118D01*
X78212Y18833D01*
G02X78806Y17400I-1432J-1433D01*
G01Y16912D01*
G03X79625Y16527I500J0D01*
G02X82213Y17461I2588J-3120D01*
G02Y9353I0J-4054D01*
G02X79625Y10287I0J4054D01*
G03X78806Y9902I-319J-385D01*
G01Y5300D01*
G37*
G36*
G01X368312Y47998D02*
X366522D01*
G03X366168Y47145I0J-500D01*
G01X366502Y46812D01*
Y29688D01*
X363312Y26498D01*
X354888D01*
X353098Y28288D01*
Y38388D01*
X348088Y43398D01*
X336688D01*
X334498Y45588D01*
Y49712D01*
X336000Y51213D01*
Y52787D01*
X335998Y52788D01*
Y56812D01*
X337788Y58602D01*
X352600D01*
Y65100D01*
X352698D01*
Y69088D01*
X349088Y72698D01*
X338788D01*
X336998Y74488D01*
Y79612D01*
X337500Y80113D01*
Y81587D01*
X337498Y81588D01*
Y89212D01*
X339188Y90902D01*
X349988D01*
X350888Y91802D01*
X366912D01*
X375602Y83112D01*
Y55288D01*
X368312Y47998D01*
G37*
G36*
G01X97327Y135631D02*
G03Y136391I-326J380D01*
G02X96696Y137761I1172J1370D01*
G02X100304I1804J0D01*
G02X99673Y136391I-1803J0D01*
G03Y135631I326J-380D01*
G02X100304Y134261I-1172J-1370D01*
G02X96696I-1804J0D01*
G02X97327Y135631I1803J0D01*
G37*
G36*
G01X60582Y124273D02*
Y129573D01*
G03X59823Y130001I-500J0D01*
G02X58502Y129632I-1322J2184D01*
G01X58500D01*
G02X56185Y131107I0J2554D01*
G02X55698Y132685I2315J1579D01*
G01Y137468D01*
G02X61302I2802J0D01*
G01Y136920D01*
G03X61728Y136744I250J1D01*
G01X63871Y138886D01*
X76195D01*
X78484Y136597D01*
Y130597D01*
X78984Y130097D01*
Y127688D01*
X79286D01*
Y123682D01*
X78984D01*
Y123273D01*
X76195Y120484D01*
X64371D01*
X60582Y124273D01*
G37*
G36*
G01X408526Y142915D02*
G02X404474I-2026J0D01*
G01Y144462D01*
X403747Y145188D01*
X400743D01*
G02X400098Y144862I-646J477D01*
G01X396594D01*
G02X395792Y145665I1J803D01*
G01Y148765D01*
G02X396596Y149568I804J-1D01*
G01X400098D01*
G02X400743Y149242I-1J-803D01*
G01X404586D01*
G02X406019Y148648I-1J-2027D01*
G01X407933Y146734D01*
G02X408526Y145302I-1433J-1432D01*
G01Y142915D01*
G37*
G36*
G01X-6224Y197600D02*
G02X132Y204101I6503J0D01*
G01X167Y204102D01*
X522D01*
Y204098D01*
G02X-6224Y197600I-243J-6498D01*
G37*
G36*
G01X128783Y29986D02*
X130784D01*
G02X132764Y29166I0J-2801D01*
G01X134264Y27666D01*
G02X134879Y26738I-1981J-1981D01*
G03X135763Y26657I463J189D01*
G02X137283Y27489I1520J-972D01*
G02Y23881I0J-1804D01*
G02X135763Y24713I0J1804D01*
G03X134879Y24632I-421J-270D01*
G02X132283Y22884I-2596J1054D01*
G01X132282D01*
G02X130302Y23704I0J2801D01*
G01X129623Y24384D01*
X128783D01*
G02X126622Y25403I0J2801D01*
G03X125951Y25496I-386J-318D01*
G02X124783Y25131I-1169J1689D01*
G02X124467Y25156I3J2054D01*
G01X124447Y25158D01*
X121783D01*
G02Y29212I0J2027D01*
G01X124447D01*
X124467Y29214D01*
G02X124783Y29239I319J-2029D01*
G02X125951Y28874I-1J-2054D01*
G03X126622Y28967I285J411D01*
G02X128783Y29986I2161J-1782D01*
G37*
G36*
G01X142708Y121162D02*
G03X142193Y121720I-496J59D01*
G02X142125Y121719I-61J1803D01*
G02X143929Y123523I0J1804D01*
G02X143917Y123312I-1804J-3D01*
G03X144432Y122754I496J-59D01*
G02X144500Y122755I61J-1803D01*
G02X142696Y120951I0J-1804D01*
G02X142708Y121162I1804J3D01*
G37*
G36*
G01X138879Y130849D02*
G02X137996Y132400I921J1551D01*
G02X141604I1804J0D01*
G02X140799Y130898I-1804J0D01*
G03X140821Y130051I277J-417D01*
G02X141704Y128500I-921J-1551D01*
G02X138096I-1804J0D01*
G02X138901Y130002I1804J0D01*
G03X138879Y130849I-277J417D01*
G37*
G36*
G01X142957Y131128D02*
G02X142196Y132600I1043J1472D01*
G02X144000Y134404I1804J0D01*
G02X145566Y133496I0J-1804D01*
G03X146434I434J248D01*
G02X148000Y134404I1566J-896D01*
G02X149804Y132600I0J-1804D01*
G02X149035Y131122I-1805J0D01*
G03X149013Y130320I287J-409D01*
G02X149704Y128900I-1114J-1420D01*
G02X147900Y127096I-1804J0D01*
G02X146422Y127865I0J1805D01*
G03X145620Y127887I-409J-287D01*
G02X144200Y127196I-1420J1114D01*
G02X142396Y129000I0J1804D01*
G02X143000Y130347I1804J0D01*
G03X142957Y131128I-332J373D01*
G37*
G36*
G01X217911Y34390D02*
G02X217271Y35768I1164J1378D01*
G02X220879I1804J0D01*
G02X220161Y34327I-1805J0D01*
G03X220139Y33546I301J-399D01*
G02X220453Y33203I-1163J-1380D01*
G03X221255Y33181I409J287D01*
G02X222675Y33872I1420J-1114D01*
G02Y30264I0J-1804D01*
G02X221197Y31033I0J1805D01*
G03X220395Y31055I-409J-287D01*
G02X218975Y30364I-1420J1114D01*
G02X217171Y32168I0J1804D01*
G02X217889Y33609I1805J0D01*
G03X217911Y34390I-301J399D01*
G37*
G54D37*
X147283Y25685D03*
Y69685D03*
X142000Y94300D03*
X141783Y89711D03*
X151011Y87917D03*
X155600Y87700D03*
X188600Y71900D03*
G54D36*
X62213Y13407D03*
X92213D03*
X122213D03*
X36213Y203407D03*
X162213D03*
X152213D03*
X142213D03*
X192213D03*
X182213D03*
X172213D03*
X282213D03*
X272213D03*
X262213D03*
G54D38*
X-2321Y95600D03*
Y85600D03*
Y135600D03*
Y125600D03*
Y115600D03*
G54D35*
X31783Y8710D03*
Y18710D03*
X229085Y77685D03*
X255400Y86730D03*
X207739Y114887D03*
X217739D03*
X227739D03*
X237739D03*
X247739D03*
X257739D03*
X267739D03*
X277739D03*
X287739D03*
X297739D03*
X307739D03*
X335000Y160500D03*
X345000D03*
X355000D03*
X365000D03*
X395000D03*
X33783Y188685D03*
X157500Y81880D03*
X357739Y104887D03*
Y114887D03*
G54D39*
X201650Y175000D03*
G54D34*
X332601Y195650D03*
X298585D03*
%LPD*%
G75*
G36*
G01X62783Y125185D02*
Y134685D01*
X64783Y136685D01*
X75283D01*
X76283Y135685D01*
Y129685D01*
X76783Y129185D01*
Y124185D01*
X75283Y122685D01*
X65283D01*
X62783Y125185D01*
G37*
G36*
G01X299900Y72900D02*
Y62500D01*
X293700Y56300D01*
X275800D01*
X271900Y52400D01*
X268300D01*
X267400Y53300D01*
Y74100D01*
X268600Y75300D01*
X297500D01*
X299900Y72900D01*
G37*
G36*
G01X318700Y180600D02*
X335571D01*
X335630Y180566D01*
G03X335883Y180498I252J434D01*
G01X337002D01*
X338000Y179500D01*
Y171800D01*
X333700Y167500D01*
X317400D01*
X308900Y159000D01*
X297900D01*
X296400Y160500D01*
Y168500D01*
X297600Y169700D01*
X307800D01*
X313698Y175598D01*
X313812D01*
X316102Y177888D01*
Y178002D01*
X318700Y180600D01*
G37*
G36*
G01X303600Y185700D02*
X307300Y189400D01*
X312100D01*
X313900Y187600D01*
Y178800D01*
X312900Y177800D01*
X304400D01*
X303600Y178600D01*
Y185700D01*
G37*
G36*
G01X337300Y49400D02*
X349187D01*
X350588Y47998D01*
X350702D01*
X351800Y46900D01*
X363300D01*
X364300Y45900D01*
Y30600D01*
X362400Y28700D01*
X355800D01*
X355300Y29200D01*
Y39300D01*
X349000Y45600D01*
X348702D01*
Y45702D01*
X344698D01*
Y45600D01*
X342186D01*
Y45702D01*
X338180D01*
Y45600D01*
X337600D01*
X336700Y46500D01*
Y48800D01*
X337300Y49400D01*
G37*
G36*
G01X339200Y78700D02*
X339800Y79300D01*
X357700D01*
X359400Y77600D01*
Y64900D01*
X358900Y64400D01*
X356500D01*
X354900Y66000D01*
Y70000D01*
X350000Y74900D01*
X339700D01*
X339200Y75400D01*
Y78700D01*
G37*
G36*
G01X351800Y89600D02*
X366000D01*
X373400Y82200D01*
Y56200D01*
X367400Y50200D01*
X351500D01*
X349000Y52700D01*
X339200D01*
X338200Y53700D01*
Y55900D01*
X338700Y56400D01*
X357800D01*
X361600Y60200D01*
Y63987D01*
X361602Y63988D01*
Y78512D01*
X361600Y78513D01*
Y81100D01*
X360500Y82200D01*
X340000D01*
X339700Y82500D01*
Y88300D01*
X340100Y88700D01*
X344702D01*
Y88698D01*
X348708D01*
Y88700D01*
X350900D01*
X351800Y89600D01*
G37*
G54D10*
G01X385462Y-243315D02*
Y-343315D01*
X-14538D01*
G01D02*
Y-243315D01*
X385462D01*
G01X58500Y132685D02*
Y137468D01*
G01X128783Y27185D02*
X130783D01*
X132283Y25685D01*
G01X127283Y63185D02*
Y69685D01*
G01X134883Y63185D02*
Y68085D01*
X133283Y69685D01*
G01X277083Y47517D02*
Y50017D01*
X277500Y50434D01*
Y53585D01*
G01X385179Y14000D02*
X381200D01*
G01X385879Y41300D02*
Y37550D01*
G01X384079Y49100D02*
Y51329D01*
X386000Y53250D01*
G01X387079Y24100D02*
X381879D01*
G01X386479Y81100D02*
Y76979D01*
X386400Y76900D01*
G01X385879Y57000D02*
Y60900D01*
G01X386579Y64700D02*
Y68600D01*
X-133156Y105159D03*
X-61406Y105900D03*
X-53906D03*
X11479Y75400D03*
X7279Y79000D03*
X12579Y79800D03*
X16979Y79400D03*
X15779Y75700D03*
X6079Y73800D03*
X2679Y100700D03*
X4279Y104900D03*
X8079Y104000D03*
X12379Y103700D03*
X16779D03*
X14479Y100800D03*
X9879Y100700D03*
X6179Y100800D03*
X3779Y93600D03*
X8679Y93800D03*
X13379D03*
X17979D03*
X15479Y90700D03*
X10679D03*
X5879D03*
X4779Y83400D03*
X8679Y83500D03*
X13479Y83400D03*
X17579Y83500D03*
X7579Y115800D03*
X11779Y114400D03*
X16521Y114248D03*
X5079Y124900D03*
X8579Y123200D03*
X12879Y121700D03*
X17779Y121200D03*
X5679Y129300D03*
X9479Y127200D03*
X12379Y130100D03*
X14279Y125400D03*
X17679Y129100D03*
X14066Y111750D03*
X19429Y112299D03*
X8866Y112458D03*
X4179Y114900D03*
X33283Y77211D03*
X48500Y63468D03*
X43500Y64185D03*
X48283Y72211D03*
X43500Y69185D03*
X48283Y67185D03*
X22479Y93900D03*
X20479Y90800D03*
X23250Y102211D03*
X21400Y83600D03*
X21283Y127211D03*
X23250Y112211D03*
X20479Y123800D03*
X23283Y142185D03*
X22283Y149685D03*
X25100Y145685D03*
X69283Y33185D03*
X61783D03*
X78500Y63468D03*
X77100Y69800D03*
X66583Y96994D03*
X71583D03*
X61583D03*
Y101994D03*
X71583D03*
X66583D03*
X61583Y91994D03*
X71583D03*
X66583D03*
X71283Y134685D03*
X71783Y130185D03*
Y125685D03*
X67783D03*
Y130185D03*
X53500Y137468D03*
X58500D03*
X68500Y150685D03*
X72000Y151385D03*
X76181Y151460D03*
Y147760D03*
X72000Y147685D03*
X75283Y167685D03*
X62283Y150685D03*
X58283D03*
X60283Y147785D03*
X53183Y193785D03*
Y188785D03*
X75283Y171685D03*
X107383Y39185D03*
X98500Y51185D03*
X94800D03*
X83500D03*
X88500D03*
X103500D03*
X107809Y112211D03*
X82283Y134685D03*
X84783Y130685D03*
Y125685D03*
X98500Y137761D03*
Y134261D03*
X88500Y150568D03*
X84783Y151685D03*
Y148185D03*
X94283Y150685D03*
X98783Y151685D03*
X102783D03*
Y148185D03*
X98783D03*
X79283Y167685D03*
X93783Y189185D03*
Y183685D03*
X88783D03*
Y189185D03*
X79283Y171685D03*
X121783Y27185D03*
X132283Y25685D03*
X137283D03*
X126783Y36685D03*
X127283Y69685D03*
X137283D03*
X133283D03*
X120283Y77211D03*
X127090Y109200D03*
X118800Y87211D03*
X132283Y82211D03*
X128783Y97211D03*
X128683Y89711D03*
X114783Y165685D03*
X118783D03*
Y161685D03*
X114783D03*
X134400Y196300D03*
X126900Y168500D03*
Y172100D03*
X131400Y168600D03*
X131300Y172200D03*
X114900Y203000D03*
X159383Y13785D03*
X147283Y25685D03*
X142283Y36685D03*
X147283D03*
X142283Y25685D03*
X147283Y69685D03*
X142283D03*
X142000Y94300D03*
X141783Y89711D03*
X151011Y87917D03*
X155600Y87700D03*
X140300Y105000D03*
X139800Y132400D03*
X144200Y129000D03*
X139900Y128500D03*
X144000Y132600D03*
X148000D03*
X147900Y128900D03*
X144500Y120951D03*
X142125Y123523D03*
X139300Y163300D03*
X141800Y157500D03*
X148800Y181100D03*
X170500Y49200D03*
X188600Y71900D03*
X175992Y77708D03*
X191783Y86685D03*
X192783Y90322D03*
Y94259D03*
X188846D03*
Y90322D03*
X170283Y127585D03*
X173783D03*
X186783Y153085D03*
X170938Y185790D03*
X167438D03*
X222675Y32068D03*
X218975Y32168D03*
X219075Y35768D03*
X197700Y67930D03*
X222183Y89685D03*
X199900Y83400D03*
X222800Y131600D03*
X196300Y127900D03*
X201200Y146700D03*
X221400Y147000D03*
X237575Y19168D03*
X234075D03*
X227679Y20600D03*
X253433Y20635D03*
X248433D03*
Y15635D03*
X253433D03*
X243433Y10635D03*
X248433D03*
X253433D03*
X243433Y5635D03*
X248433D03*
X253433D03*
X243433Y635D03*
X248433D03*
X253433D03*
X243433Y15635D03*
X237575Y22668D03*
X234075D03*
X226079Y39400D03*
X226179Y43000D03*
X227679Y24100D03*
X243433Y25635D03*
X248433D03*
X253433D03*
X243433Y30635D03*
X248433D03*
X253433D03*
X243433Y35635D03*
X248433D03*
X253433D03*
X248433Y40635D03*
X253433D03*
X243433D03*
X225683Y89685D03*
X246083Y87985D03*
Y91985D03*
Y95985D03*
X242083Y87985D03*
Y91985D03*
Y95985D03*
X232283Y160685D03*
X263433Y20635D03*
X273433D03*
X278433D03*
X283433D03*
X278433Y15635D03*
X273433D03*
X283433Y10635D03*
X278433D03*
X273433D03*
X283433Y5635D03*
X278433D03*
X273433D03*
X283433Y635D03*
X278433D03*
X273433D03*
X283433Y15635D03*
X268433Y20635D03*
X258433D03*
Y15635D03*
X263433D03*
X258433Y10635D03*
X263433D03*
X258433Y5635D03*
X263433D03*
X258433Y635D03*
X263433D03*
X268433Y15635D03*
Y10635D03*
Y5635D03*
Y635D03*
X277083Y47517D03*
X273433Y35635D03*
X278433Y40635D03*
X273433D03*
X283433Y25635D03*
X278433D03*
X273433D03*
X283433Y30635D03*
X278433D03*
X273433D03*
X283433Y35635D03*
X278433D03*
X283433Y40635D03*
X268433D03*
X258433Y25635D03*
X263433D03*
X258433Y30635D03*
X263433D03*
X258433Y35635D03*
X263433D03*
X258433Y40635D03*
X263433D03*
X268433Y25635D03*
Y30635D03*
Y35635D03*
X263783Y79485D03*
Y83485D03*
X278700Y126900D03*
X270600Y146400D03*
X280700Y181500D03*
X290908Y71592D03*
X294508D03*
X290908Y67992D03*
X294508D03*
X307700Y146500D03*
X312300Y183900D03*
Y180400D03*
X306179Y173500D03*
X299783Y171791D03*
X302248Y174277D03*
X295783Y171791D03*
X286783Y178485D03*
Y185985D03*
X303782Y190185D03*
X308362Y187092D03*
X333200Y20800D03*
X336900Y92800D03*
X336700Y138500D03*
X328900Y132625D03*
X321718D03*
X340100Y135000D03*
X326000Y138662D03*
X315300Y144100D03*
X329783Y176185D03*
X322783Y176685D03*
X320283Y170685D03*
X314783D03*
X356508Y30692D03*
X360608Y30792D03*
X362208Y37892D03*
Y34392D03*
X356408Y73392D03*
X352808D03*
X356408Y76992D03*
X352808D03*
X356600Y52400D03*
X353100Y55900D03*
X356600D03*
X353100Y52400D03*
X356500Y85100D03*
Y88600D03*
X353000Y85100D03*
Y88600D03*
X359500Y129900D03*
X353100Y129800D03*
X348200Y134700D03*
X343600Y138900D03*
X351783Y198685D03*
X347283D03*
X383800Y19200D03*
X396579Y14000D03*
X381200D03*
X386228Y31100D03*
X399900Y44700D03*
X395779Y49100D03*
X396779Y24100D03*
X395979Y41300D03*
X385879Y37550D03*
X381879Y24100D03*
X386400Y76900D03*
X395779Y64700D03*
X395379Y57000D03*
X385879Y60900D03*
X386000Y53250D03*
X386579Y68600D03*
X396700Y81200D03*
X381600D03*
X382883Y136200D03*
Y151600D03*
X407979Y35700D03*
X405079Y30500D03*
X412079Y29500D03*
X408779Y24300D03*
X404100Y61300D03*
X401100Y52200D03*
X404100Y68500D03*
X406500Y142915D03*
G54D20*
X127283Y63185D03*
X134883D03*
G54D11*
X-107528Y110610D03*
Y100610D03*
Y120610D03*
X-83906Y110610D03*
Y100610D03*
Y120610D03*
X46213Y203407D03*
X36213D03*
X26213D03*
X72213Y13407D03*
X62213D03*
X76213Y203407D03*
X66213D03*
X56213D03*
X102213Y13407D03*
X92213D03*
X82213D03*
X106213Y203407D03*
X96213D03*
X86213D03*
X122213Y13407D03*
X112213D03*
X132213Y203407D03*
X162213D03*
X152213D03*
X142213D03*
X192213D03*
X182213D03*
X172213D03*
X222213D03*
X252213D03*
X242213D03*
X232213D03*
X282213D03*
X272213D03*
X262213D03*
G54D30*
G01X-133156Y105159D02*
Y107526D01*
G02X-132421Y109300I2509J0D01*
G02X-129258Y110610I3163J-3163D01*
G01X-107528D01*
G54D21*
X184266Y5395D03*
X360605D03*
G54D12*
X-107528Y90610D03*
X-83906D03*
X16213Y203407D03*
X52213Y13407D03*
X122213Y203407D03*
X212213D03*
G54D31*
G01X-309796Y204036D02*
X-98217D01*
G02X-95717Y201536I0J-2500D01*
G01Y192885D01*
Y190385D01*
X-93217D01*
X-15000D01*
X-12500D01*
Y192885D01*
Y221221D01*
G02X-10000Y223721I2500J0D01*
G01X418071D01*
G02X420571Y221221I0J-2500D01*
G01Y-10000D01*
G02X418071Y-12500I-2500J0D01*
G01X-10000D01*
G02X-12500Y-10000I0J2500D01*
G01Y18336D01*
Y20836D01*
X-15000D01*
X-93217D01*
X-95717D01*
Y18336D01*
Y9685D01*
G02X-98217Y7185I-2500J0D01*
G01X-309796D01*
G02X-312296Y9685I0J2500D01*
G01Y201536D01*
G02X-309796Y204036I2500J0D01*
G54D13*
X-22606Y75659D03*
X-2321Y75600D03*
Y147685D03*
G54D22*
X308400Y-115D03*
X389384Y206235D03*
G54D32*
G01X-10688Y-333815D02*
X-11315Y-334015D01*
X-11785Y-334515D01*
X-12098Y-335115D01*
X-12333Y-335915D01*
X-12411Y-336815D01*
X-12333Y-337715D01*
X-12098Y-338515D01*
X-11785Y-339115D01*
X-11315Y-339615D01*
X-10688Y-339815D01*
X-10061Y-339615D01*
X-9591Y-339115D01*
X-9278Y-338515D01*
X-9043Y-337715D01*
X-8965Y-336815D01*
X-9043Y-335915D01*
X-9278Y-335115D01*
X-9591Y-334515D01*
X-10061Y-334015D01*
X-10688Y-333815D01*
G01X-4545Y-339815D02*
X-4388Y-338515D01*
X-4153Y-337415D01*
X-3840Y-336415D01*
X-3448Y-335315D01*
X-2821Y-333815D01*
X-5955D01*
G01X-11013Y-330782D02*
X-10546Y-331115D01*
X-10021Y-331315D01*
X-9555D01*
X-9088Y-331115D01*
X-8738Y-330782D01*
X-8563Y-330315D01*
X-8680Y-329848D01*
X-8971Y-329448D01*
X-9496Y-329182D01*
X-10196Y-329048D01*
X-10605Y-328782D01*
X-10780Y-328315D01*
X-10663Y-327848D01*
X-10371Y-327515D01*
X-9963Y-327315D01*
X-9555D01*
X-9146Y-327448D01*
X-8796Y-327782D01*
G01X-6213Y-331315D02*
Y-327315D01*
G01X-3763D02*
Y-331315D01*
G01Y-329315D02*
X-6213D01*
G01X979Y-331315D02*
X-1355D01*
Y-327315D01*
X979D01*
G01X45Y-329248D02*
X-1355D01*
G01X5779Y-331315D02*
X3445D01*
Y-327315D01*
X5779D01*
G01X4845Y-329248D02*
X3445D01*
G01X9412Y-327315D02*
Y-331315D01*
G01X8070Y-327315D02*
X10754D01*
G01X-11246Y-270315D02*
X-9788Y-266315D01*
X-8330Y-270315D01*
G01X-8855Y-268915D02*
X-10721D01*
G01X-6271Y-266315D02*
Y-269182D01*
X-6038Y-269782D01*
X-5571Y-270182D01*
X-4988Y-270315D01*
X-4405Y-270182D01*
X-3938Y-269782D01*
X-3705Y-269182D01*
Y-266315D01*
G01X-1413Y-269782D02*
X-946Y-270115D01*
X-421Y-270315D01*
X45D01*
X512Y-270115D01*
X862Y-269782D01*
X1037Y-269315D01*
X920Y-268848D01*
X629Y-268448D01*
X104Y-268182D01*
X-596Y-268048D01*
X-1005Y-267782D01*
X-1180Y-267315D01*
X-1063Y-266848D01*
X-771Y-266515D01*
X-363Y-266315D01*
X45D01*
X454Y-266448D01*
X804Y-266782D01*
G01X4612Y-266315D02*
Y-270315D01*
G01X3270Y-266315D02*
X5954D01*
G01X8712D02*
X10112D01*
G01X9412D02*
Y-270315D01*
G01X8712D02*
X10112D01*
G01X12870D02*
Y-266315D01*
X15554Y-270315D01*
Y-266315D01*
G01X19012Y-270448D02*
X18895Y-270382D01*
Y-270248D01*
X19012Y-270182D01*
X19129Y-270248D01*
Y-270382D01*
X19012Y-270448D01*
G01X28612Y-266315D02*
Y-270315D01*
G01X27270Y-266315D02*
X29954D01*
G01X34579Y-270315D02*
X32245D01*
Y-266315D01*
X34579D01*
G01X33645Y-268248D02*
X32245D01*
G01X36987Y-270315D02*
X39437Y-266315D01*
G01X36987D02*
X39437Y-270315D01*
G01X41554D02*
X43012Y-266315D01*
X44470Y-270315D01*
G01X43945Y-268915D02*
X42079D01*
G01X46587Y-269782D02*
X47054Y-270115D01*
X47579Y-270315D01*
X48045D01*
X48512Y-270115D01*
X48862Y-269782D01*
X49037Y-269315D01*
X48920Y-268848D01*
X48629Y-268448D01*
X48104Y-268182D01*
X47404Y-268048D01*
X46995Y-267782D01*
X46820Y-267315D01*
X46937Y-266848D01*
X47229Y-266515D01*
X47637Y-266315D01*
X48045D01*
X48454Y-266448D01*
X48804Y-266782D01*
G01X57295Y-270315D02*
X57412Y-269448D01*
X57587Y-268715D01*
X57820Y-268048D01*
X58112Y-267315D01*
X58579Y-266315D01*
X56245D01*
G01X62212Y-270315D02*
X62620Y-270248D01*
X63087Y-270048D01*
X63379Y-269715D01*
X63495Y-269248D01*
X63379Y-268782D01*
X63029Y-268382D01*
X62504Y-268182D01*
X61920D01*
X61570Y-268048D01*
X61279Y-267715D01*
X61162Y-267248D01*
X61337Y-266782D01*
X61745Y-266448D01*
X62212Y-266315D01*
X62679Y-266448D01*
X63087Y-266782D01*
X63262Y-267248D01*
X63145Y-267715D01*
X62854Y-268048D01*
X62504Y-268182D01*
X61920D01*
X61395Y-268382D01*
X61045Y-268782D01*
X60929Y-269248D01*
X61045Y-269715D01*
X61337Y-270048D01*
X61804Y-270248D01*
X62212Y-270315D01*
G01X66895D02*
X67012Y-269448D01*
X67187Y-268715D01*
X67420Y-268048D01*
X67712Y-267315D01*
X68179Y-266315D01*
X65845D01*
G01X70529Y-269515D02*
X70879Y-269982D01*
X71345Y-270248D01*
X71870Y-270315D01*
X72337Y-270248D01*
X72804Y-269915D01*
X73095Y-269515D01*
X73154Y-269115D01*
X73037Y-268648D01*
X72629Y-268315D01*
X72220Y-268182D01*
X71695D01*
G01X72220D02*
X72570Y-267982D01*
X72862Y-267648D01*
X72979Y-267248D01*
X72862Y-266848D01*
X72570Y-266515D01*
X72045Y-266315D01*
X71520Y-266382D01*
X70995Y-266648D01*
G01X75329Y-269715D02*
X75679Y-270048D01*
X76087Y-270248D01*
X76612Y-270315D01*
X77137Y-270182D01*
X77545Y-269915D01*
X77837Y-269448D01*
X77895Y-268915D01*
X77779Y-268382D01*
X77487Y-268048D01*
X77079Y-267782D01*
X76670Y-267715D01*
X76262Y-267782D01*
X75737Y-268048D01*
X75912Y-266315D01*
X77487D01*
G01X84929D02*
Y-269182D01*
X85162Y-269782D01*
X85629Y-270182D01*
X86212Y-270315D01*
X86795Y-270182D01*
X87262Y-269782D01*
X87495Y-269182D01*
Y-266315D01*
G01X89787Y-269782D02*
X90254Y-270115D01*
X90779Y-270315D01*
X91245D01*
X91712Y-270115D01*
X92062Y-269782D01*
X92237Y-269315D01*
X92120Y-268848D01*
X91829Y-268448D01*
X91304Y-268182D01*
X90604Y-268048D01*
X90195Y-267782D01*
X90020Y-267315D01*
X90137Y-266848D01*
X90429Y-266515D01*
X90837Y-266315D01*
X91245D01*
X91654Y-266448D01*
X92004Y-266782D01*
G01X94354Y-270315D02*
X95812Y-266315D01*
X97270Y-270315D01*
G01X96745Y-268915D02*
X94879D01*
G01X-10896Y-261648D02*
X-10488Y-261182D01*
X-10138Y-260915D01*
X-9671Y-260782D01*
X-9263Y-260915D01*
X-8971Y-261182D01*
X-8738Y-261582D01*
X-8680Y-262048D01*
X-8738Y-262448D01*
X-8971Y-262848D01*
X-9321Y-263182D01*
X-9730Y-263315D01*
X-10196Y-263182D01*
X-10605Y-262782D01*
X-10838Y-262182D01*
X-10896Y-261515D01*
X-10780Y-260648D01*
X-10605Y-260182D01*
X-10313Y-259715D01*
X-9905Y-259382D01*
X-9496Y-259315D01*
X-9088Y-259448D01*
X-8796Y-259782D01*
G01X-6271Y-262715D02*
X-5921Y-263048D01*
X-5513Y-263248D01*
X-4988Y-263315D01*
X-4463Y-263182D01*
X-4055Y-262915D01*
X-3763Y-262448D01*
X-3705Y-261915D01*
X-3821Y-261382D01*
X-4113Y-261048D01*
X-4521Y-260782D01*
X-4930Y-260715D01*
X-5338Y-260782D01*
X-5863Y-261048D01*
X-5688Y-259315D01*
X-4113D01*
G01X-188D02*
X-655Y-259448D01*
X-1005Y-259782D01*
X-1238Y-260182D01*
X-1413Y-260715D01*
X-1471Y-261315D01*
X-1413Y-261915D01*
X-1238Y-262448D01*
X-1005Y-262848D01*
X-655Y-263182D01*
X-188Y-263315D01*
X279Y-263182D01*
X629Y-262848D01*
X862Y-262448D01*
X1037Y-261915D01*
X1095Y-261315D01*
X1037Y-260715D01*
X862Y-260182D01*
X629Y-259782D01*
X279Y-259448D01*
X-188Y-259315D01*
G01X4612Y-263315D02*
Y-259315D01*
X3912Y-260115D01*
G01Y-263315D02*
X5312D01*
G01X12462Y-259315D02*
X13279Y-263315D01*
X14212Y-259315D01*
X15145Y-263315D01*
X15962Y-259315D01*
G01X18312D02*
X19712D01*
G01X19012D02*
Y-263315D01*
G01X18312D02*
X19712D01*
G01X22645Y-259315D02*
Y-263315D01*
X24979D01*
G01X27445Y-259315D02*
Y-263315D01*
X29779D01*
G01X32712Y-259315D02*
X34112D01*
G01X33412D02*
Y-263315D01*
G01X32712D02*
X34112D01*
G01X36754D02*
X38212Y-259315D01*
X39670Y-263315D01*
G01X39145Y-261915D02*
X37279D01*
G01X41495Y-263315D02*
Y-259315D01*
X43012Y-262648D01*
X44529Y-259315D01*
Y-263315D01*
G01X53895Y-259648D02*
X53545Y-259448D01*
X53137Y-259315D01*
X52670D01*
X52145Y-259515D01*
X51737Y-259848D01*
X51445Y-260248D01*
X51212Y-260915D01*
X51154Y-261515D01*
X51270Y-262115D01*
X51445Y-262515D01*
X51795Y-262915D01*
X52204Y-263182D01*
X52612Y-263315D01*
X53020D01*
X53429Y-263182D01*
X53779Y-262982D01*
X54070Y-262715D01*
G01X55954Y-263315D02*
X57412Y-259315D01*
X58870Y-263315D01*
G01X58345Y-261915D02*
X56479D01*
G01X60870Y-263315D02*
Y-259315D01*
X63554Y-263315D01*
Y-259315D01*
G01X65670Y-263315D02*
Y-259315D01*
X68354Y-263315D01*
Y-259315D01*
G01X71812Y-263315D02*
X71345Y-263248D01*
X70937Y-262982D01*
X70587Y-262582D01*
X70354Y-262115D01*
X70237Y-261582D01*
Y-261048D01*
X70354Y-260515D01*
X70587Y-260048D01*
X70937Y-259648D01*
X71345Y-259382D01*
X71812Y-259315D01*
X72279Y-259382D01*
X72687Y-259648D01*
X73037Y-260048D01*
X73270Y-260515D01*
X73387Y-261048D01*
Y-261582D01*
X73270Y-262115D01*
X73037Y-262582D01*
X72687Y-262982D01*
X72279Y-263248D01*
X71812Y-263315D01*
G01X75270D02*
Y-259315D01*
X77954Y-263315D01*
Y-259315D01*
G01X84929Y-263315D02*
Y-259315D01*
X86095D01*
X86562Y-259515D01*
X86912Y-259782D01*
X87204Y-260182D01*
X87437Y-260648D01*
X87495Y-261315D01*
X87437Y-261982D01*
X87204Y-262448D01*
X86912Y-262848D01*
X86562Y-263115D01*
X86095Y-263315D01*
X84929D01*
G01X89845D02*
Y-259315D01*
X91304D01*
X91770Y-259515D01*
X92062Y-259782D01*
X92179Y-260315D01*
X92062Y-260848D01*
X91712Y-261182D01*
X91304Y-261382D01*
X89845D01*
G01X91304D02*
X92179Y-263315D01*
G01X95112Y-259315D02*
X96512D01*
G01X95812D02*
Y-263315D01*
G01X95112D02*
X96512D01*
G01X99154Y-259315D02*
X100612Y-263315D01*
X102070Y-259315D01*
G01X106579Y-263315D02*
X104245D01*
Y-259315D01*
X106579D01*
G01X105645Y-261248D02*
X104245D01*
G01X113262Y-259315D02*
X114079Y-263315D01*
X115012Y-259315D01*
X115945Y-263315D01*
X116762Y-259315D01*
G01X120979Y-263315D02*
X118645D01*
Y-259315D01*
X120979D01*
G01X120045Y-261248D02*
X118645D01*
G01X123387Y-262782D02*
X123854Y-263115D01*
X124379Y-263315D01*
X124845D01*
X125312Y-263115D01*
X125662Y-262782D01*
X125837Y-262315D01*
X125720Y-261848D01*
X125429Y-261448D01*
X124904Y-261182D01*
X124204Y-261048D01*
X123795Y-260782D01*
X123620Y-260315D01*
X123737Y-259848D01*
X124029Y-259515D01*
X124437Y-259315D01*
X124845D01*
X125254Y-259448D01*
X125604Y-259782D01*
G01X129412Y-259315D02*
Y-263315D01*
G01X128070Y-259315D02*
X130754D01*
G01X-10885Y-254315D02*
Y-246815D01*
X-6591Y-254315D01*
Y-246815D01*
G01X-3198Y-254315D02*
X722Y-246815D01*
G01X-3198D02*
X722Y-254315D01*
G01X4395D02*
Y-246815D01*
X6635D01*
X7382Y-247190D01*
X7942Y-248065D01*
X8129Y-249065D01*
X7942Y-250065D01*
X7475Y-250815D01*
X6635Y-251190D01*
X4395D01*
G01X19302Y-253315D02*
X20049Y-253940D01*
X20889Y-254315D01*
X21635D01*
X22382Y-253940D01*
X22942Y-253315D01*
X23222Y-252440D01*
X23035Y-251565D01*
X22569Y-250815D01*
X21729Y-250315D01*
X20609Y-250065D01*
X19955Y-249565D01*
X19675Y-248690D01*
X19862Y-247815D01*
X20329Y-247190D01*
X20982Y-246815D01*
X21635D01*
X22289Y-247065D01*
X22849Y-247690D01*
G01X30629Y-254315D02*
X26895D01*
Y-246815D01*
X30629D01*
G01X29135Y-250440D02*
X26895D01*
G01X33835Y-254315D02*
Y-246815D01*
X36262Y-253065D01*
X38689Y-246815D01*
Y-254315D01*
G01X42642Y-246815D02*
X44882D01*
G01X43762D02*
Y-254315D01*
G01X42642D02*
X44882D01*
G01X53315Y-247440D02*
X52755Y-247065D01*
X52102Y-246815D01*
X51355D01*
X50515Y-247190D01*
X49862Y-247815D01*
X49395Y-248565D01*
X49022Y-249815D01*
X48929Y-250940D01*
X49115Y-252065D01*
X49395Y-252815D01*
X49955Y-253565D01*
X50609Y-254065D01*
X51262Y-254315D01*
X51915D01*
X52569Y-254065D01*
X53129Y-253690D01*
X53595Y-253190D01*
G01X58762Y-254315D02*
X58015Y-254190D01*
X57362Y-253690D01*
X56802Y-252940D01*
X56429Y-252065D01*
X56242Y-251065D01*
Y-250065D01*
X56429Y-249065D01*
X56802Y-248190D01*
X57362Y-247440D01*
X58015Y-246940D01*
X58762Y-246815D01*
X59509Y-246940D01*
X60162Y-247440D01*
X60722Y-248190D01*
X61095Y-249065D01*
X61282Y-250065D01*
Y-251065D01*
X61095Y-252065D01*
X60722Y-252940D01*
X60162Y-253690D01*
X59509Y-254190D01*
X58762Y-254315D01*
G01X64115D02*
Y-246815D01*
X68409Y-254315D01*
Y-246815D01*
G01X71709Y-254315D02*
Y-246815D01*
X73575D01*
X74322Y-247190D01*
X74882Y-247690D01*
X75349Y-248440D01*
X75722Y-249315D01*
X75815Y-250565D01*
X75722Y-251815D01*
X75349Y-252690D01*
X74882Y-253440D01*
X74322Y-253940D01*
X73575Y-254315D01*
X71709D01*
G01X79209Y-246815D02*
Y-252190D01*
X79582Y-253315D01*
X80329Y-254065D01*
X81262Y-254315D01*
X82195Y-254065D01*
X82942Y-253315D01*
X83315Y-252190D01*
Y-246815D01*
G01X90815Y-247440D02*
X90255Y-247065D01*
X89602Y-246815D01*
X88855D01*
X88015Y-247190D01*
X87362Y-247815D01*
X86895Y-248565D01*
X86522Y-249815D01*
X86429Y-250940D01*
X86615Y-252065D01*
X86895Y-252815D01*
X87455Y-253565D01*
X88109Y-254065D01*
X88762Y-254315D01*
X89415D01*
X90069Y-254065D01*
X90629Y-253690D01*
X91095Y-253190D01*
G01X96262Y-246815D02*
Y-254315D01*
G01X94115Y-246815D02*
X98409D01*
G01X103762Y-254315D02*
X103015Y-254190D01*
X102362Y-253690D01*
X101802Y-252940D01*
X101429Y-252065D01*
X101242Y-251065D01*
Y-250065D01*
X101429Y-249065D01*
X101802Y-248190D01*
X102362Y-247440D01*
X103015Y-246940D01*
X103762Y-246815D01*
X104509Y-246940D01*
X105162Y-247440D01*
X105722Y-248190D01*
X106095Y-249065D01*
X106282Y-250065D01*
Y-251065D01*
X106095Y-252065D01*
X105722Y-252940D01*
X105162Y-253690D01*
X104509Y-254190D01*
X103762Y-254315D01*
G01X109395D02*
Y-246815D01*
X111729D01*
X112475Y-247190D01*
X112942Y-247690D01*
X113129Y-248690D01*
X112942Y-249690D01*
X112382Y-250315D01*
X111729Y-250690D01*
X109395D01*
G01X111729D02*
X113129Y-254315D01*
G01X116802Y-253315D02*
X117549Y-253940D01*
X118389Y-254315D01*
X119135D01*
X119882Y-253940D01*
X120442Y-253315D01*
X120722Y-252440D01*
X120535Y-251565D01*
X120069Y-250815D01*
X119229Y-250315D01*
X118109Y-250065D01*
X117455Y-249565D01*
X117175Y-248690D01*
X117362Y-247815D01*
X117829Y-247190D01*
X118482Y-246815D01*
X119135D01*
X119789Y-247065D01*
X120349Y-247690D01*
G01X7312Y-339815D02*
X6685Y-339715D01*
X6137Y-339315D01*
X5667Y-338715D01*
X5354Y-338015D01*
X5197Y-337215D01*
Y-336415D01*
X5354Y-335615D01*
X5667Y-334915D01*
X6137Y-334315D01*
X6685Y-333915D01*
X7312Y-333815D01*
X7939Y-333915D01*
X8487Y-334315D01*
X8957Y-334915D01*
X9270Y-335615D01*
X9427Y-336415D01*
Y-337215D01*
X9270Y-338015D01*
X8957Y-338715D01*
X8487Y-339315D01*
X7939Y-339715D01*
X7312Y-339815D01*
G01X12124D02*
Y-333815D01*
X15100D01*
G01X14004Y-336715D02*
X12124D01*
G01X26212Y-339815D02*
Y-333815D01*
X25272Y-335015D01*
G01Y-339815D02*
X27152D01*
G01X32512Y-333815D02*
X31885Y-334015D01*
X31415Y-334515D01*
X31102Y-335115D01*
X30867Y-335915D01*
X30789Y-336815D01*
X30867Y-337715D01*
X31102Y-338515D01*
X31415Y-339115D01*
X31885Y-339615D01*
X32512Y-339815D01*
X33139Y-339615D01*
X33609Y-339115D01*
X33922Y-338515D01*
X34157Y-337715D01*
X34235Y-336815D01*
X34157Y-335915D01*
X33922Y-335115D01*
X33609Y-334515D01*
X33139Y-334015D01*
X32512Y-333815D01*
G01X-5130Y-320315D02*
Y-316315D01*
X-2446Y-320315D01*
Y-316315D01*
G01X-213Y-320315D02*
X2237Y-316315D01*
G01X-213D02*
X2237Y-320315D01*
G01X4645D02*
Y-316315D01*
X6045D01*
X6512Y-316515D01*
X6862Y-316982D01*
X6979Y-317515D01*
X6862Y-318048D01*
X6570Y-318448D01*
X6045Y-318648D01*
X4645D01*
G01X10612Y-320448D02*
X10495Y-320382D01*
Y-320248D01*
X10612Y-320182D01*
X10729Y-320248D01*
Y-320382D01*
X10612Y-320448D01*
G01X-3788Y-312315D02*
X-4255Y-312248D01*
X-4663Y-311982D01*
X-5013Y-311582D01*
X-5246Y-311115D01*
X-5363Y-310582D01*
Y-310048D01*
X-5246Y-309515D01*
X-5013Y-309048D01*
X-4663Y-308648D01*
X-4255Y-308382D01*
X-3788Y-308315D01*
X-3321Y-308382D01*
X-2913Y-308648D01*
X-2563Y-309048D01*
X-2330Y-309515D01*
X-2213Y-310048D01*
Y-310582D01*
X-2330Y-311115D01*
X-2563Y-311582D01*
X-2913Y-311982D01*
X-3321Y-312248D01*
X-3788Y-312315D01*
G01X-155D02*
Y-308315D01*
X1304D01*
X1770Y-308515D01*
X2062Y-308782D01*
X2179Y-309315D01*
X2062Y-309848D01*
X1712Y-310182D01*
X1304Y-310382D01*
X-155D01*
G01X1304D02*
X2179Y-312315D01*
G01X9912Y-308315D02*
X11312D01*
G01X10612D02*
Y-312315D01*
G01X9912D02*
X11312D01*
G01X14070D02*
Y-308315D01*
X16754Y-312315D01*
Y-308315D01*
G01X23845Y-312315D02*
Y-308315D01*
X25245D01*
X25712Y-308515D01*
X26062Y-308982D01*
X26179Y-309515D01*
X26062Y-310048D01*
X25770Y-310448D01*
X25245Y-310648D01*
X23845D01*
G01X28354Y-312315D02*
X29812Y-308315D01*
X31270Y-312315D01*
G01X30745Y-310915D02*
X28879D01*
G01X33445Y-312315D02*
Y-308315D01*
X34904D01*
X35370Y-308515D01*
X35662Y-308782D01*
X35779Y-309315D01*
X35662Y-309848D01*
X35312Y-310182D01*
X34904Y-310382D01*
X33445D01*
G01X34904D02*
X35779Y-312315D01*
G01X39412Y-308315D02*
Y-312315D01*
G01X38070Y-308315D02*
X40754D01*
G01X47262D02*
X48079Y-312315D01*
X49012Y-308315D01*
X49945Y-312315D01*
X50762Y-308315D01*
G01X53112D02*
X54512D01*
G01X53812D02*
Y-312315D01*
G01X53112D02*
X54512D01*
G01X58612Y-308315D02*
Y-312315D01*
G01X57270Y-308315D02*
X59954D01*
G01X62187Y-312315D02*
Y-308315D01*
G01X64637D02*
Y-312315D01*
G01Y-310315D02*
X62187D01*
G01X68212Y-312315D02*
X67745Y-312248D01*
X67337Y-311982D01*
X66987Y-311582D01*
X66754Y-311115D01*
X66637Y-310582D01*
Y-310048D01*
X66754Y-309515D01*
X66987Y-309048D01*
X67337Y-308648D01*
X67745Y-308382D01*
X68212Y-308315D01*
X68679Y-308382D01*
X69087Y-308648D01*
X69437Y-309048D01*
X69670Y-309515D01*
X69787Y-310048D01*
Y-310582D01*
X69670Y-311115D01*
X69437Y-311582D01*
X69087Y-311982D01*
X68679Y-312248D01*
X68212Y-312315D01*
G01X71729Y-308315D02*
Y-311182D01*
X71962Y-311782D01*
X72429Y-312182D01*
X73012Y-312315D01*
X73595Y-312182D01*
X74062Y-311782D01*
X74295Y-311182D01*
Y-308315D01*
G01X77812D02*
Y-312315D01*
G01X76470Y-308315D02*
X79154D01*
G01X87412D02*
Y-312315D01*
G01X86070Y-308315D02*
X88754D01*
G01X90987Y-312315D02*
Y-308315D01*
G01X93437D02*
Y-312315D01*
G01Y-310315D02*
X90987D01*
G01X98179Y-312315D02*
X95845D01*
Y-308315D01*
X98179D01*
G01X97245Y-310248D02*
X95845D01*
G01X107895Y-308648D02*
X107545Y-308448D01*
X107137Y-308315D01*
X106670D01*
X106145Y-308515D01*
X105737Y-308848D01*
X105445Y-309248D01*
X105212Y-309915D01*
X105154Y-310515D01*
X105270Y-311115D01*
X105445Y-311515D01*
X105795Y-311915D01*
X106204Y-312182D01*
X106612Y-312315D01*
X107020D01*
X107429Y-312182D01*
X107779Y-311982D01*
X108070Y-311715D01*
G01X111412Y-312315D02*
X110945Y-312248D01*
X110537Y-311982D01*
X110187Y-311582D01*
X109954Y-311115D01*
X109837Y-310582D01*
Y-310048D01*
X109954Y-309515D01*
X110187Y-309048D01*
X110537Y-308648D01*
X110945Y-308382D01*
X111412Y-308315D01*
X111879Y-308382D01*
X112287Y-308648D01*
X112637Y-309048D01*
X112870Y-309515D01*
X112987Y-310048D01*
Y-310582D01*
X112870Y-311115D01*
X112637Y-311582D01*
X112287Y-311982D01*
X111879Y-312248D01*
X111412Y-312315D01*
G01X114870D02*
Y-308315D01*
X117554Y-312315D01*
Y-308315D01*
G01X119787Y-311782D02*
X120254Y-312115D01*
X120779Y-312315D01*
X121245D01*
X121712Y-312115D01*
X122062Y-311782D01*
X122237Y-311315D01*
X122120Y-310848D01*
X121829Y-310448D01*
X121304Y-310182D01*
X120604Y-310048D01*
X120195Y-309782D01*
X120020Y-309315D01*
X120137Y-308848D01*
X120429Y-308515D01*
X120837Y-308315D01*
X121245D01*
X121654Y-308448D01*
X122004Y-308782D01*
G01X126979Y-312315D02*
X124645D01*
Y-308315D01*
X126979D01*
G01X126045Y-310248D02*
X124645D01*
G01X129270Y-312315D02*
Y-308315D01*
X131954Y-312315D01*
Y-308315D01*
G01X135412D02*
Y-312315D01*
G01X134070Y-308315D02*
X136754D01*
G01X145012Y-312315D02*
X144545Y-312248D01*
X144137Y-311982D01*
X143787Y-311582D01*
X143554Y-311115D01*
X143437Y-310582D01*
Y-310048D01*
X143554Y-309515D01*
X143787Y-309048D01*
X144137Y-308648D01*
X144545Y-308382D01*
X145012Y-308315D01*
X145479Y-308382D01*
X145887Y-308648D01*
X146237Y-309048D01*
X146470Y-309515D01*
X146587Y-310048D01*
Y-310582D01*
X146470Y-311115D01*
X146237Y-311582D01*
X145887Y-311982D01*
X145479Y-312248D01*
X145012Y-312315D01*
G01X148704D02*
Y-308315D01*
X150920D01*
G01X150104Y-310248D02*
X148704D01*
G01X-4955Y-304315D02*
Y-300315D01*
X-3555D01*
X-3088Y-300515D01*
X-2738Y-300982D01*
X-2621Y-301515D01*
X-2738Y-302048D01*
X-3030Y-302448D01*
X-3555Y-302648D01*
X-4955D01*
G01X-155Y-304315D02*
Y-300315D01*
X1304D01*
X1770Y-300515D01*
X2062Y-300782D01*
X2179Y-301315D01*
X2062Y-301848D01*
X1712Y-302182D01*
X1304Y-302382D01*
X-155D01*
G01X1304D02*
X2179Y-304315D01*
G01X5812D02*
X5345Y-304248D01*
X4937Y-303982D01*
X4587Y-303582D01*
X4354Y-303115D01*
X4237Y-302582D01*
Y-302048D01*
X4354Y-301515D01*
X4587Y-301048D01*
X4937Y-300648D01*
X5345Y-300382D01*
X5812Y-300315D01*
X6279Y-300382D01*
X6687Y-300648D01*
X7037Y-301048D01*
X7270Y-301515D01*
X7387Y-302048D01*
Y-302582D01*
X7270Y-303115D01*
X7037Y-303582D01*
X6687Y-303982D01*
X6279Y-304248D01*
X5812Y-304315D01*
G01X11895Y-300648D02*
X11545Y-300448D01*
X11137Y-300315D01*
X10670D01*
X10145Y-300515D01*
X9737Y-300848D01*
X9445Y-301248D01*
X9212Y-301915D01*
X9154Y-302515D01*
X9270Y-303115D01*
X9445Y-303515D01*
X9795Y-303915D01*
X10204Y-304182D01*
X10612Y-304315D01*
X11020D01*
X11429Y-304182D01*
X11779Y-303982D01*
X12070Y-303715D01*
G01X14129Y-300315D02*
Y-303182D01*
X14362Y-303782D01*
X14829Y-304182D01*
X15412Y-304315D01*
X15995Y-304182D01*
X16462Y-303782D01*
X16695Y-303182D01*
Y-300315D01*
G01X19045Y-304315D02*
Y-300315D01*
X20504D01*
X20970Y-300515D01*
X21262Y-300782D01*
X21379Y-301315D01*
X21262Y-301848D01*
X20912Y-302182D01*
X20504Y-302382D01*
X19045D01*
G01X20504D02*
X21379Y-304315D01*
G01X26179D02*
X23845D01*
Y-300315D01*
X26179D01*
G01X25245Y-302248D02*
X23845D01*
G01X28295Y-304315D02*
Y-300315D01*
X29812Y-303648D01*
X31329Y-300315D01*
Y-304315D01*
G01X35779D02*
X33445D01*
Y-300315D01*
X35779D01*
G01X34845Y-302248D02*
X33445D01*
G01X38070Y-304315D02*
Y-300315D01*
X40754Y-304315D01*
Y-300315D01*
G01X44212D02*
Y-304315D01*
G01X42870Y-300315D02*
X45554D01*
G01X53812Y-304315D02*
X53345Y-304248D01*
X52937Y-303982D01*
X52587Y-303582D01*
X52354Y-303115D01*
X52237Y-302582D01*
Y-302048D01*
X52354Y-301515D01*
X52587Y-301048D01*
X52937Y-300648D01*
X53345Y-300382D01*
X53812Y-300315D01*
X54279Y-300382D01*
X54687Y-300648D01*
X55037Y-301048D01*
X55270Y-301515D01*
X55387Y-302048D01*
Y-302582D01*
X55270Y-303115D01*
X55037Y-303582D01*
X54687Y-303982D01*
X54279Y-304248D01*
X53812Y-304315D01*
G01X57445D02*
Y-300315D01*
X58904D01*
X59370Y-300515D01*
X59662Y-300782D01*
X59779Y-301315D01*
X59662Y-301848D01*
X59312Y-302182D01*
X58904Y-302382D01*
X57445D01*
G01X58904D02*
X59779Y-304315D01*
G01X66695D02*
Y-300315D01*
X68212Y-303648D01*
X69729Y-300315D01*
Y-304315D01*
G01X71554D02*
X73012Y-300315D01*
X74470Y-304315D01*
G01X73945Y-302915D02*
X72079D01*
G01X76470Y-304315D02*
Y-300315D01*
X79154Y-304315D01*
Y-300315D01*
G01X81329D02*
Y-303182D01*
X81562Y-303782D01*
X82029Y-304182D01*
X82612Y-304315D01*
X83195Y-304182D01*
X83662Y-303782D01*
X83895Y-303182D01*
Y-300315D01*
G01X86304Y-304315D02*
Y-300315D01*
X88520D01*
G01X87704Y-302248D02*
X86304D01*
G01X90754Y-304315D02*
X92212Y-300315D01*
X93670Y-304315D01*
G01X93145Y-302915D02*
X91279D01*
G01X98295Y-300648D02*
X97945Y-300448D01*
X97537Y-300315D01*
X97070D01*
X96545Y-300515D01*
X96137Y-300848D01*
X95845Y-301248D01*
X95612Y-301915D01*
X95554Y-302515D01*
X95670Y-303115D01*
X95845Y-303515D01*
X96195Y-303915D01*
X96604Y-304182D01*
X97012Y-304315D01*
X97420D01*
X97829Y-304182D01*
X98179Y-303982D01*
X98470Y-303715D01*
G01X101812Y-300315D02*
Y-304315D01*
G01X100470Y-300315D02*
X103154D01*
G01X105329D02*
Y-303182D01*
X105562Y-303782D01*
X106029Y-304182D01*
X106612Y-304315D01*
X107195Y-304182D01*
X107662Y-303782D01*
X107895Y-303182D01*
Y-300315D01*
G01X110245Y-304315D02*
Y-300315D01*
X111704D01*
X112170Y-300515D01*
X112462Y-300782D01*
X112579Y-301315D01*
X112462Y-301848D01*
X112112Y-302182D01*
X111704Y-302382D01*
X110245D01*
G01X111704D02*
X112579Y-304315D01*
G01X117379D02*
X115045D01*
Y-300315D01*
X117379D01*
G01X116445Y-302248D02*
X115045D01*
G01X125112Y-300315D02*
X126512D01*
G01X125812D02*
Y-304315D01*
G01X125112D02*
X126512D01*
G01X129270D02*
Y-300315D01*
X131954Y-304315D01*
Y-300315D01*
G01X138462D02*
X139279Y-304315D01*
X140212Y-300315D01*
X141145Y-304315D01*
X141962Y-300315D01*
G01X143787Y-304315D02*
Y-300315D01*
G01X146237D02*
Y-304315D01*
G01Y-302315D02*
X143787D01*
G01X149812Y-304315D02*
X149345Y-304248D01*
X148937Y-303982D01*
X148587Y-303582D01*
X148354Y-303115D01*
X148237Y-302582D01*
Y-302048D01*
X148354Y-301515D01*
X148587Y-301048D01*
X148937Y-300648D01*
X149345Y-300382D01*
X149812Y-300315D01*
X150279Y-300382D01*
X150687Y-300648D01*
X151037Y-301048D01*
X151270Y-301515D01*
X151387Y-302048D01*
Y-302582D01*
X151270Y-303115D01*
X151037Y-303582D01*
X150687Y-303982D01*
X150279Y-304248D01*
X149812Y-304315D01*
G01X153445Y-300315D02*
Y-304315D01*
X155779D01*
G01X160579D02*
X158245D01*
Y-300315D01*
X160579D01*
G01X159645Y-302248D02*
X158245D01*
G01X-3321Y-294182D02*
X-3088Y-293982D01*
X-2913Y-293648D01*
X-2796Y-293182D01*
X-2913Y-292782D01*
X-3146Y-292515D01*
X-3555Y-292315D01*
X-5130D01*
Y-296315D01*
X-3205D01*
X-2796Y-296048D01*
X-2563Y-295648D01*
X-2446Y-295182D01*
X-2563Y-294715D01*
X-2913Y-294315D01*
X-3321Y-294182D01*
X-5130D01*
G01X2179Y-296315D02*
X-155D01*
Y-292315D01*
X2179D01*
G01X1245Y-294248D02*
X-155D01*
G01X9329Y-292315D02*
Y-295182D01*
X9562Y-295782D01*
X10029Y-296182D01*
X10612Y-296315D01*
X11195Y-296182D01*
X11662Y-295782D01*
X11895Y-295182D01*
Y-292315D01*
G01X14187Y-295782D02*
X14654Y-296115D01*
X15179Y-296315D01*
X15645D01*
X16112Y-296115D01*
X16462Y-295782D01*
X16637Y-295315D01*
X16520Y-294848D01*
X16229Y-294448D01*
X15704Y-294182D01*
X15004Y-294048D01*
X14595Y-293782D01*
X14420Y-293315D01*
X14537Y-292848D01*
X14829Y-292515D01*
X15237Y-292315D01*
X15645D01*
X16054Y-292448D01*
X16404Y-292782D01*
G01X21379Y-296315D02*
X19045D01*
Y-292315D01*
X21379D01*
G01X20445Y-294248D02*
X19045D01*
G01X23729Y-296315D02*
Y-292315D01*
X24895D01*
X25362Y-292515D01*
X25712Y-292782D01*
X26004Y-293182D01*
X26237Y-293648D01*
X26295Y-294315D01*
X26237Y-294982D01*
X26004Y-295448D01*
X25712Y-295848D01*
X25362Y-296115D01*
X24895Y-296315D01*
X23729D01*
G01X33504D02*
Y-292315D01*
X35720D01*
G01X34904Y-294248D02*
X33504D01*
G01X39412Y-296315D02*
X38945Y-296248D01*
X38537Y-295982D01*
X38187Y-295582D01*
X37954Y-295115D01*
X37837Y-294582D01*
Y-294048D01*
X37954Y-293515D01*
X38187Y-293048D01*
X38537Y-292648D01*
X38945Y-292382D01*
X39412Y-292315D01*
X39879Y-292382D01*
X40287Y-292648D01*
X40637Y-293048D01*
X40870Y-293515D01*
X40987Y-294048D01*
Y-294582D01*
X40870Y-295115D01*
X40637Y-295582D01*
X40287Y-295982D01*
X39879Y-296248D01*
X39412Y-296315D01*
G01X43045D02*
Y-292315D01*
X44504D01*
X44970Y-292515D01*
X45262Y-292782D01*
X45379Y-293315D01*
X45262Y-293848D01*
X44912Y-294182D01*
X44504Y-294382D01*
X43045D01*
G01X44504D02*
X45379Y-296315D01*
G01X54979D02*
X52645D01*
Y-292315D01*
X54979D01*
G01X54045Y-294248D02*
X52645D01*
G01X57270Y-296315D02*
Y-292315D01*
X59954Y-296315D01*
Y-292315D01*
G01X63762Y-294315D02*
X64929D01*
Y-295515D01*
X64579Y-295915D01*
X64170Y-296182D01*
X63587Y-296315D01*
X63004Y-296182D01*
X62595Y-295915D01*
X62245Y-295515D01*
X62012Y-295048D01*
X61895Y-294515D01*
Y-294048D01*
X62012Y-293648D01*
X62245Y-293182D01*
X62595Y-292782D01*
X62945Y-292515D01*
X63412Y-292315D01*
X63820D01*
X64287Y-292448D01*
X64637Y-292715D01*
G01X67512Y-292315D02*
X68912D01*
G01X68212D02*
Y-296315D01*
G01X67512D02*
X68912D01*
G01X71670D02*
Y-292315D01*
X74354Y-296315D01*
Y-292315D01*
G01X78979Y-296315D02*
X76645D01*
Y-292315D01*
X78979D01*
G01X78045Y-294248D02*
X76645D01*
G01X83779Y-296315D02*
X81445D01*
Y-292315D01*
X83779D01*
G01X82845Y-294248D02*
X81445D01*
G01X86245Y-296315D02*
Y-292315D01*
X87704D01*
X88170Y-292515D01*
X88462Y-292782D01*
X88579Y-293315D01*
X88462Y-293848D01*
X88112Y-294182D01*
X87704Y-294382D01*
X86245D01*
G01X87704D02*
X88579Y-296315D01*
G01X91512Y-292315D02*
X92912D01*
G01X92212D02*
Y-296315D01*
G01X91512D02*
X92912D01*
G01X95670D02*
Y-292315D01*
X98354Y-296315D01*
Y-292315D01*
G01X102162Y-294315D02*
X103329D01*
Y-295515D01*
X102979Y-295915D01*
X102570Y-296182D01*
X101987Y-296315D01*
X101404Y-296182D01*
X100995Y-295915D01*
X100645Y-295515D01*
X100412Y-295048D01*
X100295Y-294515D01*
Y-294048D01*
X100412Y-293648D01*
X100645Y-293182D01*
X100995Y-292782D01*
X101345Y-292515D01*
X101812Y-292315D01*
X102220D01*
X102687Y-292448D01*
X103037Y-292715D01*
G01X110129Y-296315D02*
Y-292315D01*
X111295D01*
X111762Y-292515D01*
X112112Y-292782D01*
X112404Y-293182D01*
X112637Y-293648D01*
X112695Y-294315D01*
X112637Y-294982D01*
X112404Y-295448D01*
X112112Y-295848D01*
X111762Y-296115D01*
X111295Y-296315D01*
X110129D01*
G01X117379D02*
X115045D01*
Y-292315D01*
X117379D01*
G01X116445Y-294248D02*
X115045D01*
G01X119787Y-295782D02*
X120254Y-296115D01*
X120779Y-296315D01*
X121245D01*
X121712Y-296115D01*
X122062Y-295782D01*
X122237Y-295315D01*
X122120Y-294848D01*
X121829Y-294448D01*
X121304Y-294182D01*
X120604Y-294048D01*
X120195Y-293782D01*
X120020Y-293315D01*
X120137Y-292848D01*
X120429Y-292515D01*
X120837Y-292315D01*
X121245D01*
X121654Y-292448D01*
X122004Y-292782D01*
G01X125112Y-292315D02*
X126512D01*
G01X125812D02*
Y-296315D01*
G01X125112D02*
X126512D01*
G01X130962Y-294315D02*
X132129D01*
Y-295515D01*
X131779Y-295915D01*
X131370Y-296182D01*
X130787Y-296315D01*
X130204Y-296182D01*
X129795Y-295915D01*
X129445Y-295515D01*
X129212Y-295048D01*
X129095Y-294515D01*
Y-294048D01*
X129212Y-293648D01*
X129445Y-293182D01*
X129795Y-292782D01*
X130145Y-292515D01*
X130612Y-292315D01*
X131020D01*
X131487Y-292448D01*
X131837Y-292715D01*
G01X134070Y-296315D02*
Y-292315D01*
X136754Y-296315D01*
Y-292315D01*
G01X-4955Y-288315D02*
Y-284315D01*
X-3555D01*
X-3088Y-284515D01*
X-2738Y-284982D01*
X-2621Y-285515D01*
X-2738Y-286048D01*
X-3030Y-286448D01*
X-3555Y-286648D01*
X-4955D01*
G01X-155Y-288315D02*
Y-284315D01*
X1304D01*
X1770Y-284515D01*
X2062Y-284782D01*
X2179Y-285315D01*
X2062Y-285848D01*
X1712Y-286182D01*
X1304Y-286382D01*
X-155D01*
G01X1304D02*
X2179Y-288315D01*
G01X5812D02*
X5345Y-288248D01*
X4937Y-287982D01*
X4587Y-287582D01*
X4354Y-287115D01*
X4237Y-286582D01*
Y-286048D01*
X4354Y-285515D01*
X4587Y-285048D01*
X4937Y-284648D01*
X5345Y-284382D01*
X5812Y-284315D01*
X6279Y-284382D01*
X6687Y-284648D01*
X7037Y-285048D01*
X7270Y-285515D01*
X7387Y-286048D01*
Y-286582D01*
X7270Y-287115D01*
X7037Y-287582D01*
X6687Y-287982D01*
X6279Y-288248D01*
X5812Y-288315D01*
G01X9445D02*
Y-284315D01*
X10845D01*
X11312Y-284515D01*
X11662Y-284982D01*
X11779Y-285515D01*
X11662Y-286048D01*
X11370Y-286448D01*
X10845Y-286648D01*
X9445D01*
G01X14245Y-288315D02*
Y-284315D01*
X15704D01*
X16170Y-284515D01*
X16462Y-284782D01*
X16579Y-285315D01*
X16462Y-285848D01*
X16112Y-286182D01*
X15704Y-286382D01*
X14245D01*
G01X15704D02*
X16579Y-288315D01*
G01X19512Y-284315D02*
X20912D01*
G01X20212D02*
Y-288315D01*
G01X19512D02*
X20912D01*
G01X26179D02*
X23845D01*
Y-284315D01*
X26179D01*
G01X25245Y-286248D02*
X23845D01*
G01X29812Y-284315D02*
Y-288315D01*
G01X28470Y-284315D02*
X31154D01*
G01X33154Y-288315D02*
X34612Y-284315D01*
X36070Y-288315D01*
G01X35545Y-286915D02*
X33679D01*
G01X38245Y-288315D02*
Y-284315D01*
X39704D01*
X40170Y-284515D01*
X40462Y-284782D01*
X40579Y-285315D01*
X40462Y-285848D01*
X40112Y-286182D01*
X39704Y-286382D01*
X38245D01*
G01X39704D02*
X40579Y-288315D01*
G01X44212D02*
Y-286515D01*
X43045Y-284315D01*
G01X45379D02*
X44212Y-286515D01*
G01X53812Y-284315D02*
Y-288315D01*
G01X52470Y-284315D02*
X55154D01*
G01X58612Y-288315D02*
X58145Y-288248D01*
X57737Y-287982D01*
X57387Y-287582D01*
X57154Y-287115D01*
X57037Y-286582D01*
Y-286048D01*
X57154Y-285515D01*
X57387Y-285048D01*
X57737Y-284648D01*
X58145Y-284382D01*
X58612Y-284315D01*
X59079Y-284382D01*
X59487Y-284648D01*
X59837Y-285048D01*
X60070Y-285515D01*
X60187Y-286048D01*
Y-286582D01*
X60070Y-287115D01*
X59837Y-287582D01*
X59487Y-287982D01*
X59079Y-288248D01*
X58612Y-288315D01*
G01X66870D02*
Y-284315D01*
X69554Y-288315D01*
Y-284315D01*
G01X71787Y-288315D02*
X74237Y-284315D01*
G01X71787D02*
X74237Y-288315D01*
G01X76645D02*
Y-284315D01*
X78045D01*
X78512Y-284515D01*
X78862Y-284982D01*
X78979Y-285515D01*
X78862Y-286048D01*
X78570Y-286448D01*
X78045Y-286648D01*
X76645D01*
G01X85954Y-288315D02*
X87412Y-284315D01*
X88870Y-288315D01*
G01X88345Y-286915D02*
X86479D01*
G01X90870Y-288315D02*
Y-284315D01*
X93554Y-288315D01*
Y-284315D01*
G01X95729Y-288315D02*
Y-284315D01*
X96895D01*
X97362Y-284515D01*
X97712Y-284782D01*
X98004Y-285182D01*
X98237Y-285648D01*
X98295Y-286315D01*
X98237Y-286982D01*
X98004Y-287448D01*
X97712Y-287848D01*
X97362Y-288115D01*
X96895Y-288315D01*
X95729D01*
G01X105387Y-287782D02*
X105854Y-288115D01*
X106379Y-288315D01*
X106845D01*
X107312Y-288115D01*
X107662Y-287782D01*
X107837Y-287315D01*
X107720Y-286848D01*
X107429Y-286448D01*
X106904Y-286182D01*
X106204Y-286048D01*
X105795Y-285782D01*
X105620Y-285315D01*
X105737Y-284848D01*
X106029Y-284515D01*
X106437Y-284315D01*
X106845D01*
X107254Y-284448D01*
X107604Y-284782D01*
G01X110187Y-288315D02*
Y-284315D01*
G01X112637D02*
Y-288315D01*
G01Y-286315D02*
X110187D01*
G01X114754Y-288315D02*
X116212Y-284315D01*
X117670Y-288315D01*
G01X117145Y-286915D02*
X115279D01*
G01X119845Y-284315D02*
Y-288315D01*
X122179D01*
G01X124645Y-284315D02*
Y-288315D01*
X126979D01*
G01X134070D02*
Y-284315D01*
X136754Y-288315D01*
Y-284315D01*
G01X140212Y-288315D02*
X139745Y-288248D01*
X139337Y-287982D01*
X138987Y-287582D01*
X138754Y-287115D01*
X138637Y-286582D01*
Y-286048D01*
X138754Y-285515D01*
X138987Y-285048D01*
X139337Y-284648D01*
X139745Y-284382D01*
X140212Y-284315D01*
X140679Y-284382D01*
X141087Y-284648D01*
X141437Y-285048D01*
X141670Y-285515D01*
X141787Y-286048D01*
Y-286582D01*
X141670Y-287115D01*
X141437Y-287582D01*
X141087Y-287982D01*
X140679Y-288248D01*
X140212Y-288315D01*
G01X145012Y-284315D02*
Y-288315D01*
G01X143670Y-284315D02*
X146354D01*
G01X-3788Y-276315D02*
Y-280315D01*
G01X-5130Y-276315D02*
X-2446D01*
G01X-213Y-280315D02*
Y-276315D01*
G01X2237D02*
Y-280315D01*
G01Y-278315D02*
X-213D01*
G01X5112Y-276315D02*
X6512D01*
G01X5812D02*
Y-280315D01*
G01X5112D02*
X6512D01*
G01X9387Y-279782D02*
X9854Y-280115D01*
X10379Y-280315D01*
X10845D01*
X11312Y-280115D01*
X11662Y-279782D01*
X11837Y-279315D01*
X11720Y-278848D01*
X11429Y-278448D01*
X10904Y-278182D01*
X10204Y-278048D01*
X9795Y-277782D01*
X9620Y-277315D01*
X9737Y-276848D01*
X10029Y-276515D01*
X10437Y-276315D01*
X10845D01*
X11254Y-276448D01*
X11604Y-276782D01*
G01X18929Y-280315D02*
Y-276315D01*
X20095D01*
X20562Y-276515D01*
X20912Y-276782D01*
X21204Y-277182D01*
X21437Y-277648D01*
X21495Y-278315D01*
X21437Y-278982D01*
X21204Y-279448D01*
X20912Y-279848D01*
X20562Y-280115D01*
X20095Y-280315D01*
X18929D01*
G01X25012D02*
X24545Y-280248D01*
X24137Y-279982D01*
X23787Y-279582D01*
X23554Y-279115D01*
X23437Y-278582D01*
Y-278048D01*
X23554Y-277515D01*
X23787Y-277048D01*
X24137Y-276648D01*
X24545Y-276382D01*
X25012Y-276315D01*
X25479Y-276382D01*
X25887Y-276648D01*
X26237Y-277048D01*
X26470Y-277515D01*
X26587Y-278048D01*
Y-278582D01*
X26470Y-279115D01*
X26237Y-279582D01*
X25887Y-279982D01*
X25479Y-280248D01*
X25012Y-280315D01*
G01X31095Y-276648D02*
X30745Y-276448D01*
X30337Y-276315D01*
X29870D01*
X29345Y-276515D01*
X28937Y-276848D01*
X28645Y-277248D01*
X28412Y-277915D01*
X28354Y-278515D01*
X28470Y-279115D01*
X28645Y-279515D01*
X28995Y-279915D01*
X29404Y-280182D01*
X29812Y-280315D01*
X30220D01*
X30629Y-280182D01*
X30979Y-279982D01*
X31270Y-279715D01*
G01X33329Y-276315D02*
Y-279182D01*
X33562Y-279782D01*
X34029Y-280182D01*
X34612Y-280315D01*
X35195Y-280182D01*
X35662Y-279782D01*
X35895Y-279182D01*
Y-276315D01*
G01X37895Y-280315D02*
Y-276315D01*
X39412Y-279648D01*
X40929Y-276315D01*
Y-280315D01*
G01X45379D02*
X43045D01*
Y-276315D01*
X45379D01*
G01X44445Y-278248D02*
X43045D01*
G01X47670Y-280315D02*
Y-276315D01*
X50354Y-280315D01*
Y-276315D01*
G01X53812D02*
Y-280315D01*
G01X52470Y-276315D02*
X55154D01*
G01X64695Y-276648D02*
X64345Y-276448D01*
X63937Y-276315D01*
X63470D01*
X62945Y-276515D01*
X62537Y-276848D01*
X62245Y-277248D01*
X62012Y-277915D01*
X61954Y-278515D01*
X62070Y-279115D01*
X62245Y-279515D01*
X62595Y-279915D01*
X63004Y-280182D01*
X63412Y-280315D01*
X63820D01*
X64229Y-280182D01*
X64579Y-279982D01*
X64870Y-279715D01*
G01X68212Y-280315D02*
X67745Y-280248D01*
X67337Y-279982D01*
X66987Y-279582D01*
X66754Y-279115D01*
X66637Y-278582D01*
Y-278048D01*
X66754Y-277515D01*
X66987Y-277048D01*
X67337Y-276648D01*
X67745Y-276382D01*
X68212Y-276315D01*
X68679Y-276382D01*
X69087Y-276648D01*
X69437Y-277048D01*
X69670Y-277515D01*
X69787Y-278048D01*
Y-278582D01*
X69670Y-279115D01*
X69437Y-279582D01*
X69087Y-279982D01*
X68679Y-280248D01*
X68212Y-280315D01*
G01X71670D02*
Y-276315D01*
X74354Y-280315D01*
Y-276315D01*
G01X77812D02*
Y-280315D01*
G01X76470Y-276315D02*
X79154D01*
G01X81154Y-280315D02*
X82612Y-276315D01*
X84070Y-280315D01*
G01X83545Y-278915D02*
X81679D01*
G01X86712Y-276315D02*
X88112D01*
G01X87412D02*
Y-280315D01*
G01X86712D02*
X88112D01*
G01X90870D02*
Y-276315D01*
X93554Y-280315D01*
Y-276315D01*
G01X95787Y-279782D02*
X96254Y-280115D01*
X96779Y-280315D01*
X97245D01*
X97712Y-280115D01*
X98062Y-279782D01*
X98237Y-279315D01*
X98120Y-278848D01*
X97829Y-278448D01*
X97304Y-278182D01*
X96604Y-278048D01*
X96195Y-277782D01*
X96020Y-277315D01*
X96137Y-276848D01*
X96429Y-276515D01*
X96837Y-276315D01*
X97245D01*
X97654Y-276448D01*
X98004Y-276782D01*
G01X105912Y-276315D02*
X107312D01*
G01X106612D02*
Y-280315D01*
G01X105912D02*
X107312D01*
G01X110070D02*
Y-276315D01*
X112754Y-280315D01*
Y-276315D01*
G01X115104Y-280315D02*
Y-276315D01*
X117320D01*
G01X116504Y-278248D02*
X115104D01*
G01X121012Y-280315D02*
X120545Y-280248D01*
X120137Y-279982D01*
X119787Y-279582D01*
X119554Y-279115D01*
X119437Y-278582D01*
Y-278048D01*
X119554Y-277515D01*
X119787Y-277048D01*
X120137Y-276648D01*
X120545Y-276382D01*
X121012Y-276315D01*
X121479Y-276382D01*
X121887Y-276648D01*
X122237Y-277048D01*
X122470Y-277515D01*
X122587Y-278048D01*
Y-278582D01*
X122470Y-279115D01*
X122237Y-279582D01*
X121887Y-279982D01*
X121479Y-280248D01*
X121012Y-280315D01*
G01X124645D02*
Y-276315D01*
X126104D01*
X126570Y-276515D01*
X126862Y-276782D01*
X126979Y-277315D01*
X126862Y-277848D01*
X126512Y-278182D01*
X126104Y-278382D01*
X124645D01*
G01X126104D02*
X126979Y-280315D01*
G01X129095D02*
Y-276315D01*
X130612Y-279648D01*
X132129Y-276315D01*
Y-280315D01*
G01X133954D02*
X135412Y-276315D01*
X136870Y-280315D01*
G01X136345Y-278915D02*
X134479D01*
G01X140212Y-276315D02*
Y-280315D01*
G01X138870Y-276315D02*
X141554D01*
G01X144312D02*
X145712D01*
G01X145012D02*
Y-280315D01*
G01X144312D02*
X145712D01*
G01X149812D02*
X149345Y-280248D01*
X148937Y-279982D01*
X148587Y-279582D01*
X148354Y-279115D01*
X148237Y-278582D01*
Y-278048D01*
X148354Y-277515D01*
X148587Y-277048D01*
X148937Y-276648D01*
X149345Y-276382D01*
X149812Y-276315D01*
X150279Y-276382D01*
X150687Y-276648D01*
X151037Y-277048D01*
X151270Y-277515D01*
X151387Y-278048D01*
Y-278582D01*
X151270Y-279115D01*
X151037Y-279582D01*
X150687Y-279982D01*
X150279Y-280248D01*
X149812Y-280315D01*
G01X153270D02*
Y-276315D01*
X155954Y-280315D01*
Y-276315D01*
G01X41745Y-333815D02*
Y-339815D01*
X44879D01*
G01X50552D02*
Y-333815D01*
X47654Y-338115D01*
X51570D01*
G01X53562Y-341815D02*
X58262D01*
G01X60567Y-339015D02*
X61194Y-339515D01*
X61899Y-339815D01*
X62525D01*
X63152Y-339515D01*
X63622Y-339015D01*
X63857Y-338315D01*
X63700Y-337615D01*
X63309Y-337015D01*
X62604Y-336615D01*
X61664Y-336415D01*
X61115Y-336015D01*
X60880Y-335315D01*
X61037Y-334615D01*
X61429Y-334115D01*
X61977Y-333815D01*
X62525D01*
X63074Y-334015D01*
X63544Y-334515D01*
G01X66867Y-339015D02*
X67494Y-339515D01*
X68199Y-339815D01*
X68825D01*
X69452Y-339515D01*
X69922Y-339015D01*
X70157Y-338315D01*
X70000Y-337615D01*
X69609Y-337015D01*
X68904Y-336615D01*
X67964Y-336415D01*
X67415Y-336015D01*
X67180Y-335315D01*
X67337Y-334615D01*
X67729Y-334115D01*
X68277Y-333815D01*
X68825D01*
X69374Y-334015D01*
X69844Y-334515D01*
G01X39104Y-331315D02*
Y-327315D01*
X41320D01*
G01X40504Y-329248D02*
X39104D01*
G01X44312Y-327315D02*
X45712D01*
G01X45012D02*
Y-331315D01*
G01X44312D02*
X45712D01*
G01X48645Y-327315D02*
Y-331315D01*
X50979D01*
G01X53095D02*
Y-327315D01*
X54612Y-330648D01*
X56129Y-327315D01*
Y-331315D01*
G01X163929D02*
Y-327315D01*
X165095D01*
X165562Y-327515D01*
X165912Y-327782D01*
X166204Y-328182D01*
X166437Y-328648D01*
X166495Y-329315D01*
X166437Y-329982D01*
X166204Y-330448D01*
X165912Y-330848D01*
X165562Y-331115D01*
X165095Y-331315D01*
X163929D01*
G01X168554D02*
X170012Y-327315D01*
X171470Y-331315D01*
G01X170945Y-329915D02*
X169079D01*
G01X174812Y-327315D02*
Y-331315D01*
G01X173470Y-327315D02*
X176154D01*
G01X180779Y-331315D02*
X178445D01*
Y-327315D01*
X180779D01*
G01X179845Y-329248D02*
X178445D01*
G01X163870Y-251315D02*
Y-247315D01*
X166554Y-251315D01*
Y-247315D01*
G01X168554Y-251315D02*
X170012Y-247315D01*
X171470Y-251315D01*
G01X170945Y-249915D02*
X169079D01*
G01X173295Y-251315D02*
Y-247315D01*
X174812Y-250648D01*
X176329Y-247315D01*
Y-251315D01*
G01X180779D02*
X178445D01*
Y-247315D01*
X180779D01*
G01X179845Y-249248D02*
X178445D01*
G01X245750Y172000D02*
Y178000D01*
X246690Y176800D01*
G01Y172000D02*
X244810D01*
G01X239607D02*
X239450Y173300D01*
X239215Y174400D01*
X238902Y175400D01*
X238510Y176500D01*
X237883Y178000D01*
X241017D01*
G01X233150D02*
X233777Y177800D01*
X234247Y177300D01*
X234560Y176700D01*
X234795Y175900D01*
X234873Y175000D01*
X234795Y174100D01*
X234560Y173300D01*
X234247Y172700D01*
X233777Y172200D01*
X233150Y172000D01*
X232523Y172200D01*
X232053Y172700D01*
X231740Y173300D01*
X231505Y174100D01*
X231427Y175000D01*
X231505Y175900D01*
X231740Y176700D01*
X232053Y177300D01*
X232523Y177800D01*
X233150Y178000D01*
G01X227868Y174000D02*
X225832D01*
G01X220550Y172000D02*
X220002Y172100D01*
X219375Y172400D01*
X218983Y172900D01*
X218827Y173600D01*
X218983Y174300D01*
X219453Y174900D01*
X220158Y175200D01*
X220942D01*
X221412Y175400D01*
X221803Y175900D01*
X221960Y176600D01*
X221725Y177300D01*
X221177Y177800D01*
X220550Y178000D01*
X219923Y177800D01*
X219375Y177300D01*
X219140Y176600D01*
X219297Y175900D01*
X219688Y175400D01*
X220158Y175200D01*
X220942D01*
X221647Y174900D01*
X222117Y174300D01*
X222273Y173600D01*
X222117Y172900D01*
X221725Y172400D01*
X221098Y172100D01*
X220550Y172000D01*
G01X215582Y172700D02*
X215033Y172200D01*
X214407Y172000D01*
X213780Y172200D01*
X213232Y172800D01*
X212840Y173700D01*
X212683Y174600D01*
Y175700D01*
X212840Y176600D01*
X213232Y177400D01*
X213702Y177800D01*
X214250Y178000D01*
X214877Y177800D01*
X215347Y177400D01*
X215660Y176800D01*
X215817Y176000D01*
X215660Y175300D01*
X215268Y174600D01*
X214798Y174200D01*
X214250Y174100D01*
X213623Y174300D01*
X213153Y174800D01*
X212683Y175700D01*
G01X207950Y172000D02*
Y178000D01*
X208890Y176800D01*
G01Y172000D02*
X207010D01*
G01X203138Y177000D02*
X202668Y177600D01*
X202120Y177900D01*
X201493Y178000D01*
X200710Y177800D01*
X200162Y177300D01*
X200005Y176700D01*
X200083Y176100D01*
X200397Y175600D01*
X201963Y174600D01*
X202668Y173900D01*
X203138Y172900D01*
X203295Y172000D01*
X200005D01*
G01X196682Y172700D02*
X196133Y172200D01*
X195507Y172000D01*
X194880Y172200D01*
X194332Y172800D01*
X193940Y173700D01*
X193783Y174600D01*
Y175700D01*
X193940Y176600D01*
X194332Y177400D01*
X194802Y177800D01*
X195350Y178000D01*
X195977Y177800D01*
X196447Y177400D01*
X196760Y176800D01*
X196917Y176000D01*
X196760Y175300D01*
X196368Y174600D01*
X195898Y174200D01*
X195350Y174100D01*
X194723Y174300D01*
X194253Y174800D01*
X193783Y175700D01*
G01X184317Y172000D02*
Y178000D01*
X182358D01*
X181732Y177700D01*
X181340Y177300D01*
X181183Y176500D01*
X181340Y175700D01*
X181810Y175200D01*
X182358Y174900D01*
X184317D01*
G01X182358D02*
X181183Y172000D01*
G01X174883D02*
X178017D01*
Y178000D01*
X174883D01*
G01X176137Y175100D02*
X178017D01*
G01X172108Y178000D02*
X170150Y172000D01*
X168192Y178000D01*
G01X155827Y177500D02*
X156297Y177800D01*
X156845Y178000D01*
X157472D01*
X158177Y177700D01*
X158725Y177200D01*
X159117Y176600D01*
X159430Y175600D01*
X159508Y174700D01*
X159352Y173800D01*
X159117Y173200D01*
X158647Y172600D01*
X158098Y172200D01*
X157550Y172000D01*
X157002D01*
X156453Y172200D01*
X155983Y172500D01*
X155592Y172900D01*
G01X167212Y-335315D02*
X166745Y-335448D01*
X166395Y-335782D01*
X166162Y-336182D01*
X165987Y-336715D01*
X165929Y-337315D01*
X165987Y-337915D01*
X166162Y-338448D01*
X166395Y-338848D01*
X166745Y-339182D01*
X167212Y-339315D01*
X167679Y-339182D01*
X168029Y-338848D01*
X168262Y-338448D01*
X168437Y-337915D01*
X168495Y-337315D01*
X168437Y-336715D01*
X168262Y-336182D01*
X168029Y-335782D01*
X167679Y-335448D01*
X167212Y-335315D01*
G01X170904Y-337648D02*
X171312Y-337182D01*
X171662Y-336915D01*
X172129Y-336782D01*
X172537Y-336915D01*
X172829Y-337182D01*
X173062Y-337582D01*
X173120Y-338048D01*
X173062Y-338448D01*
X172829Y-338848D01*
X172479Y-339182D01*
X172070Y-339315D01*
X171604Y-339182D01*
X171195Y-338782D01*
X170962Y-338182D01*
X170904Y-337515D01*
X171020Y-336648D01*
X171195Y-336182D01*
X171487Y-335715D01*
X171895Y-335382D01*
X172304Y-335315D01*
X172712Y-335448D01*
X173004Y-335782D01*
G01X176054Y-337982D02*
X177570D01*
G01X181612Y-339315D02*
Y-335315D01*
X180912Y-336115D01*
G01Y-339315D02*
X182312D01*
G01X185304Y-335982D02*
X185654Y-335582D01*
X186062Y-335382D01*
X186529Y-335315D01*
X187112Y-335448D01*
X187520Y-335782D01*
X187637Y-336182D01*
X187579Y-336582D01*
X187345Y-336915D01*
X186179Y-337582D01*
X185654Y-338048D01*
X185304Y-338715D01*
X185187Y-339315D01*
X187637D01*
G01X190454Y-337982D02*
X191970D01*
G01X194904Y-335982D02*
X195254Y-335582D01*
X195662Y-335382D01*
X196129Y-335315D01*
X196712Y-335448D01*
X197120Y-335782D01*
X197237Y-336182D01*
X197179Y-336582D01*
X196945Y-336915D01*
X195779Y-337582D01*
X195254Y-338048D01*
X194904Y-338715D01*
X194787Y-339315D01*
X197237D01*
G01X201512D02*
Y-335315D01*
X199354Y-338182D01*
X202270D01*
G01X173462Y-317148D02*
X176962D01*
G01X178262D02*
X181762D01*
G01X183062D02*
X186562D01*
G01X195695Y-312148D02*
X195345Y-311948D01*
X194937Y-311815D01*
X194470D01*
X193945Y-312015D01*
X193537Y-312348D01*
X193245Y-312748D01*
X193012Y-313415D01*
X192954Y-314015D01*
X193070Y-314615D01*
X193245Y-315015D01*
X193595Y-315415D01*
X194004Y-315682D01*
X194412Y-315815D01*
X194820D01*
X195229Y-315682D01*
X195579Y-315482D01*
X195870Y-315215D01*
G01X199212Y-315815D02*
X198745Y-315748D01*
X198337Y-315482D01*
X197987Y-315082D01*
X197754Y-314615D01*
X197637Y-314082D01*
Y-313548D01*
X197754Y-313015D01*
X197987Y-312548D01*
X198337Y-312148D01*
X198745Y-311882D01*
X199212Y-311815D01*
X199679Y-311882D01*
X200087Y-312148D01*
X200437Y-312548D01*
X200670Y-313015D01*
X200787Y-313548D01*
Y-314082D01*
X200670Y-314615D01*
X200437Y-315082D01*
X200087Y-315482D01*
X199679Y-315748D01*
X199212Y-315815D01*
G01X202495D02*
Y-311815D01*
X204012Y-315148D01*
X205529Y-311815D01*
Y-315815D01*
G01X207645D02*
Y-311815D01*
X209045D01*
X209512Y-312015D01*
X209862Y-312482D01*
X209979Y-313015D01*
X209862Y-313548D01*
X209570Y-313948D01*
X209045Y-314148D01*
X207645D01*
G01X212154Y-315815D02*
X213612Y-311815D01*
X215070Y-315815D01*
G01X214545Y-314415D02*
X212679D01*
G01X217070Y-315815D02*
Y-311815D01*
X219754Y-315815D01*
Y-311815D01*
G01X223212Y-315815D02*
Y-314015D01*
X222045Y-311815D01*
G01X224379D02*
X223212Y-314015D01*
G01X234095Y-312148D02*
X233745Y-311948D01*
X233337Y-311815D01*
X232870D01*
X232345Y-312015D01*
X231937Y-312348D01*
X231645Y-312748D01*
X231412Y-313415D01*
X231354Y-314015D01*
X231470Y-314615D01*
X231645Y-315015D01*
X231995Y-315415D01*
X232404Y-315682D01*
X232812Y-315815D01*
X233220D01*
X233629Y-315682D01*
X233979Y-315482D01*
X234270Y-315215D01*
G01X237612Y-315815D02*
X237145Y-315748D01*
X236737Y-315482D01*
X236387Y-315082D01*
X236154Y-314615D01*
X236037Y-314082D01*
Y-313548D01*
X236154Y-313015D01*
X236387Y-312548D01*
X236737Y-312148D01*
X237145Y-311882D01*
X237612Y-311815D01*
X238079Y-311882D01*
X238487Y-312148D01*
X238837Y-312548D01*
X239070Y-313015D01*
X239187Y-313548D01*
Y-314082D01*
X239070Y-314615D01*
X238837Y-315082D01*
X238487Y-315482D01*
X238079Y-315748D01*
X237612Y-315815D01*
G01X241070D02*
Y-311815D01*
X243754Y-315815D01*
Y-311815D01*
G01X246104Y-315815D02*
Y-311815D01*
X248320D01*
G01X247504Y-313748D02*
X246104D01*
G01X251312Y-311815D02*
X252712D01*
G01X252012D02*
Y-315815D01*
G01X251312D02*
X252712D01*
G01X255529D02*
Y-311815D01*
X256695D01*
X257162Y-312015D01*
X257512Y-312282D01*
X257804Y-312682D01*
X258037Y-313148D01*
X258095Y-313815D01*
X258037Y-314482D01*
X257804Y-314948D01*
X257512Y-315348D01*
X257162Y-315615D01*
X256695Y-315815D01*
X255529D01*
G01X262779D02*
X260445D01*
Y-311815D01*
X262779D01*
G01X261845Y-313748D02*
X260445D01*
G01X265070Y-315815D02*
Y-311815D01*
X267754Y-315815D01*
Y-311815D01*
G01X271212D02*
Y-315815D01*
G01X269870Y-311815D02*
X272554D01*
G01X275312D02*
X276712D01*
G01X276012D02*
Y-315815D01*
G01X275312D02*
X276712D01*
G01X279354D02*
X280812Y-311815D01*
X282270Y-315815D01*
G01X281745Y-314415D02*
X279879D01*
G01X284445Y-311815D02*
Y-315815D01*
X286779D01*
G01X178167Y-300315D02*
X181457Y-294015D01*
G01X178167D02*
X181457Y-300315D01*
G01X173462Y-300648D02*
X176962D01*
G01X178262D02*
X181762D01*
G01X183062D02*
X186562D01*
G01X195695Y-295648D02*
X195345Y-295448D01*
X194937Y-295315D01*
X194470D01*
X193945Y-295515D01*
X193537Y-295848D01*
X193245Y-296248D01*
X193012Y-296915D01*
X192954Y-297515D01*
X193070Y-298115D01*
X193245Y-298515D01*
X193595Y-298915D01*
X194004Y-299182D01*
X194412Y-299315D01*
X194820D01*
X195229Y-299182D01*
X195579Y-298982D01*
X195870Y-298715D01*
G01X199212Y-299315D02*
X198745Y-299248D01*
X198337Y-298982D01*
X197987Y-298582D01*
X197754Y-298115D01*
X197637Y-297582D01*
Y-297048D01*
X197754Y-296515D01*
X197987Y-296048D01*
X198337Y-295648D01*
X198745Y-295382D01*
X199212Y-295315D01*
X199679Y-295382D01*
X200087Y-295648D01*
X200437Y-296048D01*
X200670Y-296515D01*
X200787Y-297048D01*
Y-297582D01*
X200670Y-298115D01*
X200437Y-298582D01*
X200087Y-298982D01*
X199679Y-299248D01*
X199212Y-299315D01*
G01X202495D02*
Y-295315D01*
X204012Y-298648D01*
X205529Y-295315D01*
Y-299315D01*
G01X207645D02*
Y-295315D01*
X209045D01*
X209512Y-295515D01*
X209862Y-295982D01*
X209979Y-296515D01*
X209862Y-297048D01*
X209570Y-297448D01*
X209045Y-297648D01*
X207645D01*
G01X212154Y-299315D02*
X213612Y-295315D01*
X215070Y-299315D01*
G01X214545Y-297915D02*
X212679D01*
G01X217070Y-299315D02*
Y-295315D01*
X219754Y-299315D01*
Y-295315D01*
G01X223212Y-299315D02*
Y-297515D01*
X222045Y-295315D01*
G01X224379D02*
X223212Y-297515D01*
G01X232112Y-295315D02*
X233512D01*
G01X232812D02*
Y-299315D01*
G01X232112D02*
X233512D01*
G01X236270D02*
Y-295315D01*
X238954Y-299315D01*
Y-295315D01*
G01X242412D02*
Y-299315D01*
G01X241070Y-295315D02*
X243754D01*
G01X248379Y-299315D02*
X246045D01*
Y-295315D01*
X248379D01*
G01X247445Y-297248D02*
X246045D01*
G01X250845Y-299315D02*
Y-295315D01*
X252304D01*
X252770Y-295515D01*
X253062Y-295782D01*
X253179Y-296315D01*
X253062Y-296848D01*
X252712Y-297182D01*
X252304Y-297382D01*
X250845D01*
G01X252304D02*
X253179Y-299315D01*
G01X255470D02*
Y-295315D01*
X258154Y-299315D01*
Y-295315D01*
G01X260154Y-299315D02*
X261612Y-295315D01*
X263070Y-299315D01*
G01X262545Y-297915D02*
X260679D01*
G01X265245Y-295315D02*
Y-299315D01*
X267579D01*
G01X173462Y-284648D02*
X176962D01*
G01X178262D02*
X181762D01*
G01X183062D02*
X186562D01*
G01X195695Y-279648D02*
X195345Y-279448D01*
X194937Y-279315D01*
X194470D01*
X193945Y-279515D01*
X193537Y-279848D01*
X193245Y-280248D01*
X193012Y-280915D01*
X192954Y-281515D01*
X193070Y-282115D01*
X193245Y-282515D01*
X193595Y-282915D01*
X194004Y-283182D01*
X194412Y-283315D01*
X194820D01*
X195229Y-283182D01*
X195579Y-282982D01*
X195870Y-282715D01*
G01X199212Y-283315D02*
X198745Y-283248D01*
X198337Y-282982D01*
X197987Y-282582D01*
X197754Y-282115D01*
X197637Y-281582D01*
Y-281048D01*
X197754Y-280515D01*
X197987Y-280048D01*
X198337Y-279648D01*
X198745Y-279382D01*
X199212Y-279315D01*
X199679Y-279382D01*
X200087Y-279648D01*
X200437Y-280048D01*
X200670Y-280515D01*
X200787Y-281048D01*
Y-281582D01*
X200670Y-282115D01*
X200437Y-282582D01*
X200087Y-282982D01*
X199679Y-283248D01*
X199212Y-283315D01*
G01X202495D02*
Y-279315D01*
X204012Y-282648D01*
X205529Y-279315D01*
Y-283315D01*
G01X207645D02*
Y-279315D01*
X209045D01*
X209512Y-279515D01*
X209862Y-279982D01*
X209979Y-280515D01*
X209862Y-281048D01*
X209570Y-281448D01*
X209045Y-281648D01*
X207645D01*
G01X212154Y-283315D02*
X213612Y-279315D01*
X215070Y-283315D01*
G01X214545Y-281915D02*
X212679D01*
G01X217070Y-283315D02*
Y-279315D01*
X219754Y-283315D01*
Y-279315D01*
G01X223212Y-283315D02*
Y-281515D01*
X222045Y-279315D01*
G01X224379D02*
X223212Y-281515D01*
G01X231645Y-283315D02*
Y-279315D01*
X233045D01*
X233512Y-279515D01*
X233862Y-279982D01*
X233979Y-280515D01*
X233862Y-281048D01*
X233570Y-281448D01*
X233045Y-281648D01*
X231645D01*
G01X236329Y-279315D02*
Y-282182D01*
X236562Y-282782D01*
X237029Y-283182D01*
X237612Y-283315D01*
X238195Y-283182D01*
X238662Y-282782D01*
X238895Y-282182D01*
Y-279315D01*
G01X242879Y-281182D02*
X243112Y-280982D01*
X243287Y-280648D01*
X243404Y-280182D01*
X243287Y-279782D01*
X243054Y-279515D01*
X242645Y-279315D01*
X241070D01*
Y-283315D01*
X242995D01*
X243404Y-283048D01*
X243637Y-282648D01*
X243754Y-282182D01*
X243637Y-281715D01*
X243287Y-281315D01*
X242879Y-281182D01*
X241070D01*
G01X246045Y-279315D02*
Y-283315D01*
X248379D01*
G01X251312Y-279315D02*
X252712D01*
G01X252012D02*
Y-283315D01*
G01X251312D02*
X252712D01*
G01X258095Y-279648D02*
X257745Y-279448D01*
X257337Y-279315D01*
X256870D01*
X256345Y-279515D01*
X255937Y-279848D01*
X255645Y-280248D01*
X255412Y-280915D01*
X255354Y-281515D01*
X255470Y-282115D01*
X255645Y-282515D01*
X255995Y-282915D01*
X256404Y-283182D01*
X256812Y-283315D01*
X257220D01*
X257629Y-283182D01*
X257979Y-282982D01*
X258270Y-282715D01*
G01X213870Y-331315D02*
Y-327315D01*
X216554Y-331315D01*
Y-327315D01*
G01X218729D02*
Y-330182D01*
X218962Y-330782D01*
X219429Y-331182D01*
X220012Y-331315D01*
X220595Y-331182D01*
X221062Y-330782D01*
X221295Y-330182D01*
Y-327315D01*
G01X223295Y-331315D02*
Y-327315D01*
X224812Y-330648D01*
X226329Y-327315D01*
Y-331315D01*
G01X230079Y-329182D02*
X230312Y-328982D01*
X230487Y-328648D01*
X230604Y-328182D01*
X230487Y-327782D01*
X230254Y-327515D01*
X229845Y-327315D01*
X228270D01*
Y-331315D01*
X230195D01*
X230604Y-331048D01*
X230837Y-330648D01*
X230954Y-330182D01*
X230837Y-329715D01*
X230487Y-329315D01*
X230079Y-329182D01*
X228270D01*
G01X235579Y-331315D02*
X233245D01*
Y-327315D01*
X235579D01*
G01X234645Y-329248D02*
X233245D01*
G01X238045Y-331315D02*
Y-327315D01*
X239504D01*
X239970Y-327515D01*
X240262Y-327782D01*
X240379Y-328315D01*
X240262Y-328848D01*
X239912Y-329182D01*
X239504Y-329382D01*
X238045D01*
G01X239504D02*
X240379Y-331315D01*
G01X248812Y-338515D02*
Y-332215D01*
X247872Y-333475D01*
G01Y-338515D02*
X249752D01*
G01X254955D02*
X255112Y-337150D01*
X255347Y-335995D01*
X255660Y-334945D01*
X256052Y-333790D01*
X256679Y-332215D01*
X253545D01*
G01X261412D02*
X260785Y-332425D01*
X260315Y-332950D01*
X260002Y-333580D01*
X259767Y-334420D01*
X259689Y-335365D01*
X259767Y-336310D01*
X260002Y-337150D01*
X260315Y-337780D01*
X260785Y-338305D01*
X261412Y-338515D01*
X262039Y-338305D01*
X262509Y-337780D01*
X262822Y-337150D01*
X263057Y-336310D01*
X263135Y-335365D01*
X263057Y-334420D01*
X262822Y-333580D01*
X262509Y-332950D01*
X262039Y-332425D01*
X261412Y-332215D01*
G01X266694Y-336415D02*
X268730D01*
G01X274012Y-338515D02*
X274560Y-338410D01*
X275187Y-338095D01*
X275579Y-337570D01*
X275735Y-336835D01*
X275579Y-336100D01*
X275109Y-335470D01*
X274404Y-335155D01*
X273620D01*
X273150Y-334945D01*
X272759Y-334420D01*
X272602Y-333685D01*
X272837Y-332950D01*
X273385Y-332425D01*
X274012Y-332215D01*
X274639Y-332425D01*
X275187Y-332950D01*
X275422Y-333685D01*
X275265Y-334420D01*
X274874Y-334945D01*
X274404Y-335155D01*
X273620D01*
X272915Y-335470D01*
X272445Y-336100D01*
X272289Y-336835D01*
X272445Y-337570D01*
X272837Y-338095D01*
X273464Y-338410D01*
X274012Y-338515D01*
G01X278980Y-337780D02*
X279529Y-338305D01*
X280155Y-338515D01*
X280782Y-338305D01*
X281330Y-337675D01*
X281722Y-336730D01*
X281879Y-335785D01*
Y-334630D01*
X281722Y-333685D01*
X281330Y-332845D01*
X280860Y-332425D01*
X280312Y-332215D01*
X279685Y-332425D01*
X279215Y-332845D01*
X278902Y-333475D01*
X278745Y-334315D01*
X278902Y-335050D01*
X279294Y-335785D01*
X279764Y-336205D01*
X280312Y-336310D01*
X280939Y-336100D01*
X281409Y-335575D01*
X281879Y-334630D01*
G01X286612Y-338515D02*
Y-332215D01*
X285672Y-333475D01*
G01Y-338515D02*
X287552D01*
G01X291424Y-333265D02*
X291894Y-332635D01*
X292442Y-332320D01*
X293069Y-332215D01*
X293852Y-332425D01*
X294400Y-332950D01*
X294557Y-333580D01*
X294479Y-334210D01*
X294165Y-334735D01*
X292599Y-335785D01*
X291894Y-336520D01*
X291424Y-337570D01*
X291267Y-338515D01*
X294557D01*
G01X297880Y-337780D02*
X298429Y-338305D01*
X299055Y-338515D01*
X299682Y-338305D01*
X300230Y-337675D01*
X300622Y-336730D01*
X300779Y-335785D01*
Y-334630D01*
X300622Y-333685D01*
X300230Y-332845D01*
X299760Y-332425D01*
X299212Y-332215D01*
X298585Y-332425D01*
X298115Y-332845D01*
X297802Y-333475D01*
X297645Y-334315D01*
X297802Y-335050D01*
X298194Y-335785D01*
X298664Y-336205D01*
X299212Y-336310D01*
X299839Y-336100D01*
X300309Y-335575D01*
X300779Y-334630D01*
G01X341745Y-338515D02*
Y-332215D01*
X343704D01*
X344330Y-332530D01*
X344722Y-332950D01*
X344879Y-333790D01*
X344722Y-334630D01*
X344252Y-335155D01*
X343704Y-335470D01*
X341745D01*
G01X343704D02*
X344879Y-338515D01*
G01X351179D02*
X348045D01*
Y-332215D01*
X351179D01*
G01X349925Y-335260D02*
X348045D01*
G01X353954Y-332215D02*
X355912Y-338515D01*
X357870Y-332215D01*
G01X370235Y-332740D02*
X369765Y-332425D01*
X369217Y-332215D01*
X368590D01*
X367885Y-332530D01*
X367337Y-333055D01*
X366945Y-333685D01*
X366632Y-334735D01*
X366554Y-335680D01*
X366710Y-336625D01*
X366945Y-337255D01*
X367415Y-337885D01*
X367964Y-338305D01*
X368512Y-338515D01*
X369060D01*
X369609Y-338305D01*
X370079Y-337990D01*
X370470Y-337570D01*
G01X239995Y-261415D02*
Y-255115D01*
X241875D01*
X242502Y-255430D01*
X242972Y-256165D01*
X243129Y-257005D01*
X242972Y-257845D01*
X242580Y-258475D01*
X241875Y-258790D01*
X239995D01*
G01X246060Y-261415D02*
Y-255115D01*
X249664Y-261415D01*
Y-255115D01*
G01X255729Y-261415D02*
X252595D01*
Y-255115D01*
X255729D01*
G01X254475Y-258160D02*
X252595D01*
G01X258504Y-255115D02*
X260462Y-261415D01*
X262420Y-255115D01*
G01X266605Y-261415D02*
X266762Y-260050D01*
X266997Y-258895D01*
X267310Y-257845D01*
X267702Y-256690D01*
X268329Y-255115D01*
X265195D01*
G01X271574Y-256165D02*
X272044Y-255535D01*
X272592Y-255220D01*
X273219Y-255115D01*
X274002Y-255325D01*
X274550Y-255850D01*
X274707Y-256480D01*
X274629Y-257110D01*
X274315Y-257635D01*
X272749Y-258685D01*
X272044Y-259420D01*
X271574Y-260470D01*
X271417Y-261415D01*
X274707D01*
G01X277874Y-256165D02*
X278344Y-255535D01*
X278892Y-255220D01*
X279519Y-255115D01*
X280302Y-255325D01*
X280850Y-255850D01*
X281007Y-256480D01*
X280929Y-257110D01*
X280615Y-257635D01*
X279049Y-258685D01*
X278344Y-259420D01*
X277874Y-260470D01*
X277717Y-261415D01*
X281007D01*
G01X285662Y-255115D02*
X285035Y-255325D01*
X284565Y-255850D01*
X284252Y-256480D01*
X284017Y-257320D01*
X283939Y-258265D01*
X284017Y-259210D01*
X284252Y-260050D01*
X284565Y-260680D01*
X285035Y-261205D01*
X285662Y-261415D01*
X286289Y-261205D01*
X286759Y-260680D01*
X287072Y-260050D01*
X287307Y-259210D01*
X287385Y-258265D01*
X287307Y-257320D01*
X287072Y-256480D01*
X286759Y-255850D01*
X286289Y-255325D01*
X285662Y-255115D01*
G01X292589Y-258055D02*
X292902Y-257740D01*
X293137Y-257215D01*
X293294Y-256480D01*
X293137Y-255850D01*
X292824Y-255430D01*
X292275Y-255115D01*
X290160D01*
Y-261415D01*
X292745D01*
X293294Y-260995D01*
X293607Y-260365D01*
X293764Y-259630D01*
X293607Y-258895D01*
X293137Y-258265D01*
X292589Y-258055D01*
X290160D01*
G01X296695Y-261415D02*
Y-255115D01*
X298575D01*
X299202Y-255430D01*
X299672Y-256165D01*
X299829Y-257005D01*
X299672Y-257845D01*
X299280Y-258475D01*
X298575Y-258790D01*
X296695D01*
G01X304562Y-261415D02*
Y-255115D01*
X303622Y-256375D01*
G01Y-261415D02*
X305502D01*
G54D23*
X298585Y195650D03*
X332601D03*
G54D14*
X-22606Y105659D03*
Y95659D03*
Y85659D03*
Y135659D03*
Y125659D03*
Y115659D03*
X-2321Y105600D03*
Y95600D03*
Y85600D03*
Y135600D03*
Y125600D03*
Y115600D03*
G54D33*
G01X22283Y149685D02*
Y155196D01*
X19829Y157650D01*
Y194950D01*
X15879Y198900D01*
X12679D01*
X11579Y200000D01*
Y208000D01*
X20879Y217300D01*
X238320D01*
X252213Y203407D01*
G01X77100Y69800D02*
X71900Y64600D01*
Y22279D01*
X76779Y17400D01*
Y5300D01*
X74979Y3500D01*
X36573D01*
X31783Y-1290D01*
G01X66213Y203407D02*
Y183715D01*
X51783Y169285D01*
Y152185D01*
X46323Y146725D01*
Y67008D01*
X43500Y64185D01*
G01X56213Y203407D02*
Y175931D01*
X49783Y169501D01*
Y152901D01*
X43500Y146618D01*
Y69185D01*
G01X23283Y142185D02*
Y148183D01*
X24400Y149300D01*
Y154479D01*
X20779Y158100D01*
Y209900D01*
X26279Y215400D01*
X230220D01*
X242213Y203407D01*
G01X232213D02*
X222120Y213500D01*
X26279D01*
X23179Y210400D01*
Y205995D01*
X22238Y205054D01*
Y158441D01*
X25700Y154979D01*
Y148011D01*
X25100Y147411D01*
Y145685D01*
G01X26213Y203407D02*
Y210113D01*
X28000Y211900D01*
X84400D01*
X91600Y204700D01*
Y200100D01*
X99300Y192400D01*
X120300D01*
X134539Y178161D01*
Y159039D01*
X118800Y143300D01*
Y87211D01*
G01X48283Y72211D02*
Y146185D01*
X53783Y151685D01*
Y169285D01*
X68783Y184285D01*
Y195977D01*
X76213Y203407D01*
G01X48283Y67185D02*
X50283Y69185D01*
Y145185D01*
X55283Y150185D01*
Y167785D01*
X70883Y183385D01*
Y188077D01*
X86213Y203407D01*
G01X94800Y51185D02*
X100285Y45700D01*
X149100D01*
X165100Y61700D01*
Y128100D01*
X171450Y134450D01*
X222550D01*
X225700Y137600D01*
X323560D01*
X324660Y136500D01*
X339160D01*
X340060Y137400D01*
X342600D01*
X345300Y134700D01*
X348200D01*
G01X122213Y203407D02*
X141025Y184595D01*
Y162585D01*
X139200Y160760D01*
Y160720D01*
X138525Y160045D01*
Y155501D01*
X124250Y141226D01*
Y74050D01*
X119800Y69600D01*
Y56999D01*
X111001Y48200D01*
X101485D01*
X98500Y51185D01*
G01X83500D02*
X92500Y42185D01*
X136783D01*
X142283Y36685D01*
G01X88500Y51185D02*
X95585Y44100D01*
X139868D01*
X147283Y36685D01*
G01X96213Y203407D02*
X105120Y194500D01*
X122100D01*
X136079Y180521D01*
Y156279D01*
X120525Y140725D01*
Y85025D01*
X115300Y79800D01*
Y62985D01*
X103500Y51185D01*
G01X106213Y203407D02*
X113220Y196400D01*
X123600D01*
X137575Y182425D01*
Y155895D01*
X122200Y140520D01*
Y82800D01*
X120283Y80883D01*
Y77211D01*
G01X121783Y27185D02*
X124783D01*
G01X107383Y39185D02*
X136415D01*
X142400Y33200D01*
X147900D01*
X151200Y36500D01*
Y44421D01*
X168100Y61321D01*
Y127900D01*
X173100Y132900D01*
X219060D01*
X222085Y129875D01*
X224675D01*
X227700Y132900D01*
X316000D01*
X317650Y134550D01*
X329415D01*
X331765Y132200D01*
X357200D01*
X359500Y129900D01*
G01X132283Y82211D02*
X125300Y89194D01*
Y139300D01*
X139600Y153600D01*
Y159620D01*
X142679Y162699D01*
Y162855D01*
X142829Y163005D01*
Y184135D01*
X142679Y184285D01*
Y184300D01*
X138499Y188480D01*
Y197121D01*
X132213Y203407D01*
G01X128683Y89711D02*
X133900Y94928D01*
Y132900D01*
X140900Y139900D01*
X324762D01*
X326000Y138662D01*
G01X128783Y97211D02*
X131700Y100128D01*
Y135200D01*
X141100Y144600D01*
X313074D01*
X313574Y144100D01*
X315300D01*
G01X197700Y67930D02*
Y94000D01*
X201500Y97800D01*
X339600D01*
X342900Y101100D01*
Y126900D01*
X345800Y129800D01*
X353100D01*
G01X199900Y83400D02*
Y91600D01*
X202560Y94260D01*
X246798D01*
X248738Y96200D01*
X373600D01*
X381600Y88200D01*
Y81200D01*
G01X328900Y132625D02*
X333000Y128525D01*
Y103900D01*
X328400Y99300D01*
X203326D01*
X197739Y104887D01*
G01X321718Y132625D02*
X324100Y130243D01*
Y116600D01*
X324000Y116500D01*
Y103000D01*
X321500Y100500D01*
X212126D01*
X207739Y104887D01*
G01X222800Y131600D02*
X226700Y135500D01*
X330301D01*
X332651Y133150D01*
X338250D01*
X340100Y135000D01*
G01X201200Y146700D02*
X205100Y150600D01*
Y151050D01*
X205550Y151500D01*
X352600D01*
X375000Y129100D01*
X386200D01*
X404100Y111200D01*
Y68500D01*
G01Y61300D02*
X402050Y63350D01*
Y111894D01*
X401300Y112644D01*
Y112656D01*
X385806Y128150D01*
X374450D01*
X352300Y150300D01*
X224700D01*
X221400Y147000D01*
G01X270600Y146400D02*
X273550Y149350D01*
X351450D01*
X373600Y127200D01*
X385412D01*
X395300Y117312D01*
Y117300D01*
X401100Y111500D01*
Y52200D01*
G01X399900Y44700D02*
X398679Y45921D01*
Y112577D01*
X385056Y126200D01*
X373000D01*
X352700Y146500D01*
X307700D01*
G01X336700Y138500D02*
X339200Y141000D01*
X355900D01*
X377739Y119161D01*
Y114887D01*
G01X343600Y138900D02*
X356000D01*
X372000Y122900D01*
Y109148D01*
X367739Y104887D01*
G01X383800Y19200D02*
X385526D01*
X385626Y19300D01*
X398900D01*
X410000Y30400D01*
Y110400D01*
X390446Y129954D01*
Y143515D01*
G01X392779Y14000D02*
X396579D01*
G01X386228Y31100D02*
X392428Y37300D01*
X398501D01*
X406500Y45299D01*
Y111100D01*
X383400Y134200D01*
X376450D01*
X374946Y135704D01*
Y144015D01*
G01X396779Y24100D02*
X391079D01*
G01X389879Y41300D02*
X395979D01*
G01X391679Y49100D02*
X395779D01*
G01Y64700D02*
X390579D01*
G01X389879Y57000D02*
X395379D01*
G01X396700Y81200D02*
X392555D01*
X392455Y81100D01*
X390479D01*
G01X375000Y160500D02*
X380500Y155000D01*
X385100D01*
X387700Y152400D01*
Y137872D01*
X386028Y136200D01*
X382883D01*
G01X382846Y147715D02*
Y149991D01*
X382900Y150045D01*
Y151583D01*
X382883Y151600D01*
G01X406500Y142915D02*
Y145301D01*
X404586Y147215D01*
X398346D01*
G54D15*
X14479Y17000D03*
X-1621Y19200D03*
X279Y197600D03*
X979Y211400D03*
X31783Y8710D03*
Y18710D03*
X33783Y188685D03*
X81783Y177185D03*
X119283Y172185D03*
X157500Y81880D03*
X197739Y104887D03*
X187739Y114887D03*
X197739D03*
X219085Y51650D03*
X207739Y104887D03*
X217739D03*
X207739Y114887D03*
X217739D03*
X229085Y77685D03*
X255400Y86730D03*
X227739Y104887D03*
X237739D03*
X247739D03*
X227739Y114887D03*
X237739D03*
X247739D03*
X283000Y71800D03*
X273000D03*
Y81800D03*
X257739Y104887D03*
X267739D03*
X277739D03*
X257739Y114887D03*
X267739D03*
X277739D03*
X287739Y104887D03*
X297739D03*
X307739D03*
X287739Y114887D03*
X297739D03*
X307739D03*
X302638Y162608D03*
X317739Y104887D03*
X327739D03*
X337739D03*
X317739Y114887D03*
X327739D03*
X337739D03*
X335000Y160500D03*
X347739Y104887D03*
X357739D03*
X367739D03*
X347739Y114887D03*
X357739D03*
X367739D03*
X345000Y160500D03*
X355000D03*
X365000D03*
X383783Y585D03*
X377739Y104887D03*
Y114887D03*
X375000Y160500D03*
X385000D03*
X395000D03*
G54D24*
X298585Y216752D03*
X332601D03*
G54D25*
X338400Y-115D03*
X359384Y206235D03*
G54D16*
X31783Y-1290D03*
X43783Y188685D03*
X81783Y187185D03*
X119283Y182185D03*
X187739Y104887D03*
X209085Y51650D03*
X229085Y67685D03*
X283000Y81800D03*
X325000Y160500D03*
G54D17*
X58500Y132685D03*
X64500D03*
X75283Y125685D03*
X63783Y162685D03*
X69783D03*
Y156185D03*
X63783D03*
X81283Y125685D03*
X88783Y161685D03*
X94783D03*
Y155185D03*
X88783D03*
X263183Y54485D03*
X269183D03*
X263183Y60485D03*
X269183D03*
G54D26*
X340183Y41700D03*
Y47700D03*
X341383Y70785D03*
Y76785D03*
X346700Y41700D03*
Y47700D03*
X347900Y70784D03*
Y76784D03*
X345505Y60455D03*
Y54455D03*
X346705Y92700D03*
Y86700D03*
G54D18*
X75807Y130685D03*
X78759D03*
G54D27*
X392779Y14000D03*
X385179D03*
X391679Y49100D03*
X384079D03*
G54D28*
X382846Y140315D03*
Y147715D03*
X374946Y144015D03*
X398346Y139815D03*
Y147215D03*
X390446Y143515D03*
G54D19*
X75283Y134685D03*
X67783Y147685D03*
X63783D03*
X75283Y157685D03*
Y161685D03*
X79283Y134685D03*
X93383Y147685D03*
X89383D03*
X100783Y156685D03*
Y160685D03*
X128783Y27185D03*
X124783D03*
X184204Y126335D03*
X188204D03*
X277500Y57585D03*
Y53585D03*
X339683Y59200D03*
Y55200D03*
X340983Y91500D03*
Y87500D03*
X336283Y183000D03*
Y179000D03*
X329800Y183500D03*
Y179500D03*
X352700Y38100D03*
X356700D03*
X352350Y66450D03*
X356350D03*
X387079Y24100D03*
X391079D03*
X385879Y41300D03*
X389879D03*
X385879Y57000D03*
X389879D03*
X386579Y64700D03*
X390579D03*
X386479Y81100D03*
X390479D03*
G54D29*
G01X-14538Y-323315D02*
X385462D01*
G01X-14538Y-293315D02*
Y-273315D01*
X385462D01*
G01X35462Y-343315D02*
Y-323315D01*
G01X160962Y-343315D02*
Y-323315D01*
G01X160462Y-273315D02*
Y-243315D01*
G01X210462Y-343315D02*
Y-323315D01*
M02*
