G04 ================== begin FILE IDENTIFICATION RECORD ==================*
G04 Layout Name:  LAY-89129_C.brd*
G04 Film Name:    ssp.art*
G04 File Format:  Gerber RS274X*
G04 File Origin:  Cadence Allegro 17.4-S037*
G04 Origin Date:  Wed Jun 12 20:14:21 2024*
G04 *
G04 Layer:  PIN/PASTEMASK_BOTTOM*
G04 Layer:  PACKAGE GEOMETRY/PASTEMASK_BOTTOM*
G04 Layer:  DRAWING FORMAT/FILM_TITLE_BLOCK*
G04 Layer:  BOARD GEOMETRY/DESIGN_OUTLINE*
G04 Layer:  BOARD GEOMETRY/CUTOUT*
G04 Layer:  BOARD GEOMETRY/PASTEMASK_BOTTOM*
G04 *
G04 Offset:    (0.00 0.00)*
G04 Mirror:    No*
G04 Mode:      Positive*
G04 Rotation:  0*
G04 FullContactRelief:  No*
G04 UndefLineWidth:     8.00*
G04 ================== end FILE IDENTIFICATION RECORD ====================*
%FSLAX55Y55*MOIN*%
%IR0*IPPOS*OFA0.00000B0.00000*MIA0B0*SFA1.00000B1.00000*%
%ADD12C,.025*%
%ADD15R,.035X.031*%
%ADD14O,.035X.06*%
%ADD11R,.018X.02*%
%ADD13O,.045X.035*%
%ADD10O,.035X.045*%
%ADD16C,.01*%
%ADD17C,.02*%
%ADD18C,.008*%
%ADD19C,.006*%
G75*
%LPD*%
G75*
G36*
G01X173061Y4804D02*
G03X175925Y-2111I11205J590D01*
G01X177640Y-396D01*
G02X175486Y4804I6626J5791D01*
G01X173061D01*
G37*
G36*
G01X176760Y-2946D02*
G03X183675Y-5810I7505J8341D01*
G01Y-3385D01*
G02X178475Y-1231I591J8780D01*
G01X176760Y-2946D01*
G37*
G36*
G01X184857Y-5810D02*
G03X191772Y-2946I-590J11205D01*
G01X190057Y-1231D01*
G02X184857Y-3385I-5791J6626D01*
G01Y-5810D01*
G37*
G36*
G01X192607Y-2111D02*
G03X195471Y4804I-8341J7505D01*
G01X193046D01*
G02X190892Y-396I-8780J591D01*
G01X192607Y-2111D01*
G37*
G36*
G01X195471Y5986D02*
G03X192607Y12901I-11205J-590D01*
G01X190892Y11186D01*
G02X193046Y5986I-6626J-5791D01*
G01X195471D01*
G37*
G36*
G01X191772Y13736D02*
G03X184857Y16600I-7505J-8341D01*
G01Y14175D01*
G02X190057Y12021I-591J-8780D01*
G01X191772Y13736D01*
G37*
G36*
G01X183675Y16600D02*
G03X176760Y13736I590J-11205D01*
G01X178475Y12021D01*
G02X183675Y14175I5791J-6626D01*
G01Y16600D01*
G37*
G36*
G01X175925Y12901D02*
G03X173061Y5986I8341J-7505D01*
G01X175486D01*
G02X177640Y11186I8780J-591D01*
G01X175925Y12901D01*
G37*
G36*
G01X352264D02*
G03X349400Y5986I8341J-7505D01*
G01X351825D01*
G02X353979Y11186I8780J-591D01*
G01X352264Y12901D01*
G37*
G36*
G01X360014Y16600D02*
G03X353099Y13736I590J-11205D01*
G01X354814Y12021D01*
G02X360014Y14175I5791J-6626D01*
G01Y16600D01*
G37*
G36*
G01X368111Y13736D02*
G03X361196Y16600I-7505J-8341D01*
G01Y14175D01*
G02X366396Y12021I-591J-8780D01*
G01X368111Y13736D01*
G37*
G36*
G01X371810Y5986D02*
G03X368946Y12901I-11205J-590D01*
G01X367231Y11186D01*
G02X369385Y5986I-6626J-5791D01*
G01X371810D01*
G37*
G36*
G01X368946Y-2111D02*
G03X371810Y4804I-8341J7505D01*
G01X369385D01*
G02X367231Y-396I-8780J591D01*
G01X368946Y-2111D01*
G37*
G36*
G01X361196Y-5810D02*
G03X368111Y-2946I-590J11205D01*
G01X366396Y-1231D01*
G02X361196Y-3385I-5791J6626D01*
G01Y-5810D01*
G37*
G36*
G01X353099Y-2946D02*
G03X360014Y-5810I7505J8341D01*
G01Y-3385D01*
G02X354814Y-1231I591J8780D01*
G01X353099Y-2946D01*
G37*
G36*
G01X349400Y4804D02*
G03X352264Y-2111I11205J590D01*
G01X353979Y-396D01*
G02X351825Y4804I6626J5791D01*
G01X349400D01*
G37*
G54D10*
X58500Y132685D03*
X64500D03*
X75283Y125685D03*
X63783Y162685D03*
X69783D03*
Y156185D03*
X63783D03*
X81283Y125685D03*
X88783Y161685D03*
X94783D03*
Y155185D03*
X88783D03*
X263183Y54485D03*
X269183D03*
X263183Y60485D03*
X269183D03*
G54D11*
X75807Y130685D03*
X78759D03*
G54D12*
X75283Y134685D03*
X67783Y147685D03*
X63783D03*
X75283Y157685D03*
Y161685D03*
X79283Y134685D03*
X93383Y147685D03*
X89383D03*
X100783Y156685D03*
Y160685D03*
X128783Y27185D03*
X124783D03*
X184204Y126335D03*
X188204D03*
X277500Y57585D03*
Y53585D03*
X339683Y59200D03*
Y55200D03*
X340983Y91500D03*
Y87500D03*
X336283Y183000D03*
Y179000D03*
X329800Y183500D03*
Y179500D03*
X352700Y38100D03*
X356700D03*
X352350Y66450D03*
X356350D03*
X387079Y24100D03*
X391079D03*
X385879Y41300D03*
X389879D03*
X385879Y57000D03*
X389879D03*
X386579Y64700D03*
X390579D03*
X386479Y81100D03*
X390479D03*
G54D13*
X340183Y41700D03*
Y47700D03*
X341383Y70785D03*
Y76785D03*
X346700Y41700D03*
Y47700D03*
X347900Y70784D03*
Y76784D03*
X345505Y60455D03*
Y54455D03*
X346705Y92700D03*
Y86700D03*
G54D14*
X392779Y14000D03*
X385179D03*
X391679Y49100D03*
X384079D03*
G54D15*
X382846Y140315D03*
Y147715D03*
X374946Y144015D03*
X398346Y139815D03*
Y147215D03*
X390446Y143515D03*
G54D16*
G01X-14538Y-323315D02*
X385462D01*
G01X-14538Y-293315D02*
Y-273315D01*
X385462D01*
G01X35462Y-343315D02*
Y-323315D01*
G01X160962Y-343315D02*
Y-323315D01*
G01X160462Y-273315D02*
Y-243315D01*
G01X210462Y-343315D02*
Y-323315D01*
G54D17*
G01X385462Y-243315D02*
Y-343315D01*
X-14538D01*
G01D02*
Y-243315D01*
X385462D01*
G54D18*
G01X-309796Y204036D02*
X-98217D01*
G02X-95717Y201536I0J-2500D01*
G01Y192885D01*
Y190385D01*
X-93217D01*
X-15000D01*
X-12500D01*
Y192885D01*
Y221221D01*
G02X-10000Y223721I2500J0D01*
G01X418071D01*
G02X420571Y221221I0J-2500D01*
G01Y-10000D01*
G02X418071Y-12500I-2500J0D01*
G01X-10000D01*
G02X-12500Y-10000I0J2500D01*
G01Y18336D01*
Y20836D01*
X-15000D01*
X-93217D01*
X-95717D01*
Y18336D01*
Y9685D01*
G02X-98217Y7185I-2500J0D01*
G01X-309796D01*
G02X-312296Y9685I0J2500D01*
G01Y201536D01*
G02X-309796Y204036I2500J0D01*
G54D19*
G01X-10688Y-339815D02*
Y-333815D01*
X-11628Y-335015D01*
G01Y-339815D02*
X-9748D01*
G01X-4388Y-333815D02*
X-5015Y-334015D01*
X-5485Y-334515D01*
X-5798Y-335115D01*
X-6033Y-335915D01*
X-6111Y-336815D01*
X-6033Y-337715D01*
X-5798Y-338515D01*
X-5485Y-339115D01*
X-5015Y-339615D01*
X-4388Y-339815D01*
X-3761Y-339615D01*
X-3291Y-339115D01*
X-2978Y-338515D01*
X-2743Y-337715D01*
X-2665Y-336815D01*
X-2743Y-335915D01*
X-2978Y-335115D01*
X-3291Y-334515D01*
X-3761Y-334015D01*
X-4388Y-333815D01*
G01X-11013Y-330782D02*
X-10546Y-331115D01*
X-10021Y-331315D01*
X-9555D01*
X-9088Y-331115D01*
X-8738Y-330782D01*
X-8563Y-330315D01*
X-8680Y-329848D01*
X-8971Y-329448D01*
X-9496Y-329182D01*
X-10196Y-329048D01*
X-10605Y-328782D01*
X-10780Y-328315D01*
X-10663Y-327848D01*
X-10371Y-327515D01*
X-9963Y-327315D01*
X-9555D01*
X-9146Y-327448D01*
X-8796Y-327782D01*
G01X-6213Y-331315D02*
Y-327315D01*
G01X-3763D02*
Y-331315D01*
G01Y-329315D02*
X-6213D01*
G01X979Y-331315D02*
X-1355D01*
Y-327315D01*
X979D01*
G01X45Y-329248D02*
X-1355D01*
G01X5779Y-331315D02*
X3445D01*
Y-327315D01*
X5779D01*
G01X4845Y-329248D02*
X3445D01*
G01X9412Y-327315D02*
Y-331315D01*
G01X8070Y-327315D02*
X10754D01*
G01X-11246Y-270315D02*
X-9788Y-266315D01*
X-8330Y-270315D01*
G01X-8855Y-268915D02*
X-10721D01*
G01X-6271Y-266315D02*
Y-269182D01*
X-6038Y-269782D01*
X-5571Y-270182D01*
X-4988Y-270315D01*
X-4405Y-270182D01*
X-3938Y-269782D01*
X-3705Y-269182D01*
Y-266315D01*
G01X-1413Y-269782D02*
X-946Y-270115D01*
X-421Y-270315D01*
X45D01*
X512Y-270115D01*
X862Y-269782D01*
X1037Y-269315D01*
X920Y-268848D01*
X629Y-268448D01*
X104Y-268182D01*
X-596Y-268048D01*
X-1005Y-267782D01*
X-1180Y-267315D01*
X-1063Y-266848D01*
X-771Y-266515D01*
X-363Y-266315D01*
X45D01*
X454Y-266448D01*
X804Y-266782D01*
G01X4612Y-266315D02*
Y-270315D01*
G01X3270Y-266315D02*
X5954D01*
G01X8712D02*
X10112D01*
G01X9412D02*
Y-270315D01*
G01X8712D02*
X10112D01*
G01X12870D02*
Y-266315D01*
X15554Y-270315D01*
Y-266315D01*
G01X19012Y-270448D02*
X18895Y-270382D01*
Y-270248D01*
X19012Y-270182D01*
X19129Y-270248D01*
Y-270382D01*
X19012Y-270448D01*
G01X28612Y-266315D02*
Y-270315D01*
G01X27270Y-266315D02*
X29954D01*
G01X34579Y-270315D02*
X32245D01*
Y-266315D01*
X34579D01*
G01X33645Y-268248D02*
X32245D01*
G01X36987Y-270315D02*
X39437Y-266315D01*
G01X36987D02*
X39437Y-270315D01*
G01X41554D02*
X43012Y-266315D01*
X44470Y-270315D01*
G01X43945Y-268915D02*
X42079D01*
G01X46587Y-269782D02*
X47054Y-270115D01*
X47579Y-270315D01*
X48045D01*
X48512Y-270115D01*
X48862Y-269782D01*
X49037Y-269315D01*
X48920Y-268848D01*
X48629Y-268448D01*
X48104Y-268182D01*
X47404Y-268048D01*
X46995Y-267782D01*
X46820Y-267315D01*
X46937Y-266848D01*
X47229Y-266515D01*
X47637Y-266315D01*
X48045D01*
X48454Y-266448D01*
X48804Y-266782D01*
G01X57295Y-270315D02*
X57412Y-269448D01*
X57587Y-268715D01*
X57820Y-268048D01*
X58112Y-267315D01*
X58579Y-266315D01*
X56245D01*
G01X62212Y-270315D02*
X62620Y-270248D01*
X63087Y-270048D01*
X63379Y-269715D01*
X63495Y-269248D01*
X63379Y-268782D01*
X63029Y-268382D01*
X62504Y-268182D01*
X61920D01*
X61570Y-268048D01*
X61279Y-267715D01*
X61162Y-267248D01*
X61337Y-266782D01*
X61745Y-266448D01*
X62212Y-266315D01*
X62679Y-266448D01*
X63087Y-266782D01*
X63262Y-267248D01*
X63145Y-267715D01*
X62854Y-268048D01*
X62504Y-268182D01*
X61920D01*
X61395Y-268382D01*
X61045Y-268782D01*
X60929Y-269248D01*
X61045Y-269715D01*
X61337Y-270048D01*
X61804Y-270248D01*
X62212Y-270315D01*
G01X66895D02*
X67012Y-269448D01*
X67187Y-268715D01*
X67420Y-268048D01*
X67712Y-267315D01*
X68179Y-266315D01*
X65845D01*
G01X70529Y-269515D02*
X70879Y-269982D01*
X71345Y-270248D01*
X71870Y-270315D01*
X72337Y-270248D01*
X72804Y-269915D01*
X73095Y-269515D01*
X73154Y-269115D01*
X73037Y-268648D01*
X72629Y-268315D01*
X72220Y-268182D01*
X71695D01*
G01X72220D02*
X72570Y-267982D01*
X72862Y-267648D01*
X72979Y-267248D01*
X72862Y-266848D01*
X72570Y-266515D01*
X72045Y-266315D01*
X71520Y-266382D01*
X70995Y-266648D01*
G01X75329Y-269715D02*
X75679Y-270048D01*
X76087Y-270248D01*
X76612Y-270315D01*
X77137Y-270182D01*
X77545Y-269915D01*
X77837Y-269448D01*
X77895Y-268915D01*
X77779Y-268382D01*
X77487Y-268048D01*
X77079Y-267782D01*
X76670Y-267715D01*
X76262Y-267782D01*
X75737Y-268048D01*
X75912Y-266315D01*
X77487D01*
G01X84929D02*
Y-269182D01*
X85162Y-269782D01*
X85629Y-270182D01*
X86212Y-270315D01*
X86795Y-270182D01*
X87262Y-269782D01*
X87495Y-269182D01*
Y-266315D01*
G01X89787Y-269782D02*
X90254Y-270115D01*
X90779Y-270315D01*
X91245D01*
X91712Y-270115D01*
X92062Y-269782D01*
X92237Y-269315D01*
X92120Y-268848D01*
X91829Y-268448D01*
X91304Y-268182D01*
X90604Y-268048D01*
X90195Y-267782D01*
X90020Y-267315D01*
X90137Y-266848D01*
X90429Y-266515D01*
X90837Y-266315D01*
X91245D01*
X91654Y-266448D01*
X92004Y-266782D01*
G01X94354Y-270315D02*
X95812Y-266315D01*
X97270Y-270315D01*
G01X96745Y-268915D02*
X94879D01*
G01X-10896Y-261648D02*
X-10488Y-261182D01*
X-10138Y-260915D01*
X-9671Y-260782D01*
X-9263Y-260915D01*
X-8971Y-261182D01*
X-8738Y-261582D01*
X-8680Y-262048D01*
X-8738Y-262448D01*
X-8971Y-262848D01*
X-9321Y-263182D01*
X-9730Y-263315D01*
X-10196Y-263182D01*
X-10605Y-262782D01*
X-10838Y-262182D01*
X-10896Y-261515D01*
X-10780Y-260648D01*
X-10605Y-260182D01*
X-10313Y-259715D01*
X-9905Y-259382D01*
X-9496Y-259315D01*
X-9088Y-259448D01*
X-8796Y-259782D01*
G01X-6271Y-262715D02*
X-5921Y-263048D01*
X-5513Y-263248D01*
X-4988Y-263315D01*
X-4463Y-263182D01*
X-4055Y-262915D01*
X-3763Y-262448D01*
X-3705Y-261915D01*
X-3821Y-261382D01*
X-4113Y-261048D01*
X-4521Y-260782D01*
X-4930Y-260715D01*
X-5338Y-260782D01*
X-5863Y-261048D01*
X-5688Y-259315D01*
X-4113D01*
G01X-188D02*
X-655Y-259448D01*
X-1005Y-259782D01*
X-1238Y-260182D01*
X-1413Y-260715D01*
X-1471Y-261315D01*
X-1413Y-261915D01*
X-1238Y-262448D01*
X-1005Y-262848D01*
X-655Y-263182D01*
X-188Y-263315D01*
X279Y-263182D01*
X629Y-262848D01*
X862Y-262448D01*
X1037Y-261915D01*
X1095Y-261315D01*
X1037Y-260715D01*
X862Y-260182D01*
X629Y-259782D01*
X279Y-259448D01*
X-188Y-259315D01*
G01X4612Y-263315D02*
Y-259315D01*
X3912Y-260115D01*
G01Y-263315D02*
X5312D01*
G01X12462Y-259315D02*
X13279Y-263315D01*
X14212Y-259315D01*
X15145Y-263315D01*
X15962Y-259315D01*
G01X18312D02*
X19712D01*
G01X19012D02*
Y-263315D01*
G01X18312D02*
X19712D01*
G01X22645Y-259315D02*
Y-263315D01*
X24979D01*
G01X27445Y-259315D02*
Y-263315D01*
X29779D01*
G01X32712Y-259315D02*
X34112D01*
G01X33412D02*
Y-263315D01*
G01X32712D02*
X34112D01*
G01X36754D02*
X38212Y-259315D01*
X39670Y-263315D01*
G01X39145Y-261915D02*
X37279D01*
G01X41495Y-263315D02*
Y-259315D01*
X43012Y-262648D01*
X44529Y-259315D01*
Y-263315D01*
G01X53895Y-259648D02*
X53545Y-259448D01*
X53137Y-259315D01*
X52670D01*
X52145Y-259515D01*
X51737Y-259848D01*
X51445Y-260248D01*
X51212Y-260915D01*
X51154Y-261515D01*
X51270Y-262115D01*
X51445Y-262515D01*
X51795Y-262915D01*
X52204Y-263182D01*
X52612Y-263315D01*
X53020D01*
X53429Y-263182D01*
X53779Y-262982D01*
X54070Y-262715D01*
G01X55954Y-263315D02*
X57412Y-259315D01*
X58870Y-263315D01*
G01X58345Y-261915D02*
X56479D01*
G01X60870Y-263315D02*
Y-259315D01*
X63554Y-263315D01*
Y-259315D01*
G01X65670Y-263315D02*
Y-259315D01*
X68354Y-263315D01*
Y-259315D01*
G01X71812Y-263315D02*
X71345Y-263248D01*
X70937Y-262982D01*
X70587Y-262582D01*
X70354Y-262115D01*
X70237Y-261582D01*
Y-261048D01*
X70354Y-260515D01*
X70587Y-260048D01*
X70937Y-259648D01*
X71345Y-259382D01*
X71812Y-259315D01*
X72279Y-259382D01*
X72687Y-259648D01*
X73037Y-260048D01*
X73270Y-260515D01*
X73387Y-261048D01*
Y-261582D01*
X73270Y-262115D01*
X73037Y-262582D01*
X72687Y-262982D01*
X72279Y-263248D01*
X71812Y-263315D01*
G01X75270D02*
Y-259315D01*
X77954Y-263315D01*
Y-259315D01*
G01X84929Y-263315D02*
Y-259315D01*
X86095D01*
X86562Y-259515D01*
X86912Y-259782D01*
X87204Y-260182D01*
X87437Y-260648D01*
X87495Y-261315D01*
X87437Y-261982D01*
X87204Y-262448D01*
X86912Y-262848D01*
X86562Y-263115D01*
X86095Y-263315D01*
X84929D01*
G01X89845D02*
Y-259315D01*
X91304D01*
X91770Y-259515D01*
X92062Y-259782D01*
X92179Y-260315D01*
X92062Y-260848D01*
X91712Y-261182D01*
X91304Y-261382D01*
X89845D01*
G01X91304D02*
X92179Y-263315D01*
G01X95112Y-259315D02*
X96512D01*
G01X95812D02*
Y-263315D01*
G01X95112D02*
X96512D01*
G01X99154Y-259315D02*
X100612Y-263315D01*
X102070Y-259315D01*
G01X106579Y-263315D02*
X104245D01*
Y-259315D01*
X106579D01*
G01X105645Y-261248D02*
X104245D01*
G01X113262Y-259315D02*
X114079Y-263315D01*
X115012Y-259315D01*
X115945Y-263315D01*
X116762Y-259315D01*
G01X120979Y-263315D02*
X118645D01*
Y-259315D01*
X120979D01*
G01X120045Y-261248D02*
X118645D01*
G01X123387Y-262782D02*
X123854Y-263115D01*
X124379Y-263315D01*
X124845D01*
X125312Y-263115D01*
X125662Y-262782D01*
X125837Y-262315D01*
X125720Y-261848D01*
X125429Y-261448D01*
X124904Y-261182D01*
X124204Y-261048D01*
X123795Y-260782D01*
X123620Y-260315D01*
X123737Y-259848D01*
X124029Y-259515D01*
X124437Y-259315D01*
X124845D01*
X125254Y-259448D01*
X125604Y-259782D01*
G01X129412Y-259315D02*
Y-263315D01*
G01X128070Y-259315D02*
X130754D01*
G01X-10885Y-254315D02*
Y-246815D01*
X-6591Y-254315D01*
Y-246815D01*
G01X-3198Y-254315D02*
X722Y-246815D01*
G01X-3198D02*
X722Y-254315D01*
G01X4395D02*
Y-246815D01*
X6635D01*
X7382Y-247190D01*
X7942Y-248065D01*
X8129Y-249065D01*
X7942Y-250065D01*
X7475Y-250815D01*
X6635Y-251190D01*
X4395D01*
G01X19302Y-253315D02*
X20049Y-253940D01*
X20889Y-254315D01*
X21635D01*
X22382Y-253940D01*
X22942Y-253315D01*
X23222Y-252440D01*
X23035Y-251565D01*
X22569Y-250815D01*
X21729Y-250315D01*
X20609Y-250065D01*
X19955Y-249565D01*
X19675Y-248690D01*
X19862Y-247815D01*
X20329Y-247190D01*
X20982Y-246815D01*
X21635D01*
X22289Y-247065D01*
X22849Y-247690D01*
G01X30629Y-254315D02*
X26895D01*
Y-246815D01*
X30629D01*
G01X29135Y-250440D02*
X26895D01*
G01X33835Y-254315D02*
Y-246815D01*
X36262Y-253065D01*
X38689Y-246815D01*
Y-254315D01*
G01X42642Y-246815D02*
X44882D01*
G01X43762D02*
Y-254315D01*
G01X42642D02*
X44882D01*
G01X53315Y-247440D02*
X52755Y-247065D01*
X52102Y-246815D01*
X51355D01*
X50515Y-247190D01*
X49862Y-247815D01*
X49395Y-248565D01*
X49022Y-249815D01*
X48929Y-250940D01*
X49115Y-252065D01*
X49395Y-252815D01*
X49955Y-253565D01*
X50609Y-254065D01*
X51262Y-254315D01*
X51915D01*
X52569Y-254065D01*
X53129Y-253690D01*
X53595Y-253190D01*
G01X58762Y-254315D02*
X58015Y-254190D01*
X57362Y-253690D01*
X56802Y-252940D01*
X56429Y-252065D01*
X56242Y-251065D01*
Y-250065D01*
X56429Y-249065D01*
X56802Y-248190D01*
X57362Y-247440D01*
X58015Y-246940D01*
X58762Y-246815D01*
X59509Y-246940D01*
X60162Y-247440D01*
X60722Y-248190D01*
X61095Y-249065D01*
X61282Y-250065D01*
Y-251065D01*
X61095Y-252065D01*
X60722Y-252940D01*
X60162Y-253690D01*
X59509Y-254190D01*
X58762Y-254315D01*
G01X64115D02*
Y-246815D01*
X68409Y-254315D01*
Y-246815D01*
G01X71709Y-254315D02*
Y-246815D01*
X73575D01*
X74322Y-247190D01*
X74882Y-247690D01*
X75349Y-248440D01*
X75722Y-249315D01*
X75815Y-250565D01*
X75722Y-251815D01*
X75349Y-252690D01*
X74882Y-253440D01*
X74322Y-253940D01*
X73575Y-254315D01*
X71709D01*
G01X79209Y-246815D02*
Y-252190D01*
X79582Y-253315D01*
X80329Y-254065D01*
X81262Y-254315D01*
X82195Y-254065D01*
X82942Y-253315D01*
X83315Y-252190D01*
Y-246815D01*
G01X90815Y-247440D02*
X90255Y-247065D01*
X89602Y-246815D01*
X88855D01*
X88015Y-247190D01*
X87362Y-247815D01*
X86895Y-248565D01*
X86522Y-249815D01*
X86429Y-250940D01*
X86615Y-252065D01*
X86895Y-252815D01*
X87455Y-253565D01*
X88109Y-254065D01*
X88762Y-254315D01*
X89415D01*
X90069Y-254065D01*
X90629Y-253690D01*
X91095Y-253190D01*
G01X96262Y-246815D02*
Y-254315D01*
G01X94115Y-246815D02*
X98409D01*
G01X103762Y-254315D02*
X103015Y-254190D01*
X102362Y-253690D01*
X101802Y-252940D01*
X101429Y-252065D01*
X101242Y-251065D01*
Y-250065D01*
X101429Y-249065D01*
X101802Y-248190D01*
X102362Y-247440D01*
X103015Y-246940D01*
X103762Y-246815D01*
X104509Y-246940D01*
X105162Y-247440D01*
X105722Y-248190D01*
X106095Y-249065D01*
X106282Y-250065D01*
Y-251065D01*
X106095Y-252065D01*
X105722Y-252940D01*
X105162Y-253690D01*
X104509Y-254190D01*
X103762Y-254315D01*
G01X109395D02*
Y-246815D01*
X111729D01*
X112475Y-247190D01*
X112942Y-247690D01*
X113129Y-248690D01*
X112942Y-249690D01*
X112382Y-250315D01*
X111729Y-250690D01*
X109395D01*
G01X111729D02*
X113129Y-254315D01*
G01X116802Y-253315D02*
X117549Y-253940D01*
X118389Y-254315D01*
X119135D01*
X119882Y-253940D01*
X120442Y-253315D01*
X120722Y-252440D01*
X120535Y-251565D01*
X120069Y-250815D01*
X119229Y-250315D01*
X118109Y-250065D01*
X117455Y-249565D01*
X117175Y-248690D01*
X117362Y-247815D01*
X117829Y-247190D01*
X118482Y-246815D01*
X119135D01*
X119789Y-247065D01*
X120349Y-247690D01*
G01X7312Y-339815D02*
X6685Y-339715D01*
X6137Y-339315D01*
X5667Y-338715D01*
X5354Y-338015D01*
X5197Y-337215D01*
Y-336415D01*
X5354Y-335615D01*
X5667Y-334915D01*
X6137Y-334315D01*
X6685Y-333915D01*
X7312Y-333815D01*
X7939Y-333915D01*
X8487Y-334315D01*
X8957Y-334915D01*
X9270Y-335615D01*
X9427Y-336415D01*
Y-337215D01*
X9270Y-338015D01*
X8957Y-338715D01*
X8487Y-339315D01*
X7939Y-339715D01*
X7312Y-339815D01*
G01X12124D02*
Y-333815D01*
X15100D01*
G01X14004Y-336715D02*
X12124D01*
G01X26212Y-339815D02*
Y-333815D01*
X25272Y-335015D01*
G01Y-339815D02*
X27152D01*
G01X32512Y-333815D02*
X31885Y-334015D01*
X31415Y-334515D01*
X31102Y-335115D01*
X30867Y-335915D01*
X30789Y-336815D01*
X30867Y-337715D01*
X31102Y-338515D01*
X31415Y-339115D01*
X31885Y-339615D01*
X32512Y-339815D01*
X33139Y-339615D01*
X33609Y-339115D01*
X33922Y-338515D01*
X34157Y-337715D01*
X34235Y-336815D01*
X34157Y-335915D01*
X33922Y-335115D01*
X33609Y-334515D01*
X33139Y-334015D01*
X32512Y-333815D01*
G01X-5130Y-320315D02*
Y-316315D01*
X-2446Y-320315D01*
Y-316315D01*
G01X-213Y-320315D02*
X2237Y-316315D01*
G01X-213D02*
X2237Y-320315D01*
G01X4645D02*
Y-316315D01*
X6045D01*
X6512Y-316515D01*
X6862Y-316982D01*
X6979Y-317515D01*
X6862Y-318048D01*
X6570Y-318448D01*
X6045Y-318648D01*
X4645D01*
G01X10612Y-320448D02*
X10495Y-320382D01*
Y-320248D01*
X10612Y-320182D01*
X10729Y-320248D01*
Y-320382D01*
X10612Y-320448D01*
G01X-3788Y-312315D02*
X-4255Y-312248D01*
X-4663Y-311982D01*
X-5013Y-311582D01*
X-5246Y-311115D01*
X-5363Y-310582D01*
Y-310048D01*
X-5246Y-309515D01*
X-5013Y-309048D01*
X-4663Y-308648D01*
X-4255Y-308382D01*
X-3788Y-308315D01*
X-3321Y-308382D01*
X-2913Y-308648D01*
X-2563Y-309048D01*
X-2330Y-309515D01*
X-2213Y-310048D01*
Y-310582D01*
X-2330Y-311115D01*
X-2563Y-311582D01*
X-2913Y-311982D01*
X-3321Y-312248D01*
X-3788Y-312315D01*
G01X-155D02*
Y-308315D01*
X1304D01*
X1770Y-308515D01*
X2062Y-308782D01*
X2179Y-309315D01*
X2062Y-309848D01*
X1712Y-310182D01*
X1304Y-310382D01*
X-155D01*
G01X1304D02*
X2179Y-312315D01*
G01X9912Y-308315D02*
X11312D01*
G01X10612D02*
Y-312315D01*
G01X9912D02*
X11312D01*
G01X14070D02*
Y-308315D01*
X16754Y-312315D01*
Y-308315D01*
G01X23845Y-312315D02*
Y-308315D01*
X25245D01*
X25712Y-308515D01*
X26062Y-308982D01*
X26179Y-309515D01*
X26062Y-310048D01*
X25770Y-310448D01*
X25245Y-310648D01*
X23845D01*
G01X28354Y-312315D02*
X29812Y-308315D01*
X31270Y-312315D01*
G01X30745Y-310915D02*
X28879D01*
G01X33445Y-312315D02*
Y-308315D01*
X34904D01*
X35370Y-308515D01*
X35662Y-308782D01*
X35779Y-309315D01*
X35662Y-309848D01*
X35312Y-310182D01*
X34904Y-310382D01*
X33445D01*
G01X34904D02*
X35779Y-312315D01*
G01X39412Y-308315D02*
Y-312315D01*
G01X38070Y-308315D02*
X40754D01*
G01X47262D02*
X48079Y-312315D01*
X49012Y-308315D01*
X49945Y-312315D01*
X50762Y-308315D01*
G01X53112D02*
X54512D01*
G01X53812D02*
Y-312315D01*
G01X53112D02*
X54512D01*
G01X58612Y-308315D02*
Y-312315D01*
G01X57270Y-308315D02*
X59954D01*
G01X62187Y-312315D02*
Y-308315D01*
G01X64637D02*
Y-312315D01*
G01Y-310315D02*
X62187D01*
G01X68212Y-312315D02*
X67745Y-312248D01*
X67337Y-311982D01*
X66987Y-311582D01*
X66754Y-311115D01*
X66637Y-310582D01*
Y-310048D01*
X66754Y-309515D01*
X66987Y-309048D01*
X67337Y-308648D01*
X67745Y-308382D01*
X68212Y-308315D01*
X68679Y-308382D01*
X69087Y-308648D01*
X69437Y-309048D01*
X69670Y-309515D01*
X69787Y-310048D01*
Y-310582D01*
X69670Y-311115D01*
X69437Y-311582D01*
X69087Y-311982D01*
X68679Y-312248D01*
X68212Y-312315D01*
G01X71729Y-308315D02*
Y-311182D01*
X71962Y-311782D01*
X72429Y-312182D01*
X73012Y-312315D01*
X73595Y-312182D01*
X74062Y-311782D01*
X74295Y-311182D01*
Y-308315D01*
G01X77812D02*
Y-312315D01*
G01X76470Y-308315D02*
X79154D01*
G01X87412D02*
Y-312315D01*
G01X86070Y-308315D02*
X88754D01*
G01X90987Y-312315D02*
Y-308315D01*
G01X93437D02*
Y-312315D01*
G01Y-310315D02*
X90987D01*
G01X98179Y-312315D02*
X95845D01*
Y-308315D01*
X98179D01*
G01X97245Y-310248D02*
X95845D01*
G01X107895Y-308648D02*
X107545Y-308448D01*
X107137Y-308315D01*
X106670D01*
X106145Y-308515D01*
X105737Y-308848D01*
X105445Y-309248D01*
X105212Y-309915D01*
X105154Y-310515D01*
X105270Y-311115D01*
X105445Y-311515D01*
X105795Y-311915D01*
X106204Y-312182D01*
X106612Y-312315D01*
X107020D01*
X107429Y-312182D01*
X107779Y-311982D01*
X108070Y-311715D01*
G01X111412Y-312315D02*
X110945Y-312248D01*
X110537Y-311982D01*
X110187Y-311582D01*
X109954Y-311115D01*
X109837Y-310582D01*
Y-310048D01*
X109954Y-309515D01*
X110187Y-309048D01*
X110537Y-308648D01*
X110945Y-308382D01*
X111412Y-308315D01*
X111879Y-308382D01*
X112287Y-308648D01*
X112637Y-309048D01*
X112870Y-309515D01*
X112987Y-310048D01*
Y-310582D01*
X112870Y-311115D01*
X112637Y-311582D01*
X112287Y-311982D01*
X111879Y-312248D01*
X111412Y-312315D01*
G01X114870D02*
Y-308315D01*
X117554Y-312315D01*
Y-308315D01*
G01X119787Y-311782D02*
X120254Y-312115D01*
X120779Y-312315D01*
X121245D01*
X121712Y-312115D01*
X122062Y-311782D01*
X122237Y-311315D01*
X122120Y-310848D01*
X121829Y-310448D01*
X121304Y-310182D01*
X120604Y-310048D01*
X120195Y-309782D01*
X120020Y-309315D01*
X120137Y-308848D01*
X120429Y-308515D01*
X120837Y-308315D01*
X121245D01*
X121654Y-308448D01*
X122004Y-308782D01*
G01X126979Y-312315D02*
X124645D01*
Y-308315D01*
X126979D01*
G01X126045Y-310248D02*
X124645D01*
G01X129270Y-312315D02*
Y-308315D01*
X131954Y-312315D01*
Y-308315D01*
G01X135412D02*
Y-312315D01*
G01X134070Y-308315D02*
X136754D01*
G01X145012Y-312315D02*
X144545Y-312248D01*
X144137Y-311982D01*
X143787Y-311582D01*
X143554Y-311115D01*
X143437Y-310582D01*
Y-310048D01*
X143554Y-309515D01*
X143787Y-309048D01*
X144137Y-308648D01*
X144545Y-308382D01*
X145012Y-308315D01*
X145479Y-308382D01*
X145887Y-308648D01*
X146237Y-309048D01*
X146470Y-309515D01*
X146587Y-310048D01*
Y-310582D01*
X146470Y-311115D01*
X146237Y-311582D01*
X145887Y-311982D01*
X145479Y-312248D01*
X145012Y-312315D01*
G01X148704D02*
Y-308315D01*
X150920D01*
G01X150104Y-310248D02*
X148704D01*
G01X-4955Y-304315D02*
Y-300315D01*
X-3555D01*
X-3088Y-300515D01*
X-2738Y-300982D01*
X-2621Y-301515D01*
X-2738Y-302048D01*
X-3030Y-302448D01*
X-3555Y-302648D01*
X-4955D01*
G01X-155Y-304315D02*
Y-300315D01*
X1304D01*
X1770Y-300515D01*
X2062Y-300782D01*
X2179Y-301315D01*
X2062Y-301848D01*
X1712Y-302182D01*
X1304Y-302382D01*
X-155D01*
G01X1304D02*
X2179Y-304315D01*
G01X5812D02*
X5345Y-304248D01*
X4937Y-303982D01*
X4587Y-303582D01*
X4354Y-303115D01*
X4237Y-302582D01*
Y-302048D01*
X4354Y-301515D01*
X4587Y-301048D01*
X4937Y-300648D01*
X5345Y-300382D01*
X5812Y-300315D01*
X6279Y-300382D01*
X6687Y-300648D01*
X7037Y-301048D01*
X7270Y-301515D01*
X7387Y-302048D01*
Y-302582D01*
X7270Y-303115D01*
X7037Y-303582D01*
X6687Y-303982D01*
X6279Y-304248D01*
X5812Y-304315D01*
G01X11895Y-300648D02*
X11545Y-300448D01*
X11137Y-300315D01*
X10670D01*
X10145Y-300515D01*
X9737Y-300848D01*
X9445Y-301248D01*
X9212Y-301915D01*
X9154Y-302515D01*
X9270Y-303115D01*
X9445Y-303515D01*
X9795Y-303915D01*
X10204Y-304182D01*
X10612Y-304315D01*
X11020D01*
X11429Y-304182D01*
X11779Y-303982D01*
X12070Y-303715D01*
G01X14129Y-300315D02*
Y-303182D01*
X14362Y-303782D01*
X14829Y-304182D01*
X15412Y-304315D01*
X15995Y-304182D01*
X16462Y-303782D01*
X16695Y-303182D01*
Y-300315D01*
G01X19045Y-304315D02*
Y-300315D01*
X20504D01*
X20970Y-300515D01*
X21262Y-300782D01*
X21379Y-301315D01*
X21262Y-301848D01*
X20912Y-302182D01*
X20504Y-302382D01*
X19045D01*
G01X20504D02*
X21379Y-304315D01*
G01X26179D02*
X23845D01*
Y-300315D01*
X26179D01*
G01X25245Y-302248D02*
X23845D01*
G01X28295Y-304315D02*
Y-300315D01*
X29812Y-303648D01*
X31329Y-300315D01*
Y-304315D01*
G01X35779D02*
X33445D01*
Y-300315D01*
X35779D01*
G01X34845Y-302248D02*
X33445D01*
G01X38070Y-304315D02*
Y-300315D01*
X40754Y-304315D01*
Y-300315D01*
G01X44212D02*
Y-304315D01*
G01X42870Y-300315D02*
X45554D01*
G01X53812Y-304315D02*
X53345Y-304248D01*
X52937Y-303982D01*
X52587Y-303582D01*
X52354Y-303115D01*
X52237Y-302582D01*
Y-302048D01*
X52354Y-301515D01*
X52587Y-301048D01*
X52937Y-300648D01*
X53345Y-300382D01*
X53812Y-300315D01*
X54279Y-300382D01*
X54687Y-300648D01*
X55037Y-301048D01*
X55270Y-301515D01*
X55387Y-302048D01*
Y-302582D01*
X55270Y-303115D01*
X55037Y-303582D01*
X54687Y-303982D01*
X54279Y-304248D01*
X53812Y-304315D01*
G01X57445D02*
Y-300315D01*
X58904D01*
X59370Y-300515D01*
X59662Y-300782D01*
X59779Y-301315D01*
X59662Y-301848D01*
X59312Y-302182D01*
X58904Y-302382D01*
X57445D01*
G01X58904D02*
X59779Y-304315D01*
G01X66695D02*
Y-300315D01*
X68212Y-303648D01*
X69729Y-300315D01*
Y-304315D01*
G01X71554D02*
X73012Y-300315D01*
X74470Y-304315D01*
G01X73945Y-302915D02*
X72079D01*
G01X76470Y-304315D02*
Y-300315D01*
X79154Y-304315D01*
Y-300315D01*
G01X81329D02*
Y-303182D01*
X81562Y-303782D01*
X82029Y-304182D01*
X82612Y-304315D01*
X83195Y-304182D01*
X83662Y-303782D01*
X83895Y-303182D01*
Y-300315D01*
G01X86304Y-304315D02*
Y-300315D01*
X88520D01*
G01X87704Y-302248D02*
X86304D01*
G01X90754Y-304315D02*
X92212Y-300315D01*
X93670Y-304315D01*
G01X93145Y-302915D02*
X91279D01*
G01X98295Y-300648D02*
X97945Y-300448D01*
X97537Y-300315D01*
X97070D01*
X96545Y-300515D01*
X96137Y-300848D01*
X95845Y-301248D01*
X95612Y-301915D01*
X95554Y-302515D01*
X95670Y-303115D01*
X95845Y-303515D01*
X96195Y-303915D01*
X96604Y-304182D01*
X97012Y-304315D01*
X97420D01*
X97829Y-304182D01*
X98179Y-303982D01*
X98470Y-303715D01*
G01X101812Y-300315D02*
Y-304315D01*
G01X100470Y-300315D02*
X103154D01*
G01X105329D02*
Y-303182D01*
X105562Y-303782D01*
X106029Y-304182D01*
X106612Y-304315D01*
X107195Y-304182D01*
X107662Y-303782D01*
X107895Y-303182D01*
Y-300315D01*
G01X110245Y-304315D02*
Y-300315D01*
X111704D01*
X112170Y-300515D01*
X112462Y-300782D01*
X112579Y-301315D01*
X112462Y-301848D01*
X112112Y-302182D01*
X111704Y-302382D01*
X110245D01*
G01X111704D02*
X112579Y-304315D01*
G01X117379D02*
X115045D01*
Y-300315D01*
X117379D01*
G01X116445Y-302248D02*
X115045D01*
G01X125112Y-300315D02*
X126512D01*
G01X125812D02*
Y-304315D01*
G01X125112D02*
X126512D01*
G01X129270D02*
Y-300315D01*
X131954Y-304315D01*
Y-300315D01*
G01X138462D02*
X139279Y-304315D01*
X140212Y-300315D01*
X141145Y-304315D01*
X141962Y-300315D01*
G01X143787Y-304315D02*
Y-300315D01*
G01X146237D02*
Y-304315D01*
G01Y-302315D02*
X143787D01*
G01X149812Y-304315D02*
X149345Y-304248D01*
X148937Y-303982D01*
X148587Y-303582D01*
X148354Y-303115D01*
X148237Y-302582D01*
Y-302048D01*
X148354Y-301515D01*
X148587Y-301048D01*
X148937Y-300648D01*
X149345Y-300382D01*
X149812Y-300315D01*
X150279Y-300382D01*
X150687Y-300648D01*
X151037Y-301048D01*
X151270Y-301515D01*
X151387Y-302048D01*
Y-302582D01*
X151270Y-303115D01*
X151037Y-303582D01*
X150687Y-303982D01*
X150279Y-304248D01*
X149812Y-304315D01*
G01X153445Y-300315D02*
Y-304315D01*
X155779D01*
G01X160579D02*
X158245D01*
Y-300315D01*
X160579D01*
G01X159645Y-302248D02*
X158245D01*
G01X-3321Y-294182D02*
X-3088Y-293982D01*
X-2913Y-293648D01*
X-2796Y-293182D01*
X-2913Y-292782D01*
X-3146Y-292515D01*
X-3555Y-292315D01*
X-5130D01*
Y-296315D01*
X-3205D01*
X-2796Y-296048D01*
X-2563Y-295648D01*
X-2446Y-295182D01*
X-2563Y-294715D01*
X-2913Y-294315D01*
X-3321Y-294182D01*
X-5130D01*
G01X2179Y-296315D02*
X-155D01*
Y-292315D01*
X2179D01*
G01X1245Y-294248D02*
X-155D01*
G01X9329Y-292315D02*
Y-295182D01*
X9562Y-295782D01*
X10029Y-296182D01*
X10612Y-296315D01*
X11195Y-296182D01*
X11662Y-295782D01*
X11895Y-295182D01*
Y-292315D01*
G01X14187Y-295782D02*
X14654Y-296115D01*
X15179Y-296315D01*
X15645D01*
X16112Y-296115D01*
X16462Y-295782D01*
X16637Y-295315D01*
X16520Y-294848D01*
X16229Y-294448D01*
X15704Y-294182D01*
X15004Y-294048D01*
X14595Y-293782D01*
X14420Y-293315D01*
X14537Y-292848D01*
X14829Y-292515D01*
X15237Y-292315D01*
X15645D01*
X16054Y-292448D01*
X16404Y-292782D01*
G01X21379Y-296315D02*
X19045D01*
Y-292315D01*
X21379D01*
G01X20445Y-294248D02*
X19045D01*
G01X23729Y-296315D02*
Y-292315D01*
X24895D01*
X25362Y-292515D01*
X25712Y-292782D01*
X26004Y-293182D01*
X26237Y-293648D01*
X26295Y-294315D01*
X26237Y-294982D01*
X26004Y-295448D01*
X25712Y-295848D01*
X25362Y-296115D01*
X24895Y-296315D01*
X23729D01*
G01X33504D02*
Y-292315D01*
X35720D01*
G01X34904Y-294248D02*
X33504D01*
G01X39412Y-296315D02*
X38945Y-296248D01*
X38537Y-295982D01*
X38187Y-295582D01*
X37954Y-295115D01*
X37837Y-294582D01*
Y-294048D01*
X37954Y-293515D01*
X38187Y-293048D01*
X38537Y-292648D01*
X38945Y-292382D01*
X39412Y-292315D01*
X39879Y-292382D01*
X40287Y-292648D01*
X40637Y-293048D01*
X40870Y-293515D01*
X40987Y-294048D01*
Y-294582D01*
X40870Y-295115D01*
X40637Y-295582D01*
X40287Y-295982D01*
X39879Y-296248D01*
X39412Y-296315D01*
G01X43045D02*
Y-292315D01*
X44504D01*
X44970Y-292515D01*
X45262Y-292782D01*
X45379Y-293315D01*
X45262Y-293848D01*
X44912Y-294182D01*
X44504Y-294382D01*
X43045D01*
G01X44504D02*
X45379Y-296315D01*
G01X54979D02*
X52645D01*
Y-292315D01*
X54979D01*
G01X54045Y-294248D02*
X52645D01*
G01X57270Y-296315D02*
Y-292315D01*
X59954Y-296315D01*
Y-292315D01*
G01X63762Y-294315D02*
X64929D01*
Y-295515D01*
X64579Y-295915D01*
X64170Y-296182D01*
X63587Y-296315D01*
X63004Y-296182D01*
X62595Y-295915D01*
X62245Y-295515D01*
X62012Y-295048D01*
X61895Y-294515D01*
Y-294048D01*
X62012Y-293648D01*
X62245Y-293182D01*
X62595Y-292782D01*
X62945Y-292515D01*
X63412Y-292315D01*
X63820D01*
X64287Y-292448D01*
X64637Y-292715D01*
G01X67512Y-292315D02*
X68912D01*
G01X68212D02*
Y-296315D01*
G01X67512D02*
X68912D01*
G01X71670D02*
Y-292315D01*
X74354Y-296315D01*
Y-292315D01*
G01X78979Y-296315D02*
X76645D01*
Y-292315D01*
X78979D01*
G01X78045Y-294248D02*
X76645D01*
G01X83779Y-296315D02*
X81445D01*
Y-292315D01*
X83779D01*
G01X82845Y-294248D02*
X81445D01*
G01X86245Y-296315D02*
Y-292315D01*
X87704D01*
X88170Y-292515D01*
X88462Y-292782D01*
X88579Y-293315D01*
X88462Y-293848D01*
X88112Y-294182D01*
X87704Y-294382D01*
X86245D01*
G01X87704D02*
X88579Y-296315D01*
G01X91512Y-292315D02*
X92912D01*
G01X92212D02*
Y-296315D01*
G01X91512D02*
X92912D01*
G01X95670D02*
Y-292315D01*
X98354Y-296315D01*
Y-292315D01*
G01X102162Y-294315D02*
X103329D01*
Y-295515D01*
X102979Y-295915D01*
X102570Y-296182D01*
X101987Y-296315D01*
X101404Y-296182D01*
X100995Y-295915D01*
X100645Y-295515D01*
X100412Y-295048D01*
X100295Y-294515D01*
Y-294048D01*
X100412Y-293648D01*
X100645Y-293182D01*
X100995Y-292782D01*
X101345Y-292515D01*
X101812Y-292315D01*
X102220D01*
X102687Y-292448D01*
X103037Y-292715D01*
G01X110129Y-296315D02*
Y-292315D01*
X111295D01*
X111762Y-292515D01*
X112112Y-292782D01*
X112404Y-293182D01*
X112637Y-293648D01*
X112695Y-294315D01*
X112637Y-294982D01*
X112404Y-295448D01*
X112112Y-295848D01*
X111762Y-296115D01*
X111295Y-296315D01*
X110129D01*
G01X117379D02*
X115045D01*
Y-292315D01*
X117379D01*
G01X116445Y-294248D02*
X115045D01*
G01X119787Y-295782D02*
X120254Y-296115D01*
X120779Y-296315D01*
X121245D01*
X121712Y-296115D01*
X122062Y-295782D01*
X122237Y-295315D01*
X122120Y-294848D01*
X121829Y-294448D01*
X121304Y-294182D01*
X120604Y-294048D01*
X120195Y-293782D01*
X120020Y-293315D01*
X120137Y-292848D01*
X120429Y-292515D01*
X120837Y-292315D01*
X121245D01*
X121654Y-292448D01*
X122004Y-292782D01*
G01X125112Y-292315D02*
X126512D01*
G01X125812D02*
Y-296315D01*
G01X125112D02*
X126512D01*
G01X130962Y-294315D02*
X132129D01*
Y-295515D01*
X131779Y-295915D01*
X131370Y-296182D01*
X130787Y-296315D01*
X130204Y-296182D01*
X129795Y-295915D01*
X129445Y-295515D01*
X129212Y-295048D01*
X129095Y-294515D01*
Y-294048D01*
X129212Y-293648D01*
X129445Y-293182D01*
X129795Y-292782D01*
X130145Y-292515D01*
X130612Y-292315D01*
X131020D01*
X131487Y-292448D01*
X131837Y-292715D01*
G01X134070Y-296315D02*
Y-292315D01*
X136754Y-296315D01*
Y-292315D01*
G01X-4955Y-288315D02*
Y-284315D01*
X-3555D01*
X-3088Y-284515D01*
X-2738Y-284982D01*
X-2621Y-285515D01*
X-2738Y-286048D01*
X-3030Y-286448D01*
X-3555Y-286648D01*
X-4955D01*
G01X-155Y-288315D02*
Y-284315D01*
X1304D01*
X1770Y-284515D01*
X2062Y-284782D01*
X2179Y-285315D01*
X2062Y-285848D01*
X1712Y-286182D01*
X1304Y-286382D01*
X-155D01*
G01X1304D02*
X2179Y-288315D01*
G01X5812D02*
X5345Y-288248D01*
X4937Y-287982D01*
X4587Y-287582D01*
X4354Y-287115D01*
X4237Y-286582D01*
Y-286048D01*
X4354Y-285515D01*
X4587Y-285048D01*
X4937Y-284648D01*
X5345Y-284382D01*
X5812Y-284315D01*
X6279Y-284382D01*
X6687Y-284648D01*
X7037Y-285048D01*
X7270Y-285515D01*
X7387Y-286048D01*
Y-286582D01*
X7270Y-287115D01*
X7037Y-287582D01*
X6687Y-287982D01*
X6279Y-288248D01*
X5812Y-288315D01*
G01X9445D02*
Y-284315D01*
X10845D01*
X11312Y-284515D01*
X11662Y-284982D01*
X11779Y-285515D01*
X11662Y-286048D01*
X11370Y-286448D01*
X10845Y-286648D01*
X9445D01*
G01X14245Y-288315D02*
Y-284315D01*
X15704D01*
X16170Y-284515D01*
X16462Y-284782D01*
X16579Y-285315D01*
X16462Y-285848D01*
X16112Y-286182D01*
X15704Y-286382D01*
X14245D01*
G01X15704D02*
X16579Y-288315D01*
G01X19512Y-284315D02*
X20912D01*
G01X20212D02*
Y-288315D01*
G01X19512D02*
X20912D01*
G01X26179D02*
X23845D01*
Y-284315D01*
X26179D01*
G01X25245Y-286248D02*
X23845D01*
G01X29812Y-284315D02*
Y-288315D01*
G01X28470Y-284315D02*
X31154D01*
G01X33154Y-288315D02*
X34612Y-284315D01*
X36070Y-288315D01*
G01X35545Y-286915D02*
X33679D01*
G01X38245Y-288315D02*
Y-284315D01*
X39704D01*
X40170Y-284515D01*
X40462Y-284782D01*
X40579Y-285315D01*
X40462Y-285848D01*
X40112Y-286182D01*
X39704Y-286382D01*
X38245D01*
G01X39704D02*
X40579Y-288315D01*
G01X44212D02*
Y-286515D01*
X43045Y-284315D01*
G01X45379D02*
X44212Y-286515D01*
G01X53812Y-284315D02*
Y-288315D01*
G01X52470Y-284315D02*
X55154D01*
G01X58612Y-288315D02*
X58145Y-288248D01*
X57737Y-287982D01*
X57387Y-287582D01*
X57154Y-287115D01*
X57037Y-286582D01*
Y-286048D01*
X57154Y-285515D01*
X57387Y-285048D01*
X57737Y-284648D01*
X58145Y-284382D01*
X58612Y-284315D01*
X59079Y-284382D01*
X59487Y-284648D01*
X59837Y-285048D01*
X60070Y-285515D01*
X60187Y-286048D01*
Y-286582D01*
X60070Y-287115D01*
X59837Y-287582D01*
X59487Y-287982D01*
X59079Y-288248D01*
X58612Y-288315D01*
G01X66870D02*
Y-284315D01*
X69554Y-288315D01*
Y-284315D01*
G01X71787Y-288315D02*
X74237Y-284315D01*
G01X71787D02*
X74237Y-288315D01*
G01X76645D02*
Y-284315D01*
X78045D01*
X78512Y-284515D01*
X78862Y-284982D01*
X78979Y-285515D01*
X78862Y-286048D01*
X78570Y-286448D01*
X78045Y-286648D01*
X76645D01*
G01X85954Y-288315D02*
X87412Y-284315D01*
X88870Y-288315D01*
G01X88345Y-286915D02*
X86479D01*
G01X90870Y-288315D02*
Y-284315D01*
X93554Y-288315D01*
Y-284315D01*
G01X95729Y-288315D02*
Y-284315D01*
X96895D01*
X97362Y-284515D01*
X97712Y-284782D01*
X98004Y-285182D01*
X98237Y-285648D01*
X98295Y-286315D01*
X98237Y-286982D01*
X98004Y-287448D01*
X97712Y-287848D01*
X97362Y-288115D01*
X96895Y-288315D01*
X95729D01*
G01X105387Y-287782D02*
X105854Y-288115D01*
X106379Y-288315D01*
X106845D01*
X107312Y-288115D01*
X107662Y-287782D01*
X107837Y-287315D01*
X107720Y-286848D01*
X107429Y-286448D01*
X106904Y-286182D01*
X106204Y-286048D01*
X105795Y-285782D01*
X105620Y-285315D01*
X105737Y-284848D01*
X106029Y-284515D01*
X106437Y-284315D01*
X106845D01*
X107254Y-284448D01*
X107604Y-284782D01*
G01X110187Y-288315D02*
Y-284315D01*
G01X112637D02*
Y-288315D01*
G01Y-286315D02*
X110187D01*
G01X114754Y-288315D02*
X116212Y-284315D01*
X117670Y-288315D01*
G01X117145Y-286915D02*
X115279D01*
G01X119845Y-284315D02*
Y-288315D01*
X122179D01*
G01X124645Y-284315D02*
Y-288315D01*
X126979D01*
G01X134070D02*
Y-284315D01*
X136754Y-288315D01*
Y-284315D01*
G01X140212Y-288315D02*
X139745Y-288248D01*
X139337Y-287982D01*
X138987Y-287582D01*
X138754Y-287115D01*
X138637Y-286582D01*
Y-286048D01*
X138754Y-285515D01*
X138987Y-285048D01*
X139337Y-284648D01*
X139745Y-284382D01*
X140212Y-284315D01*
X140679Y-284382D01*
X141087Y-284648D01*
X141437Y-285048D01*
X141670Y-285515D01*
X141787Y-286048D01*
Y-286582D01*
X141670Y-287115D01*
X141437Y-287582D01*
X141087Y-287982D01*
X140679Y-288248D01*
X140212Y-288315D01*
G01X145012Y-284315D02*
Y-288315D01*
G01X143670Y-284315D02*
X146354D01*
G01X-3788Y-276315D02*
Y-280315D01*
G01X-5130Y-276315D02*
X-2446D01*
G01X-213Y-280315D02*
Y-276315D01*
G01X2237D02*
Y-280315D01*
G01Y-278315D02*
X-213D01*
G01X5112Y-276315D02*
X6512D01*
G01X5812D02*
Y-280315D01*
G01X5112D02*
X6512D01*
G01X9387Y-279782D02*
X9854Y-280115D01*
X10379Y-280315D01*
X10845D01*
X11312Y-280115D01*
X11662Y-279782D01*
X11837Y-279315D01*
X11720Y-278848D01*
X11429Y-278448D01*
X10904Y-278182D01*
X10204Y-278048D01*
X9795Y-277782D01*
X9620Y-277315D01*
X9737Y-276848D01*
X10029Y-276515D01*
X10437Y-276315D01*
X10845D01*
X11254Y-276448D01*
X11604Y-276782D01*
G01X18929Y-280315D02*
Y-276315D01*
X20095D01*
X20562Y-276515D01*
X20912Y-276782D01*
X21204Y-277182D01*
X21437Y-277648D01*
X21495Y-278315D01*
X21437Y-278982D01*
X21204Y-279448D01*
X20912Y-279848D01*
X20562Y-280115D01*
X20095Y-280315D01*
X18929D01*
G01X25012D02*
X24545Y-280248D01*
X24137Y-279982D01*
X23787Y-279582D01*
X23554Y-279115D01*
X23437Y-278582D01*
Y-278048D01*
X23554Y-277515D01*
X23787Y-277048D01*
X24137Y-276648D01*
X24545Y-276382D01*
X25012Y-276315D01*
X25479Y-276382D01*
X25887Y-276648D01*
X26237Y-277048D01*
X26470Y-277515D01*
X26587Y-278048D01*
Y-278582D01*
X26470Y-279115D01*
X26237Y-279582D01*
X25887Y-279982D01*
X25479Y-280248D01*
X25012Y-280315D01*
G01X31095Y-276648D02*
X30745Y-276448D01*
X30337Y-276315D01*
X29870D01*
X29345Y-276515D01*
X28937Y-276848D01*
X28645Y-277248D01*
X28412Y-277915D01*
X28354Y-278515D01*
X28470Y-279115D01*
X28645Y-279515D01*
X28995Y-279915D01*
X29404Y-280182D01*
X29812Y-280315D01*
X30220D01*
X30629Y-280182D01*
X30979Y-279982D01*
X31270Y-279715D01*
G01X33329Y-276315D02*
Y-279182D01*
X33562Y-279782D01*
X34029Y-280182D01*
X34612Y-280315D01*
X35195Y-280182D01*
X35662Y-279782D01*
X35895Y-279182D01*
Y-276315D01*
G01X37895Y-280315D02*
Y-276315D01*
X39412Y-279648D01*
X40929Y-276315D01*
Y-280315D01*
G01X45379D02*
X43045D01*
Y-276315D01*
X45379D01*
G01X44445Y-278248D02*
X43045D01*
G01X47670Y-280315D02*
Y-276315D01*
X50354Y-280315D01*
Y-276315D01*
G01X53812D02*
Y-280315D01*
G01X52470Y-276315D02*
X55154D01*
G01X64695Y-276648D02*
X64345Y-276448D01*
X63937Y-276315D01*
X63470D01*
X62945Y-276515D01*
X62537Y-276848D01*
X62245Y-277248D01*
X62012Y-277915D01*
X61954Y-278515D01*
X62070Y-279115D01*
X62245Y-279515D01*
X62595Y-279915D01*
X63004Y-280182D01*
X63412Y-280315D01*
X63820D01*
X64229Y-280182D01*
X64579Y-279982D01*
X64870Y-279715D01*
G01X68212Y-280315D02*
X67745Y-280248D01*
X67337Y-279982D01*
X66987Y-279582D01*
X66754Y-279115D01*
X66637Y-278582D01*
Y-278048D01*
X66754Y-277515D01*
X66987Y-277048D01*
X67337Y-276648D01*
X67745Y-276382D01*
X68212Y-276315D01*
X68679Y-276382D01*
X69087Y-276648D01*
X69437Y-277048D01*
X69670Y-277515D01*
X69787Y-278048D01*
Y-278582D01*
X69670Y-279115D01*
X69437Y-279582D01*
X69087Y-279982D01*
X68679Y-280248D01*
X68212Y-280315D01*
G01X71670D02*
Y-276315D01*
X74354Y-280315D01*
Y-276315D01*
G01X77812D02*
Y-280315D01*
G01X76470Y-276315D02*
X79154D01*
G01X81154Y-280315D02*
X82612Y-276315D01*
X84070Y-280315D01*
G01X83545Y-278915D02*
X81679D01*
G01X86712Y-276315D02*
X88112D01*
G01X87412D02*
Y-280315D01*
G01X86712D02*
X88112D01*
G01X90870D02*
Y-276315D01*
X93554Y-280315D01*
Y-276315D01*
G01X95787Y-279782D02*
X96254Y-280115D01*
X96779Y-280315D01*
X97245D01*
X97712Y-280115D01*
X98062Y-279782D01*
X98237Y-279315D01*
X98120Y-278848D01*
X97829Y-278448D01*
X97304Y-278182D01*
X96604Y-278048D01*
X96195Y-277782D01*
X96020Y-277315D01*
X96137Y-276848D01*
X96429Y-276515D01*
X96837Y-276315D01*
X97245D01*
X97654Y-276448D01*
X98004Y-276782D01*
G01X105912Y-276315D02*
X107312D01*
G01X106612D02*
Y-280315D01*
G01X105912D02*
X107312D01*
G01X110070D02*
Y-276315D01*
X112754Y-280315D01*
Y-276315D01*
G01X115104Y-280315D02*
Y-276315D01*
X117320D01*
G01X116504Y-278248D02*
X115104D01*
G01X121012Y-280315D02*
X120545Y-280248D01*
X120137Y-279982D01*
X119787Y-279582D01*
X119554Y-279115D01*
X119437Y-278582D01*
Y-278048D01*
X119554Y-277515D01*
X119787Y-277048D01*
X120137Y-276648D01*
X120545Y-276382D01*
X121012Y-276315D01*
X121479Y-276382D01*
X121887Y-276648D01*
X122237Y-277048D01*
X122470Y-277515D01*
X122587Y-278048D01*
Y-278582D01*
X122470Y-279115D01*
X122237Y-279582D01*
X121887Y-279982D01*
X121479Y-280248D01*
X121012Y-280315D01*
G01X124645D02*
Y-276315D01*
X126104D01*
X126570Y-276515D01*
X126862Y-276782D01*
X126979Y-277315D01*
X126862Y-277848D01*
X126512Y-278182D01*
X126104Y-278382D01*
X124645D01*
G01X126104D02*
X126979Y-280315D01*
G01X129095D02*
Y-276315D01*
X130612Y-279648D01*
X132129Y-276315D01*
Y-280315D01*
G01X133954D02*
X135412Y-276315D01*
X136870Y-280315D01*
G01X136345Y-278915D02*
X134479D01*
G01X140212Y-276315D02*
Y-280315D01*
G01X138870Y-276315D02*
X141554D01*
G01X144312D02*
X145712D01*
G01X145012D02*
Y-280315D01*
G01X144312D02*
X145712D01*
G01X149812D02*
X149345Y-280248D01*
X148937Y-279982D01*
X148587Y-279582D01*
X148354Y-279115D01*
X148237Y-278582D01*
Y-278048D01*
X148354Y-277515D01*
X148587Y-277048D01*
X148937Y-276648D01*
X149345Y-276382D01*
X149812Y-276315D01*
X150279Y-276382D01*
X150687Y-276648D01*
X151037Y-277048D01*
X151270Y-277515D01*
X151387Y-278048D01*
Y-278582D01*
X151270Y-279115D01*
X151037Y-279582D01*
X150687Y-279982D01*
X150279Y-280248D01*
X149812Y-280315D01*
G01X153270D02*
Y-276315D01*
X155954Y-280315D01*
Y-276315D01*
G01X38167Y-339015D02*
X38794Y-339515D01*
X39499Y-339815D01*
X40125D01*
X40752Y-339515D01*
X41222Y-339015D01*
X41457Y-338315D01*
X41300Y-337615D01*
X40909Y-337015D01*
X40204Y-336615D01*
X39264Y-336415D01*
X38715Y-336015D01*
X38480Y-335315D01*
X38637Y-334615D01*
X39029Y-334115D01*
X39577Y-333815D01*
X40125D01*
X40674Y-334015D01*
X41144Y-334515D01*
G01X47679Y-339815D02*
X44545D01*
Y-333815D01*
X47679D01*
G01X46425Y-336715D02*
X44545D01*
G01X54135Y-334315D02*
X53665Y-334015D01*
X53117Y-333815D01*
X52490D01*
X51785Y-334115D01*
X51237Y-334615D01*
X50845Y-335215D01*
X50532Y-336215D01*
X50454Y-337115D01*
X50610Y-338015D01*
X50845Y-338615D01*
X51315Y-339215D01*
X51864Y-339615D01*
X52412Y-339815D01*
X52960D01*
X53509Y-339615D01*
X53979Y-339315D01*
X54370Y-338915D01*
G01X58712Y-339815D02*
X58085Y-339715D01*
X57537Y-339315D01*
X57067Y-338715D01*
X56754Y-338015D01*
X56597Y-337215D01*
Y-336415D01*
X56754Y-335615D01*
X57067Y-334915D01*
X57537Y-334315D01*
X58085Y-333915D01*
X58712Y-333815D01*
X59339Y-333915D01*
X59887Y-334315D01*
X60357Y-334915D01*
X60670Y-335615D01*
X60827Y-336415D01*
Y-337215D01*
X60670Y-338015D01*
X60357Y-338715D01*
X59887Y-339315D01*
X59339Y-339715D01*
X58712Y-339815D01*
G01X63210D02*
Y-333815D01*
X66814Y-339815D01*
Y-333815D01*
G01X69589Y-339815D02*
Y-333815D01*
X71155D01*
X71782Y-334115D01*
X72252Y-334515D01*
X72644Y-335115D01*
X72957Y-335815D01*
X73035Y-336815D01*
X72957Y-337815D01*
X72644Y-338515D01*
X72252Y-339115D01*
X71782Y-339515D01*
X71155Y-339815D01*
X69589D01*
G01X75654D02*
X77612Y-333815D01*
X79570Y-339815D01*
G01X78865Y-337715D02*
X76359D01*
G01X82345Y-339815D02*
Y-333815D01*
X84304D01*
X84930Y-334115D01*
X85322Y-334515D01*
X85479Y-335315D01*
X85322Y-336115D01*
X84852Y-336615D01*
X84304Y-336915D01*
X82345D01*
G01X84304D02*
X85479Y-339815D01*
G01X90212D02*
Y-337115D01*
X88645Y-333815D01*
G01X91779D02*
X90212Y-337115D01*
G01X101245Y-339815D02*
Y-333815D01*
X103125D01*
X103752Y-334115D01*
X104222Y-334815D01*
X104379Y-335615D01*
X104222Y-336415D01*
X103830Y-337015D01*
X103125Y-337315D01*
X101245D01*
G01X107154Y-339815D02*
X109112Y-333815D01*
X111070Y-339815D01*
G01X110365Y-337715D02*
X107859D01*
G01X113767Y-339015D02*
X114394Y-339515D01*
X115099Y-339815D01*
X115725D01*
X116352Y-339515D01*
X116822Y-339015D01*
X117057Y-338315D01*
X116900Y-337615D01*
X116509Y-337015D01*
X115804Y-336615D01*
X114864Y-336415D01*
X114315Y-336015D01*
X114080Y-335315D01*
X114237Y-334615D01*
X114629Y-334115D01*
X115177Y-333815D01*
X115725D01*
X116274Y-334015D01*
X116744Y-334515D01*
G01X121712Y-333815D02*
Y-339815D01*
G01X119910Y-333815D02*
X123514D01*
G01X129579Y-339815D02*
X126445D01*
Y-333815D01*
X129579D01*
G01X128325Y-336715D02*
X126445D01*
G01X132275Y-339815D02*
Y-333815D01*
X134312Y-338815D01*
X136349Y-333815D01*
Y-339815D01*
G01X138654D02*
X140612Y-333815D01*
X142570Y-339815D01*
G01X141865Y-337715D02*
X139359D01*
G01X145267Y-339015D02*
X145894Y-339515D01*
X146599Y-339815D01*
X147225D01*
X147852Y-339515D01*
X148322Y-339015D01*
X148557Y-338315D01*
X148400Y-337615D01*
X148009Y-337015D01*
X147304Y-336615D01*
X146364Y-336415D01*
X145815Y-336015D01*
X145580Y-335315D01*
X145737Y-334615D01*
X146129Y-334115D01*
X146677Y-333815D01*
X147225D01*
X147774Y-334015D01*
X148244Y-334515D01*
G01X151489Y-339815D02*
Y-333815D01*
G01X154465D02*
X151489Y-337515D01*
G01X154935Y-339815D02*
X152820Y-335815D01*
G01X39104Y-331315D02*
Y-327315D01*
X41320D01*
G01X40504Y-329248D02*
X39104D01*
G01X44312Y-327315D02*
X45712D01*
G01X45012D02*
Y-331315D01*
G01X44312D02*
X45712D01*
G01X48645Y-327315D02*
Y-331315D01*
X50979D01*
G01X53095D02*
Y-327315D01*
X54612Y-330648D01*
X56129Y-327315D01*
Y-331315D01*
G01X163929D02*
Y-327315D01*
X165095D01*
X165562Y-327515D01*
X165912Y-327782D01*
X166204Y-328182D01*
X166437Y-328648D01*
X166495Y-329315D01*
X166437Y-329982D01*
X166204Y-330448D01*
X165912Y-330848D01*
X165562Y-331115D01*
X165095Y-331315D01*
X163929D01*
G01X168554D02*
X170012Y-327315D01*
X171470Y-331315D01*
G01X170945Y-329915D02*
X169079D01*
G01X174812Y-327315D02*
Y-331315D01*
G01X173470Y-327315D02*
X176154D01*
G01X180779Y-331315D02*
X178445D01*
Y-327315D01*
X180779D01*
G01X179845Y-329248D02*
X178445D01*
G01X163870Y-251315D02*
Y-247315D01*
X166554Y-251315D01*
Y-247315D01*
G01X168554Y-251315D02*
X170012Y-247315D01*
X171470Y-251315D01*
G01X170945Y-249915D02*
X169079D01*
G01X173295Y-251315D02*
Y-247315D01*
X174812Y-250648D01*
X176329Y-247315D01*
Y-251315D01*
G01X180779D02*
X178445D01*
Y-247315D01*
X180779D01*
G01X179845Y-249248D02*
X178445D01*
G01X167212Y-335315D02*
X166745Y-335448D01*
X166395Y-335782D01*
X166162Y-336182D01*
X165987Y-336715D01*
X165929Y-337315D01*
X165987Y-337915D01*
X166162Y-338448D01*
X166395Y-338848D01*
X166745Y-339182D01*
X167212Y-339315D01*
X167679Y-339182D01*
X168029Y-338848D01*
X168262Y-338448D01*
X168437Y-337915D01*
X168495Y-337315D01*
X168437Y-336715D01*
X168262Y-336182D01*
X168029Y-335782D01*
X167679Y-335448D01*
X167212Y-335315D01*
G01X170904Y-337648D02*
X171312Y-337182D01*
X171662Y-336915D01*
X172129Y-336782D01*
X172537Y-336915D01*
X172829Y-337182D01*
X173062Y-337582D01*
X173120Y-338048D01*
X173062Y-338448D01*
X172829Y-338848D01*
X172479Y-339182D01*
X172070Y-339315D01*
X171604Y-339182D01*
X171195Y-338782D01*
X170962Y-338182D01*
X170904Y-337515D01*
X171020Y-336648D01*
X171195Y-336182D01*
X171487Y-335715D01*
X171895Y-335382D01*
X172304Y-335315D01*
X172712Y-335448D01*
X173004Y-335782D01*
G01X176054Y-337982D02*
X177570D01*
G01X181612Y-339315D02*
Y-335315D01*
X180912Y-336115D01*
G01Y-339315D02*
X182312D01*
G01X185304Y-335982D02*
X185654Y-335582D01*
X186062Y-335382D01*
X186529Y-335315D01*
X187112Y-335448D01*
X187520Y-335782D01*
X187637Y-336182D01*
X187579Y-336582D01*
X187345Y-336915D01*
X186179Y-337582D01*
X185654Y-338048D01*
X185304Y-338715D01*
X185187Y-339315D01*
X187637D01*
G01X190454Y-337982D02*
X191970D01*
G01X194904Y-335982D02*
X195254Y-335582D01*
X195662Y-335382D01*
X196129Y-335315D01*
X196712Y-335448D01*
X197120Y-335782D01*
X197237Y-336182D01*
X197179Y-336582D01*
X196945Y-336915D01*
X195779Y-337582D01*
X195254Y-338048D01*
X194904Y-338715D01*
X194787Y-339315D01*
X197237D01*
G01X201512D02*
Y-335315D01*
X199354Y-338182D01*
X202270D01*
G01X173462Y-317148D02*
X176962D01*
G01X178262D02*
X181762D01*
G01X183062D02*
X186562D01*
G01X195695Y-312148D02*
X195345Y-311948D01*
X194937Y-311815D01*
X194470D01*
X193945Y-312015D01*
X193537Y-312348D01*
X193245Y-312748D01*
X193012Y-313415D01*
X192954Y-314015D01*
X193070Y-314615D01*
X193245Y-315015D01*
X193595Y-315415D01*
X194004Y-315682D01*
X194412Y-315815D01*
X194820D01*
X195229Y-315682D01*
X195579Y-315482D01*
X195870Y-315215D01*
G01X199212Y-315815D02*
X198745Y-315748D01*
X198337Y-315482D01*
X197987Y-315082D01*
X197754Y-314615D01*
X197637Y-314082D01*
Y-313548D01*
X197754Y-313015D01*
X197987Y-312548D01*
X198337Y-312148D01*
X198745Y-311882D01*
X199212Y-311815D01*
X199679Y-311882D01*
X200087Y-312148D01*
X200437Y-312548D01*
X200670Y-313015D01*
X200787Y-313548D01*
Y-314082D01*
X200670Y-314615D01*
X200437Y-315082D01*
X200087Y-315482D01*
X199679Y-315748D01*
X199212Y-315815D01*
G01X202495D02*
Y-311815D01*
X204012Y-315148D01*
X205529Y-311815D01*
Y-315815D01*
G01X207645D02*
Y-311815D01*
X209045D01*
X209512Y-312015D01*
X209862Y-312482D01*
X209979Y-313015D01*
X209862Y-313548D01*
X209570Y-313948D01*
X209045Y-314148D01*
X207645D01*
G01X212154Y-315815D02*
X213612Y-311815D01*
X215070Y-315815D01*
G01X214545Y-314415D02*
X212679D01*
G01X217070Y-315815D02*
Y-311815D01*
X219754Y-315815D01*
Y-311815D01*
G01X223212Y-315815D02*
Y-314015D01*
X222045Y-311815D01*
G01X224379D02*
X223212Y-314015D01*
G01X234095Y-312148D02*
X233745Y-311948D01*
X233337Y-311815D01*
X232870D01*
X232345Y-312015D01*
X231937Y-312348D01*
X231645Y-312748D01*
X231412Y-313415D01*
X231354Y-314015D01*
X231470Y-314615D01*
X231645Y-315015D01*
X231995Y-315415D01*
X232404Y-315682D01*
X232812Y-315815D01*
X233220D01*
X233629Y-315682D01*
X233979Y-315482D01*
X234270Y-315215D01*
G01X237612Y-315815D02*
X237145Y-315748D01*
X236737Y-315482D01*
X236387Y-315082D01*
X236154Y-314615D01*
X236037Y-314082D01*
Y-313548D01*
X236154Y-313015D01*
X236387Y-312548D01*
X236737Y-312148D01*
X237145Y-311882D01*
X237612Y-311815D01*
X238079Y-311882D01*
X238487Y-312148D01*
X238837Y-312548D01*
X239070Y-313015D01*
X239187Y-313548D01*
Y-314082D01*
X239070Y-314615D01*
X238837Y-315082D01*
X238487Y-315482D01*
X238079Y-315748D01*
X237612Y-315815D01*
G01X241070D02*
Y-311815D01*
X243754Y-315815D01*
Y-311815D01*
G01X246104Y-315815D02*
Y-311815D01*
X248320D01*
G01X247504Y-313748D02*
X246104D01*
G01X251312Y-311815D02*
X252712D01*
G01X252012D02*
Y-315815D01*
G01X251312D02*
X252712D01*
G01X255529D02*
Y-311815D01*
X256695D01*
X257162Y-312015D01*
X257512Y-312282D01*
X257804Y-312682D01*
X258037Y-313148D01*
X258095Y-313815D01*
X258037Y-314482D01*
X257804Y-314948D01*
X257512Y-315348D01*
X257162Y-315615D01*
X256695Y-315815D01*
X255529D01*
G01X262779D02*
X260445D01*
Y-311815D01*
X262779D01*
G01X261845Y-313748D02*
X260445D01*
G01X265070Y-315815D02*
Y-311815D01*
X267754Y-315815D01*
Y-311815D01*
G01X271212D02*
Y-315815D01*
G01X269870Y-311815D02*
X272554D01*
G01X275312D02*
X276712D01*
G01X276012D02*
Y-315815D01*
G01X275312D02*
X276712D01*
G01X279354D02*
X280812Y-311815D01*
X282270Y-315815D01*
G01X281745Y-314415D02*
X279879D01*
G01X284445Y-311815D02*
Y-315815D01*
X286779D01*
G01X178167Y-300315D02*
X181457Y-294015D01*
G01X178167D02*
X181457Y-300315D01*
G01X173462Y-300648D02*
X176962D01*
G01X178262D02*
X181762D01*
G01X183062D02*
X186562D01*
G01X195695Y-295648D02*
X195345Y-295448D01*
X194937Y-295315D01*
X194470D01*
X193945Y-295515D01*
X193537Y-295848D01*
X193245Y-296248D01*
X193012Y-296915D01*
X192954Y-297515D01*
X193070Y-298115D01*
X193245Y-298515D01*
X193595Y-298915D01*
X194004Y-299182D01*
X194412Y-299315D01*
X194820D01*
X195229Y-299182D01*
X195579Y-298982D01*
X195870Y-298715D01*
G01X199212Y-299315D02*
X198745Y-299248D01*
X198337Y-298982D01*
X197987Y-298582D01*
X197754Y-298115D01*
X197637Y-297582D01*
Y-297048D01*
X197754Y-296515D01*
X197987Y-296048D01*
X198337Y-295648D01*
X198745Y-295382D01*
X199212Y-295315D01*
X199679Y-295382D01*
X200087Y-295648D01*
X200437Y-296048D01*
X200670Y-296515D01*
X200787Y-297048D01*
Y-297582D01*
X200670Y-298115D01*
X200437Y-298582D01*
X200087Y-298982D01*
X199679Y-299248D01*
X199212Y-299315D01*
G01X202495D02*
Y-295315D01*
X204012Y-298648D01*
X205529Y-295315D01*
Y-299315D01*
G01X207645D02*
Y-295315D01*
X209045D01*
X209512Y-295515D01*
X209862Y-295982D01*
X209979Y-296515D01*
X209862Y-297048D01*
X209570Y-297448D01*
X209045Y-297648D01*
X207645D01*
G01X212154Y-299315D02*
X213612Y-295315D01*
X215070Y-299315D01*
G01X214545Y-297915D02*
X212679D01*
G01X217070Y-299315D02*
Y-295315D01*
X219754Y-299315D01*
Y-295315D01*
G01X223212Y-299315D02*
Y-297515D01*
X222045Y-295315D01*
G01X224379D02*
X223212Y-297515D01*
G01X232112Y-295315D02*
X233512D01*
G01X232812D02*
Y-299315D01*
G01X232112D02*
X233512D01*
G01X236270D02*
Y-295315D01*
X238954Y-299315D01*
Y-295315D01*
G01X242412D02*
Y-299315D01*
G01X241070Y-295315D02*
X243754D01*
G01X248379Y-299315D02*
X246045D01*
Y-295315D01*
X248379D01*
G01X247445Y-297248D02*
X246045D01*
G01X250845Y-299315D02*
Y-295315D01*
X252304D01*
X252770Y-295515D01*
X253062Y-295782D01*
X253179Y-296315D01*
X253062Y-296848D01*
X252712Y-297182D01*
X252304Y-297382D01*
X250845D01*
G01X252304D02*
X253179Y-299315D01*
G01X255470D02*
Y-295315D01*
X258154Y-299315D01*
Y-295315D01*
G01X260154Y-299315D02*
X261612Y-295315D01*
X263070Y-299315D01*
G01X262545Y-297915D02*
X260679D01*
G01X265245Y-295315D02*
Y-299315D01*
X267579D01*
G01X173462Y-284648D02*
X176962D01*
G01X178262D02*
X181762D01*
G01X183062D02*
X186562D01*
G01X195695Y-279648D02*
X195345Y-279448D01*
X194937Y-279315D01*
X194470D01*
X193945Y-279515D01*
X193537Y-279848D01*
X193245Y-280248D01*
X193012Y-280915D01*
X192954Y-281515D01*
X193070Y-282115D01*
X193245Y-282515D01*
X193595Y-282915D01*
X194004Y-283182D01*
X194412Y-283315D01*
X194820D01*
X195229Y-283182D01*
X195579Y-282982D01*
X195870Y-282715D01*
G01X199212Y-283315D02*
X198745Y-283248D01*
X198337Y-282982D01*
X197987Y-282582D01*
X197754Y-282115D01*
X197637Y-281582D01*
Y-281048D01*
X197754Y-280515D01*
X197987Y-280048D01*
X198337Y-279648D01*
X198745Y-279382D01*
X199212Y-279315D01*
X199679Y-279382D01*
X200087Y-279648D01*
X200437Y-280048D01*
X200670Y-280515D01*
X200787Y-281048D01*
Y-281582D01*
X200670Y-282115D01*
X200437Y-282582D01*
X200087Y-282982D01*
X199679Y-283248D01*
X199212Y-283315D01*
G01X202495D02*
Y-279315D01*
X204012Y-282648D01*
X205529Y-279315D01*
Y-283315D01*
G01X207645D02*
Y-279315D01*
X209045D01*
X209512Y-279515D01*
X209862Y-279982D01*
X209979Y-280515D01*
X209862Y-281048D01*
X209570Y-281448D01*
X209045Y-281648D01*
X207645D01*
G01X212154Y-283315D02*
X213612Y-279315D01*
X215070Y-283315D01*
G01X214545Y-281915D02*
X212679D01*
G01X217070Y-283315D02*
Y-279315D01*
X219754Y-283315D01*
Y-279315D01*
G01X223212Y-283315D02*
Y-281515D01*
X222045Y-279315D01*
G01X224379D02*
X223212Y-281515D01*
G01X231645Y-283315D02*
Y-279315D01*
X233045D01*
X233512Y-279515D01*
X233862Y-279982D01*
X233979Y-280515D01*
X233862Y-281048D01*
X233570Y-281448D01*
X233045Y-281648D01*
X231645D01*
G01X236329Y-279315D02*
Y-282182D01*
X236562Y-282782D01*
X237029Y-283182D01*
X237612Y-283315D01*
X238195Y-283182D01*
X238662Y-282782D01*
X238895Y-282182D01*
Y-279315D01*
G01X242879Y-281182D02*
X243112Y-280982D01*
X243287Y-280648D01*
X243404Y-280182D01*
X243287Y-279782D01*
X243054Y-279515D01*
X242645Y-279315D01*
X241070D01*
Y-283315D01*
X242995D01*
X243404Y-283048D01*
X243637Y-282648D01*
X243754Y-282182D01*
X243637Y-281715D01*
X243287Y-281315D01*
X242879Y-281182D01*
X241070D01*
G01X246045Y-279315D02*
Y-283315D01*
X248379D01*
G01X251312Y-279315D02*
X252712D01*
G01X252012D02*
Y-283315D01*
G01X251312D02*
X252712D01*
G01X258095Y-279648D02*
X257745Y-279448D01*
X257337Y-279315D01*
X256870D01*
X256345Y-279515D01*
X255937Y-279848D01*
X255645Y-280248D01*
X255412Y-280915D01*
X255354Y-281515D01*
X255470Y-282115D01*
X255645Y-282515D01*
X255995Y-282915D01*
X256404Y-283182D01*
X256812Y-283315D01*
X257220D01*
X257629Y-283182D01*
X257979Y-282982D01*
X258270Y-282715D01*
G01X213870Y-331315D02*
Y-327315D01*
X216554Y-331315D01*
Y-327315D01*
G01X218729D02*
Y-330182D01*
X218962Y-330782D01*
X219429Y-331182D01*
X220012Y-331315D01*
X220595Y-331182D01*
X221062Y-330782D01*
X221295Y-330182D01*
Y-327315D01*
G01X223295Y-331315D02*
Y-327315D01*
X224812Y-330648D01*
X226329Y-327315D01*
Y-331315D01*
G01X230079Y-329182D02*
X230312Y-328982D01*
X230487Y-328648D01*
X230604Y-328182D01*
X230487Y-327782D01*
X230254Y-327515D01*
X229845Y-327315D01*
X228270D01*
Y-331315D01*
X230195D01*
X230604Y-331048D01*
X230837Y-330648D01*
X230954Y-330182D01*
X230837Y-329715D01*
X230487Y-329315D01*
X230079Y-329182D01*
X228270D01*
G01X235579Y-331315D02*
X233245D01*
Y-327315D01*
X235579D01*
G01X234645Y-329248D02*
X233245D01*
G01X238045Y-331315D02*
Y-327315D01*
X239504D01*
X239970Y-327515D01*
X240262Y-327782D01*
X240379Y-328315D01*
X240262Y-328848D01*
X239912Y-329182D01*
X239504Y-329382D01*
X238045D01*
G01X239504D02*
X240379Y-331315D01*
G01X248812Y-338515D02*
Y-332215D01*
X247872Y-333475D01*
G01Y-338515D02*
X249752D01*
G01X254955D02*
X255112Y-337150D01*
X255347Y-335995D01*
X255660Y-334945D01*
X256052Y-333790D01*
X256679Y-332215D01*
X253545D01*
G01X261412D02*
X260785Y-332425D01*
X260315Y-332950D01*
X260002Y-333580D01*
X259767Y-334420D01*
X259689Y-335365D01*
X259767Y-336310D01*
X260002Y-337150D01*
X260315Y-337780D01*
X260785Y-338305D01*
X261412Y-338515D01*
X262039Y-338305D01*
X262509Y-337780D01*
X262822Y-337150D01*
X263057Y-336310D01*
X263135Y-335365D01*
X263057Y-334420D01*
X262822Y-333580D01*
X262509Y-332950D01*
X262039Y-332425D01*
X261412Y-332215D01*
G01X266694Y-336415D02*
X268730D01*
G01X274012Y-338515D02*
X274560Y-338410D01*
X275187Y-338095D01*
X275579Y-337570D01*
X275735Y-336835D01*
X275579Y-336100D01*
X275109Y-335470D01*
X274404Y-335155D01*
X273620D01*
X273150Y-334945D01*
X272759Y-334420D01*
X272602Y-333685D01*
X272837Y-332950D01*
X273385Y-332425D01*
X274012Y-332215D01*
X274639Y-332425D01*
X275187Y-332950D01*
X275422Y-333685D01*
X275265Y-334420D01*
X274874Y-334945D01*
X274404Y-335155D01*
X273620D01*
X272915Y-335470D01*
X272445Y-336100D01*
X272289Y-336835D01*
X272445Y-337570D01*
X272837Y-338095D01*
X273464Y-338410D01*
X274012Y-338515D01*
G01X278980Y-337780D02*
X279529Y-338305D01*
X280155Y-338515D01*
X280782Y-338305D01*
X281330Y-337675D01*
X281722Y-336730D01*
X281879Y-335785D01*
Y-334630D01*
X281722Y-333685D01*
X281330Y-332845D01*
X280860Y-332425D01*
X280312Y-332215D01*
X279685Y-332425D01*
X279215Y-332845D01*
X278902Y-333475D01*
X278745Y-334315D01*
X278902Y-335050D01*
X279294Y-335785D01*
X279764Y-336205D01*
X280312Y-336310D01*
X280939Y-336100D01*
X281409Y-335575D01*
X281879Y-334630D01*
G01X286612Y-338515D02*
Y-332215D01*
X285672Y-333475D01*
G01Y-338515D02*
X287552D01*
G01X291424Y-333265D02*
X291894Y-332635D01*
X292442Y-332320D01*
X293069Y-332215D01*
X293852Y-332425D01*
X294400Y-332950D01*
X294557Y-333580D01*
X294479Y-334210D01*
X294165Y-334735D01*
X292599Y-335785D01*
X291894Y-336520D01*
X291424Y-337570D01*
X291267Y-338515D01*
X294557D01*
G01X297880Y-337780D02*
X298429Y-338305D01*
X299055Y-338515D01*
X299682Y-338305D01*
X300230Y-337675D01*
X300622Y-336730D01*
X300779Y-335785D01*
Y-334630D01*
X300622Y-333685D01*
X300230Y-332845D01*
X299760Y-332425D01*
X299212Y-332215D01*
X298585Y-332425D01*
X298115Y-332845D01*
X297802Y-333475D01*
X297645Y-334315D01*
X297802Y-335050D01*
X298194Y-335785D01*
X298664Y-336205D01*
X299212Y-336310D01*
X299839Y-336100D01*
X300309Y-335575D01*
X300779Y-334630D01*
G01X341745Y-338515D02*
Y-332215D01*
X343704D01*
X344330Y-332530D01*
X344722Y-332950D01*
X344879Y-333790D01*
X344722Y-334630D01*
X344252Y-335155D01*
X343704Y-335470D01*
X341745D01*
G01X343704D02*
X344879Y-338515D01*
G01X351179D02*
X348045D01*
Y-332215D01*
X351179D01*
G01X349925Y-335260D02*
X348045D01*
G01X353954Y-332215D02*
X355912Y-338515D01*
X357870Y-332215D01*
G01X370235Y-332740D02*
X369765Y-332425D01*
X369217Y-332215D01*
X368590D01*
X367885Y-332530D01*
X367337Y-333055D01*
X366945Y-333685D01*
X366632Y-334735D01*
X366554Y-335680D01*
X366710Y-336625D01*
X366945Y-337255D01*
X367415Y-337885D01*
X367964Y-338305D01*
X368512Y-338515D01*
X369060D01*
X369609Y-338305D01*
X370079Y-337990D01*
X370470Y-337570D01*
G01X239995Y-261415D02*
Y-255115D01*
X241875D01*
X242502Y-255430D01*
X242972Y-256165D01*
X243129Y-257005D01*
X242972Y-257845D01*
X242580Y-258475D01*
X241875Y-258790D01*
X239995D01*
G01X246060Y-261415D02*
Y-255115D01*
X249664Y-261415D01*
Y-255115D01*
G01X255729Y-261415D02*
X252595D01*
Y-255115D01*
X255729D01*
G01X254475Y-258160D02*
X252595D01*
G01X258504Y-255115D02*
X260462Y-261415D01*
X262420Y-255115D01*
G01X266605Y-261415D02*
X266762Y-260050D01*
X266997Y-258895D01*
X267310Y-257845D01*
X267702Y-256690D01*
X268329Y-255115D01*
X265195D01*
G01X271574Y-256165D02*
X272044Y-255535D01*
X272592Y-255220D01*
X273219Y-255115D01*
X274002Y-255325D01*
X274550Y-255850D01*
X274707Y-256480D01*
X274629Y-257110D01*
X274315Y-257635D01*
X272749Y-258685D01*
X272044Y-259420D01*
X271574Y-260470D01*
X271417Y-261415D01*
X274707D01*
G01X277874Y-256165D02*
X278344Y-255535D01*
X278892Y-255220D01*
X279519Y-255115D01*
X280302Y-255325D01*
X280850Y-255850D01*
X281007Y-256480D01*
X280929Y-257110D01*
X280615Y-257635D01*
X279049Y-258685D01*
X278344Y-259420D01*
X277874Y-260470D01*
X277717Y-261415D01*
X281007D01*
G01X285662Y-255115D02*
X285035Y-255325D01*
X284565Y-255850D01*
X284252Y-256480D01*
X284017Y-257320D01*
X283939Y-258265D01*
X284017Y-259210D01*
X284252Y-260050D01*
X284565Y-260680D01*
X285035Y-261205D01*
X285662Y-261415D01*
X286289Y-261205D01*
X286759Y-260680D01*
X287072Y-260050D01*
X287307Y-259210D01*
X287385Y-258265D01*
X287307Y-257320D01*
X287072Y-256480D01*
X286759Y-255850D01*
X286289Y-255325D01*
X285662Y-255115D01*
G01X292589Y-258055D02*
X292902Y-257740D01*
X293137Y-257215D01*
X293294Y-256480D01*
X293137Y-255850D01*
X292824Y-255430D01*
X292275Y-255115D01*
X290160D01*
Y-261415D01*
X292745D01*
X293294Y-260995D01*
X293607Y-260365D01*
X293764Y-259630D01*
X293607Y-258895D01*
X293137Y-258265D01*
X292589Y-258055D01*
X290160D01*
G01X296695Y-261415D02*
Y-255115D01*
X298575D01*
X299202Y-255430D01*
X299672Y-256165D01*
X299829Y-257005D01*
X299672Y-257845D01*
X299280Y-258475D01*
X298575Y-258790D01*
X296695D01*
G01X304562Y-261415D02*
Y-255115D01*
X303622Y-256375D01*
G01Y-261415D02*
X305502D01*
M02*
