G04 ================== begin FILE IDENTIFICATION RECORD ==================*
G04 Layout Name:  LAY-89129_C.brd*
G04 Film Name:    sss.art*
G04 File Format:  Gerber RS274X*
G04 File Origin:  Cadence Allegro 17.4-S037*
G04 Origin Date:  Wed Jun 12 20:14:21 2024*
G04 *
G04 Layer:  REF DES/SILKSCREEN_BOTTOM*
G04 Layer:  PACKAGE GEOMETRY/SILKSCREEN_BOTTOM*
G04 Layer:  DRAWING FORMAT/FILM_TITLE_BLOCK*
G04 Layer:  BOARD GEOMETRY/SILKSCREEN_BOTTOM*
G04 Layer:  BOARD GEOMETRY/DESIGN_OUTLINE*
G04 Layer:  BOARD GEOMETRY/CUTOUT*
G04 *
G04 Offset:    (0.00 0.00)*
G04 Mirror:    No*
G04 Mode:      Positive*
G04 Rotation:  0*
G04 FullContactRelief:  No*
G04 UndefLineWidth:     8.00*
G04 ================== end FILE IDENTIFICATION RECORD ====================*
%FSLAX55Y55*MOIN*%
%IR0*IPPOS*OFA0.00000B0.00000*MIA0B0*SFA1.00000B1.00000*%
%ADD10C,.01*%
%ADD11C,.02*%
%ADD12C,.008*%
%ADD13C,.006*%
%ADD14C,.007*%
G75*
%LPD*%
G75*
G36*
G01X61776Y132689D02*
G03I-276J0D01*
G37*
G36*
G01X67059Y162689D02*
G03I-276J0D01*
G37*
G36*
G01X92059Y161689D02*
G03I-276J0D01*
G37*
G54D10*
G01X-14538Y-323315D02*
X385462D01*
G01X-14538Y-293315D02*
Y-273315D01*
X385462D01*
G01X35462Y-343315D02*
Y-323315D01*
G01X137579Y69500D02*
X37579D01*
Y94500D01*
X137579D01*
Y69500D01*
G01X137379Y95685D02*
X37379D01*
Y120685D01*
X137379D01*
Y95685D01*
G01X160962Y-343315D02*
Y-323315D01*
G01X160462Y-273315D02*
Y-243315D01*
G01X288300Y168500D02*
X188300D01*
Y193500D01*
X288300D01*
Y168500D01*
G01X210462Y-343315D02*
Y-323315D01*
G54D11*
G01X385462Y-243315D02*
Y-343315D01*
X-14538D01*
G01D02*
Y-243315D01*
X385462D01*
G54D12*
G01X-309796Y204036D02*
X-98217D01*
G02X-95717Y201536I0J-2500D01*
G01Y192885D01*
Y190385D01*
X-93217D01*
X-15000D01*
X-12500D01*
Y192885D01*
Y221221D01*
G02X-10000Y223721I2500J0D01*
G01X418071D01*
G02X420571Y221221I0J-2500D01*
G01Y-10000D01*
G02X418071Y-12500I-2500J0D01*
G01X-10000D01*
G02X-12500Y-10000I0J2500D01*
G01Y18336D01*
Y20836D01*
X-15000D01*
X-93217D01*
X-95717D01*
Y18336D01*
Y9685D01*
G02X-98217Y7185I-2500J0D01*
G01X-309796D01*
G02X-312296Y9685I0J2500D01*
G01Y201536D01*
G02X-309796Y204036I2500J0D01*
G01X132886Y79500D02*
X132729Y80865D01*
X132494Y82020D01*
X132181Y83070D01*
X131789Y84225D01*
X131162Y85800D01*
X134296D01*
G01X126429D02*
X127056Y85590D01*
X127526Y85065D01*
X127839Y84435D01*
X128074Y83595D01*
X128152Y82650D01*
X128074Y81705D01*
X127839Y80865D01*
X127526Y80235D01*
X127056Y79710D01*
X126429Y79500D01*
X125802Y79710D01*
X125332Y80235D01*
X125019Y80865D01*
X124784Y81705D01*
X124706Y82650D01*
X124784Y83595D01*
X125019Y84435D01*
X125332Y85065D01*
X125802Y85590D01*
X126429Y85800D01*
G01X120129D02*
X120756Y85590D01*
X121226Y85065D01*
X121539Y84435D01*
X121774Y83595D01*
X121852Y82650D01*
X121774Y81705D01*
X121539Y80865D01*
X121226Y80235D01*
X120756Y79710D01*
X120129Y79500D01*
X119502Y79710D01*
X119032Y80235D01*
X118719Y80865D01*
X118484Y81705D01*
X118406Y82650D01*
X118484Y83595D01*
X118719Y84435D01*
X119032Y85065D01*
X119502Y85590D01*
X120129Y85800D01*
G01X114847Y81600D02*
X112811D01*
G01X109174Y79500D02*
X105884Y85800D01*
G01X109174D02*
X105884Y79500D01*
G01X102874D02*
X99584Y85800D01*
G01X102874D02*
X99584Y79500D01*
G01X96574D02*
X93284Y85800D01*
G01X96574D02*
X93284Y79500D01*
G01X90274D02*
X86984Y85800D01*
G01X90274D02*
X86984Y79500D01*
G01X83974D02*
X80684Y85800D01*
G01X83974D02*
X80684Y79500D01*
G01X71296D02*
Y85800D01*
X69337D01*
X68711Y85485D01*
X68319Y85065D01*
X68162Y84225D01*
X68319Y83385D01*
X68789Y82860D01*
X69337Y82545D01*
X71296D01*
G01X69337D02*
X68162Y79500D01*
G01X61862D02*
X64996D01*
Y85800D01*
X61862D01*
G01X63116Y82755D02*
X64996D01*
G01X59087Y85800D02*
X57129Y79500D01*
X55171Y85800D01*
G01X46174Y79500D02*
X42884Y85800D01*
G01X46174D02*
X42884Y79500D01*
G01X134174Y106525D02*
X133547Y106000D01*
X132842Y105685D01*
X132216D01*
X131589Y106000D01*
X131119Y106525D01*
X130884Y107260D01*
X131041Y107995D01*
X131432Y108625D01*
X132137Y109045D01*
X133077Y109255D01*
X133626Y109675D01*
X133861Y110410D01*
X133704Y111145D01*
X133312Y111670D01*
X132764Y111985D01*
X132216D01*
X131667Y111775D01*
X131197Y111250D01*
G01X124506Y111460D02*
X124976Y111775D01*
X125524Y111985D01*
X126151D01*
X126856Y111670D01*
X127404Y111145D01*
X127796Y110515D01*
X128109Y109465D01*
X128187Y108520D01*
X128031Y107575D01*
X127796Y106945D01*
X127326Y106315D01*
X126777Y105895D01*
X126229Y105685D01*
X125681D01*
X125132Y105895D01*
X124662Y106210D01*
X124271Y106630D01*
G01X121574Y105685D02*
Y111985D01*
G01X118284D02*
Y105685D01*
G01Y108835D02*
X121574D01*
G01X114647Y107785D02*
X112611D01*
G01X108974Y105685D02*
X105684Y111985D01*
G01X108974D02*
X105684Y105685D01*
G01X102674D02*
X99384Y111985D01*
G01X102674D02*
X99384Y105685D01*
G01X96374D02*
X93084Y111985D01*
G01X96374D02*
X93084Y105685D01*
G01X90074D02*
X86784Y111985D01*
G01X90074D02*
X86784Y105685D01*
G01X83774D02*
X80484Y111985D01*
G01X83774D02*
X80484Y105685D01*
G01X71096D02*
Y111985D01*
X69137D01*
X68511Y111670D01*
X68119Y111250D01*
X67962Y110410D01*
X68119Y109570D01*
X68589Y109045D01*
X69137Y108730D01*
X71096D01*
G01X69137D02*
X67962Y105685D01*
G01X61662D02*
X64796D01*
Y111985D01*
X61662D01*
G01X62916Y108940D02*
X64796D01*
G01X58887Y111985D02*
X56929Y105685D01*
X54971Y111985D01*
G01X45974Y105685D02*
X42684Y111985D01*
G01X45974D02*
X42684Y105685D01*
G01X307595Y179340D02*
X306968Y178815D01*
X306263Y178500D01*
X305637D01*
X305010Y178815D01*
X304540Y179340D01*
X304305Y180075D01*
X304462Y180810D01*
X304853Y181440D01*
X305558Y181860D01*
X306498Y182070D01*
X307047Y182490D01*
X307282Y183225D01*
X307125Y183960D01*
X306733Y184485D01*
X306185Y184800D01*
X305637D01*
X305088Y184590D01*
X304618Y184065D01*
G01X301060Y178290D02*
X298240Y184800D01*
G01X295152Y178500D02*
Y184800D01*
X291548Y178500D01*
Y184800D01*
G54D13*
G01X-102178Y88410D02*
Y91510D01*
X-101718Y90890D01*
G01Y88410D02*
X-102638D01*
G01X-104006Y83356D02*
X-104198Y83046D01*
X-104428Y82839D01*
X-104696Y82736D01*
X-105003Y82839D01*
X-105233Y83046D01*
X-105463Y83356D01*
X-105540Y83769D01*
Y85836D01*
G01X-106945Y85319D02*
X-107175Y85629D01*
X-107443Y85784D01*
X-107750Y85836D01*
X-108133Y85733D01*
X-108401Y85474D01*
X-108478Y85164D01*
X-108440Y84854D01*
X-108286Y84596D01*
X-107520Y84079D01*
X-107175Y83718D01*
X-106945Y83201D01*
X-106868Y82736D01*
X-108478D01*
G01X-109921Y83098D02*
X-110190Y82839D01*
X-110496Y82736D01*
X-110803Y82839D01*
X-111071Y83149D01*
X-111263Y83614D01*
X-111340Y84079D01*
Y84648D01*
X-111263Y85113D01*
X-111071Y85526D01*
X-110841Y85733D01*
X-110573Y85836D01*
X-110266Y85733D01*
X-110036Y85526D01*
X-109883Y85216D01*
X-109806Y84803D01*
X-109883Y84441D01*
X-110075Y84079D01*
X-110305Y83873D01*
X-110573Y83821D01*
X-110880Y83924D01*
X-111110Y84183D01*
X-111340Y84648D01*
G01X-102638Y119410D02*
Y122510D01*
X-101220Y120288D01*
X-103136D01*
G01X-77756Y88410D02*
Y91510D01*
X-77296Y90890D01*
G01Y88410D02*
X-78216D01*
G01X-80006Y83356D02*
X-80198Y83046D01*
X-80428Y82839D01*
X-80696Y82736D01*
X-81003Y82839D01*
X-81233Y83046D01*
X-81463Y83356D01*
X-81540Y83769D01*
Y85836D01*
G01X-82830Y83356D02*
X-83060Y82994D01*
X-83366Y82788D01*
X-83711Y82736D01*
X-84018Y82788D01*
X-84325Y83046D01*
X-84516Y83356D01*
X-84555Y83666D01*
X-84478Y84028D01*
X-84210Y84286D01*
X-83941Y84389D01*
X-83596D01*
G01X-83941D02*
X-84171Y84544D01*
X-84363Y84803D01*
X-84440Y85113D01*
X-84363Y85423D01*
X-84171Y85681D01*
X-83826Y85836D01*
X-83481Y85784D01*
X-83136Y85578D01*
G01X-86573Y85836D02*
X-86266Y85733D01*
X-86036Y85474D01*
X-85883Y85164D01*
X-85768Y84751D01*
X-85730Y84286D01*
X-85768Y83821D01*
X-85883Y83408D01*
X-86036Y83098D01*
X-86266Y82839D01*
X-86573Y82736D01*
X-86880Y82839D01*
X-87110Y83098D01*
X-87263Y83408D01*
X-87378Y83821D01*
X-87416Y84286D01*
X-87378Y84751D01*
X-87263Y85164D01*
X-87110Y85474D01*
X-86880Y85733D01*
X-86573Y85836D01*
G01X-78216Y119410D02*
Y122510D01*
X-76798Y120288D01*
X-78714D01*
G01X-10688Y-333815D02*
X-11315Y-334015D01*
X-11785Y-334515D01*
X-12098Y-335115D01*
X-12333Y-335915D01*
X-12411Y-336815D01*
X-12333Y-337715D01*
X-12098Y-338515D01*
X-11785Y-339115D01*
X-11315Y-339615D01*
X-10688Y-339815D01*
X-10061Y-339615D01*
X-9591Y-339115D01*
X-9278Y-338515D01*
X-9043Y-337715D01*
X-8965Y-336815D01*
X-9043Y-335915D01*
X-9278Y-335115D01*
X-9591Y-334515D01*
X-10061Y-334015D01*
X-10688Y-333815D01*
G01X-5720Y-339115D02*
X-5171Y-339615D01*
X-4545Y-339815D01*
X-3918Y-339615D01*
X-3370Y-339015D01*
X-2978Y-338115D01*
X-2821Y-337215D01*
Y-336115D01*
X-2978Y-335215D01*
X-3370Y-334415D01*
X-3840Y-334015D01*
X-4388Y-333815D01*
X-5015Y-334015D01*
X-5485Y-334415D01*
X-5798Y-335015D01*
X-5955Y-335815D01*
X-5798Y-336515D01*
X-5406Y-337215D01*
X-4936Y-337615D01*
X-4388Y-337715D01*
X-3761Y-337515D01*
X-3291Y-337015D01*
X-2821Y-336115D01*
G01X-11013Y-330782D02*
X-10546Y-331115D01*
X-10021Y-331315D01*
X-9555D01*
X-9088Y-331115D01*
X-8738Y-330782D01*
X-8563Y-330315D01*
X-8680Y-329848D01*
X-8971Y-329448D01*
X-9496Y-329182D01*
X-10196Y-329048D01*
X-10605Y-328782D01*
X-10780Y-328315D01*
X-10663Y-327848D01*
X-10371Y-327515D01*
X-9963Y-327315D01*
X-9555D01*
X-9146Y-327448D01*
X-8796Y-327782D01*
G01X-6213Y-331315D02*
Y-327315D01*
G01X-3763D02*
Y-331315D01*
G01Y-329315D02*
X-6213D01*
G01X979Y-331315D02*
X-1355D01*
Y-327315D01*
X979D01*
G01X45Y-329248D02*
X-1355D01*
G01X5779Y-331315D02*
X3445D01*
Y-327315D01*
X5779D01*
G01X4845Y-329248D02*
X3445D01*
G01X9412Y-327315D02*
Y-331315D01*
G01X8070Y-327315D02*
X10754D01*
G01X-11246Y-270315D02*
X-9788Y-266315D01*
X-8330Y-270315D01*
G01X-8855Y-268915D02*
X-10721D01*
G01X-6271Y-266315D02*
Y-269182D01*
X-6038Y-269782D01*
X-5571Y-270182D01*
X-4988Y-270315D01*
X-4405Y-270182D01*
X-3938Y-269782D01*
X-3705Y-269182D01*
Y-266315D01*
G01X-1413Y-269782D02*
X-946Y-270115D01*
X-421Y-270315D01*
X45D01*
X512Y-270115D01*
X862Y-269782D01*
X1037Y-269315D01*
X920Y-268848D01*
X629Y-268448D01*
X104Y-268182D01*
X-596Y-268048D01*
X-1005Y-267782D01*
X-1180Y-267315D01*
X-1063Y-266848D01*
X-771Y-266515D01*
X-363Y-266315D01*
X45D01*
X454Y-266448D01*
X804Y-266782D01*
G01X4612Y-266315D02*
Y-270315D01*
G01X3270Y-266315D02*
X5954D01*
G01X8712D02*
X10112D01*
G01X9412D02*
Y-270315D01*
G01X8712D02*
X10112D01*
G01X12870D02*
Y-266315D01*
X15554Y-270315D01*
Y-266315D01*
G01X19012Y-270448D02*
X18895Y-270382D01*
Y-270248D01*
X19012Y-270182D01*
X19129Y-270248D01*
Y-270382D01*
X19012Y-270448D01*
G01X28612Y-266315D02*
Y-270315D01*
G01X27270Y-266315D02*
X29954D01*
G01X34579Y-270315D02*
X32245D01*
Y-266315D01*
X34579D01*
G01X33645Y-268248D02*
X32245D01*
G01X36987Y-270315D02*
X39437Y-266315D01*
G01X36987D02*
X39437Y-270315D01*
G01X41554D02*
X43012Y-266315D01*
X44470Y-270315D01*
G01X43945Y-268915D02*
X42079D01*
G01X46587Y-269782D02*
X47054Y-270115D01*
X47579Y-270315D01*
X48045D01*
X48512Y-270115D01*
X48862Y-269782D01*
X49037Y-269315D01*
X48920Y-268848D01*
X48629Y-268448D01*
X48104Y-268182D01*
X47404Y-268048D01*
X46995Y-267782D01*
X46820Y-267315D01*
X46937Y-266848D01*
X47229Y-266515D01*
X47637Y-266315D01*
X48045D01*
X48454Y-266448D01*
X48804Y-266782D01*
G01X57295Y-270315D02*
X57412Y-269448D01*
X57587Y-268715D01*
X57820Y-268048D01*
X58112Y-267315D01*
X58579Y-266315D01*
X56245D01*
G01X62212Y-270315D02*
X62620Y-270248D01*
X63087Y-270048D01*
X63379Y-269715D01*
X63495Y-269248D01*
X63379Y-268782D01*
X63029Y-268382D01*
X62504Y-268182D01*
X61920D01*
X61570Y-268048D01*
X61279Y-267715D01*
X61162Y-267248D01*
X61337Y-266782D01*
X61745Y-266448D01*
X62212Y-266315D01*
X62679Y-266448D01*
X63087Y-266782D01*
X63262Y-267248D01*
X63145Y-267715D01*
X62854Y-268048D01*
X62504Y-268182D01*
X61920D01*
X61395Y-268382D01*
X61045Y-268782D01*
X60929Y-269248D01*
X61045Y-269715D01*
X61337Y-270048D01*
X61804Y-270248D01*
X62212Y-270315D01*
G01X66895D02*
X67012Y-269448D01*
X67187Y-268715D01*
X67420Y-268048D01*
X67712Y-267315D01*
X68179Y-266315D01*
X65845D01*
G01X70529Y-269515D02*
X70879Y-269982D01*
X71345Y-270248D01*
X71870Y-270315D01*
X72337Y-270248D01*
X72804Y-269915D01*
X73095Y-269515D01*
X73154Y-269115D01*
X73037Y-268648D01*
X72629Y-268315D01*
X72220Y-268182D01*
X71695D01*
G01X72220D02*
X72570Y-267982D01*
X72862Y-267648D01*
X72979Y-267248D01*
X72862Y-266848D01*
X72570Y-266515D01*
X72045Y-266315D01*
X71520Y-266382D01*
X70995Y-266648D01*
G01X75329Y-269715D02*
X75679Y-270048D01*
X76087Y-270248D01*
X76612Y-270315D01*
X77137Y-270182D01*
X77545Y-269915D01*
X77837Y-269448D01*
X77895Y-268915D01*
X77779Y-268382D01*
X77487Y-268048D01*
X77079Y-267782D01*
X76670Y-267715D01*
X76262Y-267782D01*
X75737Y-268048D01*
X75912Y-266315D01*
X77487D01*
G01X84929D02*
Y-269182D01*
X85162Y-269782D01*
X85629Y-270182D01*
X86212Y-270315D01*
X86795Y-270182D01*
X87262Y-269782D01*
X87495Y-269182D01*
Y-266315D01*
G01X89787Y-269782D02*
X90254Y-270115D01*
X90779Y-270315D01*
X91245D01*
X91712Y-270115D01*
X92062Y-269782D01*
X92237Y-269315D01*
X92120Y-268848D01*
X91829Y-268448D01*
X91304Y-268182D01*
X90604Y-268048D01*
X90195Y-267782D01*
X90020Y-267315D01*
X90137Y-266848D01*
X90429Y-266515D01*
X90837Y-266315D01*
X91245D01*
X91654Y-266448D01*
X92004Y-266782D01*
G01X94354Y-270315D02*
X95812Y-266315D01*
X97270Y-270315D01*
G01X96745Y-268915D02*
X94879D01*
G01X-10896Y-261648D02*
X-10488Y-261182D01*
X-10138Y-260915D01*
X-9671Y-260782D01*
X-9263Y-260915D01*
X-8971Y-261182D01*
X-8738Y-261582D01*
X-8680Y-262048D01*
X-8738Y-262448D01*
X-8971Y-262848D01*
X-9321Y-263182D01*
X-9730Y-263315D01*
X-10196Y-263182D01*
X-10605Y-262782D01*
X-10838Y-262182D01*
X-10896Y-261515D01*
X-10780Y-260648D01*
X-10605Y-260182D01*
X-10313Y-259715D01*
X-9905Y-259382D01*
X-9496Y-259315D01*
X-9088Y-259448D01*
X-8796Y-259782D01*
G01X-6271Y-262715D02*
X-5921Y-263048D01*
X-5513Y-263248D01*
X-4988Y-263315D01*
X-4463Y-263182D01*
X-4055Y-262915D01*
X-3763Y-262448D01*
X-3705Y-261915D01*
X-3821Y-261382D01*
X-4113Y-261048D01*
X-4521Y-260782D01*
X-4930Y-260715D01*
X-5338Y-260782D01*
X-5863Y-261048D01*
X-5688Y-259315D01*
X-4113D01*
G01X-188D02*
X-655Y-259448D01*
X-1005Y-259782D01*
X-1238Y-260182D01*
X-1413Y-260715D01*
X-1471Y-261315D01*
X-1413Y-261915D01*
X-1238Y-262448D01*
X-1005Y-262848D01*
X-655Y-263182D01*
X-188Y-263315D01*
X279Y-263182D01*
X629Y-262848D01*
X862Y-262448D01*
X1037Y-261915D01*
X1095Y-261315D01*
X1037Y-260715D01*
X862Y-260182D01*
X629Y-259782D01*
X279Y-259448D01*
X-188Y-259315D01*
G01X4612Y-263315D02*
Y-259315D01*
X3912Y-260115D01*
G01Y-263315D02*
X5312D01*
G01X12462Y-259315D02*
X13279Y-263315D01*
X14212Y-259315D01*
X15145Y-263315D01*
X15962Y-259315D01*
G01X18312D02*
X19712D01*
G01X19012D02*
Y-263315D01*
G01X18312D02*
X19712D01*
G01X22645Y-259315D02*
Y-263315D01*
X24979D01*
G01X27445Y-259315D02*
Y-263315D01*
X29779D01*
G01X32712Y-259315D02*
X34112D01*
G01X33412D02*
Y-263315D01*
G01X32712D02*
X34112D01*
G01X36754D02*
X38212Y-259315D01*
X39670Y-263315D01*
G01X39145Y-261915D02*
X37279D01*
G01X41495Y-263315D02*
Y-259315D01*
X43012Y-262648D01*
X44529Y-259315D01*
Y-263315D01*
G01X53895Y-259648D02*
X53545Y-259448D01*
X53137Y-259315D01*
X52670D01*
X52145Y-259515D01*
X51737Y-259848D01*
X51445Y-260248D01*
X51212Y-260915D01*
X51154Y-261515D01*
X51270Y-262115D01*
X51445Y-262515D01*
X51795Y-262915D01*
X52204Y-263182D01*
X52612Y-263315D01*
X53020D01*
X53429Y-263182D01*
X53779Y-262982D01*
X54070Y-262715D01*
G01X55954Y-263315D02*
X57412Y-259315D01*
X58870Y-263315D01*
G01X58345Y-261915D02*
X56479D01*
G01X60870Y-263315D02*
Y-259315D01*
X63554Y-263315D01*
Y-259315D01*
G01X65670Y-263315D02*
Y-259315D01*
X68354Y-263315D01*
Y-259315D01*
G01X71812Y-263315D02*
X71345Y-263248D01*
X70937Y-262982D01*
X70587Y-262582D01*
X70354Y-262115D01*
X70237Y-261582D01*
Y-261048D01*
X70354Y-260515D01*
X70587Y-260048D01*
X70937Y-259648D01*
X71345Y-259382D01*
X71812Y-259315D01*
X72279Y-259382D01*
X72687Y-259648D01*
X73037Y-260048D01*
X73270Y-260515D01*
X73387Y-261048D01*
Y-261582D01*
X73270Y-262115D01*
X73037Y-262582D01*
X72687Y-262982D01*
X72279Y-263248D01*
X71812Y-263315D01*
G01X75270D02*
Y-259315D01*
X77954Y-263315D01*
Y-259315D01*
G01X84929Y-263315D02*
Y-259315D01*
X86095D01*
X86562Y-259515D01*
X86912Y-259782D01*
X87204Y-260182D01*
X87437Y-260648D01*
X87495Y-261315D01*
X87437Y-261982D01*
X87204Y-262448D01*
X86912Y-262848D01*
X86562Y-263115D01*
X86095Y-263315D01*
X84929D01*
G01X89845D02*
Y-259315D01*
X91304D01*
X91770Y-259515D01*
X92062Y-259782D01*
X92179Y-260315D01*
X92062Y-260848D01*
X91712Y-261182D01*
X91304Y-261382D01*
X89845D01*
G01X91304D02*
X92179Y-263315D01*
G01X95112Y-259315D02*
X96512D01*
G01X95812D02*
Y-263315D01*
G01X95112D02*
X96512D01*
G01X99154Y-259315D02*
X100612Y-263315D01*
X102070Y-259315D01*
G01X106579Y-263315D02*
X104245D01*
Y-259315D01*
X106579D01*
G01X105645Y-261248D02*
X104245D01*
G01X113262Y-259315D02*
X114079Y-263315D01*
X115012Y-259315D01*
X115945Y-263315D01*
X116762Y-259315D01*
G01X120979Y-263315D02*
X118645D01*
Y-259315D01*
X120979D01*
G01X120045Y-261248D02*
X118645D01*
G01X123387Y-262782D02*
X123854Y-263115D01*
X124379Y-263315D01*
X124845D01*
X125312Y-263115D01*
X125662Y-262782D01*
X125837Y-262315D01*
X125720Y-261848D01*
X125429Y-261448D01*
X124904Y-261182D01*
X124204Y-261048D01*
X123795Y-260782D01*
X123620Y-260315D01*
X123737Y-259848D01*
X124029Y-259515D01*
X124437Y-259315D01*
X124845D01*
X125254Y-259448D01*
X125604Y-259782D01*
G01X129412Y-259315D02*
Y-263315D01*
G01X128070Y-259315D02*
X130754D01*
G01X-10885Y-254315D02*
Y-246815D01*
X-6591Y-254315D01*
Y-246815D01*
G01X-3198Y-254315D02*
X722Y-246815D01*
G01X-3198D02*
X722Y-254315D01*
G01X4395D02*
Y-246815D01*
X6635D01*
X7382Y-247190D01*
X7942Y-248065D01*
X8129Y-249065D01*
X7942Y-250065D01*
X7475Y-250815D01*
X6635Y-251190D01*
X4395D01*
G01X19302Y-253315D02*
X20049Y-253940D01*
X20889Y-254315D01*
X21635D01*
X22382Y-253940D01*
X22942Y-253315D01*
X23222Y-252440D01*
X23035Y-251565D01*
X22569Y-250815D01*
X21729Y-250315D01*
X20609Y-250065D01*
X19955Y-249565D01*
X19675Y-248690D01*
X19862Y-247815D01*
X20329Y-247190D01*
X20982Y-246815D01*
X21635D01*
X22289Y-247065D01*
X22849Y-247690D01*
G01X30629Y-254315D02*
X26895D01*
Y-246815D01*
X30629D01*
G01X29135Y-250440D02*
X26895D01*
G01X33835Y-254315D02*
Y-246815D01*
X36262Y-253065D01*
X38689Y-246815D01*
Y-254315D01*
G01X42642Y-246815D02*
X44882D01*
G01X43762D02*
Y-254315D01*
G01X42642D02*
X44882D01*
G01X53315Y-247440D02*
X52755Y-247065D01*
X52102Y-246815D01*
X51355D01*
X50515Y-247190D01*
X49862Y-247815D01*
X49395Y-248565D01*
X49022Y-249815D01*
X48929Y-250940D01*
X49115Y-252065D01*
X49395Y-252815D01*
X49955Y-253565D01*
X50609Y-254065D01*
X51262Y-254315D01*
X51915D01*
X52569Y-254065D01*
X53129Y-253690D01*
X53595Y-253190D01*
G01X58762Y-254315D02*
X58015Y-254190D01*
X57362Y-253690D01*
X56802Y-252940D01*
X56429Y-252065D01*
X56242Y-251065D01*
Y-250065D01*
X56429Y-249065D01*
X56802Y-248190D01*
X57362Y-247440D01*
X58015Y-246940D01*
X58762Y-246815D01*
X59509Y-246940D01*
X60162Y-247440D01*
X60722Y-248190D01*
X61095Y-249065D01*
X61282Y-250065D01*
Y-251065D01*
X61095Y-252065D01*
X60722Y-252940D01*
X60162Y-253690D01*
X59509Y-254190D01*
X58762Y-254315D01*
G01X64115D02*
Y-246815D01*
X68409Y-254315D01*
Y-246815D01*
G01X71709Y-254315D02*
Y-246815D01*
X73575D01*
X74322Y-247190D01*
X74882Y-247690D01*
X75349Y-248440D01*
X75722Y-249315D01*
X75815Y-250565D01*
X75722Y-251815D01*
X75349Y-252690D01*
X74882Y-253440D01*
X74322Y-253940D01*
X73575Y-254315D01*
X71709D01*
G01X79209Y-246815D02*
Y-252190D01*
X79582Y-253315D01*
X80329Y-254065D01*
X81262Y-254315D01*
X82195Y-254065D01*
X82942Y-253315D01*
X83315Y-252190D01*
Y-246815D01*
G01X90815Y-247440D02*
X90255Y-247065D01*
X89602Y-246815D01*
X88855D01*
X88015Y-247190D01*
X87362Y-247815D01*
X86895Y-248565D01*
X86522Y-249815D01*
X86429Y-250940D01*
X86615Y-252065D01*
X86895Y-252815D01*
X87455Y-253565D01*
X88109Y-254065D01*
X88762Y-254315D01*
X89415D01*
X90069Y-254065D01*
X90629Y-253690D01*
X91095Y-253190D01*
G01X96262Y-246815D02*
Y-254315D01*
G01X94115Y-246815D02*
X98409D01*
G01X103762Y-254315D02*
X103015Y-254190D01*
X102362Y-253690D01*
X101802Y-252940D01*
X101429Y-252065D01*
X101242Y-251065D01*
Y-250065D01*
X101429Y-249065D01*
X101802Y-248190D01*
X102362Y-247440D01*
X103015Y-246940D01*
X103762Y-246815D01*
X104509Y-246940D01*
X105162Y-247440D01*
X105722Y-248190D01*
X106095Y-249065D01*
X106282Y-250065D01*
Y-251065D01*
X106095Y-252065D01*
X105722Y-252940D01*
X105162Y-253690D01*
X104509Y-254190D01*
X103762Y-254315D01*
G01X109395D02*
Y-246815D01*
X111729D01*
X112475Y-247190D01*
X112942Y-247690D01*
X113129Y-248690D01*
X112942Y-249690D01*
X112382Y-250315D01*
X111729Y-250690D01*
X109395D01*
G01X111729D02*
X113129Y-254315D01*
G01X116802Y-253315D02*
X117549Y-253940D01*
X118389Y-254315D01*
X119135D01*
X119882Y-253940D01*
X120442Y-253315D01*
X120722Y-252440D01*
X120535Y-251565D01*
X120069Y-250815D01*
X119229Y-250315D01*
X118109Y-250065D01*
X117455Y-249565D01*
X117175Y-248690D01*
X117362Y-247815D01*
X117829Y-247190D01*
X118482Y-246815D01*
X119135D01*
X119789Y-247065D01*
X120349Y-247690D01*
G01X-30473Y75585D02*
Y78685D01*
X-30013Y78065D01*
G01Y75585D02*
X-30933D01*
G01X-19904Y60920D02*
X-20096Y60610D01*
X-20326Y60403D01*
X-20594Y60300D01*
X-20901Y60403D01*
X-21131Y60610D01*
X-21361Y60920D01*
X-21438Y61333D01*
Y63400D01*
G01X-22728Y60920D02*
X-22958Y60558D01*
X-23264Y60352D01*
X-23609Y60300D01*
X-23916Y60352D01*
X-24223Y60610D01*
X-24414Y60920D01*
X-24453Y61230D01*
X-24376Y61592D01*
X-24108Y61850D01*
X-23839Y61953D01*
X-23494D01*
G01X-23839D02*
X-24069Y62108D01*
X-24261Y62367D01*
X-24338Y62677D01*
X-24261Y62987D01*
X-24069Y63245D01*
X-23724Y63400D01*
X-23379Y63348D01*
X-23034Y63142D01*
G01X-25743Y62883D02*
X-25973Y63193D01*
X-26241Y63348D01*
X-26548Y63400D01*
X-26931Y63297D01*
X-27199Y63038D01*
X-27276Y62728D01*
X-27238Y62418D01*
X-27084Y62160D01*
X-26318Y61643D01*
X-25973Y61282D01*
X-25743Y60765D01*
X-25666Y60300D01*
X-27276D01*
G01X-28796Y133985D02*
X-28873Y134657D01*
X-28988Y135225D01*
X-29141Y135742D01*
X-29333Y136310D01*
X-29640Y137085D01*
X-28106D01*
G01X7312Y-339815D02*
X6685Y-339715D01*
X6137Y-339315D01*
X5667Y-338715D01*
X5354Y-338015D01*
X5197Y-337215D01*
Y-336415D01*
X5354Y-335615D01*
X5667Y-334915D01*
X6137Y-334315D01*
X6685Y-333915D01*
X7312Y-333815D01*
X7939Y-333915D01*
X8487Y-334315D01*
X8957Y-334915D01*
X9270Y-335615D01*
X9427Y-336415D01*
Y-337215D01*
X9270Y-338015D01*
X8957Y-338715D01*
X8487Y-339315D01*
X7939Y-339715D01*
X7312Y-339815D01*
G01X12124D02*
Y-333815D01*
X15100D01*
G01X14004Y-336715D02*
X12124D01*
G01X26212Y-339815D02*
Y-333815D01*
X25272Y-335015D01*
G01Y-339815D02*
X27152D01*
G01X32512Y-333815D02*
X31885Y-334015D01*
X31415Y-334515D01*
X31102Y-335115D01*
X30867Y-335915D01*
X30789Y-336815D01*
X30867Y-337715D01*
X31102Y-338515D01*
X31415Y-339115D01*
X31885Y-339615D01*
X32512Y-339815D01*
X33139Y-339615D01*
X33609Y-339115D01*
X33922Y-338515D01*
X34157Y-337715D01*
X34235Y-336815D01*
X34157Y-335915D01*
X33922Y-335115D01*
X33609Y-334515D01*
X33139Y-334015D01*
X32512Y-333815D01*
G01X-5130Y-320315D02*
Y-316315D01*
X-2446Y-320315D01*
Y-316315D01*
G01X-213Y-320315D02*
X2237Y-316315D01*
G01X-213D02*
X2237Y-320315D01*
G01X4645D02*
Y-316315D01*
X6045D01*
X6512Y-316515D01*
X6862Y-316982D01*
X6979Y-317515D01*
X6862Y-318048D01*
X6570Y-318448D01*
X6045Y-318648D01*
X4645D01*
G01X10612Y-320448D02*
X10495Y-320382D01*
Y-320248D01*
X10612Y-320182D01*
X10729Y-320248D01*
Y-320382D01*
X10612Y-320448D01*
G01X-3788Y-312315D02*
X-4255Y-312248D01*
X-4663Y-311982D01*
X-5013Y-311582D01*
X-5246Y-311115D01*
X-5363Y-310582D01*
Y-310048D01*
X-5246Y-309515D01*
X-5013Y-309048D01*
X-4663Y-308648D01*
X-4255Y-308382D01*
X-3788Y-308315D01*
X-3321Y-308382D01*
X-2913Y-308648D01*
X-2563Y-309048D01*
X-2330Y-309515D01*
X-2213Y-310048D01*
Y-310582D01*
X-2330Y-311115D01*
X-2563Y-311582D01*
X-2913Y-311982D01*
X-3321Y-312248D01*
X-3788Y-312315D01*
G01X-155D02*
Y-308315D01*
X1304D01*
X1770Y-308515D01*
X2062Y-308782D01*
X2179Y-309315D01*
X2062Y-309848D01*
X1712Y-310182D01*
X1304Y-310382D01*
X-155D01*
G01X1304D02*
X2179Y-312315D01*
G01X9912Y-308315D02*
X11312D01*
G01X10612D02*
Y-312315D01*
G01X9912D02*
X11312D01*
G01X14070D02*
Y-308315D01*
X16754Y-312315D01*
Y-308315D01*
G01X23845Y-312315D02*
Y-308315D01*
X25245D01*
X25712Y-308515D01*
X26062Y-308982D01*
X26179Y-309515D01*
X26062Y-310048D01*
X25770Y-310448D01*
X25245Y-310648D01*
X23845D01*
G01X28354Y-312315D02*
X29812Y-308315D01*
X31270Y-312315D01*
G01X30745Y-310915D02*
X28879D01*
G01X33445Y-312315D02*
Y-308315D01*
X34904D01*
X35370Y-308515D01*
X35662Y-308782D01*
X35779Y-309315D01*
X35662Y-309848D01*
X35312Y-310182D01*
X34904Y-310382D01*
X33445D01*
G01X34904D02*
X35779Y-312315D01*
G01X39412Y-308315D02*
Y-312315D01*
G01X38070Y-308315D02*
X40754D01*
G01X47262D02*
X48079Y-312315D01*
X49012Y-308315D01*
X49945Y-312315D01*
X50762Y-308315D01*
G01X53112D02*
X54512D01*
G01X53812D02*
Y-312315D01*
G01X53112D02*
X54512D01*
G01X58612Y-308315D02*
Y-312315D01*
G01X57270Y-308315D02*
X59954D01*
G01X62187Y-312315D02*
Y-308315D01*
G01X64637D02*
Y-312315D01*
G01Y-310315D02*
X62187D01*
G01X68212Y-312315D02*
X67745Y-312248D01*
X67337Y-311982D01*
X66987Y-311582D01*
X66754Y-311115D01*
X66637Y-310582D01*
Y-310048D01*
X66754Y-309515D01*
X66987Y-309048D01*
X67337Y-308648D01*
X67745Y-308382D01*
X68212Y-308315D01*
X68679Y-308382D01*
X69087Y-308648D01*
X69437Y-309048D01*
X69670Y-309515D01*
X69787Y-310048D01*
Y-310582D01*
X69670Y-311115D01*
X69437Y-311582D01*
X69087Y-311982D01*
X68679Y-312248D01*
X68212Y-312315D01*
G01X71729Y-308315D02*
Y-311182D01*
X71962Y-311782D01*
X72429Y-312182D01*
X73012Y-312315D01*
X73595Y-312182D01*
X74062Y-311782D01*
X74295Y-311182D01*
Y-308315D01*
G01X77812D02*
Y-312315D01*
G01X76470Y-308315D02*
X79154D01*
G01X87412D02*
Y-312315D01*
G01X86070Y-308315D02*
X88754D01*
G01X90987Y-312315D02*
Y-308315D01*
G01X93437D02*
Y-312315D01*
G01Y-310315D02*
X90987D01*
G01X98179Y-312315D02*
X95845D01*
Y-308315D01*
X98179D01*
G01X97245Y-310248D02*
X95845D01*
G01X107895Y-308648D02*
X107545Y-308448D01*
X107137Y-308315D01*
X106670D01*
X106145Y-308515D01*
X105737Y-308848D01*
X105445Y-309248D01*
X105212Y-309915D01*
X105154Y-310515D01*
X105270Y-311115D01*
X105445Y-311515D01*
X105795Y-311915D01*
X106204Y-312182D01*
X106612Y-312315D01*
X107020D01*
X107429Y-312182D01*
X107779Y-311982D01*
X108070Y-311715D01*
G01X111412Y-312315D02*
X110945Y-312248D01*
X110537Y-311982D01*
X110187Y-311582D01*
X109954Y-311115D01*
X109837Y-310582D01*
Y-310048D01*
X109954Y-309515D01*
X110187Y-309048D01*
X110537Y-308648D01*
X110945Y-308382D01*
X111412Y-308315D01*
X111879Y-308382D01*
X112287Y-308648D01*
X112637Y-309048D01*
X112870Y-309515D01*
X112987Y-310048D01*
Y-310582D01*
X112870Y-311115D01*
X112637Y-311582D01*
X112287Y-311982D01*
X111879Y-312248D01*
X111412Y-312315D01*
G01X114870D02*
Y-308315D01*
X117554Y-312315D01*
Y-308315D01*
G01X119787Y-311782D02*
X120254Y-312115D01*
X120779Y-312315D01*
X121245D01*
X121712Y-312115D01*
X122062Y-311782D01*
X122237Y-311315D01*
X122120Y-310848D01*
X121829Y-310448D01*
X121304Y-310182D01*
X120604Y-310048D01*
X120195Y-309782D01*
X120020Y-309315D01*
X120137Y-308848D01*
X120429Y-308515D01*
X120837Y-308315D01*
X121245D01*
X121654Y-308448D01*
X122004Y-308782D01*
G01X126979Y-312315D02*
X124645D01*
Y-308315D01*
X126979D01*
G01X126045Y-310248D02*
X124645D01*
G01X129270Y-312315D02*
Y-308315D01*
X131954Y-312315D01*
Y-308315D01*
G01X135412D02*
Y-312315D01*
G01X134070Y-308315D02*
X136754D01*
G01X145012Y-312315D02*
X144545Y-312248D01*
X144137Y-311982D01*
X143787Y-311582D01*
X143554Y-311115D01*
X143437Y-310582D01*
Y-310048D01*
X143554Y-309515D01*
X143787Y-309048D01*
X144137Y-308648D01*
X144545Y-308382D01*
X145012Y-308315D01*
X145479Y-308382D01*
X145887Y-308648D01*
X146237Y-309048D01*
X146470Y-309515D01*
X146587Y-310048D01*
Y-310582D01*
X146470Y-311115D01*
X146237Y-311582D01*
X145887Y-311982D01*
X145479Y-312248D01*
X145012Y-312315D01*
G01X148704D02*
Y-308315D01*
X150920D01*
G01X150104Y-310248D02*
X148704D01*
G01X-4955Y-304315D02*
Y-300315D01*
X-3555D01*
X-3088Y-300515D01*
X-2738Y-300982D01*
X-2621Y-301515D01*
X-2738Y-302048D01*
X-3030Y-302448D01*
X-3555Y-302648D01*
X-4955D01*
G01X-155Y-304315D02*
Y-300315D01*
X1304D01*
X1770Y-300515D01*
X2062Y-300782D01*
X2179Y-301315D01*
X2062Y-301848D01*
X1712Y-302182D01*
X1304Y-302382D01*
X-155D01*
G01X1304D02*
X2179Y-304315D01*
G01X5812D02*
X5345Y-304248D01*
X4937Y-303982D01*
X4587Y-303582D01*
X4354Y-303115D01*
X4237Y-302582D01*
Y-302048D01*
X4354Y-301515D01*
X4587Y-301048D01*
X4937Y-300648D01*
X5345Y-300382D01*
X5812Y-300315D01*
X6279Y-300382D01*
X6687Y-300648D01*
X7037Y-301048D01*
X7270Y-301515D01*
X7387Y-302048D01*
Y-302582D01*
X7270Y-303115D01*
X7037Y-303582D01*
X6687Y-303982D01*
X6279Y-304248D01*
X5812Y-304315D01*
G01X11895Y-300648D02*
X11545Y-300448D01*
X11137Y-300315D01*
X10670D01*
X10145Y-300515D01*
X9737Y-300848D01*
X9445Y-301248D01*
X9212Y-301915D01*
X9154Y-302515D01*
X9270Y-303115D01*
X9445Y-303515D01*
X9795Y-303915D01*
X10204Y-304182D01*
X10612Y-304315D01*
X11020D01*
X11429Y-304182D01*
X11779Y-303982D01*
X12070Y-303715D01*
G01X14129Y-300315D02*
Y-303182D01*
X14362Y-303782D01*
X14829Y-304182D01*
X15412Y-304315D01*
X15995Y-304182D01*
X16462Y-303782D01*
X16695Y-303182D01*
Y-300315D01*
G01X19045Y-304315D02*
Y-300315D01*
X20504D01*
X20970Y-300515D01*
X21262Y-300782D01*
X21379Y-301315D01*
X21262Y-301848D01*
X20912Y-302182D01*
X20504Y-302382D01*
X19045D01*
G01X20504D02*
X21379Y-304315D01*
G01X26179D02*
X23845D01*
Y-300315D01*
X26179D01*
G01X25245Y-302248D02*
X23845D01*
G01X28295Y-304315D02*
Y-300315D01*
X29812Y-303648D01*
X31329Y-300315D01*
Y-304315D01*
G01X35779D02*
X33445D01*
Y-300315D01*
X35779D01*
G01X34845Y-302248D02*
X33445D01*
G01X38070Y-304315D02*
Y-300315D01*
X40754Y-304315D01*
Y-300315D01*
G01X44212D02*
Y-304315D01*
G01X42870Y-300315D02*
X45554D01*
G01X53812Y-304315D02*
X53345Y-304248D01*
X52937Y-303982D01*
X52587Y-303582D01*
X52354Y-303115D01*
X52237Y-302582D01*
Y-302048D01*
X52354Y-301515D01*
X52587Y-301048D01*
X52937Y-300648D01*
X53345Y-300382D01*
X53812Y-300315D01*
X54279Y-300382D01*
X54687Y-300648D01*
X55037Y-301048D01*
X55270Y-301515D01*
X55387Y-302048D01*
Y-302582D01*
X55270Y-303115D01*
X55037Y-303582D01*
X54687Y-303982D01*
X54279Y-304248D01*
X53812Y-304315D01*
G01X57445D02*
Y-300315D01*
X58904D01*
X59370Y-300515D01*
X59662Y-300782D01*
X59779Y-301315D01*
X59662Y-301848D01*
X59312Y-302182D01*
X58904Y-302382D01*
X57445D01*
G01X58904D02*
X59779Y-304315D01*
G01X66695D02*
Y-300315D01*
X68212Y-303648D01*
X69729Y-300315D01*
Y-304315D01*
G01X71554D02*
X73012Y-300315D01*
X74470Y-304315D01*
G01X73945Y-302915D02*
X72079D01*
G01X76470Y-304315D02*
Y-300315D01*
X79154Y-304315D01*
Y-300315D01*
G01X81329D02*
Y-303182D01*
X81562Y-303782D01*
X82029Y-304182D01*
X82612Y-304315D01*
X83195Y-304182D01*
X83662Y-303782D01*
X83895Y-303182D01*
Y-300315D01*
G01X86304Y-304315D02*
Y-300315D01*
X88520D01*
G01X87704Y-302248D02*
X86304D01*
G01X90754Y-304315D02*
X92212Y-300315D01*
X93670Y-304315D01*
G01X93145Y-302915D02*
X91279D01*
G01X98295Y-300648D02*
X97945Y-300448D01*
X97537Y-300315D01*
X97070D01*
X96545Y-300515D01*
X96137Y-300848D01*
X95845Y-301248D01*
X95612Y-301915D01*
X95554Y-302515D01*
X95670Y-303115D01*
X95845Y-303515D01*
X96195Y-303915D01*
X96604Y-304182D01*
X97012Y-304315D01*
X97420D01*
X97829Y-304182D01*
X98179Y-303982D01*
X98470Y-303715D01*
G01X101812Y-300315D02*
Y-304315D01*
G01X100470Y-300315D02*
X103154D01*
G01X105329D02*
Y-303182D01*
X105562Y-303782D01*
X106029Y-304182D01*
X106612Y-304315D01*
X107195Y-304182D01*
X107662Y-303782D01*
X107895Y-303182D01*
Y-300315D01*
G01X110245Y-304315D02*
Y-300315D01*
X111704D01*
X112170Y-300515D01*
X112462Y-300782D01*
X112579Y-301315D01*
X112462Y-301848D01*
X112112Y-302182D01*
X111704Y-302382D01*
X110245D01*
G01X111704D02*
X112579Y-304315D01*
G01X117379D02*
X115045D01*
Y-300315D01*
X117379D01*
G01X116445Y-302248D02*
X115045D01*
G01X125112Y-300315D02*
X126512D01*
G01X125812D02*
Y-304315D01*
G01X125112D02*
X126512D01*
G01X129270D02*
Y-300315D01*
X131954Y-304315D01*
Y-300315D01*
G01X138462D02*
X139279Y-304315D01*
X140212Y-300315D01*
X141145Y-304315D01*
X141962Y-300315D01*
G01X143787Y-304315D02*
Y-300315D01*
G01X146237D02*
Y-304315D01*
G01Y-302315D02*
X143787D01*
G01X149812Y-304315D02*
X149345Y-304248D01*
X148937Y-303982D01*
X148587Y-303582D01*
X148354Y-303115D01*
X148237Y-302582D01*
Y-302048D01*
X148354Y-301515D01*
X148587Y-301048D01*
X148937Y-300648D01*
X149345Y-300382D01*
X149812Y-300315D01*
X150279Y-300382D01*
X150687Y-300648D01*
X151037Y-301048D01*
X151270Y-301515D01*
X151387Y-302048D01*
Y-302582D01*
X151270Y-303115D01*
X151037Y-303582D01*
X150687Y-303982D01*
X150279Y-304248D01*
X149812Y-304315D01*
G01X153445Y-300315D02*
Y-304315D01*
X155779D01*
G01X160579D02*
X158245D01*
Y-300315D01*
X160579D01*
G01X159645Y-302248D02*
X158245D01*
G01X-3321Y-294182D02*
X-3088Y-293982D01*
X-2913Y-293648D01*
X-2796Y-293182D01*
X-2913Y-292782D01*
X-3146Y-292515D01*
X-3555Y-292315D01*
X-5130D01*
Y-296315D01*
X-3205D01*
X-2796Y-296048D01*
X-2563Y-295648D01*
X-2446Y-295182D01*
X-2563Y-294715D01*
X-2913Y-294315D01*
X-3321Y-294182D01*
X-5130D01*
G01X2179Y-296315D02*
X-155D01*
Y-292315D01*
X2179D01*
G01X1245Y-294248D02*
X-155D01*
G01X9329Y-292315D02*
Y-295182D01*
X9562Y-295782D01*
X10029Y-296182D01*
X10612Y-296315D01*
X11195Y-296182D01*
X11662Y-295782D01*
X11895Y-295182D01*
Y-292315D01*
G01X14187Y-295782D02*
X14654Y-296115D01*
X15179Y-296315D01*
X15645D01*
X16112Y-296115D01*
X16462Y-295782D01*
X16637Y-295315D01*
X16520Y-294848D01*
X16229Y-294448D01*
X15704Y-294182D01*
X15004Y-294048D01*
X14595Y-293782D01*
X14420Y-293315D01*
X14537Y-292848D01*
X14829Y-292515D01*
X15237Y-292315D01*
X15645D01*
X16054Y-292448D01*
X16404Y-292782D01*
G01X21379Y-296315D02*
X19045D01*
Y-292315D01*
X21379D01*
G01X20445Y-294248D02*
X19045D01*
G01X23729Y-296315D02*
Y-292315D01*
X24895D01*
X25362Y-292515D01*
X25712Y-292782D01*
X26004Y-293182D01*
X26237Y-293648D01*
X26295Y-294315D01*
X26237Y-294982D01*
X26004Y-295448D01*
X25712Y-295848D01*
X25362Y-296115D01*
X24895Y-296315D01*
X23729D01*
G01X33504D02*
Y-292315D01*
X35720D01*
G01X34904Y-294248D02*
X33504D01*
G01X39412Y-296315D02*
X38945Y-296248D01*
X38537Y-295982D01*
X38187Y-295582D01*
X37954Y-295115D01*
X37837Y-294582D01*
Y-294048D01*
X37954Y-293515D01*
X38187Y-293048D01*
X38537Y-292648D01*
X38945Y-292382D01*
X39412Y-292315D01*
X39879Y-292382D01*
X40287Y-292648D01*
X40637Y-293048D01*
X40870Y-293515D01*
X40987Y-294048D01*
Y-294582D01*
X40870Y-295115D01*
X40637Y-295582D01*
X40287Y-295982D01*
X39879Y-296248D01*
X39412Y-296315D01*
G01X43045D02*
Y-292315D01*
X44504D01*
X44970Y-292515D01*
X45262Y-292782D01*
X45379Y-293315D01*
X45262Y-293848D01*
X44912Y-294182D01*
X44504Y-294382D01*
X43045D01*
G01X44504D02*
X45379Y-296315D01*
G01X54979D02*
X52645D01*
Y-292315D01*
X54979D01*
G01X54045Y-294248D02*
X52645D01*
G01X57270Y-296315D02*
Y-292315D01*
X59954Y-296315D01*
Y-292315D01*
G01X63762Y-294315D02*
X64929D01*
Y-295515D01*
X64579Y-295915D01*
X64170Y-296182D01*
X63587Y-296315D01*
X63004Y-296182D01*
X62595Y-295915D01*
X62245Y-295515D01*
X62012Y-295048D01*
X61895Y-294515D01*
Y-294048D01*
X62012Y-293648D01*
X62245Y-293182D01*
X62595Y-292782D01*
X62945Y-292515D01*
X63412Y-292315D01*
X63820D01*
X64287Y-292448D01*
X64637Y-292715D01*
G01X67512Y-292315D02*
X68912D01*
G01X68212D02*
Y-296315D01*
G01X67512D02*
X68912D01*
G01X71670D02*
Y-292315D01*
X74354Y-296315D01*
Y-292315D01*
G01X78979Y-296315D02*
X76645D01*
Y-292315D01*
X78979D01*
G01X78045Y-294248D02*
X76645D01*
G01X83779Y-296315D02*
X81445D01*
Y-292315D01*
X83779D01*
G01X82845Y-294248D02*
X81445D01*
G01X86245Y-296315D02*
Y-292315D01*
X87704D01*
X88170Y-292515D01*
X88462Y-292782D01*
X88579Y-293315D01*
X88462Y-293848D01*
X88112Y-294182D01*
X87704Y-294382D01*
X86245D01*
G01X87704D02*
X88579Y-296315D01*
G01X91512Y-292315D02*
X92912D01*
G01X92212D02*
Y-296315D01*
G01X91512D02*
X92912D01*
G01X95670D02*
Y-292315D01*
X98354Y-296315D01*
Y-292315D01*
G01X102162Y-294315D02*
X103329D01*
Y-295515D01*
X102979Y-295915D01*
X102570Y-296182D01*
X101987Y-296315D01*
X101404Y-296182D01*
X100995Y-295915D01*
X100645Y-295515D01*
X100412Y-295048D01*
X100295Y-294515D01*
Y-294048D01*
X100412Y-293648D01*
X100645Y-293182D01*
X100995Y-292782D01*
X101345Y-292515D01*
X101812Y-292315D01*
X102220D01*
X102687Y-292448D01*
X103037Y-292715D01*
G01X110129Y-296315D02*
Y-292315D01*
X111295D01*
X111762Y-292515D01*
X112112Y-292782D01*
X112404Y-293182D01*
X112637Y-293648D01*
X112695Y-294315D01*
X112637Y-294982D01*
X112404Y-295448D01*
X112112Y-295848D01*
X111762Y-296115D01*
X111295Y-296315D01*
X110129D01*
G01X117379D02*
X115045D01*
Y-292315D01*
X117379D01*
G01X116445Y-294248D02*
X115045D01*
G01X119787Y-295782D02*
X120254Y-296115D01*
X120779Y-296315D01*
X121245D01*
X121712Y-296115D01*
X122062Y-295782D01*
X122237Y-295315D01*
X122120Y-294848D01*
X121829Y-294448D01*
X121304Y-294182D01*
X120604Y-294048D01*
X120195Y-293782D01*
X120020Y-293315D01*
X120137Y-292848D01*
X120429Y-292515D01*
X120837Y-292315D01*
X121245D01*
X121654Y-292448D01*
X122004Y-292782D01*
G01X125112Y-292315D02*
X126512D01*
G01X125812D02*
Y-296315D01*
G01X125112D02*
X126512D01*
G01X130962Y-294315D02*
X132129D01*
Y-295515D01*
X131779Y-295915D01*
X131370Y-296182D01*
X130787Y-296315D01*
X130204Y-296182D01*
X129795Y-295915D01*
X129445Y-295515D01*
X129212Y-295048D01*
X129095Y-294515D01*
Y-294048D01*
X129212Y-293648D01*
X129445Y-293182D01*
X129795Y-292782D01*
X130145Y-292515D01*
X130612Y-292315D01*
X131020D01*
X131487Y-292448D01*
X131837Y-292715D01*
G01X134070Y-296315D02*
Y-292315D01*
X136754Y-296315D01*
Y-292315D01*
G01X-4955Y-288315D02*
Y-284315D01*
X-3555D01*
X-3088Y-284515D01*
X-2738Y-284982D01*
X-2621Y-285515D01*
X-2738Y-286048D01*
X-3030Y-286448D01*
X-3555Y-286648D01*
X-4955D01*
G01X-155Y-288315D02*
Y-284315D01*
X1304D01*
X1770Y-284515D01*
X2062Y-284782D01*
X2179Y-285315D01*
X2062Y-285848D01*
X1712Y-286182D01*
X1304Y-286382D01*
X-155D01*
G01X1304D02*
X2179Y-288315D01*
G01X5812D02*
X5345Y-288248D01*
X4937Y-287982D01*
X4587Y-287582D01*
X4354Y-287115D01*
X4237Y-286582D01*
Y-286048D01*
X4354Y-285515D01*
X4587Y-285048D01*
X4937Y-284648D01*
X5345Y-284382D01*
X5812Y-284315D01*
X6279Y-284382D01*
X6687Y-284648D01*
X7037Y-285048D01*
X7270Y-285515D01*
X7387Y-286048D01*
Y-286582D01*
X7270Y-287115D01*
X7037Y-287582D01*
X6687Y-287982D01*
X6279Y-288248D01*
X5812Y-288315D01*
G01X9445D02*
Y-284315D01*
X10845D01*
X11312Y-284515D01*
X11662Y-284982D01*
X11779Y-285515D01*
X11662Y-286048D01*
X11370Y-286448D01*
X10845Y-286648D01*
X9445D01*
G01X14245Y-288315D02*
Y-284315D01*
X15704D01*
X16170Y-284515D01*
X16462Y-284782D01*
X16579Y-285315D01*
X16462Y-285848D01*
X16112Y-286182D01*
X15704Y-286382D01*
X14245D01*
G01X15704D02*
X16579Y-288315D01*
G01X19512Y-284315D02*
X20912D01*
G01X20212D02*
Y-288315D01*
G01X19512D02*
X20912D01*
G01X26179D02*
X23845D01*
Y-284315D01*
X26179D01*
G01X25245Y-286248D02*
X23845D01*
G01X29812Y-284315D02*
Y-288315D01*
G01X28470Y-284315D02*
X31154D01*
G01X33154Y-288315D02*
X34612Y-284315D01*
X36070Y-288315D01*
G01X35545Y-286915D02*
X33679D01*
G01X38245Y-288315D02*
Y-284315D01*
X39704D01*
X40170Y-284515D01*
X40462Y-284782D01*
X40579Y-285315D01*
X40462Y-285848D01*
X40112Y-286182D01*
X39704Y-286382D01*
X38245D01*
G01X39704D02*
X40579Y-288315D01*
G01X44212D02*
Y-286515D01*
X43045Y-284315D01*
G01X45379D02*
X44212Y-286515D01*
G01X53812Y-284315D02*
Y-288315D01*
G01X52470Y-284315D02*
X55154D01*
G01X58612Y-288315D02*
X58145Y-288248D01*
X57737Y-287982D01*
X57387Y-287582D01*
X57154Y-287115D01*
X57037Y-286582D01*
Y-286048D01*
X57154Y-285515D01*
X57387Y-285048D01*
X57737Y-284648D01*
X58145Y-284382D01*
X58612Y-284315D01*
X59079Y-284382D01*
X59487Y-284648D01*
X59837Y-285048D01*
X60070Y-285515D01*
X60187Y-286048D01*
Y-286582D01*
X60070Y-287115D01*
X59837Y-287582D01*
X59487Y-287982D01*
X59079Y-288248D01*
X58612Y-288315D01*
G01X66870D02*
Y-284315D01*
X69554Y-288315D01*
Y-284315D01*
G01X71787Y-288315D02*
X74237Y-284315D01*
G01X71787D02*
X74237Y-288315D01*
G01X76645D02*
Y-284315D01*
X78045D01*
X78512Y-284515D01*
X78862Y-284982D01*
X78979Y-285515D01*
X78862Y-286048D01*
X78570Y-286448D01*
X78045Y-286648D01*
X76645D01*
G01X85954Y-288315D02*
X87412Y-284315D01*
X88870Y-288315D01*
G01X88345Y-286915D02*
X86479D01*
G01X90870Y-288315D02*
Y-284315D01*
X93554Y-288315D01*
Y-284315D01*
G01X95729Y-288315D02*
Y-284315D01*
X96895D01*
X97362Y-284515D01*
X97712Y-284782D01*
X98004Y-285182D01*
X98237Y-285648D01*
X98295Y-286315D01*
X98237Y-286982D01*
X98004Y-287448D01*
X97712Y-287848D01*
X97362Y-288115D01*
X96895Y-288315D01*
X95729D01*
G01X105387Y-287782D02*
X105854Y-288115D01*
X106379Y-288315D01*
X106845D01*
X107312Y-288115D01*
X107662Y-287782D01*
X107837Y-287315D01*
X107720Y-286848D01*
X107429Y-286448D01*
X106904Y-286182D01*
X106204Y-286048D01*
X105795Y-285782D01*
X105620Y-285315D01*
X105737Y-284848D01*
X106029Y-284515D01*
X106437Y-284315D01*
X106845D01*
X107254Y-284448D01*
X107604Y-284782D01*
G01X110187Y-288315D02*
Y-284315D01*
G01X112637D02*
Y-288315D01*
G01Y-286315D02*
X110187D01*
G01X114754Y-288315D02*
X116212Y-284315D01*
X117670Y-288315D01*
G01X117145Y-286915D02*
X115279D01*
G01X119845Y-284315D02*
Y-288315D01*
X122179D01*
G01X124645Y-284315D02*
Y-288315D01*
X126979D01*
G01X134070D02*
Y-284315D01*
X136754Y-288315D01*
Y-284315D01*
G01X140212Y-288315D02*
X139745Y-288248D01*
X139337Y-287982D01*
X138987Y-287582D01*
X138754Y-287115D01*
X138637Y-286582D01*
Y-286048D01*
X138754Y-285515D01*
X138987Y-285048D01*
X139337Y-284648D01*
X139745Y-284382D01*
X140212Y-284315D01*
X140679Y-284382D01*
X141087Y-284648D01*
X141437Y-285048D01*
X141670Y-285515D01*
X141787Y-286048D01*
Y-286582D01*
X141670Y-287115D01*
X141437Y-287582D01*
X141087Y-287982D01*
X140679Y-288248D01*
X140212Y-288315D01*
G01X145012Y-284315D02*
Y-288315D01*
G01X143670Y-284315D02*
X146354D01*
G01X-3788Y-276315D02*
Y-280315D01*
G01X-5130Y-276315D02*
X-2446D01*
G01X-213Y-280315D02*
Y-276315D01*
G01X2237D02*
Y-280315D01*
G01Y-278315D02*
X-213D01*
G01X5112Y-276315D02*
X6512D01*
G01X5812D02*
Y-280315D01*
G01X5112D02*
X6512D01*
G01X9387Y-279782D02*
X9854Y-280115D01*
X10379Y-280315D01*
X10845D01*
X11312Y-280115D01*
X11662Y-279782D01*
X11837Y-279315D01*
X11720Y-278848D01*
X11429Y-278448D01*
X10904Y-278182D01*
X10204Y-278048D01*
X9795Y-277782D01*
X9620Y-277315D01*
X9737Y-276848D01*
X10029Y-276515D01*
X10437Y-276315D01*
X10845D01*
X11254Y-276448D01*
X11604Y-276782D01*
G01X18929Y-280315D02*
Y-276315D01*
X20095D01*
X20562Y-276515D01*
X20912Y-276782D01*
X21204Y-277182D01*
X21437Y-277648D01*
X21495Y-278315D01*
X21437Y-278982D01*
X21204Y-279448D01*
X20912Y-279848D01*
X20562Y-280115D01*
X20095Y-280315D01*
X18929D01*
G01X25012D02*
X24545Y-280248D01*
X24137Y-279982D01*
X23787Y-279582D01*
X23554Y-279115D01*
X23437Y-278582D01*
Y-278048D01*
X23554Y-277515D01*
X23787Y-277048D01*
X24137Y-276648D01*
X24545Y-276382D01*
X25012Y-276315D01*
X25479Y-276382D01*
X25887Y-276648D01*
X26237Y-277048D01*
X26470Y-277515D01*
X26587Y-278048D01*
Y-278582D01*
X26470Y-279115D01*
X26237Y-279582D01*
X25887Y-279982D01*
X25479Y-280248D01*
X25012Y-280315D01*
G01X31095Y-276648D02*
X30745Y-276448D01*
X30337Y-276315D01*
X29870D01*
X29345Y-276515D01*
X28937Y-276848D01*
X28645Y-277248D01*
X28412Y-277915D01*
X28354Y-278515D01*
X28470Y-279115D01*
X28645Y-279515D01*
X28995Y-279915D01*
X29404Y-280182D01*
X29812Y-280315D01*
X30220D01*
X30629Y-280182D01*
X30979Y-279982D01*
X31270Y-279715D01*
G01X33329Y-276315D02*
Y-279182D01*
X33562Y-279782D01*
X34029Y-280182D01*
X34612Y-280315D01*
X35195Y-280182D01*
X35662Y-279782D01*
X35895Y-279182D01*
Y-276315D01*
G01X37895Y-280315D02*
Y-276315D01*
X39412Y-279648D01*
X40929Y-276315D01*
Y-280315D01*
G01X45379D02*
X43045D01*
Y-276315D01*
X45379D01*
G01X44445Y-278248D02*
X43045D01*
G01X47670Y-280315D02*
Y-276315D01*
X50354Y-280315D01*
Y-276315D01*
G01X53812D02*
Y-280315D01*
G01X52470Y-276315D02*
X55154D01*
G01X64695Y-276648D02*
X64345Y-276448D01*
X63937Y-276315D01*
X63470D01*
X62945Y-276515D01*
X62537Y-276848D01*
X62245Y-277248D01*
X62012Y-277915D01*
X61954Y-278515D01*
X62070Y-279115D01*
X62245Y-279515D01*
X62595Y-279915D01*
X63004Y-280182D01*
X63412Y-280315D01*
X63820D01*
X64229Y-280182D01*
X64579Y-279982D01*
X64870Y-279715D01*
G01X68212Y-280315D02*
X67745Y-280248D01*
X67337Y-279982D01*
X66987Y-279582D01*
X66754Y-279115D01*
X66637Y-278582D01*
Y-278048D01*
X66754Y-277515D01*
X66987Y-277048D01*
X67337Y-276648D01*
X67745Y-276382D01*
X68212Y-276315D01*
X68679Y-276382D01*
X69087Y-276648D01*
X69437Y-277048D01*
X69670Y-277515D01*
X69787Y-278048D01*
Y-278582D01*
X69670Y-279115D01*
X69437Y-279582D01*
X69087Y-279982D01*
X68679Y-280248D01*
X68212Y-280315D01*
G01X71670D02*
Y-276315D01*
X74354Y-280315D01*
Y-276315D01*
G01X77812D02*
Y-280315D01*
G01X76470Y-276315D02*
X79154D01*
G01X81154Y-280315D02*
X82612Y-276315D01*
X84070Y-280315D01*
G01X83545Y-278915D02*
X81679D01*
G01X86712Y-276315D02*
X88112D01*
G01X87412D02*
Y-280315D01*
G01X86712D02*
X88112D01*
G01X90870D02*
Y-276315D01*
X93554Y-280315D01*
Y-276315D01*
G01X95787Y-279782D02*
X96254Y-280115D01*
X96779Y-280315D01*
X97245D01*
X97712Y-280115D01*
X98062Y-279782D01*
X98237Y-279315D01*
X98120Y-278848D01*
X97829Y-278448D01*
X97304Y-278182D01*
X96604Y-278048D01*
X96195Y-277782D01*
X96020Y-277315D01*
X96137Y-276848D01*
X96429Y-276515D01*
X96837Y-276315D01*
X97245D01*
X97654Y-276448D01*
X98004Y-276782D01*
G01X105912Y-276315D02*
X107312D01*
G01X106612D02*
Y-280315D01*
G01X105912D02*
X107312D01*
G01X110070D02*
Y-276315D01*
X112754Y-280315D01*
Y-276315D01*
G01X115104Y-280315D02*
Y-276315D01*
X117320D01*
G01X116504Y-278248D02*
X115104D01*
G01X121012Y-280315D02*
X120545Y-280248D01*
X120137Y-279982D01*
X119787Y-279582D01*
X119554Y-279115D01*
X119437Y-278582D01*
Y-278048D01*
X119554Y-277515D01*
X119787Y-277048D01*
X120137Y-276648D01*
X120545Y-276382D01*
X121012Y-276315D01*
X121479Y-276382D01*
X121887Y-276648D01*
X122237Y-277048D01*
X122470Y-277515D01*
X122587Y-278048D01*
Y-278582D01*
X122470Y-279115D01*
X122237Y-279582D01*
X121887Y-279982D01*
X121479Y-280248D01*
X121012Y-280315D01*
G01X124645D02*
Y-276315D01*
X126104D01*
X126570Y-276515D01*
X126862Y-276782D01*
X126979Y-277315D01*
X126862Y-277848D01*
X126512Y-278182D01*
X126104Y-278382D01*
X124645D01*
G01X126104D02*
X126979Y-280315D01*
G01X129095D02*
Y-276315D01*
X130612Y-279648D01*
X132129Y-276315D01*
Y-280315D01*
G01X133954D02*
X135412Y-276315D01*
X136870Y-280315D01*
G01X136345Y-278915D02*
X134479D01*
G01X140212Y-276315D02*
Y-280315D01*
G01X138870Y-276315D02*
X141554D01*
G01X144312D02*
X145712D01*
G01X145012D02*
Y-280315D01*
G01X144312D02*
X145712D01*
G01X149812D02*
X149345Y-280248D01*
X148937Y-279982D01*
X148587Y-279582D01*
X148354Y-279115D01*
X148237Y-278582D01*
Y-278048D01*
X148354Y-277515D01*
X148587Y-277048D01*
X148937Y-276648D01*
X149345Y-276382D01*
X149812Y-276315D01*
X150279Y-276382D01*
X150687Y-276648D01*
X151037Y-277048D01*
X151270Y-277515D01*
X151387Y-278048D01*
Y-278582D01*
X151270Y-279115D01*
X151037Y-279582D01*
X150687Y-279982D01*
X150279Y-280248D01*
X149812Y-280315D01*
G01X153270D02*
Y-276315D01*
X155954Y-280315D01*
Y-276315D01*
G01X1679Y26500D02*
Y23400D01*
G01X2561Y26500D02*
X797D01*
G01X-454Y23400D02*
Y26500D01*
X-1374D01*
X-1681Y26345D01*
X-1911Y25983D01*
X-1988Y25570D01*
X-1911Y25157D01*
X-1719Y24847D01*
X-1374Y24692D01*
X-454D01*
G01X-3278Y23865D02*
X-3508Y23607D01*
X-3776Y23452D01*
X-4121Y23400D01*
X-4466Y23503D01*
X-4734Y23710D01*
X-4926Y24072D01*
X-4964Y24485D01*
X-4888Y24898D01*
X-4696Y25157D01*
X-4428Y25363D01*
X-4159Y25415D01*
X-3891Y25363D01*
X-3546Y25157D01*
X-3661Y26500D01*
X-4696D01*
G01X3412Y73926D02*
Y77026D01*
X3872Y76406D01*
G01Y73926D02*
X2952D01*
G01X-2504Y60920D02*
X-2696Y60610D01*
X-2926Y60403D01*
X-3194Y60300D01*
X-3501Y60403D01*
X-3731Y60610D01*
X-3961Y60920D01*
X-4038Y61333D01*
Y63400D01*
G01X-5328Y60920D02*
X-5558Y60558D01*
X-5864Y60352D01*
X-6209Y60300D01*
X-6516Y60352D01*
X-6823Y60610D01*
X-7014Y60920D01*
X-7053Y61230D01*
X-6976Y61592D01*
X-6708Y61850D01*
X-6439Y61953D01*
X-6094D01*
G01X-6439D02*
X-6669Y62108D01*
X-6861Y62367D01*
X-6938Y62677D01*
X-6861Y62987D01*
X-6669Y63245D01*
X-6324Y63400D01*
X-5979Y63348D01*
X-5634Y63142D01*
G01X-9071Y60300D02*
Y63400D01*
X-8611Y62780D01*
G01Y60300D02*
X-9531D01*
G01X4289Y133926D02*
X4212Y134598D01*
X4097Y135166D01*
X3944Y135683D01*
X3752Y136251D01*
X3445Y137026D01*
X4979D01*
G01X1829Y153431D02*
X1637Y153121D01*
X1407Y152914D01*
X1139Y152811D01*
X832Y152914D01*
X602Y153121D01*
X372Y153431D01*
X295Y153844D01*
Y155911D01*
G01X-995Y153431D02*
X-1225Y153069D01*
X-1531Y152863D01*
X-1876Y152811D01*
X-2183Y152863D01*
X-2490Y153121D01*
X-2681Y153431D01*
X-2720Y153741D01*
X-2643Y154103D01*
X-2375Y154361D01*
X-2106Y154464D01*
X-1761D01*
G01X-2106D02*
X-2336Y154619D01*
X-2528Y154878D01*
X-2605Y155188D01*
X-2528Y155498D01*
X-2336Y155756D01*
X-1991Y155911D01*
X-1646Y155859D01*
X-1301Y155653D01*
G01X-3895Y153431D02*
X-4125Y153069D01*
X-4431Y152863D01*
X-4776Y152811D01*
X-5083Y152863D01*
X-5390Y153121D01*
X-5581Y153431D01*
X-5620Y153741D01*
X-5543Y154103D01*
X-5275Y154361D01*
X-5006Y154464D01*
X-4661D01*
G01X-5006D02*
X-5236Y154619D01*
X-5428Y154878D01*
X-5505Y155188D01*
X-5428Y155498D01*
X-5236Y155756D01*
X-4891Y155911D01*
X-4546Y155859D01*
X-4201Y155653D01*
G01X10979Y213600D02*
Y210500D01*
G01X11861Y213600D02*
X10097D01*
G01X8846Y210500D02*
Y213600D01*
X7926D01*
X7619Y213445D01*
X7389Y213083D01*
X7312Y212670D01*
X7389Y212257D01*
X7581Y211947D01*
X7926Y211792D01*
X8846D01*
G01X5179Y210500D02*
Y213600D01*
X5639Y212980D01*
G01Y210500D02*
X4719D01*
G01X16033Y207685D02*
Y210785D01*
X16493Y210165D01*
G01Y207685D02*
X15573D01*
G01X36667Y-339015D02*
X37294Y-339515D01*
X37999Y-339815D01*
X38625D01*
X39252Y-339515D01*
X39722Y-339015D01*
X39957Y-338315D01*
X39800Y-337615D01*
X39409Y-337015D01*
X38704Y-336615D01*
X37764Y-336415D01*
X37215Y-336015D01*
X36980Y-335315D01*
X37137Y-334615D01*
X37529Y-334115D01*
X38077Y-333815D01*
X38625D01*
X39174Y-334015D01*
X39644Y-334515D01*
G01X46179Y-339815D02*
X43045D01*
Y-333815D01*
X46179D01*
G01X44925Y-336715D02*
X43045D01*
G01X52635Y-334315D02*
X52165Y-334015D01*
X51617Y-333815D01*
X50990D01*
X50285Y-334115D01*
X49737Y-334615D01*
X49345Y-335215D01*
X49032Y-336215D01*
X48954Y-337115D01*
X49110Y-338015D01*
X49345Y-338615D01*
X49815Y-339215D01*
X50364Y-339615D01*
X50912Y-339815D01*
X51460D01*
X52009Y-339615D01*
X52479Y-339315D01*
X52870Y-338915D01*
G01X57212Y-339815D02*
X56585Y-339715D01*
X56037Y-339315D01*
X55567Y-338715D01*
X55254Y-338015D01*
X55097Y-337215D01*
Y-336415D01*
X55254Y-335615D01*
X55567Y-334915D01*
X56037Y-334315D01*
X56585Y-333915D01*
X57212Y-333815D01*
X57839Y-333915D01*
X58387Y-334315D01*
X58857Y-334915D01*
X59170Y-335615D01*
X59327Y-336415D01*
Y-337215D01*
X59170Y-338015D01*
X58857Y-338715D01*
X58387Y-339315D01*
X57839Y-339715D01*
X57212Y-339815D01*
G01X61710D02*
Y-333815D01*
X65314Y-339815D01*
Y-333815D01*
G01X68089Y-339815D02*
Y-333815D01*
X69655D01*
X70282Y-334115D01*
X70752Y-334515D01*
X71144Y-335115D01*
X71457Y-335815D01*
X71535Y-336815D01*
X71457Y-337815D01*
X71144Y-338515D01*
X70752Y-339115D01*
X70282Y-339515D01*
X69655Y-339815D01*
X68089D01*
G01X74154D02*
X76112Y-333815D01*
X78070Y-339815D01*
G01X77365Y-337715D02*
X74859D01*
G01X80845Y-339815D02*
Y-333815D01*
X82804D01*
X83430Y-334115D01*
X83822Y-334515D01*
X83979Y-335315D01*
X83822Y-336115D01*
X83352Y-336615D01*
X82804Y-336915D01*
X80845D01*
G01X82804D02*
X83979Y-339815D01*
G01X88712D02*
Y-337115D01*
X87145Y-333815D01*
G01X90279D02*
X88712Y-337115D01*
G01X99667Y-339015D02*
X100294Y-339515D01*
X100999Y-339815D01*
X101625D01*
X102252Y-339515D01*
X102722Y-339015D01*
X102957Y-338315D01*
X102800Y-337615D01*
X102409Y-337015D01*
X101704Y-336615D01*
X100764Y-336415D01*
X100215Y-336015D01*
X99980Y-335315D01*
X100137Y-334615D01*
X100529Y-334115D01*
X101077Y-333815D01*
X101625D01*
X102174Y-334015D01*
X102644Y-334515D01*
G01X106672Y-333815D02*
X108552D01*
G01X107612D02*
Y-339815D01*
G01X106672D02*
X108552D01*
G01X112345Y-333815D02*
Y-339815D01*
X115479D01*
G01X118489D02*
Y-333815D01*
G01X121465D02*
X118489Y-337515D01*
G01X121935Y-339815D02*
X119820Y-335815D01*
G01X124867Y-339015D02*
X125494Y-339515D01*
X126199Y-339815D01*
X126825D01*
X127452Y-339515D01*
X127922Y-339015D01*
X128157Y-338315D01*
X128000Y-337615D01*
X127609Y-337015D01*
X126904Y-336615D01*
X125964Y-336415D01*
X125415Y-336015D01*
X125180Y-335315D01*
X125337Y-334615D01*
X125729Y-334115D01*
X126277Y-333815D01*
X126825D01*
X127374Y-334015D01*
X127844Y-334515D01*
G01X134535Y-334315D02*
X134065Y-334015D01*
X133517Y-333815D01*
X132890D01*
X132185Y-334115D01*
X131637Y-334615D01*
X131245Y-335215D01*
X130932Y-336215D01*
X130854Y-337115D01*
X131010Y-338015D01*
X131245Y-338615D01*
X131715Y-339215D01*
X132264Y-339615D01*
X132812Y-339815D01*
X133360D01*
X133909Y-339615D01*
X134379Y-339315D01*
X134770Y-338915D01*
G01X137545Y-339815D02*
Y-333815D01*
X139504D01*
X140130Y-334115D01*
X140522Y-334515D01*
X140679Y-335315D01*
X140522Y-336115D01*
X140052Y-336615D01*
X139504Y-336915D01*
X137545D01*
G01X139504D02*
X140679Y-339815D01*
G01X146979D02*
X143845D01*
Y-333815D01*
X146979D01*
G01X145725Y-336715D02*
X143845D01*
G01X153279Y-339815D02*
X150145D01*
Y-333815D01*
X153279D01*
G01X152025Y-336715D02*
X150145D01*
G01X156210Y-339815D02*
Y-333815D01*
X159814Y-339815D01*
Y-333815D01*
G01X39104Y-331315D02*
Y-327315D01*
X41320D01*
G01X40504Y-329248D02*
X39104D01*
G01X44312Y-327315D02*
X45712D01*
G01X45012D02*
Y-331315D01*
G01X44312D02*
X45712D01*
G01X48645Y-327315D02*
Y-331315D01*
X50979D01*
G01X53095D02*
Y-327315D01*
X54612Y-330648D01*
X56129Y-327315D01*
Y-331315D01*
G01X37926Y18630D02*
X37696Y18268D01*
X37390Y18062D01*
X37045Y18010D01*
X36738Y18062D01*
X36431Y18320D01*
X36240Y18630D01*
X36201Y18940D01*
X36278Y19302D01*
X36546Y19560D01*
X36815Y19663D01*
X37160D01*
G01X36815D02*
X36585Y19818D01*
X36393Y20077D01*
X36316Y20387D01*
X36393Y20697D01*
X36585Y20955D01*
X36930Y21110D01*
X37275Y21058D01*
X37620Y20852D01*
G01X37083Y-1990D02*
Y1110D01*
X37543Y490D01*
G01Y-1990D02*
X36623D01*
G01X35250Y24305D02*
X35058Y23995D01*
X34828Y23788D01*
X34560Y23685D01*
X34253Y23788D01*
X34023Y23995D01*
X33793Y24305D01*
X33716Y24718D01*
Y26785D01*
G01X32311Y24977D02*
X32043Y25338D01*
X31813Y25545D01*
X31506Y25648D01*
X31238Y25545D01*
X31046Y25338D01*
X30893Y25028D01*
X30855Y24667D01*
X30893Y24357D01*
X31046Y24047D01*
X31276Y23788D01*
X31545Y23685D01*
X31851Y23788D01*
X32120Y24098D01*
X32273Y24563D01*
X32311Y25080D01*
X32235Y25752D01*
X32120Y26113D01*
X31928Y26475D01*
X31660Y26733D01*
X31391Y26785D01*
X31123Y26682D01*
X30931Y26423D01*
G01X29526Y24150D02*
X29296Y23892D01*
X29028Y23737D01*
X28683Y23685D01*
X28338Y23788D01*
X28070Y23995D01*
X27878Y24357D01*
X27840Y24770D01*
X27916Y25183D01*
X28108Y25442D01*
X28376Y25648D01*
X28645Y25700D01*
X28913Y25648D01*
X29258Y25442D01*
X29143Y26785D01*
X28108D01*
G01X48383Y186885D02*
Y189985D01*
X48843Y189365D01*
G01Y186885D02*
X47923D01*
G01X47196Y193220D02*
X47004Y192910D01*
X46774Y192703D01*
X46506Y192600D01*
X46199Y192703D01*
X45969Y192910D01*
X45739Y193220D01*
X45662Y193633D01*
Y195700D01*
G01X43069Y192600D02*
Y195700D01*
X44487Y193478D01*
X42571D01*
G01X50833Y17685D02*
Y20785D01*
X51293Y20165D01*
G01Y17685D02*
X50373D01*
G01X64800Y126085D02*
Y129185D01*
X63841D01*
X63535Y129030D01*
X63343Y128823D01*
X63266Y128410D01*
X63343Y127997D01*
X63573Y127738D01*
X63841Y127583D01*
X64800D01*
G01X63841D02*
X63266Y126085D01*
G01X61861Y128668D02*
X61631Y128978D01*
X61363Y129133D01*
X61056Y129185D01*
X60673Y129082D01*
X60405Y128823D01*
X60328Y128513D01*
X60366Y128203D01*
X60520Y127945D01*
X61286Y127428D01*
X61631Y127067D01*
X61861Y126550D01*
X61938Y126085D01*
X60328D01*
G01X58961Y127377D02*
X58693Y127738D01*
X58463Y127945D01*
X58156Y128048D01*
X57888Y127945D01*
X57696Y127738D01*
X57543Y127428D01*
X57505Y127067D01*
X57543Y126757D01*
X57696Y126447D01*
X57926Y126188D01*
X58195Y126085D01*
X58501Y126188D01*
X58770Y126498D01*
X58923Y126963D01*
X58961Y127480D01*
X58885Y128152D01*
X58770Y128513D01*
X58578Y128875D01*
X58310Y129133D01*
X58041Y129185D01*
X57773Y129082D01*
X57581Y128823D01*
G01X62000Y132685D02*
G03I-500J0D01*
G01X75216Y132468D02*
X79350D01*
G01X75216Y128902D02*
X79350D01*
G01X77683Y136385D02*
X76883D01*
G01Y132985D02*
X77683D01*
G01X60000Y161285D02*
Y164385D01*
X59041D01*
X58735Y164230D01*
X58543Y164023D01*
X58466Y163610D01*
X58543Y163197D01*
X58773Y162938D01*
X59041Y162783D01*
X60000D01*
G01X59041D02*
X58466Y161285D01*
G01X57061Y163868D02*
X56831Y164178D01*
X56563Y164333D01*
X56256Y164385D01*
X55873Y164282D01*
X55605Y164023D01*
X55528Y163713D01*
X55566Y163403D01*
X55720Y163145D01*
X56486Y162628D01*
X56831Y162267D01*
X57061Y161750D01*
X57138Y161285D01*
X55528D01*
G01X54276Y161905D02*
X54046Y161543D01*
X53740Y161337D01*
X53395Y161285D01*
X53088Y161337D01*
X52781Y161595D01*
X52590Y161905D01*
X52551Y162215D01*
X52628Y162577D01*
X52896Y162835D01*
X53165Y162938D01*
X53510D01*
G01X53165D02*
X52935Y163093D01*
X52743Y163352D01*
X52666Y163662D01*
X52743Y163972D01*
X52935Y164230D01*
X53280Y164385D01*
X53625Y164333D01*
X53970Y164127D01*
G01X67283Y162685D02*
G03I-500J0D01*
G01X58390Y157727D02*
X58620Y157882D01*
X58888Y157985D01*
X59195D01*
X59540Y157830D01*
X59808Y157572D01*
X60000Y157262D01*
X60153Y156745D01*
X60191Y156280D01*
X60115Y155815D01*
X60000Y155505D01*
X59770Y155195D01*
X59501Y154988D01*
X59233Y154885D01*
X58965D01*
X58696Y154988D01*
X58466Y155143D01*
X58275Y155350D01*
G01X57176Y155505D02*
X56946Y155143D01*
X56640Y154937D01*
X56295Y154885D01*
X55988Y154937D01*
X55681Y155195D01*
X55490Y155505D01*
X55451Y155815D01*
X55528Y156177D01*
X55796Y156435D01*
X56065Y156538D01*
X56410D01*
G01X56065D02*
X55835Y156693D01*
X55643Y156952D01*
X55566Y157262D01*
X55643Y157572D01*
X55835Y157830D01*
X56180Y157985D01*
X56525Y157933D01*
X56870Y157727D01*
G01X53433Y154885D02*
Y157985D01*
X53893Y157365D01*
G01Y154885D02*
X52973D01*
G01X66283Y153685D02*
Y158685D01*
X67283D01*
Y153685D01*
X66283D01*
G01X59190Y148927D02*
X59420Y149082D01*
X59688Y149185D01*
X59995D01*
X60340Y149030D01*
X60608Y148772D01*
X60800Y148462D01*
X60953Y147945D01*
X60991Y147480D01*
X60915Y147015D01*
X60800Y146705D01*
X60570Y146395D01*
X60301Y146188D01*
X60033Y146085D01*
X59765D01*
X59496Y146188D01*
X59266Y146343D01*
X59075Y146550D01*
G01X56673Y146085D02*
Y149185D01*
X58091Y146963D01*
X56175D01*
G01X66183Y149385D02*
X65383D01*
G01Y145985D02*
X66183D01*
G01X77121Y166293D02*
X77276Y166063D01*
X77379Y165795D01*
Y165488D01*
X77224Y165143D01*
X76966Y164875D01*
X76656Y164683D01*
X76139Y164530D01*
X75674Y164492D01*
X75209Y164568D01*
X74899Y164683D01*
X74589Y164913D01*
X74382Y165182D01*
X74279Y165450D01*
Y165718D01*
X74382Y165987D01*
X74537Y166217D01*
X74744Y166408D01*
G01X74279Y168350D02*
X77379D01*
X76759Y167890D01*
G01X74279D02*
Y168810D01*
G01Y171250D02*
X77379D01*
X76759Y170790D01*
G01X74279D02*
Y171710D01*
G01X76983Y159285D02*
Y160085D01*
G01X73583D02*
Y159285D01*
G01X77183Y186885D02*
Y189985D01*
X77643Y189365D01*
G01Y186885D02*
X76723D01*
G01X67200Y209105D02*
X67008Y208795D01*
X66778Y208588D01*
X66510Y208485D01*
X66203Y208588D01*
X65973Y208795D01*
X65743Y209105D01*
X65666Y209518D01*
Y211585D01*
G01X63533Y208485D02*
Y211585D01*
X63993Y210965D01*
G01Y208485D02*
X63073D01*
G01X61476Y209105D02*
X61246Y208743D01*
X60940Y208537D01*
X60595Y208485D01*
X60288Y208537D01*
X59981Y208795D01*
X59790Y209105D01*
X59751Y209415D01*
X59828Y209777D01*
X60096Y210035D01*
X60365Y210138D01*
X60710D01*
G01X60365D02*
X60135Y210293D01*
X59943Y210552D01*
X59866Y210862D01*
X59943Y211172D01*
X60135Y211430D01*
X60480Y211585D01*
X60825Y211533D01*
X61170Y211327D01*
G01X92400Y18305D02*
X92208Y17995D01*
X91978Y17788D01*
X91710Y17685D01*
X91403Y17788D01*
X91173Y17995D01*
X90943Y18305D01*
X90866Y18718D01*
Y20785D01*
G01X88733Y17685D02*
Y20785D01*
X89193Y20165D01*
G01Y17685D02*
X88273D01*
G01X86561Y20268D02*
X86331Y20578D01*
X86063Y20733D01*
X85756Y20785D01*
X85373Y20682D01*
X85105Y20423D01*
X85028Y20113D01*
X85066Y19803D01*
X85220Y19545D01*
X85986Y19028D01*
X86331Y18667D01*
X86561Y18150D01*
X86638Y17685D01*
X85028D01*
G01X88040Y132127D02*
X88270Y132282D01*
X88538Y132385D01*
X88845D01*
X89190Y132230D01*
X89458Y131972D01*
X89650Y131662D01*
X89803Y131145D01*
X89841Y130680D01*
X89765Y130215D01*
X89650Y129905D01*
X89420Y129595D01*
X89151Y129388D01*
X88883Y129285D01*
X88615D01*
X88346Y129388D01*
X88116Y129543D01*
X87925Y129750D01*
G01X86711Y131868D02*
X86481Y132178D01*
X86213Y132333D01*
X85906Y132385D01*
X85523Y132282D01*
X85255Y132023D01*
X85178Y131713D01*
X85216Y131403D01*
X85370Y131145D01*
X86136Y130628D01*
X86481Y130267D01*
X86711Y129750D01*
X86788Y129285D01*
X85178D01*
G01X83926Y129750D02*
X83696Y129492D01*
X83428Y129337D01*
X83083Y129285D01*
X82738Y129388D01*
X82470Y129595D01*
X82278Y129957D01*
X82240Y130370D01*
X82316Y130783D01*
X82508Y131042D01*
X82776Y131248D01*
X83045Y131300D01*
X83313Y131248D01*
X83658Y131042D01*
X83543Y132385D01*
X82508D01*
G01X90390Y127327D02*
X90620Y127482D01*
X90888Y127585D01*
X91195D01*
X91540Y127430D01*
X91808Y127172D01*
X92000Y126862D01*
X92153Y126345D01*
X92191Y125880D01*
X92115Y125415D01*
X92000Y125105D01*
X91770Y124795D01*
X91501Y124588D01*
X91233Y124485D01*
X90965D01*
X90696Y124588D01*
X90466Y124743D01*
X90275Y124950D01*
G01X89176Y125105D02*
X88946Y124743D01*
X88640Y124537D01*
X88295Y124485D01*
X87988Y124537D01*
X87681Y124795D01*
X87490Y125105D01*
X87451Y125415D01*
X87528Y125777D01*
X87796Y126035D01*
X88065Y126138D01*
X88410D01*
G01X88065D02*
X87835Y126293D01*
X87643Y126552D01*
X87566Y126862D01*
X87643Y127172D01*
X87835Y127430D01*
X88180Y127585D01*
X88525Y127533D01*
X88870Y127327D01*
G01X86276Y124950D02*
X86046Y124692D01*
X85778Y124537D01*
X85433Y124485D01*
X85088Y124588D01*
X84820Y124795D01*
X84628Y125157D01*
X84590Y125570D01*
X84666Y125983D01*
X84858Y126242D01*
X85126Y126448D01*
X85395Y126500D01*
X85663Y126448D01*
X86008Y126242D01*
X85893Y127585D01*
X84858D01*
G01X77783Y123185D02*
Y128185D01*
X78783D01*
Y123185D01*
X77783D01*
G01X87990Y136927D02*
X88220Y137082D01*
X88488Y137185D01*
X88795D01*
X89140Y137030D01*
X89408Y136772D01*
X89600Y136462D01*
X89753Y135945D01*
X89791Y135480D01*
X89715Y135015D01*
X89600Y134705D01*
X89370Y134395D01*
X89101Y134188D01*
X88833Y134085D01*
X88565D01*
X88296Y134188D01*
X88066Y134343D01*
X87875Y134550D01*
G01X85933Y134085D02*
Y137185D01*
X86393Y136565D01*
G01Y134085D02*
X85473D01*
G01X83033Y137185D02*
X83340Y137082D01*
X83570Y136823D01*
X83723Y136513D01*
X83838Y136100D01*
X83876Y135635D01*
X83838Y135170D01*
X83723Y134757D01*
X83570Y134447D01*
X83340Y134188D01*
X83033Y134085D01*
X82726Y134188D01*
X82496Y134447D01*
X82343Y134757D01*
X82228Y135170D01*
X82190Y135635D01*
X82228Y136100D01*
X82343Y136513D01*
X82496Y136823D01*
X82726Y137082D01*
X83033Y137185D01*
G01X85600Y159685D02*
Y162785D01*
X84641D01*
X84335Y162630D01*
X84143Y162423D01*
X84066Y162010D01*
X84143Y161597D01*
X84373Y161338D01*
X84641Y161183D01*
X85600D01*
G01X84641D02*
X84066Y159685D01*
G01X81933D02*
Y162785D01*
X82393Y162165D01*
G01Y159685D02*
X81473D01*
G01X79110D02*
X79033Y160357D01*
X78918Y160925D01*
X78765Y161442D01*
X78573Y162010D01*
X78266Y162785D01*
X79800D01*
G01X92283Y161685D02*
G03I-500J0D01*
G01X83990Y156127D02*
X84220Y156282D01*
X84488Y156385D01*
X84795D01*
X85140Y156230D01*
X85408Y155972D01*
X85600Y155662D01*
X85753Y155145D01*
X85791Y154680D01*
X85715Y154215D01*
X85600Y153905D01*
X85370Y153595D01*
X85101Y153388D01*
X84833Y153285D01*
X84565D01*
X84296Y153388D01*
X84066Y153543D01*
X83875Y153750D01*
G01X82661Y155868D02*
X82431Y156178D01*
X82163Y156333D01*
X81856Y156385D01*
X81473Y156282D01*
X81205Y156023D01*
X81128Y155713D01*
X81166Y155403D01*
X81320Y155145D01*
X82086Y154628D01*
X82431Y154267D01*
X82661Y153750D01*
X82738Y153285D01*
X81128D01*
G01X79876Y153905D02*
X79646Y153543D01*
X79340Y153337D01*
X78995Y153285D01*
X78688Y153337D01*
X78381Y153595D01*
X78190Y153905D01*
X78151Y154215D01*
X78228Y154577D01*
X78496Y154835D01*
X78765Y154938D01*
X79110D01*
G01X78765D02*
X78535Y155093D01*
X78343Y155352D01*
X78266Y155662D01*
X78343Y155972D01*
X78535Y156230D01*
X78880Y156385D01*
X79225Y156333D01*
X79570Y156127D01*
G01X91283Y152685D02*
Y157685D01*
X92283D01*
Y152685D01*
X91283D01*
G01X91990Y144727D02*
X92220Y144882D01*
X92488Y144985D01*
X92795D01*
X93140Y144830D01*
X93408Y144572D01*
X93600Y144262D01*
X93753Y143745D01*
X93791Y143280D01*
X93715Y142815D01*
X93600Y142505D01*
X93370Y142195D01*
X93101Y141988D01*
X92833Y141885D01*
X92565D01*
X92296Y141988D01*
X92066Y142143D01*
X91875Y142350D01*
G01X90776Y142505D02*
X90546Y142143D01*
X90240Y141937D01*
X89895Y141885D01*
X89588Y141937D01*
X89281Y142195D01*
X89090Y142505D01*
X89051Y142815D01*
X89128Y143177D01*
X89396Y143435D01*
X89665Y143538D01*
X90010D01*
G01X89665D02*
X89435Y143693D01*
X89243Y143952D01*
X89166Y144262D01*
X89243Y144572D01*
X89435Y144830D01*
X89780Y144985D01*
X90125Y144933D01*
X90470Y144727D01*
G01X91783Y149385D02*
X90983D01*
G01Y145985D02*
X91783D01*
G01X101625Y148078D02*
X101780Y147848D01*
X101883Y147580D01*
Y147273D01*
X101728Y146928D01*
X101470Y146660D01*
X101160Y146468D01*
X100643Y146315D01*
X100178Y146277D01*
X99713Y146353D01*
X99403Y146468D01*
X99093Y146698D01*
X98886Y146967D01*
X98783Y147235D01*
Y147503D01*
X98886Y147772D01*
X99041Y148002D01*
X99248Y148193D01*
G01X101366Y149407D02*
X101676Y149637D01*
X101831Y149905D01*
X101883Y150212D01*
X101780Y150595D01*
X101521Y150863D01*
X101211Y150940D01*
X100901Y150902D01*
X100643Y150748D01*
X100126Y149982D01*
X99765Y149637D01*
X99248Y149407D01*
X98783Y149330D01*
Y150940D01*
G01X100075Y152307D02*
X100436Y152575D01*
X100643Y152805D01*
X100746Y153112D01*
X100643Y153380D01*
X100436Y153572D01*
X100126Y153725D01*
X99765Y153763D01*
X99455Y153725D01*
X99145Y153572D01*
X98886Y153342D01*
X98783Y153073D01*
X98886Y152767D01*
X99196Y152498D01*
X99661Y152345D01*
X100178Y152307D01*
X100850Y152383D01*
X101211Y152498D01*
X101573Y152690D01*
X101831Y152958D01*
X101883Y153227D01*
X101780Y153495D01*
X101521Y153687D01*
G01X102483Y158285D02*
Y159085D01*
G01X99083D02*
Y158285D01*
G01X84200Y192305D02*
X84008Y191995D01*
X83778Y191788D01*
X83510Y191685D01*
X83203Y191788D01*
X82973Y191995D01*
X82743Y192305D01*
X82666Y192718D01*
Y194785D01*
G01X80533Y191685D02*
Y194785D01*
X80993Y194165D01*
G01Y191685D02*
X80073D01*
G01X108033Y207685D02*
Y210785D01*
X108493Y210165D01*
G01Y207685D02*
X107573D01*
G01X105133Y210785D02*
X105440Y210682D01*
X105670Y210423D01*
X105823Y210113D01*
X105938Y209700D01*
X105976Y209235D01*
X105938Y208770D01*
X105823Y208357D01*
X105670Y208047D01*
X105440Y207788D01*
X105133Y207685D01*
X104826Y207788D01*
X104596Y208047D01*
X104443Y208357D01*
X104328Y208770D01*
X104290Y209235D01*
X104328Y209700D01*
X104443Y210113D01*
X104596Y210423D01*
X104826Y210682D01*
X105133Y210785D01*
G01X128450Y13800D02*
X128182Y13852D01*
X127875Y14007D01*
X127683Y14265D01*
X127607Y14627D01*
X127683Y14988D01*
X127913Y15298D01*
X128258Y15453D01*
X128642D01*
X128872Y15557D01*
X129063Y15815D01*
X129140Y16177D01*
X129025Y16538D01*
X128757Y16797D01*
X128450Y16900D01*
X128143Y16797D01*
X127875Y16538D01*
X127760Y16177D01*
X127837Y15815D01*
X128028Y15557D01*
X128258Y15453D01*
X128642D01*
X128987Y15298D01*
X129217Y14988D01*
X129293Y14627D01*
X129217Y14265D01*
X129025Y14007D01*
X128718Y13852D01*
X128450Y13800D01*
G01X130400Y21285D02*
Y24385D01*
X129441D01*
X129135Y24230D01*
X128943Y24023D01*
X128866Y23610D01*
X128943Y23197D01*
X129173Y22938D01*
X129441Y22783D01*
X130400D01*
G01X129441D02*
X128866Y21285D01*
G01X127461Y22577D02*
X127193Y22938D01*
X126963Y23145D01*
X126656Y23248D01*
X126388Y23145D01*
X126196Y22938D01*
X126043Y22628D01*
X126005Y22267D01*
X126043Y21957D01*
X126196Y21647D01*
X126426Y21388D01*
X126695Y21285D01*
X127001Y21388D01*
X127270Y21698D01*
X127423Y22163D01*
X127461Y22680D01*
X127385Y23352D01*
X127270Y23713D01*
X127078Y24075D01*
X126810Y24333D01*
X126541Y24385D01*
X126273Y24282D01*
X126081Y24023D01*
G01X123833Y21285D02*
X123565Y21337D01*
X123258Y21492D01*
X123066Y21750D01*
X122990Y22112D01*
X123066Y22473D01*
X123296Y22783D01*
X123641Y22938D01*
X124025D01*
X124255Y23042D01*
X124446Y23300D01*
X124523Y23662D01*
X124408Y24023D01*
X124140Y24282D01*
X123833Y24385D01*
X123526Y24282D01*
X123258Y24023D01*
X123143Y23662D01*
X123220Y23300D01*
X123411Y23042D01*
X123641Y22938D01*
X124025D01*
X124370Y22783D01*
X124600Y22473D01*
X124676Y22112D01*
X124600Y21750D01*
X124408Y21492D01*
X124101Y21337D01*
X123833Y21285D01*
G01X138509Y55167D02*
X138202Y54909D01*
X137857Y54754D01*
X137551D01*
X137244Y54909D01*
X137014Y55167D01*
X136899Y55529D01*
X136976Y55891D01*
X137167Y56201D01*
X137512Y56407D01*
X137972Y56511D01*
X138241Y56717D01*
X138356Y57079D01*
X138279Y57441D01*
X138087Y57699D01*
X137819Y57854D01*
X137551D01*
X137282Y57751D01*
X137052Y57492D01*
G01X135571Y55374D02*
X135379Y55064D01*
X135149Y54857D01*
X134881Y54754D01*
X134574Y54857D01*
X134344Y55064D01*
X134114Y55374D01*
X134037Y55787D01*
Y57854D01*
G01X131904Y54754D02*
Y57854D01*
X132364Y57234D01*
G01Y54754D02*
X131444D01*
G01X129004D02*
Y57854D01*
X129464Y57234D01*
G01Y54754D02*
X128544D01*
G01X134083Y66835D02*
X138133D01*
Y59535D01*
X134083D01*
G01X128083Y66835D02*
X124033D01*
Y59535D01*
X128083D01*
G01X114783Y181285D02*
Y184385D01*
X115243Y183765D01*
G01Y181285D02*
X114323D01*
G01X121800Y187505D02*
X121608Y187195D01*
X121378Y186988D01*
X121110Y186885D01*
X120803Y186988D01*
X120573Y187195D01*
X120343Y187505D01*
X120266Y187918D01*
Y189985D01*
G01X118861Y189468D02*
X118631Y189778D01*
X118363Y189933D01*
X118056Y189985D01*
X117673Y189882D01*
X117405Y189623D01*
X117328Y189313D01*
X117366Y189003D01*
X117520Y188745D01*
X118286Y188228D01*
X118631Y187867D01*
X118861Y187350D01*
X118938Y186885D01*
X117328D01*
G01X122033Y207685D02*
Y210785D01*
X122493Y210165D01*
G01Y207685D02*
X121573D01*
G01X163929Y-331315D02*
Y-327315D01*
X165095D01*
X165562Y-327515D01*
X165912Y-327782D01*
X166204Y-328182D01*
X166437Y-328648D01*
X166495Y-329315D01*
X166437Y-329982D01*
X166204Y-330448D01*
X165912Y-330848D01*
X165562Y-331115D01*
X165095Y-331315D01*
X163929D01*
G01X168554D02*
X170012Y-327315D01*
X171470Y-331315D01*
G01X170945Y-329915D02*
X169079D01*
G01X174812Y-327315D02*
Y-331315D01*
G01X173470Y-327315D02*
X176154D01*
G01X180779Y-331315D02*
X178445D01*
Y-327315D01*
X180779D01*
G01X179845Y-329248D02*
X178445D01*
G01X163870Y-251315D02*
Y-247315D01*
X166554Y-251315D01*
Y-247315D01*
G01X168554Y-251315D02*
X170012Y-247315D01*
X171470Y-251315D01*
G01X170945Y-249915D02*
X169079D01*
G01X173295Y-251315D02*
Y-247315D01*
X174812Y-250648D01*
X176329Y-247315D01*
Y-251315D01*
G01X180779D02*
X178445D01*
Y-247315D01*
X180779D01*
G01X179845Y-249248D02*
X178445D01*
G01X140033Y61285D02*
Y64385D01*
X140493Y63765D01*
G01Y61285D02*
X139573D01*
G01X161500Y89780D02*
Y86680D01*
G01X162382Y89780D02*
X160618D01*
G01X159367Y86680D02*
Y89780D01*
X158447D01*
X158140Y89625D01*
X157910Y89263D01*
X157833Y88850D01*
X157910Y88437D01*
X158102Y88127D01*
X158447Y87972D01*
X159367D01*
G01X156428D02*
X156160Y88333D01*
X155930Y88540D01*
X155623Y88643D01*
X155355Y88540D01*
X155163Y88333D01*
X155010Y88023D01*
X154972Y87662D01*
X155010Y87352D01*
X155163Y87042D01*
X155393Y86783D01*
X155662Y86680D01*
X155968Y86783D01*
X156237Y87093D01*
X156390Y87558D01*
X156428Y88075D01*
X156352Y88747D01*
X156237Y89108D01*
X156045Y89470D01*
X155777Y89728D01*
X155508Y89780D01*
X155240Y89677D01*
X155048Y89418D01*
G01X162000Y209105D02*
X161808Y208795D01*
X161578Y208588D01*
X161310Y208485D01*
X161003Y208588D01*
X160773Y208795D01*
X160543Y209105D01*
X160466Y209518D01*
Y211585D01*
G01X158333Y208485D02*
Y211585D01*
X158793Y210965D01*
G01Y208485D02*
X157873D01*
G01X154973D02*
Y211585D01*
X156391Y209363D01*
X154475D01*
G01X167212Y-335315D02*
X166745Y-335448D01*
X166395Y-335782D01*
X166162Y-336182D01*
X165987Y-336715D01*
X165929Y-337315D01*
X165987Y-337915D01*
X166162Y-338448D01*
X166395Y-338848D01*
X166745Y-339182D01*
X167212Y-339315D01*
X167679Y-339182D01*
X168029Y-338848D01*
X168262Y-338448D01*
X168437Y-337915D01*
X168495Y-337315D01*
X168437Y-336715D01*
X168262Y-336182D01*
X168029Y-335782D01*
X167679Y-335448D01*
X167212Y-335315D01*
G01X170904Y-337648D02*
X171312Y-337182D01*
X171662Y-336915D01*
X172129Y-336782D01*
X172537Y-336915D01*
X172829Y-337182D01*
X173062Y-337582D01*
X173120Y-338048D01*
X173062Y-338448D01*
X172829Y-338848D01*
X172479Y-339182D01*
X172070Y-339315D01*
X171604Y-339182D01*
X171195Y-338782D01*
X170962Y-338182D01*
X170904Y-337515D01*
X171020Y-336648D01*
X171195Y-336182D01*
X171487Y-335715D01*
X171895Y-335382D01*
X172304Y-335315D01*
X172712Y-335448D01*
X173004Y-335782D01*
G01X176054Y-337982D02*
X177570D01*
G01X181612Y-339315D02*
Y-335315D01*
X180912Y-336115D01*
G01Y-339315D02*
X182312D01*
G01X185304Y-335982D02*
X185654Y-335582D01*
X186062Y-335382D01*
X186529Y-335315D01*
X187112Y-335448D01*
X187520Y-335782D01*
X187637Y-336182D01*
X187579Y-336582D01*
X187345Y-336915D01*
X186179Y-337582D01*
X185654Y-338048D01*
X185304Y-338715D01*
X185187Y-339315D01*
X187637D01*
G01X190454Y-337982D02*
X191970D01*
G01X194904Y-335982D02*
X195254Y-335582D01*
X195662Y-335382D01*
X196129Y-335315D01*
X196712Y-335448D01*
X197120Y-335782D01*
X197237Y-336182D01*
X197179Y-336582D01*
X196945Y-336915D01*
X195779Y-337582D01*
X195254Y-338048D01*
X194904Y-338715D01*
X194787Y-339315D01*
X197237D01*
G01X201512D02*
Y-335315D01*
X199354Y-338182D01*
X202270D01*
G01X173462Y-317148D02*
X176962D01*
G01X178262D02*
X181762D01*
G01X183062D02*
X186562D01*
G01X195695Y-312148D02*
X195345Y-311948D01*
X194937Y-311815D01*
X194470D01*
X193945Y-312015D01*
X193537Y-312348D01*
X193245Y-312748D01*
X193012Y-313415D01*
X192954Y-314015D01*
X193070Y-314615D01*
X193245Y-315015D01*
X193595Y-315415D01*
X194004Y-315682D01*
X194412Y-315815D01*
X194820D01*
X195229Y-315682D01*
X195579Y-315482D01*
X195870Y-315215D01*
G01X199212Y-315815D02*
X198745Y-315748D01*
X198337Y-315482D01*
X197987Y-315082D01*
X197754Y-314615D01*
X197637Y-314082D01*
Y-313548D01*
X197754Y-313015D01*
X197987Y-312548D01*
X198337Y-312148D01*
X198745Y-311882D01*
X199212Y-311815D01*
X199679Y-311882D01*
X200087Y-312148D01*
X200437Y-312548D01*
X200670Y-313015D01*
X200787Y-313548D01*
Y-314082D01*
X200670Y-314615D01*
X200437Y-315082D01*
X200087Y-315482D01*
X199679Y-315748D01*
X199212Y-315815D01*
G01X202495D02*
Y-311815D01*
X204012Y-315148D01*
X205529Y-311815D01*
Y-315815D01*
G01X207645D02*
Y-311815D01*
X209045D01*
X209512Y-312015D01*
X209862Y-312482D01*
X209979Y-313015D01*
X209862Y-313548D01*
X209570Y-313948D01*
X209045Y-314148D01*
X207645D01*
G01X212154Y-315815D02*
X213612Y-311815D01*
X215070Y-315815D01*
G01X214545Y-314415D02*
X212679D01*
G01X217070Y-315815D02*
Y-311815D01*
X219754Y-315815D01*
Y-311815D01*
G01X223212Y-315815D02*
Y-314015D01*
X222045Y-311815D01*
G01X224379D02*
X223212Y-314015D01*
G01X234095Y-312148D02*
X233745Y-311948D01*
X233337Y-311815D01*
X232870D01*
X232345Y-312015D01*
X231937Y-312348D01*
X231645Y-312748D01*
X231412Y-313415D01*
X231354Y-314015D01*
X231470Y-314615D01*
X231645Y-315015D01*
X231995Y-315415D01*
X232404Y-315682D01*
X232812Y-315815D01*
X233220D01*
X233629Y-315682D01*
X233979Y-315482D01*
X234270Y-315215D01*
G01X237612Y-315815D02*
X237145Y-315748D01*
X236737Y-315482D01*
X236387Y-315082D01*
X236154Y-314615D01*
X236037Y-314082D01*
Y-313548D01*
X236154Y-313015D01*
X236387Y-312548D01*
X236737Y-312148D01*
X237145Y-311882D01*
X237612Y-311815D01*
X238079Y-311882D01*
X238487Y-312148D01*
X238837Y-312548D01*
X239070Y-313015D01*
X239187Y-313548D01*
Y-314082D01*
X239070Y-314615D01*
X238837Y-315082D01*
X238487Y-315482D01*
X238079Y-315748D01*
X237612Y-315815D01*
G01X241070D02*
Y-311815D01*
X243754Y-315815D01*
Y-311815D01*
G01X246104Y-315815D02*
Y-311815D01*
X248320D01*
G01X247504Y-313748D02*
X246104D01*
G01X251312Y-311815D02*
X252712D01*
G01X252012D02*
Y-315815D01*
G01X251312D02*
X252712D01*
G01X255529D02*
Y-311815D01*
X256695D01*
X257162Y-312015D01*
X257512Y-312282D01*
X257804Y-312682D01*
X258037Y-313148D01*
X258095Y-313815D01*
X258037Y-314482D01*
X257804Y-314948D01*
X257512Y-315348D01*
X257162Y-315615D01*
X256695Y-315815D01*
X255529D01*
G01X262779D02*
X260445D01*
Y-311815D01*
X262779D01*
G01X261845Y-313748D02*
X260445D01*
G01X265070Y-315815D02*
Y-311815D01*
X267754Y-315815D01*
Y-311815D01*
G01X271212D02*
Y-315815D01*
G01X269870Y-311815D02*
X272554D01*
G01X275312D02*
X276712D01*
G01X276012D02*
Y-315815D01*
G01X275312D02*
X276712D01*
G01X279354D02*
X280812Y-311815D01*
X282270Y-315815D01*
G01X281745Y-314415D02*
X279879D01*
G01X284445Y-311815D02*
Y-315815D01*
X286779D01*
G01X178167Y-300315D02*
X181457Y-294015D01*
G01X178167D02*
X181457Y-300315D01*
G01X173462Y-300648D02*
X176962D01*
G01X178262D02*
X181762D01*
G01X183062D02*
X186562D01*
G01X195695Y-295648D02*
X195345Y-295448D01*
X194937Y-295315D01*
X194470D01*
X193945Y-295515D01*
X193537Y-295848D01*
X193245Y-296248D01*
X193012Y-296915D01*
X192954Y-297515D01*
X193070Y-298115D01*
X193245Y-298515D01*
X193595Y-298915D01*
X194004Y-299182D01*
X194412Y-299315D01*
X194820D01*
X195229Y-299182D01*
X195579Y-298982D01*
X195870Y-298715D01*
G01X199212Y-299315D02*
X198745Y-299248D01*
X198337Y-298982D01*
X197987Y-298582D01*
X197754Y-298115D01*
X197637Y-297582D01*
Y-297048D01*
X197754Y-296515D01*
X197987Y-296048D01*
X198337Y-295648D01*
X198745Y-295382D01*
X199212Y-295315D01*
X199679Y-295382D01*
X200087Y-295648D01*
X200437Y-296048D01*
X200670Y-296515D01*
X200787Y-297048D01*
Y-297582D01*
X200670Y-298115D01*
X200437Y-298582D01*
X200087Y-298982D01*
X199679Y-299248D01*
X199212Y-299315D01*
G01X202495D02*
Y-295315D01*
X204012Y-298648D01*
X205529Y-295315D01*
Y-299315D01*
G01X207645D02*
Y-295315D01*
X209045D01*
X209512Y-295515D01*
X209862Y-295982D01*
X209979Y-296515D01*
X209862Y-297048D01*
X209570Y-297448D01*
X209045Y-297648D01*
X207645D01*
G01X212154Y-299315D02*
X213612Y-295315D01*
X215070Y-299315D01*
G01X214545Y-297915D02*
X212679D01*
G01X217070Y-299315D02*
Y-295315D01*
X219754Y-299315D01*
Y-295315D01*
G01X223212Y-299315D02*
Y-297515D01*
X222045Y-295315D01*
G01X224379D02*
X223212Y-297515D01*
G01X232112Y-295315D02*
X233512D01*
G01X232812D02*
Y-299315D01*
G01X232112D02*
X233512D01*
G01X236270D02*
Y-295315D01*
X238954Y-299315D01*
Y-295315D01*
G01X242412D02*
Y-299315D01*
G01X241070Y-295315D02*
X243754D01*
G01X248379Y-299315D02*
X246045D01*
Y-295315D01*
X248379D01*
G01X247445Y-297248D02*
X246045D01*
G01X250845Y-299315D02*
Y-295315D01*
X252304D01*
X252770Y-295515D01*
X253062Y-295782D01*
X253179Y-296315D01*
X253062Y-296848D01*
X252712Y-297182D01*
X252304Y-297382D01*
X250845D01*
G01X252304D02*
X253179Y-299315D01*
G01X255470D02*
Y-295315D01*
X258154Y-299315D01*
Y-295315D01*
G01X260154Y-299315D02*
X261612Y-295315D01*
X263070Y-299315D01*
G01X262545Y-297915D02*
X260679D01*
G01X265245Y-295315D02*
Y-299315D01*
X267579D01*
G01X173462Y-284648D02*
X176962D01*
G01X178262D02*
X181762D01*
G01X183062D02*
X186562D01*
G01X195695Y-279648D02*
X195345Y-279448D01*
X194937Y-279315D01*
X194470D01*
X193945Y-279515D01*
X193537Y-279848D01*
X193245Y-280248D01*
X193012Y-280915D01*
X192954Y-281515D01*
X193070Y-282115D01*
X193245Y-282515D01*
X193595Y-282915D01*
X194004Y-283182D01*
X194412Y-283315D01*
X194820D01*
X195229Y-283182D01*
X195579Y-282982D01*
X195870Y-282715D01*
G01X199212Y-283315D02*
X198745Y-283248D01*
X198337Y-282982D01*
X197987Y-282582D01*
X197754Y-282115D01*
X197637Y-281582D01*
Y-281048D01*
X197754Y-280515D01*
X197987Y-280048D01*
X198337Y-279648D01*
X198745Y-279382D01*
X199212Y-279315D01*
X199679Y-279382D01*
X200087Y-279648D01*
X200437Y-280048D01*
X200670Y-280515D01*
X200787Y-281048D01*
Y-281582D01*
X200670Y-282115D01*
X200437Y-282582D01*
X200087Y-282982D01*
X199679Y-283248D01*
X199212Y-283315D01*
G01X202495D02*
Y-279315D01*
X204012Y-282648D01*
X205529Y-279315D01*
Y-283315D01*
G01X207645D02*
Y-279315D01*
X209045D01*
X209512Y-279515D01*
X209862Y-279982D01*
X209979Y-280515D01*
X209862Y-281048D01*
X209570Y-281448D01*
X209045Y-281648D01*
X207645D01*
G01X212154Y-283315D02*
X213612Y-279315D01*
X215070Y-283315D01*
G01X214545Y-281915D02*
X212679D01*
G01X217070Y-283315D02*
Y-279315D01*
X219754Y-283315D01*
Y-279315D01*
G01X223212Y-283315D02*
Y-281515D01*
X222045Y-279315D01*
G01X224379D02*
X223212Y-281515D01*
G01X231645Y-283315D02*
Y-279315D01*
X233045D01*
X233512Y-279515D01*
X233862Y-279982D01*
X233979Y-280515D01*
X233862Y-281048D01*
X233570Y-281448D01*
X233045Y-281648D01*
X231645D01*
G01X236329Y-279315D02*
Y-282182D01*
X236562Y-282782D01*
X237029Y-283182D01*
X237612Y-283315D01*
X238195Y-283182D01*
X238662Y-282782D01*
X238895Y-282182D01*
Y-279315D01*
G01X242879Y-281182D02*
X243112Y-280982D01*
X243287Y-280648D01*
X243404Y-280182D01*
X243287Y-279782D01*
X243054Y-279515D01*
X242645Y-279315D01*
X241070D01*
Y-283315D01*
X242995D01*
X243404Y-283048D01*
X243637Y-282648D01*
X243754Y-282182D01*
X243637Y-281715D01*
X243287Y-281315D01*
X242879Y-281182D01*
X241070D01*
G01X246045Y-279315D02*
Y-283315D01*
X248379D01*
G01X251312Y-279315D02*
X252712D01*
G01X252012D02*
Y-283315D01*
G01X251312D02*
X252712D01*
G01X258095Y-279648D02*
X257745Y-279448D01*
X257337Y-279315D01*
X256870D01*
X256345Y-279515D01*
X255937Y-279848D01*
X255645Y-280248D01*
X255412Y-280915D01*
X255354Y-281515D01*
X255470Y-282115D01*
X255645Y-282515D01*
X255995Y-282915D01*
X256404Y-283182D01*
X256812Y-283315D01*
X257220D01*
X257629Y-283182D01*
X257979Y-282982D01*
X258270Y-282715D01*
G01X184875Y75134D02*
X184722Y75289D01*
X184607Y75548D01*
X184530Y75909D01*
X184607Y76219D01*
X184760Y76426D01*
X185029Y76581D01*
X186064D01*
Y73481D01*
X184799D01*
X184530Y73688D01*
X184377Y73998D01*
X184300Y74359D01*
X184377Y74721D01*
X184607Y75031D01*
X184875Y75134D01*
X186064D01*
G01X175520Y106137D02*
X175210Y106329D01*
X175003Y106559D01*
X174900Y106827D01*
X175003Y107134D01*
X175210Y107364D01*
X175520Y107594D01*
X175933Y107671D01*
X178000D01*
G01X174900Y110264D02*
X178000D01*
X175778Y108846D01*
Y110762D01*
G01X175520Y111861D02*
X175158Y112091D01*
X174952Y112397D01*
X174900Y112742D01*
X174952Y113049D01*
X175210Y113356D01*
X175520Y113547D01*
X175830Y113586D01*
X176192Y113509D01*
X176450Y113241D01*
X176553Y112972D01*
Y112627D01*
G01Y112972D02*
X176708Y113202D01*
X176967Y113394D01*
X177277Y113471D01*
X177587Y113394D01*
X177845Y113202D01*
X178000Y112857D01*
X177948Y112512D01*
X177742Y112167D01*
G01X176900Y98304D02*
Y101404D01*
X177360Y100784D01*
G01Y98304D02*
X176440D01*
G01X181035Y120331D02*
X384443D01*
Y99443D01*
X181035D01*
Y120331D01*
G01X182544Y85547D02*
X182314Y85857D01*
X182046Y86012D01*
X181739Y86064D01*
X181356Y85961D01*
X181088Y85702D01*
X181011Y85392D01*
X181049Y85082D01*
X181203Y84824D01*
X181969Y84307D01*
X182314Y83946D01*
X182544Y83429D01*
X182621Y82964D01*
X181011D01*
G01X178883D02*
Y86064D01*
X179343Y85444D01*
G01Y82964D02*
X178423D01*
G01X176475Y80050D02*
X175517Y83150D01*
X174559Y80050D01*
G01X174904Y81135D02*
X176130D01*
G01X178328Y122387D02*
X178098Y122697D01*
X177830Y122852D01*
X177523Y122904D01*
X177140Y122801D01*
X176872Y122542D01*
X176795Y122232D01*
X176833Y121922D01*
X176987Y121664D01*
X177753Y121147D01*
X178098Y120786D01*
X178328Y120269D01*
X178405Y119804D01*
X176795D01*
G01X189149Y131827D02*
X189379Y131982D01*
X189647Y132085D01*
X189954D01*
X190299Y131930D01*
X190567Y131672D01*
X190759Y131362D01*
X190912Y130845D01*
X190950Y130380D01*
X190874Y129915D01*
X190759Y129605D01*
X190529Y129295D01*
X190260Y129088D01*
X189992Y128985D01*
X189724D01*
X189455Y129088D01*
X189225Y129243D01*
X189034Y129450D01*
G01X187092Y128985D02*
Y132085D01*
X187552Y131465D01*
G01Y128985D02*
X186632D01*
G01X185035Y129605D02*
X184805Y129243D01*
X184499Y129037D01*
X184154Y128985D01*
X183847Y129037D01*
X183540Y129295D01*
X183349Y129605D01*
X183310Y129915D01*
X183387Y130277D01*
X183655Y130535D01*
X183924Y130638D01*
X184269D01*
G01X183924D02*
X183694Y130793D01*
X183502Y131052D01*
X183425Y131362D01*
X183502Y131672D01*
X183694Y131930D01*
X184039Y132085D01*
X184384Y132033D01*
X184729Y131827D01*
G01X180832Y128985D02*
Y132085D01*
X182250Y129863D01*
X180334D01*
G01X185804Y124635D02*
X186604D01*
G01Y128035D02*
X185804D01*
G01X192433Y207685D02*
X192165Y207737D01*
X191858Y207892D01*
X191666Y208150D01*
X191590Y208512D01*
X191666Y208873D01*
X191896Y209183D01*
X192241Y209338D01*
X192625D01*
X192855Y209442D01*
X193046Y209700D01*
X193123Y210062D01*
X193008Y210423D01*
X192740Y210682D01*
X192433Y210785D01*
X192126Y210682D01*
X191858Y210423D01*
X191743Y210062D01*
X191820Y209700D01*
X192011Y209442D01*
X192241Y209338D01*
X192625D01*
X192970Y209183D01*
X193200Y208873D01*
X193276Y208512D01*
X193200Y208150D01*
X193008Y207892D01*
X192701Y207737D01*
X192433Y207685D01*
G01X213870Y-331315D02*
Y-327315D01*
X216554Y-331315D01*
Y-327315D01*
G01X218729D02*
Y-330182D01*
X218962Y-330782D01*
X219429Y-331182D01*
X220012Y-331315D01*
X220595Y-331182D01*
X221062Y-330782D01*
X221295Y-330182D01*
Y-327315D01*
G01X223295Y-331315D02*
Y-327315D01*
X224812Y-330648D01*
X226329Y-327315D01*
Y-331315D01*
G01X230079Y-329182D02*
X230312Y-328982D01*
X230487Y-328648D01*
X230604Y-328182D01*
X230487Y-327782D01*
X230254Y-327515D01*
X229845Y-327315D01*
X228270D01*
Y-331315D01*
X230195D01*
X230604Y-331048D01*
X230837Y-330648D01*
X230954Y-330182D01*
X230837Y-329715D01*
X230487Y-329315D01*
X230079Y-329182D01*
X228270D01*
G01X235579Y-331315D02*
X233245D01*
Y-327315D01*
X235579D01*
G01X234645Y-329248D02*
X233245D01*
G01X238045Y-331315D02*
Y-327315D01*
X239504D01*
X239970Y-327515D01*
X240262Y-327782D01*
X240379Y-328315D01*
X240262Y-328848D01*
X239912Y-329182D01*
X239504Y-329382D01*
X238045D01*
G01X239504D02*
X240379Y-331315D01*
G01X206600Y46454D02*
X209700D01*
X209080Y45994D01*
G01X206600D02*
Y46914D01*
G01X201605Y47483D02*
X201295Y47675D01*
X201088Y47905D01*
X200985Y48173D01*
X201088Y48480D01*
X201295Y48710D01*
X201605Y48940D01*
X202018Y49017D01*
X204085D01*
G01X200985Y51610D02*
X204085D01*
X201863Y50192D01*
Y52108D01*
G01X200985Y53973D02*
X201657Y54050D01*
X202225Y54165D01*
X202742Y54318D01*
X203310Y54510D01*
X204085Y54817D01*
Y53283D01*
G01X224402Y67605D02*
X224210Y67295D01*
X223980Y67088D01*
X223712Y66985D01*
X223405Y67088D01*
X223175Y67295D01*
X222945Y67605D01*
X222868Y68018D01*
Y70085D01*
G01X221578Y67605D02*
X221348Y67243D01*
X221042Y67037D01*
X220697Y66985D01*
X220390Y67037D01*
X220083Y67295D01*
X219892Y67605D01*
X219853Y67915D01*
X219930Y68277D01*
X220198Y68535D01*
X220467Y68638D01*
X220812D01*
G01X220467D02*
X220237Y68793D01*
X220045Y69052D01*
X219968Y69362D01*
X220045Y69672D01*
X220237Y69930D01*
X220582Y70085D01*
X220927Y70033D01*
X221272Y69827D01*
G01X207233Y201685D02*
Y204785D01*
X207693Y204165D01*
G01Y201685D02*
X206773D01*
G01X248812Y-338515D02*
Y-332215D01*
X247872Y-333475D01*
G01Y-338515D02*
X249752D01*
G01X254955D02*
X255112Y-337150D01*
X255347Y-335995D01*
X255660Y-334945D01*
X256052Y-333790D01*
X256679Y-332215D01*
X253545D01*
G01X261412D02*
X260785Y-332425D01*
X260315Y-332950D01*
X260002Y-333580D01*
X259767Y-334420D01*
X259689Y-335365D01*
X259767Y-336310D01*
X260002Y-337150D01*
X260315Y-337780D01*
X260785Y-338305D01*
X261412Y-338515D01*
X262039Y-338305D01*
X262509Y-337780D01*
X262822Y-337150D01*
X263057Y-336310D01*
X263135Y-335365D01*
X263057Y-334420D01*
X262822Y-333580D01*
X262509Y-332950D01*
X262039Y-332425D01*
X261412Y-332215D01*
G01X266694Y-336415D02*
X268730D01*
G01X274012Y-338515D02*
X274560Y-338410D01*
X275187Y-338095D01*
X275579Y-337570D01*
X275735Y-336835D01*
X275579Y-336100D01*
X275109Y-335470D01*
X274404Y-335155D01*
X273620D01*
X273150Y-334945D01*
X272759Y-334420D01*
X272602Y-333685D01*
X272837Y-332950D01*
X273385Y-332425D01*
X274012Y-332215D01*
X274639Y-332425D01*
X275187Y-332950D01*
X275422Y-333685D01*
X275265Y-334420D01*
X274874Y-334945D01*
X274404Y-335155D01*
X273620D01*
X272915Y-335470D01*
X272445Y-336100D01*
X272289Y-336835D01*
X272445Y-337570D01*
X272837Y-338095D01*
X273464Y-338410D01*
X274012Y-338515D01*
G01X278980Y-337780D02*
X279529Y-338305D01*
X280155Y-338515D01*
X280782Y-338305D01*
X281330Y-337675D01*
X281722Y-336730D01*
X281879Y-335785D01*
Y-334630D01*
X281722Y-333685D01*
X281330Y-332845D01*
X280860Y-332425D01*
X280312Y-332215D01*
X279685Y-332425D01*
X279215Y-332845D01*
X278902Y-333475D01*
X278745Y-334315D01*
X278902Y-335050D01*
X279294Y-335785D01*
X279764Y-336205D01*
X280312Y-336310D01*
X280939Y-336100D01*
X281409Y-335575D01*
X281879Y-334630D01*
G01X286612Y-338515D02*
Y-332215D01*
X285672Y-333475D01*
G01Y-338515D02*
X287552D01*
G01X291424Y-333265D02*
X291894Y-332635D01*
X292442Y-332320D01*
X293069Y-332215D01*
X293852Y-332425D01*
X294400Y-332950D01*
X294557Y-333580D01*
X294479Y-334210D01*
X294165Y-334735D01*
X292599Y-335785D01*
X291894Y-336520D01*
X291424Y-337570D01*
X291267Y-338515D01*
X294557D01*
G01X297880Y-337780D02*
X298429Y-338305D01*
X299055Y-338515D01*
X299682Y-338305D01*
X300230Y-337675D01*
X300622Y-336730D01*
X300779Y-335785D01*
Y-334630D01*
X300622Y-333685D01*
X300230Y-332845D01*
X299760Y-332425D01*
X299212Y-332215D01*
X298585Y-332425D01*
X298115Y-332845D01*
X297802Y-333475D01*
X297645Y-334315D01*
X297802Y-335050D01*
X298194Y-335785D01*
X298664Y-336205D01*
X299212Y-336310D01*
X299839Y-336100D01*
X300309Y-335575D01*
X300779Y-334630D01*
G01X341745Y-338515D02*
Y-332215D01*
X343704D01*
X344330Y-332530D01*
X344722Y-332950D01*
X344879Y-333790D01*
X344722Y-334630D01*
X344252Y-335155D01*
X343704Y-335470D01*
X341745D01*
G01X343704D02*
X344879Y-338515D01*
G01X351179D02*
X348045D01*
Y-332215D01*
X351179D01*
G01X349925Y-335260D02*
X348045D01*
G01X353954Y-332215D02*
X355912Y-338515D01*
X357870Y-332215D01*
G01X370235Y-332740D02*
X369765Y-332425D01*
X369217Y-332215D01*
X368590D01*
X367885Y-332530D01*
X367337Y-333055D01*
X366945Y-333685D01*
X366632Y-334735D01*
X366554Y-335680D01*
X366710Y-336625D01*
X366945Y-337255D01*
X367415Y-337885D01*
X367964Y-338305D01*
X368512Y-338515D01*
X369060D01*
X369609Y-338305D01*
X370079Y-337990D01*
X370470Y-337570D01*
G01X239995Y-261415D02*
Y-255115D01*
X241875D01*
X242502Y-255430D01*
X242972Y-256165D01*
X243129Y-257005D01*
X242972Y-257845D01*
X242580Y-258475D01*
X241875Y-258790D01*
X239995D01*
G01X246060Y-261415D02*
Y-255115D01*
X249664Y-261415D01*
Y-255115D01*
G01X255729Y-261415D02*
X252595D01*
Y-255115D01*
X255729D01*
G01X254475Y-258160D02*
X252595D01*
G01X258504Y-255115D02*
X260462Y-261415D01*
X262420Y-255115D01*
G01X266605Y-261415D02*
X266762Y-260050D01*
X266997Y-258895D01*
X267310Y-257845D01*
X267702Y-256690D01*
X268329Y-255115D01*
X265195D01*
G01X271574Y-256165D02*
X272044Y-255535D01*
X272592Y-255220D01*
X273219Y-255115D01*
X274002Y-255325D01*
X274550Y-255850D01*
X274707Y-256480D01*
X274629Y-257110D01*
X274315Y-257635D01*
X272749Y-258685D01*
X272044Y-259420D01*
X271574Y-260470D01*
X271417Y-261415D01*
X274707D01*
G01X277874Y-256165D02*
X278344Y-255535D01*
X278892Y-255220D01*
X279519Y-255115D01*
X280302Y-255325D01*
X280850Y-255850D01*
X281007Y-256480D01*
X280929Y-257110D01*
X280615Y-257635D01*
X279049Y-258685D01*
X278344Y-259420D01*
X277874Y-260470D01*
X277717Y-261415D01*
X281007D01*
G01X285662Y-255115D02*
X285035Y-255325D01*
X284565Y-255850D01*
X284252Y-256480D01*
X284017Y-257320D01*
X283939Y-258265D01*
X284017Y-259210D01*
X284252Y-260050D01*
X284565Y-260680D01*
X285035Y-261205D01*
X285662Y-261415D01*
X286289Y-261205D01*
X286759Y-260680D01*
X287072Y-260050D01*
X287307Y-259210D01*
X287385Y-258265D01*
X287307Y-257320D01*
X287072Y-256480D01*
X286759Y-255850D01*
X286289Y-255325D01*
X285662Y-255115D01*
G01X292589Y-258055D02*
X292902Y-257740D01*
X293137Y-257215D01*
X293294Y-256480D01*
X293137Y-255850D01*
X292824Y-255430D01*
X292275Y-255115D01*
X290160D01*
Y-261415D01*
X292745D01*
X293294Y-260995D01*
X293607Y-260365D01*
X293764Y-259630D01*
X293607Y-258895D01*
X293137Y-258265D01*
X292589Y-258055D01*
X290160D01*
G01X296695Y-261415D02*
Y-255115D01*
X298575D01*
X299202Y-255430D01*
X299672Y-256165D01*
X299829Y-257005D01*
X299672Y-257845D01*
X299280Y-258475D01*
X298575Y-258790D01*
X296695D01*
G01X304562Y-261415D02*
Y-255115D01*
X303622Y-256375D01*
G01Y-261415D02*
X305502D01*
G01X250507Y62542D02*
X250737Y62697D01*
X251005Y62800D01*
X251312D01*
X251657Y62645D01*
X251925Y62387D01*
X252117Y62077D01*
X252270Y61560D01*
X252308Y61095D01*
X252232Y60630D01*
X252117Y60320D01*
X251887Y60010D01*
X251618Y59803D01*
X251350Y59700D01*
X251082D01*
X250813Y59803D01*
X250583Y59958D01*
X250392Y60165D01*
G01X248450Y59700D02*
Y62800D01*
X248910Y62180D01*
G01Y59700D02*
X247990D01*
G01X245090D02*
Y62800D01*
X246508Y60578D01*
X244592D01*
G01X250207Y55842D02*
X250437Y55997D01*
X250705Y56100D01*
X251012D01*
X251357Y55945D01*
X251625Y55687D01*
X251817Y55377D01*
X251970Y54860D01*
X252008Y54395D01*
X251932Y53930D01*
X251817Y53620D01*
X251587Y53310D01*
X251318Y53103D01*
X251050Y53000D01*
X250782D01*
X250513Y53103D01*
X250283Y53258D01*
X250092Y53465D01*
G01X248993Y53620D02*
X248763Y53258D01*
X248457Y53052D01*
X248112Y53000D01*
X247805Y53052D01*
X247498Y53310D01*
X247307Y53620D01*
X247268Y53930D01*
X247345Y54292D01*
X247613Y54550D01*
X247882Y54653D01*
X248227D01*
G01X247882D02*
X247652Y54808D01*
X247460Y55067D01*
X247383Y55377D01*
X247460Y55687D01*
X247652Y55945D01*
X247997Y56100D01*
X248342Y56048D01*
X248687Y55842D01*
G01X245250Y53000D02*
X244982Y53052D01*
X244675Y53207D01*
X244483Y53465D01*
X244407Y53827D01*
X244483Y54188D01*
X244713Y54498D01*
X245058Y54653D01*
X245442D01*
X245672Y54757D01*
X245863Y55015D01*
X245940Y55377D01*
X245825Y55738D01*
X245557Y55997D01*
X245250Y56100D01*
X244943Y55997D01*
X244675Y55738D01*
X244560Y55377D01*
X244637Y55015D01*
X244828Y54757D01*
X245058Y54653D01*
X245442D01*
X245787Y54498D01*
X246017Y54188D01*
X246093Y53827D01*
X246017Y53465D01*
X245825Y53207D01*
X245518Y53052D01*
X245250Y53000D01*
G01X228785Y59985D02*
Y63085D01*
X229245Y62465D01*
G01Y59985D02*
X228325D01*
G01X252000Y208705D02*
X251808Y208395D01*
X251578Y208188D01*
X251310Y208085D01*
X251003Y208188D01*
X250773Y208395D01*
X250543Y208705D01*
X250466Y209118D01*
Y211185D01*
G01X248333Y208085D02*
Y211185D01*
X248793Y210565D01*
G01Y208085D02*
X247873D01*
G01X246276Y208550D02*
X246046Y208292D01*
X245778Y208137D01*
X245433Y208085D01*
X245088Y208188D01*
X244820Y208395D01*
X244628Y208757D01*
X244590Y209170D01*
X244666Y209583D01*
X244858Y209842D01*
X245126Y210048D01*
X245395Y210100D01*
X245663Y210048D01*
X246008Y209842D01*
X245893Y211185D01*
X244858D01*
G01X266390Y74100D02*
Y77200D01*
X267808Y74978D01*
X265892D01*
G01X266683Y56985D02*
Y51985D01*
X265683D01*
Y56985D01*
X266683D01*
G01Y62985D02*
Y57985D01*
X265683D01*
Y62985D01*
X266683D01*
G01X273693Y86820D02*
X273463Y86458D01*
X273157Y86252D01*
X272812Y86200D01*
X272505Y86252D01*
X272198Y86510D01*
X272007Y86820D01*
X271968Y87130D01*
X272045Y87492D01*
X272313Y87750D01*
X272582Y87853D01*
X272927D01*
G01X272582D02*
X272352Y88008D01*
X272160Y88267D01*
X272083Y88577D01*
X272160Y88887D01*
X272352Y89145D01*
X272697Y89300D01*
X273042Y89248D01*
X273387Y89042D01*
G01X283250Y86600D02*
Y89700D01*
X283710Y89080D01*
G01Y86600D02*
X282790D01*
G01X270700Y95000D02*
Y91900D01*
G01X271582Y95000D02*
X269818D01*
G01X268567Y91900D02*
Y95000D01*
X267647D01*
X267340Y94845D01*
X267110Y94483D01*
X267033Y94070D01*
X267110Y93657D01*
X267302Y93347D01*
X267647Y93192D01*
X268567D01*
G01X264977Y91900D02*
X264900Y92572D01*
X264785Y93140D01*
X264632Y93657D01*
X264440Y94225D01*
X264133Y95000D01*
X265667D01*
G01X298500Y52583D02*
X301600D01*
Y53542D01*
X301445Y53848D01*
X301238Y54040D01*
X300825Y54117D01*
X300412Y54040D01*
X300153Y53810D01*
X299998Y53542D01*
Y52583D01*
G01Y53542D02*
X298500Y54117D01*
G01X301083Y55522D02*
X301393Y55752D01*
X301548Y56020D01*
X301600Y56327D01*
X301497Y56710D01*
X301238Y56978D01*
X300928Y57055D01*
X300618Y57017D01*
X300360Y56863D01*
X299843Y56097D01*
X299482Y55752D01*
X298965Y55522D01*
X298500Y55445D01*
Y57055D01*
G01Y59150D02*
X301600D01*
X300980Y58690D01*
G01X298500D02*
Y59610D01*
G01X289378Y76383D02*
X289148Y76693D01*
X288880Y76848D01*
X288573Y76900D01*
X288190Y76797D01*
X287922Y76538D01*
X287845Y76228D01*
X287883Y75918D01*
X288037Y75660D01*
X288803Y75143D01*
X289148Y74782D01*
X289378Y74265D01*
X289455Y73800D01*
X287845D01*
G01X293117Y82820D02*
X292925Y82510D01*
X292695Y82303D01*
X292427Y82200D01*
X292120Y82303D01*
X291890Y82510D01*
X291660Y82820D01*
X291583Y83233D01*
Y85300D01*
G01X290293Y82665D02*
X290063Y82407D01*
X289795Y82252D01*
X289450Y82200D01*
X289105Y82303D01*
X288837Y82510D01*
X288645Y82872D01*
X288607Y83285D01*
X288683Y83698D01*
X288875Y83957D01*
X289143Y84163D01*
X289412Y84215D01*
X289680Y84163D01*
X290025Y83957D01*
X289910Y85300D01*
X288875D01*
G01X307188Y170208D02*
Y167108D01*
G01X308070Y170208D02*
X306306D01*
G01X305055Y167108D02*
Y170208D01*
X304135D01*
X303828Y170053D01*
X303598Y169691D01*
X303521Y169278D01*
X303598Y168865D01*
X303790Y168555D01*
X304135Y168400D01*
X305055D01*
G01X301465Y167108D02*
X301388Y167780D01*
X301273Y168348D01*
X301120Y168865D01*
X300928Y169433D01*
X300621Y170208D01*
X302155D01*
G01X298488Y167108D02*
X298220Y167160D01*
X297913Y167315D01*
X297721Y167573D01*
X297645Y167935D01*
X297721Y168296D01*
X297951Y168606D01*
X298296Y168761D01*
X298680D01*
X298910Y168865D01*
X299101Y169123D01*
X299178Y169485D01*
X299063Y169846D01*
X298795Y170105D01*
X298488Y170208D01*
X298181Y170105D01*
X297913Y169846D01*
X297798Y169485D01*
X297875Y169123D01*
X298066Y168865D01*
X298296Y168761D01*
X298680D01*
X299025Y168606D01*
X299255Y168296D01*
X299331Y167935D01*
X299255Y167573D01*
X299063Y167315D01*
X298756Y167160D01*
X298488Y167108D01*
G01X288033Y201685D02*
X287765Y201737D01*
X287458Y201892D01*
X287266Y202150D01*
X287190Y202512D01*
X287266Y202873D01*
X287496Y203183D01*
X287841Y203338D01*
X288225D01*
X288455Y203442D01*
X288646Y203700D01*
X288723Y204062D01*
X288608Y204423D01*
X288340Y204682D01*
X288033Y204785D01*
X287726Y204682D01*
X287458Y204423D01*
X287343Y204062D01*
X287420Y203700D01*
X287611Y203442D01*
X287841Y203338D01*
X288225D01*
X288570Y203183D01*
X288800Y202873D01*
X288876Y202512D01*
X288800Y202150D01*
X288608Y201892D01*
X288301Y201737D01*
X288033Y201685D01*
G01X339071Y5985D02*
Y9085D01*
X339531Y8465D01*
G01Y5985D02*
X338611D01*
G01X329120Y-917D02*
X328810Y-725D01*
X328603Y-495D01*
X328500Y-227D01*
X328603Y80D01*
X328810Y310D01*
X329120Y540D01*
X329533Y617D01*
X331600D01*
G01X328862Y2098D02*
X328603Y2367D01*
X328500Y2673D01*
X328603Y2980D01*
X328913Y3248D01*
X329378Y3440D01*
X329843Y3517D01*
X330412D01*
X330877Y3440D01*
X331290Y3248D01*
X331497Y3018D01*
X331600Y2750D01*
X331497Y2443D01*
X331290Y2213D01*
X330980Y2060D01*
X330567Y1983D01*
X330205Y2060D01*
X329843Y2252D01*
X329637Y2482D01*
X329585Y2750D01*
X329688Y3057D01*
X329947Y3287D01*
X330412Y3517D01*
G01X340425Y35693D02*
X340580Y35463D01*
X340683Y35195D01*
Y34888D01*
X340528Y34543D01*
X340270Y34275D01*
X339960Y34083D01*
X339443Y33930D01*
X338978Y33892D01*
X338513Y33968D01*
X338203Y34083D01*
X337893Y34313D01*
X337686Y34582D01*
X337583Y34850D01*
Y35118D01*
X337686Y35387D01*
X337841Y35617D01*
X338048Y35808D01*
G01X337945Y37098D02*
X337686Y37367D01*
X337583Y37673D01*
X337686Y37980D01*
X337996Y38248D01*
X338461Y38440D01*
X338926Y38517D01*
X339495D01*
X339960Y38440D01*
X340373Y38248D01*
X340580Y38018D01*
X340683Y37750D01*
X340580Y37443D01*
X340373Y37213D01*
X340063Y37060D01*
X339650Y36983D01*
X339288Y37060D01*
X338926Y37252D01*
X338720Y37482D01*
X338668Y37750D01*
X338771Y38057D01*
X339030Y38287D01*
X339495Y38517D01*
G01X337683Y45200D02*
X342683D01*
Y44200D01*
X337683D01*
Y45200D01*
G01X337342Y72393D02*
X337497Y72163D01*
X337600Y71895D01*
Y71588D01*
X337445Y71243D01*
X337187Y70975D01*
X336877Y70783D01*
X336360Y70630D01*
X335895Y70592D01*
X335430Y70668D01*
X335120Y70783D01*
X334810Y71013D01*
X334603Y71282D01*
X334500Y71550D01*
Y71818D01*
X334603Y72087D01*
X334758Y72317D01*
X334965Y72508D01*
G01X335120Y73607D02*
X334758Y73837D01*
X334552Y74143D01*
X334500Y74488D01*
X334552Y74795D01*
X334810Y75102D01*
X335120Y75293D01*
X335430Y75332D01*
X335792Y75255D01*
X336050Y74987D01*
X336153Y74718D01*
Y74373D01*
G01Y74718D02*
X336308Y74948D01*
X336567Y75140D01*
X336877Y75217D01*
X337187Y75140D01*
X337445Y74948D01*
X337600Y74603D01*
X337548Y74258D01*
X337342Y73913D01*
G01X337600Y77350D02*
X337497Y77043D01*
X337238Y76813D01*
X336928Y76660D01*
X336515Y76545D01*
X336050Y76507D01*
X335585Y76545D01*
X335172Y76660D01*
X334862Y76813D01*
X334603Y77043D01*
X334500Y77350D01*
X334603Y77657D01*
X334862Y77887D01*
X335172Y78040D01*
X335585Y78155D01*
X336050Y78193D01*
X336515Y78155D01*
X336928Y78040D01*
X337238Y77887D01*
X337497Y77657D01*
X337600Y77350D01*
G01X338883Y74285D02*
X343883D01*
Y73285D01*
X338883D01*
Y74285D01*
G01X336225Y56693D02*
X336380Y56463D01*
X336483Y56195D01*
Y55888D01*
X336328Y55543D01*
X336070Y55275D01*
X335760Y55083D01*
X335243Y54930D01*
X334778Y54892D01*
X334313Y54968D01*
X334003Y55083D01*
X333693Y55313D01*
X333486Y55582D01*
X333383Y55850D01*
Y56118D01*
X333486Y56387D01*
X333641Y56617D01*
X333848Y56808D01*
G01X333383Y58750D02*
X336483D01*
X335863Y58290D01*
G01X333383D02*
Y59210D01*
G01X337983Y57600D02*
Y56800D01*
G01X337542Y89193D02*
X337697Y88963D01*
X337800Y88695D01*
Y88388D01*
X337645Y88043D01*
X337387Y87775D01*
X337077Y87583D01*
X336560Y87430D01*
X336095Y87392D01*
X335630Y87468D01*
X335320Y87583D01*
X335010Y87813D01*
X334803Y88082D01*
X334700Y88350D01*
Y88618D01*
X334803Y88887D01*
X334958Y89117D01*
X335165Y89308D01*
G01X337283Y90522D02*
X337593Y90752D01*
X337748Y91020D01*
X337800Y91327D01*
X337697Y91710D01*
X337438Y91978D01*
X337128Y92055D01*
X336818Y92017D01*
X336560Y91863D01*
X336043Y91097D01*
X335682Y90752D01*
X335165Y90522D01*
X334700Y90445D01*
Y92055D01*
G01X339283Y89900D02*
Y89100D01*
G01X318850Y160400D02*
Y163500D01*
X319310Y162880D01*
G01Y160400D02*
X318390D01*
G01X341859Y175493D02*
X342014Y175263D01*
X342117Y174995D01*
Y174688D01*
X341962Y174343D01*
X341704Y174075D01*
X341394Y173883D01*
X340877Y173730D01*
X340412Y173692D01*
X339947Y173768D01*
X339637Y173883D01*
X339327Y174113D01*
X339120Y174382D01*
X339017Y174650D01*
Y174918D01*
X339120Y175187D01*
X339275Y175417D01*
X339482Y175608D01*
G01X339017Y177550D02*
X342117D01*
X341497Y177090D01*
G01X339017D02*
Y178010D01*
G01X340309Y179722D02*
X340670Y179990D01*
X340877Y180220D01*
X340980Y180527D01*
X340877Y180795D01*
X340670Y180987D01*
X340360Y181140D01*
X339999Y181178D01*
X339689Y181140D01*
X339379Y180987D01*
X339120Y180757D01*
X339017Y180488D01*
X339120Y180182D01*
X339430Y179913D01*
X339895Y179760D01*
X340412Y179722D01*
X341084Y179798D01*
X341445Y179913D01*
X341807Y180105D01*
X342065Y180373D01*
X342117Y180642D01*
X342014Y180910D01*
X341755Y181102D01*
G01X339482Y182507D02*
X339224Y182737D01*
X339069Y183005D01*
X339017Y183350D01*
X339120Y183695D01*
X339327Y183963D01*
X339689Y184155D01*
X340102Y184193D01*
X340515Y184117D01*
X340774Y183925D01*
X340980Y183657D01*
X341032Y183388D01*
X340980Y183120D01*
X340774Y182775D01*
X342117Y182890D01*
Y183925D01*
G01X326382Y175193D02*
X326537Y174963D01*
X326640Y174695D01*
Y174388D01*
X326485Y174043D01*
X326227Y173775D01*
X325917Y173583D01*
X325400Y173430D01*
X324935Y173392D01*
X324470Y173468D01*
X324160Y173583D01*
X323850Y173813D01*
X323643Y174082D01*
X323540Y174350D01*
Y174618D01*
X323643Y174887D01*
X323798Y175117D01*
X324005Y175308D01*
G01X323540Y177250D02*
X326640D01*
X326020Y176790D01*
G01X323540D02*
Y177710D01*
G01X324832Y179422D02*
X325193Y179690D01*
X325400Y179920D01*
X325503Y180227D01*
X325400Y180495D01*
X325193Y180687D01*
X324883Y180840D01*
X324522Y180878D01*
X324212Y180840D01*
X323902Y180687D01*
X323643Y180457D01*
X323540Y180188D01*
X323643Y179882D01*
X323953Y179613D01*
X324418Y179460D01*
X324935Y179422D01*
X325607Y179498D01*
X325968Y179613D01*
X326330Y179805D01*
X326588Y180073D01*
X326640Y180342D01*
X326537Y180610D01*
X326278Y180802D01*
G01X323540Y183510D02*
X326640D01*
X324418Y182092D01*
Y184008D01*
G01X334583Y181400D02*
Y180600D01*
G01X337983D02*
Y181400D01*
G01X328100Y181900D02*
Y181100D01*
G01X331500D02*
Y181900D01*
G01X357007Y35542D02*
X357237Y35697D01*
X357505Y35800D01*
X357812D01*
X358157Y35645D01*
X358425Y35387D01*
X358617Y35077D01*
X358770Y34560D01*
X358808Y34095D01*
X358732Y33630D01*
X358617Y33320D01*
X358387Y33010D01*
X358118Y32803D01*
X357850Y32700D01*
X357582D01*
X357313Y32803D01*
X357083Y32958D01*
X356892Y33165D01*
G01X355678Y35283D02*
X355448Y35593D01*
X355180Y35748D01*
X354873Y35800D01*
X354490Y35697D01*
X354222Y35438D01*
X354145Y35128D01*
X354183Y34818D01*
X354337Y34560D01*
X355103Y34043D01*
X355448Y33682D01*
X355678Y33165D01*
X355755Y32700D01*
X354145D01*
G01X352702Y33062D02*
X352433Y32803D01*
X352127Y32700D01*
X351820Y32803D01*
X351552Y33113D01*
X351360Y33578D01*
X351283Y34043D01*
Y34612D01*
X351360Y35077D01*
X351552Y35490D01*
X351782Y35697D01*
X352050Y35800D01*
X352357Y35697D01*
X352587Y35490D01*
X352740Y35180D01*
X352817Y34767D01*
X352740Y34405D01*
X352548Y34043D01*
X352318Y33837D01*
X352050Y33785D01*
X351743Y33888D01*
X351513Y34147D01*
X351283Y34612D01*
G01X354300Y36400D02*
X355100D01*
G01Y39800D02*
X354300D01*
G01X347842Y32493D02*
X347997Y32263D01*
X348100Y31995D01*
Y31688D01*
X347945Y31343D01*
X347687Y31075D01*
X347377Y30883D01*
X346860Y30730D01*
X346395Y30692D01*
X345930Y30768D01*
X345620Y30883D01*
X345310Y31113D01*
X345103Y31382D01*
X345000Y31650D01*
Y31918D01*
X345103Y32187D01*
X345258Y32417D01*
X345465Y32608D01*
G01X345620Y33707D02*
X345258Y33937D01*
X345052Y34243D01*
X345000Y34588D01*
X345052Y34895D01*
X345310Y35202D01*
X345620Y35393D01*
X345930Y35432D01*
X346292Y35355D01*
X346550Y35087D01*
X346653Y34818D01*
Y34473D01*
G01Y34818D02*
X346808Y35048D01*
X347067Y35240D01*
X347377Y35317D01*
X347687Y35240D01*
X347945Y35048D01*
X348100Y34703D01*
X348048Y34358D01*
X347842Y34013D01*
G01X345000Y37910D02*
X348100D01*
X345878Y36492D01*
Y38408D01*
G01X344200Y45200D02*
X349200D01*
Y44200D01*
X344200D01*
Y45200D01*
G01X365107Y68042D02*
X365337Y68197D01*
X365605Y68300D01*
X365912D01*
X366257Y68145D01*
X366525Y67887D01*
X366717Y67577D01*
X366870Y67060D01*
X366908Y66595D01*
X366832Y66130D01*
X366717Y65820D01*
X366487Y65510D01*
X366218Y65303D01*
X365950Y65200D01*
X365682D01*
X365413Y65303D01*
X365183Y65458D01*
X364992Y65665D01*
G01X363893Y65820D02*
X363663Y65458D01*
X363357Y65252D01*
X363012Y65200D01*
X362705Y65252D01*
X362398Y65510D01*
X362207Y65820D01*
X362168Y66130D01*
X362245Y66492D01*
X362513Y66750D01*
X362782Y66853D01*
X363127D01*
G01X362782D02*
X362552Y67008D01*
X362360Y67267D01*
X362283Y67577D01*
X362360Y67887D01*
X362552Y68145D01*
X362897Y68300D01*
X363242Y68248D01*
X363587Y68042D01*
G01X360227Y65200D02*
X360150Y65872D01*
X360035Y66440D01*
X359882Y66957D01*
X359690Y67525D01*
X359383Y68300D01*
X360917D01*
G01X353950Y64750D02*
X354750D01*
G01Y68150D02*
X353950D01*
G01X353942Y75293D02*
X354097Y75063D01*
X354200Y74795D01*
Y74488D01*
X354045Y74143D01*
X353787Y73875D01*
X353477Y73683D01*
X352960Y73530D01*
X352495Y73492D01*
X352030Y73568D01*
X351720Y73683D01*
X351410Y73913D01*
X351203Y74182D01*
X351100Y74450D01*
Y74718D01*
X351203Y74987D01*
X351358Y75217D01*
X351565Y75408D01*
G01X353683Y76622D02*
X353993Y76852D01*
X354148Y77120D01*
X354200Y77427D01*
X354097Y77810D01*
X353838Y78078D01*
X353528Y78155D01*
X353218Y78117D01*
X352960Y77963D01*
X352443Y77197D01*
X352082Y76852D01*
X351565Y76622D01*
X351100Y76545D01*
Y78155D01*
G01Y80250D02*
X351152Y80518D01*
X351307Y80825D01*
X351565Y81017D01*
X351927Y81093D01*
X352288Y81017D01*
X352598Y80787D01*
X352753Y80442D01*
Y80058D01*
X352857Y79828D01*
X353115Y79637D01*
X353477Y79560D01*
X353838Y79675D01*
X354097Y79943D01*
X354200Y80250D01*
X354097Y80557D01*
X353838Y80825D01*
X353477Y80940D01*
X353115Y80863D01*
X352857Y80672D01*
X352753Y80442D01*
Y80058D01*
X352598Y79713D01*
X352288Y79483D01*
X351927Y79407D01*
X351565Y79483D01*
X351307Y79675D01*
X351152Y79982D01*
X351100Y80250D01*
G01X345400Y74284D02*
X350400D01*
Y73284D01*
X345400D01*
Y74284D01*
G01X341383Y56800D02*
Y57600D01*
G01X352247Y56148D02*
X352402Y55918D01*
X352505Y55650D01*
Y55343D01*
X352350Y54998D01*
X352092Y54730D01*
X351782Y54538D01*
X351265Y54385D01*
X350800Y54347D01*
X350335Y54423D01*
X350025Y54538D01*
X349715Y54768D01*
X349508Y55037D01*
X349405Y55305D01*
Y55573D01*
X349508Y55842D01*
X349663Y56072D01*
X349870Y56263D01*
G01X349405Y58205D02*
X352505D01*
X351885Y57745D01*
G01X349405D02*
Y58665D01*
G01Y61028D02*
X350077Y61105D01*
X350645Y61220D01*
X351162Y61373D01*
X351730Y61565D01*
X352505Y61872D01*
Y60338D01*
G01X348005Y56955D02*
X343005D01*
Y57955D01*
X348005D01*
Y56955D01*
G01X378896Y55600D02*
Y58700D01*
X377937D01*
X377631Y58545D01*
X377439Y58338D01*
X377362Y57925D01*
X377439Y57512D01*
X377669Y57253D01*
X377937Y57098D01*
X378896D01*
G01X377937D02*
X377362Y55600D01*
G01X375229D02*
Y58700D01*
X375689Y58080D01*
G01Y55600D02*
X374769D01*
G01X372406D02*
X372329Y56272D01*
X372214Y56840D01*
X372061Y57357D01*
X371869Y57925D01*
X371562Y58700D01*
X373096D01*
G01X370157Y58183D02*
X369927Y58493D01*
X369659Y58648D01*
X369352Y58700D01*
X368969Y58597D01*
X368701Y58338D01*
X368624Y58028D01*
X368662Y57718D01*
X368816Y57460D01*
X369582Y56943D01*
X369927Y56582D01*
X370157Y56065D01*
X370234Y55600D01*
X368624D01*
G01X342683Y89100D02*
Y89900D01*
G01X354042Y88693D02*
X354197Y88463D01*
X354300Y88195D01*
Y87888D01*
X354145Y87543D01*
X353887Y87275D01*
X353577Y87083D01*
X353060Y86930D01*
X352595Y86892D01*
X352130Y86968D01*
X351820Y87083D01*
X351510Y87313D01*
X351303Y87582D01*
X351200Y87850D01*
Y88118D01*
X351303Y88387D01*
X351458Y88617D01*
X351665Y88808D01*
G01X351820Y89907D02*
X351458Y90137D01*
X351252Y90443D01*
X351200Y90788D01*
X351252Y91095D01*
X351510Y91402D01*
X351820Y91593D01*
X352130Y91632D01*
X352492Y91555D01*
X352750Y91287D01*
X352853Y91018D01*
Y90673D01*
G01Y91018D02*
X353008Y91248D01*
X353267Y91440D01*
X353577Y91517D01*
X353887Y91440D01*
X354145Y91248D01*
X354300Y90903D01*
X354248Y90558D01*
X354042Y90213D01*
G01X351820Y92807D02*
X351458Y93037D01*
X351252Y93343D01*
X351200Y93688D01*
X351252Y93995D01*
X351510Y94302D01*
X351820Y94493D01*
X352130Y94532D01*
X352492Y94455D01*
X352750Y94187D01*
X352853Y93918D01*
Y93573D01*
G01Y93918D02*
X353008Y94148D01*
X353267Y94340D01*
X353577Y94417D01*
X353887Y94340D01*
X354145Y94148D01*
X354300Y93803D01*
X354248Y93458D01*
X354042Y93113D01*
G01X349205Y89200D02*
X344205D01*
Y90200D01*
X349205D01*
Y89200D01*
G01X367733Y143985D02*
X368040Y144037D01*
X368308Y144243D01*
X368538Y144553D01*
X368691Y144915D01*
X368768Y145328D01*
Y145742D01*
X368691Y146155D01*
X368538Y146517D01*
X368308Y146827D01*
X368040Y147033D01*
X367733Y147085D01*
X367426Y147033D01*
X367158Y146827D01*
X366928Y146517D01*
X366775Y146155D01*
X366698Y145742D01*
Y145328D01*
X366775Y144915D01*
X366928Y144553D01*
X367158Y144243D01*
X367426Y144037D01*
X367733Y143985D01*
G01X367426Y144812D02*
X366966Y143985D01*
G01X364910D02*
X364833Y144657D01*
X364718Y145225D01*
X364565Y145742D01*
X364373Y146310D01*
X364066Y147085D01*
X365600D01*
G01X351817Y152220D02*
X351625Y151910D01*
X351395Y151703D01*
X351127Y151600D01*
X350820Y151703D01*
X350590Y151910D01*
X350360Y152220D01*
X350283Y152633D01*
Y154700D01*
G01X348878Y154183D02*
X348648Y154493D01*
X348380Y154648D01*
X348073Y154700D01*
X347690Y154597D01*
X347422Y154338D01*
X347345Y154028D01*
X347383Y153718D01*
X347537Y153460D01*
X348303Y152943D01*
X348648Y152582D01*
X348878Y152065D01*
X348955Y151600D01*
X347345D01*
G01X345327D02*
X345250Y152272D01*
X345135Y152840D01*
X344982Y153357D01*
X344790Y153925D01*
X344483Y154700D01*
X346017D01*
G01X353790Y192699D02*
X353598Y192389D01*
X353368Y192182D01*
X353100Y192079D01*
X352793Y192182D01*
X352563Y192389D01*
X352333Y192699D01*
X352256Y193112D01*
Y195179D01*
G01X350851Y193371D02*
X350583Y193732D01*
X350353Y193939D01*
X350046Y194042D01*
X349778Y193939D01*
X349586Y193732D01*
X349433Y193422D01*
X349395Y193061D01*
X349433Y192751D01*
X349586Y192441D01*
X349816Y192182D01*
X350085Y192079D01*
X350391Y192182D01*
X350660Y192492D01*
X350813Y192957D01*
X350851Y193474D01*
X350775Y194146D01*
X350660Y194507D01*
X350468Y194869D01*
X350200Y195127D01*
X349931Y195179D01*
X349663Y195076D01*
X349471Y194817D01*
G01X348066Y192699D02*
X347836Y192337D01*
X347530Y192131D01*
X347185Y192079D01*
X346878Y192131D01*
X346571Y192389D01*
X346380Y192699D01*
X346341Y193009D01*
X346418Y193371D01*
X346686Y193629D01*
X346955Y193732D01*
X347300D01*
G01X346955D02*
X346725Y193887D01*
X346533Y194146D01*
X346456Y194456D01*
X346533Y194766D01*
X346725Y195024D01*
X347070Y195179D01*
X347415Y195127D01*
X347760Y194921D01*
G01X359185Y197716D02*
Y200816D01*
X359645Y200196D01*
G01Y197716D02*
X358725D01*
G01X352752Y205236D02*
X352560Y204926D01*
X352330Y204719D01*
X352062Y204616D01*
X351755Y204719D01*
X351525Y204926D01*
X351295Y205236D01*
X351218Y205649D01*
Y207716D01*
G01X349085Y204616D02*
X348817Y204668D01*
X348510Y204823D01*
X348318Y205081D01*
X348242Y205443D01*
X348318Y205804D01*
X348548Y206114D01*
X348893Y206269D01*
X349277D01*
X349507Y206373D01*
X349698Y206631D01*
X349775Y206993D01*
X349660Y207354D01*
X349392Y207613D01*
X349085Y207716D01*
X348778Y207613D01*
X348510Y207354D01*
X348395Y206993D01*
X348472Y206631D01*
X348663Y206373D01*
X348893Y206269D01*
X349277D01*
X349622Y206114D01*
X349852Y205804D01*
X349928Y205443D01*
X349852Y205081D01*
X349660Y204823D01*
X349353Y204668D01*
X349085Y204616D01*
G01X380517Y12200D02*
Y15300D01*
X379558D01*
X379252Y15145D01*
X379060Y14938D01*
X378983Y14525D01*
X379060Y14112D01*
X379290Y13853D01*
X379558Y13698D01*
X380517D01*
G01X379558D02*
X378983Y12200D01*
G01X377578Y13492D02*
X377310Y13853D01*
X377080Y14060D01*
X376773Y14163D01*
X376505Y14060D01*
X376313Y13853D01*
X376160Y13543D01*
X376122Y13182D01*
X376160Y12872D01*
X376313Y12562D01*
X376543Y12303D01*
X376812Y12200D01*
X377118Y12303D01*
X377387Y12613D01*
X377540Y13078D01*
X377578Y13595D01*
X377502Y14267D01*
X377387Y14628D01*
X377195Y14990D01*
X376927Y15248D01*
X376658Y15300D01*
X376390Y15197D01*
X376198Y14938D01*
G01X374678Y14783D02*
X374448Y15093D01*
X374180Y15248D01*
X373873Y15300D01*
X373490Y15197D01*
X373222Y14938D01*
X373145Y14628D01*
X373183Y14318D01*
X373337Y14060D01*
X374103Y13543D01*
X374448Y13182D01*
X374678Y12665D01*
X374755Y12200D01*
X373145D01*
G01X388029Y11500D02*
X389929D01*
Y16500D01*
X388029D01*
Y11500D01*
G01X409717Y48000D02*
Y51100D01*
X408758D01*
X408452Y50945D01*
X408260Y50738D01*
X408183Y50325D01*
X408260Y49912D01*
X408490Y49653D01*
X408758Y49498D01*
X409717D01*
G01X408758D02*
X408183Y48000D01*
G01X406050D02*
Y51100D01*
X406510Y50480D01*
G01Y48000D02*
X405590D01*
G01X403878Y49292D02*
X403610Y49653D01*
X403380Y49860D01*
X403073Y49963D01*
X402805Y49860D01*
X402613Y49653D01*
X402460Y49343D01*
X402422Y48982D01*
X402460Y48672D01*
X402613Y48362D01*
X402843Y48103D01*
X403112Y48000D01*
X403418Y48103D01*
X403687Y48413D01*
X403840Y48878D01*
X403878Y49395D01*
X403802Y50067D01*
X403687Y50428D01*
X403495Y50790D01*
X403227Y51048D01*
X402958Y51100D01*
X402690Y50997D01*
X402498Y50738D01*
G01X401093Y48465D02*
X400863Y48207D01*
X400595Y48052D01*
X400250Y48000D01*
X399905Y48103D01*
X399637Y48310D01*
X399445Y48672D01*
X399407Y49085D01*
X399483Y49498D01*
X399675Y49757D01*
X399943Y49963D01*
X400212Y50015D01*
X400480Y49963D01*
X400825Y49757D01*
X400710Y51100D01*
X399675D01*
G01X386929Y46600D02*
X388829D01*
Y51600D01*
X386929D01*
Y46600D01*
G01X383696Y22800D02*
Y25900D01*
X382737D01*
X382431Y25745D01*
X382239Y25538D01*
X382162Y25125D01*
X382239Y24712D01*
X382469Y24453D01*
X382737Y24298D01*
X383696D01*
G01X382737D02*
X382162Y22800D01*
G01X380757Y24092D02*
X380489Y24453D01*
X380259Y24660D01*
X379952Y24763D01*
X379684Y24660D01*
X379492Y24453D01*
X379339Y24143D01*
X379301Y23782D01*
X379339Y23472D01*
X379492Y23162D01*
X379722Y22903D01*
X379991Y22800D01*
X380297Y22903D01*
X380566Y23213D01*
X380719Y23678D01*
X380757Y24195D01*
X380681Y24867D01*
X380566Y25228D01*
X380374Y25590D01*
X380106Y25848D01*
X379837Y25900D01*
X379569Y25797D01*
X379377Y25538D01*
G01X377781Y23162D02*
X377512Y22903D01*
X377206Y22800D01*
X376899Y22903D01*
X376631Y23213D01*
X376439Y23678D01*
X376362Y24143D01*
Y24712D01*
X376439Y25177D01*
X376631Y25590D01*
X376861Y25797D01*
X377129Y25900D01*
X377436Y25797D01*
X377666Y25590D01*
X377819Y25280D01*
X377896Y24867D01*
X377819Y24505D01*
X377627Y24143D01*
X377397Y23937D01*
X377129Y23885D01*
X376822Y23988D01*
X376592Y24247D01*
X376362Y24712D01*
G01X392917Y34900D02*
Y38000D01*
X391958D01*
X391652Y37845D01*
X391460Y37638D01*
X391383Y37225D01*
X391460Y36812D01*
X391690Y36553D01*
X391958Y36398D01*
X392917D01*
G01X391958D02*
X391383Y34900D01*
G01X389250D02*
Y38000D01*
X389710Y37380D01*
G01Y34900D02*
X388790D01*
G01X387078Y36192D02*
X386810Y36553D01*
X386580Y36760D01*
X386273Y36863D01*
X386005Y36760D01*
X385813Y36553D01*
X385660Y36243D01*
X385622Y35882D01*
X385660Y35572D01*
X385813Y35262D01*
X386043Y35003D01*
X386312Y34900D01*
X386618Y35003D01*
X386887Y35313D01*
X387040Y35778D01*
X387078Y36295D01*
X387002Y36967D01*
X386887Y37328D01*
X386695Y37690D01*
X386427Y37948D01*
X386158Y38000D01*
X385890Y37897D01*
X385698Y37638D01*
G01X382990Y34900D02*
Y38000D01*
X384408Y35778D01*
X382492D01*
G01X383896Y63300D02*
Y66400D01*
X382937D01*
X382631Y66245D01*
X382439Y66038D01*
X382362Y65625D01*
X382439Y65212D01*
X382669Y64953D01*
X382937Y64798D01*
X383896D01*
G01X382937D02*
X382362Y63300D01*
G01X380229D02*
Y66400D01*
X380689Y65780D01*
G01Y63300D02*
X379769D01*
G01X377406D02*
X377329Y63972D01*
X377214Y64540D01*
X377061Y65057D01*
X376869Y65625D01*
X376562Y66400D01*
X378096D01*
G01X375272Y63920D02*
X375042Y63558D01*
X374736Y63352D01*
X374391Y63300D01*
X374084Y63352D01*
X373777Y63610D01*
X373586Y63920D01*
X373547Y64230D01*
X373624Y64592D01*
X373892Y64850D01*
X374161Y64953D01*
X374506D01*
G01X374161D02*
X373931Y65108D01*
X373739Y65367D01*
X373662Y65677D01*
X373739Y65987D01*
X373931Y66245D01*
X374276Y66400D01*
X374621Y66348D01*
X374966Y66142D01*
G01X378893Y96124D02*
X378663Y95762D01*
X378357Y95556D01*
X378012Y95504D01*
X377705Y95556D01*
X377398Y95814D01*
X377207Y96124D01*
X377168Y96434D01*
X377245Y96796D01*
X377513Y97054D01*
X377782Y97157D01*
X378127D01*
G01X377782D02*
X377552Y97312D01*
X377360Y97571D01*
X377283Y97881D01*
X377360Y98191D01*
X377552Y98449D01*
X377897Y98604D01*
X378242Y98552D01*
X378587Y98346D01*
G01X375802Y95866D02*
X375533Y95607D01*
X375227Y95504D01*
X374920Y95607D01*
X374652Y95917D01*
X374460Y96382D01*
X374383Y96847D01*
Y97416D01*
X374460Y97881D01*
X374652Y98294D01*
X374882Y98501D01*
X375150Y98604D01*
X375457Y98501D01*
X375687Y98294D01*
X375840Y97984D01*
X375917Y97571D01*
X375840Y97209D01*
X375648Y96847D01*
X375418Y96641D01*
X375150Y96589D01*
X374843Y96692D01*
X374613Y96951D01*
X374383Y97416D01*
G01X392196Y83500D02*
Y86600D01*
X391237D01*
X390931Y86445D01*
X390739Y86238D01*
X390662Y85825D01*
X390739Y85412D01*
X390969Y85153D01*
X391237Y84998D01*
X392196D01*
G01X391237D02*
X390662Y83500D01*
G01X389257Y86083D02*
X389027Y86393D01*
X388759Y86548D01*
X388452Y86600D01*
X388069Y86497D01*
X387801Y86238D01*
X387724Y85928D01*
X387762Y85618D01*
X387916Y85360D01*
X388682Y84843D01*
X389027Y84482D01*
X389257Y83965D01*
X389334Y83500D01*
X387724D01*
G01X385629Y86600D02*
X385936Y86497D01*
X386166Y86238D01*
X386319Y85928D01*
X386434Y85515D01*
X386472Y85050D01*
X386434Y84585D01*
X386319Y84172D01*
X386166Y83862D01*
X385936Y83603D01*
X385629Y83500D01*
X385322Y83603D01*
X385092Y83862D01*
X384939Y84172D01*
X384824Y84585D01*
X384786Y85050D01*
X384824Y85515D01*
X384939Y85928D01*
X385092Y86238D01*
X385322Y86497D01*
X385629Y86600D01*
G01X384461Y136668D02*
X384231Y136978D01*
X383963Y137133D01*
X383656Y137185D01*
X383273Y137082D01*
X383005Y136823D01*
X382928Y136513D01*
X382966Y136203D01*
X383120Y135945D01*
X383886Y135428D01*
X384231Y135067D01*
X384461Y134550D01*
X384538Y134085D01*
X382928D01*
G01X390946Y140515D02*
Y136815D01*
X394846D01*
G01X379590Y122204D02*
Y125304D01*
X381008Y123082D01*
X379092D01*
G01X377150Y125304D02*
X377457Y125201D01*
X377687Y124942D01*
X377840Y124632D01*
X377955Y124219D01*
X377993Y123754D01*
X377955Y123289D01*
X377840Y122876D01*
X377687Y122566D01*
X377457Y122307D01*
X377150Y122204D01*
X376843Y122307D01*
X376613Y122566D01*
X376460Y122876D01*
X376345Y123289D01*
X376307Y123754D01*
X376345Y124219D01*
X376460Y124632D01*
X376613Y124942D01*
X376843Y125201D01*
X377150Y125304D01*
G01X397865Y152454D02*
Y155554D01*
X398325Y154934D01*
G01Y152454D02*
X397405D01*
G01X384065Y152183D02*
Y155283D01*
X384525Y154663D01*
G01Y152183D02*
X383605D01*
G01X379446Y150715D02*
X375446D01*
Y147115D01*
G01Y141015D02*
Y137315D01*
X379346D01*
G01X382346Y145015D02*
Y142915D01*
G01X394946Y150215D02*
X390946D01*
Y146615D01*
G01X397846Y144515D02*
Y142415D01*
G01X403861Y137968D02*
X403631Y138278D01*
X403363Y138433D01*
X403056Y138485D01*
X402673Y138382D01*
X402405Y138123D01*
X402328Y137813D01*
X402366Y137503D01*
X402520Y137245D01*
X403286Y136728D01*
X403631Y136367D01*
X403861Y135850D01*
X403938Y135385D01*
X402328D01*
G01X409233Y145185D02*
X409540Y145237D01*
X409808Y145443D01*
X410038Y145753D01*
X410191Y146115D01*
X410268Y146528D01*
Y146942D01*
X410191Y147355D01*
X410038Y147717D01*
X409808Y148027D01*
X409540Y148233D01*
X409233Y148285D01*
X408926Y148233D01*
X408658Y148027D01*
X408428Y147717D01*
X408275Y147355D01*
X408198Y146942D01*
Y146528D01*
X408275Y146115D01*
X408428Y145753D01*
X408658Y145443D01*
X408926Y145237D01*
X409233Y145185D01*
G01X408926Y146012D02*
X408466Y145185D01*
G01X407061Y146477D02*
X406793Y146838D01*
X406563Y147045D01*
X406256Y147148D01*
X405988Y147045D01*
X405796Y146838D01*
X405643Y146528D01*
X405605Y146167D01*
X405643Y145857D01*
X405796Y145547D01*
X406026Y145288D01*
X406295Y145185D01*
X406601Y145288D01*
X406870Y145598D01*
X407023Y146063D01*
X407061Y146580D01*
X406985Y147252D01*
X406870Y147613D01*
X406678Y147975D01*
X406410Y148233D01*
X406141Y148285D01*
X405873Y148182D01*
X405681Y147923D01*
G01X401350Y159300D02*
X401082Y159352D01*
X400775Y159507D01*
X400583Y159765D01*
X400507Y160127D01*
X400583Y160488D01*
X400813Y160798D01*
X401158Y160953D01*
X401542D01*
X401772Y161057D01*
X401963Y161315D01*
X402040Y161677D01*
X401925Y162038D01*
X401657Y162297D01*
X401350Y162400D01*
X401043Y162297D01*
X400775Y162038D01*
X400660Y161677D01*
X400737Y161315D01*
X400928Y161057D01*
X401158Y160953D01*
X401542D01*
X401887Y160798D01*
X402117Y160488D01*
X402193Y160127D01*
X402117Y159765D01*
X401925Y159507D01*
X401618Y159352D01*
X401350Y159300D01*
G54D14*
G01X153779Y49300D02*
X83779D01*
Y29300D01*
X153779D01*
Y49300D01*
M02*
